<?xml version="1.0" encoding="utf-8"?>
<!-- Svg Vector Icons : http://www.onlinewebfonts.com/icon -->
<!DOCTYPE svg PUBLIC "-//W3C//DTD SVG 1.1//EN" "http://www.w3.org/Graphics/SVG/1.1/DTD/svg11.dtd">
<svg version="1.1" xmlns="http://www.w3.org/2000/svg" xmlns:xlink="http://www.w3.org/1999/xlink" x="0px" y="0px" viewBox="0 0 1000 1000" enable-background="new 0 0 1000 1000" xml:space="preserve">
<metadata> Svg Vector Icons : http://www.onlinewebfonts.com/icon </metadata>
<g><g transform="translate(0.000000,512.000000) scale(0.100000,-0.100000)"><path d="M4284.3,4983.3c-32.6-21.1-69-65.1-82.4-99.6c-13.4-40.2-21.1-297-21.1-787.4c0-798.9,3.8-829.6,113-885.1c72.8-38.3,122.6-38.3,193.5-1.9c99.6,51.7,105.4,78.6,115,574.8l9.6,457.9l427.2-496.2c235.7-274,450.2-513.5,479-530.7c63.2-42.1,122.6-44.1,197.3-3.8c109.2,55.6,113,86.2,113,889s-3.8,833.4-113,889c-72.8,38.3-122.6,38.3-193.5,1.9c-99.6-51.7-105.4-78.6-115-574.8l-9.6-459.8L4979.8,4445c-229.9,268.2-444.5,507.7-477.1,532.6C4429.9,5029.3,4362.8,5031.2,4284.3,4983.3z"/><path d="M4577.4,2017.6c-189.7-187.8-354.4-367.8-369.8-400.4c-69-162.8,111.1-333.4,266.3-254.8c23,11.5,105.4,82.4,182,157.1l137.9,136V990.6V325.8h-664.8h-664.8l136,139.9c74.7,74.7,145.6,157.1,157.1,180.1c78.6,155.2-92,335.3-254.8,266.3C3470,896.8,3290,732,3104.1,542.3c-337.2-339.1-341-344.9-341-427.2c0-82.4,3.8-88.1,341-427.2C3290-501.8,3470-666.6,3500.7-680c147.5-65.2,308.5,74.7,268.2,233.7c-5.7,28.7-78.6,118.8-157.1,201.2L3466.2-95.7h662.9h664.8v-664.8v-664.8l-137.9,136c-76.6,74.7-159,145.6-182,157.1c-155.2,78.6-335.3-92-266.3-254.8c15.3-32.6,180.1-212.7,369.8-398.5c339.1-337.2,344.9-341,427.2-341s88.1,3.8,427.2,341c189.7,185.8,354.4,365.9,369.8,398.5c69,162.9-111.1,333.4-266.3,254.8c-23-11.5-105.4-82.4-180.1-157.1l-139.9-136v664.8v664.8h664.8H6545l-136-137.9c-74.7-76.6-145.6-159-157.1-182c-78.5-155.2,92-335.3,254.8-266.3c32.5,15.3,212.7,180.1,400.4,369.8C7242.4,27,7246.2,32.7,7246.2,115.1c0,82.4-3.8,88.1-339.1,427.2c-187.8,189.7-367.9,354.4-400.4,369.8c-162.9,69-333.4-111.1-254.8-266.3c11.5-23,82.4-105.4,157.1-180.1l136-139.9h-664.8h-664.8v664.8v662.9l149.4-145.6c82.4-78.5,172.4-151.4,201.2-157.1c155.2-40.2,297,118.8,237.6,262.5c-21.1,49.8-607.3,655.2-693.6,716.5c-21.1,15.3-70.9,26.8-113,26.8C4924.2,2356.7,4907,2343.3,4577.4,2017.6z"/><path d="M165.1,1065.4C128.7,1029,100,981.1,100,958.1c0-97.7,212.7-1731.9,229.9-1764.5c47.9-86.2,172.4-118.8,275.9-72.8c28.7,13.4,137.9,157.1,281.6,373.6l233.7,352.5l235.7-352.5c130.3-195.4,252.9-364,274-375.5c95.8-49.8,249.1-1.9,285.5,90c11.5,28.8,69,433,126.5,896.6c90.1,735.7,101.5,850.6,78.6,902.4c-69,166.7-304.6,162.8-369.8-5.8c-11.5-28.7-47.9-281.6-80.5-561.3s-65.1-519.2-69-534.5c-5.7-17.2-74.7,70.9-168.6,210.7c-88.1,130.3-174.3,251-193.5,266.3c-51.7,42.2-187.7,36.4-239.5-9.6c-24.9-21.1-113-141.8-197.3-268.2C718.8-20.9,646-114.8,644.1-105.2c-3.8,11.5-38.3,264.4-74.7,563.3c-38.3,298.9-76.6,559.4-88.1,578.6c-24.9,47.9-116.9,93.9-191.6,93.9C247.5,1130.5,211.1,1111.3,165.1,1065.4z"/><path d="M8336.4,1074.9l-55.6-55.6V115.1v-904.3l55.6-55.6l55.5-55.5h691.6h691.6l61.3,55.5c53.7,47.9,63.2,69,63.2,143.7c0,69-11.5,97.7-53.6,139.9l-51.7,53.6l-555.6,5.7l-555.6,5.7v199.3v199.2l342.9,5.8l344.9,5.7l57.5,55.6c49.8,47.9,59.4,70.9,59.4,145.6c0,74.7-9.6,97.7-59.4,145.6l-57.5,55.6l-344.9,5.7l-342.9,5.8v201.2v199.3h525c295,0,547.9,7.7,574.8,19.2c130.3,49.8,159,233.7,49.8,331.4l-57.5,51.7h-691.6H8392L8336.4,1074.9z"/><path d="M4765.2-2804.7c-115-53.7-264.4-208.8-321.9-333.4c-30.7-67.1-42.2-128.4-42.2-233.8c0-124.5,7.7-157.1,57.5-247.1c105.4-191.6,277.8-306.5,526.9-354.4c155.2-28.8,201.2-63.2,220.3-170.5c19.2-95.8-17.3-162.9-109.2-205c-136-61.3-201.2-51.7-291.2,44.1c-44.1,46-97.7,93.9-120.7,105.4c-118.8,65.2-268.2-19.2-287.4-159c-7.7-67.1,0-90,55.6-162.9c70.9-93.9,228-199.3,350.6-233.7c42.2-13.4,137.9-23,210.7-23c107.3,0,153.3,11.5,235.7,53.7c298.9,153.3,444.5,515.4,312.3,783.6c-90,185.8-308.5,348.7-496.2,369.7c-193.5,21.1-241.4,53.7-262.5,178.2c-24.9,143.7,61.3,231.8,233.7,237.6c90,3.8,99.6-1.9,231.8-176.3c109.2-141.8,348.7-51.7,348.7,132.2c0,124.5-197.3,335.3-375.5,400.4C5092.8-2741.5,4891.6-2745.3,4765.2-2804.7z"/></g></g>
</svg>