<?xml version="1.0" encoding="utf-8"?>
<!-- Generator: Adobe Illustrator 16.0.0, SVG Export Plug-In . SVG Version: 6.00 Build 0)  -->
<!DOCTYPE svg PUBLIC "-//W3C//DTD SVG 1.1//EN" "http://www.w3.org/Graphics/SVG/1.1/DTD/svg11.dtd">
<svg version="1.1" xmlns="http://www.w3.org/2000/svg" xmlns:xlink="http://www.w3.org/1999/xlink" x="0px" y="0px" width="3840px"
	 height="2160px" viewBox="0 0 3840 2160" enable-background="new 0 0 3840 2160" xml:space="preserve">
<g id="Layer_1">
</g>
<g id="Layer_2">
</g>
<g id="Layer_3">
</g>
<g id="Layer_4">
</g>
<g id="Layer_5">
</g>
<g id="Layer_6">
</g>
<g id="Layer_7">
</g>
<g id="Layer_8">
</g>
<g id="Layer_9">
</g>
<g id="Layer_10">
	<g>
		
			<linearGradient id="SVGID_1_" gradientUnits="userSpaceOnUse" x1="3522.4287" y1="3579.2861" x2="3526.2688" y2="3575.446" gradientTransform="matrix(61 0 0 -129 -212672.375 461895.375)">
			<stop  offset="0" style="stop-color:#D99FB4"/>
			<stop  offset="1" style="stop-color:#E8BDD1"/>
		</linearGradient>
		<polygon fill="url(#SVGID_1_)" points="2446.716,489.355 2412.27,144.863 2184.049,622.707 		"/>
		
			<linearGradient id="SVGID_2_" gradientUnits="userSpaceOnUse" x1="3531.9097" y1="3566.9385" x2="3535.8523" y2="3562.9958" gradientTransform="matrix(154 0 0 -256 -543509.375 913913.25)">
			<stop  offset="0" style="stop-color:#6F4548"/>
			<stop  offset="1" style="stop-color:#7D5457"/>
		</linearGradient>
		<polygon fill="url(#SVGID_2_)" points="427.205,1300.578 1090.327,1656.184 655.422,707.904 		"/>
		
			<linearGradient id="SVGID_3_" gradientUnits="userSpaceOnUse" x1="3538.2974" y1="3567.0576" x2="3542.4233" y2="3562.9316" gradientTransform="matrix(181 0 0 -251 -639286.375 896209.25)">
			<stop  offset="0" style="stop-color:#5B494A"/>
			<stop  offset="1" style="stop-color:#6B4F4A"/>
		</linearGradient>
		<polygon fill="url(#SVGID_3_)" points="1680.249,1956.225 1869.713,1026.466 1090.327,1656.184 		"/>
		
			<linearGradient id="SVGID_4_" gradientUnits="userSpaceOnUse" x1="3492.4609" y1="3706.8008" x2="3496.3721" y2="3702.8896" gradientTransform="matrix(46 0 0 -17 -159650.375 63485.3594)">
			<stop  offset="0" style="stop-color:#AB6C83"/>
			<stop  offset="1" style="stop-color:#B36D85"/>
		</linearGradient>
		<polygon fill="url(#SVGID_4_)" points="1133.388,463.426 1008.514,526.396 1206.589,507.876 		"/>
		
			<linearGradient id="SVGID_5_" gradientUnits="userSpaceOnUse" x1="3522.9849" y1="3590.5879" x2="3527.0349" y2="3586.5378" gradientTransform="matrix(89 0 0 -85 -312400.5 305356.5)">
			<stop  offset="0" style="stop-color:#AB607A"/>
			<stop  offset="1" style="stop-color:#BC7A93"/>
		</linearGradient>
		<polygon fill="url(#SVGID_5_)" points="1516.622,193.018 1133.388,463.426 1206.589,507.876 		"/>
		
			<linearGradient id="SVGID_6_" gradientUnits="userSpaceOnUse" x1="3488.9902" y1="3571.3555" x2="3493.0203" y2="3567.3254" gradientTransform="matrix(56 0 0 -203 -195422.375 725201.375)">
			<stop  offset="0" style="stop-color:#885A6A"/>
			<stop  offset="1" style="stop-color:#7C5561"/>
		</linearGradient>
		<polygon fill="url(#SVGID_6_)" points="207.599,833.847 0,285.334 0,405.885 87.031,948.678 		"/>
		
			<linearGradient id="SVGID_7_" gradientUnits="userSpaceOnUse" x1="3497.2441" y1="3573.0791" x2="3501.3965" y2="3568.9268" gradientTransform="matrix(58 0 0 -160 -202426.375 572345.375)">
			<stop  offset="0" style="stop-color:#624546"/>
			<stop  offset="1" style="stop-color:#6B4450"/>
		</linearGradient>
		<polygon fill="url(#SVGID_7_)" points="405.675,978.313 427.205,1300.578 655.422,707.904 		"/>
		
			<linearGradient id="SVGID_8_" gradientUnits="userSpaceOnUse" x1="3509.7969" y1="3581.8965" x2="3513.802" y2="3577.8914" gradientTransform="matrix(79 0 0 -95 -277113.5 341140.5)">
			<stop  offset="0" style="stop-color:#90637B"/>
			<stop  offset="1" style="stop-color:#5C4046"/>
		</linearGradient>
		<polygon fill="url(#SVGID_8_)" points="87.031,948.678 427.205,1300.578 405.675,978.313 		"/>
		
			<linearGradient id="SVGID_9_" gradientUnits="userSpaceOnUse" x1="3505.6289" y1="3615.6895" x2="3509.564" y2="3611.7544" gradientTransform="matrix(74 0 0 -39 -259348.5 141861.3438)">
			<stop  offset="0" style="stop-color:#785062"/>
			<stop  offset="1" style="stop-color:#5C3C45"/>
		</linearGradient>
		<polygon fill="url(#SVGID_9_)" points="207.599,833.847 87.031,948.678 405.675,978.313 		"/>
		
			<linearGradient id="SVGID_10_" gradientUnits="userSpaceOnUse" x1="3520.9297" y1="3590.9854" x2="3524.9067" y2="3587.0083" gradientTransform="matrix(104 0 0 -73 -365910.5 262799.5)">
			<stop  offset="0" style="stop-color:#513338"/>
			<stop  offset="1" style="stop-color:#502F36"/>
		</linearGradient>
		<polygon fill="url(#SVGID_10_)" points="655.422,707.904 207.599,833.847 405.675,978.313 		"/>
		
			<linearGradient id="SVGID_11_" gradientUnits="userSpaceOnUse" x1="3538.7002" y1="3577.3408" x2="3543.2876" y2="3572.7534" gradientTransform="matrix(148 0 0 -130 -521856.375 465561.375)">
			<stop  offset="0" style="stop-color:#CD8FA9"/>
			<stop  offset="1" style="stop-color:#CF91AE"/>
		</linearGradient>
		<polygon fill="url(#SVGID_11_)" points="1869.713,1026.466 2507,544.918 2184.049,622.707 		"/>
		
			<linearGradient id="SVGID_12_" gradientUnits="userSpaceOnUse" x1="3546.811" y1="3566.6367" x2="3550.8625" y2="3562.5852" gradientTransform="matrix(342 0 0 -290 -1211138.25 1034841.25)">
			<stop  offset="0" style="stop-color:#AE607E"/>
			<stop  offset="1" style="stop-color:#814A68"/>
		</linearGradient>
		<polygon fill="url(#SVGID_12_)" points="3342.363,1619.143 2507,544.918 1869.713,1026.466 		"/>
		
			<linearGradient id="SVGID_13_" gradientUnits="userSpaceOnUse" x1="3528.1035" y1="3627.6953" x2="3531.9937" y2="3623.8052" gradientTransform="matrix(75 0 0 -36 -262414.5 131094.375)">
			<stop  offset="0" style="stop-color:#D288A7"/>
			<stop  offset="1" style="stop-color:#D692B4"/>
		</linearGradient>
		<polygon fill="url(#SVGID_13_)" points="2184.049,622.707 2507,544.918 2446.716,489.355 		"/>
		
			<linearGradient id="SVGID_14_" gradientUnits="userSpaceOnUse" x1="3498.0674" y1="3574.8682" x2="3502.0525" y2="3570.8831" gradientTransform="matrix(64 0 0 -172 -223846.375 614903.375)">
			<stop  offset="0" style="stop-color:#745B68"/>
			<stop  offset="1" style="stop-color:#947B88"/>
		</linearGradient>
		<polygon fill="url(#SVGID_14_)" points="242.046,255.99 0,203.936 0,285.334 207.599,833.847 		"/>
		
			<linearGradient id="SVGID_15_" gradientUnits="userSpaceOnUse" x1="3534.2568" y1="3580.2041" x2="3538.3374" y2="3576.1235" gradientTransform="matrix(178 0 0 -122 -628824.375 437019.4375)">
			<stop  offset="0" style="stop-color:#8F6170"/>
			<stop  offset="1" style="stop-color:#A3808F"/>
		</linearGradient>
		<polygon fill="url(#SVGID_15_)" points="1008.514,526.396 242.046,255.99 655.422,707.904 		"/>
		
			<linearGradient id="SVGID_16_" gradientUnits="userSpaceOnUse" x1="3519.8052" y1="3574.6426" x2="3523.8352" y2="3570.6125" gradientTransform="matrix(104 0 0 -156 -365910.5 557991.375)">
			<stop  offset="0" style="stop-color:#794F5A"/>
			<stop  offset="1" style="stop-color:#9F7888"/>
		</linearGradient>
		<polygon fill="url(#SVGID_16_)" points="242.046,255.99 207.599,833.847 655.422,707.904 		"/>
		
			<linearGradient id="SVGID_17_" gradientUnits="userSpaceOnUse" x1="3537.6704" y1="3577.5068" x2="3541.6013" y2="3573.5759" gradientTransform="matrix(134 0 0 -150 -472122.375 536592.375)">
			<stop  offset="0" style="stop-color:#DCAEBE"/>
			<stop  offset="1" style="stop-color:#EFD9E4"/>
		</linearGradient>
		<polygon fill="url(#SVGID_17_)" points="2412.27,144.863 1835.264,67.074 2184.049,622.707 		"/>
		
			<linearGradient id="SVGID_18_" gradientUnits="userSpaceOnUse" x1="3537.354" y1="3608.376" x2="3541.3635" y2="3604.3665" gradientTransform="matrix(199 0 0 -49 -703341.375 177358.375)">
			<stop  offset="0" style="stop-color:#94576C"/>
			<stop  offset="1" style="stop-color:#A15B72"/>
		</linearGradient>
		<polygon fill="url(#SVGID_18_)" points="1512.314,630.115 1008.514,526.396 655.422,707.904 		"/>
		
			<linearGradient id="SVGID_19_" gradientUnits="userSpaceOnUse" x1="3538.3599" y1="3567.4209" x2="3542.2773" y2="3563.5034" gradientTransform="matrix(199 0 0 -277 -703341.375 988610.25)">
			<stop  offset="0" style="stop-color:#8C5262"/>
			<stop  offset="1" style="stop-color:#815156"/>
		</linearGradient>
		<polygon fill="url(#SVGID_19_)" points="655.422,707.904 1090.327,1656.184 1512.314,630.115 		"/>
		
			<linearGradient id="SVGID_20_" gradientUnits="userSpaceOnUse" x1="3529.5049" y1="3634.1709" x2="3533.5347" y2="3630.1411" gradientTransform="matrix(117 0 0 -33 -411913.4375 120425.375)">
			<stop  offset="0" style="stop-color:#A05F75"/>
			<stop  offset="1" style="stop-color:#B0657E"/>
		</linearGradient>
		<polygon fill="url(#SVGID_20_)" points="1206.589,507.876 1008.514,526.396 1512.314,630.115 		"/>
		
			<linearGradient id="SVGID_21_" gradientUnits="userSpaceOnUse" x1="3537.8594" y1="3566.4336" x2="3541.8904" y2="3562.4026" gradientTransform="matrix(181 0 0 -277 -639286.375 988610.25)">
			<stop  offset="0" style="stop-color:#835F5B"/>
			<stop  offset="1" style="stop-color:#BF7088"/>
		</linearGradient>
		<polygon fill="url(#SVGID_21_)" points="1090.327,1656.184 1869.713,1026.466 1512.314,630.115 		"/>
		
			<linearGradient id="SVGID_22_" gradientUnits="userSpaceOnUse" x1="3516.7568" y1="3581.7441" x2="3520.9297" y2="3577.5713" gradientTransform="matrix(72 0 0 -118 -251982.5 422770.4375)">
			<stop  offset="0" style="stop-color:#B87089"/>
			<stop  offset="1" style="stop-color:#C77F99"/>
		</linearGradient>
		<polygon fill="url(#SVGID_22_)" points="1512.314,630.115 1516.622,193.018 1206.589,507.876 		"/>
		
			<linearGradient id="SVGID_23_" gradientUnits="userSpaceOnUse" x1="3521.1655" y1="3576.8271" x2="3525.6482" y2="3572.3445" gradientTransform="matrix(75 0 0 -152 -262570.5 543708.375)">
			<stop  offset="0" style="stop-color:#D395AE"/>
			<stop  offset="1" style="stop-color:#D6A2B5"/>
		</linearGradient>
		<polygon fill="url(#SVGID_23_)" points="1835.264,67.074 1516.622,193.018 1512.314,630.115 		"/>
		
			<linearGradient id="SVGID_24_" gradientUnits="userSpaceOnUse" x1="3537.3496" y1="3576.084" x2="3541.2612" y2="3572.1724" gradientTransform="matrix(156 0 0 -152 -550363.375 543708.375)">
			<stop  offset="0" style="stop-color:#EACDD6"/>
			<stop  offset="1" style="stop-color:#CC879E"/>
		</linearGradient>
		<polygon fill="url(#SVGID_24_)" points="2184.049,622.707 1835.264,67.074 1512.314,630.115 		"/>
		
			<linearGradient id="SVGID_25_" gradientUnits="userSpaceOnUse" x1="3538.3848" y1="3580.9238" x2="3542.3005" y2="3577.0081" gradientTransform="matrix(156 0 0 -109 -550363.375 390864.4375)">
			<stop  offset="0" style="stop-color:#BB6D85"/>
			<stop  offset="1" style="stop-color:#BF748C"/>
		</linearGradient>
		<polygon fill="url(#SVGID_25_)" points="1512.314,630.115 1869.713,1026.466 2184.049,622.707 		"/>
		
			<linearGradient id="SVGID_26_" gradientUnits="userSpaceOnUse" x1="3538.3892" y1="3567.6611" x2="3542.428" y2="3563.6223" gradientTransform="matrix(246 0 0 -192 -870477.375 686361.375)">
			<stop  offset="0" style="stop-color:#465021"/>
			<stop  offset="1" style="stop-color:#455428"/>
		</linearGradient>
		<polygon fill="url(#SVGID_26_)" points="31.054,2011.789 1090.327,1656.184 427.205,1300.578 		"/>
		
			<linearGradient id="SVGID_27_" gradientUnits="userSpaceOnUse" x1="3496.6021" y1="3594.6768" x2="3500.6023" y2="3590.6765" gradientTransform="matrix(64 0 0 -78 -223846.375 280389.5)">
			<stop  offset="0" style="stop-color:#AF9EAB"/>
			<stop  offset="1" style="stop-color:#E4DAE7"/>
		</linearGradient>
		<polygon fill="url(#SVGID_27_)" points="4.431,-1.171 0,-1.171 0,1.367 0,66.64 0,203.936 242.046,255.99 		"/>
		
			<linearGradient id="SVGID_28_" gradientUnits="userSpaceOnUse" x1="3503.2988" y1="3577.2822" x2="3507.322" y2="3573.259" gradientTransform="matrix(58 0 0 -149 -202315.375 533009.375)">
			<stop  offset="0" style="stop-color:#AB6A81"/>
			<stop  offset="1" style="stop-color:#935769"/>
		</linearGradient>
		<polygon fill="url(#SVGID_28_)" points="1133.388,463.426 896.083,-1.171 889.152,-1.171 1008.514,526.396 		"/>
		
			<linearGradient id="SVGID_29_" gradientUnits="userSpaceOnUse" x1="3533.603" y1="3580.0762" x2="3537.7229" y2="3575.9563" gradientTransform="matrix(147 0 0 -132 -518532.375 472523.375)">
			<stop  offset="0" style="stop-color:#B26D82"/>
			<stop  offset="1" style="stop-color:#A26D7E"/>
		</linearGradient>
		<polygon fill="url(#SVGID_29_)" points="1516.622,193.018 954.195,-1.171 896.083,-1.171 1133.388,463.426 		"/>
		
			<linearGradient id="SVGID_30_" gradientUnits="userSpaceOnUse" x1="3536.3691" y1="3595.459" x2="3540.21" y2="3591.6182" gradientTransform="matrix(211 0 0 -78 -746135.375 280389.5)">
			<stop  offset="0" style="stop-color:#DEBDCE"/>
			<stop  offset="1" style="stop-color:#A37F8E"/>
		</linearGradient>
		<polygon fill="url(#SVGID_30_)" points="828.122,-1.171 683.25,-1.171 668.826,-1.171 631.492,-1.171 265.543,-1.171 
			107.748,-1.171 4.431,-1.171 242.046,255.99 		"/>
		
			<linearGradient id="SVGID_31_" gradientUnits="userSpaceOnUse" x1="3534.374" y1="3577.9131" x2="3538.4822" y2="3573.8049" gradientTransform="matrix(178 0 0 -149 -628824.375 533009.375)">
			<stop  offset="0" style="stop-color:#BD93B0"/>
			<stop  offset="1" style="stop-color:#885167"/>
		</linearGradient>
		<polygon fill="url(#SVGID_31_)" points="1008.514,526.396 889.152,-1.171 828.122,-1.171 242.046,255.99 		"/>
		
			<linearGradient id="SVGID_32_" gradientUnits="userSpaceOnUse" x1="3537.0151" y1="3607.1895" x2="3541.001" y2="3603.2036" gradientTransform="matrix(170 0 0 -60 -600251.375 216346.4063)">
			<stop  offset="0" style="stop-color:#6D3E4A"/>
			<stop  offset="1" style="stop-color:#B48093"/>
		</linearGradient>
		<polygon fill="url(#SVGID_32_)" points="1603.154,-1.171 1573.277,-1.171 1359.988,-1.171 1212.011,-1.171 954.195,-1.171 
			1516.622,193.018 		"/>
		
			<linearGradient id="SVGID_33_" gradientUnits="userSpaceOnUse" x1="3520.502" y1="3605.9746" x2="3524.5757" y2="3601.9009" gradientTransform="matrix(74 0 0 -60 -259016.5 216346.4063)">
			<stop  offset="0" style="stop-color:#E4BCD0"/>
			<stop  offset="1" style="stop-color:#E1CAD5"/>
		</linearGradient>
		<polygon fill="url(#SVGID_33_)" points="1835.264,67.074 1679.652,-1.171 1661.584,-1.171 1628.896,-1.171 1603.154,-1.171 
			1516.622,193.018 		"/>
		
			<linearGradient id="SVGID_34_" gradientUnits="userSpaceOnUse" x1="3544.23" y1="3661.3457" x2="3548.0352" y2="3657.5405" gradientTransform="matrix(272 0 0 -28 -962487.25 102488.3594)">
			<stop  offset="0" style="stop-color:#DCC5CE"/>
			<stop  offset="1" style="stop-color:#FCFAFB"/>
		</linearGradient>
		<polygon fill="url(#SVGID_34_)" points="2461.424,-1.171 2166.95,-1.171 2141.384,-1.171 1794.432,-1.171 1705.534,-1.171 
			1679.652,-1.171 1835.264,67.074 		"/>
		
			<linearGradient id="SVGID_35_" gradientUnits="userSpaceOnUse" x1="3543.4805" y1="3617.5879" x2="3547.5374" y2="3613.531" gradientTransform="matrix(221 0 0 -49 -781233.375 177206.375)">
			<stop  offset="0" style="stop-color:#F7E8F0"/>
			<stop  offset="1" style="stop-color:#F2DBE6"/>
		</linearGradient>
		<polygon fill="url(#SVGID_35_)" points="2412.27,144.863 2713.677,-1.171 2701.929,-1.171 2688.894,-1.171 2626.617,-1.171 
			2571.588,-1.171 2541.869,-1.171 2461.424,-1.171 1835.264,67.074 		"/>
		
			<linearGradient id="SVGID_36_" gradientUnits="userSpaceOnUse" x1="3533.5059" y1="3578.6113" x2="3537.5598" y2="3574.5574" gradientTransform="matrix(87 0 0 -142 -304997.5 508100.375)">
			<stop  offset="0" style="stop-color:#F1DDE8"/>
			<stop  offset="1" style="stop-color:#F4E3EC"/>
		</linearGradient>
		<polygon fill="url(#SVGID_36_)" points="2446.716,489.355 2763.949,-1.171 2713.677,-1.171 2412.27,144.863 		"/>
		
			<linearGradient id="SVGID_37_" gradientUnits="userSpaceOnUse" x1="3531.7515" y1="3576.7832" x2="3535.8467" y2="3572.688" gradientTransform="matrix(79 0 0 -157 -276565.5 561470.375)">
			<stop  offset="0" style="stop-color:#E7B5CE"/>
			<stop  offset="1" style="stop-color:#E0AFC7"/>
		</linearGradient>
		<polygon fill="url(#SVGID_37_)" points="2507,544.918 2769.818,-1.171 2763.949,-1.171 2446.716,489.355 		"/>
		
			<linearGradient id="SVGID_38_" gradientUnits="userSpaceOnUse" x1="3543.1982" y1="3576.3564" x2="3547.3271" y2="3572.2275" gradientTransform="matrix(167 0 0 -157 -589215.375 561470.375)">
			<stop  offset="0" style="stop-color:#D9A5C1"/>
			<stop  offset="1" style="stop-color:#E4C8DA"/>
		</linearGradient>
		<polygon fill="url(#SVGID_38_)" points="3226.101,111.525 2892.041,-1.171 2878.779,-1.171 2839.029,-1.171 2769.818,-1.171 
			2507,544.918 		"/>
		
			<linearGradient id="SVGID_39_" gradientUnits="userSpaceOnUse" x1="3547.5996" y1="3630.7344" x2="3551.4773" y2="3626.8567" gradientTransform="matrix(252 0 0 -40 -891155.375 145184.3438)">
			<stop  offset="0" style="stop-color:#E4C6D8"/>
			<stop  offset="1" style="stop-color:#C38DAC"/>
		</linearGradient>
		<polygon fill="url(#SVGID_39_)" points="3226.101,111.525 3717.367,-1.171 2892.041,-1.171 		"/>
		
			<linearGradient id="SVGID_40_" gradientUnits="userSpaceOnUse" x1="3546.4502" y1="3580.54" x2="3550.4983" y2="3576.4919" gradientTransform="matrix(150 0 0 -133 -528647.375 476078.375)">
			<stop  offset="0" style="stop-color:#C38DB0"/>
			<stop  offset="1" style="stop-color:#B87F9C"/>
		</linearGradient>
		<polygon fill="url(#SVGID_40_)" points="3828.941,456.018 3840,329.489 3840,12.893 3840,-1.171 3768.443,-1.171 3765.429,-1.171 
			3717.367,-1.171 3226.101,111.525 		"/>
		
			<linearGradient id="SVGID_41_" gradientUnits="userSpaceOnUse" x1="3547.9399" y1="3573.2891" x2="3551.8374" y2="3569.3916" gradientTransform="matrix(317 0 0 -181 -1122165.25 646902.375)">
			<stop  offset="0" style="stop-color:#E1B9CD"/>
			<stop  offset="1" style="stop-color:#EBD9E4"/>
		</linearGradient>
		<polygon fill="url(#SVGID_41_)" points="2507,544.918 3840,776.431 3840,748.771 3226.101,111.525 		"/>
		
			<linearGradient id="SVGID_42_" gradientUnits="userSpaceOnUse" x1="3548.4473" y1="3567.123" x2="3552.3799" y2="3563.1904" gradientTransform="matrix(317 0 0 -290 -1122165.25 1034841.25)">
			<stop  offset="0" style="stop-color:#DCAFC6"/>
			<stop  offset="1" style="stop-color:#B2ADB4"/>
		</linearGradient>
		<polygon fill="url(#SVGID_42_)" points="3342.363,1619.143 3840,832.568 3840,776.431 2507,544.918 		"/>
		
			<linearGradient id="SVGID_43_" gradientUnits="userSpaceOnUse" x1="3546.3525" y1="3573.96" x2="3550.3577" y2="3569.9548" gradientTransform="matrix(150 0 0 -181 -528647.375 646902.375)">
			<stop  offset="0" style="stop-color:#D9B6CB"/>
			<stop  offset="1" style="stop-color:#DEC5CF"/>
		</linearGradient>
		<polygon fill="url(#SVGID_43_)" points="3226.101,111.525 3840,748.771 3840,623.229 3840,575.077 3840,539.735 3828.941,456.018 
					"/>
		
			<linearGradient id="SVGID_44_" gradientUnits="userSpaceOnUse" x1="3490.8037" y1="3570.5615" x2="3494.9382" y2="3566.427" gradientTransform="matrix(10 0 0 -221 -31087.3594 789182.375)">
			<stop  offset="0" style="stop-color:#D4ACBC"/>
			<stop  offset="1" style="stop-color:#E2CAD6"/>
		</linearGradient>
		<polygon fill="url(#SVGID_44_)" points="3840,539.735 3840,520.729 3840,467.565 3840,411.286 3840,405.222 3840,400.554 
			3840,329.489 3828.941,456.018 		"/>
		
			<linearGradient id="SVGID_45_" gradientUnits="userSpaceOnUse" x1="3544.6196" y1="3568.6055" x2="3549.0913" y2="3564.1338" gradientTransform="matrix(123 0 0 -226 -432689.4375 807193.375)">
			<stop  offset="0" style="stop-color:#414028"/>
			<stop  offset="1" style="stop-color:#858964"/>
		</linearGradient>
		<polygon fill="url(#SVGID_45_)" points="3840,1449.319 3840,1332.665 3840,1294.609 3840,1272.436 3840,1261.255 3840,1034.789 
			3840,832.568 3342.363,1619.143 		"/>
		
			<linearGradient id="SVGID_46_" gradientUnits="userSpaceOnUse" x1="3545.4541" y1="3572.9443" x2="3549.3843" y2="3569.0142" gradientTransform="matrix(123 0 0 -117 -432689.4375 419597.4375)">
			<stop  offset="0" style="stop-color:#231E2C"/>
			<stop  offset="1" style="stop-color:#485E1F"/>
		</linearGradient>
		<polygon fill="url(#SVGID_46_)" points="3661.006,2052.535 3840,1791.714 3840,1737.476 3342.363,1619.143 		"/>
		
			<linearGradient id="SVGID_47_" gradientUnits="userSpaceOnUse" x1="3545.2939" y1="3580.79" x2="3549.4236" y2="3576.6604" gradientTransform="matrix(123 0 0 -82 -432689.4375 295019.5)">
			<stop  offset="0" style="stop-color:#526124"/>
			<stop  offset="1" style="stop-color:#5F7C14"/>
		</linearGradient>
		<polygon fill="url(#SVGID_47_)" points="3840,1737.476 3840,1449.319 3342.363,1619.143 		"/>
		
			<linearGradient id="SVGID_48_" gradientUnits="userSpaceOnUse" x1="3537.8599" y1="3571.6719" x2="3542.022" y2="3567.5098" gradientTransform="matrix(49 0 0 -120 -169693.375 430305.4375)">
			<stop  offset="0" style="stop-color:#566526"/>
			<stop  offset="1" style="stop-color:#67761C"/>
		</linearGradient>
		<polygon fill="url(#SVGID_48_)" points="3821.005,2158.632 3830.779,2158.632 3840,2158.632 3840,2130.853 3840,1791.714 
			3661.006,2052.535 		"/>
		
			<linearGradient id="SVGID_49_" gradientUnits="userSpaceOnUse" x1="3544.7202" y1="3564.1826" x2="3548.7009" y2="3560.2019" gradientTransform="matrix(293 0 0 -313 -1037085.25 1116805.25)">
			<stop  offset="0" style="stop-color:#917078"/>
			<stop  offset="1" style="stop-color:#8F745E"/>
		</linearGradient>
		<polygon fill="url(#SVGID_49_)" points="1680.249,1956.225 2792.18,2158.632 2916.701,2158.632 1869.713,1026.466 		"/>
		
			<linearGradient id="SVGID_50_" gradientUnits="userSpaceOnUse" x1="3547.271" y1="3565.252" x2="3551.2288" y2="3561.2942" gradientTransform="matrix(342 0 0 -313 -1211138.25 1116805.25)">
			<stop  offset="0" style="stop-color:#7C5258"/>
			<stop  offset="1" style="stop-color:#363D1F"/>
		</linearGradient>
		<polygon fill="url(#SVGID_50_)" points="1869.713,1026.466 2916.701,2158.632 2961.164,2158.632 3342.363,1619.143 		"/>
		
			<linearGradient id="SVGID_51_" gradientUnits="userSpaceOnUse" x1="3545.1006" y1="3568.7002" x2="3549.0256" y2="3564.7751" gradientTransform="matrix(167 0 0 -153 -589114.375 547685.375)">
			<stop  offset="0" style="stop-color:#323726"/>
			<stop  offset="1" style="stop-color:#486119"/>
		</linearGradient>
		<polygon fill="url(#SVGID_51_)" points="3342.363,1619.143 2961.164,2158.632 3088.878,2158.632 3661.006,2052.535 		"/>
		
			<linearGradient id="SVGID_52_" gradientUnits="userSpaceOnUse" x1="3547.4604" y1="3595.2832" x2="3551.2747" y2="3591.469" gradientTransform="matrix(215 0 0 -37 -759658.375 135074.375)">
			<stop  offset="0" style="stop-color:#547118"/>
			<stop  offset="1" style="stop-color:#5C7111"/>
		</linearGradient>
		<polygon fill="url(#SVGID_52_)" points="3088.878,2158.632 3247.879,2158.632 3410.817,2158.632 3435.019,2158.632 
			3725.12,2158.632 3821.005,2158.632 3661.006,2052.535 		"/>
		
			<linearGradient id="SVGID_53_" gradientUnits="userSpaceOnUse" x1="3544.8164" y1="3580.1387" x2="3548.8262" y2="3576.1289" gradientTransform="matrix(293 0 0 -64 -1037085.25 231114.375)">
			<stop  offset="0" style="stop-color:#907F55"/>
			<stop  offset="1" style="stop-color:#778120"/>
		</linearGradient>
		<polygon fill="url(#SVGID_53_)" points="1886.128,2158.632 1951.301,2158.632 2542.719,2158.632 2687.251,2158.632 
			2792.18,2158.632 1680.249,1956.225 		"/>
		
			<linearGradient id="SVGID_54_" gradientUnits="userSpaceOnUse" x1="3538.9609" y1="3570.2441" x2="3543.103" y2="3566.1021" gradientTransform="matrix(246 0 0 -143 -870477.375 512115.375)">
			<stop  offset="0" style="stop-color:#6F6C28"/>
			<stop  offset="1" style="stop-color:#6E7621"/>
		</linearGradient>
		<polygon fill="url(#SVGID_54_)" points="31.054,2011.789 815.542,2158.632 967.794,2158.632 1090.327,1656.184 		"/>
		
			<linearGradient id="SVGID_55_" gradientUnits="userSpaceOnUse" x1="3535.8486" y1="3569.3066" x2="3539.9089" y2="3565.2463" gradientTransform="matrix(167 0 0 -143 -589574.375 512115.375)">
			<stop  offset="0" style="stop-color:#5E6F20"/>
			<stop  offset="1" style="stop-color:#738235"/>
		</linearGradient>
		<polygon fill="url(#SVGID_55_)" points="1090.327,1656.184 967.794,2158.632 1046.485,2158.632 1680.249,1956.225 		"/>
		
			<linearGradient id="SVGID_56_" gradientUnits="userSpaceOnUse" x1="3540.666" y1="3580.5254" x2="3544.491" y2="3576.7004" gradientTransform="matrix(223 0 0 -64 -788542.375 231114.375)">
			<stop  offset="0" style="stop-color:#79606D"/>
			<stop  offset="1" style="stop-color:#707632"/>
		</linearGradient>
		<polygon fill="url(#SVGID_56_)" points="1046.485,2158.632 1579.171,2158.632 1639.967,2158.632 1793.816,2158.632 
			1886.128,2158.632 1680.249,1956.225 		"/>
		
			<linearGradient id="SVGID_57_" gradientUnits="userSpaceOnUse" x1="3536.6426" y1="3585.5605" x2="3540.6509" y2="3581.5522" gradientTransform="matrix(225 0 0 -50 -795873.375 181317.375)">
			<stop  offset="0" style="stop-color:#505A24"/>
			<stop  offset="1" style="stop-color:#627C16"/>
		</linearGradient>
		<polygon fill="url(#SVGID_57_)" points="0.327,2158.632 32.015,2158.632 83.598,2158.632 367.405,2158.632 594.848,2158.632 
			718.219,2158.632 815.542,2158.632 31.054,2011.789 		"/>
		
			<linearGradient id="SVGID_58_" gradientUnits="userSpaceOnUse" x1="3425.0942" y1="3566.0244" x2="3429.1738" y2="3561.9448" gradientTransform="matrix(28 0 0 -337 -95938.3594 1201973.25)">
			<stop  offset="0" style="stop-color:#A18697"/>
			<stop  offset="1" style="stop-color:#766174"/>
		</linearGradient>
		<polygon fill="url(#SVGID_58_)" points="0,405.885 0,479.423 0,713.657 0,724.022 0,739.977 0,929.279 0,944.101 0,1138.946 
			0,1153.762 0,1167.57 0,1193.681 0,1404.691 87.031,948.678 		"/>
		
			<linearGradient id="SVGID_59_" gradientUnits="userSpaceOnUse" x1="3517.9751" y1="3568.3027" x2="3521.9861" y2="3564.2917" gradientTransform="matrix(101 0 0 -192 -355301.5 686361.375)">
			<stop  offset="0" style="stop-color:#3B4232"/>
			<stop  offset="1" style="stop-color:#2E2B2B"/>
		</linearGradient>
		<polygon fill="url(#SVGID_59_)" points="427.205,1300.578 0,1442.484 0,1557.664 31.054,2011.789 		"/>
		
			<linearGradient id="SVGID_60_" gradientUnits="userSpaceOnUse" x1="3517.3105" y1="3573.7676" x2="3521.3306" y2="3569.7476" gradientTransform="matrix(101 0 0 -134 -355301.5 479902.375)">
			<stop  offset="0" style="stop-color:#6C4E4F"/>
			<stop  offset="1" style="stop-color:#392E2B"/>
		</linearGradient>
		<polygon fill="url(#SVGID_60_)" points="87.031,948.678 0,1404.691 0,1442.484 427.205,1300.578 		"/>
		
			<linearGradient id="SVGID_61_" gradientUnits="userSpaceOnUse" x1="3157.231" y1="3566.6758" x2="3161.2781" y2="3562.6287" gradientTransform="matrix(9 0 0 -203 -28425.3594 725538.375)">
			<stop  offset="0" style="stop-color:#587014"/>
			<stop  offset="1" style="stop-color:#333F23"/>
		</linearGradient>
		<polygon fill="url(#SVGID_61_)" points="0,1557.664 0,2027.836 0,2158.632 0.327,2158.632 31.054,2011.789 		"/>
	</g>
</g>
<g id="Layer_11">
</g>
<g id="Layer_12">
</g>
<g id="Layer_13">
</g>
<g id="Layer_14">
</g>
<g id="Layer_15">
</g>
<g id="Layer_16">
</g>
<g id="Layer_17">
</g>
<g id="Layer_18">
</g>
<g id="Layer_19">
</g>
<g id="Layer_20">
</g>
<g id="Layer_21">
</g>
<g id="Layer_22">
</g>
<g id="Layer_23">
</g>
<g id="Layer_24">
</g>
<g id="Layer_25">
</g>
</svg>
