<?xml version="1.0" encoding="utf-8"?>
<!-- Generator: Adobe Illustrator 16.0.0, SVG Export Plug-In . SVG Version: 6.00 Build 0)  -->
<!DOCTYPE svg PUBLIC "-//W3C//DTD SVG 1.1//EN" "http://www.w3.org/Graphics/SVG/1.1/DTD/svg11.dtd">
<svg version="1.1" xmlns="http://www.w3.org/2000/svg" xmlns:xlink="http://www.w3.org/1999/xlink" x="0px" y="0px" width="3840px"
	 height="2160px" viewBox="0 0 3840 2160" enable-background="new 0 0 3840 2160" xml:space="preserve">
<g id="Layer_1">
</g>
<g id="Layer_2">
</g>
<g id="Layer_3">
	<g>
		
			<linearGradient id="SVGID_1_" gradientUnits="userSpaceOnUse" x1="-306.0278" y1="7955.0576" x2="-304.0264" y2="7953.0562" gradientTransform="matrix(369 0 0 -175 113027.75 1393759.375)">
			<stop  offset="0" style="stop-color:#885611"/>
			<stop  offset="1" style="stop-color:#7E590E"/>
		</linearGradient>
		<polygon fill="url(#SVGID_1_)" points="135.146,1965.387 840.57,1647.947 86.074,1632.741 		"/>
		
			<linearGradient id="SVGID_2_" gradientUnits="userSpaceOnUse" x1="-306.1611" y1="7963.0361" x2="-304.1246" y2="7960.9995" gradientTransform="matrix(406 0 0 -147 124386.75 1171916.375)">
			<stop  offset="0" style="stop-color:#AD7E15"/>
			<stop  offset="1" style="stop-color:#B07614"/>
		</linearGradient>
		<polygon fill="url(#SVGID_2_)" points="86.074,1632.741 840.57,1647.947 916.223,1368.524 		"/>
		
			<linearGradient id="SVGID_3_" gradientUnits="userSpaceOnUse" x1="-304.5728" y1="7962.5967" x2="-302.5939" y2="7960.6177" gradientTransform="matrix(266 0 0 -147 81775.625 1171916.375)">
			<stop  offset="0" style="stop-color:#492C08"/>
			<stop  offset="1" style="stop-color:#A3670D"/>
		</linearGradient>
		<polygon fill="url(#SVGID_3_)" points="840.57,1647.947 1384.461,1571.914 916.223,1368.524 		"/>
		
			<linearGradient id="SVGID_4_" gradientUnits="userSpaceOnUse" x1="-295.1763" y1="7938.1826" x2="-293.2231" y2="7936.2295" gradientTransform="matrix(120 0 0 -348 37640.5625 2762866.25)">
			<stop  offset="0" style="stop-color:#8C723F"/>
			<stop  offset="1" style="stop-color:#C58A20"/>
		</linearGradient>
		<polygon fill="url(#SVGID_4_)" points="2490.646,906.621 2359.784,288.849 2245.281,950.341 		"/>
		
			<linearGradient id="SVGID_5_" gradientUnits="userSpaceOnUse" x1="-296.6333" y1="7971.2227" x2="-294.6535" y2="7969.2427" gradientTransform="matrix(144 0 0 -129 45008.625 1029149.375)">
			<stop  offset="0" style="stop-color:#D19419"/>
			<stop  offset="1" style="stop-color:#DB971B"/>
		</linearGradient>
		<polygon fill="url(#SVGID_5_)" points="2539.719,1151.829 2490.646,906.621 2245.281,950.341 		"/>
		
			<linearGradient id="SVGID_6_" gradientUnits="userSpaceOnUse" x1="-289.3984" y1="7987.7266" x2="-287.4257" y2="7985.7539" gradientTransform="matrix(104 0 0 -95 33094.5 760159.5)">
			<stop  offset="0" style="stop-color:#19160B"/>
			<stop  offset="1" style="stop-color:#241808"/>
		</linearGradient>
		<polygon fill="url(#SVGID_6_)" points="3185.846,1505.385 3206.293,1509.186 2993.644,1328.606 		"/>
		
			<linearGradient id="SVGID_7_" gradientUnits="userSpaceOnUse" x1="-291.7422" y1="7941.9785" x2="-289.7376" y2="7939.9741" gradientTransform="matrix(121 0 0 -286 38313.5625 2272306.25)">
			<stop  offset="0" style="stop-color:#25200B"/>
			<stop  offset="1" style="stop-color:#463013"/>
		</linearGradient>
		<polygon fill="url(#SVGID_7_)" points="3206.293,1509.186 3241.053,965.547 2993.644,1328.606 		"/>
		
			<linearGradient id="SVGID_8_" gradientUnits="userSpaceOnUse" x1="-303.7329" y1="7939.9893" x2="-301.8149" y2="7938.0713" gradientTransform="matrix(475 0 0 -325 146681.5 2580752.25)">
			<stop  offset="0" style="stop-color:#907E4D"/>
			<stop  offset="1" style="stop-color:#AA7D24"/>
		</linearGradient>
		<polygon fill="url(#SVGID_8_)" points="2490.646,906.621 3331.019,292.651 2359.784,288.849 		"/>
		
			<linearGradient id="SVGID_9_" gradientUnits="userSpaceOnUse" x1="-303.1626" y1="7938.2275" x2="-301.1307" y2="7936.1958" gradientTransform="matrix(411 0 0 -354 127097.75 2810376.25)">
			<stop  offset="0" style="stop-color:#7B550F"/>
			<stop  offset="1" style="stop-color:#6A4718"/>
		</linearGradient>
		<polygon fill="url(#SVGID_9_)" points="3241.053,965.547 3331.019,292.651 2490.646,906.621 		"/>
		
			<linearGradient id="SVGID_10_" gradientUnits="userSpaceOnUse" x1="-294.4995" y1="7937.8037" x2="-292.5238" y2="7935.8281" gradientTransform="matrix(153 0 0 -354 48258.625 2810376.25)">
			<stop  offset="0" style="stop-color:#614922"/>
			<stop  offset="1" style="stop-color:#956E2E"/>
		</linearGradient>
		<polygon fill="url(#SVGID_10_)" points="3553.892,735.545 3331.019,292.651 3241.053,965.547 		"/>
		
			<linearGradient id="SVGID_11_" gradientUnits="userSpaceOnUse" x1="-303.3223" y1="7931.5332" x2="-301.3396" y2="7929.5503" gradientTransform="matrix(300 0 0 -506 92479.75 4014405.5)">
			<stop  offset="0" style="stop-color:#B9791A"/>
			<stop  offset="1" style="stop-color:#A4771D"/>
		</linearGradient>
		<polygon fill="url(#SVGID_11_)" points="1384.461,1571.914 1878.132,2158.632 1909.012,2158.632 1997.872,1229.763 		"/>
		
			<linearGradient id="SVGID_12_" gradientUnits="userSpaceOnUse" x1="-303.73" y1="7929.4375" x2="-301.7857" y2="7927.4932" gradientTransform="matrix(229 0 0 -610 70453.625 4837448)">
			<stop  offset="0" style="stop-color:#CE8413"/>
			<stop  offset="1" style="stop-color:#D58F1A"/>
		</linearGradient>
		<polygon fill="url(#SVGID_12_)" points="916.223,1368.524 1384.461,1571.914 1182.036,412.403 		"/>
		
			<linearGradient id="SVGID_13_" gradientUnits="userSpaceOnUse" x1="-304.9121" y1="7929.3945" x2="-302.9269" y2="7927.4092" gradientTransform="matrix(399 0 0 -610 122773.75 4837448)">
			<stop  offset="0" style="stop-color:#AA6B10"/>
			<stop  offset="1" style="stop-color:#AB7518"/>
		</linearGradient>
		<polygon fill="url(#SVGID_13_)" points="1384.461,1571.914 1997.872,1229.763 1182.036,412.403 		"/>
		
			<linearGradient id="SVGID_14_" gradientUnits="userSpaceOnUse" x1="-269.7925" y1="7943" x2="-267.8103" y2="7941.0181" gradientTransform="matrix(49 0 0 -264 16209.625 2098301.25)">
			<stop  offset="0" style="stop-color:#452A0A"/>
			<stop  offset="1" style="stop-color:#422B0A"/>
		</linearGradient>
		<polygon fill="url(#SVGID_14_)" points="3042.716,1830.428 3093.835,1714.477 2993.644,1328.606 		"/>
		
			<linearGradient id="SVGID_15_" gradientUnits="userSpaceOnUse" x1="-287.4766" y1="7950.6992" x2="-285.5264" y2="7948.749" gradientTransform="matrix(94 0 0 -203 30024.5 1615303.375)">
			<stop  offset="0" style="stop-color:#512505"/>
			<stop  offset="1" style="stop-color:#3B210B"/>
		</linearGradient>
		<polygon fill="url(#SVGID_15_)" points="2993.644,1328.606 3093.835,1714.477 3185.846,1505.385 		"/>
		
			<linearGradient id="SVGID_16_" gradientUnits="userSpaceOnUse" x1="-272.8179" y1="7977.4502" x2="-270.7862" y2="7975.4185" gradientTransform="matrix(55 0 0 -110 18100.625 879022.4375)">
			<stop  offset="0" style="stop-color:#1E1B0B"/>
			<stop  offset="1" style="stop-color:#1F190A"/>
		</linearGradient>
		<polygon fill="url(#SVGID_16_)" points="3093.835,1714.477 3206.293,1509.186 3185.846,1505.385 		"/>
		
			<linearGradient id="SVGID_17_" gradientUnits="userSpaceOnUse" x1="-278.0908" y1="7965.5322" x2="-276.1181" y2="7963.5596" gradientTransform="matrix(54 0 0 -143 17498.625 1140001.375)">
			<stop  offset="0" style="stop-color:#C58717"/>
			<stop  offset="1" style="stop-color:#A67013"/>
		</linearGradient>
		<polygon fill="url(#SVGID_17_)" points="2539.719,1151.829 2601.06,1178.44 2490.646,906.621 		"/>
		
			<linearGradient id="SVGID_18_" gradientUnits="userSpaceOnUse" x1="-302.7139" y1="7965.7061" x2="-300.6948" y2="7963.687" gradientTransform="matrix(367 0 0 -143 113589.75 1140001.375)">
			<stop  offset="0" style="stop-color:#BE8627"/>
			<stop  offset="1" style="stop-color:#865F27"/>
		</linearGradient>
		<polygon fill="url(#SVGID_18_)" points="2601.06,1178.44 3241.053,965.547 2490.646,906.621 		"/>
		
			<linearGradient id="SVGID_19_" gradientUnits="userSpaceOnUse" x1="-299.5068" y1="7931.5107" x2="-297.5211" y2="7929.5249" gradientTransform="matrix(216 0 0 -494 67286.625 3919362.5)">
			<stop  offset="0" style="stop-color:#8F6322"/>
			<stop  offset="1" style="stop-color:#543B0D"/>
		</linearGradient>
		<polygon fill="url(#SVGID_19_)" points="2823.933,2117.454 3042.716,1830.428 2601.06,1178.44 		"/>
		
			<linearGradient id="SVGID_20_" gradientUnits="userSpaceOnUse" x1="-299.125" y1="7937.8555" x2="-297.1522" y2="7935.8828" gradientTransform="matrix(216 0 0 -343 67286.625 2723744.25)">
			<stop  offset="0" style="stop-color:#402608"/>
			<stop  offset="1" style="stop-color:#53390C"/>
		</linearGradient>
		<polygon fill="url(#SVGID_20_)" points="2601.06,1178.44 3042.716,1830.428 2993.644,1328.606 		"/>
		
			<linearGradient id="SVGID_21_" gradientUnits="userSpaceOnUse" x1="-301.5957" y1="7953.8223" x2="-299.6089" y2="7951.8354" gradientTransform="matrix(313 0 0 -191 97065.75 1520096.375)">
			<stop  offset="0" style="stop-color:#4F3A1E"/>
			<stop  offset="1" style="stop-color:#6C5529"/>
		</linearGradient>
		<polygon fill="url(#SVGID_21_)" points="2993.644,1328.606 3241.053,965.547 2601.06,1178.44 		"/>
		
			<linearGradient id="SVGID_22_" gradientUnits="userSpaceOnUse" x1="-302.4971" y1="8081.46" x2="-300.5635" y2="8079.5264" gradientTransform="matrix(295 0 0 -41 91244.75 332494.4063)">
			<stop  offset="0" style="stop-color:#806419"/>
			<stop  offset="1" style="stop-color:#856214"/>
		</linearGradient>
		<polygon fill="url(#SVGID_22_)" points="1997.872,1229.763 2601.06,1178.44 2539.719,1151.829 		"/>
		
			<linearGradient id="SVGID_23_" gradientUnits="userSpaceOnUse" x1="-297.0498" y1="7935.7822" x2="-294.9615" y2="7933.6938" gradientTransform="matrix(136 0 0 -403 42472.625 3198356.5)">
			<stop  offset="0" style="stop-color:#DE911A"/>
			<stop  offset="1" style="stop-color:#AF7B2D"/>
		</linearGradient>
		<polygon fill="url(#SVGID_23_)" points="2245.281,950.341 2359.784,288.849 2081.704,1054.886 		"/>
		
			<linearGradient id="SVGID_24_" gradientUnits="userSpaceOnUse" x1="-300.9727" y1="7982.0703" x2="-299.0155" y2="7980.1133" gradientTransform="matrix(224 0 0 -106 69488.625 847058.4375)">
			<stop  offset="0" style="stop-color:#C0831D"/>
			<stop  offset="1" style="stop-color:#BC7C1B"/>
		</linearGradient>
		<polygon fill="url(#SVGID_24_)" points="2081.704,1054.886 2539.719,1151.829 2245.281,950.341 		"/>
		
			<linearGradient id="SVGID_25_" gradientUnits="userSpaceOnUse" x1="-305.0142" y1="7936.084" x2="-303.0448" y2="7934.1147" gradientTransform="matrix(576 0 0 -403 177112.5 3198356.5)">
			<stop  offset="0" style="stop-color:#E9A423"/>
			<stop  offset="1" style="stop-color:#B18332"/>
		</linearGradient>
		<polygon fill="url(#SVGID_25_)" points="2359.784,288.849 1182.036,412.403 2081.704,1054.886 		"/>
		
			<linearGradient id="SVGID_26_" gradientUnits="userSpaceOnUse" x1="-304.8247" y1="7934.5332" x2="-302.8555" y2="7932.564" gradientTransform="matrix(440 0 0 -430 135360.5 3412207.5)">
			<stop  offset="0" style="stop-color:#BB8B2E"/>
			<stop  offset="1" style="stop-color:#A27427"/>
		</linearGradient>
		<polygon fill="url(#SVGID_26_)" points="1182.036,412.403 1997.872,1229.763 2081.704,1054.886 		"/>
		
			<linearGradient id="SVGID_27_" gradientUnits="userSpaceOnUse" x1="-302.249" y1="7991.1436" x2="-300.2613" y2="7989.1558" gradientTransform="matrix(265 0 0 -92 82034.625 736261.5)">
			<stop  offset="0" style="stop-color:#B7761A"/>
			<stop  offset="1" style="stop-color:#CC811A"/>
		</linearGradient>
		<polygon fill="url(#SVGID_27_)" points="2081.704,1054.886 1997.872,1229.763 2539.719,1151.829 		"/>
		
			<linearGradient id="SVGID_28_" gradientUnits="userSpaceOnUse" x1="-304.8296" y1="7948.3965" x2="-302.8409" y2="7946.4077" gradientTransform="matrix(123 0 0 -238 37452.5625 1891711.375)">
			<stop  offset="0" style="stop-color:#787153"/>
			<stop  offset="1" style="stop-color:#917C45"/>
		</linearGradient>
		<polygon fill="url(#SVGID_28_)" points="229.203,245.13 14.809,-1.17 0,-1.17 0,1.368 0,66.64 0,138.908 32.911,408.602 		"/>
		
			<linearGradient id="SVGID_29_" gradientUnits="userSpaceOnUse" x1="-306.2881" y1="7947.8545" x2="-304.3252" y2="7945.8916" gradientTransform="matrix(466 0 0 -242 142876.5 1923381.375)">
			<stop  offset="0" style="stop-color:#866437"/>
			<stop  offset="1" style="stop-color:#AB8137"/>
		</linearGradient>
		<polygon fill="url(#SVGID_29_)" points="1182.036,412.403 531.267,-1.17 421.889,-1.17 229.203,245.13 		"/>
		
			<linearGradient id="SVGID_30_" gradientUnits="userSpaceOnUse" x1="-305.5928" y1="7965.417" x2="-303.6421" y2="7963.4663" gradientTransform="matrix(235 0 0 -154 71836.625 1226597.375)">
			<stop  offset="0" style="stop-color:#A4833C"/>
			<stop  offset="1" style="stop-color:#777261"/>
		</linearGradient>
		<polygon fill="url(#SVGID_30_)" points="421.889,-1.17 265.543,-1.17 107.748,-1.17 14.809,-1.17 229.203,245.13 		"/>
		
			<linearGradient id="SVGID_31_" gradientUnits="userSpaceOnUse" x1="-305.5264" y1="7948.4111" x2="-303.5642" y2="7946.4487" gradientTransform="matrix(476 0 0 -242 146058.5 1923381.375)">
			<stop  offset="0" style="stop-color:#7B6942"/>
			<stop  offset="1" style="stop-color:#A0701C"/>
		</linearGradient>
		<polygon fill="url(#SVGID_31_)" points="1409.127,-1.17 1359.987,-1.17 1212.012,-1.17 683.25,-1.17 668.826,-1.17 631.492,-1.17 
			531.267,-1.17 1182.036,412.403 		"/>
		
			<linearGradient id="SVGID_32_" gradientUnits="userSpaceOnUse" x1="-305.7378" y1="7948.1035" x2="-303.7621" y2="7946.1279" gradientTransform="matrix(576 0 0 -239 177112.5 1899630.375)">
			<stop  offset="0" style="stop-color:#E7A42D"/>
			<stop  offset="1" style="stop-color:#957539"/>
		</linearGradient>
		<polygon fill="url(#SVGID_32_)" points="2359.784,288.849 1545.795,-1.17 1409.127,-1.17 1182.036,412.403 		"/>
		
			<linearGradient id="SVGID_33_" gradientUnits="userSpaceOnUse" x1="-304.1685" y1="7958.0547" x2="-302.2071" y2="7956.0933" gradientTransform="matrix(475 0 0 -180 146681.5 1432464.375)">
			<stop  offset="0" style="stop-color:#896D34"/>
			<stop  offset="1" style="stop-color:#A87B21"/>
		</linearGradient>
		<polygon fill="url(#SVGID_33_)" points="3331.019,292.651 2725.238,-1.17 2701.929,-1.17 2688.895,-1.17 2626.617,-1.17 
			2587.628,-1.17 2359.784,288.849 		"/>
		
			<linearGradient id="SVGID_34_" gradientUnits="userSpaceOnUse" x1="-304.8892" y1="7959.2139" x2="-302.9246" y2="7957.2495" gradientTransform="matrix(584 0 0 -178 179690.5 1416628.375)">
			<stop  offset="0" style="stop-color:#7B6740"/>
			<stop  offset="1" style="stop-color:#958855"/>
		</linearGradient>
		<polygon fill="url(#SVGID_34_)" points="2587.628,-1.17 2571.588,-1.17 2541.869,-1.17 2166.95,-1.17 2141.384,-1.17 
			1794.432,-1.17 1705.534,-1.17 1661.584,-1.17 1628.896,-1.17 1573.277,-1.17 1545.795,-1.17 2359.784,288.849 		"/>
		
			<linearGradient id="SVGID_35_" gradientUnits="userSpaceOnUse" x1="-304.0835" y1="7958.6406" x2="-302.1307" y2="7956.688" gradientTransform="matrix(610 0 0 -180 188256.5 1432464.375)">
			<stop  offset="0" style="stop-color:#9D882D"/>
			<stop  offset="1" style="stop-color:#9A7214"/>
		</linearGradient>
		<polygon fill="url(#SVGID_35_)" points="3804.215,-1.17 3768.443,-1.17 3765.43,-1.17 2878.779,-1.17 2839.029,-1.17 
			2725.238,-1.17 3331.019,292.651 		"/>
		
			<linearGradient id="SVGID_36_" gradientUnits="userSpaceOnUse" x1="-299.6089" y1="7948.4531" x2="-297.6196" y2="7946.4639" gradientTransform="matrix(268 0 0 -233 83607.75 1852298.375)">
			<stop  offset="0" style="stop-color:#8E5E11"/>
			<stop  offset="1" style="stop-color:#A67931"/>
		</linearGradient>
		<polygon fill="url(#SVGID_36_)" points="3331.019,292.651 3553.892,735.545 3840,590.011 3840,575.078 3840,550.421 		"/>
		
			<linearGradient id="SVGID_37_" gradientUnits="userSpaceOnUse" x1="-299.3862" y1="7940.7197" x2="-297.3863" y2="7938.7197" gradientTransform="matrix(268 0 0 -323 83607.75 2564741.25)">
			<stop  offset="0" style="stop-color:#926C19"/>
			<stop  offset="1" style="stop-color:#9E751B"/>
		</linearGradient>
		<polygon fill="url(#SVGID_37_)" points="3840,550.421 3840,520.73 3840,467.566 3840,411.287 3840,405.222 3840,400.554 
			3840,12.893 3840,-1.17 3804.215,-1.17 3331.019,292.651 		"/>
		
			<linearGradient id="SVGID_38_" gradientUnits="userSpaceOnUse" x1="-301.479" y1="7941.3857" x2="-299.5014" y2="7939.4082" gradientTransform="matrix(329 0 0 -286 102273.75 2272306.25)">
			<stop  offset="0" style="stop-color:#473D1B"/>
			<stop  offset="1" style="stop-color:#624E1F"/>
		</linearGradient>
		<polygon fill="url(#SVGID_38_)" points="3206.293,1509.186 3840,1421.445 3840,1388.504 3241.053,965.547 		"/>
		
			<linearGradient id="SVGID_39_" gradientUnits="userSpaceOnUse" x1="-300.6641" y1="7937.3828" x2="-298.6767" y2="7935.3955" gradientTransform="matrix(312 0 0 -358 97071.75 2842281.25)">
			<stop  offset="0" style="stop-color:#6D532E"/>
			<stop  offset="1" style="stop-color:#866933"/>
		</linearGradient>
		<polygon fill="url(#SVGID_39_)" points="3241.053,965.547 3840,1388.504 3840,1334.412 3553.892,735.545 		"/>
		
			<linearGradient id="SVGID_40_" gradientUnits="userSpaceOnUse" x1="-293.3716" y1="7934.0391" x2="-291.391" y2="7932.0586" gradientTransform="matrix(159 0 0 -445 50253.625 3531060.5)">
			<stop  offset="0" style="stop-color:#EDB143"/>
			<stop  offset="1" style="stop-color:#846212"/>
		</linearGradient>
		<polygon fill="url(#SVGID_40_)" points="3840,1334.412 3840,1332.666 3840,1294.61 3840,1272.436 3840,1261.255 3840,1034.79 
			3840,623.23 3840,590.011 3553.892,735.545 		"/>
		
			<linearGradient id="SVGID_41_" gradientUnits="userSpaceOnUse" x1="-303.8652" y1="7949.0352" x2="-301.9008" y2="7947.0708" gradientTransform="matrix(516 0 0 -204 159495.5 1623485.375)">
			<stop  offset="0" style="stop-color:#C27F25"/>
			<stop  offset="1" style="stop-color:#976118"/>
		</linearGradient>
		<polygon fill="url(#SVGID_41_)" points="2823.933,2117.454 3255.182,2158.632 3410.817,2158.632 3435.02,2158.632 
			3725.12,2158.632 3750.537,2158.632 3042.716,1830.428 		"/>
		
			<linearGradient id="SVGID_42_" gradientUnits="userSpaceOnUse" x1="-302.5449" y1="7942.2168" x2="-300.5744" y2="7940.2461" gradientTransform="matrix(409 0 0 -265 126753.75 2106422.25)">
			<stop  offset="0" style="stop-color:#7E5612"/>
			<stop  offset="1" style="stop-color:#7E5719"/>
		</linearGradient>
		<polygon fill="url(#SVGID_42_)" points="3042.716,1830.428 3750.537,2158.632 3786.152,2158.632 3093.835,1714.477 		"/>
		
			<linearGradient id="SVGID_43_" gradientUnits="userSpaceOnUse" x1="-302.168" y1="7935.4512" x2="-300.2007" y2="7933.4839" gradientTransform="matrix(384 0 0 -373 119103.75 2961458.25)">
			<stop  offset="0" style="stop-color:#352514"/>
			<stop  offset="1" style="stop-color:#674A1F"/>
		</linearGradient>
		<polygon fill="url(#SVGID_43_)" points="3093.835,1714.477 3786.152,2158.632 3822.484,2158.632 3206.293,1509.186 		"/>
		
			<linearGradient id="SVGID_44_" gradientUnits="userSpaceOnUse" x1="-300.6982" y1="7934.0186" x2="-298.7211" y2="7932.0415" gradientTransform="matrix(329 0 0 -422 102273.75 3349391.5)">
			<stop  offset="0" style="stop-color:#684A15"/>
			<stop  offset="1" style="stop-color:#8A6017"/>
		</linearGradient>
		<polygon fill="url(#SVGID_44_)" points="3822.484,2158.632 3830.779,2158.632 3840,2158.632 3840,2130.853 3840,1421.445 
			3206.293,1509.186 		"/>
		
			<linearGradient id="SVGID_45_" gradientUnits="userSpaceOnUse" x1="-295.207" y1="7929.8516" x2="-293.2374" y2="7927.8818" gradientTransform="matrix(132 0 0 -548 41475.625 4346934.5)">
			<stop  offset="0" style="stop-color:#88541B"/>
			<stop  offset="1" style="stop-color:#C87D27"/>
		</linearGradient>
		<polygon fill="url(#SVGID_45_)" points="2601.06,1178.44 2556.807,2158.632 2687.253,2158.632 2715.656,2158.632 
			2823.933,2117.454 		"/>
		
			<linearGradient id="SVGID_46_" gradientUnits="userSpaceOnUse" x1="-304.542" y1="8033.6514" x2="-302.5767" y2="8031.686" gradientTransform="matrix(648 0 0 -54 199887 435936.375)">
			<stop  offset="0" style="stop-color:#C68C2D"/>
			<stop  offset="1" style="stop-color:#C48524"/>
		</linearGradient>
		<polygon fill="url(#SVGID_46_)" points="2715.656,2158.632 3247.879,2158.632 3255.182,2158.632 2823.933,2117.454 		"/>
		
			<linearGradient id="SVGID_47_" gradientUnits="userSpaceOnUse" x1="-303.3535" y1="7930.4219" x2="-301.3862" y2="7928.4546" gradientTransform="matrix(317 0 0 -521 97953.75 4133175.5)">
			<stop  offset="0" style="stop-color:#A46E1A"/>
			<stop  offset="1" style="stop-color:#AA6B1B"/>
		</linearGradient>
		<polygon fill="url(#SVGID_47_)" points="1909.012,2158.632 1951.301,2158.632 2519.513,2158.632 1997.872,1229.763 		"/>
		
			<linearGradient id="SVGID_48_" gradientUnits="userSpaceOnUse" x1="-302.0459" y1="7930.7002" x2="-300.0742" y2="7928.7285" gradientTransform="matrix(295 0 0 -548 91244.75 4346934.5)">
			<stop  offset="0" style="stop-color:#8A641D"/>
			<stop  offset="1" style="stop-color:#8B5F17"/>
		</linearGradient>
		<polygon fill="url(#SVGID_48_)" points="1997.872,1229.763 2519.513,2158.632 2542.72,2158.632 2556.807,2158.632 
			2601.06,1178.44 		"/>
		
			<linearGradient id="SVGID_49_" gradientUnits="userSpaceOnUse" x1="-303.8994" y1="7937.3975" x2="-301.9384" y2="7935.4365" gradientTransform="matrix(266 0 0 -342 81775.625 2716033.25)">
			<stop  offset="0" style="stop-color:#7A4C0E"/>
			<stop  offset="1" style="stop-color:#C38325"/>
		</linearGradient>
		<polygon fill="url(#SVGID_49_)" points="840.57,1647.947 1147.979,2158.632 1205.457,2158.632 1384.461,1571.914 		"/>
		
			<linearGradient id="SVGID_50_" gradientUnits="userSpaceOnUse" x1="-304.6978" y1="7936.7354" x2="-302.7348" y2="7934.7725" gradientTransform="matrix(352 0 0 -342 108346.75 2716033.25)">
			<stop  offset="0" style="stop-color:#DC851A"/>
			<stop  offset="1" style="stop-color:#D5912D"/>
		</linearGradient>
		<polygon fill="url(#SVGID_50_)" points="1205.457,2158.632 1579.171,2158.632 1639.966,2158.632 1793.815,2158.632 
			1878.132,2158.632 1384.461,1571.914 		"/>
		
			<linearGradient id="SVGID_51_" gradientUnits="userSpaceOnUse" x1="-305.9824" y1="7939.3105" x2="-304.0409" y2="7937.3691" gradientTransform="matrix(428 0 0 -302 131250.5 2399353.25)">
			<stop  offset="0" style="stop-color:#B36C16"/>
			<stop  offset="1" style="stop-color:#E49832"/>
		</linearGradient>
		<polygon fill="url(#SVGID_51_)" points="367.885,2158.632 594.848,2158.632 718.219,2158.632 1147.979,2158.632 840.57,1647.947 
					"/>
		
			<linearGradient id="SVGID_52_" gradientUnits="userSpaceOnUse" x1="-305.7681" y1="7939.6924" x2="-303.8156" y2="7937.7397" gradientTransform="matrix(345 0 0 -301 105683.75 2391435.25)">
			<stop  offset="0" style="stop-color:#BB6A12"/>
			<stop  offset="1" style="stop-color:#AB6C18"/>
		</linearGradient>
		<polygon fill="url(#SVGID_52_)" points="135.146,1965.387 268.557,2158.632 367.405,2158.632 367.885,2158.632 840.57,1647.947 		
			"/>
		
			<linearGradient id="SVGID_53_" gradientUnits="userSpaceOnUse" x1="-303.2559" y1="7939.1289" x2="-301.3043" y2="7937.1772" gradientTransform="matrix(77 0 0 -306 23330.5 2431017.25)">
			<stop  offset="0" style="stop-color:#B57711"/>
			<stop  offset="1" style="stop-color:#C37617"/>
		</linearGradient>
		<polygon fill="url(#SVGID_53_)" points="86.074,1632.741 0,2094.728 0,2158.632 12.963,2158.632 135.146,1965.387 		"/>
		
			<linearGradient id="SVGID_54_" gradientUnits="userSpaceOnUse" x1="-305.2871" y1="7965.0703" x2="-303.3366" y2="7963.1196" gradientTransform="matrix(163 0 0 -134 49732.625 1069296.375)">
			<stop  offset="0" style="stop-color:#D38420"/>
			<stop  offset="1" style="stop-color:#D88F26"/>
		</linearGradient>
		<polygon fill="url(#SVGID_54_)" points="12.963,2158.632 32.014,2158.632 83.598,2158.632 268.557,2158.632 135.146,1965.387 		
			"/>
		
			<linearGradient id="SVGID_55_" gradientUnits="userSpaceOnUse" x1="-306.4834" y1="7946.3643" x2="-304.4804" y2="7944.3613" gradientTransform="matrix(462 0 0 -235 141522.5 1868604.375)">
			<stop  offset="0" style="stop-color:#C78519"/>
			<stop  offset="1" style="stop-color:#B97D21"/>
		</linearGradient>
		<polygon fill="url(#SVGID_55_)" points="916.223,1368.524 0,1191.536 0,1193.681 0,1296.952 86.074,1632.741 		"/>
		
			<linearGradient id="SVGID_56_" gradientUnits="userSpaceOnUse" x1="-301.937" y1="7930.375" x2="-299.9359" y2="7928.374" gradientTransform="matrix(56 0 0 -541 16880.625 4291512.5)">
			<stop  offset="0" style="stop-color:#91601D"/>
			<stop  offset="1" style="stop-color:#775A1D"/>
		</linearGradient>
		<polygon fill="url(#SVGID_56_)" points="0,1296.952 0,2027.835 0,2094.728 86.074,1632.741 		"/>
		
			<linearGradient id="SVGID_57_" gradientUnits="userSpaceOnUse" x1="-306.6816" y1="7955.5742" x2="-304.6903" y2="7953.583" gradientTransform="matrix(591 0 0 -189 181126.5 1503881.375)">
			<stop  offset="0" style="stop-color:#B1893E"/>
			<stop  offset="1" style="stop-color:#C8942E"/>
		</linearGradient>
		<polygon fill="url(#SVGID_57_)" points="229.203,245.13 0,567.301 0,600.196 1182.036,412.403 		"/>
		
			<linearGradient id="SVGID_58_" gradientUnits="userSpaceOnUse" x1="-304.6938" y1="7955.9893" x2="-302.44" y2="7953.7354" gradientTransform="matrix(125 0 0 -189 38064.5625 1503881.375)">
			<stop  offset="0" style="stop-color:#88734B"/>
			<stop  offset="1" style="stop-color:#7F6E4D"/>
		</linearGradient>
		<polygon fill="url(#SVGID_58_)" points="32.911,408.602 0,517.269 0,567.301 229.203,245.13 		"/>
		
			<linearGradient id="SVGID_59_" gradientUnits="userSpaceOnUse" x1="-306.6997" y1="7935.0068" x2="-304.727" y2="7933.0342" gradientTransform="matrix(462 0 0 -402 141522.5 3190604.5)">
			<stop  offset="0" style="stop-color:#936B20"/>
			<stop  offset="1" style="stop-color:#B98123"/>
		</linearGradient>
		<polygon fill="url(#SVGID_59_)" points="0,625.777 0,713.658 0,724.023 0,739.977 0,929.28 0,944.101 0,1138.947 0,1153.762 
			0,1167.571 0,1191.536 916.223,1368.524 		"/>
		
			<linearGradient id="SVGID_60_" gradientUnits="userSpaceOnUse" x1="-306.1099" y1="7932.4502" x2="-304.1379" y2="7930.4785" gradientTransform="matrix(591 0 0 -503 181126.5 3990221.5)">
			<stop  offset="0" style="stop-color:#B87518"/>
			<stop  offset="1" style="stop-color:#A3772D"/>
		</linearGradient>
		<polygon fill="url(#SVGID_60_)" points="1182.036,412.403 0,600.196 0,625.777 916.223,1368.524 		"/>
		
			<linearGradient id="SVGID_61_" gradientUnits="userSpaceOnUse" x1="-297.2109" y1="7939.3164" x2="-295.2279" y2="7937.3335" gradientTransform="matrix(29 0 0 -341 8592.6406 2707265.25)">
			<stop  offset="0" style="stop-color:#A67A21"/>
			<stop  offset="1" style="stop-color:#7B683E"/>
		</linearGradient>
		<polygon fill="url(#SVGID_61_)" points="0,138.908 0,479.423 0,517.269 32.911,408.602 		"/>
	</g>
</g>
<g id="Layer_4">
</g>
<g id="Layer_5">
</g>
<g id="Layer_6">
</g>
<g id="Layer_7">
</g>
<g id="Layer_8">
</g>
<g id="Layer_9">
</g>
<g id="Layer_10">
</g>
<g id="Layer_11">
</g>
<g id="Layer_12">
</g>
<g id="Layer_13">
</g>
<g id="Layer_14">
</g>
<g id="Layer_15">
</g>
<g id="Layer_16">
</g>
<g id="Layer_17">
</g>
<g id="Layer_18">
</g>
<g id="Layer_19">
</g>
<g id="Layer_20">
</g>
<g id="Layer_21">
</g>
<g id="Layer_22">
</g>
<g id="Layer_23">
</g>
<g id="Layer_24">
</g>
<g id="Layer_25">
</g>
</svg>
