<?xml version="1.0" encoding="utf-8"?>
<!-- Generator: Adobe Illustrator 16.0.0, SVG Export Plug-In . SVG Version: 6.00 Build 0)  -->
<!DOCTYPE svg PUBLIC "-//W3C//DTD SVG 1.1//EN" "http://www.w3.org/Graphics/SVG/1.1/DTD/svg11.dtd">
<svg version="1.1" xmlns="http://www.w3.org/2000/svg" xmlns:xlink="http://www.w3.org/1999/xlink" x="0px" y="0px" width="3840px"
	 height="2160.002px" viewBox="0 0 3840 2160.002" enable-background="new 0 0 3840 2160.002" xml:space="preserve">
<g id="Layer_1">
</g>
<g id="Layer_2">
</g>
<g id="Layer_3">
</g>
<g id="Layer_4">
</g>
<g id="Layer_5">
</g>
<g id="Layer_6">
</g>
<g id="Layer_7">
</g>
<g id="Layer_8">
</g>
<g id="Layer_9">
</g>
<g id="Layer_10">
</g>
<g id="Layer_11">
</g>
<g id="Layer_12">
</g>
<g id="Layer_13">
</g>
<g id="Layer_14">
</g>
<g id="Layer_15">
</g>
<g id="Layer_16">
</g>
<g id="Layer_17">
</g>
<g id="Layer_18">
</g>
<g id="Layer_19">
</g>
<g id="Layer_20">
</g>
<g id="Layer_21">
	<g>
		
			<linearGradient id="SVGID_1_" gradientUnits="userSpaceOnUse" x1="7214.6558" y1="-3041.8105" x2="7218.0083" y2="-3045.1631" gradientTransform="matrix(34 0 0 -69 -244386.3594 -209191.5)">
			<stop  offset="0" style="stop-color:#AABCD7"/>
			<stop  offset="1" style="stop-color:#A3B5D2"/>
		</linearGradient>
		<polygon fill="url(#SVGID_1_)" points="1045.897,884.145 930.837,682.215 915.496,781.717 		"/>
		
			<linearGradient id="SVGID_2_" gradientUnits="userSpaceOnUse" x1="7375.8735" y1="-3102.2666" x2="7379.3574" y2="-3105.7505" gradientTransform="matrix(193 0 0 -34 -1423242.375 -104821.625)">
			<stop  offset="0" style="stop-color:#93A8CE"/>
			<stop  offset="1" style="stop-color:#8496C3"/>
		</linearGradient>
		<polygon fill="url(#SVGID_2_)" points="930.837,682.215 190.62,720.26 915.496,781.717 		"/>
		
			<linearGradient id="SVGID_3_" gradientUnits="userSpaceOnUse" x1="7356.7808" y1="-3014.9346" x2="7360.2866" y2="-3018.4404" gradientTransform="matrix(92 0 0 -130 -673788.5 -391005.625)">
			<stop  offset="0" style="stop-color:#A3BBD4"/>
			<stop  offset="1" style="stop-color:#A5BBD7"/>
		</linearGradient>
		<polygon fill="url(#SVGID_3_)" points="3385.446,1156.311 3032.596,939.748 3113.138,1320.195 		"/>
		
			<linearGradient id="SVGID_4_" gradientUnits="userSpaceOnUse" x1="7387.1919" y1="-3050.2119" x2="7390.6455" y2="-3053.6655" gradientTransform="matrix(227 0 0 -62 -1674770.375 -188266.625)">
			<stop  offset="0" style="stop-color:#B2BFDD"/>
			<stop  offset="1" style="stop-color:#95A9C7"/>
		</linearGradient>
		<polygon fill="url(#SVGID_4_)" points="2161.977,1012.912 3032.596,939.748 2315.39,831.467 		"/>
		
			<linearGradient id="SVGID_5_" gradientUnits="userSpaceOnUse" x1="7390.2266" y1="-3014.1797" x2="7393.6558" y2="-3017.6089" gradientTransform="matrix(248 0 0 -130 -1830443.375 -391005.625)">
			<stop  offset="0" style="stop-color:#A7BBD8"/>
			<stop  offset="1" style="stop-color:#A1B2CD"/>
		</linearGradient>
		<polygon fill="url(#SVGID_5_)" points="3113.138,1320.195 3032.596,939.748 2161.977,1012.912 		"/>
		
			<linearGradient id="SVGID_6_" gradientUnits="userSpaceOnUse" x1="7390.1729" y1="-3033.1807" x2="7393.9888" y2="-3036.9968" gradientTransform="matrix(299 0 0 -93 -2208883.25 -280410.5)">
			<stop  offset="0" style="stop-color:#78A7C8"/>
			<stop  offset="1" style="stop-color:#A9CAE1"/>
		</linearGradient>
		<polygon fill="url(#SVGID_6_)" points="750.577,1975.732 1862.822,1703.566 716.059,1732.832 		"/>
		
			<linearGradient id="SVGID_7_" gradientUnits="userSpaceOnUse" x1="7380.5117" y1="-3018.7129" x2="7384.4507" y2="-3022.6519" gradientTransform="matrix(225 0 0 -113 -1660460.375 -340365.5625)">
			<stop  offset="0" style="stop-color:#A7B8D9"/>
			<stop  offset="1" style="stop-color:#97A9CD"/>
		</linearGradient>
		<polygon fill="url(#SVGID_7_)" points="915.496,781.717 182.949,1112.412 1045.897,884.145 		"/>
		
			<linearGradient id="SVGID_8_" gradientUnits="userSpaceOnUse" x1="7374.9893" y1="-3012.79" x2="7378.7002" y2="-3016.5012" gradientTransform="matrix(191 0 0 -134 -1408418.375 -403008.625)">
			<stop  offset="0" style="stop-color:#4B5891"/>
			<stop  offset="1" style="stop-color:#7F8EB6"/>
		</linearGradient>
		<polygon fill="url(#SVGID_8_)" points="190.62,720.26 182.949,1112.412 915.496,781.717 		"/>
		
			<linearGradient id="SVGID_9_" gradientUnits="userSpaceOnUse" x1="7374.4727" y1="-2995.9609" x2="7377.8945" y2="-2999.3828" gradientTransform="matrix(184 0 0 -290 -1356486.375 -868144.75)">
			<stop  offset="0" style="stop-color:#ACC3DD"/>
			<stop  offset="1" style="stop-color:#A2B2D0"/>
		</linearGradient>
		<polygon fill="url(#SVGID_9_)" points="1045.897,884.145 340.197,1355.313 716.059,1732.832 		"/>
		
			<linearGradient id="SVGID_10_" gradientUnits="userSpaceOnUse" x1="7380.9102" y1="-3007.8584" x2="7384.375" y2="-3011.3235" gradientTransform="matrix(225 0 0 -161 -1660460.375 -483466.625)">
			<stop  offset="0" style="stop-color:#9EA8D1"/>
			<stop  offset="1" style="stop-color:#9AA8CD"/>
		</linearGradient>
		<polygon fill="url(#SVGID_10_)" points="182.949,1112.412 340.197,1355.313 1045.897,884.145 		"/>
		
			<linearGradient id="SVGID_11_" gradientUnits="userSpaceOnUse" x1="7339.5923" y1="-3009.7559" x2="7343.0303" y2="-3013.1938" gradientTransform="matrix(98 0 0 -166 -718968.5 -498215.625)">
			<stop  offset="0" style="stop-color:#C9D2E6"/>
			<stop  offset="1" style="stop-color:#9FBCD4"/>
		</linearGradient>
		<polygon fill="url(#SVGID_11_)" points="340.197,1355.313 359.374,1841.113 716.059,1732.832 		"/>
		
			<linearGradient id="SVGID_12_" gradientUnits="userSpaceOnUse" x1="7343.3091" y1="-3039.2422" x2="7346.8203" y2="-3042.7534" gradientTransform="matrix(102 0 0 -83 -748615.5 -250580.5)">
			<stop  offset="0" style="stop-color:#94B6D5"/>
			<stop  offset="1" style="stop-color:#5E8FB6"/>
		</linearGradient>
		<polygon fill="url(#SVGID_12_)" points="359.374,1841.113 750.577,1975.732 716.059,1732.832 		"/>
		
			<linearGradient id="SVGID_13_" gradientUnits="userSpaceOnUse" x1="7352.8486" y1="-3031.3828" x2="7355.9961" y2="-3034.5303" gradientTransform="matrix(111 0 0 -82 -815183.4375 -247970.5)">
			<stop  offset="0" style="stop-color:#A4B4D3"/>
			<stop  offset="1" style="stop-color:#9CADD1"/>
		</linearGradient>
		<polygon fill="url(#SVGID_13_)" points="1356.559,644.172 930.837,682.215 1045.897,884.145 		"/>
		
			<linearGradient id="SVGID_14_" gradientUnits="userSpaceOnUse" x1="7387.9316" y1="-3013.8789" x2="7391.2729" y2="-3017.2205" gradientTransform="matrix(250 0 0 -126 -1845479.375 -379178.625)">
			<stop  offset="0" style="stop-color:#8E9FC0"/>
			<stop  offset="1" style="stop-color:#B0BEDF"/>
		</linearGradient>
		<polygon fill="url(#SVGID_14_)" points="2315.39,831.467 1356.559,644.172 2161.977,1012.912 		"/>
		
			<linearGradient id="SVGID_15_" gradientUnits="userSpaceOnUse" x1="7382.4746" y1="-3007.9883" x2="7385.73" y2="-3011.2437" gradientTransform="matrix(187 0 0 -155 -1378210.375 -465710.625)">
			<stop  offset="0" style="stop-color:#A9B4D2"/>
			<stop  offset="1" style="stop-color:#9FB2CE"/>
		</linearGradient>
		<polygon fill="url(#SVGID_15_)" points="2315.39,831.467 3032.596,939.748 2626.052,486.139 		"/>
		
			<linearGradient id="SVGID_16_" gradientUnits="userSpaceOnUse" x1="7374.2998" y1="-3018.5459" x2="7380.4673" y2="-3024.7136" gradientTransform="matrix(145 0 0 -100 -1066783.375 -301800.5625)">
			<stop  offset="0" style="stop-color:#9DB3D4"/>
			<stop  offset="1" style="stop-color:#A0B8D7"/>
		</linearGradient>
		<polygon fill="url(#SVGID_16_)" points="3182.174,193.488 2672.075,386.639 2626.052,486.139 		"/>
		
			<linearGradient id="SVGID_17_" gradientUnits="userSpaceOnUse" x1="7375.8125" y1="-2996.1084" x2="7379.2354" y2="-2999.5313" gradientTransform="matrix(145 0 0 -255 -1066783.375 -764010.75)">
			<stop  offset="0" style="stop-color:#8EABCC"/>
			<stop  offset="1" style="stop-color:#A1B8D8"/>
		</linearGradient>
		<polygon fill="url(#SVGID_17_)" points="2626.052,486.139 3032.596,939.748 3182.174,193.488 		"/>
		
			<linearGradient id="SVGID_18_" gradientUnits="userSpaceOnUse" x1="7378.3252" y1="-2996.6563" x2="7381.8911" y2="-3000.2224" gradientTransform="matrix(198 0 0 -290 -1460170.375 -868144.75)">
			<stop  offset="0" style="stop-color:#BBD1E5"/>
			<stop  offset="1" style="stop-color:#B5C3DB"/>
		</linearGradient>
		<polygon fill="url(#SVGID_18_)" points="716.059,1732.832 1475.454,1086.074 1045.897,884.145 		"/>
		
			<linearGradient id="SVGID_19_" gradientUnits="userSpaceOnUse" x1="7390.0898" y1="-3002.1465" x2="7393.2539" y2="-3005.3105" gradientTransform="matrix(299 0 0 -221 -2208883.25 -662317.625)">
			<stop  offset="0" style="stop-color:#A2BBD9"/>
			<stop  offset="1" style="stop-color:#B1C5DF"/>
		</linearGradient>
		<polygon fill="url(#SVGID_19_)" points="716.059,1732.832 1862.822,1703.566 1475.454,1086.074 		"/>
		
			<linearGradient id="SVGID_20_" gradientUnits="userSpaceOnUse" x1="7353.8081" y1="-3008.626" x2="7357.3584" y2="-3012.1763" gradientTransform="matrix(112 0 0 -151 -822566.4375 -453728.625)">
			<stop  offset="0" style="stop-color:#9DAFD1"/>
			<stop  offset="1" style="stop-color:#B5C4E3"/>
		</linearGradient>
		<polygon fill="url(#SVGID_20_)" points="1475.454,1086.074 1356.559,644.172 1045.897,884.145 		"/>
		
			<linearGradient id="SVGID_21_" gradientUnits="userSpaceOnUse" x1="7382.2153" y1="-3009.334" x2="7385.6372" y2="-3012.7559" gradientTransform="matrix(210 0 0 -151 -1548959.375 -453728.625)">
			<stop  offset="0" style="stop-color:#A8B8DA"/>
			<stop  offset="1" style="stop-color:#9EADCB"/>
		</linearGradient>
		<polygon fill="url(#SVGID_21_)" points="2161.977,1012.912 1356.559,644.172 1475.454,1086.074 		"/>
		
			<linearGradient id="SVGID_22_" gradientUnits="userSpaceOnUse" x1="7378.4082" y1="-2999.5762" x2="7381.6865" y2="-3002.8545" gradientTransform="matrix(179 0 0 -236 -1319125.375 -707072.625)">
			<stop  offset="0" style="stop-color:#BDD4E6"/>
			<stop  offset="1" style="stop-color:#ADBBD4"/>
		</linearGradient>
		<polygon fill="url(#SVGID_22_)" points="1475.454,1086.074 1862.822,1703.566 2161.977,1012.912 		"/>
		
			<linearGradient id="SVGID_23_" gradientUnits="userSpaceOnUse" x1="7391.834" y1="-3011.0303" x2="7395.3389" y2="-3014.5352" gradientTransform="matrix(297 0 0 -133 -2193890.25 -400121.625)">
			<stop  offset="0" style="stop-color:#BAC8E6"/>
			<stop  offset="1" style="stop-color:#BBC9E4"/>
		</linearGradient>
		<polygon fill="url(#SVGID_23_)" points="2495.651,442.242 1356.559,644.172 2315.39,831.467 		"/>
		
			<linearGradient id="SVGID_24_" gradientUnits="userSpaceOnUse" x1="7342.7666" y1="-3011.6689" x2="7346.4097" y2="-3015.312" gradientTransform="matrix(81 0 0 -133 -592432.5 -400121.625)">
			<stop  offset="0" style="stop-color:#C0CDE7"/>
			<stop  offset="1" style="stop-color:#B7C9E3"/>
		</linearGradient>
		<polygon fill="url(#SVGID_24_)" points="2626.052,486.139 2495.651,442.242 2315.39,831.467 		"/>
		
			<linearGradient id="SVGID_25_" gradientUnits="userSpaceOnUse" x1="7374.4336" y1="-3000.5283" x2="7377.6646" y2="-3003.759" gradientTransform="matrix(157 0 0 -239 -1155938.375 -716018.625)">
			<stop  offset="0" style="stop-color:#A9BECE"/>
			<stop  offset="1" style="stop-color:#A7B6C9"/>
		</linearGradient>
		<polygon fill="url(#SVGID_25_)" points="1862.822,1703.566 2464.968,1712.348 2161.977,1012.912 		"/>
		
			<linearGradient id="SVGID_26_" gradientUnits="userSpaceOnUse" x1="7389.7495" y1="-2999.9209" x2="7393.3076" y2="-3003.4788" gradientTransform="matrix(248 0 0 -239 -1830443.375 -716018.625)">
			<stop  offset="0" style="stop-color:#A8B5CF"/>
			<stop  offset="1" style="stop-color:#C2D2E4"/>
		</linearGradient>
		<polygon fill="url(#SVGID_26_)" points="2464.968,1712.348 3113.138,1320.195 2161.977,1012.912 		"/>
		
			<linearGradient id="SVGID_27_" gradientUnits="userSpaceOnUse" x1="7249.7998" y1="-3178.5986" x2="7253.2456" y2="-3182.0444" gradientTransform="matrix(34 0 0 -20 -243974.3594 -63160.6406)">
			<stop  offset="0" style="stop-color:#B1C4E0"/>
			<stop  offset="1" style="stop-color:#AFC1DE"/>
		</linearGradient>
		<polygon fill="url(#SVGID_27_)" points="2622.216,427.609 2495.651,442.242 2626.052,486.139 		"/>
		
			<linearGradient id="SVGID_28_" gradientUnits="userSpaceOnUse" x1="7291.3789" y1="-3187.4385" x2="7295.7407" y2="-3191.8005" gradientTransform="matrix(46 0 0 -19 -332930.375 -60192.6406)">
			<stop  offset="0" style="stop-color:#AFC5E0"/>
			<stop  offset="1" style="stop-color:#AFC2DF"/>
		</linearGradient>
		<polygon fill="url(#SVGID_28_)" points="2672.075,386.639 2495.651,442.242 2622.216,427.609 		"/>
		
			<linearGradient id="SVGID_29_" gradientUnits="userSpaceOnUse" x1="6991.6714" y1="-3096.8203" x2="6995.6265" y2="-3100.7754" gradientTransform="matrix(13 0 0 -34 -88268.3594 -104922.625)">
			<stop  offset="0" style="stop-color:#ACC2DE"/>
			<stop  offset="1" style="stop-color:#ABC0DE"/>
		</linearGradient>
		<polygon fill="url(#SVGID_29_)" points="2626.052,486.139 2672.075,386.639 2622.216,427.609 		"/>
		
			<linearGradient id="SVGID_30_" gradientUnits="userSpaceOnUse" x1="7380.1763" y1="-2996.9512" x2="7383.6436" y2="-3000.4182" gradientTransform="matrix(169 0 0 -293 -1244737.375 -876941.75)">
			<stop  offset="0" style="stop-color:#E3EEF6"/>
			<stop  offset="1" style="stop-color:#B1CBDF"/>
		</linearGradient>
		<polygon fill="url(#SVGID_30_)" points="2464.968,1712.348 2575.824,2160.663 2590.597,2160.663 3113.138,1320.195 		"/>
		
			<linearGradient id="SVGID_31_" gradientUnits="userSpaceOnUse" x1="7374.8896" y1="-3004.3584" x2="7378.25" y2="-3007.7188" gradientTransform="matrix(193 0 0 -174 -1423242.375 -522462.625)">
			<stop  offset="0" style="stop-color:#687BB2"/>
			<stop  offset="1" style="stop-color:#8EA8D1"/>
		</linearGradient>
		<polygon fill="url(#SVGID_31_)" points="305.679,211.047 190.62,720.26 930.837,682.215 		"/>
		
			<linearGradient id="SVGID_32_" gradientUnits="userSpaceOnUse" x1="7351.9751" y1="-2997.6045" x2="7355.3081" y2="-3000.9375" gradientTransform="matrix(111 0 0 -242 -815183.4375 -725319.625)">
			<stop  offset="0" style="stop-color:#ADC1DD"/>
			<stop  offset="1" style="stop-color:#A3BEE1"/>
		</linearGradient>
		<polygon fill="url(#SVGID_32_)" points="1356.559,644.172 1043.621,0.858 1026.774,0.858 930.837,682.215 		"/>
		
			<linearGradient id="SVGID_33_" gradientUnits="userSpaceOnUse" x1="7386.2432" y1="-3026.6895" x2="7389.3848" y2="-3029.8311" gradientTransform="matrix(274 0 0 -81 -2023750.25 -245217.5)">
			<stop  offset="0" style="stop-color:#6BA3C9"/>
			<stop  offset="1" style="stop-color:#82ABD5"/>
		</linearGradient>
		<polygon fill="url(#SVGID_33_)" points="948.425,0.858 683.251,0.858 668.827,0.858 631.493,0.858 265.544,0.858 107.749,0.858 
			16.614,0.858 305.679,211.047 		"/>
		
			<linearGradient id="SVGID_34_" gradientUnits="userSpaceOnUse" x1="7375.5483" y1="-2996.3125" x2="7378.9878" y2="-2999.752" gradientTransform="matrix(189 0 0 -242 -1393560.375 -725319.625)">
			<stop  offset="0" style="stop-color:#88A7D5"/>
			<stop  offset="1" style="stop-color:#9BB7DC"/>
		</linearGradient>
		<polygon fill="url(#SVGID_34_)" points="930.837,682.215 1026.774,0.858 948.425,0.858 305.679,211.047 		"/>
		
			<linearGradient id="SVGID_35_" gradientUnits="userSpaceOnUse" x1="7390.6646" y1="-2997.4805" x2="7393.7959" y2="-3000.6118" gradientTransform="matrix(292 0 0 -229 -2156910.25 -686553.625)">
			<stop  offset="0" style="stop-color:#A7C6E5"/>
			<stop  offset="1" style="stop-color:#BDD0EA"/>
		</linearGradient>
		<polygon fill="url(#SVGID_35_)" points="2125.369,0.858 1794.433,0.858 1705.535,0.858 1661.585,0.858 1628.897,0.858 
			1573.278,0.858 1359.989,0.858 1212.013,0.858 1043.621,0.858 1356.559,644.172 		"/>
		
			<linearGradient id="SVGID_36_" gradientUnits="userSpaceOnUse" x1="7391.5522" y1="-2998.3906" x2="7394.7544" y2="-3001.5928" gradientTransform="matrix(297 0 0 -227 -2193890.25 -680587.625)">
			<stop  offset="0" style="stop-color:#AABBDA"/>
			<stop  offset="1" style="stop-color:#B0C5DD"/>
		</linearGradient>
		<polygon fill="url(#SVGID_36_)" points="2495.651,442.242 2166.152,0.858 2141.385,0.858 2125.369,0.858 1356.559,644.172 		"/>
		
			<linearGradient id="SVGID_37_" gradientUnits="userSpaceOnUse" x1="7370.3716" y1="-3004.9043" x2="7373.7817" y2="-3008.3142" gradientTransform="matrix(136 0 0 -158 -1000190.375 -474829.625)">
			<stop  offset="0" style="stop-color:#B7CAE5"/>
			<stop  offset="1" style="stop-color:#BDCEE7"/>
		</linearGradient>
		<polygon fill="url(#SVGID_37_)" points="2672.075,386.639 2177.405,0.858 2166.951,0.858 2166.152,0.858 2495.651,442.242 		"/>
		
			<linearGradient id="SVGID_38_" gradientUnits="userSpaceOnUse" x1="7391.666" y1="-3007.9561" x2="7395.1885" y2="-3011.4785" gradientTransform="matrix(269 0 0 -139 -1986119.25 -418171.625)">
			<stop  offset="0" style="stop-color:#B7C8E3"/>
			<stop  offset="1" style="stop-color:#B5CBE4"/>
		</linearGradient>
		<polygon fill="url(#SVGID_38_)" points="3182.174,193.488 2251.909,0.858 2177.405,0.858 2672.075,386.639 		"/>
		
			<linearGradient id="SVGID_39_" gradientUnits="userSpaceOnUse" x1="7400.6997" y1="-3030.6641" x2="7403.9697" y2="-3033.9341" gradientTransform="matrix(449 0 0 -74 -3320459.5 -224342.5)">
			<stop  offset="0" style="stop-color:#B3CCE2"/>
			<stop  offset="1" style="stop-color:#A9C4DE"/>
		</linearGradient>
		<polygon fill="url(#SVGID_39_)" points="3796.246,0.858 3768.443,0.858 3765.43,0.858 2878.78,0.858 2839.03,0.858 
			2701.929,0.858 2688.896,0.858 2626.618,0.858 2571.589,0.858 2541.87,0.858 2251.909,0.858 3182.174,193.488 		"/>
		
			<linearGradient id="SVGID_40_" gradientUnits="userSpaceOnUse" x1="7389.2417" y1="-2997.1875" x2="7392.6729" y2="-3000.6187" gradientTransform="matrix(220 0 0 -255 -1622652.375 -764010.75)">
			<stop  offset="0" style="stop-color:#A8BEDA"/>
			<stop  offset="1" style="stop-color:#B0C6E2"/>
		</linearGradient>
		<polygon fill="url(#SVGID_40_)" points="3032.596,939.748 3839.999,696.117 3839.999,659.385 3182.174,193.488 		"/>
		
			<linearGradient id="SVGID_41_" gradientUnits="userSpaceOnUse" x1="7389.8652" y1="-3006.9561" x2="7393.2246" y2="-3010.3157" gradientTransform="matrix(220 0 0 -161 -1622652.375 -483534.625)">
			<stop  offset="0" style="stop-color:#A3BAD6"/>
			<stop  offset="1" style="stop-color:#B2C4E1"/>
		</linearGradient>
		<polygon fill="url(#SVGID_41_)" points="3032.596,939.748 3385.446,1156.311 3839.999,720.048 3839.999,696.117 		"/>
		
			<linearGradient id="SVGID_42_" gradientUnits="userSpaceOnUse" x1="7385.5981" y1="-2996.3477" x2="7389.061" y2="-2999.8105" gradientTransform="matrix(181 0 0 -242 -1333506.375 -725318.625)">
			<stop  offset="0" style="stop-color:#ACC2DD"/>
			<stop  offset="1" style="stop-color:#ACC7DF"/>
		</linearGradient>
		<polygon fill="url(#SVGID_42_)" points="3839.999,659.385 3839.999,625.259 3839.999,577.106 3839.999,522.759 3839.999,469.595 
			3839.999,413.315 3839.999,407.252 3839.999,402.584 3839.999,14.923 3839.999,0.858 3796.246,0.858 3182.174,193.488 		"/>
		
			<linearGradient id="SVGID_43_" gradientUnits="userSpaceOnUse" x1="7396.5859" y1="-2997.6621" x2="7400.0195" y2="-3001.0959" gradientTransform="matrix(336 0 0 -293 -2482678.25 -876941.75)">
			<stop  offset="0" style="stop-color:#B6D2E5"/>
			<stop  offset="1" style="stop-color:#DBE6EF"/>
		</linearGradient>
		<polygon fill="url(#SVGID_43_)" points="2590.597,2160.663 2627.706,2160.663 3839.999,1728.432 3839.999,1703.082 
			3113.138,1320.195 		"/>
		
			<linearGradient id="SVGID_44_" gradientUnits="userSpaceOnUse" x1="7387.0898" y1="-3004.8516" x2="7390.5483" y2="-3008.3101" gradientTransform="matrix(197 0 0 -192 -1452132.375 -575815.625)">
			<stop  offset="0" style="stop-color:#B8C9DE"/>
			<stop  offset="1" style="stop-color:#D2DDEE"/>
		</linearGradient>
		<polygon fill="url(#SVGID_44_)" points="3113.138,1320.195 3839.999,1703.082 3839.999,1684.831 3385.446,1156.311 		"/>
		
			<linearGradient id="SVGID_45_" gradientUnits="userSpaceOnUse" x1="7374.8296" y1="-3004.2314" x2="7378.2104" y2="-3007.6123" gradientTransform="matrix(126 0 0 -192 -925738.4375 -575815.625)">
			<stop  offset="0" style="stop-color:#B0BBD9"/>
			<stop  offset="1" style="stop-color:#B5C2DC"/>
		</linearGradient>
		<polygon fill="url(#SVGID_45_)" points="3839.999,1684.831 3839.999,1334.696 3839.999,1296.64 3839.999,1274.466 
			3839.999,1263.284 3839.999,1211.364 3385.446,1156.311 		"/>
		
			<linearGradient id="SVGID_46_" gradientUnits="userSpaceOnUse" x1="7374.4346" y1="-3004.1982" x2="7378.1782" y2="-3007.9419" gradientTransform="matrix(128 0 0 -181 -940564.4375 -543174.625)">
			<stop  offset="0" style="stop-color:#C0CBE7"/>
			<stop  offset="1" style="stop-color:#A8BBDC"/>
		</linearGradient>
		<polygon fill="url(#SVGID_46_)" points="3839.999,1211.364 3839.999,1036.819 3839.999,720.048 3385.446,1156.311 		"/>
		
			<linearGradient id="SVGID_47_" gradientUnits="userSpaceOnUse" x1="7396.4609" y1="-3010.7354" x2="7400.2642" y2="-3014.5383" gradientTransform="matrix(336 0 0 -163 -2482678.25 -489145.625)">
			<stop  offset="0" style="stop-color:#88B7D5"/>
			<stop  offset="1" style="stop-color:#9BCBDD"/>
		</linearGradient>
		<polygon fill="url(#SVGID_47_)" points="2687.253,2160.663 3247.88,2160.663 3410.818,2160.663 3435.02,2160.663 
			3725.12,2160.663 3830.778,2160.663 3839.999,2160.663 3839.999,2132.882 3839.999,1728.432 2627.706,2160.663 		"/>
		
			<linearGradient id="SVGID_48_" gradientUnits="userSpaceOnUse" x1="7389.8799" y1="-3009.4424" x2="7393.4316" y2="-3012.9944" gradientTransform="matrix(292 0 0 -170 -2156983.25 -510024.625)">
			<stop  offset="0" style="stop-color:#5E97BD"/>
			<stop  offset="1" style="stop-color:#7BB2CE"/>
		</linearGradient>
		<polygon fill="url(#SVGID_48_)" points="750.577,1975.732 1669.655,2160.663 1793.817,2160.663 1869.869,2160.663 
			1862.822,1703.566 		"/>
		
			<linearGradient id="SVGID_49_" gradientUnits="userSpaceOnUse" x1="7374.8149" y1="-3009.8809" x2="7378.6348" y2="-3013.7004" gradientTransform="matrix(157 0 0 -170 -1155938.375 -510024.625)">
			<stop  offset="0" style="stop-color:#AFCEE4"/>
			<stop  offset="1" style="stop-color:#98C2D9"/>
		</linearGradient>
		<polygon fill="url(#SVGID_49_)" points="1862.822,1703.566 1869.869,2160.663 1919.647,2160.663 2464.968,1712.348 		"/>
		
			<linearGradient id="SVGID_50_" gradientUnits="userSpaceOnUse" x1="7380.6567" y1="-3010.5811" x2="7383.9731" y2="-3013.8972" gradientTransform="matrix(185 0 0 -167 -1363500.375 -501075.625)">
			<stop  offset="0" style="stop-color:#A7C8DD"/>
			<stop  offset="1" style="stop-color:#69A5C6"/>
		</linearGradient>
		<polygon fill="url(#SVGID_50_)" points="1919.647,2160.663 1951.302,2160.663 2542.721,2160.663 2575.824,2160.663 
			2464.968,1712.348 		"/>
		
			<linearGradient id="SVGID_51_" gradientUnits="userSpaceOnUse" x1="7343.3062" y1="-3020.9297" x2="7346.7207" y2="-3024.3442" gradientTransform="matrix(102 0 0 -124 -748615.5 -372805.625)">
			<stop  offset="0" style="stop-color:#4780A9"/>
			<stop  offset="1" style="stop-color:#4288AD"/>
		</linearGradient>
		<polygon fill="url(#SVGID_51_)" points="359.374,1841.113 511.352,2160.663 573.468,2160.663 750.577,1975.732 		"/>
		
			<linearGradient id="SVGID_52_" gradientUnits="userSpaceOnUse" x1="7392.5742" y1="-3046.0645" x2="7395.9175" y2="-3049.408" gradientTransform="matrix(349 0 0 -78 -2579581.25 -235587.5)">
			<stop  offset="0" style="stop-color:#629DC2"/>
			<stop  offset="1" style="stop-color:#58A1BF"/>
		</linearGradient>
		<polygon fill="url(#SVGID_52_)" points="573.468,2160.663 594.849,2160.663 718.22,2160.663 1579.172,2160.663 1639.968,2160.663 
			1669.655,2160.663 750.577,1975.732 		"/>
		
			<linearGradient id="SVGID_53_" gradientUnits="userSpaceOnUse" x1="7363.376" y1="-3021.4844" x2="7366.5132" y2="-3024.6218" gradientTransform="matrix(149 0 0 -124 -1097130.375 -372805.625)">
			<stop  offset="0" style="stop-color:#4F8AAE"/>
			<stop  offset="1" style="stop-color:#4091AE"/>
		</linearGradient>
		<polygon fill="url(#SVGID_53_)" points="8.135,2160.663 32.016,2160.663 83.599,2160.663 367.406,2160.663 511.352,2160.663 
			359.374,1841.113 		"/>
		
			<linearGradient id="SVGID_54_" gradientUnits="userSpaceOnUse" x1="7341.7988" y1="-3008.7188" x2="7345.354" y2="-3012.2737" gradientTransform="matrix(104 0 0 -166 -763545.5 -498215.625)">
			<stop  offset="0" style="stop-color:#C7D4E6"/>
			<stop  offset="1" style="stop-color:#B6CDDE"/>
		</linearGradient>
		<polygon fill="url(#SVGID_54_)" points="340.197,1355.313 0.001,1596.541 0.001,1645.997 359.374,1841.113 		"/>
		
			<linearGradient id="SVGID_55_" gradientUnits="userSpaceOnUse" x1="7341.5073" y1="-3005.8164" x2="7345.0952" y2="-3009.4045" gradientTransform="matrix(104 0 0 -198 -763545.5 -593547.625)">
			<stop  offset="0" style="stop-color:#408DB2"/>
			<stop  offset="1" style="stop-color:#81AAC8"/>
		</linearGradient>
		<polygon fill="url(#SVGID_55_)" points="0.001,1645.997 0.001,2029.866 0.001,2160.663 8.135,2160.663 359.374,1841.113 		"/>
		
			<linearGradient id="SVGID_56_" gradientUnits="userSpaceOnUse" x1="7337.9492" y1="-3007.2598" x2="7341.2993" y2="-3010.6099" gradientTransform="matrix(99 0 0 -175 -726480.5 -525136.625)">
			<stop  offset="0" style="stop-color:#9AABCF"/>
			<stop  offset="1" style="stop-color:#B6C5DE"/>
		</linearGradient>
		<polygon fill="url(#SVGID_56_)" points="182.949,1112.412 0.001,1533.608 0.001,1596.541 340.197,1355.313 		"/>
		
			<linearGradient id="SVGID_57_" gradientUnits="userSpaceOnUse" x1="7284.8545" y1="-2997.4639" x2="7288.4385" y2="-3001.0479" gradientTransform="matrix(58 0 0 -269 -422547.375 -805538.75)">
			<stop  offset="0" style="stop-color:#C0D1E5"/>
			<stop  offset="1" style="stop-color:#7C95C2"/>
		</linearGradient>
		<polygon fill="url(#SVGID_57_)" points="0.001,864.825 0.001,931.31 0.001,946.13 0.001,1140.976 0.001,1155.792 0.001,1169.601 
			0.001,1195.71 0.001,1533.608 182.949,1112.412 		"/>
		
			<linearGradient id="SVGID_58_" gradientUnits="userSpaceOnUse" x1="7278.5771" y1="-3012.042" x2="7282.0298" y2="-3015.4946" gradientTransform="matrix(55 0 0 -134 -400303.375 -403008.625)">
			<stop  offset="0" style="stop-color:#8AA5CD"/>
			<stop  offset="1" style="stop-color:#5E7BB3"/>
		</linearGradient>
		<polygon fill="url(#SVGID_58_)" points="190.62,720.26 0.001,826.042 0.001,864.825 182.949,1112.412 		"/>
		
			<linearGradient id="SVGID_59_" gradientUnits="userSpaceOnUse" x1="7327.2109" y1="-3003.0664" x2="7330.5845" y2="-3006.4399" gradientTransform="matrix(86 0 0 -174 -630107.5 -522462.625)">
			<stop  offset="0" style="stop-color:#788EBF"/>
			<stop  offset="1" style="stop-color:#8CAFD6"/>
		</linearGradient>
		<polygon fill="url(#SVGID_59_)" points="305.679,211.047 0.001,365.641 0.001,416.375 190.62,720.26 		"/>
		
			<linearGradient id="SVGID_60_" gradientUnits="userSpaceOnUse" x1="7326.4419" y1="-3008.5586" x2="7329.9385" y2="-3012.0554" gradientTransform="matrix(86 0 0 -138 -630107.5 -415191.625)">
			<stop  offset="0" style="stop-color:#75AACB"/>
			<stop  offset="1" style="stop-color:#8AADD3"/>
		</linearGradient>
		<polygon fill="url(#SVGID_60_)" points="16.614,0.858 0.001,0.858 0.001,3.397 0.001,68.669 0.001,365.641 305.679,211.047 		"/>
		
			<linearGradient id="SVGID_61_" gradientUnits="userSpaceOnUse" x1="7280.043" y1="-3007.1318" x2="7283.4902" y2="-3010.5791" gradientTransform="matrix(56 0 0 -157 -407717.375 -471711.625)">
			<stop  offset="0" style="stop-color:#324D8D"/>
			<stop  offset="1" style="stop-color:#5B71A6"/>
		</linearGradient>
		<polygon fill="url(#SVGID_61_)" points="0.001,416.375 0.001,481.452 0.001,715.687 0.001,726.052 0.001,742.007 0.001,826.042 
			190.62,720.26 		"/>
	</g>
</g>
<g id="Layer_22">
</g>
<g id="Layer_23">
</g>
<g id="Layer_24">
</g>
<g id="Layer_25">
</g>
</svg>
