<?xml version="1.0" encoding="utf-8"?>
<!-- Generator: Adobe Illustrator 16.0.0, SVG Export Plug-In . SVG Version: 6.00 Build 0)  -->
<!DOCTYPE svg PUBLIC "-//W3C//DTD SVG 1.1//EN" "http://www.w3.org/Graphics/SVG/1.1/DTD/svg11.dtd">
<svg version="1.1" xmlns="http://www.w3.org/2000/svg" xmlns:xlink="http://www.w3.org/1999/xlink" x="0px" y="0px" width="3840px"
	 height="2160px" viewBox="0 0 3840 2160" enable-background="new 0 0 3840 2160" xml:space="preserve">
<g id="Layer_1">
</g>
<g id="Layer_2">
</g>
<g id="Layer_3">
</g>
<g id="Layer_4">
</g>
<g id="Layer_5">
	<g>
		
			<linearGradient id="SVGID_1_" gradientUnits="userSpaceOnUse" x1="7389.3691" y1="5758.8701" x2="7391.4956" y2="5756.7437" gradientTransform="matrix(289 0 0 -242 -2134642.25 1393832.375)">
			<stop  offset="0" style="stop-color:#085EBC"/>
			<stop  offset="1" style="stop-color:#0856AD"/>
		</linearGradient>
		<polygon fill="url(#SVGID_1_)" points="1429.93,367.985 721.441,322.945 1265.678,777.099 		"/>
		
			<linearGradient id="SVGID_2_" gradientUnits="userSpaceOnUse" x1="7390.5454" y1="5765.7617" x2="7392.8472" y2="5763.46" gradientTransform="matrix(326 0 0 -159 -2409165.25 918161.375)">
			<stop  offset="0" style="stop-color:#5886BF"/>
			<stop  offset="1" style="stop-color:#A9BCDF"/>
		</linearGradient>
		<polygon fill="url(#SVGID_2_)" points="253.2,1715.436 927.368,1522.138 128.173,1417.044 		"/>
		
			<linearGradient id="SVGID_3_" gradientUnits="userSpaceOnUse" x1="7345.9468" y1="5749.6953" x2="7348.0273" y2="5747.6147" gradientTransform="matrix(110 0 0 -425 -808012.4375 2444044.5)">
			<stop  offset="0" style="stop-color:#0859AE"/>
			<stop  offset="1" style="stop-color:#1360B1"/>
		</linearGradient>
		<polygon fill="url(#SVGID_3_)" points="263.006,619.459 0,689.011 0,715.025 0,725.391 0,726.652 128.173,1417.044 		"/>
		
			<linearGradient id="SVGID_4_" gradientUnits="userSpaceOnUse" x1="7400.832" y1="5757.2363" x2="7402.9785" y2="5755.0898" gradientTransform="matrix(489 0 0 -251 -3616691.5 1445728.25)">
			<stop  offset="0" style="stop-color:#126FD0"/>
			<stop  offset="1" style="stop-color:#0964C5"/>
		</linearGradient>
		<polygon fill="url(#SVGID_4_)" points="2930.261,1270.664 3271.023,799.62 2072.229,889.7 		"/>
		
			<linearGradient id="SVGID_5_" gradientUnits="userSpaceOnUse" x1="7388.126" y1="5755.207" x2="7390.29" y2="5753.043" gradientTransform="matrix(246 0 0 -262 -1815364.375 1509201.25)">
			<stop  offset="0" style="stop-color:#568DC0"/>
			<stop  offset="1" style="stop-color:#8EB1D4"/>
		</linearGradient>
		<polygon fill="url(#SVGID_5_)" points="1993.78,1465.838 2596.854,1957.526 2562.533,1555.918 		"/>
		
			<linearGradient id="SVGID_6_" gradientUnits="userSpaceOnUse" x1="7367.1475" y1="5753.6836" x2="7369.395" y2="5751.436" gradientTransform="matrix(149 0 0 -293 -1096738.375 1686977.25)">
			<stop  offset="0" style="stop-color:#7FA3D5"/>
			<stop  offset="1" style="stop-color:#75AAE1"/>
		</linearGradient>
		<polygon fill="url(#SVGID_6_)" points="927.368,1522.138 1292.645,1824.282 1260.775,1274.417 		"/>
		
			<linearGradient id="SVGID_7_" gradientUnits="userSpaceOnUse" x1="7390.6851" y1="5753.2578" x2="7392.9883" y2="5750.9546" gradientTransform="matrix(299 0 0 -293 -2208552.25 1686977.25)">
			<stop  offset="0" style="stop-color:#C4D4E2"/>
			<stop  offset="1" style="stop-color:#6C9FD6"/>
		</linearGradient>
		<polygon fill="url(#SVGID_7_)" points="1292.645,1824.282 1993.78,1465.838 1260.775,1274.417 		"/>
		
			<linearGradient id="SVGID_8_" gradientUnits="userSpaceOnUse" x1="7392.9976" y1="5753.582" x2="7395.2944" y2="5751.2852" gradientTransform="matrix(331 0 0 -307 -2445768.25 1767104.25)">
			<stop  offset="0" style="stop-color:#B1CDEB"/>
			<stop  offset="1" style="stop-color:#4890DA"/>
		</linearGradient>
		<polygon fill="url(#SVGID_8_)" points="1260.775,1274.417 1993.78,1465.838 2072.229,889.7 		"/>
		
			<linearGradient id="SVGID_9_" gradientUnits="userSpaceOnUse" x1="7297.5522" y1="5755.2236" x2="7299.5723" y2="5753.2036" gradientTransform="matrix(51 0 0 -259 -369597.375 1491990.25)">
			<stop  offset="0" style="stop-color:#ACBFE2"/>
			<stop  offset="1" style="stop-color:#B4C8E4"/>
		</linearGradient>
		<polygon fill="url(#SVGID_9_)" points="2596.854,1957.526 2687.56,1471.468 2562.533,1555.918 		"/>
		
			<linearGradient id="SVGID_10_" gradientUnits="userSpaceOnUse" x1="7396.5488" y1="5748.9502" x2="7398.6973" y2="5746.8018" gradientTransform="matrix(361 0 0 -393 -2667613.25 2260882.25)">
			<stop  offset="0" style="stop-color:#E9F3FC"/>
			<stop  offset="1" style="stop-color:#C2D3ED"/>
		</linearGradient>
		<polygon fill="url(#SVGID_10_)" points="2596.854,1957.526 3309.41,2160 3410.818,2160 3429.082,2160 2687.56,1471.468 		"/>
		
			<linearGradient id="SVGID_11_" gradientUnits="userSpaceOnUse" x1="7391.5337" y1="5829.8242" x2="7393.6694" y2="5827.6885" gradientTransform="matrix(283 0 0 -48 -2089645.25 281269.375)">
			<stop  offset="0" style="stop-color:#75A2D9"/>
			<stop  offset="1" style="stop-color:#81A4D5"/>
		</linearGradient>
		<polygon fill="url(#SVGID_11_)" points="2562.533,1555.918 2687.56,1471.468 1993.78,1465.838 		"/>
		
			<linearGradient id="SVGID_12_" gradientUnits="userSpaceOnUse" x1="7390.6465" y1="5752.6563" x2="7392.7935" y2="5750.5093" gradientTransform="matrix(283 0 0 -310 -2089645.25 1784318.25)">
			<stop  offset="0" style="stop-color:#5496DC"/>
			<stop  offset="1" style="stop-color:#347ECE"/>
		</linearGradient>
		<polygon fill="url(#SVGID_12_)" points="1993.78,1465.838 2687.56,1471.468 2072.229,889.7 		"/>
		
			<linearGradient id="SVGID_13_" gradientUnits="userSpaceOnUse" x1="7395.5806" y1="5753.2705" x2="7397.7241" y2="5751.127" gradientTransform="matrix(350 0 0 -310 -2586284.25 1784318.25)">
			<stop  offset="0" style="stop-color:#0969CD"/>
			<stop  offset="1" style="stop-color:#3A83D2"/>
		</linearGradient>
		<polygon fill="url(#SVGID_13_)" points="2687.56,1471.468 2930.261,1270.664 2072.229,889.7 		"/>
		
			<linearGradient id="SVGID_14_" gradientUnits="userSpaceOnUse" x1="7354.2651" y1="5752.8506" x2="7356.394" y2="5750.7217" gradientTransform="matrix(124 0 0 -335 -911684.4375 1927289.25)">
			<stop  offset="0" style="stop-color:#0850A1"/>
			<stop  offset="1" style="stop-color:#074996"/>
		</linearGradient>
		<polygon fill="url(#SVGID_14_)" points="566.995,471.202 389.141,0.197 383.745,0.197 263.006,619.459 		"/>
		
			<linearGradient id="SVGID_15_" gradientUnits="userSpaceOnUse" x1="7360.6533" y1="5757.9492" x2="7362.8696" y2="5755.7329" gradientTransform="matrix(137 0 0 -256 -1008003.375 1473987.25)">
			<stop  offset="0" style="stop-color:#06438D"/>
			<stop  offset="1" style="stop-color:#074FA0"/>
		</linearGradient>
		<polygon fill="url(#SVGID_15_)" points="721.441,322.945 395.111,0.197 389.141,0.197 566.995,471.202 		"/>
		
			<linearGradient id="SVGID_16_" gradientUnits="userSpaceOnUse" x1="7388.1689" y1="5758.2578" x2="7390.2974" y2="5756.1294" gradientTransform="matrix(285 0 0 -242 -2105053.25 1393832.375)">
			<stop  offset="0" style="stop-color:#0854A8"/>
			<stop  offset="1" style="stop-color:#085AB3"/>
		</linearGradient>
		<polygon fill="url(#SVGID_16_)" points="721.441,322.945 566.995,471.202 1265.678,777.099 		"/>
		
			<linearGradient id="SVGID_17_" gradientUnits="userSpaceOnUse" x1="7392.6807" y1="5757.4844" x2="7395.4409" y2="5754.7241" gradientTransform="matrix(331 0 0 -244 -2445768.25 1405571.375)">
			<stop  offset="0" style="stop-color:#0B6ACF"/>
			<stop  offset="1" style="stop-color:#0966C8"/>
		</linearGradient>
		<polygon fill="url(#SVGID_17_)" points="1260.775,1274.417 2072.229,889.7 1944.75,816.509 		"/>
		
			<linearGradient id="SVGID_18_" gradientUnits="userSpaceOnUse" x1="7388.6768" y1="5758.1504" x2="7390.8013" y2="5756.0259" gradientTransform="matrix(277 0 0 -239 -2045464.25 1376642.375)">
			<stop  offset="0" style="stop-color:#0861C0"/>
			<stop  offset="1" style="stop-color:#0860BD"/>
		</linearGradient>
		<polygon fill="url(#SVGID_18_)" points="1944.75,816.509 1429.93,367.985 1265.678,777.099 		"/>
		
			<linearGradient id="SVGID_19_" gradientUnits="userSpaceOnUse" x1="7394.0293" y1="5758.6094" x2="7396.2368" y2="5756.4019" gradientTransform="matrix(383 0 0 -236 -2831651.25 1359483.375)">
			<stop  offset="0" style="stop-color:#0958AE"/>
			<stop  offset="1" style="stop-color:#085CB5"/>
		</linearGradient>
		<polygon fill="url(#SVGID_19_)" points="566.995,471.202 263.006,619.459 1201.939,914.096 		"/>
		
			<linearGradient id="SVGID_20_" gradientUnits="userSpaceOnUse" x1="7388.4297" y1="5758.8145" x2="7390.5801" y2="5756.6641" gradientTransform="matrix(285 0 0 -236 -2105053.25 1359483.375)">
			<stop  offset="0" style="stop-color:#085AB1"/>
			<stop  offset="1" style="stop-color:#0862C0"/>
		</linearGradient>
		<polygon fill="url(#SVGID_20_)" points="1265.678,777.099 566.995,471.202 1201.939,914.096 		"/>
		
			<linearGradient id="SVGID_21_" gradientUnits="userSpaceOnUse" x1="7362.5464" y1="5752.3135" x2="7364.7397" y2="5750.1201" gradientTransform="matrix(136 0 0 -324 -1000369.375 1864663.25)">
			<stop  offset="0" style="stop-color:#518ED1"/>
			<stop  offset="1" style="stop-color:#096ACC"/>
		</linearGradient>
		<polygon fill="url(#SVGID_21_)" points="1201.939,914.096 927.368,1522.138 1260.775,1274.417 		"/>
		
			<linearGradient id="SVGID_22_" gradientUnits="userSpaceOnUse" x1="7390.9985" y1="5757.4365" x2="7393.3672" y2="5755.0679" gradientTransform="matrix(303 0 0 -244 -2238228.25 1405571.375)">
			<stop  offset="0" style="stop-color:#0A6BCF"/>
			<stop  offset="1" style="stop-color:#0866C6"/>
		</linearGradient>
		<polygon fill="url(#SVGID_22_)" points="1201.939,914.096 1260.775,1274.417 1944.75,816.509 		"/>
		
			<linearGradient id="SVGID_23_" gradientUnits="userSpaceOnUse" x1="7390.8735" y1="5802.4033" x2="7393.1875" y2="5800.0894" gradientTransform="matrix(303 0 0 -73 -2238228.25 424352.5)">
			<stop  offset="0" style="stop-color:#0864C4"/>
			<stop  offset="1" style="stop-color:#0865C5"/>
		</linearGradient>
		<polygon fill="url(#SVGID_23_)" points="1265.678,777.099 1201.939,914.096 1944.75,816.509 		"/>
		
			<linearGradient id="SVGID_24_" gradientUnits="userSpaceOnUse" x1="7396.2119" y1="5749.1953" x2="7398.4927" y2="5746.9146" gradientTransform="matrix(438 0 0 -425 -3239421.5 2444044.5)">
			<stop  offset="0" style="stop-color:#1868BA"/>
			<stop  offset="1" style="stop-color:#085EB9"/>
		</linearGradient>
		<polygon fill="url(#SVGID_24_)" points="263.006,619.459 128.173,1417.044 1201.939,914.096 		"/>
		
			<linearGradient id="SVGID_25_" gradientUnits="userSpaceOnUse" x1="7396.2632" y1="5752.7305" x2="7398.6064" y2="5750.3872" gradientTransform="matrix(438 0 0 -324 -3239421.5 1864663.25)">
			<stop  offset="0" style="stop-color:#4C88C6"/>
			<stop  offset="1" style="stop-color:#5B92D1"/>
		</linearGradient>
		<polygon fill="url(#SVGID_25_)" points="128.173,1417.044 927.368,1522.138 1201.939,914.096 		"/>
		
			<linearGradient id="SVGID_26_" gradientUnits="userSpaceOnUse" x1="7382.2314" y1="5759.0049" x2="7384.3955" y2="5756.8408" gradientTransform="matrix(210 0 0 -239 -1548726.375 1376642.375)">
			<stop  offset="0" style="stop-color:#095CB7"/>
			<stop  offset="1" style="stop-color:#0860BE"/>
		</linearGradient>
		<polygon fill="url(#SVGID_26_)" points="1944.75,443.052 1429.93,367.985 1944.75,816.509 		"/>
		
			<linearGradient id="SVGID_27_" gradientUnits="userSpaceOnUse" x1="7385.6973" y1="5768.7422" x2="7388.0239" y2="5766.4155" gradientTransform="matrix(240 0 0 -165 -1771116.375 951905.375)">
			<stop  offset="0" style="stop-color:#0958B0"/>
			<stop  offset="1" style="stop-color:#0856AD"/>
		</linearGradient>
		<polygon fill="url(#SVGID_27_)" points="2018.295,133.401 1429.93,367.985 1944.75,443.052 		"/>
		
			<linearGradient id="SVGID_28_" gradientUnits="userSpaceOnUse" x1="7292.1968" y1="5758.1611" x2="7294.3608" y2="5755.9971" gradientTransform="matrix(52 0 0 -238 -377262.375 1370944.375)">
			<stop  offset="0" style="stop-color:#0864C4"/>
			<stop  offset="1" style="stop-color:#0862C1"/>
		</linearGradient>
		<polygon fill="url(#SVGID_28_)" points="2072.229,889.7 1944.75,443.052 1944.75,816.509 		"/>
		
			<linearGradient id="SVGID_29_" gradientUnits="userSpaceOnUse" x1="7401.2412" y1="5758.2373" x2="7403.4375" y2="5756.041" gradientTransform="matrix(541 0 0 -238 -4002219.5 1370944.375)">
			<stop  offset="0" style="stop-color:#0964C6"/>
			<stop  offset="1" style="stop-color:#085FBD"/>
		</linearGradient>
		<polygon fill="url(#SVGID_29_)" points="2072.229,889.7 3271.023,799.62 1944.75,443.052 		"/>
		
			<linearGradient id="SVGID_30_" gradientUnits="userSpaceOnUse" x1="7369.5415" y1="5753.1855" x2="7371.6558" y2="5751.0713" gradientTransform="matrix(169 0 0 -347 -1245388.375 1996133.25)">
			<stop  offset="0" style="stop-color:#084C9A"/>
			<stop  offset="1" style="stop-color:#063C7F"/>
		</linearGradient>
		<polygon fill="url(#SVGID_30_)" points="383.745,0.197 265.543,0.197 107.748,0.197 0,0.197 0,2.735 0,32.373 263.006,619.459 		
			"/>
		
			<linearGradient id="SVGID_31_" gradientUnits="userSpaceOnUse" x1="7350.2832" y1="5750.9746" x2="7352.4624" y2="5748.7954" gradientTransform="matrix(119 0 0 -385 -874738.4375 2214177.25)">
			<stop  offset="0" style="stop-color:#074E9F"/>
			<stop  offset="1" style="stop-color:#074690"/>
		</linearGradient>
		<polygon fill="url(#SVGID_31_)" points="0,32.373 0,68.008 0,480.791 0,689.011 263.006,619.459 		"/>
		
			<linearGradient id="SVGID_32_" gradientUnits="userSpaceOnUse" x1="7394.6543" y1="5765.4473" x2="7396.688" y2="5763.4136" gradientTransform="matrix(386 0 0 -187 -2853840.25 1078055.375)">
			<stop  offset="0" style="stop-color:#06418A"/>
			<stop  offset="1" style="stop-color:#074897"/>
		</linearGradient>
		<polygon fill="url(#SVGID_32_)" points="1282.834,0.197 1212.012,0.197 683.25,0.197 668.826,0.197 631.492,0.197 395.111,0.197 
			721.441,322.945 		"/>
		
			<linearGradient id="SVGID_33_" gradientUnits="userSpaceOnUse" x1="7388.7109" y1="5762.3242" x2="7391.0518" y2="5759.9834" gradientTransform="matrix(289 0 0 -211 -2134642.25 1215767.375)">
			<stop  offset="0" style="stop-color:#074FA3"/>
			<stop  offset="1" style="stop-color:#074FA3"/>
		</linearGradient>
		<polygon fill="url(#SVGID_33_)" points="1429.93,367.985 1338.851,0.197 1282.834,0.197 721.441,322.945 		"/>
		
			<linearGradient id="SVGID_34_" gradientUnits="userSpaceOnUse" x1="7389.355" y1="5762.1035" x2="7391.6401" y2="5759.8184" gradientTransform="matrix(280 0 0 -211 -2067676.25 1215767.375)">
			<stop  offset="0" style="stop-color:#0754AB"/>
			<stop  offset="1" style="stop-color:#064B9E"/>
		</linearGradient>
		<polygon fill="url(#SVGID_34_)" points="2018.295,133.401 1451.766,0.197 1359.988,0.197 1338.851,0.197 1429.93,367.985 		"/>
		
			<linearGradient id="SVGID_35_" gradientUnits="userSpaceOnUse" x1="7399.9844" y1="5749.8428" x2="7402.0781" y2="5747.749" gradientTransform="matrix(439 0 0 -442 -3245818.5 2541244.5)">
			<stop  offset="0" style="stop-color:#0858AE"/>
			<stop  offset="1" style="stop-color:#084B97"/>
		</linearGradient>
		<polygon fill="url(#SVGID_35_)" points="3695.136,255.384 2732.355,0.197 2701.929,0.197 2688.894,0.197 2642.555,0.197 
			3271.023,799.62 		"/>
		
			<linearGradient id="SVGID_36_" gradientUnits="userSpaceOnUse" x1="7400.6997" y1="5796.7051" x2="7402.7778" y2="5794.627" gradientTransform="matrix(525 0 0 -87 -3883861.5 504254.5)">
			<stop  offset="0" style="stop-color:#074696"/>
			<stop  offset="1" style="stop-color:#074A9B"/>
		</linearGradient>
		<polygon fill="url(#SVGID_36_)" points="2508.311,0.197 2166.95,0.197 2141.384,0.197 1794.432,0.197 1705.534,0.197 
			1661.584,0.197 1628.896,0.197 1573.277,0.197 1451.766,0.197 2018.295,133.401 		"/>
		
			<linearGradient id="SVGID_37_" gradientUnits="userSpaceOnUse" x1="7401.4302" y1="5749.5479" x2="7403.6143" y2="5747.3638" gradientTransform="matrix(541 0 0 -442 -4002219.5 2541244.5)">
			<stop  offset="0" style="stop-color:#0959B5"/>
			<stop  offset="1" style="stop-color:#0954AC"/>
		</linearGradient>
		<polygon fill="url(#SVGID_37_)" points="3271.023,799.62 2642.555,0.197 2626.617,0.197 2576.056,0.197 1944.75,443.052 		"/>
		
			<linearGradient id="SVGID_38_" gradientUnits="userSpaceOnUse" x1="7390.0957" y1="5758.4082" x2="7392.9111" y2="5755.5928" gradientTransform="matrix(275 0 0 -252 -2030361.25 1451024.25)">
			<stop  offset="0" style="stop-color:#0756AF"/>
			<stop  offset="1" style="stop-color:#074D9F"/>
		</linearGradient>
		<polygon fill="url(#SVGID_38_)" points="1944.75,443.052 2576.056,0.197 2571.588,0.197 2541.869,0.197 2508.311,0.197 
			2018.295,133.401 		"/>
		
			<linearGradient id="SVGID_39_" gradientUnits="userSpaceOnUse" x1="7402.1123" y1="5771.3154" x2="7404.2563" y2="5769.1714" gradientTransform="matrix(514 0 0 -155 -3801793.5 894435.375)">
			<stop  offset="0" style="stop-color:#084690"/>
			<stop  offset="1" style="stop-color:#074185"/>
		</linearGradient>
		<polygon fill="url(#SVGID_39_)" points="3765.43,0.197 2878.779,0.197 2839.029,0.197 2732.355,0.197 3695.136,255.384 3840,26.2 
			3840,14.261 3840,0.197 3768.443,0.197 		"/>
		
			<linearGradient id="SVGID_40_" gradientUnits="userSpaceOnUse" x1="7398.2407" y1="5756.6787" x2="7400.5376" y2="5754.3818" gradientTransform="matrix(384 0 0 -251 -2837976.25 1445728.25)">
			<stop  offset="0" style="stop-color:#126DCD"/>
			<stop  offset="1" style="stop-color:#085FBD"/>
		</linearGradient>
		<polygon fill="url(#SVGID_40_)" points="2930.261,1270.664 3840,922.456 3840,904.51 3271.023,799.62 		"/>
		
			<linearGradient id="SVGID_41_" gradientUnits="userSpaceOnUse" x1="7390.6846" y1="5752.1875" x2="7392.8247" y2="5750.0474" gradientTransform="matrix(245 0 0 -349 -1807430.375 2007762.25)">
			<stop  offset="0" style="stop-color:#095BB3"/>
			<stop  offset="1" style="stop-color:#0953A6"/>
		</linearGradient>
		<polygon fill="url(#SVGID_41_)" points="3271.023,799.62 3840,904.51 3840,792.919 3695.136,255.384 		"/>
		
			<linearGradient id="SVGID_42_" gradientUnits="userSpaceOnUse" x1="7343.4917" y1="5748.4404" x2="7345.7021" y2="5746.23" gradientTransform="matrix(75 0 0 -504 -547047.5 2896997.5)">
			<stop  offset="0" style="stop-color:#084994"/>
			<stop  offset="1" style="stop-color:#064994"/>
		</linearGradient>
		<polygon fill="url(#SVGID_42_)" points="3840,792.919 3840,624.598 3840,576.445 3840,522.098 3840,468.934 3840,412.654 
			3840,406.59 3840,401.922 3840,26.2 3695.136,255.384 		"/>
		
			<linearGradient id="SVGID_43_" gradientUnits="userSpaceOnUse" x1="7400.9453" y1="5756.7617" x2="7403.0767" y2="5754.6304" gradientTransform="matrix(485 0 0 -237 -3586788.5 1365647.375)">
			<stop  offset="0" style="stop-color:#678DBC"/>
			<stop  offset="1" style="stop-color:#6498D3"/>
		</linearGradient>
		<polygon fill="url(#SVGID_43_)" points="2687.56,1471.468 3840,1707.937 3840,1698.257 2930.261,1270.664 		"/>
		
			<linearGradient id="SVGID_44_" gradientUnits="userSpaceOnUse" x1="7401.3691" y1="5749.5244" x2="7403.4761" y2="5747.4175" gradientTransform="matrix(485 0 0 -393 -3586788.5 2260882.25)">
			<stop  offset="0" style="stop-color:#B2C5E5"/>
			<stop  offset="1" style="stop-color:#D5E1FB"/>
		</linearGradient>
		<polygon fill="url(#SVGID_44_)" points="3429.082,2160 3435.02,2160 3521.038,2160 3840,1761.139 3840,1707.937 2687.56,1471.468 
					"/>
		
			<linearGradient id="SVGID_45_" gradientUnits="userSpaceOnUse" x1="7398.5586" y1="5749.2686" x2="7400.8057" y2="5747.0215" gradientTransform="matrix(386 0 0 -429 -2852802.25 2467151.5)">
			<stop  offset="0" style="stop-color:#4F8FDB"/>
			<stop  offset="1" style="stop-color:#729FD9"/>
		</linearGradient>
		<polygon fill="url(#SVGID_45_)" points="3840,1698.257 3840,1334.033 3840,1295.978 3840,1273.804 3840,1262.623 3840,1036.157 
			3840,922.456 2930.261,1270.664 		"/>
		
			<linearGradient id="SVGID_46_" gradientUnits="userSpaceOnUse" x1="7379.5708" y1="5754.6553" x2="7382.0361" y2="5752.1899" gradientTransform="matrix(161 0 0 -263 -1184652.375 1515072.25)">
			<stop  offset="0" style="stop-color:#D5E1FC"/>
			<stop  offset="1" style="stop-color:#CDDBF9"/>
		</linearGradient>
		<polygon fill="url(#SVGID_46_)" points="3725.12,2160 3830.779,2160 3840,2160 3840,2132.221 3840,1761.139 3521.038,2160 		"/>
		
			<linearGradient id="SVGID_47_" gradientUnits="userSpaceOnUse" x1="7397.647" y1="5768.7139" x2="7399.7993" y2="5766.5615" gradientTransform="matrix(392 0 0 -134 -2897447.25 774999.375)">
			<stop  offset="0" style="stop-color:#EAF5FD"/>
			<stop  offset="1" style="stop-color:#E3EEFD"/>
		</linearGradient>
		<polygon fill="url(#SVGID_47_)" points="2534.738,2160 2542.719,2160 2687.251,2160 3247.879,2160 3309.41,2160 
			2596.854,1957.526 		"/>
		
			<linearGradient id="SVGID_48_" gradientUnits="userSpaceOnUse" x1="7399.2456" y1="5770.0254" x2="7401.6748" y2="5767.5962" gradientTransform="matrix(476 0 0 -132 -3520584.5 763523.375)">
			<stop  offset="0" style="stop-color:#E9F3FD"/>
			<stop  offset="1" style="stop-color:#E9F4FD"/>
		</linearGradient>
		<polygon fill="url(#SVGID_48_)" points="1605.521,2160 1639.967,2160 1793.816,2160 1951.301,2160 2534.738,2160 
			2596.854,1957.526 		"/>
		
			<linearGradient id="SVGID_49_" gradientUnits="userSpaceOnUse" x1="7389.9331" y1="5749.6045" x2="7392.104" y2="5747.4336" gradientTransform="matrix(286 0 0 -389 -2112170.25 2237927.25)">
			<stop  offset="0" style="stop-color:#EFF9FD"/>
			<stop  offset="1" style="stop-color:#D1E3F5"/>
		</linearGradient>
		<polygon fill="url(#SVGID_49_)" points="1292.645,1824.282 1416.68,2160 1457.63,2160 1993.78,1465.838 		"/>
		
			<linearGradient id="SVGID_50_" gradientUnits="userSpaceOnUse" x1="7399.1348" y1="5749.0449" x2="7401.2612" y2="5746.9185" gradientTransform="matrix(476 0 0 -389 -3520584.5 2237927.25)">
			<stop  offset="0" style="stop-color:#C6DCF0"/>
			<stop  offset="1" style="stop-color:#EAF6FC"/>
		</linearGradient>
		<polygon fill="url(#SVGID_50_)" points="1993.78,1465.838 1457.63,2160 1579.171,2160 1605.521,2160 2596.854,1957.526 		"/>
		
			<linearGradient id="SVGID_51_" gradientUnits="userSpaceOnUse" x1="7386.979" y1="5750.4756" x2="7389.0903" y2="5748.3643" gradientTransform="matrix(275 0 0 -363 -2031051.25 2088769.25)">
			<stop  offset="0" style="stop-color:#DDEBFD"/>
			<stop  offset="1" style="stop-color:#C7D7F0"/>
		</linearGradient>
		<polygon fill="url(#SVGID_51_)" points="253.2,1715.436 556.972,2160 594.848,2160 608.301,2160 927.368,1522.138 		"/>
		
			<linearGradient id="SVGID_52_" gradientUnits="userSpaceOnUse" x1="7388.4888" y1="5749.9121" x2="7390.6748" y2="5747.7261" gradientTransform="matrix(288 0 0 -363 -2127284.25 2088769.25)">
			<stop  offset="0" style="stop-color:#C3D4E9"/>
			<stop  offset="1" style="stop-color:#E6F2FC"/>
		</linearGradient>
		<polygon fill="url(#SVGID_52_)" points="927.368,1522.138 608.301,2160 667.382,2160 1292.645,1824.282 		"/>
		
			<linearGradient id="SVGID_53_" gradientUnits="userSpaceOnUse" x1="7392.6494" y1="5758.9541" x2="7394.7617" y2="5756.8418" gradientTransform="matrix(344 0 0 -202 -2542412.25 1165112.375)">
			<stop  offset="0" style="stop-color:#EAF5FD"/>
			<stop  offset="1" style="stop-color:#E1EEFC"/>
		</linearGradient>
		<polygon fill="url(#SVGID_53_)" points="667.382,2160 718.219,2160 1416.68,2160 1292.645,1824.282 		"/>
		
			<linearGradient id="SVGID_54_" gradientUnits="userSpaceOnUse" x1="7382.9854" y1="5754.1855" x2="7385.0654" y2="5752.1055" gradientTransform="matrix(248 0 0 -260 -1831012.375 1497858.25)">
			<stop  offset="0" style="stop-color:#D1E0FA"/>
			<stop  offset="1" style="stop-color:#CBDBF9"/>
		</linearGradient>
		<polygon fill="url(#SVGID_54_)" points="2.069,2160 32.015,2160 83.598,2160 367.405,2160 556.972,2160 253.2,1715.436 		"/>
		
			<linearGradient id="SVGID_55_" gradientUnits="userSpaceOnUse" x1="7298.4692" y1="5748.001" x2="7300.6367" y2="5745.8335" gradientTransform="matrix(65 0 0 -468 -474437.4063 2690816.5)">
			<stop  offset="0" style="stop-color:#487FC3"/>
			<stop  offset="1" style="stop-color:#4482C9"/>
		</linearGradient>
		<polygon fill="url(#SVGID_55_)" points="0,726.652 0,741.345 0,930.647 0,945.469 0,1140.314 0,1155.13 0,1168.938 0,1195.049 
			0,1539.314 128.173,1417.044 		"/>
		
			<linearGradient id="SVGID_56_" gradientUnits="userSpaceOnUse" x1="7348.9209" y1="5765.9316" x2="7351.1831" y2="5763.6694" gradientTransform="matrix(116 0 0 -159 -852500.4375 918161.375)">
			<stop  offset="0" style="stop-color:#5282B6"/>
			<stop  offset="1" style="stop-color:#7BA4D3"/>
		</linearGradient>
		<polygon fill="url(#SVGID_56_)" points="128.173,1417.044 0,1539.314 0,1585.103 253.2,1715.436 		"/>
		
			<linearGradient id="SVGID_57_" gradientUnits="userSpaceOnUse" x1="7349.0054" y1="5750.9854" x2="7351.3486" y2="5748.6421" gradientTransform="matrix(116 0 0 -337 -852500.4375 1939606.25)">
			<stop  offset="0" style="stop-color:#C6D7F9"/>
			<stop  offset="1" style="stop-color:#96BBE9"/>
		</linearGradient>
		<polygon fill="url(#SVGID_57_)" points="0,1585.103 0,2029.203 0,2160 2.069,2160 253.2,1715.436 		"/>
	</g>
</g>
<g id="Layer_6">
</g>
<g id="Layer_7">
</g>
<g id="Layer_8">
</g>
<g id="Layer_9">
</g>
<g id="Layer_10">
</g>
<g id="Layer_11">
</g>
<g id="Layer_12">
</g>
<g id="Layer_13">
</g>
<g id="Layer_14">
</g>
<g id="Layer_15">
</g>
<g id="Layer_16">
</g>
<g id="Layer_17">
</g>
<g id="Layer_18">
</g>
<g id="Layer_19">
</g>
<g id="Layer_20">
</g>
<g id="Layer_21">
</g>
<g id="Layer_22">
</g>
<g id="Layer_23">
</g>
<g id="Layer_24">
</g>
<g id="Layer_25">
</g>
</svg>
