<?xml version="1.0" encoding="utf-8"?>
<!-- Generator: Adobe Illustrator 16.0.0, SVG Export Plug-In . SVG Version: 6.00 Build 0)  -->
<!DOCTYPE svg PUBLIC "-//W3C//DTD SVG 1.1//EN" "http://www.w3.org/Graphics/SVG/1.1/DTD/svg11.dtd">
<svg version="1.1" xmlns="http://www.w3.org/2000/svg" xmlns:xlink="http://www.w3.org/1999/xlink" x="0px" y="0px" width="3840px"
	 height="2160px" viewBox="0 0 3840 2160" enable-background="new 0 0 3840 2160" xml:space="preserve">
<g id="Layer_1">
</g>
<g id="Layer_2">
</g>
<g id="Layer_3">
</g>
<g id="Layer_4">
	<g>
		
			<linearGradient id="SVGID_1_" gradientUnits="userSpaceOnUse" x1="-4153.1187" y1="7931.9775" x2="-4151.0586" y2="7929.9175" gradientTransform="matrix(330 0 0 -460 1371498.75 3650084.5)">
			<stop  offset="0" style="stop-color:#4E5967"/>
			<stop  offset="1" style="stop-color:#797E54"/>
		</linearGradient>
		<polygon fill="url(#SVGID_1_)" points="1114.779,2130.214 1788.229,1963.659 1157.637,1172.523 		"/>
		
			<linearGradient id="SVGID_2_" gradientUnits="userSpaceOnUse" x1="-4152.6802" y1="7936.0605" x2="-4150.624" y2="7934.0044" gradientTransform="matrix(383 0 0 -366 1593163.75 2905735.25)">
			<stop  offset="0" style="stop-color:#4A3B0A"/>
			<stop  offset="1" style="stop-color:#1B1E04"/>
		</linearGradient>
		<polygon fill="url(#SVGID_2_)" points="2775.953,1815.842 3557.561,1374.471 3000.436,1053.853 		"/>
		
			<linearGradient id="SVGID_3_" gradientUnits="userSpaceOnUse" x1="-4145.9409" y1="7970.5049" x2="-4143.8843" y2="7968.4482" gradientTransform="matrix(273 0 0 -129 1134903.75 1029121.375)">
			<stop  offset="0" style="stop-color:#6D725C"/>
			<stop  offset="1" style="stop-color:#1E1D08"/>
		</linearGradient>
		<polygon fill="url(#SVGID_3_)" points="3557.561,1222.49 3453.482,953.92 3000.436,1053.853 		"/>
		
			<linearGradient id="SVGID_4_" gradientUnits="userSpaceOnUse" x1="-4145.9395" y1="7961.6914" x2="-4143.8779" y2="7959.6299" gradientTransform="matrix(273 0 0 -154 1134903.75 1227119.375)">
			<stop  offset="0" style="stop-color:#666937"/>
			<stop  offset="1" style="stop-color:#4E4F27"/>
		</linearGradient>
		<polygon fill="url(#SVGID_4_)" points="3557.561,1374.471 3557.561,1222.49 3000.436,1053.853 		"/>
		
			<linearGradient id="SVGID_5_" gradientUnits="userSpaceOnUse" x1="-4141.5415" y1="7939.2256" x2="-4139.4697" y2="7937.1538" gradientTransform="matrix(222 0 0 -330 922386.625 2620357.25)">
			<stop  offset="0" style="stop-color:#403F17"/>
			<stop  offset="1" style="stop-color:#656C49"/>
		</linearGradient>
		<polygon fill="url(#SVGID_5_)" points="3453.482,953.92 3328.996,366.814 3000.436,1053.853 		"/>
		
			<linearGradient id="SVGID_6_" gradientUnits="userSpaceOnUse" x1="-4155.582" y1="7957.1914" x2="-4153.5073" y2="7955.1167" gradientTransform="matrix(413 0 0 -182 1717313.75 1448432.375)">
			<stop  offset="0" style="stop-color:#D8B510"/>
			<stop  offset="1" style="stop-color:#87730E"/>
		</linearGradient>
		<polygon fill="url(#SVGID_6_)" points="1863.736,239.816 1020.906,264.799 1188.249,618.728 		"/>
		
			<linearGradient id="SVGID_7_" gradientUnits="userSpaceOnUse" x1="-4154.0469" y1="7941.6953" x2="-4151.9946" y2="7939.6431" gradientTransform="matrix(372 0 0 -302 1546548.75 2398592.25)">
			<stop  offset="0" style="stop-color:#664111"/>
			<stop  offset="1" style="stop-color:#6F5A0D"/>
		</linearGradient>
		<polygon fill="url(#SVGID_7_)" points="1947.406,868.561 1863.736,239.816 1188.249,618.728 		"/>
		
			<linearGradient id="SVGID_8_" gradientUnits="userSpaceOnUse" x1="-4152.4341" y1="7941.4941" x2="-4150.3857" y2="7939.4458" gradientTransform="matrix(349 0 0 -302 1451038.75 2398592.25)">
			<stop  offset="0" style="stop-color:#A5961D"/>
			<stop  offset="1" style="stop-color:#616212"/>
		</linearGradient>
		<polygon fill="url(#SVGID_8_)" points="2575.96,383.469 1863.736,239.816 1947.406,868.561 		"/>
		
			<linearGradient id="SVGID_9_" gradientUnits="userSpaceOnUse" x1="-4153.688" y1="7934.4736" x2="-4151.645" y2="7932.4307" gradientTransform="matrix(330 0 0 -403 1371189.75 3198739.5)">
			<stop  offset="0" style="stop-color:#967121"/>
			<stop  offset="1" style="stop-color:#716E33"/>
		</linearGradient>
		<polygon fill="url(#SVGID_9_)" points="653.57,1132.967 484.188,1971.987 1157.637,1172.523 		"/>
		
			<linearGradient id="SVGID_10_" gradientUnits="userSpaceOnUse" x1="-4153.5615" y1="7932.4795" x2="-4151.5146" y2="7930.4326" gradientTransform="matrix(330 0 0 -460 1371189.75 3650084.5)">
			<stop  offset="0" style="stop-color:#5F4B3E"/>
			<stop  offset="1" style="stop-color:#7B6F35"/>
		</linearGradient>
		<polygon fill="url(#SVGID_10_)" points="484.188,1971.987 1114.779,2130.214 1157.637,1172.523 		"/>
		
			<linearGradient id="SVGID_11_" gradientUnits="userSpaceOnUse" x1="-4150.9658" y1="7932.5732" x2="-4148.8984" y2="7930.5059" gradientTransform="matrix(321 0 0 -456 1334488.75 3618283.5)">
			<stop  offset="0" style="stop-color:#7F5938"/>
			<stop  offset="1" style="stop-color:#A07717"/>
		</linearGradient>
		<polygon fill="url(#SVGID_11_)" points="2120.871,1853.316 2775.953,1815.842 2426.984,903.954 		"/>
		
			<linearGradient id="SVGID_12_" gradientUnits="userSpaceOnUse" x1="-4148.0742" y1="7939.5996" x2="-4146.0098" y2="7937.5352" gradientTransform="matrix(281 0 0 -322 1167958.75 2557021.25)">
			<stop  offset="0" style="stop-color:#6C690B"/>
			<stop  offset="1" style="stop-color:#77750F"/>
		</linearGradient>
		<polygon fill="url(#SVGID_12_)" points="3000.436,1053.853 2575.96,383.469 2426.984,903.954 		"/>
		
			<linearGradient id="SVGID_13_" gradientUnits="userSpaceOnUse" x1="-4147.585" y1="7933.6748" x2="-4145.5186" y2="7931.6084" gradientTransform="matrix(281 0 0 -438 1167958.75 3475759.5)">
			<stop  offset="0" style="stop-color:#331C07"/>
			<stop  offset="1" style="stop-color:#504E0C"/>
		</linearGradient>
		<polygon fill="url(#SVGID_13_)" points="2426.984,903.954 2775.953,1815.842 3000.436,1053.853 		"/>
		
			<linearGradient id="SVGID_14_" gradientUnits="userSpaceOnUse" x1="-4150.2339" y1="7946.1758" x2="-4148.1895" y2="7944.1313" gradientTransform="matrix(308 0 0 -250 1280232.75 1986925.25)">
			<stop  offset="0" style="stop-color:#876C0F"/>
			<stop  offset="1" style="stop-color:#807712"/>
		</linearGradient>
		<polygon fill="url(#SVGID_14_)" points="2426.984,903.954 2575.96,383.469 1947.406,868.561 		"/>
		
			<linearGradient id="SVGID_15_" gradientUnits="userSpaceOnUse" x1="-4146.5166" y1="7933.0479" x2="-4144.4473" y2="7930.9785" gradientTransform="matrix(253 0 0 -456 1051029.625 3618283.5)">
			<stop  offset="0" style="stop-color:#675333"/>
			<stop  offset="1" style="stop-color:#AC9B1C"/>
		</linearGradient>
		<polygon fill="url(#SVGID_15_)" points="1910.674,985.149 2120.871,1853.316 2426.984,903.954 		"/>
		
			<linearGradient id="SVGID_16_" gradientUnits="userSpaceOnUse" x1="-4154.4893" y1="7943.6592" x2="-4152.4316" y2="7941.6016" gradientTransform="matrix(369 0 0 -266 1534032.75 2113726.25)">
			<stop  offset="0" style="stop-color:#A09019"/>
			<stop  offset="1" style="stop-color:#957817"/>
		</linearGradient>
		<polygon fill="url(#SVGID_16_)" points="1157.637,1172.523 1910.674,985.149 1188.249,618.728 		"/>
		
			<linearGradient id="SVGID_17_" gradientUnits="userSpaceOnUse" x1="-4153.7202" y1="7932.7266" x2="-4151.6592" y2="7930.6655" gradientTransform="matrix(369 0 0 -470 1534032.75 3729174.5)">
			<stop  offset="0" style="stop-color:#B8AC1D"/>
			<stop  offset="1" style="stop-color:#9F9439"/>
		</linearGradient>
		<polygon fill="url(#SVGID_17_)" points="1157.637,1172.523 1788.229,1963.659 1910.674,985.149 		"/>
		
			<linearGradient id="SVGID_18_" gradientUnits="userSpaceOnUse" x1="-4154.0742" y1="7957.4375" x2="-4152.0122" y2="7955.3755" gradientTransform="matrix(372 0 0 -176 1546548.75 1401106.375)">
			<stop  offset="0" style="stop-color:#784D0F"/>
			<stop  offset="1" style="stop-color:#A68A18"/>
		</linearGradient>
		<polygon fill="url(#SVGID_18_)" points="1188.249,618.728 1910.674,985.149 1947.406,868.561 		"/>
		
			<linearGradient id="SVGID_19_" gradientUnits="userSpaceOnUse" x1="-4136.2349" y1="7931.9912" x2="-4134.1699" y2="7929.9263" gradientTransform="matrix(163 0 0 -470 675939.625 3729174.5)">
			<stop  offset="0" style="stop-color:#696352"/>
			<stop  offset="1" style="stop-color:#7F773C"/>
		</linearGradient>
		<polygon fill="url(#SVGID_19_)" points="1788.229,1963.659 2120.871,1853.316 1910.674,985.149 		"/>
		
			<linearGradient id="SVGID_20_" gradientUnits="userSpaceOnUse" x1="-4146.8833" y1="8039.0791" x2="-4144.8325" y2="8037.0283" gradientTransform="matrix(253 0 0 -56 1051029.625 451066.375)">
			<stop  offset="0" style="stop-color:#A57F0E"/>
			<stop  offset="1" style="stop-color:#B1A11B"/>
		</linearGradient>
		<polygon fill="url(#SVGID_20_)" points="1910.674,985.149 2426.984,903.954 1947.406,868.561 		"/>
		
			<linearGradient id="SVGID_21_" gradientUnits="userSpaceOnUse" x1="-4135.6953" y1="7990.3477" x2="-4133.6426" y2="7988.2949" gradientTransform="matrix(163 0 0 -87 675939.625 696997.5)">
			<stop  offset="0" style="stop-color:#525C65"/>
			<stop  offset="1" style="stop-color:#4F5A5E"/>
		</linearGradient>
		<polygon fill="url(#SVGID_21_)" points="2106.586,2034.445 2120.871,1853.316 1788.229,1963.659 		"/>
		
			<linearGradient id="SVGID_22_" gradientUnits="userSpaceOnUse" x1="-4154.2998" y1="7941.9385" x2="-4152.2324" y2="7939.8711" gradientTransform="matrix(347 0 0 -300 1441944.75 2382768.25)">
			<stop  offset="0" style="stop-color:#655107"/>
			<stop  offset="1" style="stop-color:#A17910"/>
		</linearGradient>
		<polygon fill="url(#SVGID_22_)" points="312.764,296.028 686.223,889.38 1020.906,264.799 		"/>
		
			<linearGradient id="SVGID_23_" gradientUnits="userSpaceOnUse" x1="-4149.2329" y1="7967.4316" x2="-4147.1709" y2="7965.3696" gradientTransform="matrix(247 0 0 -136 1025411.625 1084516.375)">
			<stop  offset="0" style="stop-color:#D38C21"/>
			<stop  offset="1" style="stop-color:#BD941A"/>
		</linearGradient>
		<polygon fill="url(#SVGID_23_)" points="686.223,889.38 653.57,1132.967 1157.637,1172.523 		"/>
		
			<linearGradient id="SVGID_24_" gradientUnits="userSpaceOnUse" x1="-4148.8662" y1="7941.5068" x2="-4146.7993" y2="7939.4399" gradientTransform="matrix(246 0 0 -300 1021260.625 2382768.25)">
			<stop  offset="0" style="stop-color:#BE9010"/>
			<stop  offset="1" style="stop-color:#9F7815"/>
		</linearGradient>
		<polygon fill="url(#SVGID_24_)" points="1020.906,264.799 686.223,889.38 1188.249,618.728 		"/>
		
			<linearGradient id="SVGID_25_" gradientUnits="userSpaceOnUse" x1="-4148.4146" y1="7944.2617" x2="-4146.3594" y2="7942.2065" gradientTransform="matrix(246 0 0 -266 1021260.625 2113726.25)">
			<stop  offset="0" style="stop-color:#6F7219"/>
			<stop  offset="1" style="stop-color:#725A12"/>
		</linearGradient>
		<polygon fill="url(#SVGID_25_)" points="1188.249,618.728 686.223,889.38 1157.637,1172.523 		"/>
		
			<linearGradient id="SVGID_26_" gradientUnits="userSpaceOnUse" x1="-4134.4551" y1="7986.1523" x2="-4132.3452" y2="7984.0425" gradientTransform="matrix(168 0 0 -105 697160.625 838710.4375)">
			<stop  offset="0" style="stop-color:#514909"/>
			<stop  offset="1" style="stop-color:#3D2B07"/>
		</linearGradient>
		<polygon fill="url(#SVGID_26_)" points="2657.59,254.389 2575.96,383.469 2918.805,164.866 		"/>
		
			<linearGradient id="SVGID_27_" gradientUnits="userSpaceOnUse" x1="-4140.4092" y1="7935.04" x2="-4138.3506" y2="7932.9814" gradientTransform="matrix(208 0 0 -427 863840.625 3388306.5)">
			<stop  offset="0" style="stop-color:#444109"/>
			<stop  offset="1" style="stop-color:#2E2307"/>
		</linearGradient>
		<polygon fill="url(#SVGID_27_)" points="2918.805,164.866 2575.96,383.469 3000.436,1053.853 		"/>
		
			<linearGradient id="SVGID_28_" gradientUnits="userSpaceOnUse" x1="-4124.2388" y1="7979.0273" x2="-4122.1763" y2="7976.9648" gradientTransform="matrix(128 0 0 -118 530520.5625 941569.4375)">
			<stop  offset="0" style="stop-color:#433406"/>
			<stop  offset="1" style="stop-color:#563C0B"/>
		</linearGradient>
		<polygon fill="url(#SVGID_28_)" points="2767.789,8.721 2657.59,254.389 2918.805,164.866 		"/>
		
			<linearGradient id="SVGID_29_" gradientUnits="userSpaceOnUse" x1="-4138.936" y1="7934.7314" x2="-4136.8877" y2="7932.6831" gradientTransform="matrix(201 0 0 -427 834839.625 3388306.5)">
			<stop  offset="0" style="stop-color:#312B0B"/>
			<stop  offset="1" style="stop-color:#3C320D"/>
		</linearGradient>
		<polygon fill="url(#SVGID_29_)" points="3000.436,1053.853 3328.996,366.814 2918.805,164.866 		"/>
		
			<linearGradient id="SVGID_30_" gradientUnits="userSpaceOnUse" x1="-4154.812" y1="7963.4189" x2="-4152.7427" y2="7961.3496" gradientTransform="matrix(347 0 0 -159 1441944.75 1266186.375)">
			<stop  offset="0" style="stop-color:#84720D"/>
			<stop  offset="1" style="stop-color:#9A700D"/>
		</linearGradient>
		<polygon fill="url(#SVGID_30_)" points="1020.906,264.799 767.438,-1.17 692.028,-1.17 312.764,296.028 		"/>
		
			<linearGradient id="SVGID_31_" gradientUnits="userSpaceOnUse" x1="-4155.6577" y1="7963.7891" x2="-4153.5884" y2="7961.7197" gradientTransform="matrix(370 0 0 -159 1537622.75 1266186.375)">
			<stop  offset="0" style="stop-color:#89740C"/>
			<stop  offset="1" style="stop-color:#6F5A05"/>
		</linearGradient>
		<polygon fill="url(#SVGID_31_)" points="692.028,-1.17 683.25,-1.17 668.826,-1.17 631.492,-1.17 265.544,-1.17 107.75,-1.17 
			14.115,-1.17 312.764,296.028 		"/>
		
			<linearGradient id="SVGID_32_" gradientUnits="userSpaceOnUse" x1="-4158.2642" y1="7968.4482" x2="-4156.1909" y2="7966.375" gradientTransform="matrix(521 0 0 -144 2167209.5 1147416.375)">
			<stop  offset="0" style="stop-color:#A07D1D"/>
			<stop  offset="1" style="stop-color:#AF911A"/>
		</linearGradient>
		<polygon fill="url(#SVGID_32_)" points="1730.403,-1.17 1705.534,-1.17 1661.586,-1.17 1628.896,-1.17 1573.277,-1.17 
			1359.988,-1.17 1212.012,-1.17 767.438,-1.17 1020.906,264.799 		"/>
		
			<linearGradient id="SVGID_33_" gradientUnits="userSpaceOnUse" x1="-4155.7813" y1="7969.748" x2="-4153.7026" y2="7967.6694" gradientTransform="matrix(413 0 0 -140 1717313.75 1115748.375)">
			<stop  offset="0" style="stop-color:#B0830A"/>
			<stop  offset="1" style="stop-color:#675608"/>
		</linearGradient>
		<polygon fill="url(#SVGID_33_)" points="1863.736,239.816 1804.681,-1.17 1794.432,-1.17 1730.403,-1.17 1020.906,264.799 		"/>
		
			<linearGradient id="SVGID_34_" gradientUnits="userSpaceOnUse" x1="-4099.2412" y1="7954.1768" x2="-4097.1836" y2="7952.1191" gradientTransform="matrix(80 0 0 -200 330424.5 1590825.375)">
			<stop  offset="0" style="stop-color:#484308"/>
			<stop  offset="1" style="stop-color:#3F3E07"/>
		</linearGradient>
		<polygon fill="url(#SVGID_34_)" points="2657.59,254.389 2512.368,-1.17 2500.552,-1.17 2575.96,383.469 		"/>
		
			<linearGradient id="SVGID_35_" gradientUnits="userSpaceOnUse" x1="-4126.2607" y1="7970.8154" x2="-4124.1943" y2="7968.749" gradientTransform="matrix(134 0 0 -138 555442.625 1099909.375)">
			<stop  offset="0" style="stop-color:#5A4209"/>
			<stop  offset="1" style="stop-color:#6D5D0E"/>
		</linearGradient>
		<polygon fill="url(#SVGID_35_)" points="2767.789,8.721 2702.829,-1.17 2701.929,-1.17 2688.895,-1.17 2626.617,-1.17 
			2571.588,-1.17 2541.869,-1.17 2512.368,-1.17 2657.59,254.389 		"/>
		
			<linearGradient id="SVGID_36_" gradientUnits="userSpaceOnUse" x1="-4152.1943" y1="7973.3291" x2="-4150.1162" y2="7971.251" gradientTransform="matrix(341 0 0 -131 1417670.75 1044483.375)">
			<stop  offset="0" style="stop-color:#5F5E0E"/>
			<stop  offset="1" style="stop-color:#4F5A0B"/>
		</linearGradient>
		<polygon fill="url(#SVGID_36_)" points="2420.924,-1.17 2166.95,-1.17 2141.384,-1.17 1804.681,-1.17 1863.736,239.816 		"/>
		
			<linearGradient id="SVGID_37_" gradientUnits="userSpaceOnUse" x1="-4152.2793" y1="7954.3555" x2="-4150.228" y2="7952.3042" gradientTransform="matrix(349 0 0 -200 1451038.75 1590825.375)">
			<stop  offset="0" style="stop-color:#46410A"/>
			<stop  offset="1" style="stop-color:#5D5B0D"/>
		</linearGradient>
		<polygon fill="url(#SVGID_37_)" points="2575.96,383.469 2500.552,-1.17 2420.924,-1.17 1863.736,239.816 		"/>
		
			<linearGradient id="SVGID_38_" gradientUnits="userSpaceOnUse" x1="-4156.3184" y1="8280.377" x2="-4154.2451" y2="8278.3037" gradientTransform="matrix(484 0 0 -20 2013892.5 165585.3594)">
			<stop  offset="0" style="stop-color:#6C6F0F"/>
			<stop  offset="1" style="stop-color:#4B410B"/>
		</linearGradient>
		<polygon fill="url(#SVGID_38_)" points="2956.312,-1.17 2878.779,-1.17 2839.029,-1.17 2702.829,-1.17 2767.789,8.721 		"/>
		
			<linearGradient id="SVGID_39_" gradientUnits="userSpaceOnUse" x1="-4151.1221" y1="7995.9893" x2="-4149.0488" y2="7993.916" gradientTransform="matrix(350 0 0 -93 1455648.75 743601.5)">
			<stop  offset="0" style="stop-color:#43350B"/>
			<stop  offset="1" style="stop-color:#221D05"/>
		</linearGradient>
		<polygon fill="url(#SVGID_39_)" points="2918.805,164.866 3401.811,-1.17 2956.312,-1.17 2767.789,8.721 		"/>
		
			<linearGradient id="SVGID_40_" gradientUnits="userSpaceOnUse" x1="-4146.3271" y1="7956.3936" x2="-4144.2695" y2="7954.3359" gradientTransform="matrix(276 0 0 -190 1147364.75 1511647.375)">
			<stop  offset="0" style="stop-color:#3C2807"/>
			<stop  offset="1" style="stop-color:#202306"/>
		</linearGradient>
		<polygon fill="url(#SVGID_40_)" points="3328.996,366.814 3471.38,-1.17 3401.811,-1.17 2918.805,164.866 		"/>
		
			<linearGradient id="SVGID_41_" gradientUnits="userSpaceOnUse" x1="-4145.4058" y1="7956.1123" x2="-4143.3081" y2="7954.0146" gradientTransform="matrix(270 0 0 -190 1122563.75 1511647.375)">
			<stop  offset="0" style="stop-color:#312509"/>
			<stop  offset="1" style="stop-color:#271D04"/>
		</linearGradient>
		<polygon fill="url(#SVGID_41_)" points="3765.43,-1.17 3471.38,-1.17 3328.996,366.814 3840,-0.038 3840,-1.17 3768.443,-1.17 		
			"/>
		
			<linearGradient id="SVGID_42_" gradientUnits="userSpaceOnUse" x1="-4145.5493" y1="7942.7656" x2="-4143.4927" y2="7940.709" gradientTransform="matrix(270 0 0 -282 1122563.75 2240293.25)">
			<stop  offset="0" style="stop-color:#1D2908"/>
			<stop  offset="1" style="stop-color:#3D4938"/>
		</linearGradient>
		<polygon fill="url(#SVGID_42_)" points="3453.482,953.92 3840,755.817 3840,708.565 3328.996,366.814 		"/>
		
			<linearGradient id="SVGID_43_" gradientUnits="userSpaceOnUse" x1="-4145.123" y1="7937.9473" x2="-4143.0688" y2="7935.8931" gradientTransform="matrix(270 0 0 -367 1122563.75 2913133.25)">
			<stop  offset="0" style="stop-color:#3D2809"/>
			<stop  offset="1" style="stop-color:#312004"/>
		</linearGradient>
		<polygon fill="url(#SVGID_43_)" points="3840,708.565 3840,623.23 3840,575.078 3840,520.73 3840,467.566 3840,411.287 
			3840,405.222 3840,400.554 3840,12.893 3840,-0.038 3328.996,366.814 		"/>
		
			<linearGradient id="SVGID_44_" gradientUnits="userSpaceOnUse" x1="-4138.6323" y1="7947.3535" x2="-4136.563" y2="7945.2842" gradientTransform="matrix(209 0 0 -234 868437.625 1860406.375)">
			<stop  offset="0" style="stop-color:#535852"/>
			<stop  offset="1" style="stop-color:#040701"/>
		</linearGradient>
		<polygon fill="url(#SVGID_44_)" points="3557.561,1222.49 3840,795.752 3840,755.817 3453.482,953.92 		"/>
		
			<linearGradient id="SVGID_45_" gradientUnits="userSpaceOnUse" x1="-4128.8979" y1="7949.1279" x2="-4126.8364" y2="7947.0664" gradientTransform="matrix(156 0 0 -211 647637.625 1678526.375)">
			<stop  offset="0" style="stop-color:#070707"/>
			<stop  offset="1" style="stop-color:#242308"/>
		</linearGradient>
		<polygon fill="url(#SVGID_45_)" points="3557.561,1374.471 3840,1629.363 3840,1612.217 3557.561,1222.49 		"/>
		
			<linearGradient id="SVGID_46_" gradientUnits="userSpaceOnUse" x1="-4129.0566" y1="7933.5469" x2="-4127.0024" y2="7931.4927" gradientTransform="matrix(158 0 0 -445 655971.625 3531104.5)">
			<stop  offset="0" style="stop-color:#3C4424"/>
			<stop  offset="1" style="stop-color:#48501C"/>
		</linearGradient>
		<polygon fill="url(#SVGID_46_)" points="3840,1612.217 3840,1332.666 3840,1294.61 3840,1272.436 3840,1261.255 3840,1034.79 
			3840,795.752 3557.561,1222.49 		"/>
		
			<linearGradient id="SVGID_47_" gradientUnits="userSpaceOnUse" x1="-4152.2158" y1="7934.9971" x2="-4150.1602" y2="7932.9414" gradientTransform="matrix(383 0 0 -389 1593163.75 3088003.25)">
			<stop  offset="0" style="stop-color:#60330E"/>
			<stop  offset="1" style="stop-color:#361C0D"/>
		</linearGradient>
		<polygon fill="url(#SVGID_47_)" points="2775.953,1815.842 3349.258,2158.632 3397.508,2158.632 3557.561,1374.471 		"/>
		
			<linearGradient id="SVGID_48_" gradientUnits="userSpaceOnUse" x1="-4142.3506" y1="7934.5908" x2="-4140.2954" y2="7932.5356" gradientTransform="matrix(237 0 0 -389 985083.625 3088003.25)">
			<stop  offset="0" style="stop-color:#494306"/>
			<stop  offset="1" style="stop-color:#66570F"/>
		</linearGradient>
		<polygon fill="url(#SVGID_48_)" points="3397.508,2158.632 3410.817,2158.632 3416.058,2158.632 3840,1700.586 3840,1629.363 
			3557.561,1374.471 		"/>
		
			<linearGradient id="SVGID_49_" gradientUnits="userSpaceOnUse" x1="-4142.1953" y1="7943.1816" x2="-4140.1294" y2="7941.1157" gradientTransform="matrix(237 0 0 -253 985083.625 2011293.25)">
			<stop  offset="0" style="stop-color:#7A501F"/>
			<stop  offset="1" style="stop-color:#5E4112"/>
		</linearGradient>
		<polygon fill="url(#SVGID_49_)" points="3435.02,2158.632 3725.12,2158.632 3830.779,2158.632 3840,2158.632 3840,2130.853 
			3840,1700.586 3416.058,2158.632 		"/>
		
			<linearGradient id="SVGID_50_" gradientUnits="userSpaceOnUse" x1="-4148.8271" y1="7952.3213" x2="-4146.7661" y2="7950.2603" gradientTransform="matrix(302 0 0 -182 1255636.75 1449189.375)">
			<stop  offset="0" style="stop-color:#936013"/>
			<stop  offset="1" style="stop-color:#825614"/>
		</linearGradient>
		<polygon fill="url(#SVGID_50_)" points="3001.189,2158.632 3247.879,2158.632 3349.258,2158.632 2775.953,1815.842 		"/>
		
			<linearGradient id="SVGID_51_" gradientUnits="userSpaceOnUse" x1="-4118.3472" y1="7956.2734" x2="-4116.2852" y2="7954.2114" gradientTransform="matrix(107 0 0 -163 442743.5 1298765.375)">
			<stop  offset="0" style="stop-color:#5E713E"/>
			<stop  offset="1" style="stop-color:#55643D"/>
		</linearGradient>
		<polygon fill="url(#SVGID_51_)" points="2106.586,2034.445 2277.97,2158.632 2304.476,2158.632 2120.871,1853.316 		"/>
		
			<linearGradient id="SVGID_52_" gradientUnits="userSpaceOnUse" x1="-4150.499" y1="7952.9717" x2="-4148.4277" y2="7950.9004" gradientTransform="matrix(321 0 0 -181 1334488.75 1441271.375)">
			<stop  offset="0" style="stop-color:#614431"/>
			<stop  offset="1" style="stop-color:#5D4320"/>
		</linearGradient>
		<polygon fill="url(#SVGID_52_)" points="2120.871,1853.316 2304.476,2158.632 2365.686,2158.632 2775.953,1815.842 		"/>
		
			<linearGradient id="SVGID_53_" gradientUnits="userSpaceOnUse" x1="-4151.5439" y1="7952.499" x2="-4149.4727" y2="7950.4277" gradientTransform="matrix(343 0 0 -182 1426262.75 1449189.375)">
			<stop  offset="0" style="stop-color:#6D5D10"/>
			<stop  offset="1" style="stop-color:#696722"/>
		</linearGradient>
		<polygon fill="url(#SVGID_53_)" points="2365.686,2158.632 2542.72,2158.632 2687.253,2158.632 3001.189,2158.632 
			2775.953,1815.842 		"/>
		
			<linearGradient id="SVGID_54_" gradientUnits="userSpaceOnUse" x1="-4155.8398" y1="7998.3945" x2="-4153.7661" y2="7996.3208" gradientTransform="matrix(440 0 0 -77 1830021.5 617904.5)">
			<stop  offset="0" style="stop-color:#556368"/>
			<stop  offset="1" style="stop-color:#505F5F"/>
		</linearGradient>
		<polygon fill="url(#SVGID_54_)" points="1580.14,2158.632 1639.967,2158.632 1793.816,2158.632 1951.301,2158.632 
			2277.97,2158.632 2106.586,2034.445 		"/>
		
			<linearGradient id="SVGID_55_" gradientUnits="userSpaceOnUse" x1="-4152.5352" y1="7974.168" x2="-4150.479" y2="7972.1118" gradientTransform="matrix(330 0 0 -111 1371498.75 887082.4375)">
			<stop  offset="0" style="stop-color:#455464"/>
			<stop  offset="1" style="stop-color:#555F69"/>
		</linearGradient>
		<polygon fill="url(#SVGID_55_)" points="1114.779,2130.214 1252.264,2158.632 1483.476,2158.632 1788.229,1963.659 		"/>
		
			<linearGradient id="SVGID_56_" gradientUnits="userSpaceOnUse" x1="-4152.3799" y1="7974.001" x2="-4150.3228" y2="7971.9438" gradientTransform="matrix(333 0 0 -111 1384152.75 887082.4375)">
			<stop  offset="0" style="stop-color:#555F6A"/>
			<stop  offset="1" style="stop-color:#526067"/>
		</linearGradient>
		<polygon fill="url(#SVGID_56_)" points="1788.229,1963.659 1483.476,2158.632 1579.171,2158.632 1580.14,2158.632 
			2106.586,2034.445 		"/>
		
			<linearGradient id="SVGID_57_" gradientUnits="userSpaceOnUse" x1="-4152.9438" y1="7974.3154" x2="-4150.8862" y2="7972.2578" gradientTransform="matrix(309 0 0 -110 1283682.75 879168.4375)">
			<stop  offset="0" style="stop-color:#47525F"/>
			<stop  offset="1" style="stop-color:#46525F"/>
		</linearGradient>
		<polygon fill="url(#SVGID_57_)" points="484.188,1971.987 578.99,2158.632 594.848,2158.632 718.219,2158.632 908.315,2158.632 
			1114.779,2130.214 		"/>
		
			<linearGradient id="SVGID_58_" gradientUnits="userSpaceOnUse" x1="-4155.6885" y1="8098.7236" x2="-4153.6187" y2="8096.6538" gradientTransform="matrix(405 0 0 -34 1683771.75 277476.375)">
			<stop  offset="0" style="stop-color:#48596C"/>
			<stop  offset="1" style="stop-color:#4D5967"/>
		</linearGradient>
		<polygon fill="url(#SVGID_58_)" points="908.315,2158.632 1252.264,2158.632 1114.779,2130.214 		"/>
		
			<linearGradient id="SVGID_59_" gradientUnits="userSpaceOnUse" x1="-4153.0229" y1="7974.5801" x2="-4150.9478" y2="7972.5049" gradientTransform="matrix(298 0 0 -110 1237604.75 879168.4375)">
			<stop  offset="0" style="stop-color:#4A596B"/>
			<stop  offset="1" style="stop-color:#485768"/>
		</linearGradient>
		<polygon fill="url(#SVGID_59_)" points="68.228,2158.632 83.598,2158.632 367.405,2158.632 578.99,2158.632 484.188,1971.987 		
			"/>
		
			<linearGradient id="SVGID_60_" gradientUnits="userSpaceOnUse" x1="-4150.5947" y1="7950.6904" x2="-4148.541" y2="7948.6367" gradientTransform="matrix(250 0 0 -192 1037579.625 1528358.375)">
			<stop  offset="0" style="stop-color:#54565A"/>
			<stop  offset="1" style="stop-color:#67583D"/>
		</linearGradient>
		<polygon fill="url(#SVGID_60_)" points="0,1802.065 0,2027.835 0,2158.632 32.015,2158.632 68.228,2158.632 484.188,1971.987 		
			"/>
		
			<linearGradient id="SVGID_61_" gradientUnits="userSpaceOnUse" x1="-4154.4268" y1="7934.6104" x2="-4152.377" y2="7932.5605" gradientTransform="matrix(333 0 0 -403 1383440.75 3198739.5)">
			<stop  offset="0" style="stop-color:#9D8D41"/>
			<stop  offset="1" style="stop-color:#C4981E"/>
		</linearGradient>
		<polygon fill="url(#SVGID_61_)" points="653.57,1132.967 0,1767.69 0,1802.065 484.188,1971.987 		"/>
		
			<linearGradient id="SVGID_62_" gradientUnits="userSpaceOnUse" x1="-4155.3896" y1="7942.6162" x2="-4153.3218" y2="7940.5483" gradientTransform="matrix(349 0 0 -285 1450112.75 2264013.25)">
			<stop  offset="0" style="stop-color:#8E730A"/>
			<stop  offset="1" style="stop-color:#BE9711"/>
		</linearGradient>
		<polygon fill="url(#SVGID_62_)" points="312.764,296.028 0,841.918 0,887.374 686.223,889.38 		"/>
		
			<linearGradient id="SVGID_63_" gradientUnits="userSpaceOnUse" x1="-4154.6528" y1="7975.9307" x2="-4152.5908" y2="7973.8687" gradientTransform="matrix(349 0 0 -118 1450112.75 941991.4375)">
			<stop  offset="0" style="stop-color:#DCC273"/>
			<stop  offset="1" style="stop-color:#CDB647"/>
		</linearGradient>
		<polygon fill="url(#SVGID_63_)" points="686.223,889.38 0,887.374 0,896.697 653.57,1132.967 		"/>
		
			<linearGradient id="SVGID_64_" gradientUnits="userSpaceOnUse" x1="-4154.6719" y1="7933.4707" x2="-4152.6226" y2="7931.4214" gradientTransform="matrix(333 0 0 -435 1383440.75 3451997.5)">
			<stop  offset="0" style="stop-color:#9B8D13"/>
			<stop  offset="1" style="stop-color:#C3B120"/>
		</linearGradient>
		<polygon fill="url(#SVGID_64_)" points="0,896.697 0,929.28 0,944.101 0,1138.947 0,1153.762 0,1167.571 0,1193.681 0,1767.69 
			653.57,1132.967 		"/>
		
			<linearGradient id="SVGID_65_" gradientUnits="userSpaceOnUse" x1="-4142.166" y1="7934.2559" x2="-4140.1143" y2="7932.2041" gradientTransform="matrix(166 0 0 -443 687551.625 3514898.5)">
			<stop  offset="0" style="stop-color:#9D7B16"/>
			<stop  offset="1" style="stop-color:#A0870E"/>
		</linearGradient>
		<polygon fill="url(#SVGID_65_)" points="14.115,-1.17 0,-1.17 0,1.368 0,66.64 0,479.423 0,713.658 0,724.023 0,739.977 
			0,841.918 312.764,296.028 		"/>
	</g>
</g>
<g id="Layer_5">
</g>
<g id="Layer_6">
</g>
<g id="Layer_7">
</g>
<g id="Layer_8">
</g>
<g id="Layer_9">
</g>
<g id="Layer_10">
</g>
<g id="Layer_11">
</g>
<g id="Layer_12">
</g>
<g id="Layer_13">
</g>
<g id="Layer_14">
</g>
<g id="Layer_15">
</g>
<g id="Layer_16">
</g>
<g id="Layer_17">
</g>
<g id="Layer_18">
</g>
<g id="Layer_19">
</g>
<g id="Layer_20">
</g>
<g id="Layer_21">
</g>
<g id="Layer_22">
</g>
<g id="Layer_23">
</g>
<g id="Layer_24">
</g>
<g id="Layer_25">
</g>
</svg>
