<?xml version="1.0" encoding="utf-8"?>
<!-- Generator: Adobe Illustrator 16.0.0, SVG Export Plug-In . SVG Version: 6.00 Build 0)  -->
<!DOCTYPE svg PUBLIC "-//W3C//DTD SVG 1.1//EN" "http://www.w3.org/Graphics/SVG/1.1/DTD/svg11.dtd">
<svg version="1.1" xmlns="http://www.w3.org/2000/svg" xmlns:xlink="http://www.w3.org/1999/xlink" x="0px" y="0px" width="3840px"
	 height="2160px" viewBox="0 0 3840 2160" enable-background="new 0 0 3840 2160" xml:space="preserve">
<g id="Layer_1">
</g>
<g id="Layer_2">
</g>
<g id="Layer_3">
</g>
<g id="Layer_4">
</g>
<g id="Layer_5">
</g>
<g id="Layer_6">
</g>
<g id="Layer_7">
</g>
<g id="Layer_8">
</g>
<g id="Layer_9">
</g>
<g id="Layer_10">
</g>
<g id="Layer_11">
</g>
<g id="Layer_12">
</g>
<g id="Layer_13">
</g>
<g id="Layer_14">
	<g>
		
			<linearGradient id="SVGID_1_" gradientUnits="userSpaceOnUse" x1="3541.1797" y1="1376.5137" x2="3544.252" y2="1373.4414" gradientTransform="matrix(218 0 0 -197 -770472.375 272584.375)">
			<stop  offset="0" style="stop-color:#6C7166"/>
			<stop  offset="1" style="stop-color:#6A716F"/>
		</linearGradient>
		<polygon fill="url(#SVGID_1_)" points="1775.407,1928.146 2272.974,1832.177 1607.517,1318.278 		"/>
		
			<linearGradient id="SVGID_2_" gradientUnits="userSpaceOnUse" x1="3544.2959" y1="1376.6592" x2="3547.3574" y2="1373.5978" gradientTransform="matrix(232 0 0 -189 -819996.375 261586.375)">
			<stop  offset="0" style="stop-color:#81827E"/>
			<stop  offset="1" style="stop-color:#575D57"/>
		</linearGradient>
		<polygon fill="url(#SVGID_2_)" points="2272.974,1832.177 2981.168,1983.87 2822.437,1398.769 		"/>
		
			<linearGradient id="SVGID_3_" gradientUnits="userSpaceOnUse" x1="3542.5117" y1="1377.667" x2="3545.5776" y2="1374.6011" gradientTransform="matrix(203 0 0 -254 -716982.375 351042.25)">
			<stop  offset="0" style="stop-color:#9C9384"/>
			<stop  offset="1" style="stop-color:#908779"/>
		</linearGradient>
		<polygon fill="url(#SVGID_3_)" points="2202.766,1045.851 2272.974,1832.177 2822.437,1398.769 		"/>
		
			<linearGradient id="SVGID_4_" gradientUnits="userSpaceOnUse" x1="3543.2012" y1="1379.2412" x2="3546.2693" y2="1376.1731" gradientTransform="matrix(203 0 0 -202 -716982.375 279298.375)">
			<stop  offset="0" style="stop-color:#A68B83"/>
			<stop  offset="1" style="stop-color:#908279"/>
		</linearGradient>
		<polygon fill="url(#SVGID_4_)" points="2822.437,1398.769 2810.226,773.422 2202.766,1045.851 		"/>
		
			<linearGradient id="SVGID_5_" gradientUnits="userSpaceOnUse" x1="3527.855" y1="1376.8291" x2="3530.9358" y2="1373.7484" gradientTransform="matrix(103 0 0 -197 -361925.5 272584.375)">
			<stop  offset="0" style="stop-color:#606D6B"/>
			<stop  offset="1" style="stop-color:#56686F"/>
		</linearGradient>
		<polygon fill="url(#SVGID_5_)" points="1460.993,1726.921 1775.407,1928.146 1607.517,1318.278 		"/>
		
			<linearGradient id="SVGID_6_" gradientUnits="userSpaceOnUse" x1="3536.5664" y1="1378.4229" x2="3539.6333" y2="1375.356" gradientTransform="matrix(156 0 0 -144 -550208.375 199406.375)">
			<stop  offset="0" style="stop-color:#CFB9AC"/>
			<stop  offset="1" style="stop-color:#C9B4A0"/>
		</linearGradient>
		<polygon fill="url(#SVGID_6_)" points="2016.56,1092.287 1540.359,872.487 1607.517,1318.278 		"/>
		
			<linearGradient id="SVGID_7_" gradientUnits="userSpaceOnUse" x1="3541.8867" y1="1378.0322" x2="3544.957" y2="1374.962" gradientTransform="matrix(218 0 0 -239 -770472.375 330387.375)">
			<stop  offset="0" style="stop-color:#808980"/>
			<stop  offset="1" style="stop-color:#A69E91"/>
		</linearGradient>
		<polygon fill="url(#SVGID_7_)" points="1607.517,1318.278 2272.974,1832.177 2016.56,1092.287 		"/>
		
			<linearGradient id="SVGID_8_" gradientUnits="userSpaceOnUse" x1="3527.3311" y1="1378.4463" x2="3530.4045" y2="1375.3728" gradientTransform="matrix(84 0 0 -254 -294236.5 351042.25)">
			<stop  offset="0" style="stop-color:#A79D95"/>
			<stop  offset="1" style="stop-color:#AA9F91"/>
		</linearGradient>
		<polygon fill="url(#SVGID_8_)" points="2016.56,1092.287 2272.974,1832.177 2202.766,1045.851 		"/>
		
			<linearGradient id="SVGID_9_" gradientUnits="userSpaceOnUse" x1="3531.8794" y1="1376.5068" x2="3534.948" y2="1373.4381" gradientTransform="matrix(138 0 0 -205 -486418.375 283617.375)">
			<stop  offset="0" style="stop-color:#606F75"/>
			<stop  offset="1" style="stop-color:#475A61"/>
		</linearGradient>
		<polygon fill="url(#SVGID_9_)" points="1067.213,1980.774 1460.993,1726.921 1039.739,1346.141 		"/>
		
			<linearGradient id="SVGID_10_" gradientUnits="userSpaceOnUse" x1="3538.2017" y1="1377.04" x2="3541.2783" y2="1373.9634" gradientTransform="matrix(186 0 0 -132 -656962.375 183014.375)">
			<stop  offset="0" style="stop-color:#708792"/>
			<stop  offset="1" style="stop-color:#617576"/>
		</linearGradient>
		<polygon fill="url(#SVGID_10_)" points="1039.739,1346.141 1460.993,1726.921 1607.517,1318.278 		"/>
		
			<linearGradient id="SVGID_11_" gradientUnits="userSpaceOnUse" x1="3537.5293" y1="1378.5811" x2="3540.6204" y2="1375.4901" gradientTransform="matrix(186 0 0 -153 -656962.375 211808.375)">
			<stop  offset="0" style="stop-color:#9C9EA0"/>
			<stop  offset="1" style="stop-color:#606E6C"/>
		</linearGradient>
		<polygon fill="url(#SVGID_11_)" points="1607.517,1318.278 1540.359,872.487 1039.739,1346.141 		"/>
		
			<linearGradient id="SVGID_12_" gradientUnits="userSpaceOnUse" x1="3547.0049" y1="1378.4873" x2="3550.0708" y2="1375.4214" gradientTransform="matrix(295 0 0 -202 -1043659.25 279298.375)">
			<stop  offset="0" style="stop-color:#B69583"/>
			<stop  offset="1" style="stop-color:#8A7460"/>
		</linearGradient>
		<polygon fill="url(#SVGID_12_)" points="3710.731,1055.138 2810.226,773.422 2822.437,1398.769 		"/>
		
			<linearGradient id="SVGID_13_" gradientUnits="userSpaceOnUse" x1="3545.2095" y1="1380.1182" x2="3548.2805" y2="1377.0471" gradientTransform="matrix(312 0 0 -192 -1104476.25 265429.375)">
			<stop  offset="0" style="stop-color:#BEAFA7"/>
			<stop  offset="1" style="stop-color:#AD9D92"/>
		</linearGradient>
		<polygon fill="url(#SVGID_13_)" points="2492.76,497.898 1540.359,872.487 2016.56,1092.287 		"/>
		
			<linearGradient id="SVGID_14_" gradientUnits="userSpaceOnUse" x1="3538.8301" y1="1379.9043" x2="3542.01" y2="1376.7245" gradientTransform="matrix(156 0 0 -192 -550052.375 265429.375)">
			<stop  offset="0" style="stop-color:#F8E5D2"/>
			<stop  offset="1" style="stop-color:#A8A4A2"/>
		</linearGradient>
		<polygon fill="url(#SVGID_14_)" points="2202.766,1045.851 2492.76,497.898 2016.56,1092.287 		"/>
		
			<linearGradient id="SVGID_15_" gradientUnits="userSpaceOnUse" x1="3542.1729" y1="1379.6133" x2="3545.2466" y2="1376.5396" gradientTransform="matrix(199 0 0 -177 -702770.375 244759.375)">
			<stop  offset="0" style="stop-color:#B8A099"/>
			<stop  offset="1" style="stop-color:#817675"/>
		</linearGradient>
		<polygon fill="url(#SVGID_15_)" points="2810.226,773.422 2492.76,497.898 2202.766,1045.851 		"/>
		
			<linearGradient id="SVGID_16_" gradientUnits="userSpaceOnUse" x1="3541.6045" y1="1377.458" x2="3544.6772" y2="1374.3851" gradientTransform="matrix(321 0 0 -172 -1136938.25 238047.375)">
			<stop  offset="0" style="stop-color:#2D3436"/>
			<stop  offset="1" style="stop-color:#394C4E"/>
		</linearGradient>
		<polygon fill="url(#SVGID_16_)" points="420.069,1048.946 59.867,1581.42 1039.739,1346.141 		"/>
		
			<linearGradient id="SVGID_17_" gradientUnits="userSpaceOnUse" x1="3542.3887" y1="1374.7578" x2="3545.4634" y2="1371.6832" gradientTransform="matrix(344 0 0 -129 -1218671.25 178965.375)">
			<stop  offset="0" style="stop-color:#131D1C"/>
			<stop  offset="1" style="stop-color:#344343"/>
		</linearGradient>
		<polygon fill="url(#SVGID_17_)" points="17.131,1757.879 1067.213,1980.774 59.867,1581.42 		"/>
		
			<linearGradient id="SVGID_18_" gradientUnits="userSpaceOnUse" x1="3542.8096" y1="1377.3828" x2="3545.8789" y2="1374.3136" gradientTransform="matrix(330 0 0 -205 -1168915.25 283617.375)">
			<stop  offset="0" style="stop-color:#112424"/>
			<stop  offset="1" style="stop-color:#2F4041"/>
		</linearGradient>
		<polygon fill="url(#SVGID_18_)" points="59.867,1581.42 1067.213,1980.774 1039.739,1346.141 		"/>
		
			<linearGradient id="SVGID_19_" gradientUnits="userSpaceOnUse" x1="3547.252" y1="1379.917" x2="3550.3335" y2="1376.8356" gradientTransform="matrix(295 0 0 -240 -1043659.25 331513.375)">
			<stop  offset="0" style="stop-color:#5E595C"/>
			<stop  offset="1" style="stop-color:#433F41"/>
		</linearGradient>
		<polygon fill="url(#SVGID_19_)" points="3265.058,312.151 2810.226,773.422 3710.731,1055.138 		"/>
		
			<linearGradient id="SVGID_20_" gradientUnits="userSpaceOnUse" x1="3546.5186" y1="1375.3457" x2="3549.5742" y2="1372.29" gradientTransform="matrix(226 0 0 -166 -798399.375 229977.375)">
			<stop  offset="0" style="stop-color:#405C67"/>
			<stop  offset="1" style="stop-color:#3D585F"/>
		</linearGradient>
		<polygon fill="url(#SVGID_20_)" points="3127.692,1661.909 3124.729,2160.663 3146.699,2160.663 3814.518,1702.154 		"/>
		
			<linearGradient id="SVGID_21_" gradientUnits="userSpaceOnUse" x1="3547.563" y1="1378.1338" x2="3550.6396" y2="1375.0571" gradientTransform="matrix(291 0 0 -196 -1029443.25 271121.375)">
			<stop  offset="0" style="stop-color:#2E3C34"/>
			<stop  offset="1" style="stop-color:#61605B"/>
		</linearGradient>
		<polygon fill="url(#SVGID_21_)" points="2822.437,1398.769 3127.692,1661.909 3710.731,1055.138 		"/>
		
			<linearGradient id="SVGID_22_" gradientUnits="userSpaceOnUse" x1="3536.4678" y1="1376.6924" x2="3539.5488" y2="1373.6113" gradientTransform="matrix(100 0 0 -189 -350820.5 261586.375)">
			<stop  offset="0" style="stop-color:#4B6062"/>
			<stop  offset="1" style="stop-color:#5F6F74"/>
		</linearGradient>
		<polygon fill="url(#SVGID_22_)" points="2981.168,1983.87 3127.692,1661.909 2822.437,1398.769 		"/>
		
			<linearGradient id="SVGID_23_" gradientUnits="userSpaceOnUse" x1="3520.9858" y1="1375.6631" x2="3524.0503" y2="1372.5985" gradientTransform="matrix(48 0 0 -166 -166012.375 229977.375)">
			<stop  offset="0" style="stop-color:#243130"/>
			<stop  offset="1" style="stop-color:#445A62"/>
		</linearGradient>
		<polygon fill="url(#SVGID_23_)" points="2981.168,1983.87 3113.318,2160.663 3124.729,2160.663 3127.692,1661.909 		"/>
		
			<linearGradient id="SVGID_24_" gradientUnits="userSpaceOnUse" x1="3537.001" y1="1379.1924" x2="3540.0669" y2="1376.1265" gradientTransform="matrix(203 0 0 -217 -717566.375 299936.375)">
			<stop  offset="0" style="stop-color:#4E4946"/>
			<stop  offset="1" style="stop-color:#84827D"/>
		</linearGradient>
		<polygon fill="url(#SVGID_24_)" points="862.691,674.357 420.069,1048.946 1039.739,1346.141 		"/>
		
			<linearGradient id="SVGID_25_" gradientUnits="userSpaceOnUse" x1="3539.4082" y1="1380.3037" x2="3542.4824" y2="1377.2295" gradientTransform="matrix(227 0 0 -157 -802698.375 217163.375)">
			<stop  offset="0" style="stop-color:#928D90"/>
			<stop  offset="1" style="stop-color:#BFB1AD"/>
		</linearGradient>
		<polygon fill="url(#SVGID_25_)" points="1540.359,872.487 847.427,386.45 862.691,674.357 		"/>
		
			<linearGradient id="SVGID_26_" gradientUnits="userSpaceOnUse" x1="3539.5596" y1="1379.0479" x2="3542.6221" y2="1375.9855" gradientTransform="matrix(222 0 0 -217 -784928.375 299936.375)">
			<stop  offset="0" style="stop-color:#646966"/>
			<stop  offset="1" style="stop-color:#B7ABA6"/>
		</linearGradient>
		<polygon fill="url(#SVGID_26_)" points="1039.739,1346.141 1540.359,872.487 862.691,674.357 		"/>
		
			<linearGradient id="SVGID_27_" gradientUnits="userSpaceOnUse" x1="3537.7759" y1="1380.1846" x2="3540.8606" y2="1377.1" gradientTransform="matrix(222 0 0 -125 -785150.375 173156.375)">
			<stop  offset="0" style="stop-color:#666A6E"/>
			<stop  offset="1" style="stop-color:#6D6766"/>
		</linearGradient>
		<polygon fill="url(#SVGID_27_)" points="185.022,661.975 420.069,1048.946 862.691,674.357 		"/>
		
			<linearGradient id="SVGID_28_" gradientUnits="userSpaceOnUse" x1="3537.5723" y1="1382.6201" x2="3540.6267" y2="1379.5658" gradientTransform="matrix(222 0 0 -93 -785150.375 128971.5)">
			<stop  offset="0" style="stop-color:#818081"/>
			<stop  offset="1" style="stop-color:#A19998"/>
		</linearGradient>
		<polygon fill="url(#SVGID_28_)" points="847.427,386.45 185.022,661.975 862.691,674.357 		"/>
		
			<linearGradient id="SVGID_29_" gradientUnits="userSpaceOnUse" x1="3545.4385" y1="1377.8916" x2="3548.5334" y2="1374.7966" gradientTransform="matrix(193 0 0 -196 -681149.375 271121.375)">
			<stop  offset="0" style="stop-color:#4E5C5E"/>
			<stop  offset="1" style="stop-color:#45433D"/>
		</linearGradient>
		<polygon fill="url(#SVGID_29_)" points="3710.731,1055.138 3127.692,1661.909 3716.836,1460.685 		"/>
		
			<linearGradient id="SVGID_30_" gradientUnits="userSpaceOnUse" x1="3546.5728" y1="1374.1963" x2="3549.6316" y2="1371.1375" gradientTransform="matrix(225 0 0 -78 -794845.375 108648.5)">
			<stop  offset="0" style="stop-color:#657C87"/>
			<stop  offset="1" style="stop-color:#2F4A52"/>
		</linearGradient>
		<polygon fill="url(#SVGID_30_)" points="3127.692,1661.909 3814.518,1702.154 3716.836,1460.685 		"/>
		
			<linearGradient id="SVGID_31_" gradientUnits="userSpaceOnUse" x1="3540.1455" y1="1380.9219" x2="3543.2144" y2="1377.8531" gradientTransform="matrix(284 0 0 -219 -1005503.25 302469.375)">
			<stop  offset="0" style="stop-color:#495259"/>
			<stop  offset="1" style="stop-color:#3D4852"/>
		</linearGradient>
		<polygon fill="url(#SVGID_31_)" points="847.427,386.45 16.814,0.858 0.001,0.858 0.001,3.397 0.001,48.644 185.022,661.975 		"/>
		
			<linearGradient id="SVGID_32_" gradientUnits="userSpaceOnUse" x1="3397.8076" y1="1377.9297" x2="3400.8794" y2="1374.858" gradientTransform="matrix(23 0 0 -270 -78167.3594 373050.25)">
			<stop  offset="0" style="stop-color:#090E0E"/>
			<stop  offset="1" style="stop-color:#212D30"/>
		</linearGradient>
		<polygon fill="url(#SVGID_32_)" points="59.867,1581.42 0.001,1019.159 0.001,1140.976 0.001,1155.792 0.001,1169.601 
			0.001,1195.71 0.001,1236.699 17.131,1757.879 		"/>
		
			<linearGradient id="SVGID_33_" gradientUnits="userSpaceOnUse" x1="3527.7021" y1="1378.2852" x2="3530.7617" y2="1375.2257" gradientTransform="matrix(141 0 0 -213 -497421.375 294504.375)">
			<stop  offset="0" style="stop-color:#3C4D4D"/>
			<stop  offset="1" style="stop-color:#273133"/>
		</linearGradient>
		<polygon fill="url(#SVGID_33_)" points="420.069,1048.946 0.001,925.069 0.001,931.31 0.001,946.13 0.001,1019.159 
			59.867,1581.42 		"/>
		
			<linearGradient id="SVGID_34_" gradientUnits="userSpaceOnUse" x1="3499.2583" y1="1379.834" x2="3502.3291" y2="1376.7633" gradientTransform="matrix(67 0 0 -303 -234502.4063 418221.25)">
			<stop  offset="0" style="stop-color:#55595C"/>
			<stop  offset="1" style="stop-color:#5E6264"/>
		</linearGradient>
		<polygon fill="url(#SVGID_34_)" points="0.001,48.644 0.001,68.669 0.001,481.452 0.001,715.687 0.001,726.052 0.001,742.007 
			0.001,908.252 185.022,661.975 		"/>
		
			<linearGradient id="SVGID_35_" gradientUnits="userSpaceOnUse" x1="3527.5703" y1="1379.8008" x2="3530.6509" y2="1376.7203" gradientTransform="matrix(141 0 0 -125 -497421.375 173156.375)">
			<stop  offset="0" style="stop-color:#4A4D51"/>
			<stop  offset="1" style="stop-color:#252A2E"/>
		</linearGradient>
		<polygon fill="url(#SVGID_35_)" points="185.022,661.975 0.001,908.252 0.001,925.069 420.069,1048.946 		"/>
		
			<linearGradient id="SVGID_36_" gradientUnits="userSpaceOnUse" x1="3542.5376" y1="1373.9961" x2="3545.6052" y2="1370.9283" gradientTransform="matrix(353 0 0 -137 -1250657.25 190046.375)">
			<stop  offset="0" style="stop-color:#171E1E"/>
			<stop  offset="1" style="stop-color:#283131"/>
		</linearGradient>
		<polygon fill="url(#SVGID_36_)" points="17.131,1757.879 0.001,2022.329 0.001,2029.866 0.001,2160.663 32.016,2160.663 
			83.599,2160.663 103.916,2160.663 1067.213,1980.774 		"/>
		
			<linearGradient id="SVGID_37_" gradientUnits="userSpaceOnUse" x1="3157.0859" y1="1378.0293" x2="3160.1555" y2="1374.9596" gradientTransform="matrix(9 0 0 -407 -28425.3594 561836.5)">
			<stop  offset="0" style="stop-color:#1E272E"/>
			<stop  offset="1" style="stop-color:#0C1215"/>
		</linearGradient>
		<polygon fill="url(#SVGID_37_)" points="0.001,1236.699 0.001,2022.329 17.131,1757.879 		"/>
		
			<linearGradient id="SVGID_38_" gradientUnits="userSpaceOnUse" x1="3531.2949" y1="1375.0371" x2="3534.3708" y2="1371.9612" gradientTransform="matrix(129 0 0 -147 -454432.375 203816.375)">
			<stop  offset="0" style="stop-color:#586667"/>
			<stop  offset="1" style="stop-color:#3B484C"/>
		</linearGradient>
		<polygon fill="url(#SVGID_38_)" points="1067.213,1980.774 1200.927,2160.663 1228.237,2160.663 1460.993,1726.921 		"/>
		
			<linearGradient id="SVGID_39_" gradientUnits="userSpaceOnUse" x1="3537.7412" y1="1374.4609" x2="3540.8127" y2="1371.3894" gradientTransform="matrix(183 0 0 -147 -646245.375 203816.375)">
			<stop  offset="0" style="stop-color:#495C64"/>
			<stop  offset="1" style="stop-color:#3B4A4F"/>
		</linearGradient>
		<polygon fill="url(#SVGID_39_)" points="1460.993,1726.921 1228.237,2160.663 1263.741,2160.663 1775.407,1928.146 		"/>
		
			<linearGradient id="SVGID_40_" gradientUnits="userSpaceOnUse" x1="3544.1714" y1="1368.0918" x2="3547.2625" y2="1365.0007" gradientTransform="matrix(402 0 0 -65 -1424754.25 90902.5)">
			<stop  offset="0" style="stop-color:#0B1315"/>
			<stop  offset="1" style="stop-color:#253030"/>
		</linearGradient>
		<polygon fill="url(#SVGID_40_)" points="103.916,2160.663 367.406,2160.663 594.849,2160.663 718.22,2160.663 1200.927,2160.663 
			1067.213,1980.774 		"/>
		
			<linearGradient id="SVGID_41_" gradientUnits="userSpaceOnUse" x1="3546.0703" y1="1370.1895" x2="3549.1501" y2="1367.1096" gradientTransform="matrix(416 0 0 -82 -1474094.25 114311.5)">
			<stop  offset="0" style="stop-color:#1A1C1B"/>
			<stop  offset="1" style="stop-color:#353B3C"/>
		</linearGradient>
		<polygon fill="url(#SVGID_41_)" points="1263.741,2160.663 1579.172,2160.663 1639.968,2160.663 1793.817,2160.663 
			1951.301,2160.663 2451.611,2160.663 1775.407,1928.146 		"/>
		
			<linearGradient id="SVGID_42_" gradientUnits="userSpaceOnUse" x1="3543.1846" y1="1373.333" x2="3546.2551" y2="1370.2623" gradientTransform="matrix(233 0 0 -110 -823712.375 152864.4375)">
			<stop  offset="0" style="stop-color:#3E4D53"/>
			<stop  offset="1" style="stop-color:#323737"/>
		</linearGradient>
		<polygon fill="url(#SVGID_42_)" points="1775.407,1928.146 2451.611,2160.663 2479.093,2160.663 2272.974,1832.177 		"/>
		
			<linearGradient id="SVGID_43_" gradientUnits="userSpaceOnUse" x1="3544.1577" y1="1372.9131" x2="3547.2236" y2="1369.8472" gradientTransform="matrix(232 0 0 -110 -819996.375 152864.4375)">
			<stop  offset="0" style="stop-color:#645E54"/>
			<stop  offset="1" style="stop-color:#37342C"/>
		</linearGradient>
		<polygon fill="url(#SVGID_43_)" points="2272.974,1832.177 2479.093,2160.663 2518.208,2160.663 2981.168,1983.87 		"/>
		
			<linearGradient id="SVGID_44_" gradientUnits="userSpaceOnUse" x1="3543.8936" y1="1367.4385" x2="3546.9814" y2="1364.3506" gradientTransform="matrix(209 0 0 -62 -738207.375 86769.375)">
			<stop  offset="0" style="stop-color:#5A6162"/>
			<stop  offset="1" style="stop-color:#455359"/>
		</linearGradient>
		<polygon fill="url(#SVGID_44_)" points="2518.208,2160.663 2542.721,2160.663 2687.252,2160.663 3113.318,2160.663 
			2981.168,1983.87 		"/>
		
			<linearGradient id="SVGID_45_" gradientUnits="userSpaceOnUse" x1="3546.9805" y1="1374.9961" x2="3550.0732" y2="1371.9032" gradientTransform="matrix(243 0 0 -153 -858800.375 212076.375)">
			<stop  offset="0" style="stop-color:#3D5D6B"/>
			<stop  offset="1" style="stop-color:#173541"/>
		</linearGradient>
		<polygon fill="url(#SVGID_45_)" points="3814.518,1702.154 3146.699,2160.663 3247.88,2160.663 3410.818,2160.663 
			3435.019,2160.663 3725.12,2160.663 3830.778,2160.663 3840,2160.663 3840,2132.882 3840,1934.725 		"/>
		
			<linearGradient id="SVGID_46_" gradientUnits="userSpaceOnUse" x1="3530.8062" y1="1377.2705" x2="3533.8767" y2="1374.1998" gradientTransform="matrix(49 0 0 -131 -169326.375 181551.375)">
			<stop  offset="0" style="stop-color:#453D37"/>
			<stop  offset="1" style="stop-color:#131E20"/>
		</linearGradient>
		<polygon fill="url(#SVGID_46_)" points="3716.836,1460.685 3840,1362.354 3840,1334.696 3840,1306.63 3710.731,1055.138 		"/>
		
			<linearGradient id="SVGID_47_" gradientUnits="userSpaceOnUse" x1="3530.9053" y1="1376.4619" x2="3533.9795" y2="1373.3878" gradientTransform="matrix(47 0 0 -115 -162218.375 159597.4375)">
			<stop  offset="0" style="stop-color:#202D2D"/>
			<stop  offset="1" style="stop-color:#142A2E"/>
		</linearGradient>
		<polygon fill="url(#SVGID_47_)" points="3814.518,1702.154 3840,1504.041 3840,1362.354 3716.836,1460.685 		"/>
		
			<linearGradient id="SVGID_48_" gradientUnits="userSpaceOnUse" x1="3494.6597" y1="1377.0732" x2="3497.728" y2="1374.0049" gradientTransform="matrix(17 0 0 -268 -55596.3594 370431.25)">
			<stop  offset="0" style="stop-color:#234D57"/>
			<stop  offset="1" style="stop-color:#192F39"/>
		</linearGradient>
		<polygon fill="url(#SVGID_48_)" points="3840,1934.725 3840,1504.041 3814.518,1702.154 		"/>
		
			<linearGradient id="SVGID_49_" gradientUnits="userSpaceOnUse" x1="3531.9473" y1="1378.5674" x2="3535.0205" y2="1375.4943" gradientTransform="matrix(49 0 0 -104 -169326.375 144335.4375)">
			<stop  offset="0" style="stop-color:#A97B4F"/>
			<stop  offset="1" style="stop-color:#8B6843"/>
		</linearGradient>
		<polygon fill="url(#SVGID_49_)" points="3840,1306.63 3840,1296.64 3840,1274.466 3840,1263.284 3840,1036.819 3840,1028.383 
			3710.731,1055.138 		"/>
		
			<linearGradient id="SVGID_50_" gradientUnits="userSpaceOnUse" x1="3546.5034" y1="1380.5547" x2="3549.5806" y2="1377.4777" gradientTransform="matrix(193 0 0 -243 -681104.375 335644.375)">
			<stop  offset="0" style="stop-color:#08111F"/>
			<stop  offset="1" style="stop-color:#2C2426"/>
		</linearGradient>
		<polygon fill="url(#SVGID_50_)" points="3710.731,1055.138 3840,377.337 3840,303.088 3265.058,312.151 		"/>
		
			<linearGradient id="SVGID_51_" gradientUnits="userSpaceOnUse" x1="3531.1572" y1="1379.8359" x2="3534.2502" y2="1376.743" gradientTransform="matrix(49 0 0 -243 -169326.375 335644.375)">
			<stop  offset="0" style="stop-color:#524743"/>
			<stop  offset="1" style="stop-color:#4D3E35"/>
		</linearGradient>
		<polygon fill="url(#SVGID_51_)" points="3840,1028.383 3840,625.259 3840,577.106 3840,522.759 3840,469.595 3840,413.315 
			3840,407.251 3840,402.583 3840,377.337 3710.731,1055.138 		"/>
		
			<linearGradient id="SVGID_52_" gradientUnits="userSpaceOnUse" x1="3545.9053" y1="1384.6348" x2="3549.0012" y2="1381.5388" gradientTransform="matrix(194 0 0 -105 -684657.375 145378.4375)">
			<stop  offset="0" style="stop-color:#080E17"/>
			<stop  offset="1" style="stop-color:#000004"/>
		</linearGradient>
		<polygon fill="url(#SVGID_52_)" points="3840,303.088 3840,14.923 3840,0.858 3832.182,0.858 3265.058,312.151 		"/>
		
			<linearGradient id="SVGID_53_" gradientUnits="userSpaceOnUse" x1="3548.481" y1="1384.9102" x2="3551.5635" y2="1381.8278" gradientTransform="matrix(351 0 0 -106 -1242635.25 146755.4375)">
			<stop  offset="0" style="stop-color:#08111F"/>
			<stop  offset="1" style="stop-color:#0C131B"/>
		</linearGradient>
		<polygon fill="url(#SVGID_53_)" points="3832.182,0.858 3768.443,0.858 3765.429,0.858 2878.78,0.858 2839.03,0.858 
			2810.427,0.858 3265.058,312.151 		"/>
		
			<linearGradient id="SVGID_54_" gradientUnits="userSpaceOnUse" x1="3535.1299" y1="1380.9336" x2="3538.1936" y2="1377.8699" gradientTransform="matrix(104 0 0 -255 -365140.5 352077.25)">
			<stop  offset="0" style="stop-color:#3D4853"/>
			<stop  offset="1" style="stop-color:#4B4F55"/>
		</linearGradient>
		<polygon fill="url(#SVGID_54_)" points="2810.226,773.422 2786.327,0.858 2776.192,0.858 2492.76,497.898 		"/>
		
			<linearGradient id="SVGID_55_" gradientUnits="userSpaceOnUse" x1="3541.9941" y1="1380.4648" x2="3545.0593" y2="1377.3995" gradientTransform="matrix(157 0 0 -255 -553353.375 352077.25)">
			<stop  offset="0" style="stop-color:#57565A"/>
			<stop  offset="1" style="stop-color:#1E2B37"/>
		</linearGradient>
		<polygon fill="url(#SVGID_55_)" points="3265.058,312.151 2810.427,0.858 2786.327,0.858 2810.226,773.422 		"/>
		
			<linearGradient id="SVGID_56_" gradientUnits="userSpaceOnUse" x1="3540.1543" y1="1380.748" x2="3543.2222" y2="1377.6801" gradientTransform="matrix(227 0 0 -285 -802698.375 393419.25)">
			<stop  offset="0" style="stop-color:#626A73"/>
			<stop  offset="1" style="stop-color:#6F777E"/>
		</linearGradient>
		<polygon fill="url(#SVGID_56_)" points="1540.359,872.487 1443.859,0.858 1426.654,0.858 847.427,386.45 		"/>
		
			<linearGradient id="SVGID_57_" gradientUnits="userSpaceOnUse" x1="3545.9526" y1="1383.8105" x2="3549.0322" y2="1380.731" gradientTransform="matrix(479 0 0 -130 -1698338.5 179827.375)">
			<stop  offset="0" style="stop-color:#1C2F3C"/>
			<stop  offset="1" style="stop-color:#43515D"/>
		</linearGradient>
		<polygon fill="url(#SVGID_57_)" points="1426.654,0.858 1359.989,0.858 1212.013,0.858 683.251,0.858 668.827,0.858 
			631.493,0.858 265.544,0.858 107.749,0.858 16.814,0.858 847.427,386.45 		"/>
		
			<linearGradient id="SVGID_58_" gradientUnits="userSpaceOnUse" x1="3545.1006" y1="1380.0684" x2="3548.1689" y2="1377" gradientTransform="matrix(344 0 0 -285 -1218204.25 393419.25)">
			<stop  offset="0" style="stop-color:#72777D"/>
			<stop  offset="1" style="stop-color:#404F5A"/>
		</linearGradient>
		<polygon fill="url(#SVGID_58_)" points="2492.76,497.898 1464.74,0.858 1443.859,0.858 1540.359,872.487 		"/>
		
			<linearGradient id="SVGID_59_" gradientUnits="userSpaceOnUse" x1="3547.6821" y1="1382.791" x2="3550.7588" y2="1379.7144" gradientTransform="matrix(440 0 0 -166 -1559292.5 229435.375)">
			<stop  offset="0" style="stop-color:#374753"/>
			<stop  offset="1" style="stop-color:#30424F"/>
		</linearGradient>
		<polygon fill="url(#SVGID_59_)" points="2776.192,0.858 2701.929,0.858 2688.896,0.858 2626.618,0.858 2571.589,0.858 
			2541.87,0.858 2166.951,0.858 2141.385,0.858 1794.433,0.858 1705.535,0.858 1661.585,0.858 1628.897,0.858 1573.278,0.858 
			1464.74,0.858 2492.76,497.898 		"/>
	</g>
</g>
<g id="Layer_15">
</g>
<g id="Layer_16">
</g>
<g id="Layer_17">
</g>
<g id="Layer_18">
</g>
<g id="Layer_19">
</g>
<g id="Layer_20">
</g>
<g id="Layer_21">
</g>
<g id="Layer_22">
</g>
<g id="Layer_23">
</g>
<g id="Layer_24">
</g>
<g id="Layer_25">
</g>
</svg>
