<?xml version="1.0" encoding="utf-8"?>
<!-- Generator: Adobe Illustrator 16.0.0, SVG Export Plug-In . SVG Version: 6.00 Build 0)  -->
<!DOCTYPE svg PUBLIC "-//W3C//DTD SVG 1.1//EN" "http://www.w3.org/Graphics/SVG/1.1/DTD/svg11.dtd">
<svg version="1.1" xmlns="http://www.w3.org/2000/svg" xmlns:xlink="http://www.w3.org/1999/xlink" x="0px" y="0px" width="3840px"
	 height="2160px" viewBox="0 0 3840 2160" enable-background="new 0 0 3840 2160" xml:space="preserve">
<g id="Layer_1">
</g>
<g id="Layer_2">
</g>
<g id="Layer_3">
</g>
<g id="Layer_4">
</g>
<g id="Layer_5">
</g>
<g id="Layer_6">
</g>
<g id="Layer_7">
</g>
<g id="Layer_8">
</g>
<g id="Layer_9">
</g>
<g id="Layer_10">
</g>
<g id="Layer_11">
</g>
<g id="Layer_12">
	<g>
		
			<linearGradient id="SVGID_1_" gradientUnits="userSpaceOnUse" x1="-4146.2793" y1="3580.2539" x2="-4144.3115" y2="3578.2864" gradientTransform="matrix(215 0 0 -128 892017.625 458363.375)">
			<stop  offset="0" style="stop-color:#3690EB"/>
			<stop  offset="1" style="stop-color:#338BE7"/>
		</linearGradient>
		<polygon fill="url(#SVGID_1_)" points="558.158,257.826 586.664,344.062 995.924,104.102 		"/>
		
			<linearGradient id="SVGID_2_" gradientUnits="userSpaceOnUse" x1="-4152.8066" y1="3566.6504" x2="-4150.832" y2="3564.6758" gradientTransform="matrix(317 0 0 -334 1317065.75 1191311.25)">
			<stop  offset="0" style="stop-color:#308AE6"/>
			<stop  offset="1" style="stop-color:#51ACF7"/>
		</linearGradient>
		<polygon fill="url(#SVGID_2_)" points="995.924,104.102 586.664,344.062 1232.113,730.247 		"/>
		
			<linearGradient id="SVGID_3_" gradientUnits="userSpaceOnUse" x1="-4139.4844" y1="3574.1133" x2="-4137.3887" y2="3572.0173" gradientTransform="matrix(201 0 0 -170 834737.625 607929.375)">
			<stop  offset="0" style="stop-color:#4BABFA"/>
			<stop  offset="1" style="stop-color:#3897F1"/>
		</linearGradient>
		<polygon fill="url(#SVGID_3_)" points="3109.419,347.811 2712.376,666.507 3121.635,490.287 		"/>
		
			<linearGradient id="SVGID_4_" gradientUnits="userSpaceOnUse" x1="-4151.0151" y1="3576.9131" x2="-4149.0928" y2="3574.9905" gradientTransform="matrix(347 0 0 -140 1443119.75 501265.375)">
			<stop  offset="0" style="stop-color:#56B7FE"/>
			<stop  offset="1" style="stop-color:#55B6FB"/>
		</linearGradient>
		<polygon fill="url(#SVGID_4_)" points="2712.376,666.507 3418.908,752.743 3121.635,490.287 		"/>
		
			<linearGradient id="SVGID_5_" gradientUnits="userSpaceOnUse" x1="-4148.459" y1="3577.1348" x2="-4146.5327" y2="3575.2087" gradientTransform="matrix(313 0 0 -140 1301642.75 501265.375)">
			<stop  offset="0" style="stop-color:#5FC1FF"/>
			<stop  offset="1" style="stop-color:#4AABFB"/>
		</linearGradient>
		<polygon fill="url(#SVGID_5_)" points="3418.908,752.743 3758.941,550.276 3121.635,490.287 		"/>
		
			<linearGradient id="SVGID_6_" gradientUnits="userSpaceOnUse" x1="-4152.9575" y1="3563.7432" x2="-4150.9702" y2="3561.7561" gradientTransform="matrix(317 0 0 -472 1317065.75 1682443.5)">
			<stop  offset="0" style="stop-color:#62BBF9"/>
			<stop  offset="1" style="stop-color:#6CB9E5"/>
		</linearGradient>
		<polygon fill="url(#SVGID_6_)" points="586.664,344.062 761.77,1228.913 1232.113,730.247 		"/>
		
			<linearGradient id="SVGID_7_" gradientUnits="userSpaceOnUse" x1="-4155.625" y1="3566.2715" x2="-4153.7026" y2="3564.3491" gradientTransform="matrix(397 0 0 -302 1650511.75 1077789.25)">
			<stop  offset="0" style="stop-color:#82C6F0"/>
			<stop  offset="1" style="stop-color:#5682A7"/>
		</linearGradient>
		<polygon fill="url(#SVGID_7_)" points="761.77,1228.913 1570.109,1296.401 1232.113,730.247 		"/>
		
			<linearGradient id="SVGID_8_" gradientUnits="userSpaceOnUse" x1="-4156.2412" y1="3564.5186" x2="-4154.2632" y2="3562.5408" gradientTransform="matrix(467 0 0 -403 1942692.5 1437004.5)">
			<stop  offset="0" style="stop-color:#72AEE4"/>
			<stop  offset="1" style="stop-color:#95C1E4"/>
		</linearGradient>
		<polygon fill="url(#SVGID_8_)" points="2712.376,666.507 2258.318,462.167 1761.506,1217.665 		"/>
		
			<linearGradient id="SVGID_9_" gradientUnits="userSpaceOnUse" x1="-4148.6216" y1="3566.3818" x2="-4146.6602" y2="3564.4204" gradientTransform="matrix(260 0 0 -302 1079863.625 1077789.25)">
			<stop  offset="0" style="stop-color:#6FB6E7"/>
			<stop  offset="1" style="stop-color:#6C8CAB"/>
		</linearGradient>
		<polygon fill="url(#SVGID_9_)" points="1232.113,730.247 1570.109,1296.401 1761.506,1217.665 		"/>
		
			<linearGradient id="SVGID_10_" gradientUnits="userSpaceOnUse" x1="-4153.2212" y1="3565.6777" x2="-4151.2651" y2="3563.7219" gradientTransform="matrix(357 0 0 -361 1484062.75 1287610.25)">
			<stop  offset="0" style="stop-color:#7BBFE8"/>
			<stop  offset="1" style="stop-color:#82B3E0"/>
		</linearGradient>
		<polygon fill="url(#SVGID_10_)" points="1959.01,540.903 1232.113,730.247 1761.506,1217.665 		"/>
		
			<linearGradient id="SVGID_11_" gradientUnits="userSpaceOnUse" x1="-4146.248" y1="3564.6777" x2="-4144.1782" y2="3562.6079" gradientTransform="matrix(244 0 0 -403 1013451.625 1437004.5)">
			<stop  offset="0" style="stop-color:#66A8E5"/>
			<stop  offset="1" style="stop-color:#7EAEDC"/>
		</linearGradient>
		<polygon fill="url(#SVGID_11_)" points="2258.318,462.167 1959.01,540.903 1761.506,1217.665 		"/>
		
			<linearGradient id="SVGID_12_" gradientUnits="userSpaceOnUse" x1="-3879.6299" y1="3578.8936" x2="-3877.6995" y2="3576.9631" gradientTransform="matrix(20 0 0 -134 80705.6406 479783.375)">
			<stop  offset="0" style="stop-color:#2D8AE9"/>
			<stop  offset="1" style="stop-color:#2F8CE9"/>
		</linearGradient>
		<polygon fill="url(#SVGID_12_)" points="3121.635,490.287 3150.141,239.079 3109.419,347.811 		"/>
		
			<linearGradient id="SVGID_13_" gradientUnits="userSpaceOnUse" x1="-4148.9658" y1="3574.3604" x2="-4147.0122" y2="3572.4067" gradientTransform="matrix(313 0 0 -166 1301642.75 593639.375)">
			<stop  offset="0" style="stop-color:#3B9AF4"/>
			<stop  offset="1" style="stop-color:#3896EF"/>
		</linearGradient>
		<polygon fill="url(#SVGID_13_)" points="3758.941,550.276 3150.141,239.079 3121.635,490.287 		"/>
		
			<linearGradient id="SVGID_14_" gradientUnits="userSpaceOnUse" x1="-4141.9824" y1="3574.1992" x2="-4140.0132" y2="3572.23" gradientTransform="matrix(199 0 0 -144 825842.625 515885.375)">
			<stop  offset="0" style="stop-color:#285278"/>
			<stop  offset="1" style="stop-color:#597999"/>
		</linearGradient>
		<polygon fill="url(#SVGID_14_)" points="1570.109,1296.401 1975.299,1487.619 1761.506,1217.665 		"/>
		
			<linearGradient id="SVGID_15_" gradientUnits="userSpaceOnUse" x1="-4156.0371" y1="3564.0508" x2="-4154.0967" y2="3562.1106" gradientTransform="matrix(467 0 0 -438 1942692.5 1561643.5)">
			<stop  offset="0" style="stop-color:#5F6F84"/>
			<stop  offset="1" style="stop-color:#265A87"/>
		</linearGradient>
		<polygon fill="url(#SVGID_15_)" points="1761.506,1217.665 1975.299,1487.619 2712.376,666.507 		"/>
		
			<linearGradient id="SVGID_16_" gradientUnits="userSpaceOnUse" x1="-4150.8281" y1="3565.25" x2="-4148.9048" y2="3563.3267" gradientTransform="matrix(347 0 0 -365 1443119.75 1301909.25)">
			<stop  offset="0" style="stop-color:#73CDFD"/>
			<stop  offset="1" style="stop-color:#72C9F7"/>
		</linearGradient>
		<polygon fill="url(#SVGID_16_)" points="3017.794,1350.768 3418.908,752.743 2712.376,666.507 		"/>
		
			<linearGradient id="SVGID_17_" gradientUnits="userSpaceOnUse" x1="-4101.7646" y1="3568.46" x2="-4099.7847" y2="3566.4802" gradientTransform="matrix(86 0 0 -218 355596.5 779248.375)">
			<stop  offset="0" style="stop-color:#155597"/>
			<stop  offset="1" style="stop-color:#2C70B1"/>
		</linearGradient>
		<polygon fill="url(#SVGID_17_)" points="2842.686,1731.329 2865.085,1759.449 3017.794,1350.768 		"/>
		
			<linearGradient id="SVGID_18_" gradientUnits="userSpaceOnUse" x1="-4143.582" y1="3568.0156" x2="-4141.6348" y2="3566.0686" gradientTransform="matrix(237 0 0 -218 984824.625 779248.375)">
			<stop  offset="0" style="stop-color:#155598"/>
			<stop  offset="1" style="stop-color:#2E76BA"/>
		</linearGradient>
		<polygon fill="url(#SVGID_18_)" points="2865.085,1759.449 3347.645,1693.835 3017.794,1350.768 		"/>
		
			<linearGradient id="SVGID_19_" gradientUnits="userSpaceOnUse" x1="-4156.9761" y1="3563.7227" x2="-4155.0591" y2="3561.8059" gradientTransform="matrix(512 0 0 -438 2130312.5 1561643.5)">
			<stop  offset="0" style="stop-color:#6083A6"/>
			<stop  offset="1" style="stop-color:#72B8F0"/>
		</linearGradient>
		<polygon fill="url(#SVGID_19_)" points="2712.376,666.507 1975.299,1487.619 3017.794,1350.768 		"/>
		
			<linearGradient id="SVGID_20_" gradientUnits="userSpaceOnUse" x1="-4156.585" y1="3569.458" x2="-4154.6191" y2="3567.4922" gradientTransform="matrix(512 0 0 -203 2130312.5 725878.375)">
			<stop  offset="0" style="stop-color:#1E5790"/>
			<stop  offset="1" style="stop-color:#2F77BB"/>
		</linearGradient>
		<polygon fill="url(#SVGID_20_)" points="1975.299,1487.619 2842.686,1731.329 3017.794,1350.768 		"/>
		
			<linearGradient id="SVGID_21_" gradientUnits="userSpaceOnUse" x1="-4147.1016" y1="3568.0957" x2="-4145.0913" y2="3566.0854" gradientTransform="matrix(217 0 0 -232 900234.625 828951.375)">
			<stop  offset="0" style="stop-color:#4878A7"/>
			<stop  offset="1" style="stop-color:#4677AB"/>
		</linearGradient>
		<polygon fill="url(#SVGID_21_)" points="336.221,1581.354 761.77,1228.913 319.932,1146.427 		"/>
		
			<linearGradient id="SVGID_22_" gradientUnits="userSpaceOnUse" x1="-4147.1548" y1="3563.6172" x2="-4145.2344" y2="3561.6968" gradientTransform="matrix(217 0 0 -472 900234.625 1682443.5)">
			<stop  offset="0" style="stop-color:#64A6E7"/>
			<stop  offset="1" style="stop-color:#5583B5"/>
		</linearGradient>
		<polygon fill="url(#SVGID_22_)" points="319.932,1146.427 761.77,1228.913 586.664,344.062 		"/>
		
			<linearGradient id="SVGID_23_" gradientUnits="userSpaceOnUse" x1="-4142.9385" y1="3566.4971" x2="-4140.9805" y2="3564.5393" gradientTransform="matrix(240 0 0 -288 997400.625 1028203.25)">
			<stop  offset="0" style="stop-color:#50A3E8"/>
			<stop  offset="1" style="stop-color:#518ECA"/>
		</linearGradient>
		<polygon fill="url(#SVGID_23_)" points="3347.645,1693.835 3506.461,1153.926 3017.794,1350.768 		"/>
		
			<linearGradient id="SVGID_24_" gradientUnits="userSpaceOnUse" x1="-4143.2603" y1="3565.8359" x2="-4141.3516" y2="3563.9272" gradientTransform="matrix(240 0 0 -319 997400.625 1138287.25)">
			<stop  offset="0" style="stop-color:#65A5DA"/>
			<stop  offset="1" style="stop-color:#7DB7E3"/>
		</linearGradient>
		<polygon fill="url(#SVGID_24_)" points="3506.461,1153.926 3418.908,752.743 3017.794,1350.768 		"/>
		
			<linearGradient id="SVGID_25_" gradientUnits="userSpaceOnUse" x1="-4158.5161" y1="3576.6963" x2="-4156.583" y2="3574.7632" gradientTransform="matrix(496 0 0 -156 2062663.5 557913.375)">
			<stop  offset="0" style="stop-color:#338CE8"/>
			<stop  offset="1" style="stop-color:#2A81DF"/>
		</linearGradient>
		<polygon fill="url(#SVGID_25_)" points="995.924,104.102 244.323,0.858 107.75,0.858 55.428,0.858 558.158,257.826 		"/>
		
			<linearGradient id="SVGID_26_" gradientUnits="userSpaceOnUse" x1="-4152.7061" y1="3564.6982" x2="-4150.7593" y2="3562.7515" gradientTransform="matrix(297 0 0 -428 1233428.75 1525891.5)">
			<stop  offset="0" style="stop-color:#5799C6"/>
			<stop  offset="1" style="stop-color:#75BEF1"/>
		</linearGradient>
		<polygon fill="url(#SVGID_26_)" points="586.664,344.062 0.002,582.309 0.002,619.404 319.932,1146.427 		"/>
		
			<linearGradient id="SVGID_27_" gradientUnits="userSpaceOnUse" x1="-4153.0464" y1="3573.7246" x2="-4150.9336" y2="3571.6121" gradientTransform="matrix(297 0 0 -177 1233428.75 632787.375)">
			<stop  offset="0" style="stop-color:#44A0F5"/>
			<stop  offset="1" style="stop-color:#63AFF1"/>
		</linearGradient>
		<polygon fill="url(#SVGID_27_)" points="558.158,257.826 0.002,579.242 0.002,582.309 586.664,344.062 		"/>
		
			<linearGradient id="SVGID_28_" gradientUnits="userSpaceOnUse" x1="-4152.4834" y1="3566.5518" x2="-4150.499" y2="3564.5674" gradientTransform="matrix(283 0 0 -333 1175090.75 1187679.25)">
			<stop  offset="0" style="stop-color:#3C95EC"/>
			<stop  offset="1" style="stop-color:#5CA8EC"/>
		</linearGradient>
		<polygon fill="url(#SVGID_28_)" points="55.428,0.858 0.002,0.858 0.002,3.397 0.002,68.669 0.002,481.452 0.002,579.242 
			558.158,257.826 		"/>
		
			<linearGradient id="SVGID_29_" gradientUnits="userSpaceOnUse" x1="-4143.1353" y1="3568.3516" x2="-4141.1377" y2="3566.354" gradientTransform="matrix(175 0 0 -232 725053.625 828951.375)">
			<stop  offset="0" style="stop-color:#285486"/>
			<stop  offset="1" style="stop-color:#315B84"/>
		</linearGradient>
		<polygon fill="url(#SVGID_29_)" points="319.932,1146.427 0.002,1426.882 0.002,1452.222 336.221,1581.354 		"/>
		
			<linearGradient id="SVGID_30_" gradientUnits="userSpaceOnUse" x1="-4143.2646" y1="3564.0186" x2="-4141.2554" y2="3562.0093" gradientTransform="matrix(175 0 0 -368 725053.625 1312998.25)">
			<stop  offset="0" style="stop-color:#2B5F91"/>
			<stop  offset="1" style="stop-color:#396792"/>
		</linearGradient>
		<polygon fill="url(#SVGID_30_)" points="336.221,1581.354 0.002,1452.222 0.002,1740.617 26.73,2134.386 		"/>
		
			<linearGradient id="SVGID_31_" gradientUnits="userSpaceOnUse" x1="-4142.3662" y1="3563.4971" x2="-4140.394" y2="3561.5249" gradientTransform="matrix(167 0 0 -456 691717.625 1625646.5)">
			<stop  offset="0" style="stop-color:#7BA6CF"/>
			<stop  offset="1" style="stop-color:#3D6898"/>
		</linearGradient>
		<polygon fill="url(#SVGID_31_)" points="0.002,619.404 0.002,715.687 0.002,726.052 0.002,742.007 0.002,931.31 0.002,946.13 
			0.002,1140.976 0.002,1155.792 0.002,1169.601 0.002,1195.71 0.002,1426.882 319.932,1146.427 		"/>
		
			<linearGradient id="SVGID_32_" gradientUnits="userSpaceOnUse" x1="-3986.6606" y1="3563.3613" x2="-3984.7019" y2="3561.4026" gradientTransform="matrix(23 0 0 -401 91669.6406 1430412.5)">
			<stop  offset="0" style="stop-color:#285A8C"/>
			<stop  offset="1" style="stop-color:#184E85"/>
		</linearGradient>
		<polygon fill="url(#SVGID_32_)" points="0.002,1740.617 0.002,2029.866 0.002,2160.663 6.84,2160.663 26.73,2134.386 		"/>
		
			<linearGradient id="SVGID_33_" gradientUnits="userSpaceOnUse" x1="-4150.9282" y1="3562.7227" x2="-4148.9546" y2="3560.7493" gradientTransform="matrix(273 0 0 -515 1133594.75 1835909.5)">
			<stop  offset="0" style="stop-color:#2C679F"/>
			<stop  offset="1" style="stop-color:#295F95"/>
		</linearGradient>
		<polygon fill="url(#SVGID_33_)" points="336.221,1581.354 861.513,2160.663 887.531,2160.663 761.77,1228.913 		"/>
		
			<linearGradient id="SVGID_34_" gradientUnits="userSpaceOnUse" x1="-4157.3994" y1="3564.3037" x2="-4155.4614" y2="3562.366" gradientTransform="matrix(425 0 0 -327 1766826.75 1167193.25)">
			<stop  offset="0" style="stop-color:#13477D"/>
			<stop  offset="1" style="stop-color:#1C4B7B"/>
		</linearGradient>
		<polygon fill="url(#SVGID_34_)" points="26.73,2134.386 405.773,2160.663 594.849,2160.663 718.22,2160.663 861.513,2160.663 
			336.221,1581.354 		"/>
		
			<linearGradient id="SVGID_35_" gradientUnits="userSpaceOnUse" x1="-4155.437" y1="3562.5908" x2="-4153.54" y2="3560.6938" gradientTransform="matrix(397 0 0 -515 1650511.75 1835909.5)">
			<stop  offset="0" style="stop-color:#3B79B7"/>
			<stop  offset="1" style="stop-color:#164A7C"/>
		</linearGradient>
		<polygon fill="url(#SVGID_35_)" points="761.77,1228.913 887.531,2160.663 917.537,2160.663 1570.109,1296.401 		"/>
		
			<linearGradient id="SVGID_36_" gradientUnits="userSpaceOnUse" x1="-4157.8755" y1="3615.0635" x2="-4155.9209" y2="3613.1089" gradientTransform="matrix(448 0 0 -33 1862644.5 121436.375)">
			<stop  offset="0" style="stop-color:#104275"/>
			<stop  offset="1" style="stop-color:#0E3D6E"/>
		</linearGradient>
		<polygon fill="url(#SVGID_36_)" points="6.84,2160.663 32.016,2160.663 83.599,2160.663 367.406,2160.663 405.773,2160.663 
			26.73,2134.386 		"/>
		
			<linearGradient id="SVGID_37_" gradientUnits="userSpaceOnUse" x1="-4158.3354" y1="3562.7109" x2="-4156.3579" y2="3560.7334" gradientTransform="matrix(532 0 0 -479 2213120.5 1707857.5)">
			<stop  offset="0" style="stop-color:#1D4970"/>
			<stop  offset="1" style="stop-color:#16416D"/>
		</linearGradient>
		<polygon fill="url(#SVGID_37_)" points="1570.109,1296.401 917.537,2160.663 943.753,2160.663 1975.299,1487.619 		"/>
		
			<linearGradient id="SVGID_38_" gradientUnits="userSpaceOnUse" x1="-4131.4844" y1="3566.4258" x2="-4129.3999" y2="3564.3413" gradientTransform="matrix(154 0 0 -250 638809.625 893307.25)">
			<stop  offset="0" style="stop-color:#0C437C"/>
			<stop  offset="1" style="stop-color:#093A6E"/>
		</linearGradient>
		<polygon fill="url(#SVGID_38_)" points="2842.686,1731.329 2575.96,2160.663 2579.52,2160.663 2865.085,1759.449 		"/>
		
			<linearGradient id="SVGID_39_" gradientUnits="userSpaceOnUse" x1="-4161.3921" y1="3563.6289" x2="-4159.4756" y2="3561.7126" gradientTransform="matrix(815 0 0 -380 3392381 1355717.25)">
			<stop  offset="0" style="stop-color:#073362"/>
			<stop  offset="1" style="stop-color:#0C3560"/>
		</linearGradient>
		<polygon fill="url(#SVGID_39_)" points="943.753,2160.663 1579.172,2160.663 1639.968,2160.663 1793.817,2160.663 
			1951.302,2160.663 2519.703,2160.663 1975.299,1487.619 		"/>
		
			<linearGradient id="SVGID_40_" gradientUnits="userSpaceOnUse" x1="-4154.646" y1="3563.9873" x2="-4152.707" y2="3562.0481" gradientTransform="matrix(426 0 0 -380 1771950.75 1355717.25)">
			<stop  offset="0" style="stop-color:#123F6E"/>
			<stop  offset="1" style="stop-color:#0A3D73"/>
		</linearGradient>
		<polygon fill="url(#SVGID_40_)" points="1975.299,1487.619 2519.703,2160.663 2542.721,2160.663 2575.96,2160.663 
			2842.686,1731.329 		"/>
		
			<linearGradient id="SVGID_41_" gradientUnits="userSpaceOnUse" x1="-4155.0039" y1="3566.5254" x2="-4153.0649" y2="3564.5864" gradientTransform="matrix(447 0 0 -235 1859740.5 839952.375)">
			<stop  offset="0" style="stop-color:#052F5B"/>
			<stop  offset="1" style="stop-color:#08386B"/>
		</linearGradient>
		<polygon fill="url(#SVGID_41_)" points="2579.52,2160.663 2687.253,2160.663 3247.88,2160.663 3410.818,2160.663 
			3415.423,2160.663 2865.085,1759.449 		"/>
		
			<linearGradient id="SVGID_42_" gradientUnits="userSpaceOnUse" x1="-4147.4751" y1="3566.1973" x2="-4145.5142" y2="3564.2363" gradientTransform="matrix(293 0 0 -267 1218176.75 953773.25)">
			<stop  offset="0" style="stop-color:#0D437E"/>
			<stop  offset="1" style="stop-color:#0C4179"/>
		</linearGradient>
		<polygon fill="url(#SVGID_42_)" points="2865.085,1759.449 3415.423,2160.663 3435.02,2160.663 3453.986,2160.663 
			3347.645,1693.835 		"/>
		
			<linearGradient id="SVGID_43_" gradientUnits="userSpaceOnUse" x1="-4134.8306" y1="3565.9619" x2="-4132.918" y2="3564.0493" gradientTransform="matrix(183 0 0 -267 760043.625 953773.25)">
			<stop  offset="0" style="stop-color:#104B89"/>
			<stop  offset="1" style="stop-color:#0B3E75"/>
		</linearGradient>
		<polygon fill="url(#SVGID_43_)" points="3347.645,1693.835 3453.986,2160.663 3483.602,2160.663 3720.254,1796.942 		"/>
		
			<linearGradient id="SVGID_44_" gradientUnits="userSpaceOnUse" x1="-4136.6563" y1="3567.5391" x2="-4134.7397" y2="3565.6226" gradientTransform="matrix(195 0 0 -212 810103.625 758138.375)">
			<stop  offset="0" style="stop-color:#063362"/>
			<stop  offset="1" style="stop-color:#093C71"/>
		</linearGradient>
		<polygon fill="url(#SVGID_44_)" points="3483.602,2160.663 3725.12,2160.663 3830.778,2160.663 3840,2160.663 3840,2140.665 
			3720.254,1796.942 		"/>
		
			<linearGradient id="SVGID_45_" gradientUnits="userSpaceOnUse" x1="-4144.3271" y1="3565.9775" x2="-4142.3491" y2="3563.9995" gradientTransform="matrix(257 0 0 -288 1068401.625 1028203.25)">
			<stop  offset="0" style="stop-color:#2E7AC0"/>
			<stop  offset="1" style="stop-color:#7BB7E6"/>
		</linearGradient>
		<polygon fill="url(#SVGID_45_)" points="3347.645,1693.835 3840,1385.155 3840,1347.788 3506.461,1153.926 		"/>
		
			<linearGradient id="SVGID_46_" gradientUnits="userSpaceOnUse" x1="-4144.123" y1="3567.916" x2="-4142.1274" y2="3565.9204" gradientTransform="matrix(257 0 0 -230 1068401.625 821952.375)">
			<stop  offset="0" style="stop-color:#195EA5"/>
			<stop  offset="1" style="stop-color:#3F7FB8"/>
		</linearGradient>
		<polygon fill="url(#SVGID_46_)" points="3720.254,1796.942 3840,1454.272 3840,1385.155 3347.645,1693.835 		"/>
		
			<linearGradient id="SVGID_47_" gradientUnits="userSpaceOnUse" x1="-4085.0972" y1="3563.2227" x2="-4083.1165" y2="3561.2419" gradientTransform="matrix(74 0 0 -442 306023.5 1576248.5)">
			<stop  offset="0" style="stop-color:#114D8D"/>
			<stop  offset="1" style="stop-color:#386F9F"/>
		</linearGradient>
		<polygon fill="url(#SVGID_47_)" points="3840,2140.665 3840,2132.882 3840,1454.272 3720.254,1796.942 		"/>
		
			<linearGradient id="SVGID_48_" gradientUnits="userSpaceOnUse" x1="-4140.1411" y1="3569.7471" x2="-4138.1553" y2="3567.7612" gradientTransform="matrix(219 0 0 -214 910090.625 764697.375)">
			<stop  offset="0" style="stop-color:#87DBFC"/>
			<stop  offset="1" style="stop-color:#A1D9F1"/>
		</linearGradient>
		<polygon fill="url(#SVGID_48_)" points="3506.461,1153.926 3840,949.778 3840,924.465 3418.908,752.743 		"/>
		
			<linearGradient id="SVGID_49_" gradientUnits="userSpaceOnUse" x1="-4139.9414" y1="3570.9844" x2="-4137.957" y2="3569" gradientTransform="matrix(219 0 0 -205 910090.625 732567.375)">
			<stop  offset="0" style="stop-color:#6FCFFE"/>
			<stop  offset="1" style="stop-color:#78CEFD"/>
		</linearGradient>
		<polygon fill="url(#SVGID_49_)" points="3418.908,752.743 3840,924.465 3840,844.498 3758.941,550.276 		"/>
		
			<linearGradient id="SVGID_50_" gradientUnits="userSpaceOnUse" x1="-4133.5996" y1="3568.8809" x2="-4131.6167" y2="3566.8979" gradientTransform="matrix(179 0 0 -230 743453.625 821722.375)">
			<stop  offset="0" style="stop-color:#A9C7E5"/>
			<stop  offset="1" style="stop-color:#A6D9F1"/>
		</linearGradient>
		<polygon fill="url(#SVGID_50_)" points="3840,1347.788 3840,1334.696 3840,1296.64 3840,1274.466 3840,1263.284 3840,1036.819 
			3840,949.778 3506.461,1153.926 		"/>
		
			<linearGradient id="SVGID_51_" gradientUnits="userSpaceOnUse" x1="-4150.3818" y1="3575.126" x2="-4148.4336" y2="3573.1775" gradientTransform="matrix(356 0 0 -166 1480837.75 593639.375)">
			<stop  offset="0" style="stop-color:#2986E4"/>
			<stop  offset="1" style="stop-color:#3998F0"/>
		</linearGradient>
		<polygon fill="url(#SVGID_51_)" points="3758.941,550.276 3840,342.095 3840,251.568 3150.141,239.079 		"/>
		
			<linearGradient id="SVGID_52_" gradientUnits="userSpaceOnUse" x1="-4060.3667" y1="3565.7109" x2="-4058.3921" y2="3563.7363" gradientTransform="matrix(57 0 0 -364 235203.625 1298130.25)">
			<stop  offset="0" style="stop-color:#52B4FE"/>
			<stop  offset="1" style="stop-color:#63B8F5"/>
		</linearGradient>
		<polygon fill="url(#SVGID_52_)" points="3840,844.498 3840,625.259 3840,577.106 3840,522.759 3840,469.595 3840,413.315 
			3840,407.251 3840,402.583 3840,342.095 3758.941,550.276 		"/>
		
			<linearGradient id="SVGID_53_" gradientUnits="userSpaceOnUse" x1="-4150.9043" y1="3576.8867" x2="-4148.875" y2="3574.8577" gradientTransform="matrix(356 0 0 -154 1480837.75 550796.375)">
			<stop  offset="0" style="stop-color:#217ADC"/>
			<stop  offset="1" style="stop-color:#227ADA"/>
		</linearGradient>
		<polygon fill="url(#SVGID_53_)" points="3840,251.568 3840,14.923 3840,0.858 3776.735,0.858 3150.141,239.079 		"/>
		
			<linearGradient id="SVGID_54_" gradientUnits="userSpaceOnUse" x1="-4143.1372" y1="3565.9277" x2="-4141.1377" y2="3563.9282" gradientTransform="matrix(223 0 0 -372 926188.625 1326443.25)">
			<stop  offset="0" style="stop-color:#318DEA"/>
			<stop  offset="1" style="stop-color:#3289DF"/>
		</linearGradient>
		<polygon fill="url(#SVGID_54_)" points="2712.376,666.507 2656.014,0.858 2627.901,0.858 2258.318,462.167 		"/>
		
			<linearGradient id="SVGID_55_" gradientUnits="userSpaceOnUse" x1="-4142.542" y1="3565.6416" x2="-4140.5625" y2="3563.6624" gradientTransform="matrix(224 0 0 -372 930549.625 1326443.25)">
			<stop  offset="0" style="stop-color:#3F9EF0"/>
			<stop  offset="1" style="stop-color:#2279D7"/>
		</linearGradient>
		<polygon fill="url(#SVGID_55_)" points="3109.419,347.811 2691.547,0.858 2688.896,0.858 2656.014,0.858 2712.376,666.507 		"/>
		
			<linearGradient id="SVGID_56_" gradientUnits="userSpaceOnUse" x1="-4144.2368" y1="3572.5215" x2="-4142.2847" y2="3570.5696" gradientTransform="matrix(244 0 0 -202 1013889.625 721583.375)">
			<stop  offset="0" style="stop-color:#247EDF"/>
			<stop  offset="1" style="stop-color:#1B6FCF"/>
		</linearGradient>
		<polygon fill="url(#SVGID_56_)" points="3150.141,239.079 2711.729,0.858 2701.93,0.858 2691.547,0.858 3109.419,347.811 		"/>
		
			<linearGradient id="SVGID_57_" gradientUnits="userSpaceOnUse" x1="-4157.6709" y1="3577.8779" x2="-4155.749" y2="3575.9558" gradientTransform="matrix(600 0 0 -147 2497341.5 525890.375)">
			<stop  offset="0" style="stop-color:#1E73D3"/>
			<stop  offset="1" style="stop-color:#1867C5"/>
		</linearGradient>
		<polygon fill="url(#SVGID_57_)" points="3765.43,0.858 2878.78,0.858 2839.03,0.858 2711.729,0.858 3150.141,239.079 
			3776.735,0.858 3768.443,0.858 		"/>
		
			<linearGradient id="SVGID_58_" gradientUnits="userSpaceOnUse" x1="-4159.5322" y1="3569.3037" x2="-4157.5903" y2="3567.3618" gradientTransform="matrix(677 0 0 -265 2817523 945735.25)">
			<stop  offset="0" style="stop-color:#2980DD"/>
			<stop  offset="1" style="stop-color:#1966C3"/>
		</linearGradient>
		<polygon fill="url(#SVGID_58_)" points="2627.901,0.858 2626.618,0.858 2571.589,0.858 2541.87,0.858 2166.951,0.858 
			2141.385,0.858 1794.433,0.858 1705.535,0.858 1661.586,0.858 1628.897,0.858 1573.278,0.858 1359.989,0.858 1345.116,0.858 
			2258.318,462.167 		"/>
		
			<linearGradient id="SVGID_59_" gradientUnits="userSpaceOnUse" x1="-4132.5347" y1="3565.5156" x2="-4130.5781" y2="3563.5588" gradientTransform="matrix(137 0 0 -408 567206.625 1454529.5)">
			<stop  offset="0" style="stop-color:#267EDE"/>
			<stop  offset="1" style="stop-color:#3D93E1"/>
		</linearGradient>
		<polygon fill="url(#SVGID_59_)" points="1232.113,730.247 1272.89,0.858 1212.013,0.858 1203.523,0.858 995.924,104.102 		"/>
		
			<linearGradient id="SVGID_60_" gradientUnits="userSpaceOnUse" x1="-4153.8979" y1="3564.7939" x2="-4151.9336" y2="3562.8296" gradientTransform="matrix(357 0 0 -408 1484062.75 1454529.5)">
			<stop  offset="0" style="stop-color:#53AFF5"/>
			<stop  offset="1" style="stop-color:#3289E3"/>
		</linearGradient>
		<polygon fill="url(#SVGID_60_)" points="1959.01,540.903 1317.053,0.858 1272.89,0.858 1232.113,730.247 		"/>
		
			<linearGradient id="SVGID_61_" gradientUnits="userSpaceOnUse" x1="-4160.1445" y1="3597.4824" x2="-4158.1987" y2="3595.5369" gradientTransform="matrix(633 0 0 -74 2633542.5 266157.5)">
			<stop  offset="0" style="stop-color:#297EDB"/>
			<stop  offset="1" style="stop-color:#1F71D0"/>
		</linearGradient>
		<polygon fill="url(#SVGID_61_)" points="1203.523,0.858 683.252,0.858 668.827,0.858 631.493,0.858 265.544,0.858 244.323,0.858 
			995.924,104.102 		"/>
		
			<linearGradient id="SVGID_62_" gradientUnits="userSpaceOnUse" x1="-4157.0508" y1="3567.4355" x2="-4155.0894" y2="3565.4741" gradientTransform="matrix(483 0 0 -307 2009125.5 1095171.25)">
			<stop  offset="0" style="stop-color:#3692EE"/>
			<stop  offset="1" style="stop-color:#2980DC"/>
		</linearGradient>
		<polygon fill="url(#SVGID_62_)" points="2258.318,462.167 1345.116,0.858 1317.053,0.858 1959.01,540.903 		"/>
	</g>
</g>
<g id="Layer_13">
</g>
<g id="Layer_14">
</g>
<g id="Layer_15">
</g>
<g id="Layer_16">
</g>
<g id="Layer_17">
</g>
<g id="Layer_18">
</g>
<g id="Layer_19">
</g>
<g id="Layer_20">
</g>
<g id="Layer_21">
</g>
<g id="Layer_22">
</g>
<g id="Layer_23">
</g>
<g id="Layer_24">
</g>
<g id="Layer_25">
</g>
</svg>
