<?xml version="1.0" encoding="utf-8"?>
<!-- Generator: Adobe Illustrator 16.0.0, SVG Export Plug-In . SVG Version: 6.00 Build 0)  -->
<!DOCTYPE svg PUBLIC "-//W3C//DTD SVG 1.1//EN" "http://www.w3.org/Graphics/SVG/1.1/DTD/svg11.dtd">
<svg version="1.1" xmlns="http://www.w3.org/2000/svg" xmlns:xlink="http://www.w3.org/1999/xlink" x="0px" y="0px" width="3840px"
	 height="2160px" viewBox="0 0 3840 2160" enable-background="new 0 0 3840 2160" xml:space="preserve">
<g id="Layer_1">
</g>
<g id="Layer_2">
</g>
<g id="Layer_3">
</g>
<g id="Layer_4">
</g>
<g id="Layer_5">
</g>
<g id="Layer_6">
</g>
<g id="Layer_7">
</g>
<g id="Layer_8">
</g>
<g id="Layer_9">
</g>
<g id="Layer_10">
</g>
<g id="Layer_11">
</g>
<g id="Layer_12">
</g>
<g id="Layer_13">
</g>
<g id="Layer_14">
</g>
<g id="Layer_15">
</g>
<g id="Layer_16">
</g>
<g id="Layer_17">
</g>
<g id="Layer_18">
	<g>
		
			<linearGradient id="SVGID_1_" gradientUnits="userSpaceOnUse" x1="3530.5068" y1="-813.3643" x2="3532.5701" y2="-815.4275" gradientTransform="matrix(145 0 0 -145 -511358.375 -117593.625)">
			<stop  offset="0" style="stop-color:#0289F3"/>
			<stop  offset="1" style="stop-color:#0A91F3"/>
		</linearGradient>
		<polygon fill="url(#SVGID_1_)" points="626.993,664.035 839.961,361.647 545.861,532.652 		"/>
		
			<linearGradient id="SVGID_2_" gradientUnits="userSpaceOnUse" x1="3541.4971" y1="-805.6934" x2="3543.5483" y2="-807.7447" gradientTransform="matrix(281 0 0 -449 -994526.25 -361401.5)">
			<stop  offset="0" style="stop-color:#0C9AF6"/>
			<stop  offset="1" style="stop-color:#2EAAB5"/>
		</linearGradient>
		<polygon fill="url(#SVGID_2_)" points="1196.939,1298.007 839.961,361.647 626.993,664.035 		"/>
		
			<linearGradient id="SVGID_3_" gradientUnits="userSpaceOnUse" x1="3544.7041" y1="-805.0664" x2="3546.7661" y2="-807.1283" gradientTransform="matrix(319 0 0 -582 -1129066.25 -467780.5)">
			<stop  offset="0" style="stop-color:#479216"/>
			<stop  offset="1" style="stop-color:#44B9AB"/>
		</linearGradient>
		<polygon fill="url(#SVGID_3_)" points="1588.396,1001.875 2021.56,2160.663 2028.781,2160.663 2235.417,960.168 		"/>
		
			<linearGradient id="SVGID_4_" gradientUnits="userSpaceOnUse" x1="3544.3838" y1="-805.8369" x2="3546.4353" y2="-807.8884" gradientTransform="matrix(369 0 0 -449 -1307085.25 -361401.5)">
			<stop  offset="0" style="stop-color:#1EA4F6"/>
			<stop  offset="1" style="stop-color:#42BDB8"/>
		</linearGradient>
		<polygon fill="url(#SVGID_4_)" points="1196.939,1298.007 1588.396,1001.875 839.961,361.647 		"/>
		
			<linearGradient id="SVGID_5_" gradientUnits="userSpaceOnUse" x1="3537.9575" y1="-805.9854" x2="3540.0188" y2="-808.0467" gradientTransform="matrix(193 0 0 -473 -681581.375 -380342.5)">
			<stop  offset="0" style="stop-color:#ADD76C"/>
			<stop  offset="1" style="stop-color:#B2C9A8"/>
		</linearGradient>
		<polygon fill="url(#SVGID_5_)" points="1395.71,1988.286 1588.396,1001.875 1196.939,1298.007 		"/>
		
			<linearGradient id="SVGID_6_" gradientUnits="userSpaceOnUse" x1="3543.5474" y1="-805.8359" x2="3545.6094" y2="-807.8979" gradientTransform="matrix(311 0 0 -562 -1100737.25 -451720.5)">
			<stop  offset="0" style="stop-color:#EACC7B"/>
			<stop  offset="1" style="stop-color:#87B991"/>
		</linearGradient>
		<polygon fill="url(#SVGID_6_)" points="1395.71,1988.286 1981.553,2160.663 2021.56,2160.663 1588.396,1001.875 		"/>
		
			<linearGradient id="SVGID_7_" gradientUnits="userSpaceOnUse" x1="3543.4258" y1="-809.6836" x2="3545.4868" y2="-811.7446" gradientTransform="matrix(339 0 0 -275 -1200658.25 -221404.75)">
			<stop  offset="0" style="stop-color:#347A13"/>
			<stop  offset="1" style="stop-color:#368318"/>
		</linearGradient>
		<polygon fill="url(#SVGID_7_)" points="509.352,1619.164 734.491,1871.502 1196.939,1298.007 		"/>
		
			<linearGradient id="SVGID_8_" gradientUnits="userSpaceOnUse" x1="3543.1353" y1="-808.5664" x2="3545.2075" y2="-810.6386" gradientTransform="matrix(326 0 0 -331 -1154358.25 -266316.75)">
			<stop  offset="0" style="stop-color:#4FA922"/>
			<stop  offset="1" style="stop-color:#668526"/>
		</linearGradient>
		<polygon fill="url(#SVGID_8_)" points="734.491,1871.502 1395.71,1988.286 1196.939,1298.007 		"/>
		
			<linearGradient id="SVGID_9_" gradientUnits="userSpaceOnUse" x1="3537.4531" y1="-812.9844" x2="3539.5208" y2="-815.0519" gradientTransform="matrix(225 0 0 -161 -795783.375 -130343.625)">
			<stop  offset="0" style="stop-color:#0088F4"/>
			<stop  offset="1" style="stop-color:#028EF4"/>
		</linearGradient>
		<polygon fill="url(#SVGID_9_)" points="545.861,532.652 170.63,868.407 626.993,664.035 		"/>
		
			<linearGradient id="SVGID_10_" gradientUnits="userSpaceOnUse" x1="3544.522" y1="-805.9209" x2="3546.575" y2="-807.974" gradientTransform="matrix(369 0 0 -399 -1307085.25 -321393.5)">
			<stop  offset="0" style="stop-color:#1299F3"/>
			<stop  offset="1" style="stop-color:#2EADF6"/>
		</linearGradient>
		<polygon fill="url(#SVGID_10_)" points="839.961,361.647 1588.396,1001.875 1026.563,169.787 		"/>
		
			<linearGradient id="SVGID_11_" gradientUnits="userSpaceOnUse" x1="3544.2622" y1="-804.8242" x2="3546.3196" y2="-806.8815" gradientTransform="matrix(332 0 0 -463 -1175532.25 -372785.5)">
			<stop  offset="0" style="stop-color:#54C3F8"/>
			<stop  offset="1" style="stop-color:#4DB7F5"/>
		</linearGradient>
		<polygon fill="url(#SVGID_11_)" points="1026.563,169.787 1588.396,1001.875 1699.952,36.319 		"/>
		
			<linearGradient id="SVGID_12_" gradientUnits="userSpaceOnUse" x1="3543.8506" y1="-815.9727" x2="3545.9116" y2="-818.0336" gradientTransform="matrix(362 0 0 -154 -1282400.25 -124362.625)">
			<stop  offset="0" style="stop-color:#388D15"/>
			<stop  offset="1" style="stop-color:#3F971C"/>
		</linearGradient>
		<polygon fill="url(#SVGID_12_)" points="462.702,1592.054 509.352,1619.164 1196.939,1298.007 		"/>
		
			<linearGradient id="SVGID_13_" gradientUnits="userSpaceOnUse" x1="3536.2158" y1="-807.7031" x2="3538.2781" y2="-809.7655" gradientTransform="matrix(213 0 0 -347 -753216.375 -279354.75)">
			<stop  offset="0" style="stop-color:#28610B"/>
			<stop  offset="1" style="stop-color:#116358"/>
		</linearGradient>
		<polygon fill="url(#SVGID_13_)" points="30.679,1304.264 462.702,1592.054 170.63,868.407 		"/>
		
			<linearGradient id="SVGID_14_" gradientUnits="userSpaceOnUse" x1="3543.4468" y1="-806.4629" x2="3545.5017" y2="-808.5179" gradientTransform="matrix(362 0 0 -445 -1282400.25 -358048.5)">
			<stop  offset="0" style="stop-color:#4AB59F"/>
			<stop  offset="1" style="stop-color:#5FAC2F"/>
		</linearGradient>
		<polygon fill="url(#SVGID_14_)" points="626.993,664.035 462.702,1592.054 1196.939,1298.007 		"/>
		
			<linearGradient id="SVGID_15_" gradientUnits="userSpaceOnUse" x1="3537.8862" y1="-805.7881" x2="3539.9458" y2="-807.8478" gradientTransform="matrix(225 0 0 -445 -795783.375 -358048.5)">
			<stop  offset="0" style="stop-color:#1198F2"/>
			<stop  offset="1" style="stop-color:#1A89A6"/>
		</linearGradient>
		<polygon fill="url(#SVGID_15_)" points="170.63,868.407 462.702,1592.054 626.993,664.035 		"/>
		
			<linearGradient id="SVGID_16_" gradientUnits="userSpaceOnUse" x1="3542.6157" y1="-817.2285" x2="3544.6951" y2="-819.308" gradientTransform="matrix(188 0 0 -156 -662851.375 -125756.625)">
			<stop  offset="0" style="stop-color:#2F7F16"/>
			<stop  offset="1" style="stop-color:#156C08"/>
		</linearGradient>
		<polygon fill="url(#SVGID_16_)" points="3188.708,2061.276 3535.543,1735.948 3154.227,1806.853 		"/>
		
			<linearGradient id="SVGID_17_" gradientUnits="userSpaceOnUse" x1="3542.8145" y1="-822.04" x2="3544.8748" y2="-824.1003" gradientTransform="matrix(332 0 0 -82 -1175956.25 -67067.5)">
			<stop  offset="0" style="stop-color:#007FF3"/>
			<stop  offset="1" style="stop-color:#077BF1"/>
		</linearGradient>
		<polygon fill="url(#SVGID_17_)" points="839.961,361.647 166.573,409.612 545.861,532.652 		"/>
		
			<linearGradient id="SVGID_18_" gradientUnits="userSpaceOnUse" x1="3534.2788" y1="-809.8311" x2="3536.3191" y2="-811.8714" gradientTransform="matrix(187 0 0 -220 -660771.375 -177720.625)">
			<stop  offset="0" style="stop-color:#0185F3"/>
			<stop  offset="1" style="stop-color:#0077F1"/>
		</linearGradient>
		<polygon fill="url(#SVGID_18_)" points="166.573,409.612 170.63,868.407 545.861,532.652 		"/>
		
			<linearGradient id="SVGID_19_" gradientUnits="userSpaceOnUse" x1="3548.7817" y1="-806.5762" x2="3550.8445" y2="-808.639" gradientTransform="matrix(599 0 0 -386 -2123587.5 -310838.75)">
			<stop  offset="0" style="stop-color:#5CB7BC"/>
			<stop  offset="1" style="stop-color:#53B681"/>
		</linearGradient>
		<polygon fill="url(#SVGID_19_)" points="2649.187,438.809 2235.417,960.168 3450.356,1243.786 		"/>
		
			<linearGradient id="SVGID_20_" gradientUnits="userSpaceOnUse" x1="3549.1475" y1="-806.6748" x2="3551.2083" y2="-808.7357" gradientTransform="matrix(599 0 0 -406 -2123587.5 -326628.5)">
			<stop  offset="0" style="stop-color:#77D385"/>
			<stop  offset="1" style="stop-color:#5FB915"/>
		</linearGradient>
		<polygon fill="url(#SVGID_20_)" points="2235.417,960.168 3154.227,1806.853 3450.356,1243.786 		"/>
		
			<linearGradient id="SVGID_21_" gradientUnits="userSpaceOnUse" x1="3548.6172" y1="-804.9551" x2="3550.6733" y2="-807.0112" gradientTransform="matrix(462 0 0 -478 -1636622.5 -384714.5)">
			<stop  offset="0" style="stop-color:#73D1FA"/>
			<stop  offset="1" style="stop-color:#72CDAC"/>
		</linearGradient>
		<polygon fill="url(#SVGID_21_)" points="3586.25,246.948 2649.187,438.809 3450.356,1243.786 		"/>
		
			<linearGradient id="SVGID_22_" gradientUnits="userSpaceOnUse" x1="3542.4375" y1="-809.9775" x2="3544.5112" y2="-812.0513" gradientTransform="matrix(188 0 0 -270 -662851.375 -217420.75)">
			<stop  offset="0" style="stop-color:#3B9816"/>
			<stop  offset="1" style="stop-color:#2E970B"/>
		</linearGradient>
		<polygon fill="url(#SVGID_22_)" points="3154.227,1806.853 3535.543,1735.948 3450.356,1243.786 		"/>
		
			<linearGradient id="SVGID_23_" gradientUnits="userSpaceOnUse" x1="3533.3711" y1="-810.9775" x2="3535.4385" y2="-813.045" gradientTransform="matrix(92 0 0 -236 -321617.5 -190152.625)">
			<stop  offset="0" style="stop-color:#479E1C"/>
			<stop  offset="1" style="stop-color:#74C526"/>
		</linearGradient>
		<polygon fill="url(#SVGID_23_)" points="3450.356,1243.786 3535.543,1735.948 3636.958,1425.219 		"/>
		
			<linearGradient id="SVGID_24_" gradientUnits="userSpaceOnUse" x1="3542.6484" y1="-808.7725" x2="3544.7183" y2="-810.8422" gradientTransform="matrix(236 0 0 -250 -833880.375 -201766.75)">
			<stop  offset="0" style="stop-color:#5BCBFB"/>
			<stop  offset="1" style="stop-color:#51C7FA"/>
		</linearGradient>
		<polygon fill="url(#SVGID_24_)" points="2170.512,774.563 2235.417,960.168 2649.187,438.809 		"/>
		
			<linearGradient id="SVGID_25_" gradientUnits="userSpaceOnUse" x1="3542.5176" y1="-806.8682" x2="3544.5964" y2="-808.9469" gradientTransform="matrix(236 0 0 -317 -833880.375 -255656.75)">
			<stop  offset="0" style="stop-color:#39BAF8"/>
			<stop  offset="1" style="stop-color:#4AC4F9"/>
		</linearGradient>
		<polygon fill="url(#SVGID_25_)" points="2649.187,438.809 2618.762,113.48 2170.512,774.563 		"/>
		
			<linearGradient id="SVGID_26_" gradientUnits="userSpaceOnUse" x1="3544.2847" y1="-819.292" x2="3546.3638" y2="-821.3712" gradientTransform="matrix(319 0 0 -109 -1129066.25 -88523.5625)">
			<stop  offset="0" style="stop-color:#43C2FA"/>
			<stop  offset="1" style="stop-color:#51C7FB"/>
		</linearGradient>
		<polygon fill="url(#SVGID_26_)" points="1588.396,1001.875 2235.417,960.168 2170.512,774.563 		"/>
		
			<linearGradient id="SVGID_27_" gradientUnits="userSpaceOnUse" x1="3542.9946" y1="-805.6406" x2="3545.0508" y2="-807.6967" gradientTransform="matrix(287 0 0 -463 -1015370.25 -372785.5)">
			<stop  offset="0" style="stop-color:#32B8F9"/>
			<stop  offset="1" style="stop-color:#39B8F7"/>
		</linearGradient>
		<polygon fill="url(#SVGID_27_)" points="1699.952,36.319 1588.396,1001.875 2170.512,774.563 		"/>
		
			<linearGradient id="SVGID_28_" gradientUnits="userSpaceOnUse" x1="3547.2402" y1="-806.0361" x2="3549.3064" y2="-808.1022" gradientTransform="matrix(453 0 0 -354 -1605113.5 -285367.75)">
			<stop  offset="0" style="stop-color:#38B3F6"/>
			<stop  offset="1" style="stop-color:#3AB9F8"/>
		</linearGradient>
		<polygon fill="url(#SVGID_28_)" points="2618.762,113.48 1699.952,36.319 2170.512,774.563 		"/>
		
			<linearGradient id="SVGID_29_" gradientUnits="userSpaceOnUse" x1="3546.2095" y1="-809.5908" x2="3548.269" y2="-811.6505" gradientTransform="matrix(515 0 0 -189 -1826246.5 -153070.625)">
			<stop  offset="0" style="stop-color:#0B84F1"/>
			<stop  offset="1" style="stop-color:#167BED"/>
		</linearGradient>
		<polygon fill="url(#SVGID_29_)" points="1026.563,169.787 154.255,0.858 107.749,0.858 54.613,0.858 839.961,361.647 		"/>
		
			<linearGradient id="SVGID_30_" gradientUnits="userSpaceOnUse" x1="3544.1973" y1="-809.2578" x2="3546.2524" y2="-811.313" gradientTransform="matrix(423 0 0 -212 -1499370.25 -171516.625)">
			<stop  offset="0" style="stop-color:#0062ED"/>
			<stop  offset="1" style="stop-color:#086EEC"/>
		</linearGradient>
		<polygon fill="url(#SVGID_30_)" points="839.961,361.647 54.613,0.858 0.001,0.858 0.001,3.397 0.001,10.618 166.573,409.612 		
			"/>
		
			<linearGradient id="SVGID_31_" gradientUnits="userSpaceOnUse" x1="3547.8364" y1="-816.7705" x2="3549.8967" y2="-818.8308" gradientTransform="matrix(655 0 0 -97 -2323667 -79286.5)">
			<stop  offset="0" style="stop-color:#0C71EB"/>
			<stop  offset="1" style="stop-color:#1C90F2"/>
		</linearGradient>
		<polygon fill="url(#SVGID_31_)" points="1263.695,0.858 1212.013,0.858 683.251,0.858 668.827,0.858 631.493,0.858 265.544,0.858 
			154.255,0.858 1026.563,169.787 		"/>
		
			<linearGradient id="SVGID_32_" gradientUnits="userSpaceOnUse" x1="3543.6563" y1="-817.2412" x2="3545.7056" y2="-819.2906" gradientTransform="matrix(332 0 0 -97 -1175532.25 -79286.5)">
			<stop  offset="0" style="stop-color:#2BA2F3"/>
			<stop  offset="1" style="stop-color:#1C96F3"/>
		</linearGradient>
		<polygon fill="url(#SVGID_32_)" points="1699.952,36.319 1499.288,0.858 1359.989,0.858 1263.695,0.858 1026.563,169.787 		"/>
		
			<linearGradient id="SVGID_33_" gradientUnits="userSpaceOnUse" x1="3529.2798" y1="-808.4629" x2="3531.3545" y2="-810.5375" gradientTransform="matrix(94 0 0 -226 -329133.5 -182744.625)">
			<stop  offset="0" style="stop-color:#37B9F9"/>
			<stop  offset="1" style="stop-color:#4EC2F9"/>
		</linearGradient>
		<polygon fill="url(#SVGID_33_)" points="2649.187,438.809 2798.079,0.858 2765.852,0.858 2618.762,113.48 		"/>
		
			<linearGradient id="SVGID_34_" gradientUnits="userSpaceOnUse" x1="3547.8813" y1="-808.7832" x2="3549.9333" y2="-810.8353" gradientTransform="matrix(462 0 0 -226 -1636622.5 -182744.625)">
			<stop  offset="0" style="stop-color:#56C7FA"/>
			<stop  offset="1" style="stop-color:#62C9FA"/>
		</linearGradient>
		<polygon fill="url(#SVGID_34_)" points="3586.25,246.948 2902.152,0.858 2878.78,0.858 2839.03,0.858 2798.079,0.858 
			2649.187,438.809 		"/>
		
			<linearGradient id="SVGID_35_" gradientUnits="userSpaceOnUse" x1="3548.7695" y1="-846.5645" x2="3550.843" y2="-848.6381" gradientTransform="matrix(739 0 0 -33 -2621464 -27958.625)">
			<stop  offset="0" style="stop-color:#138FF4"/>
			<stop  offset="1" style="stop-color:#3DB4F7"/>
		</linearGradient>
		<polygon fill="url(#SVGID_35_)" points="2271.633,0.858 2166.951,0.858 2141.385,0.858 1794.433,0.858 1705.535,0.858 
			1661.585,0.858 1628.897,0.858 1573.278,0.858 1499.288,0.858 1699.952,36.319 		"/>
		
			<linearGradient id="SVGID_36_" gradientUnits="userSpaceOnUse" x1="3548.2026" y1="-822.7432" x2="3550.2532" y2="-824.7937" gradientTransform="matrix(547 0 0 -70 -1939095.5 -57632.5)">
			<stop  offset="0" style="stop-color:#56BCF6"/>
			<stop  offset="1" style="stop-color:#52BFF8"/>
		</linearGradient>
		<polygon fill="url(#SVGID_36_)" points="2618.762,113.48 2765.852,0.858 2701.929,0.858 2688.896,0.858 2626.618,0.858 
			2571.589,0.858 2541.87,0.858 2271.633,0.858 1699.952,36.319 		"/>
		
			<linearGradient id="SVGID_37_" gradientUnits="userSpaceOnUse" x1="3549.1499" y1="-812.6113" x2="3551.2109" y2="-814.6724" gradientTransform="matrix(516 0 0 -134 -1828405.5 -108960.625)">
			<stop  offset="0" style="stop-color:#5AC5F9"/>
			<stop  offset="1" style="stop-color:#78D1FA"/>
		</linearGradient>
		<polygon fill="url(#SVGID_37_)" points="3823.81,0.858 3768.443,0.858 3765.429,0.858 2902.152,0.858 3586.25,246.948 		"/>
		
			<linearGradient id="SVGID_38_" gradientUnits="userSpaceOnUse" x1="3543.8706" y1="-805.5732" x2="3545.9192" y2="-807.6218" gradientTransform="matrix(203 0 0 -478 -716000.375 -384714.5)">
			<stop  offset="0" style="stop-color:#79CC86"/>
			<stop  offset="1" style="stop-color:#9DDDFD"/>
		</linearGradient>
		<polygon fill="url(#SVGID_38_)" points="3450.356,1243.786 3840,647.787 3840,625.259 3840,584.58 3586.25,246.948 		"/>
		
			<linearGradient id="SVGID_39_" gradientUnits="userSpaceOnUse" x1="3540.4316" y1="-806.5039" x2="3542.4807" y2="-808.5529" gradientTransform="matrix(136 0 0 -310 -477882.375 -250112.75)">
			<stop  offset="0" style="stop-color:#8DD9FC"/>
			<stop  offset="1" style="stop-color:#97DCFC"/>
		</linearGradient>
		<polygon fill="url(#SVGID_39_)" points="3840,584.58 3840,577.106 3840,522.759 3840,469.595 3840,413.315 3840,407.252 
			3840,402.584 3840,14.923 3840,0.858 3823.81,0.858 3586.25,246.948 		"/>
		
			<linearGradient id="SVGID_40_" gradientUnits="userSpaceOnUse" x1="3544.3105" y1="-811.9072" x2="3546.3669" y2="-813.9636" gradientTransform="matrix(204 0 0 -199 -719553.375 -160590.625)">
			<stop  offset="0" style="stop-color:#45B012"/>
			<stop  offset="1" style="stop-color:#4E8B1D"/>
		</linearGradient>
		<polygon fill="url(#SVGID_40_)" points="3636.958,1425.219 3840,1054.291 3840,1036.819 3840,1023.836 3450.356,1243.786 		"/>
		
			<linearGradient id="SVGID_41_" gradientUnits="userSpaceOnUse" x1="3544.0347" y1="-807.9941" x2="3546.1196" y2="-810.079" gradientTransform="matrix(204 0 0 -302 -719553.375 -243386.75)">
			<stop  offset="0" style="stop-color:#2F8012"/>
			<stop  offset="1" style="stop-color:#447060"/>
		</linearGradient>
		<polygon fill="url(#SVGID_41_)" points="3840,1023.836 3840,647.787 3450.356,1243.786 		"/>
		
			<linearGradient id="SVGID_42_" gradientUnits="userSpaceOnUse" x1="3542.0967" y1="-815.5645" x2="3544.2109" y2="-817.6787" gradientTransform="matrix(163 0 0 -163 -573838.375 -131533.625)">
			<stop  offset="0" style="stop-color:#22830C"/>
			<stop  offset="1" style="stop-color:#6FB61F"/>
		</linearGradient>
		<polygon fill="url(#SVGID_42_)" points="3535.543,1735.948 3840,1422.912 3840,1399.354 3636.958,1425.219 		"/>
		
			<linearGradient id="SVGID_43_" gradientUnits="userSpaceOnUse" x1="3537.6787" y1="-812.1641" x2="3539.7637" y2="-814.249" gradientTransform="matrix(113 0 0 -199 -396138.4375 -160590.625)">
			<stop  offset="0" style="stop-color:#83C22B"/>
			<stop  offset="1" style="stop-color:#53891A"/>
		</linearGradient>
		<polygon fill="url(#SVGID_43_)" points="3840,1399.354 3840,1334.696 3840,1296.64 3840,1274.466 3840,1263.284 3840,1054.291 
			3636.958,1425.219 		"/>
		
			<linearGradient id="SVGID_44_" gradientUnits="userSpaceOnUse" x1="3547.0337" y1="-812.9707" x2="3549.1006" y2="-815.0375" gradientTransform="matrix(332 0 0 -219 -1174466.25 -176282.625)">
			<stop  offset="0" style="stop-color:#1A6E09"/>
			<stop  offset="1" style="stop-color:#146407"/>
		</linearGradient>
		<polygon fill="url(#SVGID_44_)" points="3188.708,2061.276 3698.108,2160.663 3725.12,2160.663 3830.778,2160.663 
			3839.221,2160.663 3535.543,1735.948 		"/>
		
			<linearGradient id="SVGID_45_" gradientUnits="userSpaceOnUse" x1="3542.4058" y1="-807.5488" x2="3544.4551" y2="-809.5981" gradientTransform="matrix(163 0 0 -382 -573838.375 -307171.75)">
			<stop  offset="0" style="stop-color:#278410"/>
			<stop  offset="1" style="stop-color:#418813"/>
		</linearGradient>
		<polygon fill="url(#SVGID_45_)" points="3535.543,1735.948 3839.221,2160.663 3840,2160.663 3840,2132.882 3840,1422.912 		"/>
		
			<linearGradient id="SVGID_46_" gradientUnits="userSpaceOnUse" x1="3547.5381" y1="-805.4316" x2="3549.5896" y2="-807.4831" gradientTransform="matrix(453 0 0 -595 -1604849.5 -478206)">
			<stop  offset="0" style="stop-color:#41A885"/>
			<stop  offset="1" style="stop-color:#328214"/>
		</linearGradient>
		<polygon fill="url(#SVGID_46_)" points="2235.417,960.168 2674.982,2160.663 2687.252,2160.663 2737.286,2160.663 
			3154.227,1806.853 		"/>
		
			<linearGradient id="SVGID_47_" gradientUnits="userSpaceOnUse" x1="3544.1108" y1="-814.7158" x2="3546.1907" y2="-816.7957" gradientTransform="matrix(246 0 0 -189 -869154.375 -152188.625)">
			<stop  offset="0" style="stop-color:#2D7A15"/>
			<stop  offset="1" style="stop-color:#1C650A"/>
		</linearGradient>
		<polygon fill="url(#SVGID_47_)" points="3154.227,1806.853 2737.286,2160.663 2833.796,2160.663 3188.708,2061.276 		"/>
		
			<linearGradient id="SVGID_48_" gradientUnits="userSpaceOnUse" x1="3549.1055" y1="-840.1416" x2="3551.1692" y2="-842.2054" gradientTransform="matrix(578 0 0 -67 -2048750.5 -54222.5)">
			<stop  offset="0" style="stop-color:#1B630F"/>
			<stop  offset="1" style="stop-color:#1C590D"/>
		</linearGradient>
		<polygon fill="url(#SVGID_48_)" points="2833.796,2160.663 3247.88,2160.663 3410.818,2160.663 3435.019,2160.663 
			3698.108,2160.663 3188.708,2061.276 		"/>
		
			<linearGradient id="SVGID_49_" gradientUnits="userSpaceOnUse" x1="3530.9282" y1="-805.3691" x2="3533.0083" y2="-807.4492" gradientTransform="matrix(115 0 0 -591 -404038.4375 -474998.5)">
			<stop  offset="0" style="stop-color:#4D8117"/>
			<stop  offset="1" style="stop-color:#81B27E"/>
		</linearGradient>
		<polygon fill="url(#SVGID_49_)" points="2028.781,2160.663 2259.124,2160.663 2235.417,960.168 		"/>
		
			<linearGradient id="SVGID_50_" gradientUnits="userSpaceOnUse" x1="3541.6987" y1="-805.7998" x2="3543.7556" y2="-807.8566" gradientTransform="matrix(224 0 0 -595 -791212.375 -478206)">
			<stop  offset="0" style="stop-color:#4AA889"/>
			<stop  offset="1" style="stop-color:#6C9331"/>
		</linearGradient>
		<polygon fill="url(#SVGID_50_)" points="2259.124,2160.663 2542.721,2160.663 2674.982,2160.663 2235.417,960.168 		"/>
		
			<linearGradient id="SVGID_51_" gradientUnits="userSpaceOnUse" x1="3543.6353" y1="-826.8271" x2="3545.6902" y2="-828.8821" gradientTransform="matrix(311 0 0 -102 -1100737.25 -82327.5625)">
			<stop  offset="0" style="stop-color:#9B9A33"/>
			<stop  offset="1" style="stop-color:#4E760F"/>
		</linearGradient>
		<polygon fill="url(#SVGID_51_)" points="1612.673,2160.663 1639.968,2160.663 1793.817,2160.663 1951.301,2160.663 
			1981.553,2160.663 1395.71,1988.286 		"/>
		
			<linearGradient id="SVGID_52_" gradientUnits="userSpaceOnUse" x1="3543.355" y1="-817.791" x2="3545.4187" y2="-819.8548" gradientTransform="matrix(326 0 0 -154 -1154358.25 -124087.625)">
			<stop  offset="0" style="stop-color:#6A6F28"/>
			<stop  offset="1" style="stop-color:#D4A557"/>
		</linearGradient>
		<polygon fill="url(#SVGID_52_)" points="734.491,1871.502 1096.081,2160.663 1176.735,2160.663 1395.71,1988.286 		"/>
		
			<linearGradient id="SVGID_53_" gradientUnits="userSpaceOnUse" x1="3541.3887" y1="-826.751" x2="3543.4548" y2="-828.8171" gradientTransform="matrix(260 0 0 -102 -919662.375 -82327.5625)">
			<stop  offset="0" style="stop-color:#E5BC64"/>
			<stop  offset="1" style="stop-color:#A89B44"/>
		</linearGradient>
		<polygon fill="url(#SVGID_53_)" points="1176.735,2160.663 1579.172,2160.663 1612.673,2160.663 1395.71,1988.286 		"/>
		
			<linearGradient id="SVGID_54_" gradientUnits="userSpaceOnUse" x1="3523.3701" y1="-810.5" x2="3525.4329" y2="-812.5628" gradientTransform="matrix(111 0 0 -270 -390574.4375 -217240.75)">
			<stop  offset="0" style="stop-color:#2E6E13"/>
			<stop  offset="1" style="stop-color:#1E570A"/>
		</linearGradient>
		<polygon fill="url(#SVGID_54_)" points="509.352,1619.164 651.745,2160.663 662.766,2160.663 734.491,1871.502 		"/>
		
			<linearGradient id="SVGID_55_" gradientUnits="userSpaceOnUse" x1="3538.9541" y1="-818.2949" x2="3541.0134" y2="-820.3543" gradientTransform="matrix(236 0 0 -154 -834626.375 -124087.625)">
			<stop  offset="0" style="stop-color:#194E08"/>
			<stop  offset="1" style="stop-color:#607127"/>
		</linearGradient>
		<polygon fill="url(#SVGID_55_)" points="662.766,2160.663 718.22,2160.663 1096.081,2160.663 734.491,1871.502 		"/>
		
			<linearGradient id="SVGID_56_" gradientUnits="userSpaceOnUse" x1="3539.1406" y1="-809.9824" x2="3541.188" y2="-812.0298" gradientTransform="matrix(257 0 0 -288 -909569.375 -231689.75)">
			<stop  offset="0" style="stop-color:#306411"/>
			<stop  offset="1" style="stop-color:#2E5B14"/>
		</linearGradient>
		<polygon fill="url(#SVGID_56_)" points="462.702,1592.054 13.368,2160.663 17.166,2160.663 509.352,1619.164 		"/>
		
			<linearGradient id="SVGID_57_" gradientUnits="userSpaceOnUse" x1="3542.1079" y1="-810.4922" x2="3544.1829" y2="-812.5671" gradientTransform="matrix(330 0 0 -275 -1168938.25 -221250.75)">
			<stop  offset="0" style="stop-color:#286712"/>
			<stop  offset="1" style="stop-color:#1A480C"/>
		</linearGradient>
		<polygon fill="url(#SVGID_57_)" points="17.166,2160.663 32.016,2160.663 83.599,2160.663 367.406,2160.663 594.849,2160.663 
			651.745,2160.663 509.352,1619.164 		"/>
		
			<linearGradient id="SVGID_58_" gradientUnits="userSpaceOnUse" x1="3537.3232" y1="-818.0068" x2="3539.3813" y2="-820.0649" gradientTransform="matrix(233 0 0 -138 -824296.375 -111527.625)">
			<stop  offset="0" style="stop-color:#35820E"/>
			<stop  offset="1" style="stop-color:#266D0F"/>
		</linearGradient>
		<polygon fill="url(#SVGID_58_)" points="30.679,1304.264 0.001,1487.207 0.001,1547.134 462.702,1592.054 		"/>
		
			<linearGradient id="SVGID_59_" gradientUnits="userSpaceOnUse" x1="3537.7583" y1="-809.374" x2="3539.7905" y2="-811.4062" gradientTransform="matrix(234 0 0 -310 -827850.375 -249355.75)">
			<stop  offset="0" style="stop-color:#1D470A"/>
			<stop  offset="1" style="stop-color:#26640D"/>
		</linearGradient>
		<polygon fill="url(#SVGID_59_)" points="0.001,1547.134 0.001,2029.866 0.001,2160.663 13.368,2160.663 462.702,1592.054 		"/>
		
			<linearGradient id="SVGID_60_" gradientUnits="userSpaceOnUse" x1="3513.0742" y1="-811.1299" x2="3515.1484" y2="-813.2042" gradientTransform="matrix(89 0 0 -209 -312664.5 -168678.625)">
			<stop  offset="0" style="stop-color:#2C907B"/>
			<stop  offset="1" style="stop-color:#058DEF"/>
		</linearGradient>
		<polygon fill="url(#SVGID_60_)" points="170.63,868.407 0.001,896.004 0.001,931.31 0.001,946.13 0.001,996.729 30.679,1304.264 
					"/>
		
			<linearGradient id="SVGID_61_" gradientUnits="userSpaceOnUse" x1="3513.6099" y1="-805.4717" x2="3515.6565" y2="-807.5183" gradientTransform="matrix(91 0 0 -446 -319774.5 -359184.5)">
			<stop  offset="0" style="stop-color:#015CE9"/>
			<stop  offset="1" style="stop-color:#006FEF"/>
		</linearGradient>
		<polygon fill="url(#SVGID_61_)" points="0.001,10.618 0.001,68.669 0.001,481.452 0.001,715.687 0.001,726.052 0.001,742.007 
			0.001,870.258 166.573,409.612 		"/>
		
			<linearGradient id="SVGID_62_" gradientUnits="userSpaceOnUse" x1="3374.7026" y1="-808.4219" x2="3376.7529" y2="-810.4722" gradientTransform="matrix(20 0 0 -311 -67507.3594 -250468.75)">
			<stop  offset="0" style="stop-color:#367F0F"/>
			<stop  offset="1" style="stop-color:#308D5A"/>
		</linearGradient>
		<polygon fill="url(#SVGID_62_)" points="0.001,996.729 0.001,1140.976 0.001,1155.793 0.001,1169.601 0.001,1195.71 
			0.001,1487.207 30.679,1304.264 		"/>
		
			<linearGradient id="SVGID_63_" gradientUnits="userSpaceOnUse" x1="3512.9482" y1="-809.1924" x2="3515.0322" y2="-811.2765" gradientTransform="matrix(89 0 0 -234 -312664.5 -188948.625)">
			<stop  offset="0" style="stop-color:#0072F0"/>
			<stop  offset="1" style="stop-color:#0186F3"/>
		</linearGradient>
		<polygon fill="url(#SVGID_63_)" points="166.573,409.612 0.001,870.258 0.001,896.004 170.63,868.407 		"/>
	</g>
</g>
<g id="Layer_19">
</g>
<g id="Layer_20">
</g>
<g id="Layer_21">
</g>
<g id="Layer_22">
</g>
<g id="Layer_23">
</g>
<g id="Layer_24">
</g>
<g id="Layer_25">
</g>
</svg>
