<?xml version="1.0" encoding="utf-8"?>
<!-- Generator: Adobe Illustrator 16.0.0, SVG Export Plug-In . SVG Version: 6.00 Build 0)  -->
<!DOCTYPE svg PUBLIC "-//W3C//DTD SVG 1.1//EN" "http://www.w3.org/Graphics/SVG/1.1/DTD/svg11.dtd">
<svg version="1.1" xmlns="http://www.w3.org/2000/svg" xmlns:xlink="http://www.w3.org/1999/xlink" x="0px" y="0px" width="3840px"
	 height="2160.002px" viewBox="0 0 3840 2160.002" enable-background="new 0 0 3840 2160.002" xml:space="preserve">
<g id="Layer_1">
</g>
<g id="Layer_2">
</g>
<g id="Layer_3">
</g>
<g id="Layer_4">
</g>
<g id="Layer_5">
</g>
<g id="Layer_6">
</g>
<g id="Layer_7">
</g>
<g id="Layer_8">
</g>
<g id="Layer_9">
</g>
<g id="Layer_10">
</g>
<g id="Layer_11">
</g>
<g id="Layer_12">
</g>
<g id="Layer_13">
</g>
<g id="Layer_14">
</g>
<g id="Layer_15">
</g>
<g id="Layer_16">
</g>
<g id="Layer_17">
</g>
<g id="Layer_18">
</g>
<g id="Layer_19">
</g>
<g id="Layer_20">
</g>
<g id="Layer_21">
</g>
<g id="Layer_22">
</g>
<g id="Layer_23">
	<g>
		
			<linearGradient id="SVGID_1_" gradientUnits="userSpaceOnUse" x1="-302.8848" y1="-2996.5195" x2="-301.3866" y2="-2998.0176" gradientTransform="matrix(335 0 0 -282 104559.75 -843489.75)">
			<stop  offset="0" style="stop-color:#227691"/>
			<stop  offset="1" style="stop-color:#104655"/>
		</linearGradient>
		<polygon fill="url(#SVGID_1_)" points="3617.097,1823.384 3096.902,1525.688 3393.491,1927.363 		"/>
		
			<linearGradient id="SVGID_2_" gradientUnits="userSpaceOnUse" x1="-305.0659" y1="-2986.6064" x2="-303.5711" y2="-2988.1013" gradientTransform="matrix(381 0 0 -753 117333.75 -2248972)">
			<stop  offset="0" style="stop-color:#7EB1D4"/>
			<stop  offset="1" style="stop-color:#A2CCEF"/>
		</linearGradient>
		<polygon fill="url(#SVGID_2_)" points="1003.704,501.556 1491.288,1229.416 1595.328,156.855 		"/>
		
			<linearGradient id="SVGID_3_" gradientUnits="userSpaceOnUse" x1="-304.9043" y1="-2997.2285" x2="-303.4451" y2="-2998.6877" gradientTransform="matrix(484 0 0 -263 149662.5 -787096.75)">
			<stop  offset="0" style="stop-color:#A7C8E4"/>
			<stop  offset="1" style="stop-color:#ACCFEF"/>
		</linearGradient>
		<polygon fill="url(#SVGID_3_)" points="2103.099,1522.839 2854.663,1398.917 2668.325,1148.226 		"/>
		
			<linearGradient id="SVGID_4_" gradientUnits="userSpaceOnUse" x1="-305.1626" y1="-2993.9404" x2="-303.674" y2="-2995.429" gradientTransform="matrix(297 0 0 -326 91197.75 -974904.75)">
			<stop  offset="0" style="stop-color:#839DAF"/>
			<stop  offset="1" style="stop-color:#5E7383"/>
		</linearGradient>
		<polygon fill="url(#SVGID_4_)" points="463.324,1230.84 924.51,1695.188 884.138,1249.357 		"/>
		
			<linearGradient id="SVGID_5_" gradientUnits="userSpaceOnUse" x1="-305.7417" y1="-2989.1104" x2="-304.1929" y2="-2990.6592" gradientTransform="matrix(348 0 0 -525 106854.75 -1568834.5)">
			<stop  offset="0" style="stop-color:#98C7EF"/>
			<stop  offset="1" style="stop-color:#8CBCE2"/>
		</linearGradient>
		<polygon fill="url(#SVGID_5_)" points="1003.704,501.556 463.324,1230.84 884.138,1249.357 		"/>
		
			<linearGradient id="SVGID_6_" gradientUnits="userSpaceOnUse" x1="-305.4219" y1="-2994.1836" x2="-303.9646" y2="-2995.6409" gradientTransform="matrix(391 0 0 -327 120326.75 -977887.75)">
			<stop  offset="0" style="stop-color:#58738B"/>
			<stop  offset="1" style="stop-color:#AED3F6"/>
		</linearGradient>
		<polygon fill="url(#SVGID_6_)" points="924.51,1695.188 1491.288,1229.416 884.138,1249.357 		"/>
		
			<linearGradient id="SVGID_7_" gradientUnits="userSpaceOnUse" x1="-305.752" y1="-2989.499" x2="-304.2695" y2="-2990.9814" gradientTransform="matrix(391 0 0 -525 120326.75 -1568834.5)">
			<stop  offset="0" style="stop-color:#4698C8"/>
			<stop  offset="1" style="stop-color:#82BFEA"/>
		</linearGradient>
		<polygon fill="url(#SVGID_7_)" points="884.138,1249.357 1491.288,1229.416 1003.704,501.556 		"/>
		
			<linearGradient id="SVGID_8_" gradientUnits="userSpaceOnUse" x1="-303.3799" y1="-3000.0293" x2="-301.8839" y2="-3001.5251" gradientTransform="matrix(415 0 0 -209 129130.75 -626422.625)">
			<stop  offset="0" style="stop-color:#9BCCF6"/>
			<stop  offset="1" style="stop-color:#7EB9E6"/>
		</linearGradient>
		<polygon fill="url(#SVGID_8_)" points="3758.403,941.69 3704.055,643.994 3113.983,705.243 		"/>
		
			<linearGradient id="SVGID_9_" gradientUnits="userSpaceOnUse" x1="-302.7529" y1="-2991.4863" x2="-301.2448" y2="-2992.9946" gradientTransform="matrix(287 0 0 -404 89547.75 -1207962.5)">
			<stop  offset="0" style="stop-color:#96CBF4"/>
			<stop  offset="1" style="stop-color:#9ECEF6"/>
		</linearGradient>
		<polygon fill="url(#SVGID_9_)" points="2921.435,572.775 2668.325,1148.226 3113.983,705.243 		"/>
		
			<linearGradient id="SVGID_10_" gradientUnits="userSpaceOnUse" x1="-305.3057" y1="-2997.1807" x2="-303.7339" y2="-2998.7524" gradientTransform="matrix(381 0 0 -242 117333.75 -725170.625)">
			<stop  offset="0" style="stop-color:#79ADD2"/>
			<stop  offset="1" style="stop-color:#8ABEE6"/>
		</linearGradient>
		<polygon fill="url(#SVGID_10_)" points="1141.905,191.041 1003.704,501.556 1595.328,156.855 		"/>
		
			<linearGradient id="SVGID_11_" gradientUnits="userSpaceOnUse" x1="-306.6118" y1="-2990.3633" x2="-305.1301" y2="-2991.845" gradientTransform="matrix(553 0 0 -490 169533.5 -1463952.5)">
			<stop  offset="0" style="stop-color:#496E89"/>
			<stop  offset="1" style="stop-color:#00101A"/>
		</linearGradient>
		<polygon fill="url(#SVGID_11_)" points="65.803,1928.788 924.51,1695.188 463.324,1230.84 		"/>
		
			<linearGradient id="SVGID_12_" gradientUnits="userSpaceOnUse" x1="-300.543" y1="-3004.3604" x2="-299.0701" y2="-3005.8333" gradientTransform="matrix(198 0 0 -176 62224.625 -527662.625)">
			<stop  offset="0" style="stop-color:#B1D5F6"/>
			<stop  offset="1" style="stop-color:#B6D4F4"/>
		</linearGradient>
		<polygon fill="url(#SVGID_12_)" points="2668.325,1148.226 2854.663,1398.917 2975.783,1162.47 		"/>
		
			<linearGradient id="SVGID_13_" gradientUnits="userSpaceOnUse" x1="-302.7314" y1="-2993.8818" x2="-301.1842" y2="-2995.429" gradientTransform="matrix(287 0 0 -321 89547.75 -960363.75)">
			<stop  offset="0" style="stop-color:#9BCDF5"/>
			<stop  offset="1" style="stop-color:#A3D0F7"/>
		</linearGradient>
		<polygon fill="url(#SVGID_13_)" points="3113.983,705.243 2668.325,1148.226 2975.783,1162.47 		"/>
		
			<linearGradient id="SVGID_14_" gradientUnits="userSpaceOnUse" x1="-298.709" y1="-2997.6787" x2="-297.2417" y2="-2999.146" gradientTransform="matrix(156 0 0 -255 49450.625 -763230.75)">
			<stop  offset="0" style="stop-color:#B5D3F5"/>
			<stop  offset="1" style="stop-color:#86BDE0"/>
		</linearGradient>
		<polygon fill="url(#SVGID_14_)" points="2854.663,1398.917 3096.902,1525.688 2975.783,1162.47 		"/>
		
			<linearGradient id="SVGID_15_" gradientUnits="userSpaceOnUse" x1="-304.2559" y1="-2991.458" x2="-302.8059" y2="-2992.908" gradientTransform="matrix(504 0 0 -410 156364.5 -1225595.5)">
			<stop  offset="0" style="stop-color:#6FB1D2"/>
			<stop  offset="1" style="stop-color:#96C7EF"/>
		</linearGradient>
		<polygon fill="url(#SVGID_15_)" points="3096.902,1525.688 3758.403,941.69 2975.783,1162.47 		"/>
		
			<linearGradient id="SVGID_16_" gradientUnits="userSpaceOnUse" x1="-304.4907" y1="-2994.1406" x2="-302.9875" y2="-2995.6438" gradientTransform="matrix(504 0 0 -321 156364.5 -960363.75)">
			<stop  offset="0" style="stop-color:#A1D1FA"/>
			<stop  offset="1" style="stop-color:#8DC4F0"/>
		</linearGradient>
		<polygon fill="url(#SVGID_16_)" points="2975.783,1162.47 3758.403,941.69 3113.983,705.243 		"/>
		
			<linearGradient id="SVGID_17_" gradientUnits="userSpaceOnUse" x1="-305.5181" y1="-2987.9209" x2="-304.0082" y2="-2989.4307" gradientTransform="matrix(447 0 0 -658 137544.5 -1964929)">
			<stop  offset="0" style="stop-color:#003E51"/>
			<stop  offset="1" style="stop-color:#3E7890"/>
		</linearGradient>
		<polygon fill="url(#SVGID_17_)" points="924.51,1695.188 1609.793,2160.663 1617.806,2160.663 1491.288,1229.416 		"/>
		
			<linearGradient id="SVGID_18_" gradientUnits="userSpaceOnUse" x1="-305.9414" y1="-2986.5488" x2="-304.4467" y2="-2988.0435" gradientTransform="matrix(691 0 0 -841 212884 -2511388)">
			<stop  offset="0" style="stop-color:#8EC6F1"/>
			<stop  offset="1" style="stop-color:#A2D1F6"/>
		</linearGradient>
		<polygon fill="url(#SVGID_18_)" points="1595.328,156.855 1851.544,1354.762 2668.325,1148.226 		"/>
		
			<linearGradient id="SVGID_19_" gradientUnits="userSpaceOnUse" x1="-301.8252" y1="-2989.1416" x2="-300.387" y2="-2990.5798" gradientTransform="matrix(167 0 0 -570 52031.625 -1702425.5)">
			<stop  offset="0" style="stop-color:#125669"/>
			<stop  offset="1" style="stop-color:#4A899E"/>
		</linearGradient>
		<polygon fill="url(#SVGID_19_)" points="1851.544,1354.762 1620.34,2160.663 1631.313,2160.663 1877.941,2044.163 		"/>
		
			<linearGradient id="SVGID_20_" gradientUnits="userSpaceOnUse" x1="-297.9937" y1="-2990.3711" x2="-296.4727" y2="-2991.8921" gradientTransform="matrix(104 0 0 -484 32840.5 -1445973.5)">
			<stop  offset="0" style="stop-color:#025167"/>
			<stop  offset="1" style="stop-color:#4490AF"/>
		</linearGradient>
		<polygon fill="url(#SVGID_20_)" points="1877.941,2044.163 2013.036,1582.663 1851.544,1354.762 		"/>
		
			<linearGradient id="SVGID_21_" gradientUnits="userSpaceOnUse" x1="-301.186" y1="-3007.2334" x2="-299.6877" y2="-3008.7317" gradientTransform="matrix(162 0 0 -160 50646.625 -479805.625)">
			<stop  offset="0" style="stop-color:#61A4C6"/>
			<stop  offset="1" style="stop-color:#B0D1EE"/>
		</linearGradient>
		<polygon fill="url(#SVGID_21_)" points="2013.036,1582.663 2103.099,1522.839 1851.544,1354.762 		"/>
		
			<linearGradient id="SVGID_22_" gradientUnits="userSpaceOnUse" x1="-305.0767" y1="-2996.9629" x2="-303.6" y2="-2998.4395" gradientTransform="matrix(526 0 0 -263 162394.5 -787096.75)">
			<stop  offset="0" style="stop-color:#96AEBE"/>
			<stop  offset="1" style="stop-color:#A1C0D6"/>
		</linearGradient>
		<polygon fill="url(#SVGID_22_)" points="1851.544,1354.762 2103.099,1522.839 2668.325,1148.226 		"/>
		
			<linearGradient id="SVGID_23_" gradientUnits="userSpaceOnUse" x1="-303.7021" y1="-2986.5967" x2="-302.2244" y2="-2988.0745" gradientTransform="matrix(232 0 0 -841 71904.625 -2511388)">
			<stop  offset="0" style="stop-color:#A0CFF6"/>
			<stop  offset="1" style="stop-color:#9FCCF2"/>
		</linearGradient>
		<polygon fill="url(#SVGID_23_)" points="1491.288,1229.416 1851.544,1354.762 1595.328,156.855 		"/>
		
			<linearGradient id="SVGID_24_" gradientUnits="userSpaceOnUse" x1="-303.3828" y1="-2987.959" x2="-301.9249" y2="-2989.417" gradientTransform="matrix(232 0 0 -658 71904.625 -1964929)">
			<stop  offset="0" style="stop-color:#5A94B4"/>
			<stop  offset="1" style="stop-color:#407089"/>
		</linearGradient>
		<polygon fill="url(#SVGID_24_)" points="1491.288,1229.416 1617.806,2160.663 1620.34,2160.663 1851.544,1354.762 		"/>
		
			<linearGradient id="SVGID_25_" gradientUnits="userSpaceOnUse" x1="-305.2734" y1="-2991.1035" x2="-303.7951" y2="-2992.5818" gradientTransform="matrix(323 0 0 -391 99293.75 -1169637.75)">
			<stop  offset="0" style="stop-color:#5C90B6"/>
			<stop  offset="1" style="stop-color:#568FB8"/>
		</linearGradient>
		<polygon fill="url(#SVGID_25_)" points="1141.905,191.041 754.809,0.858 683.251,0.858 677.036,0.858 1003.704,501.556 		"/>
		
			<linearGradient id="SVGID_26_" gradientUnits="userSpaceOnUse" x1="-305.1362" y1="-3002.6338" x2="-303.6476" y2="-3004.1223" gradientTransform="matrix(323 0 0 -173 99293.75 -519561.625)">
			<stop  offset="0" style="stop-color:#528BB0"/>
			<stop  offset="1" style="stop-color:#80B1D7"/>
		</linearGradient>
		<polygon fill="url(#SVGID_26_)" points="1113.351,0.858 754.809,0.858 1141.905,191.041 		"/>
		
			<linearGradient id="SVGID_27_" gradientUnits="userSpaceOnUse" x1="-305.1074" y1="-3003.9375" x2="-303.6139" y2="-3005.4312" gradientTransform="matrix(315 0 0 -167 97137.75 -501663.625)">
			<stop  offset="0" style="stop-color:#8CBEE3"/>
			<stop  offset="1" style="stop-color:#9AC4E8"/>
		</linearGradient>
		<polygon fill="url(#SVGID_27_)" points="1595.328,156.855 1220.713,0.858 1212.013,0.858 1113.351,0.858 1141.905,191.041 		"/>
		
			<linearGradient id="SVGID_28_" gradientUnits="userSpaceOnUse" x1="-305.7104" y1="-2986.2441" x2="-304.2159" y2="-2987.7388" gradientTransform="matrix(691 0 0 -839 212884 -2505567)">
			<stop  offset="0" style="stop-color:#A1CBF1"/>
			<stop  offset="1" style="stop-color:#A5CEF2"/>
		</linearGradient>
		<polygon fill="url(#SVGID_28_)" points="2668.325,1148.226 1988.496,0.858 1874.802,0.858 1595.328,156.855 		"/>
		
			<linearGradient id="SVGID_29_" gradientUnits="userSpaceOnUse" x1="-305.2871" y1="-2986.1836" x2="-303.8083" y2="-2987.6624" gradientTransform="matrix(619 0 0 -839 191015.5 -2505567)">
			<stop  offset="0" style="stop-color:#A7D1F6"/>
			<stop  offset="1" style="stop-color:#A4CCF1"/>
		</linearGradient>
		<polygon fill="url(#SVGID_29_)" points="2921.435,572.775 2034.221,0.858 1988.496,0.858 2668.325,1148.226 		"/>
		
			<linearGradient id="SVGID_30_" gradientUnits="userSpaceOnUse" x1="-305.6431" y1="-3007.2021" x2="-304.1719" y2="-3008.6733" gradientTransform="matrix(550 0 0 -143 169282.5 -430095.625)">
			<stop  offset="0" style="stop-color:#A0C6E8"/>
			<stop  offset="1" style="stop-color:#9EC8EB"/>
		</linearGradient>
		<polygon fill="url(#SVGID_30_)" points="1874.802,0.858 1794.433,0.858 1705.535,0.858 1661.585,0.858 1628.897,0.858 
			1573.278,0.858 1359.989,0.858 1220.713,0.858 1595.328,156.855 		"/>
		
			<linearGradient id="SVGID_31_" gradientUnits="userSpaceOnUse" x1="-305.147" y1="-2989.9736" x2="-303.6581" y2="-2991.4624" gradientTransform="matrix(619 0 0 -439 191015.5 -1312771.5)">
			<stop  offset="0" style="stop-color:#91BDE1"/>
			<stop  offset="1" style="stop-color:#94BFE4"/>
		</linearGradient>
		<polygon fill="url(#SVGID_31_)" points="2715.499,0.858 2701.93,0.858 2688.896,0.858 2626.618,0.858 2571.589,0.858 
			2541.87,0.858 2166.951,0.858 2141.385,0.858 2034.221,0.858 2921.435,572.775 		"/>
		
			<linearGradient id="SVGID_32_" gradientUnits="userSpaceOnUse" x1="-304.8271" y1="-2990.1768" x2="-303.3774" y2="-2991.6265" gradientTransform="matrix(590 0 0 -439 182586.5 -1312771.5)">
			<stop  offset="0" style="stop-color:#95BFE3"/>
			<stop  offset="1" style="stop-color:#A6C8E9"/>
		</linearGradient>
		<polygon fill="url(#SVGID_32_)" points="3553.442,0.858 2878.78,0.858 2839.03,0.858 2715.499,0.858 2921.435,572.775 		"/>
		
			<linearGradient id="SVGID_33_" gradientUnits="userSpaceOnUse" x1="-304.0176" y1="-2988.7246" x2="-302.5143" y2="-2990.2278" gradientTransform="matrix(445 0 0 -532 138216.5 -1590097.5)">
			<stop  offset="0" style="stop-color:#97C5EC"/>
			<stop  offset="1" style="stop-color:#9CC4E8"/>
		</linearGradient>
		<polygon fill="url(#SVGID_33_)" points="3113.983,705.243 3577.321,0.858 3553.442,0.858 2921.435,572.775 		"/>
		
			<linearGradient id="SVGID_34_" gradientUnits="userSpaceOnUse" x1="-303.3486" y1="-2988.9014" x2="-301.9056" y2="-2990.3442" gradientTransform="matrix(380 0 0 -532 118385.75 -1590097.5)">
			<stop  offset="0" style="stop-color:#A0CDF2"/>
			<stop  offset="1" style="stop-color:#98BEE1"/>
		</linearGradient>
		<polygon fill="url(#SVGID_34_)" points="3704.055,643.994 3619.461,0.858 3577.321,0.858 3113.983,705.243 		"/>
		
			<linearGradient id="SVGID_35_" gradientUnits="userSpaceOnUse" x1="-299.0093" y1="-2989.5703" x2="-297.5145" y2="-2991.0649" gradientTransform="matrix(192 0 0 -489 60990.625 -1461871.5)">
			<stop  offset="0" style="stop-color:#82AED3"/>
			<stop  offset="1" style="stop-color:#6EA8D3"/>
		</linearGradient>
		<polygon fill="url(#SVGID_35_)" points="3619.461,0.858 3704.055,643.994 3840,564.299 3840,522.759 3840,469.595 3840,413.315 
			3840,407.252 3840,402.584 3840,386.693 3640.098,0.858 		"/>
		
			<linearGradient id="SVGID_36_" gradientUnits="userSpaceOnUse" x1="-298.5786" y1="-2990.6973" x2="-297.09" y2="-2992.1858" gradientTransform="matrix(192 0 0 -404 60990.625 -1208401.5)">
			<stop  offset="0" style="stop-color:#8CB5D8"/>
			<stop  offset="1" style="stop-color:#7BACD2"/>
		</linearGradient>
		<polygon fill="url(#SVGID_36_)" points="3765.43,0.858 3640.098,0.858 3840,386.693 3840,14.923 3840,0.858 3768.443,0.858 		"/>
		
			<linearGradient id="SVGID_37_" gradientUnits="userSpaceOnUse" x1="-295.021" y1="-2994.9277" x2="-293.5619" y2="-2996.3867" gradientTransform="matrix(133 0 0 -294 42936.625 -879977.75)">
			<stop  offset="0" style="stop-color:#7EB6DB"/>
			<stop  offset="1" style="stop-color:#65AAD6"/>
		</linearGradient>
		<polygon fill="url(#SVGID_37_)" points="3758.403,941.69 3840,717.149 3840,625.259 3840,577.106 3840,564.299 3704.055,643.994 
					"/>
		
			<linearGradient id="SVGID_38_" gradientUnits="userSpaceOnUse" x1="-304.0889" y1="-2997.3369" x2="-302.6071" y2="-2998.8186" gradientTransform="matrix(518 0 0 -261 160740.5 -780919.75)">
			<stop  offset="0" style="stop-color:#247B96"/>
			<stop  offset="1" style="stop-color:#185062"/>
		</linearGradient>
		<polygon fill="url(#SVGID_38_)" points="3617.097,1823.384 3840,1531.769 3840,1457.261 3096.902,1525.688 		"/>
		
			<linearGradient id="SVGID_39_" gradientUnits="userSpaceOnUse" x1="-304.3247" y1="-2991.6357" x2="-302.8786" y2="-2993.0818" gradientTransform="matrix(518 0 0 -410 160740.5 -1225595.5)">
			<stop  offset="0" style="stop-color:#177798"/>
			<stop  offset="1" style="stop-color:#287496"/>
		</linearGradient>
		<polygon fill="url(#SVGID_39_)" points="3096.902,1525.688 3840,1457.261 3840,1334.696 3840,1296.64 3840,1274.466 
			3840,1263.284 3840,1232.941 3758.403,941.69 		"/>
		
			<linearGradient id="SVGID_40_" gradientUnits="userSpaceOnUse" x1="-298.5825" y1="-2996.4209" x2="-297.044" y2="-2997.9595" gradientTransform="matrix(183 0 0 -283 58230.625 -846523.75)">
			<stop  offset="0" style="stop-color:#143C4A"/>
			<stop  offset="1" style="stop-color:#0F3645"/>
		</linearGradient>
		<polygon fill="url(#SVGID_40_)" points="3794.118,1854.72 3840,1682.106 3840,1531.769 3617.097,1823.384 		"/>
		
			<linearGradient id="SVGID_41_" gradientUnits="userSpaceOnUse" x1="-290.5352" y1="-2987.8242" x2="-289.0297" y2="-2989.3296" gradientTransform="matrix(98 0 0 -652 32226.5 -1947533)">
			<stop  offset="0" style="stop-color:#51A9E0"/>
			<stop  offset="1" style="stop-color:#3E86AE"/>
		</linearGradient>
		<polygon fill="url(#SVGID_41_)" points="3840,1232.941 3840,1036.819 3840,717.149 3758.403,941.69 		"/>
		
			<linearGradient id="SVGID_42_" gradientUnits="userSpaceOnUse" x1="-302.3857" y1="-2997.4551" x2="-300.8871" y2="-2998.9539" gradientTransform="matrix(327 0 0 -269 102294.75 -804514.75)">
			<stop  offset="0" style="stop-color:#03262F"/>
			<stop  offset="1" style="stop-color:#081D26"/>
		</linearGradient>
		<polygon fill="url(#SVGID_42_)" points="3393.491,1927.363 3817.818,2160.663 3830.778,2160.663 3840,2160.663 3840,2132.882 
			3840,2123.937 3617.097,1823.384 		"/>
		
			<linearGradient id="SVGID_43_" gradientUnits="userSpaceOnUse" x1="-298.2217" y1="-2997.3262" x2="-296.7331" y2="-2998.8147" gradientTransform="matrix(183 0 0 -269 58230.625 -804514.75)">
			<stop  offset="0" style="stop-color:#0C2E3A"/>
			<stop  offset="1" style="stop-color:#02151F"/>
		</linearGradient>
		<polygon fill="url(#SVGID_43_)" points="3617.097,1823.384 3840,2123.937 3840,2005.375 3794.118,1854.72 		"/>
		
			<linearGradient id="SVGID_44_" gradientUnits="userSpaceOnUse" x1="-283.5259" y1="-2989.7871" x2="-282.0138" y2="-2991.2991" gradientTransform="matrix(69 0 0 -530 23346.625 -1583077.5)">
			<stop  offset="0" style="stop-color:#04232E"/>
			<stop  offset="1" style="stop-color:#0B2D39"/>
		</linearGradient>
		<polygon fill="url(#SVGID_44_)" points="3840,2005.375 3840,1682.106 3794.118,1854.72 		"/>
		
			<linearGradient id="SVGID_45_" gradientUnits="userSpaceOnUse" x1="-298.4697" y1="-2988.8721" x2="-296.9811" y2="-2990.3606" gradientTransform="matrix(158 0 0 -563 50064.625 -1681520.5)">
			<stop  offset="0" style="stop-color:#72AFC9"/>
			<stop  offset="1" style="stop-color:#1E687B"/>
		</linearGradient>
		<polygon fill="url(#SVGID_45_)" points="2854.663,1398.917 3087.716,2160.663 3099.824,2160.663 3096.902,1525.688 		"/>
		
			<linearGradient id="SVGID_46_" gradientUnits="userSpaceOnUse" x1="-299.9175" y1="-2990.7852" x2="-298.4126" y2="-2992.29" gradientTransform="matrix(191 0 0 -474 60351.625 -1416033.5)">
			<stop  offset="0" style="stop-color:#237C95"/>
			<stop  offset="1" style="stop-color:#093F4B"/>
		</linearGradient>
		<polygon fill="url(#SVGID_46_)" points="3096.902,1525.688 3099.824,2160.663 3143.129,2160.663 3393.491,1927.363 		"/>
		
			<linearGradient id="SVGID_47_" gradientUnits="userSpaceOnUse" x1="-304.438" y1="-3003.6328" x2="-302.9638" y2="-3005.1069" gradientTransform="matrix(516 0 0 -196 160128.5 -586755.625)">
			<stop  offset="0" style="stop-color:#03242C"/>
			<stop  offset="1" style="stop-color:#001117"/>
		</linearGradient>
		<polygon fill="url(#SVGID_47_)" points="3143.129,2160.663 3247.88,2160.663 3410.818,2160.663 3435.02,2160.663 
			3725.12,2160.663 3817.818,2160.663 3393.491,1927.363 		"/>
		
			<linearGradient id="SVGID_48_" gradientUnits="userSpaceOnUse" x1="-305.1792" y1="-3020.7256" x2="-303.7054" y2="-3022.1995" gradientTransform="matrix(446 0 0 -110 137684.5 -330221.5625)">
			<stop  offset="0" style="stop-color:#032633"/>
			<stop  offset="1" style="stop-color:#02333F"/>
		</linearGradient>
		<polygon fill="url(#SVGID_48_)" points="1631.313,2160.663 1639.968,2160.663 1793.817,2160.663 1951.302,2160.663 
			2200.071,2160.663 1877.941,2044.163 		"/>
		
			<linearGradient id="SVGID_49_" gradientUnits="userSpaceOnUse" x1="-303.7344" y1="-2991.623" x2="-302.2576" y2="-2993.0999" gradientTransform="matrix(279 0 0 -434 86582.75 -1296713.5)">
			<stop  offset="0" style="stop-color:#136372"/>
			<stop  offset="1" style="stop-color:#12667B"/>
		</linearGradient>
		<polygon fill="url(#SVGID_49_)" points="1877.941,2044.163 2200.071,2160.663 2291.798,2160.663 2013.036,1582.663 		"/>
		
			<linearGradient id="SVGID_50_" gradientUnits="userSpaceOnUse" x1="-301.7266" y1="-2990.5039" x2="-300.235" y2="-2991.9954" gradientTransform="matrix(192 0 0 -476 59960.625 -1421999.5)">
			<stop  offset="0" style="stop-color:#2687A3"/>
			<stop  offset="1" style="stop-color:#4C879B"/>
		</linearGradient>
		<polygon fill="url(#SVGID_50_)" points="2013.036,1582.663 2291.798,2160.663 2298.845,2160.663 2103.099,1522.839 		"/>
		
			<linearGradient id="SVGID_51_" gradientUnits="userSpaceOnUse" x1="-304.7256" y1="-2989.0469" x2="-303.2695" y2="-2990.5029" gradientTransform="matrix(484 0 0 -563 149662.5 -1681520.5)">
			<stop  offset="0" style="stop-color:#5FABC9"/>
			<stop  offset="1" style="stop-color:#44869F"/>
		</linearGradient>
		<polygon fill="url(#SVGID_51_)" points="2103.099,1522.839 2298.845,2160.663 2338.409,2160.663 2854.663,1398.917 		"/>
		
			<linearGradient id="SVGID_52_" gradientUnits="userSpaceOnUse" x1="-304.8516" y1="-2989.291" x2="-303.3967" y2="-2990.7458" gradientTransform="matrix(508 0 0 -563 157164.5 -1681520.5)">
			<stop  offset="0" style="stop-color:#66A6C4"/>
			<stop  offset="1" style="stop-color:#074352"/>
		</linearGradient>
		<polygon fill="url(#SVGID_52_)" points="2338.409,2160.663 2542.721,2160.663 2687.253,2160.663 3087.716,2160.663 
			2854.663,1398.917 		"/>
		
			<linearGradient id="SVGID_53_" gradientUnits="userSpaceOnUse" x1="-305.7725" y1="-2993.8691" x2="-304.2818" y2="-2995.3599" gradientTransform="matrix(447 0 0 -353 137544.5 -1055092.75)">
			<stop  offset="0" style="stop-color:#021A26"/>
			<stop  offset="1" style="stop-color:#04212C"/>
		</linearGradient>
		<polygon fill="url(#SVGID_53_)" points="1176.076,2160.663 1579.172,2160.663 1609.793,2160.663 924.51,1695.188 		"/>
		
			<linearGradient id="SVGID_54_" gradientUnits="userSpaceOnUse" x1="-303.7222" y1="-2993.9355" x2="-302.2336" y2="-2995.4241" gradientTransform="matrix(175 0 0 -353 54040.625 -1055092.75)">
			<stop  offset="0" style="stop-color:#000B14"/>
			<stop  offset="1" style="stop-color:#020B10"/>
		</linearGradient>
		<polygon fill="url(#SVGID_54_)" points="975.753,2126.777 1080.667,2160.663 1176.076,2160.663 924.51,1695.188 		"/>
		
			<linearGradient id="SVGID_55_" gradientUnits="userSpaceOnUse" x1="-305.8765" y1="-2993.666" x2="-304.4404" y2="-2995.1021" gradientTransform="matrix(400 0 0 -355 122748.75 -1061056.75)">
			<stop  offset="0" style="stop-color:#02131D"/>
			<stop  offset="1" style="stop-color:#02070C"/>
		</linearGradient>
		<polygon fill="url(#SVGID_55_)" points="924.51,1695.188 399.912,2160.663 594.849,2160.663 691.589,2160.663 975.753,2126.777 		
			"/>
		
			<linearGradient id="SVGID_56_" gradientUnits="userSpaceOnUse" x1="-305.9346" y1="-3063.8818" x2="-304.4827" y2="-3065.3337" gradientTransform="matrix(542 0 0 -52 166342.5 -157207.625)">
			<stop  offset="0" style="stop-color:#02060A"/>
			<stop  offset="1" style="stop-color:#020C10"/>
		</linearGradient>
		<polygon fill="url(#SVGID_56_)" points="691.589,2160.663 718.22,2160.663 1080.667,2160.663 975.753,2126.777 		"/>
		
			<linearGradient id="SVGID_57_" gradientUnits="userSpaceOnUse" x1="-306.291" y1="-2993.4834" x2="-304.8173" y2="-2994.957" gradientTransform="matrix(553 0 0 -355 169533.5 -1061056.75)">
			<stop  offset="0" style="stop-color:#01060D"/>
			<stop  offset="1" style="stop-color:#000913"/>
		</linearGradient>
		<polygon fill="url(#SVGID_57_)" points="65.803,1928.788 311.969,2160.663 367.406,2160.663 399.912,2160.663 924.51,1695.188 		
			"/>
		
			<linearGradient id="SVGID_58_" gradientUnits="userSpaceOnUse" x1="-306.1123" y1="-3003.752" x2="-304.6335" y2="-3005.2307" gradientTransform="matrix(258 0 0 -195 78896.625 -583772.625)">
			<stop  offset="0" style="stop-color:#000308"/>
			<stop  offset="1" style="stop-color:#000105"/>
		</linearGradient>
		<polygon fill="url(#SVGID_58_)" points="0.002,2092.261 0.002,2160.663 32.016,2160.663 83.598,2160.663 311.969,2160.663 
			65.803,1928.788 		"/>
		
			<linearGradient id="SVGID_59_" gradientUnits="userSpaceOnUse" x1="-303.3008" y1="-2990.4453" x2="-301.7959" y2="-2991.9502" gradientTransform="matrix(72 0 0 -482 21794.5 -1439893.5)">
			<stop  offset="0" style="stop-color:#00040A"/>
			<stop  offset="1" style="stop-color:#010D17"/>
		</linearGradient>
		<polygon fill="url(#SVGID_59_)" points="0.002,1688.189 0.002,2029.866 0.002,2092.261 65.803,1928.788 		"/>
		
			<linearGradient id="SVGID_60_" gradientUnits="userSpaceOnUse" x1="-306.0879" y1="-2990.0459" x2="-304.6285" y2="-2991.5051" gradientTransform="matrix(328 0 0 -490 100386.75 -1463952.5)">
			<stop  offset="0" style="stop-color:#021823"/>
			<stop  offset="1" style="stop-color:#335972"/>
		</linearGradient>
		<polygon fill="url(#SVGID_60_)" points="463.324,1230.84 0.002,1493.875 0.002,1688.189 65.803,1928.788 		"/>
		
			<linearGradient id="SVGID_61_" gradientUnits="userSpaceOnUse" x1="-306.3901" y1="-2989.1719" x2="-304.9195" y2="-2990.6426" gradientTransform="matrix(674 0 0 -512 206610 -1530068.5)">
			<stop  offset="0" style="stop-color:#87B6DD"/>
			<stop  offset="1" style="stop-color:#6195BB"/>
		</linearGradient>
		<polygon fill="url(#SVGID_61_)" points="1003.704,501.556 0.002,598.543 0.002,655.915 463.324,1230.84 		"/>
		
			<linearGradient id="SVGID_62_" gradientUnits="userSpaceOnUse" x1="-306.6777" y1="-2989.9668" x2="-305.216" y2="-2991.4285" gradientTransform="matrix(674 0 0 -462 206610 -1381359.5)">
			<stop  offset="0" style="stop-color:#4882A9"/>
			<stop  offset="1" style="stop-color:#578CB2"/>
		</linearGradient>
		<polygon fill="url(#SVGID_62_)" points="677.036,0.858 668.827,0.858 631.492,0.858 581.958,0.858 0.002,561.373 0.002,598.543 
			1003.704,501.556 		"/>
		
			<linearGradient id="SVGID_63_" gradientUnits="userSpaceOnUse" x1="-306.3647" y1="-2988.0928" x2="-304.8643" y2="-2989.5933" gradientTransform="matrix(328 0 0 -644 100386.75 -1923621)">
			<stop  offset="0" style="stop-color:#2F5A79"/>
			<stop  offset="1" style="stop-color:#679CC6"/>
		</linearGradient>
		<polygon fill="url(#SVGID_63_)" points="0.002,655.915 0.002,715.687 0.002,726.052 0.002,742.007 0.002,931.31 0.002,946.13 
			0.002,1140.976 0.002,1155.792 0.002,1169.601 0.002,1195.71 0.002,1493.875 463.324,1230.84 		"/>
		
			<linearGradient id="SVGID_64_" gradientUnits="userSpaceOnUse" x1="-306.3833" y1="-2989.8193" x2="-304.8294" y2="-2991.3733" gradientTransform="matrix(440 0 0 -462 134772.5 -1381359.5)">
			<stop  offset="0" style="stop-color:#4B80A3"/>
			<stop  offset="1" style="stop-color:#4C84AC"/>
		</linearGradient>
		<polygon fill="url(#SVGID_64_)" points="265.544,0.858 107.75,0.858 0.002,0.858 0.002,3.397 0.002,68.669 0.002,481.452 
			0.002,561.373 581.958,0.858 		"/>
	</g>
</g>
<g id="Layer_24">
</g>
<g id="Layer_25">
</g>
</svg>
