<?xml version="1.0" encoding="utf-8"?>
<!-- Generator: Adobe Illustrator 16.0.0, SVG Export Plug-In . SVG Version: 6.00 Build 0)  -->
<!DOCTYPE svg PUBLIC "-//W3C//DTD SVG 1.1//EN" "http://www.w3.org/Graphics/SVG/1.1/DTD/svg11.dtd">
<svg version="1.1" xmlns="http://www.w3.org/2000/svg" xmlns:xlink="http://www.w3.org/1999/xlink" x="0px" y="0px" width="3840px"
	 height="2160px" viewBox="0 0 3840 2160" enable-background="new 0 0 3840 2160" xml:space="preserve">
<g id="Layer_1">
</g>
<g id="Layer_2">
</g>
<g id="Layer_3">
</g>
<g id="Layer_4">
</g>
<g id="Layer_5">
</g>
<g id="Layer_6">
</g>
<g id="Layer_7">
</g>
<g id="Layer_8">
</g>
<g id="Layer_9">
	<g>
		
			<linearGradient id="SVGID_1_" gradientUnits="userSpaceOnUse" x1="7396.4297" y1="3566.0918" x2="7398.3628" y2="3564.1587" gradientTransform="matrix(432 0 0 -307 -3194763.5 1095707.25)">
			<stop  offset="0" style="stop-color:#CC8B47"/>
			<stop  offset="1" style="stop-color:#D08E53"/>
		</linearGradient>
		<polygon fill="url(#SVGID_1_)" points="448.472,1243.364 575.909,1537.63 1336.422,954.794 		"/>
		
			<linearGradient id="SVGID_2_" gradientUnits="userSpaceOnUse" x1="7340.2559" y1="3575.0967" x2="7342.2524" y2="3573.1001" gradientTransform="matrix(96 0 0 -117 -703795.5 420202.4375)">
			<stop  offset="0" style="stop-color:#CDAE8E"/>
			<stop  offset="1" style="stop-color:#C7A07F"/>
		</linearGradient>
		<polygon fill="url(#SVGID_2_)" points="1056.882,2154.64 978.775,1932.517 859.56,2021.745 		"/>
		
			<linearGradient id="SVGID_3_" gradientUnits="userSpaceOnUse" x1="7399.5161" y1="3574.2383" x2="7401.4438" y2="3572.3108" gradientTransform="matrix(537 0 0 -152 -3973233.5 544217.375)">
			<stop  offset="0" style="stop-color:#D6AE86"/>
			<stop  offset="1" style="stop-color:#E8A578"/>
		</linearGradient>
		<polygon fill="url(#SVGID_3_)" points="232.651,994.662 448.472,1243.364 1336.422,954.794 		"/>
		
			<linearGradient id="SVGID_4_" gradientUnits="userSpaceOnUse" x1="7393.7793" y1="3564.4561" x2="7395.7329" y2="3562.5022" gradientTransform="matrix(370 0 0 -386 -2735095.25 1376789.25)">
			<stop  offset="0" style="stop-color:#BF7A3B"/>
			<stop  offset="1" style="stop-color:#C0713E"/>
		</linearGradient>
		<polygon fill="url(#SVGID_4_)" points="575.909,1537.63 660.182,1687.611 1336.422,954.794 		"/>
		
			<linearGradient id="SVGID_5_" gradientUnits="userSpaceOnUse" x1="7367.2354" y1="3569.9434" x2="7369.2246" y2="3567.9543" gradientTransform="matrix(155 0 0 -176 -1141259.375 629995.375)">
			<stop  offset="0" style="stop-color:#EAD3B9"/>
			<stop  offset="1" style="stop-color:#BE8E71"/>
		</linearGradient>
		<polygon fill="url(#SVGID_5_)" points="859.56,2021.745 978.775,1932.517 660.182,1687.611 		"/>
		
			<linearGradient id="SVGID_6_" gradientUnits="userSpaceOnUse" x1="7391.5527" y1="3562.9473" x2="7393.5537" y2="3560.9463" gradientTransform="matrix(329 0 0 -515 -2431121.25 1835771.5)">
			<stop  offset="0" style="stop-color:#B27347"/>
			<stop  offset="1" style="stop-color:#C56C3A"/>
		</linearGradient>
		<polygon fill="url(#SVGID_6_)" points="660.182,1687.611 978.775,1932.517 1336.422,954.794 		"/>
		
			<linearGradient id="SVGID_7_" gradientUnits="userSpaceOnUse" x1="7391.5337" y1="3583.8672" x2="7393.5459" y2="3581.855" gradientTransform="matrix(309 0 0 -113 -2282428.25 404927.4375)">
			<stop  offset="0" style="stop-color:#BB6D3F"/>
			<stop  offset="1" style="stop-color:#AD6244"/>
		</linearGradient>
		<polygon fill="url(#SVGID_7_)" points="2185.318,34.026 1911.478,-1.171 1794.432,-1.171 1705.534,-1.171 1661.584,-1.171 
			1628.896,-1.171 1592.9,-1.171 1747.509,166.921 		"/>
		
			<linearGradient id="SVGID_8_" gradientUnits="userSpaceOnUse" x1="7393.1182" y1="3571.2412" x2="7395.1099" y2="3569.2495" gradientTransform="matrix(326 0 0 -221 -2408353.25 789234.375)">
			<stop  offset="0" style="stop-color:#CE8366"/>
			<stop  offset="1" style="stop-color:#B3441D"/>
		</linearGradient>
		<polygon fill="url(#SVGID_8_)" points="1747.509,166.921 2417.582,453.593 2185.318,34.026 		"/>
		
			<linearGradient id="SVGID_9_" gradientUnits="userSpaceOnUse" x1="7398.438" y1="3564.5176" x2="7400.396" y2="3562.5593" gradientTransform="matrix(471 0 0 -415 -3483438.5 1479556.5)">
			<stop  offset="0" style="stop-color:#A66D43"/>
			<stop  offset="1" style="stop-color:#B78D69"/>
		</linearGradient>
		<polygon fill="url(#SVGID_9_)" points="2304.533,905.434 1747.509,166.921 1336.422,954.794 		"/>
		
			<linearGradient id="SVGID_10_" gradientUnits="userSpaceOnUse" x1="7393.2295" y1="3565.5293" x2="7395.1992" y2="3563.5596" gradientTransform="matrix(326 0 0 -389 -2408353.25 1387048.25)">
			<stop  offset="0" style="stop-color:#F9CFA0"/>
			<stop  offset="1" style="stop-color:#E5995D"/>
		</linearGradient>
		<polygon fill="url(#SVGID_10_)" points="2304.533,905.434 2417.582,453.593 1747.509,166.921 		"/>
		
			<linearGradient id="SVGID_11_" gradientUnits="userSpaceOnUse" x1="7395.3979" y1="3562.4785" x2="7397.3555" y2="3560.5208" gradientTransform="matrix(399 0 0 -515 -2949876.25 1835771.5)">
			<stop  offset="0" style="stop-color:#855736"/>
			<stop  offset="1" style="stop-color:#AE5A2E"/>
		</linearGradient>
		<polygon fill="url(#SVGID_11_)" points="978.775,1932.517 1798.895,1866.069 1336.422,954.794 		"/>
		
			<linearGradient id="SVGID_12_" gradientUnits="userSpaceOnUse" x1="7379.4634" y1="3574.3711" x2="7381.4438" y2="3572.3909" gradientTransform="matrix(195 0 0 -122 -1437225.375 437957.4375)">
			<stop  offset="0" style="stop-color:#916C49"/>
			<stop  offset="1" style="stop-color:#9A5C37"/>
		</linearGradient>
		<polygon fill="url(#SVGID_12_)" points="1992.106,2097.685 2199.706,2078.7 1798.895,1866.069 		"/>
		
			<linearGradient id="SVGID_13_" gradientUnits="userSpaceOnUse" x1="7316.8271" y1="3567.2324" x2="7318.8574" y2="3565.2021" gradientTransform="matrix(65 0 0 -294 -473289.4063 1049189.25)">
			<stop  offset="0" style="stop-color:#D88A53"/>
			<stop  offset="1" style="stop-color:#E1874F"/>
		</linearGradient>
		<polygon fill="url(#SVGID_13_)" points="2438.137,1011.749 2417.582,453.593 2304.533,905.434 		"/>
		
			<linearGradient id="SVGID_14_" gradientUnits="userSpaceOnUse" x1="7396.3711" y1="3563.501" x2="7398.3481" y2="3561.5239" gradientTransform="matrix(378 0 0 -467 -2793503.25 1664723.5)">
			<stop  offset="0" style="stop-color:#D67E48"/>
			<stop  offset="1" style="stop-color:#C36232"/>
		</linearGradient>
		<polygon fill="url(#SVGID_14_)" points="3194.539,1340.188 2417.582,453.593 2438.137,1011.749 		"/>
		
			<linearGradient id="SVGID_15_" gradientUnits="userSpaceOnUse" x1="7396.1665" y1="3566.6699" x2="7398.1616" y2="3564.6746" gradientTransform="matrix(368 0 0 -278 -2719363.25 992555.25)">
			<stop  offset="0" style="stop-color:#9D481E"/>
			<stop  offset="1" style="stop-color:#C65C2B"/>
		</linearGradient>
		<polygon fill="url(#SVGID_15_)" points="2767.007,1539.529 3194.539,1340.188 2438.137,1011.749 		"/>
		
			<linearGradient id="SVGID_16_" gradientUnits="userSpaceOnUse" x1="7385.5767" y1="3566.0928" x2="7387.5806" y2="3564.0891" gradientTransform="matrix(231 0 0 -261 -1703898.375 932370.25)">
			<stop  offset="0" style="stop-color:#8E6D4B"/>
			<stop  offset="1" style="stop-color:#9C6A41"/>
		</linearGradient>
		<polygon fill="url(#SVGID_16_)" points="2199.706,2078.7 2674.512,1765.449 2318.921,1583.194 		"/>
		
			<linearGradient id="SVGID_17_" gradientUnits="userSpaceOnUse" x1="7316.8506" y1="3564.9385" x2="7318.8848" y2="3562.9043" gradientTransform="matrix(65 0 0 -357 -473289.4063 1273581.25)">
			<stop  offset="0" style="stop-color:#D7824B"/>
			<stop  offset="1" style="stop-color:#C46C3D"/>
		</linearGradient>
		<polygon fill="url(#SVGID_17_)" points="2438.137,1011.749 2304.533,905.434 2318.921,1583.194 		"/>
		
			<linearGradient id="SVGID_18_" gradientUnits="userSpaceOnUse" x1="7384.0332" y1="3565.6885" x2="7386.0015" y2="3563.7205" gradientTransform="matrix(218 0 0 -301 -1607471.375 1074389.25)">
			<stop  offset="0" style="stop-color:#D27D48"/>
			<stop  offset="1" style="stop-color:#96542E"/>
		</linearGradient>
		<polygon fill="url(#SVGID_18_)" points="2318.921,1583.194 2767.007,1539.529 2438.137,1011.749 		"/>
		
			<linearGradient id="SVGID_19_" gradientUnits="userSpaceOnUse" x1="7384.7734" y1="3576.665" x2="7386.7495" y2="3574.6887" gradientTransform="matrix(218 0 0 -119 -1607471.375 427111.4375)">
			<stop  offset="0" style="stop-color:#D79659"/>
			<stop  offset="1" style="stop-color:#A05B31"/>
		</linearGradient>
		<polygon fill="url(#SVGID_19_)" points="2674.512,1765.449 2767.007,1539.529 2318.921,1583.194 		"/>
		
			<linearGradient id="SVGID_20_" gradientUnits="userSpaceOnUse" x1="7399.3516" y1="3565.3936" x2="7401.3315" y2="3563.4136" gradientTransform="matrix(478 0 0 -357 -3535329.5 1273581.25)">
			<stop  offset="0" style="stop-color:#C27E4D"/>
			<stop  offset="1" style="stop-color:#A8663B"/>
		</linearGradient>
		<polygon fill="url(#SVGID_20_)" points="2318.921,1583.194 2304.533,905.434 1336.422,954.794 		"/>
		
			<linearGradient id="SVGID_21_" gradientUnits="userSpaceOnUse" x1="7398.8369" y1="3563.0518" x2="7400.8281" y2="3561.0603" gradientTransform="matrix(478 0 0 -480 -3535329.5 1711241.5)">
			<stop  offset="0" style="stop-color:#BD7241"/>
			<stop  offset="1" style="stop-color:#9C4721"/>
		</linearGradient>
		<polygon fill="url(#SVGID_21_)" points="1336.422,954.794 1798.895,1866.069 2318.921,1583.194 		"/>
		
			<linearGradient id="SVGID_22_" gradientUnits="userSpaceOnUse" x1="7387.48" y1="3566.5068" x2="7389.4795" y2="3564.5076" gradientTransform="matrix(253 0 0 -261 -1867179.375 932370.25)">
			<stop  offset="0" style="stop-color:#833717"/>
			<stop  offset="1" style="stop-color:#815235"/>
		</linearGradient>
		<polygon fill="url(#SVGID_22_)" points="1798.895,1866.069 2199.706,2078.7 2318.921,1583.194 		"/>
		
			<linearGradient id="SVGID_23_" gradientUnits="userSpaceOnUse" x1="7399.2056" y1="3564.7852" x2="7401.1558" y2="3562.8347" gradientTransform="matrix(537 0 0 -397 -3973233.5 1415551.5)">
			<stop  offset="0" style="stop-color:#C97140"/>
			<stop  offset="1" style="stop-color:#A96C3E"/>
		</linearGradient>
		<polygon fill="url(#SVGID_23_)" points="820.506,240.962 232.651,994.662 1336.422,954.794 		"/>
		
			<linearGradient id="SVGID_24_" gradientUnits="userSpaceOnUse" x1="7394.7686" y1="3565.2129" x2="7396.7485" y2="3563.2329" gradientTransform="matrix(405 0 0 -397 -2994836.25 1415551.5)">
			<stop  offset="0" style="stop-color:#783721"/>
			<stop  offset="1" style="stop-color:#945331"/>
		</linearGradient>
		<polygon fill="url(#SVGID_24_)" points="820.506,240.962 0,781.751 0,799.64 232.651,994.662 		"/>
		
			<linearGradient id="SVGID_25_" gradientUnits="userSpaceOnUse" x1="7394.5269" y1="3564.501" x2="7396.5264" y2="3562.5015" gradientTransform="matrix(405 0 0 -441 -2994836.25 1571951.5)">
			<stop  offset="0" style="stop-color:#611102"/>
			<stop  offset="1" style="stop-color:#4B1908"/>
		</linearGradient>
		<polygon fill="url(#SVGID_25_)" points="385.889,-1.171 285.093,-1.171 0,757.82 0,781.751 820.506,240.962 		"/>
		
			<linearGradient id="SVGID_26_" gradientUnits="userSpaceOnUse" x1="7397.7729" y1="3565.1221" x2="7399.731" y2="3563.1638" gradientTransform="matrix(451 0 0 -415 -3335429.5 1479556.5)">
			<stop  offset="0" style="stop-color:#DAA77B"/>
			<stop  offset="1" style="stop-color:#B2977B"/>
		</linearGradient>
		<polygon fill="url(#SVGID_26_)" points="1747.509,166.921 820.506,240.962 1336.422,954.794 		"/>
		
			<linearGradient id="SVGID_27_" gradientUnits="userSpaceOnUse" x1="7397.3755" y1="3577.0459" x2="7399.3091" y2="3575.1125" gradientTransform="matrix(451 0 0 -152 -3335429.5 543689.375)">
			<stop  offset="0" style="stop-color:#AC7743"/>
			<stop  offset="1" style="stop-color:#916E4E"/>
		</linearGradient>
		<polygon fill="url(#SVGID_27_)" points="1747.509,166.921 1592.9,-1.171 1573.277,-1.171 1432.765,-1.171 820.506,240.962 		"/>
		
			<linearGradient id="SVGID_28_" gradientUnits="userSpaceOnUse" x1="7369.6973" y1="3564.6201" x2="7371.6113" y2="3562.7061" gradientTransform="matrix(172 0 0 -447 -1267626.375 1593293.5)">
			<stop  offset="0" style="stop-color:#852309"/>
			<stop  offset="1" style="stop-color:#661B07"/>
		</linearGradient>
		<polygon fill="url(#SVGID_28_)" points="265.543,-1.171 107.748,-1.171 0,-1.171 0,1.367 0,66.64 0,479.423 0,713.657 0,724.022 
			0,739.977 0,757.82 285.093,-1.171 		"/>
		
			<linearGradient id="SVGID_29_" gradientUnits="userSpaceOnUse" x1="7392.6079" y1="3576.8096" x2="7394.5732" y2="3574.844" gradientTransform="matrix(352 0 0 -158 -2601794.25 565031.375)">
			<stop  offset="0" style="stop-color:#531201"/>
			<stop  offset="1" style="stop-color:#956043"/>
		</linearGradient>
		<polygon fill="url(#SVGID_29_)" points="986.424,-1.171 683.25,-1.171 668.826,-1.171 631.492,-1.171 385.889,-1.171 
			820.506,240.962 		"/>
		
			<linearGradient id="SVGID_30_" gradientUnits="userSpaceOnUse" x1="7393.1104" y1="3576.3848" x2="7395.1577" y2="3574.3372" gradientTransform="matrix(355 0 0 -158 -2623781.25 565031.375)">
			<stop  offset="0" style="stop-color:#79502A"/>
			<stop  offset="1" style="stop-color:#D3AA7A"/>
		</linearGradient>
		<polygon fill="url(#SVGID_30_)" points="1432.765,-1.171 1359.988,-1.171 1212.012,-1.171 986.424,-1.171 820.506,240.962 		"/>
		
			<linearGradient id="SVGID_31_" gradientUnits="userSpaceOnUse" x1="7394.6602" y1="3569.0381" x2="7396.6035" y2="3567.0947" gradientTransform="matrix(342 0 0 -268 -2526748.25 956413.25)">
			<stop  offset="0" style="stop-color:#931E02"/>
			<stop  offset="1" style="stop-color:#BB4E26"/>
		</linearGradient>
		<polygon fill="url(#SVGID_31_)" points="2417.582,453.593 2838.292,-1.171 2701.929,-1.171 2688.894,-1.171 2626.617,-1.171 
			2571.588,-1.171 2541.869,-1.171 2462.606,-1.171 2185.318,34.026 		"/>
		
			<linearGradient id="SVGID_32_" gradientUnits="userSpaceOnUse" x1="7402.6343" y1="3620.0596" x2="7404.5864" y2="3618.1074" gradientTransform="matrix(651 0 0 -47 -4817675 170095.375)">
			<stop  offset="0" style="stop-color:#BD683F"/>
			<stop  offset="1" style="stop-color:#99280B"/>
		</linearGradient>
		<polygon fill="url(#SVGID_32_)" points="2462.606,-1.171 2166.95,-1.171 2141.384,-1.171 1911.478,-1.171 2185.318,34.026 		"/>
		
			<linearGradient id="SVGID_33_" gradientUnits="userSpaceOnUse" x1="7400.8428" y1="3601.2119" x2="7402.811" y2="3599.2437" gradientTransform="matrix(482 0 0 -68 -3564226.5 244812.5)">
			<stop  offset="0" style="stop-color:#C33B14"/>
			<stop  offset="1" style="stop-color:#881F07"/>
		</linearGradient>
		<polygon fill="url(#SVGID_33_)" points="3765.43,-1.171 3219.19,-1.171 3667.29,71.996 3787.277,-1.171 3768.443,-1.171 		"/>
		
			<linearGradient id="SVGID_34_" gradientUnits="userSpaceOnUse" x1="7404.1494" y1="3564.5166" x2="7406.1113" y2="3562.5547" gradientTransform="matrix(709 0 0 -439 -5247207 1564831.5)">
			<stop  offset="0" style="stop-color:#F18D57"/>
			<stop  offset="1" style="stop-color:#E56B3D"/>
		</linearGradient>
		<polygon fill="url(#SVGID_34_)" points="2878.779,-1.171 2839.029,-1.171 2838.292,-1.171 2417.582,453.593 3840,770.463 
			3840,748.762 2952.241,-1.171 		"/>
		
			<linearGradient id="SVGID_35_" gradientUnits="userSpaceOnUse" x1="7404.3965" y1="3563.8779" x2="7406.3496" y2="3561.9248" gradientTransform="matrix(709 0 0 -467 -5247207 1664723.5)">
			<stop  offset="0" style="stop-color:#D06937"/>
			<stop  offset="1" style="stop-color:#CA5124"/>
		</linearGradient>
		<polygon fill="url(#SVGID_35_)" points="3194.539,1340.188 3840,807.052 3840,770.463 2417.582,453.593 		"/>
		
			<linearGradient id="SVGID_36_" gradientUnits="userSpaceOnUse" x1="7400.938" y1="3564.999" x2="7402.915" y2="3563.022" gradientTransform="matrix(480 0 0 -439 -3549400.5 1564831.5)">
			<stop  offset="0" style="stop-color:#D9622F"/>
			<stop  offset="1" style="stop-color:#C7572B"/>
		</linearGradient>
		<polygon fill="url(#SVGID_36_)" points="3219.19,-1.171 2952.241,-1.171 3840,748.762 3840,659.545 3667.29,71.996 		"/>
		
			<linearGradient id="SVGID_37_" gradientUnits="userSpaceOnUse" x1="7359.4121" y1="3564.9697" x2="7361.395" y2="3562.9871" gradientTransform="matrix(103 0 0 -440 -754320.5 1568388.5)">
			<stop  offset="0" style="stop-color:#7B1905"/>
			<stop  offset="1" style="stop-color:#AB3A1A"/>
		</linearGradient>
		<polygon fill="url(#SVGID_37_)" points="3840,659.545 3840,623.229 3840,575.077 3840,520.729 3840,467.565 3840,411.286 
			3840,405.222 3840,400.554 3840,12.893 3840,-1.171 3787.277,-1.171 3667.29,71.996 		"/>
		
			<linearGradient id="SVGID_38_" gradientUnits="userSpaceOnUse" x1="7395.8696" y1="3561.6816" x2="7397.8657" y2="3559.6855" gradientTransform="matrix(333 0 0 -750 -2459540.25 2671809)">
			<stop  offset="0" style="stop-color:#993E19"/>
			<stop  offset="1" style="stop-color:#D88B68"/>
		</linearGradient>
		<polygon fill="url(#SVGID_38_)" points="3840,2152.99 3840,2130.853 3840,1332.665 3840,1294.609 3840,1272.436 3840,1261.255 
			3840,1034.789 3840,807.052 3194.539,1340.188 		"/>
		
			<linearGradient id="SVGID_39_" gradientUnits="userSpaceOnUse" x1="7396.0649" y1="3566.9111" x2="7398.0063" y2="3564.9695" gradientTransform="matrix(372 0 0 -230 -2749131.25 822168.375)">
			<stop  offset="0" style="stop-color:#987857"/>
			<stop  offset="1" style="stop-color:#967046"/>
		</linearGradient>
		<polygon fill="url(#SVGID_39_)" points="2199.706,2078.7 2694.981,2158.632 2935.478,2158.632 2674.512,1765.449 		"/>
		
			<linearGradient id="SVGID_40_" gradientUnits="userSpaceOnUse" x1="7370.0239" y1="3564.208" x2="7371.9912" y2="3562.2407" gradientTransform="matrix(141 0 0 -349 -1036497.375 1245451.25)">
			<stop  offset="0" style="stop-color:#B17C47"/>
			<stop  offset="1" style="stop-color:#7B4922"/>
		</linearGradient>
		<polygon fill="url(#SVGID_40_)" points="2674.512,1765.449 2935.478,2158.632 2951.384,2158.632 2767.007,1539.529 		"/>
		
			<linearGradient id="SVGID_41_" gradientUnits="userSpaceOnUse" x1="7384.3667" y1="3563.2793" x2="7386.3242" y2="3561.322" gradientTransform="matrix(208 0 0 -454 -1533123.375 1618936.5)">
			<stop  offset="0" style="stop-color:#712D0F"/>
			<stop  offset="1" style="stop-color:#823916"/>
		</linearGradient>
		<polygon fill="url(#SVGID_41_)" points="2767.007,1539.529 2951.384,2158.632 2975.939,2158.632 3194.539,1340.188 		"/>
		
			<linearGradient id="SVGID_42_" gradientUnits="userSpaceOnUse" x1="7399.4106" y1="3562.6621" x2="7401.3765" y2="3560.6965" gradientTransform="matrix(445 0 0 -454 -3289908.5 1618936.5)">
			<stop  offset="0" style="stop-color:#D2977F"/>
			<stop  offset="1" style="stop-color:#CDB8A3"/>
		</linearGradient>
		<polygon fill="url(#SVGID_42_)" points="2975.939,2158.632 3247.879,2158.632 3410.818,2158.632 3435.02,2158.632 
			3725.12,2158.632 3830.779,2158.632 3840,2158.632 3840,2152.99 3194.539,1340.188 		"/>
		
			<linearGradient id="SVGID_43_" gradientUnits="userSpaceOnUse" x1="7402.4849" y1="3586.9717" x2="7404.4424" y2="3585.0139" gradientTransform="matrix(625 0 0 -66 -4624873.5 238821.5)">
			<stop  offset="0" style="stop-color:#90704E"/>
			<stop  offset="1" style="stop-color:#906D48"/>
		</linearGradient>
		<polygon fill="url(#SVGID_43_)" points="1867.969,2158.632 1951.301,2158.632 2542.719,2158.632 2687.251,2158.632 
			2694.981,2158.632 2199.706,2078.7 		"/>
		
			<linearGradient id="SVGID_44_" gradientUnits="userSpaceOnUse" x1="7392.3735" y1="3571.5762" x2="7394.3506" y2="3569.5991" gradientTransform="matrix(341 0 0 -143 -2519922.25 512710.375)">
			<stop  offset="0" style="stop-color:#614832"/>
			<stop  offset="1" style="stop-color:#785438"/>
		</linearGradient>
		<polygon fill="url(#SVGID_44_)" points="1056.882,2154.64 1107.253,2158.632 1562.55,2158.632 978.775,1932.517 		"/>
		
			<linearGradient id="SVGID_45_" gradientUnits="userSpaceOnUse" x1="7396.04" y1="3569.752" x2="7398.0195" y2="3567.7725" gradientTransform="matrix(399 0 0 -178 -2949876.25 637205.375)">
			<stop  offset="0" style="stop-color:#654832"/>
			<stop  offset="1" style="stop-color:#8C5132"/>
		</linearGradient>
		<polygon fill="url(#SVGID_45_)" points="978.775,1932.517 1562.55,2158.632 1579.171,2158.632 1639.967,2158.632 
			1695.685,2158.632 1798.895,1866.069 		"/>
		
			<linearGradient id="SVGID_46_" gradientUnits="userSpaceOnUse" x1="7369.5908" y1="3569.1162" x2="7371.564" y2="3567.1433" gradientTransform="matrix(152 0 0 -178 -1118524.375 637205.375)">
			<stop  offset="0" style="stop-color:#D03F14"/>
			<stop  offset="1" style="stop-color:#C8754E"/>
		</linearGradient>
		<polygon fill="url(#SVGID_46_)" points="1798.895,1866.069 1695.685,2158.632 1793.816,2158.632 1813.002,2158.632 
			1992.106,2097.685 		"/>
		
			<linearGradient id="SVGID_47_" gradientUnits="userSpaceOnUse" x1="7387.3184" y1="3587.4023" x2="7389.4697" y2="3585.2507" gradientTransform="matrix(253 0 0 -66 -1867237.375 238821.5)">
			<stop  offset="0" style="stop-color:#BD9972"/>
			<stop  offset="1" style="stop-color:#BD9972"/>
		</linearGradient>
		<polygon fill="url(#SVGID_47_)" points="1992.106,2097.685 1813.002,2158.632 1867.969,2158.632 2199.706,2078.7 		"/>
		
			<linearGradient id="SVGID_48_" gradientUnits="userSpaceOnUse" x1="7378.3735" y1="3565.5889" x2="7380.3374" y2="3563.625" gradientTransform="matrix(209 0 0 -271 -1541673.375 968005.25)">
			<stop  offset="0" style="stop-color:#8E3A15"/>
			<stop  offset="1" style="stop-color:#C69876"/>
		</linearGradient>
		<polygon fill="url(#SVGID_48_)" points="660.182,1687.611 449.423,2158.632 533.512,2158.632 859.56,2021.745 		"/>
		
			<linearGradient id="SVGID_49_" gradientUnits="userSpaceOnUse" x1="7389.4634" y1="3578.4775" x2="7391.4087" y2="3576.532" gradientTransform="matrix(305 0 0 -95 -2253321.25 341973.5)">
			<stop  offset="0" style="stop-color:#DEBD9D"/>
			<stop  offset="1" style="stop-color:#CBA282"/>
		</linearGradient>
		<polygon fill="url(#SVGID_49_)" points="859.56,2021.745 533.512,2158.632 594.848,2158.632 718.219,2158.632 1004.15,2158.632 
			1056.882,2154.64 		"/>
		
			<linearGradient id="SVGID_50_" gradientUnits="userSpaceOnUse" x1="7401.6182" y1="3630.6885" x2="7403.5688" y2="3628.7378" gradientTransform="matrix(608 0 0 -26 -4499460.5 96541.3594)">
			<stop  offset="0" style="stop-color:#966946"/>
			<stop  offset="1" style="stop-color:#CFAC87"/>
		</linearGradient>
		<polygon fill="url(#SVGID_50_)" points="1004.15,2158.632 1107.253,2158.632 1056.882,2154.64 		"/>
		
			<linearGradient id="SVGID_51_" gradientUnits="userSpaceOnUse" x1="7391.2954" y1="3565.9346" x2="7393.3457" y2="3563.884" gradientTransform="matrix(343 0 0 -271 -2535246.25 968005.25)">
			<stop  offset="0" style="stop-color:#DAB999"/>
			<stop  offset="1" style="stop-color:#9F6949"/>
		</linearGradient>
		<polygon fill="url(#SVGID_51_)" points="0.12,2158.632 32.015,2158.632 83.598,2158.632 367.405,2158.632 449.423,2158.632 
			660.182,1687.611 		"/>
		
			<linearGradient id="SVGID_52_" gradientUnits="userSpaceOnUse" x1="7391.3369" y1="3564.2979" x2="7393.2891" y2="3562.3457" gradientTransform="matrix(343 0 0 -344 -2535246.25 1227660.25)">
			<stop  offset="0" style="stop-color:#8C5122"/>
			<stop  offset="1" style="stop-color:#7D4325"/>
		</linearGradient>
		<polygon fill="url(#SVGID_52_)" points="575.909,1537.63 0,2143.541 0,2158.632 0.12,2158.632 660.182,1687.611 		"/>
		
			<linearGradient id="SVGID_53_" gradientUnits="userSpaceOnUse" x1="7381.9561" y1="3571.1875" x2="7383.9136" y2="3569.2297" gradientTransform="matrix(241 0 0 -182 -1779121.375 650978.375)">
			<stop  offset="0" style="stop-color:#873D20"/>
			<stop  offset="1" style="stop-color:#744323"/>
		</linearGradient>
		<polygon fill="url(#SVGID_53_)" points="232.651,994.662 0,1282.23 0,1331.022 448.472,1243.364 		"/>
		
			<linearGradient id="SVGID_54_" gradientUnits="userSpaceOnUse" x1="7358.1592" y1="3566.7031" x2="7360.168" y2="3564.6946" gradientTransform="matrix(136 0 0 -290 -1000756.375 1035134.25)">
			<stop  offset="0" style="stop-color:#803E27"/>
			<stop  offset="1" style="stop-color:#A15E39"/>
		</linearGradient>
		<polygon fill="url(#SVGID_54_)" points="0,799.64 0,929.279 0,944.101 0,1138.946 0,1153.762 0,1167.57 0,1193.681 0,1282.23 
			232.651,994.662 		"/>
		
			<linearGradient id="SVGID_55_" gradientUnits="userSpaceOnUse" x1="7388.6362" y1="3573.1855" x2="7390.6289" y2="3571.1931" gradientTransform="matrix(303 0 0 -155 -2238727.25 555043.375)">
			<stop  offset="0" style="stop-color:#A25126"/>
			<stop  offset="1" style="stop-color:#975022"/>
		</linearGradient>
		<polygon fill="url(#SVGID_55_)" points="448.472,1243.364 0,1331.022 0,1355.053 575.909,1537.63 		"/>
		
			<linearGradient id="SVGID_56_" gradientUnits="userSpaceOnUse" x1="7388.3784" y1="3563.0479" x2="7390.4043" y2="3561.022" gradientTransform="matrix(303 0 0 -448 -2238727.25 1597588.5)">
			<stop  offset="0" style="stop-color:#835838"/>
			<stop  offset="1" style="stop-color:#915A2B"/>
		</linearGradient>
		<polygon fill="url(#SVGID_56_)" points="0,1355.053 0,2027.836 0,2143.541 575.909,1537.63 		"/>
	</g>
</g>
<g id="Layer_10">
</g>
<g id="Layer_11">
</g>
<g id="Layer_12">
</g>
<g id="Layer_13">
</g>
<g id="Layer_14">
</g>
<g id="Layer_15">
</g>
<g id="Layer_16">
</g>
<g id="Layer_17">
</g>
<g id="Layer_18">
</g>
<g id="Layer_19">
</g>
<g id="Layer_20">
</g>
<g id="Layer_21">
</g>
<g id="Layer_22">
</g>
<g id="Layer_23">
</g>
<g id="Layer_24">
</g>
<g id="Layer_25">
</g>
</svg>
