<?xml version="1.0" encoding="utf-8"?>
<!-- Generator: Adobe Illustrator 16.0.0, SVG Export Plug-In . SVG Version: 6.00 Build 0)  -->
<!DOCTYPE svg PUBLIC "-//W3C//DTD SVG 1.1//EN" "http://www.w3.org/Graphics/SVG/1.1/DTD/svg11.dtd">
<svg version="1.1" xmlns="http://www.w3.org/2000/svg" xmlns:xlink="http://www.w3.org/1999/xlink" x="0px" y="0px" width="3840px"
	 height="2160px" viewBox="0 0 3840 2160" enable-background="new 0 0 3840 2160" xml:space="preserve">
<g id="Layer_1">
</g>
<g id="Layer_2">
</g>
<g id="Layer_3">
</g>
<g id="Layer_4">
</g>
<g id="Layer_5">
</g>
<g id="Layer_6">
	<g>
		
			<linearGradient id="SVGID_1_" gradientUnits="userSpaceOnUse" x1="3535.5386" y1="5765.9766" x2="3538.8835" y2="5762.6313" gradientTransform="matrix(84 0 0 -176 -293883.5 1015053.375)">
			<stop  offset="0" style="stop-color:#5D150B"/>
			<stop  offset="1" style="stop-color:#891E0B"/>
		</linearGradient>
		<polygon fill="url(#SVGID_1_)" points="3377.57,298.817 3117.945,796.006 3371.389,558.711 		"/>
		
			<linearGradient id="SVGID_2_" gradientUnits="userSpaceOnUse" x1="3540.1973" y1="5761.1094" x2="3543.167" y2="5758.1396" gradientTransform="matrix(268 0 0 -183 -948659.25 1055631.375)">
			<stop  offset="0" style="stop-color:#410E08"/>
			<stop  offset="1" style="stop-color:#4F2515"/>
		</linearGradient>
		<polygon fill="url(#SVGID_2_)" points="722.602,1462.691 0,1542.264 0,1571.964 781.326,1979.655 		"/>
		
			<linearGradient id="SVGID_3_" gradientUnits="userSpaceOnUse" x1="3543.8584" y1="5759.2275" x2="3546.7883" y2="5756.2974" gradientTransform="matrix(332 0 0 -196 -1175802.25 1130212.375)">
			<stop  offset="0" style="stop-color:#612D1C"/>
			<stop  offset="1" style="stop-color:#3B1006"/>
		</linearGradient>
		<polygon fill="url(#SVGID_3_)" points="781.326,1979.655 1748.736,1425.967 722.602,1462.691 		"/>
		
			<linearGradient id="SVGID_4_" gradientUnits="userSpaceOnUse" x1="3542.1396" y1="5793.8525" x2="3545.1462" y2="5790.8457" gradientTransform="matrix(134 0 0 -84 -471533.375 487249.5)">
			<stop  offset="0" style="stop-color:#5F1409"/>
			<stop  offset="1" style="stop-color:#5C1309"/>
		</linearGradient>
		<polygon fill="url(#SVGID_4_)" points="3371.389,558.711 3117.945,796.006 3532.108,601.085 		"/>
		
			<linearGradient id="SVGID_5_" gradientUnits="userSpaceOnUse" x1="3527.8604" y1="5782.9404" x2="3530.8157" y2="5779.9854" gradientTransform="matrix(52 0 0 -107 -180105.375 619131.4375)">
			<stop  offset="0" style="stop-color:#AE160B"/>
			<stop  offset="1" style="stop-color:#921508"/>
		</linearGradient>
		<polygon fill="url(#SVGID_5_)" points="3532.108,601.085 3377.57,298.817 3371.389,558.711 		"/>
		
			<linearGradient id="SVGID_6_" gradientUnits="userSpaceOnUse" x1="3545.3145" y1="5753.3477" x2="3548.2532" y2="5750.4092" gradientTransform="matrix(238 0 0 -314 -841283.375 1807009.25)">
			<stop  offset="0" style="stop-color:#7B0C04"/>
			<stop  offset="1" style="stop-color:#951608"/>
		</linearGradient>
		<polygon fill="url(#SVGID_6_)" points="2382.343,615.21 2932.5,1502.241 3117.945,796.006 		"/>
		
			<linearGradient id="SVGID_7_" gradientUnits="userSpaceOnUse" x1="3530.8799" y1="5751.7656" x2="3533.844" y2="5748.8018" gradientTransform="matrix(110 0 0 -332 -386704.4375 1910248.25)">
			<stop  offset="0" style="stop-color:#7E130A"/>
			<stop  offset="1" style="stop-color:#A81A0B"/>
		</linearGradient>
		<polygon fill="url(#SVGID_7_)" points="1779.644,488.088 1748.736,1425.967 2088.721,1264.946 		"/>
		
			<linearGradient id="SVGID_8_" gradientUnits="userSpaceOnUse" x1="3542.2598" y1="5755.2852" x2="3545.2349" y2="5752.3101" gradientTransform="matrix(217 0 0 -249 -766875.375 1434269.25)">
			<stop  offset="0" style="stop-color:#520E05"/>
			<stop  offset="1" style="stop-color:#5C1004"/>
		</linearGradient>
		<polygon fill="url(#SVGID_8_)" points="1748.736,1425.967 2419.433,1968.355 2088.721,1264.946 		"/>
		
			<linearGradient id="SVGID_9_" gradientUnits="userSpaceOnUse" x1="3541.2656" y1="5755.5996" x2="3544.1807" y2="5752.6846" gradientTransform="matrix(195 0 0 -275 -688699.375 1583182.25)">
			<stop  offset="0" style="stop-color:#881A09"/>
			<stop  offset="1" style="stop-color:#831609"/>
		</linearGradient>
		<polygon fill="url(#SVGID_9_)" points="2088.721,1264.946 2382.343,615.21 1779.644,488.088 		"/>
		
			<linearGradient id="SVGID_10_" gradientUnits="userSpaceOnUse" x1="3544.9155" y1="5752.5713" x2="3547.8455" y2="5749.6416" gradientTransform="matrix(273 0 0 -314 -965733.25 1807009.25)">
			<stop  offset="0" style="stop-color:#93190B"/>
			<stop  offset="1" style="stop-color:#791007"/>
		</linearGradient>
		<polygon fill="url(#SVGID_10_)" points="2088.721,1264.946 2932.5,1502.241 2382.343,615.21 		"/>
		
			<linearGradient id="SVGID_11_" gradientUnits="userSpaceOnUse" x1="3545.2671" y1="5755.1689" x2="3548.1721" y2="5752.2637" gradientTransform="matrix(273 0 0 -249 -965733.25 1434269.25)">
			<stop  offset="0" style="stop-color:#4A1205"/>
			<stop  offset="1" style="stop-color:#670E06"/>
		</linearGradient>
		<polygon fill="url(#SVGID_11_)" points="2419.433,1968.355 2932.5,1502.241 2088.721,1264.946 		"/>
		
			<linearGradient id="SVGID_12_" gradientUnits="userSpaceOnUse" x1="3462.9028" y1="5755.2686" x2="3465.8606" y2="5752.3105" gradientTransform="matrix(40 0 0 -231 -138575.375 1331085.375)">
			<stop  offset="0" style="stop-color:#952814"/>
			<stop  offset="1" style="stop-color:#702311"/>
		</linearGradient>
		<polygon fill="url(#SVGID_12_)" points="0,2027.835 0,2158.632 32.015,2158.632 68.793,2158.632 0,1795.52 		"/>
		
			<linearGradient id="SVGID_13_" gradientUnits="userSpaceOnUse" x1="3538.4731" y1="5766.3164" x2="3541.3811" y2="5763.4082" gradientTransform="matrix(249 0 0 -152 -881152.375 877631.375)">
			<stop  offset="0" style="stop-color:#65170E"/>
			<stop  offset="1" style="stop-color:#54160A"/>
		</linearGradient>
		<polygon fill="url(#SVGID_13_)" points="441.341,1118.049 0,1506.113 0,1542.264 722.602,1462.691 		"/>
		
			<linearGradient id="SVGID_14_" gradientUnits="userSpaceOnUse" x1="3544.3257" y1="5810.9102" x2="3547.3425" y2="5807.8936" gradientTransform="matrix(364 0 0 -70 -1289559.25 406704.5)">
			<stop  offset="0" style="stop-color:#410C07"/>
			<stop  offset="1" style="stop-color:#911E0B"/>
		</linearGradient>
		<polygon fill="url(#SVGID_14_)" points="1618.924,154.746 1650.604,-1.17 1628.896,-1.17 1573.277,-1.17 1359.988,-1.17 
			1280.496,-1.17 534.064,81.297 		"/>
		
			<linearGradient id="SVGID_15_" gradientUnits="userSpaceOnUse" x1="3545.0874" y1="5853.3633" x2="3547.9524" y2="5850.4985" gradientTransform="matrix(438 0 0 -44 -1552555.5 257516.3438)">
			<stop  offset="0" style="stop-color:#3F0A06"/>
			<stop  offset="1" style="stop-color:#4F1106"/>
		</linearGradient>
		<polygon fill="url(#SVGID_15_)" points="1280.496,-1.17 1212.011,-1.17 683.25,-1.17 668.826,-1.17 631.492,-1.17 375.091,-1.17 
			534.064,81.297 		"/>
		
			<linearGradient id="SVGID_16_" gradientUnits="userSpaceOnUse" x1="3507.3208" y1="5813.5127" x2="3510.3091" y2="5810.5244" gradientTransform="matrix(74 0 0 -67 -259263.5 389492.5)">
			<stop  offset="0" style="stop-color:#190707"/>
			<stop  offset="1" style="stop-color:#360808"/>
		</linearGradient>
		<polygon fill="url(#SVGID_16_)" points="534.064,81.297 375.091,-1.17 305.938,-1.17 308.438,151.92 		"/>
		
			<linearGradient id="SVGID_17_" gradientUnits="userSpaceOnUse" x1="3545.1641" y1="5783.2363" x2="3548.1426" y2="5780.2578" gradientTransform="matrix(168 0 0 -107 -592251.375 619131.4375)">
			<stop  offset="0" style="stop-color:#6F1606"/>
			<stop  offset="1" style="stop-color:#4B0A06"/>
		</linearGradient>
		<polygon fill="url(#SVGID_17_)" points="3532.108,601.085 3840,531.926 3840,520.73 3840,495.051 3377.57,298.817 		"/>
		
			<linearGradient id="SVGID_18_" gradientUnits="userSpaceOnUse" x1="3531.7891" y1="5752.1104" x2="3534.7505" y2="5749.1489" gradientTransform="matrix(161 0 0 -342 -568373.375 1967509.25)">
			<stop  offset="0" style="stop-color:#561209"/>
			<stop  offset="1" style="stop-color:#8C1F0B"/>
		</linearGradient>
		<polygon fill="url(#SVGID_18_)" points="308.438,151.92 441.341,1118.049 806.052,1067.2 		"/>
		
			<linearGradient id="SVGID_19_" gradientUnits="userSpaceOnUse" x1="3532.48" y1="5752.6523" x2="3535.4429" y2="5749.6895" gradientTransform="matrix(161 0 0 -349 -568373.375 2007650.25)">
			<stop  offset="0" style="stop-color:#661008"/>
			<stop  offset="1" style="stop-color:#941C0C"/>
		</linearGradient>
		<polygon fill="url(#SVGID_19_)" points="534.064,81.297 308.438,151.92 806.052,1067.2 		"/>
		
			<linearGradient id="SVGID_20_" gradientUnits="userSpaceOnUse" x1="3526.0156" y1="5769.8867" x2="3528.9653" y2="5766.937" gradientTransform="matrix(118 0 0 -140 -415551.4375 808757.375)">
			<stop  offset="0" style="stop-color:#400B04"/>
			<stop  offset="1" style="stop-color:#411407"/>
		</linearGradient>
		<polygon fill="url(#SVGID_20_)" points="441.341,1118.049 722.602,1462.691 806.052,1067.2 		"/>
		
			<linearGradient id="SVGID_21_" gradientUnits="userSpaceOnUse" x1="3544.0947" y1="5752.5537" x2="3546.9729" y2="5749.6758" gradientTransform="matrix(351 0 0 -349 -1243370.25 2007650.25)">
			<stop  offset="0" style="stop-color:#470D09"/>
			<stop  offset="1" style="stop-color:#851E0C"/>
		</linearGradient>
		<polygon fill="url(#SVGID_21_)" points="1618.924,154.746 534.064,81.297 806.052,1067.2 		"/>
		
			<linearGradient id="SVGID_22_" gradientUnits="userSpaceOnUse" x1="3543.1807" y1="5768.6357" x2="3546.1394" y2="5765.6772" gradientTransform="matrix(332 0 0 -140 -1175802.25 808757.375)">
			<stop  offset="0" style="stop-color:#451307"/>
			<stop  offset="1" style="stop-color:#7C1709"/>
		</linearGradient>
		<polygon fill="url(#SVGID_22_)" points="722.602,1462.691 1748.736,1425.967 806.052,1067.2 		"/>
		
			<linearGradient id="SVGID_23_" gradientUnits="userSpaceOnUse" x1="3543.4438" y1="5753.2178" x2="3546.3513" y2="5750.3101" gradientTransform="matrix(315 0 0 -323 -1115374.25 1858488.25)">
			<stop  offset="0" style="stop-color:#D6230C"/>
			<stop  offset="1" style="stop-color:#BC210A"/>
		</linearGradient>
		<polygon fill="url(#SVGID_23_)" points="1779.644,488.088 1618.924,154.746 806.052,1067.2 		"/>
		
			<linearGradient id="SVGID_24_" gradientUnits="userSpaceOnUse" x1="3543.707" y1="5752.6855" x2="3546.7227" y2="5749.6699" gradientTransform="matrix(315 0 0 -332 -1115374.25 1910248.25)">
			<stop  offset="0" style="stop-color:#A11A07"/>
			<stop  offset="1" style="stop-color:#B9240A"/>
		</linearGradient>
		<polygon fill="url(#SVGID_24_)" points="806.052,1067.2 1748.736,1425.967 1779.644,488.088 		"/>
		
			<linearGradient id="SVGID_25_" gradientUnits="userSpaceOnUse" x1="3506.2769" y1="5780.1387" x2="3509.2161" y2="5777.1992" gradientTransform="matrix(53 0 0 -120 -184225.375 693604.4375)">
			<stop  offset="0" style="stop-color:#D6280B"/>
			<stop  offset="1" style="stop-color:#CA240A"/>
		</linearGradient>
		<polygon fill="url(#SVGID_25_)" points="1782.734,295.992 1674.359,-1.17 1661.584,-1.17 1650.604,-1.17 1618.924,154.746 		"/>
		
			<linearGradient id="SVGID_26_" gradientUnits="userSpaceOnUse" x1="3506.9692" y1="5780.5039" x2="3509.9258" y2="5777.5474" gradientTransform="matrix(53 0 0 -118 -184225.375 682198.4375)">
			<stop  offset="0" style="stop-color:#D72F1B"/>
			<stop  offset="1" style="stop-color:#CD2814"/>
		</linearGradient>
		<polygon fill="url(#SVGID_26_)" points="1782.734,295.992 1618.924,154.746 1779.644,488.088 		"/>
		
			<linearGradient id="SVGID_27_" gradientUnits="userSpaceOnUse" x1="3540.5605" y1="5780.7246" x2="3543.5181" y2="5777.7671" gradientTransform="matrix(195 0 0 -113 -688699.375 653558.4375)">
			<stop  offset="0" style="stop-color:#C93822"/>
			<stop  offset="1" style="stop-color:#B92E1B"/>
		</linearGradient>
		<polygon fill="url(#SVGID_27_)" points="2382.343,615.21 1782.734,295.992 1779.644,488.088 		"/>
		
			<linearGradient id="SVGID_28_" gradientUnits="userSpaceOnUse" x1="3520.5176" y1="5813.4277" x2="3523.4753" y2="5810.4697" gradientTransform="matrix(108 0 0 -68 -380172.4375 395229.5)">
			<stop  offset="0" style="stop-color:#180605"/>
			<stop  offset="1" style="stop-color:#300C07"/>
		</linearGradient>
		<polygon fill="url(#SVGID_28_)" points="305.938,-1.17 265.543,-1.17 107.748,-1.17 42.414,-1.17 308.438,151.92 		"/>
		
			<linearGradient id="SVGID_29_" gradientUnits="userSpaceOnUse" x1="3545.5049" y1="5755.3916" x2="3548.4321" y2="5752.4644" gradientTransform="matrix(225 0 0 -297 -794997.375 1709230.25)">
			<stop  offset="0" style="stop-color:#7C150A"/>
			<stop  offset="1" style="stop-color:#A4200D"/>
		</linearGradient>
		<polygon fill="url(#SVGID_29_)" points="3377.57,298.817 2767.25,-1.17 2703.874,-1.17 3117.945,796.006 		"/>
		
			<linearGradient id="SVGID_30_" gradientUnits="userSpaceOnUse" x1="3545.624" y1="5780.3838" x2="3548.4775" y2="5777.5303" gradientTransform="matrix(331 0 0 -120 -1171946.25 693604.4375)">
			<stop  offset="0" style="stop-color:#CF2711"/>
			<stop  offset="1" style="stop-color:#C02412"/>
		</linearGradient>
		<polygon fill="url(#SVGID_30_)" points="2571.166,-1.17 2541.869,-1.17 2166.95,-1.17 2141.384,-1.17 1794.432,-1.17 
			1705.534,-1.17 1674.359,-1.17 1782.734,295.992 		"/>
		
			<linearGradient id="SVGID_31_" gradientUnits="userSpaceOnUse" x1="3545.2188" y1="5760.2207" x2="3548.1975" y2="5757.2422" gradientTransform="matrix(291 0 0 -233 -1029786.25 1341998.375)">
			<stop  offset="0" style="stop-color:#D1270E"/>
			<stop  offset="1" style="stop-color:#B2220E"/>
		</linearGradient>
		<polygon fill="url(#SVGID_31_)" points="2382.343,615.21 2663.095,-1.17 2626.617,-1.17 2571.588,-1.17 2571.166,-1.17 
			1782.734,295.992 		"/>
		
			<linearGradient id="SVGID_32_" gradientUnits="userSpaceOnUse" x1="3544.5952" y1="5754.8438" x2="3547.519" y2="5751.9199" gradientTransform="matrix(238 0 0 -297 -841283.375 1709230.25)">
			<stop  offset="0" style="stop-color:#961A09"/>
			<stop  offset="1" style="stop-color:#85180C"/>
		</linearGradient>
		<polygon fill="url(#SVGID_32_)" points="3117.945,796.006 2703.874,-1.17 2701.929,-1.17 2688.894,-1.17 2663.095,-1.17 
			2382.343,615.21 		"/>
		
			<linearGradient id="SVGID_33_" gradientUnits="userSpaceOnUse" x1="3545.6094" y1="5764.3184" x2="3548.6238" y2="5761.3037" gradientTransform="matrix(169 0 0 -195 -595804.375 1123958.375)">
			<stop  offset="0" style="stop-color:#981608"/>
			<stop  offset="1" style="stop-color:#7C0B08"/>
		</linearGradient>
		<polygon fill="url(#SVGID_33_)" points="3840,495.051 3840,467.566 3840,411.287 3840,405.222 3840,400.554 3840,12.893 
			3840,6.208 3377.57,298.817 		"/>
		
			<linearGradient id="SVGID_34_" gradientUnits="userSpaceOnUse" x1="3548.9526" y1="5780.4287" x2="3551.874" y2="5777.5073" gradientTransform="matrix(394 0 0 -121 -1395454.25 699342.4375)">
			<stop  offset="0" style="stop-color:#87160E"/>
			<stop  offset="1" style="stop-color:#871408"/>
		</linearGradient>
		<polygon fill="url(#SVGID_34_)" points="3840,6.208 3840,-1.17 3768.443,-1.17 3765.429,-1.17 2878.779,-1.17 2839.029,-1.17 
			2767.25,-1.17 3377.57,298.817 		"/>
		
			<linearGradient id="SVGID_35_" gradientUnits="userSpaceOnUse" x1="3547.437" y1="5760.6582" x2="3550.4211" y2="5757.6738" gradientTransform="matrix(254 0 0 -208 -897893.375 1198776.375)">
			<stop  offset="0" style="stop-color:#7A150B"/>
			<stop  offset="1" style="stop-color:#641109"/>
		</linearGradient>
		<polygon fill="url(#SVGID_35_)" points="3117.945,796.006 3840,1157.161 3840,1088.864 3532.108,601.085 		"/>
		
			<linearGradient id="SVGID_36_" gradientUnits="userSpaceOnUse" x1="3543.7793" y1="5758.4824" x2="3546.7458" y2="5755.5161" gradientTransform="matrix(120 0 0 -237 -421657.4375 1365149.375)">
			<stop  offset="0" style="stop-color:#5F0C07"/>
			<stop  offset="1" style="stop-color:#841308"/>
		</linearGradient>
		<polygon fill="url(#SVGID_36_)" points="3840,1088.864 3840,1034.79 3840,623.23 3840,575.078 3840,531.926 3532.108,601.085 		
			"/>
		
			<linearGradient id="SVGID_37_" gradientUnits="userSpaceOnUse" x1="3547.646" y1="5755.8262" x2="3550.6287" y2="5752.8438" gradientTransform="matrix(314 0 0 -250 -1111133.25 1439841.25)">
			<stop  offset="0" style="stop-color:#4C0E04"/>
			<stop  offset="1" style="stop-color:#661408"/>
		</linearGradient>
		<polygon fill="url(#SVGID_37_)" points="2932.5,1502.241 3840,1209.027 3840,1157.161 3117.945,796.006 		"/>
		
			<linearGradient id="SVGID_38_" gradientUnits="userSpaceOnUse" x1="3548.332" y1="5755.791" x2="3551.3008" y2="5752.8223" gradientTransform="matrix(314 0 0 -247 -1111133.25 1422766.25)">
			<stop  offset="0" style="stop-color:#390806"/>
			<stop  offset="1" style="stop-color:#430D07"/>
		</linearGradient>
		<polygon fill="url(#SVGID_38_)" points="2932.5,1502.241 3563.016,1886.432 3840,1317.969 3840,1294.61 3840,1272.437 
			3840,1261.255 3840,1209.027 		"/>
		
			<linearGradient id="SVGID_39_" gradientUnits="userSpaceOnUse" x1="3542.1694" y1="5755.3389" x2="3545.3364" y2="5752.1719" gradientTransform="matrix(110 0 0 -247 -386117.4375 1422766.25)">
			<stop  offset="0" style="stop-color:#140301"/>
			<stop  offset="1" style="stop-color:#270603"/>
		</linearGradient>
		<polygon fill="url(#SVGID_39_)" points="3840,1759.852 3840,1332.666 3840,1317.969 3563.016,1886.432 		"/>
		
			<linearGradient id="SVGID_40_" gradientUnits="userSpaceOnUse" x1="3542.8745" y1="5762.2627" x2="3545.8572" y2="5759.2803" gradientTransform="matrix(110 0 0 -165 -386117.4375 952442.375)">
			<stop  offset="0" style="stop-color:#2D0E06"/>
			<stop  offset="1" style="stop-color:#47190D"/>
		</linearGradient>
		<polygon fill="url(#SVGID_40_)" points="3840,2146.691 3840,2130.853 3840,1759.852 3563.016,1886.432 		"/>
		
			<linearGradient id="SVGID_41_" gradientUnits="userSpaceOnUse" x1="3548.5229" y1="5772.8369" x2="3551.4067" y2="5769.9531" gradientTransform="matrix(377 0 0 -110 -1335038.25 636907.4375)">
			<stop  offset="0" style="stop-color:#1B0603"/>
			<stop  offset="1" style="stop-color:#511C0D"/>
		</linearGradient>
		<polygon fill="url(#SVGID_41_)" points="2818.479,2158.632 3247.879,2158.632 3410.817,2158.632 3435.019,2158.632 
			3725.12,2158.632 3830.779,2158.632 3840,2158.632 3840,2146.691 3563.016,1886.432 		"/>
		
			<linearGradient id="SVGID_42_" gradientUnits="userSpaceOnUse" x1="3541.6504" y1="5755.1133" x2="3544.6482" y2="5752.1157" gradientTransform="matrix(166 0 0 -244 -585455.375 1405663.375)">
			<stop  offset="0" style="stop-color:#2E0D03"/>
			<stop  offset="1" style="stop-color:#320C04"/>
		</linearGradient>
		<polygon fill="url(#SVGID_42_)" points="2419.433,1968.355 2682.954,2158.632 2687.251,2158.632 2738.243,2158.632 
			2932.5,1502.241 		"/>
		
			<linearGradient id="SVGID_43_" gradientUnits="userSpaceOnUse" x1="3546.3804" y1="5754.459" x2="3549.3582" y2="5751.481" gradientTransform="matrix(270 0 0 -244 -954867.25 1405663.375)">
			<stop  offset="0" style="stop-color:#2C0802"/>
			<stop  offset="1" style="stop-color:#2B0F04"/>
		</linearGradient>
		<polygon fill="url(#SVGID_43_)" points="2932.5,1502.241 2738.243,2158.632 2818.479,2158.632 3563.016,1886.432 		"/>
		
			<linearGradient id="SVGID_44_" gradientUnits="userSpaceOnUse" x1="3543.5127" y1="5753.4932" x2="3546.5278" y2="5750.478" gradientTransform="matrix(313 0 0 -273 -1108276.25 1572038.25)">
			<stop  offset="0" style="stop-color:#6C321E"/>
			<stop  offset="1" style="stop-color:#5C1208"/>
		</linearGradient>
		<polygon fill="url(#SVGID_44_)" points="781.326,1979.655 1345.894,2158.632 1481.532,2158.632 1748.736,1425.967 		"/>
		
			<linearGradient id="SVGID_45_" gradientUnits="userSpaceOnUse" x1="3544.3013" y1="5752.7559" x2="3547.2593" y2="5749.7979" gradientTransform="matrix(308 0 0 -273 -1090289.25 1572038.25)">
			<stop  offset="0" style="stop-color:#6E1A0A"/>
			<stop  offset="1" style="stop-color:#5D1808"/>
		</linearGradient>
		<polygon fill="url(#SVGID_45_)" points="1748.736,1425.967 1481.532,2158.632 1579.171,2158.632 1627.827,2158.632 
			2419.433,1968.355 		"/>
		
			<linearGradient id="SVGID_46_" gradientUnits="userSpaceOnUse" x1="3546.8848" y1="5784.7813" x2="3549.7629" y2="5781.9028" gradientTransform="matrix(408 0 0 -81 -1445589.25 470534.5)">
			<stop  offset="0" style="stop-color:#3E1405"/>
			<stop  offset="1" style="stop-color:#501708"/>
		</linearGradient>
		<polygon fill="url(#SVGID_46_)" points="1627.827,2158.632 1639.967,2158.632 1793.816,2158.632 1951.301,2158.632 
			2542.719,2158.632 2682.954,2158.632 2419.433,1968.355 		"/>
		
			<linearGradient id="SVGID_47_" gradientUnits="userSpaceOnUse" x1="3539.7847" y1="5756.0723" x2="3542.7249" y2="5753.1323" gradientTransform="matrix(268 0 0 -227 -948659.25 1308133.375)">
			<stop  offset="0" style="stop-color:#90240F"/>
			<stop  offset="1" style="stop-color:#90341B"/>
		</linearGradient>
		<polygon fill="url(#SVGID_47_)" points="0,1571.964 0,1595.007 556.898,2158.632 594.848,2158.632 614.615,2158.632 
			781.326,1979.655 		"/>
		
			<linearGradient id="SVGID_48_" gradientUnits="userSpaceOnUse" x1="3535.0337" y1="5755.1309" x2="3537.9927" y2="5752.1719" gradientTransform="matrix(205 0 0 -231 -724820.375 1331085.375)">
			<stop  offset="0" style="stop-color:#631209"/>
			<stop  offset="1" style="stop-color:#55160B"/>
		</linearGradient>
		<polygon fill="url(#SVGID_48_)" points="0,1795.52 68.793,2158.632 83.598,2158.632 367.405,2158.632 556.898,2158.632 
			0,1595.007 		"/>
		
			<linearGradient id="SVGID_49_" gradientUnits="userSpaceOnUse" x1="3541.5327" y1="5786.6992" x2="3544.4741" y2="5783.7578" gradientTransform="matrix(285 0 0 -77 -1008855.25 447586.5)">
			<stop  offset="0" style="stop-color:#8E351F"/>
			<stop  offset="1" style="stop-color:#63150A"/>
		</linearGradient>
		<polygon fill="url(#SVGID_49_)" points="614.615,2158.632 718.219,2158.632 1345.894,2158.632 781.326,1979.655 		"/>
		
			<linearGradient id="SVGID_50_" gradientUnits="userSpaceOnUse" x1="3530.1035" y1="5753.418" x2="3533.1045" y2="5750.417" gradientTransform="matrix(158 0 0 -295 -557829.375 1698022.25)">
			<stop  offset="0" style="stop-color:#460C09"/>
			<stop  offset="1" style="stop-color:#390A06"/>
		</linearGradient>
		<polygon fill="url(#SVGID_50_)" points="0,733.491 0,739.977 0,929.28 0,944.101 0,1138.947 0,1153.762 0,1167.571 0,1193.681 
			0,1506.113 441.341,1118.049 		"/>
		
			<linearGradient id="SVGID_51_" gradientUnits="userSpaceOnUse" x1="3529.2744" y1="5752.7246" x2="3532.2869" y2="5749.7124" gradientTransform="matrix(150 0 0 -342 -529397.375 1967509.25)">
			<stop  offset="0" style="stop-color:#120203"/>
			<stop  offset="1" style="stop-color:#350905"/>
		</linearGradient>
		<polygon fill="url(#SVGID_51_)" points="308.438,151.92 0,676.222 0,713.658 0,724.023 0,733.491 441.341,1118.049 		"/>
		
			<linearGradient id="SVGID_52_" gradientUnits="userSpaceOnUse" x1="3519.8613" y1="5757.0283" x2="3522.8982" y2="5753.9912" gradientTransform="matrix(108 0 0 -267 -380172.4375 1537091.25)">
			<stop  offset="0" style="stop-color:#611A0E"/>
			<stop  offset="1" style="stop-color:#300A07"/>
		</linearGradient>
		<polygon fill="url(#SVGID_52_)" points="42.414,-1.17 0,-1.17 0,1.368 0,66.64 0,479.423 0,676.222 308.438,151.92 		"/>
	</g>
</g>
<g id="Layer_7">
</g>
<g id="Layer_8">
</g>
<g id="Layer_9">
</g>
<g id="Layer_10">
</g>
<g id="Layer_11">
</g>
<g id="Layer_12">
</g>
<g id="Layer_13">
</g>
<g id="Layer_14">
</g>
<g id="Layer_15">
</g>
<g id="Layer_16">
</g>
<g id="Layer_17">
</g>
<g id="Layer_18">
</g>
<g id="Layer_19">
</g>
<g id="Layer_20">
</g>
<g id="Layer_21">
</g>
<g id="Layer_22">
</g>
<g id="Layer_23">
</g>
<g id="Layer_24">
</g>
<g id="Layer_25">
</g>
</svg>
