<?xml version="1.0" encoding="utf-8"?>
<!-- Generator: Adobe Illustrator 16.0.0, SVG Export Plug-In . SVG Version: 6.00 Build 0)  -->
<!DOCTYPE svg PUBLIC "-//W3C//DTD SVG 1.1//EN" "http://www.w3.org/Graphics/SVG/1.1/DTD/svg11.dtd">
<svg version="1.1" xmlns="http://www.w3.org/2000/svg" xmlns:xlink="http://www.w3.org/1999/xlink" x="0px" y="0px" width="3840px"
	 height="2160px" viewBox="0 0 3840 2160" enable-background="new 0 0 3840 2160" xml:space="preserve">
<g id="Layer_1">
</g>
<g id="Layer_2">
</g>
<g id="Layer_3">
</g>
<g id="Layer_4">
</g>
<g id="Layer_5">
</g>
<g id="Layer_6">
</g>
<g id="Layer_7">
	<g>
		
			<linearGradient id="SVGID_1_" gradientUnits="userSpaceOnUse" x1="-300.2451" y1="5757.8311" x2="-298.1744" y2="5755.7603" gradientTransform="matrix(290 0 0 -231 90333.75 1330976.375)">
			<stop  offset="0" style="stop-color:#AC0D05"/>
			<stop  offset="1" style="stop-color:#7D2508"/>
		</linearGradient>
		<polygon fill="url(#SVGID_1_)" points="3288.016,1387.567 3840,966.982 3840,928.123 3300.417,896.88 		"/>
		
			<linearGradient id="SVGID_2_" gradientUnits="userSpaceOnUse" x1="-291.6362" y1="5756.7334" x2="-289.5364" y2="5754.6338" gradientTransform="matrix(130 0 0 -233 41213.625 1342683.375)">
			<stop  offset="0" style="stop-color:#422C06"/>
			<stop  offset="1" style="stop-color:#443809"/>
		</linearGradient>
		<polygon fill="url(#SVGID_2_)" points="3556.705,1638.221 3288.016,1387.567 3486.432,1882.503 		"/>
		
			<linearGradient id="SVGID_3_" gradientUnits="userSpaceOnUse" x1="-301.7969" y1="6863.0039" x2="-299.7014" y2="6860.9087" gradientTransform="matrix(302 0 0 -4 93491.75 28542.3594)">
			<stop  offset="0" style="stop-color:#65650F"/>
			<stop  offset="1" style="stop-color:#7B3609"/>
		</linearGradient>
		<polygon fill="url(#SVGID_3_)" points="2200.857,1092.306 2825.044,1100.802 2810.574,1092.306 		"/>
		
			<linearGradient id="SVGID_4_" gradientUnits="userSpaceOnUse" x1="-299.6558" y1="5785.9229" x2="-297.5545" y2="5783.8218" gradientTransform="matrix(237 0 0 -96 73831.625 556346.5)">
			<stop  offset="0" style="stop-color:#BC240A"/>
			<stop  offset="1" style="stop-color:#B81A06"/>
		</linearGradient>
		<polygon fill="url(#SVGID_4_)" points="2810.574,1092.306 2825.044,1100.802 3300.417,896.88 		"/>
		
			<linearGradient id="SVGID_5_" gradientUnits="userSpaceOnUse" x1="-299.1079" y1="5758.207" x2="-297.0196" y2="5756.1187" gradientTransform="matrix(230 0 0 -231 71689.625 1330976.375)">
			<stop  offset="0" style="stop-color:#9B3408"/>
			<stop  offset="1" style="stop-color:#B41605"/>
		</linearGradient>
		<polygon fill="url(#SVGID_5_)" points="2825.044,1100.802 3288.016,1387.567 3300.417,896.88 		"/>
		
			<linearGradient id="SVGID_6_" gradientUnits="userSpaceOnUse" x1="-302.5581" y1="5757.1865" x2="-300.4576" y2="5755.0859" gradientTransform="matrix(295 0 0 -244 91342.75 1405418.375)">
			<stop  offset="0" style="stop-color:#B57216"/>
			<stop  offset="1" style="stop-color:#C1360C"/>
		</linearGradient>
		<polygon fill="url(#SVGID_6_)" points="2382.738,574.004 2200.857,1092.306 2810.574,1092.306 		"/>
		
			<linearGradient id="SVGID_7_" gradientUnits="userSpaceOnUse" x1="-303.6875" y1="5757.4531" x2="-301.5987" y2="5755.3643" gradientTransform="matrix(444 0 0 -244 137173.5 1405418.375)">
			<stop  offset="0" style="stop-color:#C22F0A"/>
			<stop  offset="1" style="stop-color:#CC1805"/>
		</linearGradient>
		<polygon fill="url(#SVGID_7_)" points="3300.417,896.88 2382.738,574.004 2810.574,1092.306 		"/>
		
			<linearGradient id="SVGID_8_" gradientUnits="userSpaceOnUse" x1="-304.9321" y1="5756.1133" x2="-302.8159" y2="5753.9971" gradientTransform="matrix(237 0 0 -260 72663.625 1497280.25)">
			<stop  offset="0" style="stop-color:#57260A"/>
			<stop  offset="1" style="stop-color:#731C09"/>
		</linearGradient>
		<polygon fill="url(#SVGID_8_)" points="886.346,767.305 396.506,688.71 475.045,1240.999 		"/>
		
			<linearGradient id="SVGID_9_" gradientUnits="userSpaceOnUse" x1="-305.1143" y1="5785.1846" x2="-303.0137" y2="5783.084" gradientTransform="matrix(237 0 0 -101 72663.625 584874.4375)">
			<stop  offset="0" style="stop-color:#4F1003"/>
			<stop  offset="1" style="stop-color:#6D0D04"/>
		</linearGradient>
		<polygon fill="url(#SVGID_9_)" points="541.184,552.762 396.506,688.71 886.346,767.305 		"/>
		
			<linearGradient id="SVGID_10_" gradientUnits="userSpaceOnUse" x1="-296.04" y1="5774.7314" x2="-293.9478" y2="5772.6392" gradientTransform="matrix(180 0 0 -118 56563.625 682813.4375)">
			<stop  offset="0" style="stop-color:#B68533"/>
			<stop  offset="1" style="stop-color:#7A4D22"/>
		</linearGradient>
		<polygon fill="url(#SVGID_10_)" points="3660.047,1587.241 3288.016,1387.567 3556.705,1638.221 		"/>
		
			<linearGradient id="SVGID_11_" gradientUnits="userSpaceOnUse" x1="-282.1978" y1="5768.4893" x2="-280.0185" y2="5766.3101" gradientTransform="matrix(84 0 0 -139 27187.5 803405.375)">
			<stop  offset="0" style="stop-color:#472F07"/>
			<stop  offset="1" style="stop-color:#3B1B05"/>
		</linearGradient>
		<polygon fill="url(#SVGID_11_)" points="3486.432,1882.503 3660.047,1587.241 3556.705,1638.221 		"/>
		
			<linearGradient id="SVGID_12_" gradientUnits="userSpaceOnUse" x1="-302.8975" y1="5756.1865" x2="-300.8097" y2="5754.0986" gradientTransform="matrix(299 0 0 -281 92359.75 1617443.25)">
			<stop  offset="0" style="stop-color:#D5530E"/>
			<stop  offset="1" style="stop-color:#972A05"/>
		</linearGradient>
		<polygon fill="url(#SVGID_12_)" points="2382.738,574.004 2161.669,-1.17 2141.384,-1.17 2119.93,-1.17 1764.753,229.886 		"/>
		
			<linearGradient id="SVGID_13_" gradientUnits="userSpaceOnUse" x1="-304.1445" y1="5757.7695" x2="-302.0583" y2="5755.6831" gradientTransform="matrix(214 0 0 -253 65672.625 1456898.25)">
			<stop  offset="0" style="stop-color:#630D02"/>
			<stop  offset="1" style="stop-color:#7A0B04"/>
		</linearGradient>
		<polygon fill="url(#SVGID_13_)" points="983.487,229.886 541.184,552.762 886.346,767.305 		"/>
		
			<linearGradient id="SVGID_14_" gradientUnits="userSpaceOnUse" x1="-305.2671" y1="5757.5713" x2="-303.1357" y2="5755.4399" gradientTransform="matrix(425 0 0 -253 130616.75 1456898.25)">
			<stop  offset="0" style="stop-color:#BF1D0D"/>
			<stop  offset="1" style="stop-color:#501206"/>
		</linearGradient>
		<polygon fill="url(#SVGID_14_)" points="1764.753,229.886 983.487,229.886 886.346,767.305 		"/>
		
			<linearGradient id="SVGID_15_" gradientUnits="userSpaceOnUse" x1="-305.0303" y1="5821.6045" x2="-302.9153" y2="5819.4897" gradientTransform="matrix(378 0 0 -60 116234.75 349404.4063)">
			<stop  offset="0" style="stop-color:#A72E07"/>
			<stop  offset="1" style="stop-color:#3F0A02"/>
		</linearGradient>
		<polygon fill="url(#SVGID_15_)" points="1613.875,102.435 983.487,229.886 1764.753,229.886 		"/>
		
			<linearGradient id="SVGID_16_" gradientUnits="userSpaceOnUse" x1="-299.3545" y1="5751.3057" x2="-297.2598" y2="5749.2109" gradientTransform="matrix(68 0 0 -335 20799.625 1927890.25)">
			<stop  offset="0" style="stop-color:#160401"/>
			<stop  offset="1" style="stop-color:#110400"/>
		</linearGradient>
		<polygon fill="url(#SVGID_16_)" points="435.775,1283.482 576.319,1952.601 475.045,1240.999 		"/>
		
			<linearGradient id="SVGID_17_" gradientUnits="userSpaceOnUse" x1="-304.9434" y1="5750.0977" x2="-302.8478" y2="5748.002" gradientTransform="matrix(218 0 0 -354 66868.625 2036912.25)">
			<stop  offset="0" style="stop-color:#0F1102"/>
			<stop  offset="1" style="stop-color:#0D0D01"/>
		</linearGradient>
		<polygon fill="url(#SVGID_17_)" points="576.319,1952.601 925.615,1992.96 475.045,1240.999 		"/>
		
			<linearGradient id="SVGID_18_" gradientUnits="userSpaceOnUse" x1="-305.8428" y1="5751.9893" x2="-303.7609" y2="5749.9072" gradientTransform="matrix(270 0 0 -315 82611.75 1813150.25)">
			<stop  offset="0" style="stop-color:#701F07"/>
			<stop  offset="1" style="stop-color:#390601"/>
		</linearGradient>
		<polygon fill="url(#SVGID_18_)" points="18.273,1714.692 576.319,1952.601 435.775,1283.482 		"/>
		
			<linearGradient id="SVGID_19_" gradientUnits="userSpaceOnUse" x1="-303.5034" y1="5804.3115" x2="-301.3961" y2="5802.2041" gradientTransform="matrix(169 0 0 -61 51874.625 356013.375)">
			<stop  offset="0" style="stop-color:#080300"/>
			<stop  offset="1" style="stop-color:#080300"/>
		</linearGradient>
		<polygon fill="url(#SVGID_19_)" points="723.066,2082.176 925.615,1992.96 576.319,1952.601 		"/>
		
			<linearGradient id="SVGID_20_" gradientUnits="userSpaceOnUse" x1="-295.291" y1="5757.6719" x2="-293.1951" y2="5755.5762" gradientTransform="matrix(120 0 0 -244 37585.5625 1405418.375)">
			<stop  offset="0" style="stop-color:#C95F11"/>
			<stop  offset="1" style="stop-color:#DC360A"/>
		</linearGradient>
		<polygon fill="url(#SVGID_20_)" points="2134.718,949.985 2200.857,1092.306 2382.738,574.004 		"/>
		
			<linearGradient id="SVGID_21_" gradientUnits="userSpaceOnUse" x1="-302.9526" y1="5752.6563" x2="-300.8499" y2="5750.5537" gradientTransform="matrix(299 0 0 -339 92359.75 1950366.25)">
			<stop  offset="0" style="stop-color:#822606"/>
			<stop  offset="1" style="stop-color:#E03B0B"/>
		</linearGradient>
		<polygon fill="url(#SVGID_21_)" points="2382.738,574.004 1764.753,229.886 2134.718,949.985 		"/>
		
			<linearGradient id="SVGID_22_" gradientUnits="userSpaceOnUse" x1="-304.6196" y1="5755.5303" x2="-302.5308" y2="5753.4414" gradientTransform="matrix(214 0 0 -287 65672.625 1651855.25)">
			<stop  offset="0" style="stop-color:#0E0600"/>
			<stop  offset="1" style="stop-color:#250601"/>
		</linearGradient>
		<polygon fill="url(#SVGID_22_)" points="983.487,229.886 715.371,-1.17 683.25,-1.17 668.826,-1.17 640.717,-1.17 
			541.184,552.762 		"/>
		
			<linearGradient id="SVGID_23_" gradientUnits="userSpaceOnUse" x1="-305.8604" y1="5756.0381" x2="-303.7624" y2="5753.9399" gradientTransform="matrix(338 0 0 -289 103455.75 1663329.25)">
			<stop  offset="0" style="stop-color:#410F04"/>
			<stop  offset="1" style="stop-color:#260501"/>
		</linearGradient>
		<polygon fill="url(#SVGID_23_)" points="640.717,-1.17 631.492,-1.17 265.543,-1.17 107.748,-1.17 9.666,-1.17 541.184,552.762 		
			"/>
		
			<linearGradient id="SVGID_24_" gradientUnits="userSpaceOnUse" x1="-302.9565" y1="5775.46" x2="-300.8613" y2="5773.3647" gradientTransform="matrix(161 0 0 -137 49454.625 791153.375)">
			<stop  offset="0" style="stop-color:#7B1B07"/>
			<stop  offset="1" style="stop-color:#461406"/>
		</linearGradient>
		<polygon fill="url(#SVGID_24_)" points="842.361,-1.17 715.371,-1.17 983.487,229.886 		"/>
		
			<linearGradient id="SVGID_25_" gradientUnits="userSpaceOnUse" x1="-305.3057" y1="5774.4053" x2="-303.1921" y2="5772.2915" gradientTransform="matrix(390 0 0 -140 119832.75 808364.375)">
			<stop  offset="0" style="stop-color:#170603"/>
			<stop  offset="1" style="stop-color:#3F170C"/>
		</linearGradient>
		<polygon fill="url(#SVGID_25_)" points="1471.665,-1.17 1359.987,-1.17 1212.012,-1.17 842.361,-1.17 983.487,229.886 		"/>
		
			<linearGradient id="SVGID_26_" gradientUnits="userSpaceOnUse" x1="-304.5552" y1="5774.4082" x2="-302.4313" y2="5772.2842" gradientTransform="matrix(305 0 0 -140 93823.75 808364.375)">
			<stop  offset="0" style="stop-color:#5F1506"/>
			<stop  offset="1" style="stop-color:#B33A14"/>
		</linearGradient>
		<polygon fill="url(#SVGID_26_)" points="1613.875,102.435 1612.614,-1.17 1573.277,-1.17 1471.665,-1.17 983.487,229.886 		"/>
		
			<linearGradient id="SVGID_27_" gradientUnits="userSpaceOnUse" x1="-292.1743" y1="5774.2129" x2="-290.0788" y2="5772.1172" gradientTransform="matrix(74 0 0 -140 23210.5 808364.375)">
			<stop  offset="0" style="stop-color:#8B3C11"/>
			<stop  offset="1" style="stop-color:#652915"/>
		</linearGradient>
		<polygon fill="url(#SVGID_27_)" points="1764.753,229.886 1645.92,-1.17 1628.896,-1.17 1612.614,-1.17 1613.875,102.435 		"/>
		
			<linearGradient id="SVGID_28_" gradientUnits="userSpaceOnUse" x1="-302.748" y1="5774.4941" x2="-300.6366" y2="5772.3828" gradientTransform="matrix(262 0 0 -140 80926.625 808364.375)">
			<stop  offset="0" style="stop-color:#5C4615"/>
			<stop  offset="1" style="stop-color:#B45620"/>
		</linearGradient>
		<polygon fill="url(#SVGID_28_)" points="2119.93,-1.17 1794.432,-1.17 1705.534,-1.17 1661.584,-1.17 1645.92,-1.17 
			1764.753,229.886 		"/>
		
			<linearGradient id="SVGID_29_" gradientUnits="userSpaceOnUse" x1="-297.6846" y1="5755.376" x2="-295.5852" y2="5753.2764" gradientTransform="matrix(155 0 0 -299 48339.625 1720709.25)">
			<stop  offset="0" style="stop-color:#CF4110"/>
			<stop  offset="1" style="stop-color:#CF2A0A"/>
		</linearGradient>
		<polygon fill="url(#SVGID_29_)" points="2465.095,-1.17 2166.95,-1.17 2161.669,-1.17 2382.738,574.004 		"/>
		
			<linearGradient id="SVGID_30_" gradientUnits="userSpaceOnUse" x1="-304.0107" y1="5754.9756" x2="-301.8964" y2="5752.8613" gradientTransform="matrix(489 0 0 -299 150988.5 1720709.25)">
			<stop  offset="0" style="stop-color:#B90A02"/>
			<stop  offset="1" style="stop-color:#941405"/>
		</linearGradient>
		<polygon fill="url(#SVGID_30_)" points="3304.177,-1.17 2878.779,-1.17 2839.029,-1.17 2701.929,-1.17 2688.895,-1.17 
			2626.617,-1.17 2571.588,-1.17 2541.869,-1.17 2465.095,-1.17 2382.738,574.004 		"/>
		
			<linearGradient id="SVGID_31_" gradientUnits="userSpaceOnUse" x1="-303.751" y1="5749.4912" x2="-301.6685" y2="5747.4087" gradientTransform="matrix(489 0 0 -449 150988.5 2581411.5)">
			<stop  offset="0" style="stop-color:#990904"/>
			<stop  offset="1" style="stop-color:#810D05"/>
		</linearGradient>
		<polygon fill="url(#SVGID_31_)" points="3300.417,896.88 3387.991,-1.17 3304.177,-1.17 2382.738,574.004 		"/>
		
			<linearGradient id="SVGID_32_" gradientUnits="userSpaceOnUse" x1="-300.4297" y1="5748.5469" x2="-298.3317" y2="5746.4487" gradientTransform="matrix(284 0 0 -465 88497.75 2673219.5)">
			<stop  offset="0" style="stop-color:#B81607"/>
			<stop  offset="1" style="stop-color:#720F05"/>
		</linearGradient>
		<polygon fill="url(#SVGID_32_)" points="3840,928.123 3840,836.09 3421.284,-1.17 3387.991,-1.17 3300.417,896.88 		"/>
		
			<linearGradient id="SVGID_33_" gradientUnits="userSpaceOnUse" x1="-298.3555" y1="5749.332" x2="-296.2596" y2="5747.2363" gradientTransform="matrix(247 0 0 -467 77183.625 2684693.5)">
			<stop  offset="0" style="stop-color:#6A0902"/>
			<stop  offset="1" style="stop-color:#A25631"/>
		</linearGradient>
		<polygon fill="url(#SVGID_33_)" points="3840,623.23 3840,575.078 3840,520.73 3840,467.566 3840,411.287 3840,405.222 
			3840,400.554 3840,12.893 3840,-1.17 3768.443,-1.17 3765.43,-1.17 3421.284,-1.17 3840,836.09 		"/>
		
			<linearGradient id="SVGID_34_" gradientUnits="userSpaceOnUse" x1="-300.2544" y1="5784.3008" x2="-298.1518" y2="5782.1982" gradientTransform="matrix(299 0 0 -94 93096.75 545101.5)">
			<stop  offset="0" style="stop-color:#966B34"/>
			<stop  offset="1" style="stop-color:#784429"/>
		</linearGradient>
		<polygon fill="url(#SVGID_34_)" points="3288.016,1387.567 3660.047,1587.241 3840,1481.557 3840,1436.898 		"/>
		
			<linearGradient id="SVGID_35_" gradientUnits="userSpaceOnUse" x1="-300.3916" y1="5756.9443" x2="-298.3192" y2="5754.8721" gradientTransform="matrix(299 0 0 -241 93096.75 1388372.375)">
			<stop  offset="0" style="stop-color:#953D0B"/>
			<stop  offset="1" style="stop-color:#79270F"/>
		</linearGradient>
		<polygon fill="url(#SVGID_35_)" points="3840,1436.898 3840,1332.666 3840,1294.61 3840,1272.437 3840,1261.255 3840,1034.79 
			3840,966.982 3288.016,1387.567 		"/>
		
			<linearGradient id="SVGID_36_" gradientUnits="userSpaceOnUse" x1="-296.4531" y1="5752.7305" x2="-294.3498" y2="5750.627" gradientTransform="matrix(197 0 0 -287 61878.625 1652629.25)">
			<stop  offset="0" style="stop-color:#65570B"/>
			<stop  offset="1" style="stop-color:#4B2504"/>
		</linearGradient>
		<polygon fill="url(#SVGID_36_)" points="3486.432,1882.503 3840,2155.498 3840,2130.853 3840,2056.972 3660.047,1587.241 		"/>
		
			<linearGradient id="SVGID_37_" gradientUnits="userSpaceOnUse" x1="-288.457" y1="5750.3945" x2="-286.3639" y2="5748.3013" gradientTransform="matrix(119 0 0 -355 38016.5625 2042745.25)">
			<stop  offset="0" style="stop-color:#6E1504"/>
			<stop  offset="1" style="stop-color:#52280D"/>
		</linearGradient>
		<polygon fill="url(#SVGID_37_)" points="3840,2056.972 3840,1481.557 3660.047,1587.241 		"/>
		
			<linearGradient id="SVGID_38_" gradientUnits="userSpaceOnUse" x1="-299.1172" y1="5746.7324" x2="-297.0107" y2="5744.626" gradientTransform="matrix(224 0 0 -520 69847.625 2989354.5)">
			<stop  offset="0" style="stop-color:#841D06"/>
			<stop  offset="1" style="stop-color:#5D2B06"/>
		</linearGradient>
		<polygon fill="url(#SVGID_38_)" points="2825.044,1100.802 3022.979,2158.632 3046.377,2158.632 3288.016,1387.567 		"/>
		
			<linearGradient id="SVGID_39_" gradientUnits="userSpaceOnUse" x1="-298.7837" y1="5749.0947" x2="-296.6835" y2="5746.9946" gradientTransform="matrix(220 0 0 -385 68719.625 2214859.25)">
			<stop  offset="0" style="stop-color:#543C0B"/>
			<stop  offset="1" style="stop-color:#392606"/>
		</linearGradient>
		<polygon fill="url(#SVGID_39_)" points="3288.016,1387.567 3046.377,2158.632 3097.56,2158.632 3486.432,1882.503 		"/>
		
			<linearGradient id="SVGID_40_" gradientUnits="userSpaceOnUse" x1="-302.7109" y1="5764.709" x2="-300.6055" y2="5762.6035" gradientTransform="matrix(417 0 0 -152 129198.75 878138.375)">
			<stop  offset="0" style="stop-color:#452F07"/>
			<stop  offset="1" style="stop-color:#200D01"/>
		</linearGradient>
		<polygon fill="url(#SVGID_40_)" points="3097.56,2158.632 3247.879,2158.632 3410.817,2158.632 3435.02,2158.632 
			3725.12,2158.632 3830.779,2158.632 3840,2158.632 3840,2155.498 3486.432,1882.503 		"/>
		
			<linearGradient id="SVGID_41_" gradientUnits="userSpaceOnUse" x1="-304.6963" y1="5771.6611" x2="-302.5962" y2="5769.561" gradientTransform="matrix(193 0 0 -120 59120.625 694555.4375)">
			<stop  offset="0" style="stop-color:#090300"/>
			<stop  offset="1" style="stop-color:#0A0300"/>
		</linearGradient>
		<polygon fill="url(#SVGID_41_)" points="576.319,1952.601 372.51,2158.632 479.716,2158.632 723.066,2082.176 		"/>
		
			<linearGradient id="SVGID_42_" gradientUnits="userSpaceOnUse" x1="-305.8652" y1="5756.0059" x2="-303.7613" y2="5753.9019" gradientTransform="matrix(270 0 0 -232 82611.75 1337099.375)">
			<stop  offset="0" style="stop-color:#3F2D0A"/>
			<stop  offset="1" style="stop-color:#191003"/>
		</linearGradient>
		<polygon fill="url(#SVGID_42_)" points="18.273,1714.692 293.832,2158.632 367.405,2158.632 372.51,2158.632 576.319,1952.601 		
			"/>
		
			<linearGradient id="SVGID_43_" gradientUnits="userSpaceOnUse" x1="-305.7964" y1="5755.6172" x2="-303.6987" y2="5753.5195" gradientTransform="matrix(173 0 0 -232 52807.625 1337099.375)">
			<stop  offset="0" style="stop-color:#3C1D06"/>
			<stop  offset="1" style="stop-color:#1E0701"/>
		</linearGradient>
		<polygon fill="url(#SVGID_43_)" points="0,1886.721 0,2027.835 0,2158.632 32.014,2158.632 83.598,2158.632 293.832,2158.632 
			18.273,1714.692 		"/>
		
			<linearGradient id="SVGID_44_" gradientUnits="userSpaceOnUse" x1="-305.7021" y1="5813.1182" x2="-303.6033" y2="5811.019" gradientTransform="matrix(285 0 0 -64 87184.75 372568.375)">
			<stop  offset="0" style="stop-color:#060200"/>
			<stop  offset="1" style="stop-color:#340E03"/>
		</linearGradient>
		<polygon fill="url(#SVGID_44_)" points="541.184,552.762 0,558.617 0,573.092 396.506,688.71 		"/>
		
			<linearGradient id="SVGID_45_" gradientUnits="userSpaceOnUse" x1="-306.5693" y1="5755.0049" x2="-304.4739" y2="5752.9097" gradientTransform="matrix(285 0 0 -292 87184.75 1680543.25)">
			<stop  offset="0" style="stop-color:#4A1006"/>
			<stop  offset="1" style="stop-color:#3D1005"/>
		</linearGradient>
		<polygon fill="url(#SVGID_45_)" points="9.666,-1.17 0,-1.17 0,1.368 0,66.64 0,479.423 0,558.617 541.184,552.762 		"/>
		
			<linearGradient id="SVGID_46_" gradientUnits="userSpaceOnUse" x1="-304.4492" y1="5756.1641" x2="-302.3667" y2="5754.0815" gradientTransform="matrix(150 0 0 -260 45842.625 1497280.25)">
			<stop  offset="0" style="stop-color:#070300"/>
			<stop  offset="1" style="stop-color:#060200"/>
		</linearGradient>
		<polygon fill="url(#SVGID_46_)" points="396.506,688.71 165.018,1032.828 475.045,1240.999 		"/>
		
			<linearGradient id="SVGID_47_" gradientUnits="userSpaceOnUse" x1="-304.5215" y1="5776.3828" x2="-302.424" y2="5774.2852" gradientTransform="matrix(150 0 0 -118 45842.625 682646.4375)">
			<stop  offset="0" style="stop-color:#080200"/>
			<stop  offset="1" style="stop-color:#070200"/>
		</linearGradient>
		<polygon fill="url(#SVGID_47_)" points="165.018,1032.828 435.775,1283.482 475.045,1240.999 		"/>
		
			<linearGradient id="SVGID_48_" gradientUnits="userSpaceOnUse" x1="-306.0103" y1="5776.2891" x2="-303.9065" y2="5774.1855" gradientTransform="matrix(236 0 0 -118 72139.625 682646.4375)">
			<stop  offset="0" style="stop-color:#817C6C"/>
			<stop  offset="1" style="stop-color:#060100"/>
		</linearGradient>
		<polygon fill="url(#SVGID_48_)" points="165.018,1032.828 0,1166.891 0,1167.571 0,1193.681 0,1217.062 435.775,1283.482 		"/>
		
			<linearGradient id="SVGID_49_" gradientUnits="userSpaceOnUse" x1="-304.7632" y1="5753.3779" x2="-302.6719" y2="5751.2866" gradientTransform="matrix(105 0 0 -306 31922.5 1761167.25)">
			<stop  offset="0" style="stop-color:#D87D6E"/>
			<stop  offset="1" style="stop-color:#6C0E05"/>
		</linearGradient>
		<polygon fill="url(#SVGID_49_)" points="0,665.643 0,713.658 0,724.023 0,739.977 0,929.28 0,944.101 0,1138.947 0,1153.762 
			0,1166.891 165.018,1032.828 		"/>
		
			<linearGradient id="SVGID_50_" gradientUnits="userSpaceOnUse" x1="-305.6914" y1="5759.5234" x2="-303.5858" y2="5757.418" gradientTransform="matrix(215 0 0 -223 65694.625 1284913.375)">
			<stop  offset="0" style="stop-color:#471305"/>
			<stop  offset="1" style="stop-color:#050100"/>
		</linearGradient>
		<polygon fill="url(#SVGID_50_)" points="396.506,688.71 0,573.092 0,665.643 165.018,1032.828 		"/>
		
			<linearGradient id="SVGID_51_" gradientUnits="userSpaceOnUse" x1="-297.8232" y1="5749.9658" x2="-295.7404" y2="5747.8828" gradientTransform="matrix(30 0 0 -373 8901.6406 2146013.25)">
			<stop  offset="0" style="stop-color:#120B04"/>
			<stop  offset="1" style="stop-color:#624911"/>
		</linearGradient>
		<polygon fill="url(#SVGID_51_)" points="0,1624.547 0,1886.721 18.273,1714.692 		"/>
		
			<linearGradient id="SVGID_52_" gradientUnits="userSpaceOnUse" x1="-306.0244" y1="5785.0693" x2="-303.942" y2="5782.9868" gradientTransform="matrix(236 0 0 -94 72139.625 545017.5)">
			<stop  offset="0" style="stop-color:#F2DEAF"/>
			<stop  offset="1" style="stop-color:#997639"/>
		</linearGradient>
		<polygon fill="url(#SVGID_52_)" points="0,1217.062 0,1397.379 435.775,1283.482 		"/>
		
			<linearGradient id="SVGID_53_" gradientUnits="userSpaceOnUse" x1="-305.8071" y1="5759.7109" x2="-303.6917" y2="5757.5957" gradientTransform="matrix(232 0 0 -203 70915.625 1170494.375)">
			<stop  offset="0" style="stop-color:#985C0F"/>
			<stop  offset="1" style="stop-color:#9A6214"/>
		</linearGradient>
		<polygon fill="url(#SVGID_53_)" points="435.775,1283.482 0,1397.379 0,1624.547 18.273,1714.692 		"/>
		
			<linearGradient id="SVGID_54_" gradientUnits="userSpaceOnUse" x1="-304.3491" y1="5759.6367" x2="-302.2372" y2="5757.5249" gradientTransform="matrix(375 0 0 -211 115527.75 1216241.375)">
			<stop  offset="0" style="stop-color:#87370C"/>
			<stop  offset="1" style="stop-color:#9A5C13"/>
		</linearGradient>
		<polygon fill="url(#SVGID_54_)" points="1425.791,1398.188 2200.857,1092.306 2134.718,949.985 		"/>
		
			<linearGradient id="SVGID_55_" gradientUnits="userSpaceOnUse" x1="-306.0239" y1="5753.5576" x2="-303.9205" y2="5751.4541" gradientTransform="matrix(460 0 0 -297 141162.5 1709623.25)">
			<stop  offset="0" style="stop-color:#7D2103"/>
			<stop  offset="1" style="stop-color:#DC420D"/>
		</linearGradient>
		<polygon fill="url(#SVGID_55_)" points="475.045,1240.999 1425.791,1398.188 886.346,767.305 		"/>
		
			<linearGradient id="SVGID_56_" gradientUnits="userSpaceOnUse" x1="-305.7217" y1="5750.6045" x2="-303.6159" y2="5748.4985" gradientTransform="matrix(460 0 0 -354 141162.5 2036912.25)">
			<stop  offset="0" style="stop-color:#120600"/>
			<stop  offset="1" style="stop-color:#5F2E09"/>
		</linearGradient>
		<polygon fill="url(#SVGID_56_)" points="925.615,1992.96 1425.791,1398.188 475.045,1240.999 		"/>
		
			<linearGradient id="SVGID_57_" gradientUnits="userSpaceOnUse" x1="-304.9697" y1="5747.2725" x2="-302.876" y2="5745.1787" gradientTransform="matrix(425 0 0 -550 130616.75 3161084.5)">
			<stop  offset="0" style="stop-color:#760704"/>
			<stop  offset="1" style="stop-color:#6E2D0A"/>
		</linearGradient>
		<polygon fill="url(#SVGID_57_)" points="886.346,767.305 1425.791,1398.188 1764.753,229.886 		"/>
		
			<linearGradient id="SVGID_58_" gradientUnits="userSpaceOnUse" x1="-304.2969" y1="5749.4648" x2="-302.2182" y2="5747.3862" gradientTransform="matrix(289 0 0 -379 88883.75 2180436.25)">
			<stop  offset="0" style="stop-color:#181700"/>
			<stop  offset="1" style="stop-color:#693B09"/>
		</linearGradient>
		<polygon fill="url(#SVGID_58_)" points="925.615,1992.96 1396.188,2158.632 1517.549,2158.632 1425.791,1398.188 		"/>
		
			<linearGradient id="SVGID_59_" gradientUnits="userSpaceOnUse" x1="-302.2051" y1="5749.2207" x2="-300.1156" y2="5747.1313" gradientTransform="matrix(204 0 0 -379 63030.625 2180436.25)">
			<stop  offset="0" style="stop-color:#2F3705"/>
			<stop  offset="1" style="stop-color:#654B0C"/>
		</linearGradient>
		<polygon fill="url(#SVGID_59_)" points="1425.791,1398.188 1517.549,2158.632 1574.969,2158.632 1847.428,1924.986 		"/>
		
			<linearGradient id="SVGID_60_" gradientUnits="userSpaceOnUse" x1="-304.3091" y1="5746.7305" x2="-302.2112" y2="5744.6323" gradientTransform="matrix(343 0 0 -550 105703.75 3161084.5)">
			<stop  offset="0" style="stop-color:#732109"/>
			<stop  offset="1" style="stop-color:#E35E15"/>
		</linearGradient>
		<polygon fill="url(#SVGID_60_)" points="1764.753,229.886 1425.791,1398.188 2134.718,949.985 		"/>
		
			<linearGradient id="SVGID_61_" gradientUnits="userSpaceOnUse" x1="-304" y1="5749.7363" x2="-301.9023" y2="5747.6387" gradientTransform="matrix(375 0 0 -392 115527.75 2254886.25)">
			<stop  offset="0" style="stop-color:#0D0D01"/>
			<stop  offset="1" style="stop-color:#965F12"/>
		</linearGradient>
		<polygon fill="url(#SVGID_61_)" points="1847.428,1924.986 2200.857,1092.306 1425.791,1398.188 		"/>
		
			<linearGradient id="SVGID_62_" gradientUnits="userSpaceOnUse" x1="-303.6777" y1="5746.7383" x2="-301.557" y2="5744.6177" gradientTransform="matrix(397 0 0 -515 122561.75 2960660.5)">
			<stop  offset="0" style="stop-color:#6D6810"/>
			<stop  offset="1" style="stop-color:#492805"/>
		</linearGradient>
		<polygon fill="url(#SVGID_62_)" points="2200.857,1092.306 2009.467,2158.632 2025.394,2158.632 2825.044,1100.802 		"/>
		
			<linearGradient id="SVGID_63_" gradientUnits="userSpaceOnUse" x1="-304.4458" y1="5746.5742" x2="-302.3313" y2="5744.4595" gradientTransform="matrix(497 0 0 -520 153261.5 2989354.5)">
			<stop  offset="0" style="stop-color:#5B2F05"/>
			<stop  offset="1" style="stop-color:#1D1A01"/>
		</linearGradient>
		<polygon fill="url(#SVGID_63_)" points="2025.394,2158.632 2542.72,2158.632 2687.253,2158.632 3022.979,2158.632 
			2825.044,1100.802 		"/>
		
			<linearGradient id="SVGID_64_" gradientUnits="userSpaceOnUse" x1="-302.4502" y1="5768.9443" x2="-300.3408" y2="5766.835" gradientTransform="matrix(233 0 0 -131 71980.625 757660.375)">
			<stop  offset="0" style="stop-color:#2F1101"/>
			<stop  offset="1" style="stop-color:#1C0B01"/>
		</linearGradient>
		<polygon fill="url(#SVGID_64_)" points="1574.969,2158.632 1579.171,2158.632 1639.966,2158.632 1793.815,2158.632 
			1951.301,2158.632 1987.897,2158.632 1847.428,1924.986 		"/>
		
			<linearGradient id="SVGID_65_" gradientUnits="userSpaceOnUse" x1="-299.6162" y1="5746.833" x2="-297.5292" y2="5744.7461" gradientTransform="matrix(171 0 0 -515 53103.625 2960660.5)">
			<stop  offset="0" style="stop-color:#3B270C"/>
			<stop  offset="1" style="stop-color:#6B4910"/>
		</linearGradient>
		<polygon fill="url(#SVGID_65_)" points="1847.428,1924.986 1987.897,2158.632 2009.467,2158.632 2200.857,1092.306 		"/>
		
			<linearGradient id="SVGID_66_" gradientUnits="userSpaceOnUse" x1="-304.7651" y1="5805.6592" x2="-302.649" y2="5803.543" gradientTransform="matrix(230 0 0 -59 70479.625 344598.4063)">
			<stop  offset="0" style="stop-color:#090300"/>
			<stop  offset="1" style="stop-color:#090300"/>
		</linearGradient>
		<polygon fill="url(#SVGID_66_)" points="479.716,2158.632 594.848,2158.632 718.219,2158.632 770.523,2158.632 723.066,2082.176 
					"/>
		
			<linearGradient id="SVGID_67_" gradientUnits="userSpaceOnUse" x1="-300.0313" y1="5778.4336" x2="-297.9296" y2="5776.332" gradientTransform="matrix(98 0 0 -100 30148.5 579814.4375)">
			<stop  offset="0" style="stop-color:#090300"/>
			<stop  offset="1" style="stop-color:#0A0300"/>
		</linearGradient>
		<polygon fill="url(#SVGID_67_)" points="723.066,2082.176 770.523,2158.632 827.284,2158.632 925.615,1992.96 		"/>
		
			<linearGradient id="SVGID_68_" gradientUnits="userSpaceOnUse" x1="-305.3081" y1="5777.9111" x2="-303.21" y2="5775.813" gradientTransform="matrix(350 0 0 -100 107549.75 579814.4375)">
			<stop  offset="0" style="stop-color:#150601"/>
			<stop  offset="1" style="stop-color:#180601"/>
		</linearGradient>
		<polygon fill="url(#SVGID_68_)" points="827.284,2158.632 1396.188,2158.632 925.615,1992.96 		"/>
	</g>
</g>
<g id="Layer_8">
</g>
<g id="Layer_9">
</g>
<g id="Layer_10">
</g>
<g id="Layer_11">
</g>
<g id="Layer_12">
</g>
<g id="Layer_13">
</g>
<g id="Layer_14">
</g>
<g id="Layer_15">
</g>
<g id="Layer_16">
</g>
<g id="Layer_17">
</g>
<g id="Layer_18">
</g>
<g id="Layer_19">
</g>
<g id="Layer_20">
</g>
<g id="Layer_21">
</g>
<g id="Layer_22">
</g>
<g id="Layer_23">
</g>
<g id="Layer_24">
</g>
<g id="Layer_25">
</g>
</svg>
