<?xml version="1.0" encoding="utf-8"?>
<!-- Generator: Adobe Illustrator 16.0.0, SVG Export Plug-In . SVG Version: 6.00 Build 0)  -->
<!DOCTYPE svg PUBLIC "-//W3C//DTD SVG 1.1//EN" "http://www.w3.org/Graphics/SVG/1.1/DTD/svg11.dtd">
<svg version="1.1" xmlns="http://www.w3.org/2000/svg" xmlns:xlink="http://www.w3.org/1999/xlink" x="0px" y="0px" width="3840px"
	 height="2160px" viewBox="0 0 3840 2160" enable-background="new 0 0 3840 2160" xml:space="preserve">
<g id="Layer_1">
</g>
<g id="Layer_2">
</g>
<g id="Layer_3">
</g>
<g id="Layer_4">
</g>
<g id="Layer_5">
</g>
<g id="Layer_6">
</g>
<g id="Layer_7">
</g>
<g id="Layer_8">
</g>
<g id="Layer_9">
</g>
<g id="Layer_10">
</g>
<g id="Layer_11">
</g>
<g id="Layer_12">
</g>
<g id="Layer_13">
</g>
<g id="Layer_14">
</g>
<g id="Layer_15">
	<g>
		
			<linearGradient id="SVGID_1_" gradientUnits="userSpaceOnUse" x1="-302.7329" y1="1381.2334" x2="-300.062" y2="1378.5625" gradientTransform="matrix(218 0 0 -174 66969.625 240595.375)">
			<stop  offset="0" style="stop-color:#093F09"/>
			<stop  offset="1" style="stop-color:#305711"/>
		</linearGradient>
		<polygon fill="url(#SVGID_1_)" points="1437.94,744.951 1533.181,308.59 939.972,632.1 		"/>
		
			<linearGradient id="SVGID_2_" gradientUnits="userSpaceOnUse" x1="-305.4619" y1="1374.9736" x2="-302.7935" y2="1372.3052" gradientTransform="matrix(193 0 0 -101 58937.625 140560.4375)">
			<stop  offset="0" style="stop-color:#2A7610"/>
			<stop  offset="1" style="stop-color:#387F14"/>
		</linearGradient>
		<polygon fill="url(#SVGID_2_)" points="493.704,1710.466 0.002,1922.643 0.002,1941.156 142.677,1963.757 		"/>
		
			<linearGradient id="SVGID_3_" gradientUnits="userSpaceOnUse" x1="-303.7808" y1="1376.168" x2="-301.1918" y2="1373.579" gradientTransform="matrix(129 0 0 -159 39353.625 220484.375)">
			<stop  offset="0" style="stop-color:#347D18"/>
			<stop  offset="1" style="stop-color:#3A7F15"/>
		</linearGradient>
		<polygon fill="url(#SVGID_3_)" points="221.588,2109.211 493.704,1710.466 142.677,1963.757 		"/>
		
			<linearGradient id="SVGID_4_" gradientUnits="userSpaceOnUse" x1="-303.333" y1="1382.1162" x2="-300.7943" y2="1379.5775" gradientTransform="matrix(241 0 0 -129 74007.625 178585.375)">
			<stop  offset="0" style="stop-color:#2B6914"/>
			<stop  offset="1" style="stop-color:#5D9921"/>
		</linearGradient>
		<polygon fill="url(#SVGID_4_)" points="1533.181,308.59 877.386,449.027 939.972,632.1 		"/>
		
			<linearGradient id="SVGID_5_" gradientUnits="userSpaceOnUse" x1="-304.7866" y1="1383.7598" x2="-302.1721" y2="1381.1453" gradientTransform="matrix(263 0 0 -86 80521.625 119374.5)">
			<stop  offset="0" style="stop-color:#020A02"/>
			<stop  offset="1" style="stop-color:#1D490E"/>
		</linearGradient>
		<polygon fill="url(#SVGID_5_)" points="877.386,449.027 224.311,416.426 939.972,632.1 		"/>
		
			<linearGradient id="SVGID_6_" gradientUnits="userSpaceOnUse" x1="-303.6875" y1="1380.7617" x2="-301.031" y2="1378.1052" gradientTransform="matrix(346 0 0 -174 106448.75 240595.375)">
			<stop  offset="0" style="stop-color:#61731E"/>
			<stop  offset="1" style="stop-color:#98B527"/>
		</linearGradient>
		<polygon fill="url(#SVGID_6_)" points="2379.456,479.122 1533.181,308.59 1437.94,744.951 		"/>
		
			<linearGradient id="SVGID_7_" gradientUnits="userSpaceOnUse" x1="-303.0303" y1="1379.71" x2="-300.4127" y2="1377.0924" gradientTransform="matrix(346 0 0 -342 106448.75 472167.25)">
			<stop  offset="0" style="stop-color:#122706"/>
			<stop  offset="1" style="stop-color:#406D0D"/>
		</linearGradient>
		<polygon fill="url(#SVGID_7_)" points="1437.94,744.951 2126.39,1336.799 2379.456,479.122 		"/>
		
			<linearGradient id="SVGID_8_" gradientUnits="userSpaceOnUse" x1="-299.1816" y1="1378.8281" x2="-296.5987" y2="1376.2451" gradientTransform="matrix(204 0 0 -360 63107.625 496971.25)">
			<stop  offset="0" style="stop-color:#0C680A"/>
			<stop  offset="1" style="stop-color:#41870E"/>
		</linearGradient>
		<polygon fill="url(#SVGID_8_)" points="2126.39,1336.799 2681.503,1381.94 2379.456,479.122 		"/>
		
			<linearGradient id="SVGID_9_" gradientUnits="userSpaceOnUse" x1="-299.4155" y1="1379.2949" x2="-296.8409" y2="1376.7202" gradientTransform="matrix(243 0 0 -360 75173.625 496971.25)">
			<stop  offset="0" style="stop-color:#58980B"/>
			<stop  offset="1" style="stop-color:#206D09"/>
		</linearGradient>
		<polygon fill="url(#SVGID_9_)" points="2379.456,479.122 2681.503,1381.94 3040.694,787.585 		"/>
		
			<linearGradient id="SVGID_10_" gradientUnits="userSpaceOnUse" x1="-305.8965" y1="1377.8252" x2="-303.274" y2="1375.2028" gradientTransform="matrix(193 0 0 -353 58937.625 487553.25)">
			<stop  offset="0" style="stop-color:#3B7514"/>
			<stop  offset="1" style="stop-color:#348210"/>
		</linearGradient>
		<polygon fill="url(#SVGID_10_)" points="39.272,1050.907 0.002,1542.307 0.002,1922.643 493.704,1710.466 		"/>
		
			<linearGradient id="SVGID_11_" gradientUnits="userSpaceOnUse" x1="-296.7661" y1="1379.9805" x2="-294.1981" y2="1377.4124" gradientTransform="matrix(221 0 0 -125 68662.625 173264.375)">
			<stop  offset="0" style="stop-color:#305E0D"/>
			<stop  offset="1" style="stop-color:#1A610A"/>
		</linearGradient>
		<polygon fill="url(#SVGID_11_)" points="3642.067,865.327 3040.694,787.585 3277.435,1101.063 		"/>
		
			<linearGradient id="SVGID_12_" gradientUnits="userSpaceOnUse" x1="-297.4966" y1="1378.5781" x2="-294.8827" y2="1375.9642" gradientTransform="matrix(219 0 0 -256 67916.625 353907.25)">
			<stop  offset="0" style="stop-color:#1F7E11"/>
			<stop  offset="1" style="stop-color:#0E6D09"/>
		</linearGradient>
		<polygon fill="url(#SVGID_12_)" points="2681.503,1381.94 3013.483,1743.067 3277.435,1101.063 		"/>
		
			<linearGradient id="SVGID_13_" gradientUnits="userSpaceOnUse" x1="-298.0586" y1="1378.7031" x2="-295.459" y2="1376.1036" gradientTransform="matrix(219 0 0 -237 67916.625 327600.375)">
			<stop  offset="0" style="stop-color:#17770A"/>
			<stop  offset="1" style="stop-color:#0D5405"/>
		</linearGradient>
		<polygon fill="url(#SVGID_13_)" points="3040.694,787.585 2681.503,1381.94 3277.435,1101.063 		"/>
		
			<linearGradient id="SVGID_14_" gradientUnits="userSpaceOnUse" x1="-306.0737" y1="1377.8486" x2="-303.4363" y2="1375.2113" gradientTransform="matrix(499 0 0 -244 153072.5 337370.375)">
			<stop  offset="0" style="stop-color:#4B9C12"/>
			<stop  offset="1" style="stop-color:#147F07"/>
		</linearGradient>
		<polygon fill="url(#SVGID_14_)" points="493.704,1710.466 1851.556,1452.159 637.925,1098.556 		"/>
		
			<linearGradient id="SVGID_15_" gradientUnits="userSpaceOnUse" x1="-304.9907" y1="1378.7842" x2="-302.3908" y2="1376.1842" gradientTransform="matrix(220 0 0 -263 67252.625 363533.25)">
			<stop  offset="0" style="stop-color:#077607"/>
			<stop  offset="1" style="stop-color:#27860D"/>
		</linearGradient>
		<polygon fill="url(#SVGID_15_)" points="39.272,1050.907 493.704,1710.466 637.925,1098.556 		"/>
		
			<linearGradient id="SVGID_16_" gradientUnits="userSpaceOnUse" x1="-305.8691" y1="1379.2617" x2="-303.2742" y2="1376.6667" gradientTransform="matrix(220 0 0 -272 67252.625 375682.25)">
			<stop  offset="0" style="stop-color:#023E02"/>
			<stop  offset="1" style="stop-color:#022D02"/>
		</linearGradient>
		<polygon fill="url(#SVGID_16_)" points="224.311,416.426 39.272,1050.907 637.925,1098.556 		"/>
		
			<linearGradient id="SVGID_17_" gradientUnits="userSpaceOnUse" x1="-304.6885" y1="1379.6123" x2="-302.027" y2="1376.9508" gradientTransform="matrix(294 0 0 -186 90190.75 257260.375)">
			<stop  offset="0" style="stop-color:#205817"/>
			<stop  offset="1" style="stop-color:#18560E"/>
		</linearGradient>
		<polygon fill="url(#SVGID_17_)" points="637.925,1098.556 1437.94,744.951 939.972,632.1 		"/>
		
			<linearGradient id="SVGID_18_" gradientUnits="userSpaceOnUse" x1="-305.3203" y1="1379.0645" x2="-302.6703" y2="1376.4144" gradientTransform="matrix(446 0 0 -282 136854.5 389593.25)">
			<stop  offset="0" style="stop-color:#081A04"/>
			<stop  offset="1" style="stop-color:#075705"/>
		</linearGradient>
		<polygon fill="url(#SVGID_18_)" points="637.925,1098.556 1851.556,1452.159 1437.94,744.951 		"/>
		
			<linearGradient id="SVGID_19_" gradientUnits="userSpaceOnUse" x1="-305.0645" y1="1379.9023" x2="-302.4785" y2="1377.3164" gradientTransform="matrix(263 0 0 -272 80521.625 375682.25)">
			<stop  offset="0" style="stop-color:#010C01"/>
			<stop  offset="1" style="stop-color:#044304"/>
		</linearGradient>
		<polygon fill="url(#SVGID_19_)" points="939.972,632.1 224.311,416.426 637.925,1098.556 		"/>
		
			<linearGradient id="SVGID_20_" gradientUnits="userSpaceOnUse" x1="-303.9277" y1="1376.1523" x2="-301.3701" y2="1373.5947" gradientTransform="matrix(144 0 0 -189 43987.625 261824.375)">
			<stop  offset="0" style="stop-color:#1B650E"/>
			<stop  offset="1" style="stop-color:#326E0E"/>
		</linearGradient>
		<polygon fill="url(#SVGID_20_)" points="221.588,2109.211 489.567,2160.663 594.849,2160.663 607.427,2160.663 493.704,1710.466 
					"/>
		
			<linearGradient id="SVGID_21_" gradientUnits="userSpaceOnUse" x1="-299.3022" y1="1379.0215" x2="-296.6905" y2="1376.4098" gradientTransform="matrix(160 0 0 -282 49346.625 389593.25)">
			<stop  offset="0" style="stop-color:#094106"/>
			<stop  offset="1" style="stop-color:#087107"/>
		</linearGradient>
		<polygon fill="url(#SVGID_21_)" points="1437.94,744.951 1851.556,1452.159 1873.323,1369.401 		"/>
		
			<linearGradient id="SVGID_22_" gradientUnits="userSpaceOnUse" x1="-302.3232" y1="1378.9033" x2="-299.7059" y2="1376.286" gradientTransform="matrix(253 0 0 -249 77897.625 344119.25)">
			<stop  offset="0" style="stop-color:#083F05"/>
			<stop  offset="1" style="stop-color:#0A6E08"/>
		</linearGradient>
		<polygon fill="url(#SVGID_22_)" points="1873.323,1369.401 2126.39,1336.799 1437.94,744.951 		"/>
		
			<linearGradient id="SVGID_23_" gradientUnits="userSpaceOnUse" x1="-292.4082" y1="1375.8535" x2="-289.5928" y2="1373.0381" gradientTransform="matrix(101 0 0 -46 31385.5 64621.4063)">
			<stop  offset="0" style="stop-color:#096D06"/>
			<stop  offset="1" style="stop-color:#0A7007"/>
		</linearGradient>
		<polygon fill="url(#SVGID_23_)" points="1851.556,1452.159 2126.39,1336.799 1873.323,1369.401 		"/>
		
			<linearGradient id="SVGID_24_" gradientUnits="userSpaceOnUse" x1="-296.7944" y1="1373.3838" x2="-294.1393" y2="1370.7286" gradientTransform="matrix(213 0 0 -78 66196.625 108879.5)">
			<stop  offset="0" style="stop-color:#11710B"/>
			<stop  offset="1" style="stop-color:#156E0E"/>
		</linearGradient>
		<polygon fill="url(#SVGID_24_)" points="3070.628,1938.678 3593.087,1830.842 3013.483,1743.067 		"/>
		
			<linearGradient id="SVGID_25_" gradientUnits="userSpaceOnUse" x1="-296.8447" y1="1377.8584" x2="-294.2617" y2="1375.2754" gradientTransform="matrix(213 0 0 -291 66196.625 402137.25)">
			<stop  offset="0" style="stop-color:#0A6C05"/>
			<stop  offset="1" style="stop-color:#066106"/>
		</linearGradient>
		<polygon fill="url(#SVGID_25_)" points="3013.483,1743.067 3593.087,1830.842 3277.435,1101.063 		"/>
		
			<linearGradient id="SVGID_26_" gradientUnits="userSpaceOnUse" x1="-296.0181" y1="1379.0518" x2="-293.3767" y2="1376.4104" gradientTransform="matrix(26 0 0 -785 7668.6406 1082418)">
			<stop  offset="0" style="stop-color:#2B7B10"/>
			<stop  offset="1" style="stop-color:#137D0D"/>
		</linearGradient>
		<polygon fill="url(#SVGID_26_)" points="0.002,399.426 0.002,481.452 0.002,715.687 0.002,726.052 0.002,742.007 0.002,931.31 
			0.002,946.13 0.002,1140.976 0.002,1155.792 0.002,1169.601 0.002,1195.71 0.002,1542.307 39.272,1050.907 		"/>
		
			<linearGradient id="SVGID_27_" gradientUnits="userSpaceOnUse" x1="-303.9268" y1="1379.6377" x2="-301.2681" y2="1376.979" gradientTransform="matrix(92 0 0 -432 27932.5 595983.5)">
			<stop  offset="0" style="stop-color:#034103"/>
			<stop  offset="1" style="stop-color:#0E340A"/>
		</linearGradient>
		<polygon fill="url(#SVGID_27_)" points="224.311,416.426 0.002,14.209 0.002,68.669 0.002,399.426 39.272,1050.907 		"/>
		
			<linearGradient id="SVGID_28_" gradientUnits="userSpaceOnUse" x1="-304.0879" y1="1381.4082" x2="-301.4551" y2="1378.7754" gradientTransform="matrix(255 0 0 -191 78291.625 263886.375)">
			<stop  offset="0" style="stop-color:#2A6C12"/>
			<stop  offset="1" style="stop-color:#306212"/>
		</linearGradient>
		<polygon fill="url(#SVGID_28_)" points="1533.181,308.59 902.47,0.858 841.742,0.858 877.386,449.027 		"/>
		
			<linearGradient id="SVGID_29_" gradientUnits="userSpaceOnUse" x1="-305.9331" y1="1382.1904" x2="-303.3774" y2="1379.6348" gradientTransform="matrix(318 0 0 -179 97314.75 247349.375)">
			<stop  offset="0" style="stop-color:#50A01D"/>
			<stop  offset="1" style="stop-color:#2E510E"/>
		</linearGradient>
		<polygon fill="url(#SVGID_29_)" points="796.822,0.858 683.251,0.858 668.827,0.858 631.492,0.858 265.544,0.858 107.75,0.858 
			0.002,0.858 0.002,3.397 0.002,14.209 224.311,416.426 		"/>
		
			<linearGradient id="SVGID_30_" gradientUnits="userSpaceOnUse" x1="-305.2251" y1="1381.8711" x2="-302.5176" y2="1379.1636" gradientTransform="matrix(240 0 0 -191 73460.625 263886.375)">
			<stop  offset="0" style="stop-color:#042A04"/>
			<stop  offset="1" style="stop-color:#20580F"/>
		</linearGradient>
		<polygon fill="url(#SVGID_30_)" points="877.386,449.027 841.742,0.858 796.822,0.858 224.311,416.426 		"/>
		
			<linearGradient id="SVGID_31_" gradientUnits="userSpaceOnUse" x1="-304.5361" y1="1383.6904" x2="-301.9453" y2="1381.0996" gradientTransform="matrix(403 0 0 -136 123727.75 188095.375)">
			<stop  offset="0" style="stop-color:#1B4A0E"/>
			<stop  offset="1" style="stop-color:#3D6918"/>
		</linearGradient>
		<polygon fill="url(#SVGID_31_)" points="1896.55,0.858 1794.433,0.858 1705.535,0.858 1661.585,0.858 1628.897,0.858 
			1573.278,0.858 1359.989,0.858 1212.013,0.858 902.47,0.858 1533.181,308.59 		"/>
		
			<linearGradient id="SVGID_32_" gradientUnits="userSpaceOnUse" x1="-302.9902" y1="1381.3828" x2="-300.4091" y2="1378.8016" gradientTransform="matrix(311 0 0 -204 95738.75 281799.375)">
			<stop  offset="0" style="stop-color:#4D8918"/>
			<stop  offset="1" style="stop-color:#42670D"/>
		</linearGradient>
		<polygon fill="url(#SVGID_32_)" points="2379.456,479.122 1964.811,0.858 1896.55,0.858 1533.181,308.59 		"/>
		
			<linearGradient id="SVGID_33_" gradientUnits="userSpaceOnUse" x1="-301.2217" y1="1381.915" x2="-298.6359" y2="1379.3292" gradientTransform="matrix(283 0 0 -204 87290.75 281799.375)">
			<stop  offset="0" style="stop-color:#32510A"/>
			<stop  offset="1" style="stop-color:#668B1A"/>
		</linearGradient>
		<polygon fill="url(#SVGID_33_)" points="2684.717,0.858 2626.618,0.858 2571.589,0.858 2541.87,0.858 2166.951,0.858 
			2141.385,0.858 1964.811,0.858 2379.456,479.122 		"/>
		
			<linearGradient id="SVGID_34_" gradientUnits="userSpaceOnUse" x1="-299.5972" y1="1380.0986" x2="-297.0177" y2="1377.5192" gradientTransform="matrix(243 0 0 -327 75173.625 451293.25)">
			<stop  offset="0" style="stop-color:#516B0D"/>
			<stop  offset="1" style="stop-color:#284C15"/>
		</linearGradient>
		<polygon fill="url(#SVGID_34_)" points="3040.694,787.585 2719.598,0.858 2701.93,0.858 2688.896,0.858 2684.717,0.858 
			2379.456,479.122 		"/>
		
			<linearGradient id="SVGID_35_" gradientUnits="userSpaceOnUse" x1="-298.9492" y1="1380.5371" x2="-296.3731" y2="1377.9609" gradientTransform="matrix(261 0 0 -327 80819.625 451293.25)">
			<stop  offset="0" style="stop-color:#527A2D"/>
			<stop  offset="1" style="stop-color:#295813"/>
		</linearGradient>
		<polygon fill="url(#SVGID_35_)" points="3404.283,0.858 2878.78,0.858 2839.03,0.858 2719.598,0.858 3040.694,787.585 		"/>
		
			<linearGradient id="SVGID_36_" gradientUnits="userSpaceOnUse" x1="-299.9756" y1="1379.8604" x2="-297.3722" y2="1377.257" gradientTransform="matrix(304 0 0 -324 94143.75 447162.25)">
			<stop  offset="0" style="stop-color:#153208"/>
			<stop  offset="1" style="stop-color:#1F5809"/>
		</linearGradient>
		<polygon fill="url(#SVGID_36_)" points="3840,530.729 3840,522.759 3840,487.958 3437.537,0.858 3404.283,0.858 3040.694,787.585 
					"/>
		
			<linearGradient id="SVGID_37_" gradientUnits="userSpaceOnUse" x1="-299.5874" y1="1381.04" x2="-296.9168" y2="1378.3695" gradientTransform="matrix(304 0 0 -137 94143.75 189694.375)">
			<stop  offset="0" style="stop-color:#22530C"/>
			<stop  offset="1" style="stop-color:#28630B"/>
		</linearGradient>
		<polygon fill="url(#SVGID_37_)" points="3642.067,865.327 3840,564.232 3840,530.729 3040.694,787.585 		"/>
		
			<linearGradient id="SVGID_38_" gradientUnits="userSpaceOnUse" x1="-291.7559" y1="1381.8457" x2="-289.1413" y2="1379.2311" gradientTransform="matrix(168 0 0 -221 52529.625 305225.375)">
			<stop  offset="0" style="stop-color:#5E913E"/>
			<stop  offset="1" style="stop-color:#6F9037"/>
		</linearGradient>
		<polygon fill="url(#SVGID_38_)" points="3840,469.595 3840,413.315 3840,407.251 3840,402.583 3840,14.923 3840,0.858 
			3768.443,0.858 3765.43,0.858 3437.537,0.858 3840,487.958 		"/>
		
			<linearGradient id="SVGID_39_" gradientUnits="userSpaceOnUse" x1="-295.7861" y1="1378.4014" x2="-293.204" y2="1375.8192" gradientTransform="matrix(217 0 0 -291 67521.625 402137.25)">
			<stop  offset="0" style="stop-color:#036304"/>
			<stop  offset="1" style="stop-color:#045A05"/>
		</linearGradient>
		<polygon fill="url(#SVGID_39_)" points="3593.087,1830.842 3840,1301.38 3840,1296.64 3840,1274.466 3840,1263.284 3840,1234.861 
			3277.435,1101.063 		"/>
		
			<linearGradient id="SVGID_40_" gradientUnits="userSpaceOnUse" x1="-296.0596" y1="1379.2588" x2="-293.414" y2="1376.6132" gradientTransform="matrix(217 0 0 -150 67521.625 207745.375)">
			<stop  offset="0" style="stop-color:#025C03"/>
			<stop  offset="1" style="stop-color:#044A04"/>
		</linearGradient>
		<polygon fill="url(#SVGID_40_)" points="3277.435,1101.063 3840,1234.861 3840,1194.993 3642.067,865.327 		"/>
		
			<linearGradient id="SVGID_41_" gradientUnits="userSpaceOnUse" x1="-281.4648" y1="1378.0195" x2="-278.795" y2="1375.3496" gradientTransform="matrix(101 0 0 -320 32025.5 442155.25)">
			<stop  offset="0" style="stop-color:#096909"/>
			<stop  offset="1" style="stop-color:#0C6408"/>
		</linearGradient>
		<polygon fill="url(#SVGID_41_)" points="3824.384,2044.007 3840,1756.189 3840,1334.696 3840,1301.38 3593.087,1830.842 		"/>
		
			<linearGradient id="SVGID_42_" gradientUnits="userSpaceOnUse" x1="-275.3804" y1="1379.6396" x2="-272.7324" y2="1376.9917" gradientTransform="matrix(83 0 0 -287 26517.5 396394.25)">
			<stop  offset="0" style="stop-color:#0E570A"/>
			<stop  offset="1" style="stop-color:#1F6A08"/>
		</linearGradient>
		<polygon fill="url(#SVGID_42_)" points="3840,1194.993 3840,1036.819 3840,625.259 3840,577.106 3840,564.232 3642.067,865.327 		
			"/>
		
			<linearGradient id="SVGID_43_" gradientUnits="userSpaceOnUse" x1="-156.5688" y1="1377.3115" x2="-153.8775" y2="1374.6201" gradientTransform="matrix(18 0 0 -382 6629.6406 527591.25)">
			<stop  offset="0" style="stop-color:#12680B"/>
			<stop  offset="1" style="stop-color:#146D0B"/>
		</linearGradient>
		<polygon fill="url(#SVGID_43_)" points="3840,2093.576 3840,1756.189 3824.384,2044.007 		"/>
		
			<linearGradient id="SVGID_44_" gradientUnits="userSpaceOnUse" x1="-288.2725" y1="1373.1436" x2="-285.6589" y2="1370.53" gradientTransform="matrix(117 0 0 -105 36743.5625 146163.4375)">
			<stop  offset="0" style="stop-color:#125D0A"/>
			<stop  offset="1" style="stop-color:#1B6611"/>
		</linearGradient>
		<polygon fill="url(#SVGID_44_)" points="3065.185,2136.797 3181.718,2160.663 3247.88,2160.663 3334.434,2160.663 
			3070.628,1938.678 		"/>
		
			<linearGradient id="SVGID_45_" gradientUnits="userSpaceOnUse" x1="-294.8604" y1="1375.7744" x2="-292.2548" y2="1373.1689" gradientTransform="matrix(192 0 0 -148 59770.625 205374.375)">
			<stop  offset="0" style="stop-color:#1A7510"/>
			<stop  offset="1" style="stop-color:#146013"/>
		</linearGradient>
		<polygon fill="url(#SVGID_45_)" points="3070.628,1938.678 3334.434,2160.663 3406.894,2160.663 3593.087,1830.842 		"/>
		
			<linearGradient id="SVGID_46_" gradientUnits="userSpaceOnUse" x1="-292.0977" y1="1375.0703" x2="-289.488" y2="1372.4607" gradientTransform="matrix(162 0 0 -148 50675.625 205374.375)">
			<stop  offset="0" style="stop-color:#0D6108"/>
			<stop  offset="1" style="stop-color:#196211"/>
		</linearGradient>
		<polygon fill="url(#SVGID_46_)" points="3593.087,1830.842 3406.894,2160.663 3410.818,2160.663 3435.02,2160.663 
			3498.895,2160.663 3824.384,2044.007 		"/>
		
			<linearGradient id="SVGID_47_" gradientUnits="userSpaceOnUse" x1="-293.0371" y1="1369.8301" x2="-290.5096" y2="1367.3025" gradientTransform="matrix(180 0 0 -63 56201.625 88329.375)">
			<stop  offset="0" style="stop-color:#226E16"/>
			<stop  offset="1" style="stop-color:#29751C"/>
		</linearGradient>
		<polygon fill="url(#SVGID_47_)" points="3824.384,2044.007 3498.895,2160.663 3725.12,2160.663 3830.778,2160.663 3840,2160.663 
			3840,2132.882 3840,2093.576 		"/>
		
			<linearGradient id="SVGID_48_" gradientUnits="userSpaceOnUse" x1="-302.4746" y1="1376.2246" x2="-299.8224" y2="1373.5724" gradientTransform="matrix(367 0 0 -183 113128.75 253569.375)">
			<stop  offset="0" style="stop-color:#0A5805"/>
			<stop  offset="1" style="stop-color:#105B09"/>
		</linearGradient>
		<polygon fill="url(#SVGID_48_)" points="3013.483,1743.067 2156.771,2160.663 2228.739,2160.663 3070.628,1938.678 		"/>
		
			<linearGradient id="SVGID_49_" gradientUnits="userSpaceOnUse" x1="-302.4902" y1="1373.9688" x2="-299.6984" y2="1371.1769" gradientTransform="matrix(367 0 0 -105 113128.75 146163.4375)">
			<stop  offset="0" style="stop-color:#377B1C"/>
			<stop  offset="1" style="stop-color:#2A7814"/>
		</linearGradient>
		<polygon fill="url(#SVGID_49_)" points="3070.628,1938.678 2228.739,2160.663 2542.721,2160.663 2687.253,2160.663 
			2701.639,2160.663 3065.185,2136.797 		"/>
		
			<linearGradient id="SVGID_50_" gradientUnits="userSpaceOnUse" x1="-302.9766" y1="1356.0674" x2="-300.427" y2="1353.5178" gradientTransform="matrix(482 0 0 -26 148433.5 37380.3594)">
			<stop  offset="0" style="stop-color:#44841C"/>
			<stop  offset="1" style="stop-color:#337119"/>
		</linearGradient>
		<polygon fill="url(#SVGID_50_)" points="2701.639,2160.663 3181.718,2160.663 3065.185,2136.797 		"/>
		
			<linearGradient id="SVGID_51_" gradientUnits="userSpaceOnUse" x1="-291.8257" y1="1378.3027" x2="-289.2153" y2="1375.6924" gradientTransform="matrix(101 0 0 -345 31385.5 476643.25)">
			<stop  offset="0" style="stop-color:#0A7309"/>
			<stop  offset="1" style="stop-color:#0B6709"/>
		</linearGradient>
		<polygon fill="url(#SVGID_51_)" points="1851.556,1452.159 2059.817,2160.663 2074.567,2160.663 2126.39,1336.799 		"/>
		
			<linearGradient id="SVGID_52_" gradientUnits="userSpaceOnUse" x1="-299.7485" y1="1377.752" x2="-297.0389" y2="1375.0424" gradientTransform="matrix(224 0 0 -345 69227.625 476643.25)">
			<stop  offset="0" style="stop-color:#1F7910"/>
			<stop  offset="1" style="stop-color:#1E760E"/>
		</linearGradient>
		<polygon fill="url(#SVGID_52_)" points="2126.39,1336.799 2074.567,2160.663 2102.692,2160.663 2681.503,1381.94 		"/>
		
			<linearGradient id="SVGID_53_" gradientUnits="userSpaceOnUse" x1="-302.4346" y1="1377.4287" x2="-299.8318" y2="1374.8259" gradientTransform="matrix(346 0 0 -327 106681.75 451857.25)">
			<stop  offset="0" style="stop-color:#4A9818"/>
			<stop  offset="1" style="stop-color:#2B7A0E"/>
		</linearGradient>
		<polygon fill="url(#SVGID_53_)" points="2681.503,1381.94 2102.692,2160.663 2156.771,2160.663 3013.483,1743.067 		"/>
		
			<linearGradient id="SVGID_54_" gradientUnits="userSpaceOnUse" x1="-305.1123" y1="1375.8623" x2="-302.4978" y2="1373.2478" gradientTransform="matrix(265 0 0 -192 81234.625 265958.375)">
			<stop  offset="0" style="stop-color:#37720F"/>
			<stop  offset="1" style="stop-color:#104A09"/>
		</linearGradient>
		<polygon fill="url(#SVGID_54_)" points="607.427,2160.663 718.22,2160.663 1167.924,2160.663 493.704,1710.466 		"/>
		
			<linearGradient id="SVGID_55_" gradientUnits="userSpaceOnUse" x1="-305.3677" y1="1377.8477" x2="-302.764" y2="1375.244" gradientTransform="matrix(499 0 0 -295 153072.5 407789.25)">
			<stop  offset="0" style="stop-color:#3A8811"/>
			<stop  offset="1" style="stop-color:#14700C"/>
		</linearGradient>
		<polygon fill="url(#SVGID_55_)" points="493.704,1710.466 1167.924,2160.663 1241.752,2160.663 1851.556,1452.159 		"/>
		
			<linearGradient id="SVGID_56_" gradientUnits="userSpaceOnUse" x1="-303.6069" y1="1377.293" x2="-301.0555" y2="1374.7416" gradientTransform="matrix(315 0 0 -299 96849.75 413301.25)">
			<stop  offset="0" style="stop-color:#0C5E0A"/>
			<stop  offset="1" style="stop-color:#135C0C"/>
		</linearGradient>
		<polygon fill="url(#SVGID_56_)" points="1241.752,2160.663 1579.172,2160.663 1639.968,2160.663 1793.817,2160.663 
			1951.302,2160.663 2059.817,2160.663 1851.556,1452.159 		"/>
		
			<linearGradient id="SVGID_57_" gradientUnits="userSpaceOnUse" x1="-302.4106" y1="1373.6387" x2="-299.7102" y2="1370.9382" gradientTransform="matrix(64 0 0 -102 19334.625 142028.4375)">
			<stop  offset="0" style="stop-color:#317714"/>
			<stop  offset="1" style="stop-color:#1E5C14"/>
		</linearGradient>
		<polygon fill="url(#SVGID_57_)" points="0.002,1941.156 0.002,2029.866 0.002,2160.663 4.153,2160.663 142.677,1963.757 		"/>
		
			<linearGradient id="SVGID_58_" gradientUnits="userSpaceOnUse" x1="-303.6724" y1="1372.6523" x2="-301.0919" y2="1370.0719" gradientTransform="matrix(88 0 0 -91 26707.5 126881.5)">
			<stop  offset="0" style="stop-color:#267215"/>
			<stop  offset="1" style="stop-color:#125410"/>
		</linearGradient>
		<polygon fill="url(#SVGID_58_)" points="142.677,1963.757 4.153,2160.663 32.016,2160.663 72.713,2160.663 221.588,2109.211 		"/>
		
			<linearGradient id="SVGID_59_" gradientUnits="userSpaceOnUse" x1="-305.7583" y1="1360.7344" x2="-303.164" y2="1358.14" gradientTransform="matrix(232 0 0 -33 70915.625 47015.375)">
			<stop  offset="0" style="stop-color:#1B6113"/>
			<stop  offset="1" style="stop-color:#13470F"/>
		</linearGradient>
		<polygon fill="url(#SVGID_59_)" points="72.713,2160.663 83.598,2160.663 367.406,2160.663 489.567,2160.663 221.588,2109.211 		
			"/>
	</g>
</g>
<g id="Layer_16">
</g>
<g id="Layer_17">
</g>
<g id="Layer_18">
</g>
<g id="Layer_19">
</g>
<g id="Layer_20">
</g>
<g id="Layer_21">
</g>
<g id="Layer_22">
</g>
<g id="Layer_23">
</g>
<g id="Layer_24">
</g>
<g id="Layer_25">
</g>
</svg>
