<?xml version="1.0" encoding="utf-8"?>
<!-- Generator: Adobe Illustrator 16.0.0, SVG Export Plug-In . SVG Version: 6.00 Build 0)  -->
<!DOCTYPE svg PUBLIC "-//W3C//DTD SVG 1.1//EN" "http://www.w3.org/Graphics/SVG/1.1/DTD/svg11.dtd">
<svg version="1.1" xmlns="http://www.w3.org/2000/svg" xmlns:xlink="http://www.w3.org/1999/xlink" x="0px" y="0px" width="3840px"
	 height="2160px" viewBox="0 0 3840 2160" enable-background="new 0 0 3840 2160" xml:space="preserve">
<g id="Layer_1">
</g>
<g id="Layer_2">
</g>
<g id="Layer_3">
</g>
<g id="Layer_4">
</g>
<g id="Layer_5">
</g>
<g id="Layer_6">
</g>
<g id="Layer_7">
</g>
<g id="Layer_8">
	<g>
		
			<linearGradient id="SVGID_1_" gradientUnits="userSpaceOnUse" x1="-4111.7769" y1="5770.0566" x2="-4106.9805" y2="5765.2603" gradientTransform="matrix(122 0 0 -143 504850.5625 825734.375)">
			<stop  offset="0" style="stop-color:#EC603E"/>
			<stop  offset="1" style="stop-color:#AE6E38"/>
		</linearGradient>
		<polygon fill="url(#SVGID_1_)" points="3752.798,1003.487 3151.569,689.291 3639.45,1359.89 		"/>
		
			<linearGradient id="SVGID_2_" gradientUnits="userSpaceOnUse" x1="-4066.5342" y1="5923.0303" x2="-4061.7253" y2="5918.2217" gradientTransform="matrix(44 0 0 -22 179247.625 131557.3594)">
			<stop  offset="0" style="stop-color:#B16D3C"/>
			<stop  offset="1" style="stop-color:#8FB83A"/>
		</linearGradient>
		<polygon fill="url(#SVGID_2_)" points="308.07,1256.72 524.905,1359.89 431.272,1294.236 		"/>
		
			<linearGradient id="SVGID_3_" gradientUnits="userSpaceOnUse" x1="-4138.7559" y1="5768.5156" x2="-4133.9282" y2="5763.688" gradientTransform="matrix(167 0 0 -139 691832.625 802887.375)">
			<stop  offset="0" style="stop-color:#80BB0D"/>
			<stop  offset="1" style="stop-color:#63982C"/>
		</linearGradient>
		<polygon fill="url(#SVGID_3_)" points="524.905,1359.89 1347.896,1833.529 1293.686,1181.688 		"/>
		
			<linearGradient id="SVGID_4_" gradientUnits="userSpaceOnUse" x1="-4079.9009" y1="5820.3906" x2="-4075.092" y2="5815.582" gradientTransform="matrix(74 0 0 -61 304792.5 355064.375)">
			<stop  offset="0" style="stop-color:#6C9281"/>
			<stop  offset="1" style="stop-color:#8DBE4F"/>
		</linearGradient>
		<polygon fill="url(#SVGID_4_)" points="3309.271,253.167 2985.033,-1.17 2951.374,-1.17 3003.729,243.788 		"/>
		
			<linearGradient id="SVGID_5_" gradientUnits="userSpaceOnUse" x1="-4028.7734" y1="5922.4063" x2="-4023.8975" y2="5917.5303" gradientTransform="matrix(47 0 0 -25 192278.625 148625.3594)">
			<stop  offset="0" style="stop-color:#FB524F"/>
			<stop  offset="1" style="stop-color:#F63742"/>
		</linearGradient>
		<polygon fill="url(#SVGID_5_)" points="2919.95,656.464 3151.569,689.291 3117.074,572.053 		"/>
		
			<linearGradient id="SVGID_6_" gradientUnits="userSpaceOnUse" x1="-4060.7573" y1="5807.9355" x2="-4056.0034" y2="5803.1816" gradientTransform="matrix(62 0 0 -70 254800.625 406765.5)">
			<stop  offset="0" style="stop-color:#D3A15F"/>
			<stop  offset="1" style="stop-color:#DD7C44"/>
		</linearGradient>
		<polygon fill="url(#SVGID_6_)" points="3117.074,572.053 3309.271,253.167 3003.729,243.788 		"/>
		
			<linearGradient id="SVGID_7_" gradientUnits="userSpaceOnUse" x1="-3996.3081" y1="5790.5156" x2="-3991.5225" y2="5785.73" gradientTransform="matrix(39 0 0 -93 158982.625 538741.5)">
			<stop  offset="0" style="stop-color:#EC7245"/>
			<stop  offset="1" style="stop-color:#D89747"/>
		</linearGradient>
		<polygon fill="url(#SVGID_7_)" points="3151.569,689.291 3309.271,253.167 3117.074,572.053 		"/>
		
			<linearGradient id="SVGID_8_" gradientUnits="userSpaceOnUse" x1="-4064.269" y1="5763.2412" x2="-4059.5232" y2="5758.4951" gradientTransform="matrix(52 0 0 -204 212816.625 1175599.375)">
			<stop  offset="0" style="stop-color:#81AC56"/>
			<stop  offset="1" style="stop-color:#3C666E"/>
		</linearGradient>
		<polygon fill="url(#SVGID_8_)" points="1530.235,928.456 1707.419,-1.17 1705.534,-1.17 1661.586,-1.17 1628.896,-1.17 
			1607.057,-1.17 1456.313,37.45 		"/>
		
			<linearGradient id="SVGID_9_" gradientUnits="userSpaceOnUse" x1="-4144.1113" y1="5980.6543" x2="-4139.3037" y2="5975.8467" gradientTransform="matrix(250 0 0 -21 1037934.625 125544.3594)">
			<stop  offset="0" style="stop-color:#3F6263"/>
			<stop  offset="1" style="stop-color:#457070"/>
		</linearGradient>
		<polygon fill="url(#SVGID_9_)" points="2917.605,-1.17 2878.779,-1.17 2839.029,-1.17 2701.929,-1.17 2688.895,-1.17 
			2626.617,-1.17 2571.588,-1.17 2541.869,-1.17 2166.95,-1.17 2141.384,-1.17 2043.523,-1.17 2860.813,65.587 		"/>
		
			<linearGradient id="SVGID_10_" gradientUnits="userSpaceOnUse" x1="-3944.6177" y1="5824.3447" x2="-3939.783" y2="5819.5103" gradientTransform="matrix(29 0 0 -59 117260.6406 343588.4063)">
			<stop  offset="0" style="stop-color:#648C96"/>
			<stop  offset="1" style="stop-color:#5C916A"/>
		</linearGradient>
		<polygon fill="url(#SVGID_10_)" points="3003.729,243.788 2951.374,-1.17 2917.605,-1.17 2860.813,65.587 		"/>
		
			<linearGradient id="SVGID_11_" gradientUnits="userSpaceOnUse" x1="-4074.9771" y1="5762.4629" x2="-4070.0867" y2="5757.5723" gradientTransform="matrix(49 0 0 -194 200107.625 1118321.375)">
			<stop  offset="0" style="stop-color:#A8AE50"/>
			<stop  offset="1" style="stop-color:#BDB342"/>
		</linearGradient>
		<polygon fill="url(#SVGID_11_)" points="431.272,1294.236 524.905,1359.89 672.75,450.126 		"/>
		
			<linearGradient id="SVGID_12_" gradientUnits="userSpaceOnUse" x1="-4138.5059" y1="5761.3281" x2="-4133.6968" y2="5756.519" gradientTransform="matrix(156 0 0 -194 645995.625 1118321.375)">
			<stop  offset="0" style="stop-color:#9CCA2B"/>
			<stop  offset="1" style="stop-color:#B2B561"/>
		</linearGradient>
		<polygon fill="url(#SVGID_12_)" points="672.75,450.126 524.905,1359.89 1293.686,1181.688 		"/>
		
			<linearGradient id="SVGID_13_" gradientUnits="userSpaceOnUse" x1="-4139.8086" y1="5768.3086" x2="-4135.019" y2="5763.519" gradientTransform="matrix(174 0 0 -156 721031.625 900277.375)">
			<stop  offset="0" style="stop-color:#C0AC58"/>
			<stop  offset="1" style="stop-color:#DBAD58"/>
		</linearGradient>
		<polygon fill="url(#SVGID_13_)" points="1530.235,928.456 672.75,450.126 1293.686,1181.688 		"/>
		
			<linearGradient id="SVGID_14_" gradientUnits="userSpaceOnUse" x1="-4139.4453" y1="5765.0586" x2="-4134.6006" y2="5760.2139" gradientTransform="matrix(174 0 0 -190 721031.625 1095281.375)">
			<stop  offset="0" style="stop-color:#768231"/>
			<stop  offset="1" style="stop-color:#CEB73F"/>
		</linearGradient>
		<polygon fill="url(#SVGID_14_)" points="1456.313,37.45 672.75,450.126 1530.235,928.456 		"/>
		
			<linearGradient id="SVGID_15_" gradientUnits="userSpaceOnUse" x1="-4107.416" y1="5764.3223" x2="-4102.5161" y2="5759.4224" gradientTransform="matrix(74 0 0 -180 304257.5 1037989.375)">
			<stop  offset="0" style="stop-color:#B6543D"/>
			<stop  offset="1" style="stop-color:#B19764"/>
		</linearGradient>
		<polygon fill="url(#SVGID_15_)" points="672.75,450.126 308.07,1256.72 431.272,1294.236 		"/>
		
			<linearGradient id="SVGID_16_" gradientUnits="userSpaceOnUse" x1="-4109.0781" y1="5765.8145" x2="-4104.3604" y2="5761.0967" gradientTransform="matrix(90 0 0 -151 371129.5 871731.375)">
			<stop  offset="0" style="stop-color:#938635"/>
			<stop  offset="1" style="stop-color:#8C762D"/>
		</linearGradient>
		<polygon fill="url(#SVGID_16_)" points="1293.686,1181.688 1347.896,1833.529 1737.212,1125.415 		"/>
		
			<linearGradient id="SVGID_17_" gradientUnits="userSpaceOnUse" x1="-4109.7617" y1="5817.498" x2="-4104.9829" y2="5812.7192" gradientTransform="matrix(90 0 0 -54 371129.5 315103.375)">
			<stop  offset="0" style="stop-color:#A8C344"/>
			<stop  offset="1" style="stop-color:#C3C33B"/>
		</linearGradient>
		<polygon fill="url(#SVGID_17_)" points="1737.212,1125.415 1530.235,928.456 1293.686,1181.688 		"/>
		
			<linearGradient id="SVGID_18_" gradientUnits="userSpaceOnUse" x1="-4100.6245" y1="5763.6406" x2="-4095.7734" y2="5758.7896" gradientTransform="matrix(79 0 0 -164 325303.5 946325.375)">
			<stop  offset="0" style="stop-color:#335C18"/>
			<stop  offset="1" style="stop-color:#708528"/>
		</linearGradient>
		<polygon fill="url(#SVGID_18_)" points="1347.896,1833.529 1411.96,1894.493 1737.212,1125.415 		"/>
		
			<linearGradient id="SVGID_19_" gradientUnits="userSpaceOnUse" x1="-3983.9248" y1="5783.5342" x2="-3979.0674" y2="5778.6768" gradientTransform="matrix(35 0 0 -109 142256.625 630509.4375)">
			<stop  offset="0" style="stop-color:#689A4E"/>
			<stop  offset="1" style="stop-color:#C6B257"/>
		</linearGradient>
		<polygon fill="url(#SVGID_19_)" points="3003.729,243.788 2860.813,65.587 2831.244,576.743 		"/>
		
			<linearGradient id="SVGID_20_" gradientUnits="userSpaceOnUse" x1="-4055.8779" y1="5994.1846" x2="-4051.1296" y2="5989.436" gradientTransform="matrix(58 0 0 -18 238097.625 108459.3594)">
			<stop  offset="0" style="stop-color:#FB6651"/>
			<stop  offset="1" style="stop-color:#F95551"/>
		</linearGradient>
		<polygon fill="url(#SVGID_20_)" points="2919.95,656.464 3117.074,572.053 2831.244,576.743 		"/>
		
			<linearGradient id="SVGID_21_" gradientUnits="userSpaceOnUse" x1="-4056.6978" y1="5805.9961" x2="-4051.9397" y2="5801.2383" gradientTransform="matrix(58 0 0 -71 238097.625 412503.5)">
			<stop  offset="0" style="stop-color:#CBC871"/>
			<stop  offset="1" style="stop-color:#F36F5D"/>
		</linearGradient>
		<polygon fill="url(#SVGID_21_)" points="3117.074,572.053 3003.729,243.788 2831.244,576.743 		"/>
		
			<linearGradient id="SVGID_22_" gradientUnits="userSpaceOnUse" x1="-4139.1851" y1="5786.4238" x2="-4134.3765" y2="5781.6152" gradientTransform="matrix(144 0 0 -103 595877.625 596060.4375)">
			<stop  offset="0" style="stop-color:#50826B"/>
			<stop  offset="1" style="stop-color:#707A5B"/>
		</linearGradient>
		<polygon fill="url(#SVGID_22_)" points="9.71,-1.17 0,-1.17 0,1.368 0,66.64 0,384.707 672.75,450.126 		"/>
		
			<linearGradient id="SVGID_23_" gradientUnits="userSpaceOnUse" x1="-4137.5405" y1="5787.6543" x2="-4132.6538" y2="5782.7676" gradientTransform="matrix(159 0 0 -102 658526.625 590323.4375)">
			<stop  offset="0" style="stop-color:#8D675F"/>
			<stop  offset="1" style="stop-color:#2C4B46"/>
		</linearGradient>
		<polygon fill="url(#SVGID_23_)" points="1456.313,37.45 1151.924,-1.17 923.825,-1.17 672.75,450.126 		"/>
		
			<linearGradient id="SVGID_24_" gradientUnits="userSpaceOnUse" x1="-4135.4863" y1="6100.7734" x2="-4130.7012" y2="6095.9883" gradientTransform="matrix(157 0 0 -14 650246.625 85379.3594)">
			<stop  offset="0" style="stop-color:#1E4D54"/>
			<stop  offset="1" style="stop-color:#375D5C"/>
		</linearGradient>
		<polygon fill="url(#SVGID_24_)" points="1607.057,-1.17 1573.277,-1.17 1359.988,-1.17 1212.012,-1.17 1151.924,-1.17 
			1456.313,37.45 		"/>
		
			<linearGradient id="SVGID_25_" gradientUnits="userSpaceOnUse" x1="-4145.2642" y1="5788.1729" x2="-4140.4741" y2="5783.3828" gradientTransform="matrix(198 0 0 -103 820895.625 596060.4375)">
			<stop  offset="0" style="stop-color:#7D5954"/>
			<stop  offset="1" style="stop-color:#A97967"/>
		</linearGradient>
		<polygon fill="url(#SVGID_25_)" points="923.825,-1.17 683.25,-1.17 668.826,-1.17 631.492,-1.17 265.544,-1.17 107.75,-1.17 
			9.71,-1.17 672.75,450.126 		"/>
		
			<linearGradient id="SVGID_26_" gradientUnits="userSpaceOnUse" x1="-4097.6138" y1="5822.125" x2="-4092.8196" y2="5817.3311" gradientTransform="matrix(95 0 0 -61 392299.5 355064.375)">
			<stop  offset="0" style="stop-color:#4F6E78"/>
			<stop  offset="1" style="stop-color:#4C733D"/>
		</linearGradient>
		<polygon fill="url(#SVGID_26_)" points="3401.281,-1.17 2985.033,-1.17 3309.271,253.167 		"/>
		
			<linearGradient id="SVGID_27_" gradientUnits="userSpaceOnUse" x1="-4108.1416" y1="5818.4697" x2="-4103.2036" y2="5813.5317" gradientTransform="matrix(115 0 0 -63 475713.5625 366538.375)">
			<stop  offset="0" style="stop-color:#709B45"/>
			<stop  offset="1" style="stop-color:#35594C"/>
		</linearGradient>
		<polygon fill="url(#SVGID_27_)" points="3765.43,-1.17 3401.281,-1.17 3309.271,253.167 3797.157,-1.17 3768.443,-1.17 		"/>
		
			<linearGradient id="SVGID_28_" gradientUnits="userSpaceOnUse" x1="-4121.7686" y1="5789.3701" x2="-4116.957" y2="5784.5586" gradientTransform="matrix(145 0 0 -93 600691.625 538741.5)">
			<stop  offset="0" style="stop-color:#D78455"/>
			<stop  offset="1" style="stop-color:#C39A3E"/>
		</linearGradient>
		<polygon fill="url(#SVGID_28_)" points="3151.569,689.291 3840,580.86 3840,575.078 3840,561.552 3309.271,253.167 		"/>
		
			<linearGradient id="SVGID_29_" gradientUnits="userSpaceOnUse" x1="-4120.1177" y1="5789.4326" x2="-4115.3008" y2="5784.6157" gradientTransform="matrix(145 0 0 -91 600691.625 527334.5)">
			<stop  offset="0" style="stop-color:#CF8145"/>
			<stop  offset="1" style="stop-color:#B68238"/>
		</linearGradient>
		<polygon fill="url(#SVGID_29_)" points="3752.798,1003.487 3840,675.17 3840,623.23 3840,580.86 3151.569,689.291 		"/>
		
			<linearGradient id="SVGID_30_" gradientUnits="userSpaceOnUse" x1="-4107.3862" y1="5777.0898" x2="-4102.541" y2="5772.2446" gradientTransform="matrix(115 0 0 -132 475713.5625 762460.375)">
			<stop  offset="0" style="stop-color:#65973C"/>
			<stop  offset="1" style="stop-color:#704B34"/>
		</linearGradient>
		<polygon fill="url(#SVGID_30_)" points="3840,561.552 3840,520.73 3840,467.566 3840,411.287 3840,405.222 3840,400.554 
			3840,12.893 3840,-1.17 3797.157,-1.17 3309.271,253.167 		"/>
		
			<linearGradient id="SVGID_31_" gradientUnits="userSpaceOnUse" x1="-3869.3735" y1="5787.9404" x2="-3864.6296" y2="5783.1963" gradientTransform="matrix(24 0 0 -91 96606.6406 527334.5)">
			<stop  offset="0" style="stop-color:#9DA855"/>
			<stop  offset="1" style="stop-color:#BF8943"/>
		</linearGradient>
		<polygon fill="url(#SVGID_31_)" points="3840,923.963 3840,675.17 3752.798,1003.487 		"/>
		
			<linearGradient id="SVGID_32_" gradientUnits="userSpaceOnUse" x1="-4019.9521" y1="5773.3447" x2="-4015.1809" y2="5768.5732" gradientTransform="matrix(48 0 0 -120 196591.625 693827.4375)">
			<stop  offset="0" style="stop-color:#7D5F22"/>
			<stop  offset="1" style="stop-color:#709043"/>
		</linearGradient>
		<polygon fill="url(#SVGID_32_)" points="3639.45,1359.89 3840,1534.826 3840,1401.794 3752.798,1003.487 		"/>
		
			<linearGradient id="SVGID_33_" gradientUnits="userSpaceOnUse" x1="-3880.208" y1="5769.0537" x2="-3875.3887" y2="5764.2344" gradientTransform="matrix(25 0 0 -143 100773.6406 825778.375)">
			<stop  offset="0" style="stop-color:#C0AF54"/>
			<stop  offset="1" style="stop-color:#AAB15F"/>
		</linearGradient>
		<polygon fill="url(#SVGID_33_)" points="3840,1401.794 3840,1332.666 3840,1294.61 3840,1272.437 3840,1261.255 3840,1034.79 
			3840,923.963 3752.798,1003.487 		"/>
		
			<linearGradient id="SVGID_34_" gradientUnits="userSpaceOnUse" x1="-4020.3228" y1="5781.7764" x2="-4015.4729" y2="5776.9268" gradientTransform="matrix(48 0 0 -90 196591.625 521763.5)">
			<stop  offset="0" style="stop-color:#C36938"/>
			<stop  offset="1" style="stop-color:#AC8C56"/>
		</linearGradient>
		<polygon fill="url(#SVGID_34_)" points="3664.092,1781.945 3840,1602.875 3840,1534.826 3639.45,1359.89 		"/>
		
			<linearGradient id="SVGID_35_" gradientUnits="userSpaceOnUse" x1="-4001.7524" y1="5767.7354" x2="-3996.9255" y2="5762.9082" gradientTransform="matrix(43 0 0 -131 175761.625 757065.375)">
			<stop  offset="0" style="stop-color:#DF6B3C"/>
			<stop  offset="1" style="stop-color:#AD674A"/>
		</linearGradient>
		<polygon fill="url(#SVGID_35_)" points="3840,2156.375 3840,2130.853 3840,1602.875 3664.092,1781.945 		"/>
		
			<linearGradient id="SVGID_36_" gradientUnits="userSpaceOnUse" x1="-4125.7197" y1="5779.8271" x2="-4120.9834" y2="5775.0908" gradientTransform="matrix(160 0 0 -87 663178.625 504639.5)">
			<stop  offset="0" style="stop-color:#755F3D"/>
			<stop  offset="1" style="stop-color:#687136"/>
		</linearGradient>
		<polygon fill="url(#SVGID_36_)" points="3108.991,2158.632 3247.879,2158.632 3410.817,2158.632 3435.02,2158.632 
			3725.12,2158.632 3830.779,2158.632 3840,2158.632 3840,2156.375 3664.092,1781.945 		"/>
		
			<linearGradient id="SVGID_37_" gradientUnits="userSpaceOnUse" x1="-4133.4272" y1="5791.4385" x2="-4128.6128" y2="5786.624" gradientTransform="matrix(155 0 0 -66 642008.625 384165.5)">
			<stop  offset="0" style="stop-color:#3A6E1D"/>
			<stop  offset="1" style="stop-color:#42732A"/>
		</linearGradient>
		<polygon fill="url(#SVGID_37_)" points="1597.011,2158.632 1639.967,2158.632 1793.816,2158.632 1951.301,2158.632 
			2129.036,2158.632 1411.96,1894.493 		"/>
		
			<linearGradient id="SVGID_38_" gradientUnits="userSpaceOnUse" x1="-4081.9155" y1="5765.5029" x2="-4077.0022" y2="5760.5898" gradientTransform="matrix(75 0 0 -165 308926.5 951963.375)">
			<stop  offset="0" style="stop-color:#EC693E"/>
			<stop  offset="1" style="stop-color:#EC4A36"/>
		</linearGradient>
		<polygon fill="url(#SVGID_38_)" points="2781.964,1430.232 3151.569,689.291 2919.95,656.464 		"/>
		
			<linearGradient id="SVGID_39_" gradientUnits="userSpaceOnUse" x1="-4131.4146" y1="5762.1875" x2="-4126.562" y2="5757.335" gradientTransform="matrix(179 0 0 -162 742294.625 934914.375)">
			<stop  offset="0" style="stop-color:#467D35"/>
			<stop  offset="1" style="stop-color:#AC6B45"/>
		</linearGradient>
		<polygon fill="url(#SVGID_39_)" points="2781.964,1430.232 3051.294,2158.632 3108.991,2158.632 3664.092,1781.945 		"/>
		
			<linearGradient id="SVGID_40_" gradientUnits="userSpaceOnUse" x1="-4130.9414" y1="5765.877" x2="-4126.1597" y2="5761.0952" gradientTransform="matrix(174 0 0 -158 721459.625 911804.375)">
			<stop  offset="0" style="stop-color:#CC8437"/>
			<stop  offset="1" style="stop-color:#BF6D37"/>
		</linearGradient>
		<polygon fill="url(#SVGID_40_)" points="3639.45,1359.89 3151.569,689.291 2781.964,1430.232 		"/>
		
			<linearGradient id="SVGID_41_" gradientUnits="userSpaceOnUse" x1="-4130.3652" y1="5783.2773" x2="-4125.5459" y2="5778.458" gradientTransform="matrix(179 0 0 -90 742294.625 521763.5)">
			<stop  offset="0" style="stop-color:#C83838"/>
			<stop  offset="1" style="stop-color:#E2544C"/>
		</linearGradient>
		<polygon fill="url(#SVGID_41_)" points="3664.092,1781.945 3639.45,1359.89 2781.964,1430.232 		"/>
		
			<linearGradient id="SVGID_42_" gradientUnits="userSpaceOnUse" x1="-4139.5068" y1="5760.8232" x2="-4134.666" y2="5755.9824" gradientTransform="matrix(167 0 0 -175 691832.625 1009493.375)">
			<stop  offset="0" style="stop-color:#9ACD3D"/>
			<stop  offset="1" style="stop-color:#699F6B"/>
		</linearGradient>
		<polygon fill="url(#SVGID_42_)" points="524.905,1359.89 956.586,2158.632 992.401,2158.632 1347.896,1833.529 		"/>
		
			<linearGradient id="SVGID_43_" gradientUnits="userSpaceOnUse" x1="-4112.0869" y1="5786.7627" x2="-4107.29" y2="5781.9658" gradientTransform="matrix(90 0 0 -74 371063.5 430056.5)">
			<stop  offset="0" style="stop-color:#467F1E"/>
			<stop  offset="1" style="stop-color:#589B4B"/>
		</linearGradient>
		<polygon fill="url(#SVGID_43_)" points="1347.896,1833.529 992.401,2158.632 1002.419,2158.632 1411.96,1894.493 		"/>
		
			<linearGradient id="SVGID_44_" gradientUnits="userSpaceOnUse" x1="-4130.2236" y1="5791.8174" x2="-4125.4751" y2="5787.0688" gradientTransform="matrix(134 0 0 -66 554411.625 384165.5)">
			<stop  offset="0" style="stop-color:#669530"/>
			<stop  offset="1" style="stop-color:#75A665"/>
		</linearGradient>
		<polygon fill="url(#SVGID_44_)" points="1002.419,2158.632 1579.171,2158.632 1597.011,2158.632 1411.96,1894.493 		"/>
		
			<linearGradient id="SVGID_45_" gradientUnits="userSpaceOnUse" x1="-4088.814" y1="5901.6201" x2="-4083.5955" y2="5896.4014" gradientTransform="matrix(53 0 0 -21 216678.625 125993.3594)">
			<stop  offset="0" style="stop-color:#FD715E"/>
			<stop  offset="1" style="stop-color:#FD6A54"/>
		</linearGradient>
		<polygon fill="url(#SVGID_45_)" points="101.09,2096.142 0,2147.447 0,2153.546 214.438,2072.694 		"/>
		
			<linearGradient id="SVGID_46_" gradientUnits="userSpaceOnUse" x1="-4030.0571" y1="5760.1084" x2="-4025.2468" y2="5755.2979" gradientTransform="matrix(30 0 0 -176 120837.6406 1015228.375)">
			<stop  offset="0" style="stop-color:#9D5E38"/>
			<stop  offset="1" style="stop-color:#A19031"/>
		</linearGradient>
		<polygon fill="url(#SVGID_46_)" points="0,1546.451 0,2027.835 0,2147.447 101.09,2096.142 		"/>
		
			<linearGradient id="SVGID_47_" gradientUnits="userSpaceOnUse" x1="-4086.3521" y1="5762.5654" x2="-4081.5413" y2="5757.7544" gradientTransform="matrix(51 0 0 -160 208346.625 923420.375)">
			<stop  offset="0" style="stop-color:#C9594F"/>
			<stop  offset="1" style="stop-color:#BE8636"/>
		</linearGradient>
		<polygon fill="url(#SVGID_47_)" points="214.438,2072.694 0,1452.528 0,1546.451 101.09,2096.142 		"/>
		
			<linearGradient id="SVGID_48_" gradientUnits="userSpaceOnUse" x1="-4130.1514" y1="5764.3604" x2="-4125.3882" y2="5759.5972" gradientTransform="matrix(114 0 0 -155 470867.5625 894730.375)">
			<stop  offset="0" style="stop-color:#FBB04A"/>
			<stop  offset="1" style="stop-color:#BCDD1B"/>
		</linearGradient>
		<polygon fill="url(#SVGID_48_)" points="524.905,1359.89 0,1346.745 0,1452.528 214.438,2072.694 		"/>
		
			<linearGradient id="SVGID_49_" gradientUnits="userSpaceOnUse" x1="-4130.873" y1="5922.5195" x2="-4126.1172" y2="5917.7637" gradientTransform="matrix(114 0 0 -22 470867.5625 131557.3594)">
			<stop  offset="0" style="stop-color:#C0632C"/>
			<stop  offset="1" style="stop-color:#A2C314"/>
		</linearGradient>
		<polygon fill="url(#SVGID_49_)" points="308.07,1256.72 0,1336.291 0,1346.745 524.905,1359.89 		"/>
		
			<linearGradient id="SVGID_50_" gradientUnits="userSpaceOnUse" x1="-4138.543" y1="5798.8887" x2="-4133.6528" y2="5793.9985" gradientTransform="matrix(145 0 0 -78 600043.625 452699.5)">
			<stop  offset="0" style="stop-color:#AA7774"/>
			<stop  offset="1" style="stop-color:#CD9256"/>
		</linearGradient>
		<polygon fill="url(#SVGID_50_)" points="0,384.707 0,479.423 0,713.658 0,724.023 0,732.688 672.75,450.126 		"/>
		
			<linearGradient id="SVGID_51_" gradientUnits="userSpaceOnUse" x1="-4109.6094" y1="5772.3711" x2="-4104.791" y2="5767.5527" gradientTransform="matrix(71 0 0 -127 291685.625 733939.375)">
			<stop  offset="0" style="stop-color:#D0CD3F"/>
			<stop  offset="1" style="stop-color:#C4813E"/>
		</linearGradient>
		<polygon fill="url(#SVGID_51_)" points="0,810.792 0,929.28 0,944.101 0,1138.947 0,1153.762 0,1167.571 0,1193.681 0,1336.291 
			308.07,1256.72 		"/>
		
			<linearGradient id="SVGID_52_" gradientUnits="userSpaceOnUse" x1="-4137.8794" y1="5766.0068" x2="-4133.0854" y2="5761.2129" gradientTransform="matrix(145 0 0 -172 600043.625 992085.375)">
			<stop  offset="0" style="stop-color:#DA702D"/>
			<stop  offset="1" style="stop-color:#C5A843"/>
		</linearGradient>
		<polygon fill="url(#SVGID_52_)" points="672.75,450.126 0,732.688 0,739.977 0,810.792 308.07,1256.72 		"/>
		
			<linearGradient id="SVGID_53_" gradientUnits="userSpaceOnUse" x1="-4129.0742" y1="5762.0488" x2="-4124.2666" y2="5757.2412" gradientTransform="matrix(139 0 0 -204 575360.625 1175599.375)">
			<stop  offset="0" style="stop-color:#D47C2F"/>
			<stop  offset="1" style="stop-color:#BF4B53"/>
		</linearGradient>
		<polygon fill="url(#SVGID_53_)" points="2215.235,684.602 1731.634,-1.17 1707.419,-1.17 1530.235,928.456 		"/>
		
			<linearGradient id="SVGID_54_" gradientUnits="userSpaceOnUse" x1="-4127.8682" y1="5786.4873" x2="-4123.082" y2="5781.7012" gradientTransform="matrix(139 0 0 -94 575360.625 544571.5)">
			<stop  offset="0" style="stop-color:#AACE3D"/>
			<stop  offset="1" style="stop-color:#D19B50"/>
		</linearGradient>
		<polygon fill="url(#SVGID_54_)" points="2215.235,684.602 1530.235,928.456 1737.212,1125.415 		"/>
		
			<linearGradient id="SVGID_55_" gradientUnits="userSpaceOnUse" x1="-4142.8306" y1="5771.8359" x2="-4138.0684" y2="5767.0737" gradientTransform="matrix(233 0 0 -152 967095.625 877223.375)">
			<stop  offset="0" style="stop-color:#406A61"/>
			<stop  offset="1" style="stop-color:#706050"/>
		</linearGradient>
		<polygon fill="url(#SVGID_55_)" points="2860.813,65.587 2043.523,-1.17 1794.432,-1.17 1731.634,-1.17 2215.235,684.602 		"/>
		
			<linearGradient id="SVGID_56_" gradientUnits="userSpaceOnUse" x1="-4140.9272" y1="5766.2295" x2="-4136.1538" y2="5761.4561" gradientTransform="matrix(212 0 0 -159 879593.625 917541.375)">
			<stop  offset="0" style="stop-color:#B6C138"/>
			<stop  offset="1" style="stop-color:#DC7A3B"/>
		</linearGradient>
		<polygon fill="url(#SVGID_56_)" points="1737.212,1125.415 2781.964,1430.232 2215.235,684.602 		"/>
		
			<linearGradient id="SVGID_57_" gradientUnits="userSpaceOnUse" x1="-4124.4917" y1="5766.5479" x2="-4119.6938" y2="5761.75" gradientTransform="matrix(143 0 0 -165 592167.625 951963.375)">
			<stop  offset="0" style="stop-color:#F45A47"/>
			<stop  offset="1" style="stop-color:#F6634B"/>
		</linearGradient>
		<polygon fill="url(#SVGID_57_)" points="2215.235,684.602 2781.964,1430.232 2919.95,656.464 		"/>
		
			<linearGradient id="SVGID_58_" gradientUnits="userSpaceOnUse" x1="-4121.8286" y1="5776.0957" x2="-4116.8472" y2="5771.1143" gradientTransform="matrix(131 0 0 -132 542163.625 762483.375)">
			<stop  offset="0" style="stop-color:#C89750"/>
			<stop  offset="1" style="stop-color:#927F4E"/>
		</linearGradient>
		<polygon fill="url(#SVGID_58_)" points="2860.813,65.587 2215.235,684.602 2831.244,576.743 		"/>
		
			<linearGradient id="SVGID_59_" gradientUnits="userSpaceOnUse" x1="-4125.5479" y1="5937.7998" x2="-4120.8232" y2="5933.0752" gradientTransform="matrix(143 0 0 -23 592167.625 137150.3594)">
			<stop  offset="0" style="stop-color:#F65E50"/>
			<stop  offset="1" style="stop-color:#FA5E4C"/>
		</linearGradient>
		<polygon fill="url(#SVGID_59_)" points="2831.244,576.743 2215.235,684.602 2919.95,656.464 		"/>
		
			<linearGradient id="SVGID_60_" gradientUnits="userSpaceOnUse" x1="-4116.7915" y1="5759.4346" x2="-4111.981" y2="5754.624" gradientTransform="matrix(90 0 0 -180 370973.5 1038183.375)">
			<stop  offset="0" style="stop-color:#618A0D"/>
			<stop  offset="1" style="stop-color:#456C50"/>
		</linearGradient>
		<polygon fill="url(#SVGID_60_)" points="641.485,2158.632 718.219,2158.632 956.586,2158.632 524.905,1359.89 		"/>
		
			<linearGradient id="SVGID_61_" gradientUnits="userSpaceOnUse" x1="-4137.936" y1="5859.9912" x2="-4133.1548" y2="5855.21" gradientTransform="matrix(141 0 0 -28 583374.625 166159.3594)">
			<stop  offset="0" style="stop-color:#FD4F42"/>
			<stop  offset="1" style="stop-color:#BB563F"/>
		</linearGradient>
		<polygon fill="url(#SVGID_61_)" points="0,2153.546 0,2158.632 32.015,2158.632 83.598,2158.632 367.405,2158.632 
			498.27,2158.632 214.438,2072.694 		"/>
		
			<linearGradient id="SVGID_62_" gradientUnits="userSpaceOnUse" x1="-4117.7925" y1="5759.957" x2="-4113.0503" y2="5755.2148" gradientTransform="matrix(88 0 0 -180 362576.5 1038183.375)">
			<stop  offset="0" style="stop-color:#A1724B"/>
			<stop  offset="1" style="stop-color:#5A8325"/>
		</linearGradient>
		<polygon fill="url(#SVGID_62_)" points="214.438,2072.694 498.27,2158.632 594.848,2158.632 641.485,2158.632 524.905,1359.89 		
			"/>
		
			<linearGradient id="SVGID_63_" gradientUnits="userSpaceOnUse" x1="-4143.4067" y1="5762.5977" x2="-4138.6094" y2="5757.8003" gradientTransform="matrix(217 0 0 -164 900362.625 946325.375)">
			<stop  offset="0" style="stop-color:#7BB021"/>
			<stop  offset="1" style="stop-color:#C5A345"/>
		</linearGradient>
		<polygon fill="url(#SVGID_63_)" points="1411.96,1894.493 2481.354,1772.566 1737.212,1125.415 		"/>
		
			<linearGradient id="SVGID_64_" gradientUnits="userSpaceOnUse" x1="-4141.7715" y1="5781.4414" x2="-4136.9614" y2="5776.6313" gradientTransform="matrix(217 0 0 -86 900362.625 498899.5)">
			<stop  offset="0" style="stop-color:#408538"/>
			<stop  offset="1" style="stop-color:#636D45"/>
		</linearGradient>
		<polygon fill="url(#SVGID_64_)" points="1411.96,1894.493 2129.036,2158.632 2188.866,2158.632 2481.354,1772.566 		"/>
		
			<linearGradient id="SVGID_65_" gradientUnits="userSpaceOnUse" x1="-4140.4468" y1="5768.5869" x2="-4135.6582" y2="5763.7983" gradientTransform="matrix(212 0 0 -138 879593.625 797137.375)">
			<stop  offset="0" style="stop-color:#ABBB2A"/>
			<stop  offset="1" style="stop-color:#C87A33"/>
		</linearGradient>
		<polygon fill="url(#SVGID_65_)" points="2481.354,1772.566 2781.964,1430.232 1737.212,1125.415 		"/>
		
			<linearGradient id="SVGID_66_" gradientUnits="userSpaceOnUse" x1="-4134.8555" y1="5778.4453" x2="-4130.0713" y2="5773.6611" gradientTransform="matrix(180 0 0 -89 746338.625 516113.5)">
			<stop  offset="0" style="stop-color:#416844"/>
			<stop  offset="1" style="stop-color:#79694A"/>
		</linearGradient>
		<polygon fill="url(#SVGID_66_)" points="2188.866,2158.632 2542.72,2158.632 2687.253,2158.632 3019.258,2158.632 
			2481.354,1772.566 		"/>
		
			<linearGradient id="SVGID_67_" gradientUnits="userSpaceOnUse" x1="-4114.8872" y1="5762.3906" x2="-4110.0439" y2="5757.5474" gradientTransform="matrix(118 0 0 -162 488046.5625 934914.375)">
			<stop  offset="0" style="stop-color:#A66C33"/>
			<stop  offset="1" style="stop-color:#747533"/>
		</linearGradient>
		<polygon fill="url(#SVGID_67_)" points="2481.354,1772.566 3019.258,2158.632 3051.294,2158.632 2781.964,1430.232 		"/>
	</g>
</g>
<g id="Layer_9">
</g>
<g id="Layer_10">
</g>
<g id="Layer_11">
</g>
<g id="Layer_12">
</g>
<g id="Layer_13">
</g>
<g id="Layer_14">
</g>
<g id="Layer_15">
</g>
<g id="Layer_16">
</g>
<g id="Layer_17">
</g>
<g id="Layer_18">
</g>
<g id="Layer_19">
</g>
<g id="Layer_20">
</g>
<g id="Layer_21">
</g>
<g id="Layer_22">
</g>
<g id="Layer_23">
</g>
<g id="Layer_24">
</g>
<g id="Layer_25">
</g>
</svg>
