<?xml version="1.0" encoding="utf-8"?>
<!-- Generator: Adobe Illustrator 16.0.0, SVG Export Plug-In . SVG Version: 6.00 Build 0)  -->
<!DOCTYPE svg PUBLIC "-//W3C//DTD SVG 1.1//EN" "http://www.w3.org/Graphics/SVG/1.1/DTD/svg11.dtd">
<svg version="1.1" xmlns="http://www.w3.org/2000/svg" xmlns:xlink="http://www.w3.org/1999/xlink" x="0px" y="0px" width="3840px"
	 height="2160px" viewBox="0 0 3840 2160" enable-background="new 0 0 3840 2160" xml:space="preserve">
<g id="Layer_1">
</g>
<g id="Layer_2">
</g>
<g id="Layer_3">
</g>
<g id="Layer_4">
</g>
<g id="Layer_5">
</g>
<g id="Layer_6">
</g>
<g id="Layer_7">
</g>
<g id="Layer_8">
</g>
<g id="Layer_9">
</g>
<g id="Layer_10">
</g>
<g id="Layer_11">
</g>
<g id="Layer_12">
</g>
<g id="Layer_13">
	<g>
		
			<linearGradient id="SVGID_1_" gradientUnits="userSpaceOnUse" x1="7385.6182" y1="1382.0938" x2="7387.665" y2="1380.0468" gradientTransform="matrix(246 0 0 -162 -1815534.375 223982.375)">
			<stop  offset="0" style="stop-color:#7798D0"/>
			<stop  offset="1" style="stop-color:#5C7CB6"/>
		</linearGradient>
		<polygon fill="url(#SVGID_1_)" points="1522.603,100.35 1300.746,176.647 1801.45,434.408 		"/>
		
			<linearGradient id="SVGID_2_" gradientUnits="userSpaceOnUse" x1="7385.9878" y1="1381.4268" x2="7388.0366" y2="1379.3781" gradientTransform="matrix(249 0 0 -185 -1837773.375 255713.375)">
			<stop  offset="0" style="stop-color:#567FC4"/>
			<stop  offset="1" style="stop-color:#3E64A8"/>
		</linearGradient>
		<polygon fill="url(#SVGID_2_)" points="1801.45,434.408 1300.746,176.647 1807.556,558.134 		"/>
		
			<linearGradient id="SVGID_3_" gradientUnits="userSpaceOnUse" x1="7364.7627" y1="1382.29" x2="7366.8115" y2="1380.2413" gradientTransform="matrix(137 0 0 -162 -1007408.375 223982.375)">
			<stop  offset="0" style="stop-color:#5F7FBC"/>
			<stop  offset="1" style="stop-color:#5D79B4"/>
		</linearGradient>
		<polygon fill="url(#SVGID_3_)" points="1734.282,149.84 1522.603,100.35 1801.45,434.408 		"/>
		
			<linearGradient id="SVGID_4_" gradientUnits="userSpaceOnUse" x1="7392.9536" y1="1380.4414" x2="7395.0034" y2="1378.3915" gradientTransform="matrix(349 0 0 -216 -2579173.25 298431.375)">
			<stop  offset="0" style="stop-color:#5985CB"/>
			<stop  offset="1" style="stop-color:#4876C1"/>
		</linearGradient>
		<polygon fill="url(#SVGID_4_)" points="1300.746,176.647 1097.208,622.059 1807.556,558.134 		"/>
		
			<linearGradient id="SVGID_5_" gradientUnits="userSpaceOnUse" x1="7398.041" y1="1380.7676" x2="7400.0884" y2="1378.7202" gradientTransform="matrix(450 0 0 -166 -3327886.5 229716.375)">
			<stop  offset="0" style="stop-color:#3663AD"/>
			<stop  offset="1" style="stop-color:#3D6DBD"/>
		</linearGradient>
		<polygon fill="url(#SVGID_5_)" points="1807.556,558.134 1097.208,622.059 2013.13,900.441 		"/>
		
			<linearGradient id="SVGID_6_" gradientUnits="userSpaceOnUse" x1="7388.5977" y1="1379.4551" x2="7390.6494" y2="1377.4033" gradientTransform="matrix(246 0 0 -202 -1814856.375 279478.375)">
			<stop  offset="0" style="stop-color:#536893"/>
			<stop  offset="1" style="stop-color:#7687A5"/>
		</linearGradient>
		<polygon fill="url(#SVGID_6_)" points="2680.735,978.801 2918.875,1292.238 3181.439,875.696 		"/>
		
			<linearGradient id="SVGID_7_" gradientUnits="userSpaceOnUse" x1="7395.8091" y1="1379.374" x2="7397.8579" y2="1377.3253" gradientTransform="matrix(384 0 0 -283 -2838234.25 390863.25)">
			<stop  offset="0" style="stop-color:#486BA9"/>
			<stop  offset="1" style="stop-color:#5A75A8"/>
		</linearGradient>
		<polygon fill="url(#SVGID_7_)" points="2680.735,978.801 1899.148,395.229 2013.13,900.441 		"/>
		
			<linearGradient id="SVGID_8_" gradientUnits="userSpaceOnUse" x1="7331.9868" y1="1382.252" x2="7334.0347" y2="1380.2042" gradientTransform="matrix(81 0 0 -138 -592176.5 190934.375)">
			<stop  offset="0" style="stop-color:#506CA6"/>
			<stop  offset="1" style="stop-color:#3F609F"/>
		</linearGradient>
		<polygon fill="url(#SVGID_8_)" points="1899.148,395.229 1734.282,149.84 1801.45,434.408 		"/>
		
			<linearGradient id="SVGID_9_" gradientUnits="userSpaceOnUse" x1="7277.4365" y1="1384.2822" x2="7279.4966" y2="1382.2222" gradientTransform="matrix(48 0 0 -79 -347514.375 109751.5)">
			<stop  offset="0" style="stop-color:#3F62A3"/>
			<stop  offset="1" style="stop-color:#4064A6"/>
		</linearGradient>
		<polygon fill="url(#SVGID_9_)" points="1807.556,558.134 1899.148,395.229 1801.45,434.408 		"/>
		
			<linearGradient id="SVGID_10_" gradientUnits="userSpaceOnUse" x1="7348.6567" y1="1380.0742" x2="7350.7031" y2="1378.0281" gradientTransform="matrix(101 0 0 -245 -740400.5 338499.375)">
			<stop  offset="0" style="stop-color:#294F93"/>
			<stop  offset="1" style="stop-color:#32589D"/>
		</linearGradient>
		<polygon fill="url(#SVGID_10_)" points="2013.13,900.441 1899.148,395.229 1807.556,558.134 		"/>
		
			<linearGradient id="SVGID_11_" gradientUnits="userSpaceOnUse" x1="7393.5249" y1="1378.8428" x2="7395.582" y2="1376.7855" gradientTransform="matrix(328 0 0 -291 -2423050.25 402132.25)">
			<stop  offset="0" style="stop-color:#406AAF"/>
			<stop  offset="1" style="stop-color:#678FC6"/>
		</linearGradient>
		<polygon fill="url(#SVGID_11_)" points="2013.13,900.441 2161.713,1500.51 2680.735,978.801 		"/>
		
			<linearGradient id="SVGID_12_" gradientUnits="userSpaceOnUse" x1="7395.8242" y1="1378.6035" x2="7397.877" y2="1376.5507" gradientTransform="matrix(372 0 0 -253 -2749149.25 349806.25)">
			<stop  offset="0" style="stop-color:#5F7CAC"/>
			<stop  offset="1" style="stop-color:#7499C6"/>
		</linearGradient>
		<polygon fill="url(#SVGID_12_)" points="2161.713,1500.51 2918.875,1292.238 2680.735,978.801 		"/>
		
			<linearGradient id="SVGID_13_" gradientUnits="userSpaceOnUse" x1="7394.4717" y1="1378.4121" x2="7396.5273" y2="1376.3563" gradientTransform="matrix(364 0 0 -456 -2690209.25 629502.5)">
			<stop  offset="0" style="stop-color:#838C7E"/>
			<stop  offset="1" style="stop-color:#5681BC"/>
		</linearGradient>
		<polygon fill="url(#SVGID_13_)" points="1420.834,1840.755 2161.713,1500.51 2013.13,900.441 		"/>
		
			<linearGradient id="SVGID_14_" gradientUnits="userSpaceOnUse" x1="7390.0078" y1="1379.4238" x2="7392.061" y2="1377.3706" gradientTransform="matrix(322 0 0 -169 -2379468.25 233974.375)">
			<stop  offset="0" style="stop-color:#ADBAD5"/>
			<stop  offset="1" style="stop-color:#95B3E6"/>
		</linearGradient>
		<polygon fill="url(#SVGID_14_)" points="557.832,813.833 189.427,1162.326 844.82,1119.023 		"/>
		
			<linearGradient id="SVGID_15_" gradientUnits="userSpaceOnUse" x1="7386.3193" y1="1379.8262" x2="7388.3691" y2="1377.7765" gradientTransform="matrix(265 0 0 -241 -1956746.375 333097.375)">
			<stop  offset="0" style="stop-color:#4982D8"/>
			<stop  offset="1" style="stop-color:#719DE0"/>
		</linearGradient>
		<polygon fill="url(#SVGID_15_)" points="1097.208,622.059 557.832,813.833 844.82,1119.023 		"/>
		
			<linearGradient id="SVGID_16_" gradientUnits="userSpaceOnUse" x1="7400.5166" y1="1379.2715" x2="7402.563" y2="1377.225" gradientTransform="matrix(574 0 0 -241 -4247222.5 333097.375)">
			<stop  offset="0" style="stop-color:#4A82D6"/>
			<stop  offset="1" style="stop-color:#608BCC"/>
		</linearGradient>
		<polygon fill="url(#SVGID_16_)" points="2013.13,900.441 1097.208,622.059 844.82,1119.023 		"/>
		
			<linearGradient id="SVGID_17_" gradientUnits="userSpaceOnUse" x1="7401.0601" y1="1378.7578" x2="7403.1118" y2="1376.7062" gradientTransform="matrix(574 0 0 -456 -4247222.5 629502.5)">
			<stop  offset="0" style="stop-color:#6D8C98"/>
			<stop  offset="1" style="stop-color:#5886CA"/>
		</linearGradient>
		<polygon fill="url(#SVGID_17_)" points="844.82,1119.023 1420.834,1840.755 2013.13,900.441 		"/>
		
			<linearGradient id="SVGID_18_" gradientUnits="userSpaceOnUse" x1="7366.2388" y1="1379.8389" x2="7368.2773" y2="1377.8005" gradientTransform="matrix(124 0 0 -288 -910224.4375 397731.25)">
			<stop  offset="0" style="stop-color:#ACB9D0"/>
			<stop  offset="1" style="stop-color:#647696"/>
		</linearGradient>
		<polygon fill="url(#SVGID_18_)" points="3411.437,943.745 3433.826,349.863 3181.439,875.696 		"/>
		
			<linearGradient id="SVGID_19_" gradientUnits="userSpaceOnUse" x1="7354.8794" y1="1377.7803" x2="7356.9229" y2="1375.7366" gradientTransform="matrix(110 0 0 -283 -807015.4375 391399.25)">
			<stop  offset="0" style="stop-color:#557982"/>
			<stop  offset="1" style="stop-color:#76740F"/>
		</linearGradient>
		<polygon fill="url(#SVGID_19_)" points="2239.057,2084.082 2161.713,1500.51 2015.165,1820.134 		"/>
		
			<linearGradient id="SVGID_20_" gradientUnits="userSpaceOnUse" x1="7394.5654" y1="1377.5537" x2="7396.6348" y2="1375.4845" gradientTransform="matrix(364 0 0 -165 -2690209.25 228795.375)">
			<stop  offset="0" style="stop-color:#737135"/>
			<stop  offset="1" style="stop-color:#687A5C"/>
		</linearGradient>
		<polygon fill="url(#SVGID_20_)" points="2015.165,1820.134 2161.713,1500.51 1420.834,1840.755 		"/>
		
			<linearGradient id="SVGID_21_" gradientUnits="userSpaceOnUse" x1="7385.8999" y1="1379.0078" x2="7387.9521" y2="1376.9557" gradientTransform="matrix(221 0 0 -202 -1629414.375 279478.375)">
			<stop  offset="0" style="stop-color:#687B99"/>
			<stop  offset="1" style="stop-color:#8296B9"/>
		</linearGradient>
		<polygon fill="url(#SVGID_21_)" points="2918.875,1292.238 3368.694,1164.389 3181.439,875.696 		"/>
		
			<linearGradient id="SVGID_22_" gradientUnits="userSpaceOnUse" x1="7390.3452" y1="1378.5811" x2="7392.3931" y2="1376.5333" gradientTransform="matrix(258 0 0 -454 -1903695.375 626874.5)">
			<stop  offset="0" style="stop-color:#ADB5BF"/>
			<stop  offset="1" style="stop-color:#A5AC98"/>
		</linearGradient>
		<polygon fill="url(#SVGID_22_)" points="3444.003,2100.578 3368.694,1164.389 2918.875,1292.238 		"/>
		
			<linearGradient id="SVGID_23_" gradientUnits="userSpaceOnUse" x1="7361.9048" y1="1380.0498" x2="7363.9551" y2="1377.9998" gradientTransform="matrix(113 0 0 -140 -828681.4375 194042.375)">
			<stop  offset="0" style="stop-color:#8D9FBF"/>
			<stop  offset="1" style="stop-color:#7189B1"/>
		</linearGradient>
		<polygon fill="url(#SVGID_23_)" points="3368.694,1164.389 3411.437,943.745 3181.439,875.696 		"/>
		
			<linearGradient id="SVGID_24_" gradientUnits="userSpaceOnUse" x1="7385.9658" y1="1379.6787" x2="7388.0244" y2="1377.62" gradientTransform="matrix(265 0 0 -408 -1956746.375 562908.5)">
			<stop  offset="0" style="stop-color:#6495E2"/>
			<stop  offset="1" style="stop-color:#719BE1"/>
		</linearGradient>
		<polygon fill="url(#SVGID_24_)" points="1097.208,622.059 1040.759,0.858 1021.991,0.858 557.832,813.833 		"/>
		
			<linearGradient id="SVGID_25_" gradientUnits="userSpaceOnUse" x1="7359.4844" y1="1380.2041" x2="7361.5259" y2="1378.1624" gradientTransform="matrix(129 0 0 -315 -948342.375 434754.25)">
			<stop  offset="0" style="stop-color:#4979C8"/>
			<stop  offset="1" style="stop-color:#5D86CA"/>
		</linearGradient>
		<polygon fill="url(#SVGID_25_)" points="1300.746,176.647 1074.655,0.858 1040.759,0.858 1097.208,622.059 		"/>
		
			<linearGradient id="SVGID_26_" gradientUnits="userSpaceOnUse" x1="7383.9688" y1="1385.1367" x2="7386.0142" y2="1383.0911" gradientTransform="matrix(238 0 0 -99 -1756359.375 137106.4375)">
			<stop  offset="0" style="stop-color:#6188CA"/>
			<stop  offset="1" style="stop-color:#6589C8"/>
		</linearGradient>
		<polygon fill="url(#SVGID_26_)" points="1522.603,100.35 1145.631,0.858 1074.655,0.858 1300.746,176.647 		"/>
		
			<linearGradient id="SVGID_27_" gradientUnits="userSpaceOnUse" x1="7398.9746" y1="1379.9912" x2="7401.0273" y2="1377.9386" gradientTransform="matrix(521 0 0 -408 -3854759.5 562908.5)">
			<stop  offset="0" style="stop-color:#6A99E2"/>
			<stop  offset="1" style="stop-color:#719DE4"/>
		</linearGradient>
		<polygon fill="url(#SVGID_27_)" points="1021.991,0.858 683.251,0.858 668.827,0.858 631.493,0.858 265.544,0.858 107.749,0.858 
			0.001,0.858 0.001,3.397 0.001,10.724 557.832,813.833 		"/>
		
			<linearGradient id="SVGID_28_" gradientUnits="userSpaceOnUse" x1="7389.9536" y1="1379.0322" x2="7392.0015" y2="1376.9843" gradientTransform="matrix(269 0 0 -488 -1985378.25 673148.5)">
			<stop  offset="0" style="stop-color:#586D96"/>
			<stop  offset="1" style="stop-color:#98A7C2"/>
		</linearGradient>
		<polygon fill="url(#SVGID_28_)" points="3181.439,875.696 2651.112,0.858 2635.24,0.858 2680.735,978.801 		"/>
		
			<linearGradient id="SVGID_29_" gradientUnits="userSpaceOnUse" x1="7397.6426" y1="1379.752" x2="7399.6938" y2="1377.7008" gradientTransform="matrix(393 0 0 -438 -2904590.25 604248.5)">
			<stop  offset="0" style="stop-color:#7E90AE"/>
			<stop  offset="1" style="stop-color:#6F7F9A"/>
		</linearGradient>
		<polygon fill="url(#SVGID_29_)" points="3433.826,349.863 2694.033,0.858 2688.896,0.858 2651.112,0.858 3181.439,875.696 		"/>
		
			<linearGradient id="SVGID_30_" gradientUnits="userSpaceOnUse" x1="7401.2007" y1="1382.0684" x2="7403.251" y2="1380.0179" gradientTransform="matrix(508 0 0 -183 -3757085.5 252858.375)">
			<stop  offset="0" style="stop-color:#515F79"/>
			<stop  offset="1" style="stop-color:#B4BCC7"/>
		</linearGradient>
		<polygon fill="url(#SVGID_30_)" points="3667.896,125.095 2826.076,0.858 2701.929,0.858 2694.033,0.858 3433.826,349.863 		"/>
		
			<linearGradient id="SVGID_31_" gradientUnits="userSpaceOnUse" x1="7404.1606" y1="1389.4375" x2="7406.2163" y2="1387.3817" gradientTransform="matrix(784 0 0 -62 -5803858 86120.375)">
			<stop  offset="0" style="stop-color:#6182BC"/>
			<stop  offset="1" style="stop-color:#728DBA"/>
		</linearGradient>
		<polygon fill="url(#SVGID_31_)" points="2387.419,0.858 2166.951,0.858 2141.385,0.858 1794.433,0.858 1705.535,0.858 
			1661.585,0.858 1628.897,0.858 1573.278,0.858 1359.989,0.858 1212.013,0.858 1145.631,0.858 1522.603,100.35 		"/>
		
			<linearGradient id="SVGID_32_" gradientUnits="userSpaceOnUse" x1="7400.7671" y1="1386.2168" x2="7402.8184" y2="1384.1654" gradientTransform="matrix(546 0 0 -86 -4039325.5 119192.5)">
			<stop  offset="0" style="stop-color:#4C6DA5"/>
			<stop  offset="1" style="stop-color:#8398BF"/>
		</linearGradient>
		<polygon fill="url(#SVGID_32_)" points="1734.282,149.84 2490.06,0.858 2387.419,0.858 1522.603,100.35 		"/>
		
			<linearGradient id="SVGID_33_" gradientUnits="userSpaceOnUse" x1="7398.2241" y1="1381.4951" x2="7400.2798" y2="1379.4395" gradientTransform="matrix(442 0 0 -205 -3268269.5 283174.375)">
			<stop  offset="0" style="stop-color:#6880B1"/>
			<stop  offset="1" style="stop-color:#8298C0"/>
		</linearGradient>
		<polygon fill="url(#SVGID_33_)" points="1899.148,395.229 2584.629,0.858 2571.589,0.858 2541.87,0.858 2490.06,0.858 
			1734.282,149.84 		"/>
		
			<linearGradient id="SVGID_34_" gradientUnits="userSpaceOnUse" x1="7396.4316" y1="1379.7031" x2="7398.4771" y2="1377.658" gradientTransform="matrix(384 0 0 -488 -2838234.25 673148.5)">
			<stop  offset="0" style="stop-color:#7E94BC"/>
			<stop  offset="1" style="stop-color:#9FADC6"/>
		</linearGradient>
		<polygon fill="url(#SVGID_34_)" points="2680.735,978.801 2635.24,0.858 2626.618,0.858 2584.629,0.858 1899.148,395.229 		"/>
		
			<linearGradient id="SVGID_35_" gradientUnits="userSpaceOnUse" x1="7403.2363" y1="1387.9326" x2="7405.2861" y2="1385.8827" gradientTransform="matrix(604 0 0 -74 -4468733.5 102656.5)">
			<stop  offset="0" style="stop-color:#BDC7D2"/>
			<stop  offset="1" style="stop-color:#9DA2A7"/>
		</linearGradient>
		<polygon fill="url(#SVGID_35_)" points="3829.158,0.858 3768.443,0.858 3765.43,0.858 2878.78,0.858 2839.03,0.858 
			2826.076,0.858 3667.896,125.095 		"/>
		
			<linearGradient id="SVGID_36_" gradientUnits="userSpaceOnUse" x1="7387.2144" y1="1379.5254" x2="7389.2588" y2="1377.481" gradientTransform="matrix(223 0 0 -288 -1643998.375 397731.25)">
			<stop  offset="0" style="stop-color:#637FA9"/>
			<stop  offset="1" style="stop-color:#728199"/>
		</linearGradient>
		<polygon fill="url(#SVGID_36_)" points="3411.437,943.745 3839.999,657.533 3839.999,625.259 3839.999,623.551 3433.826,349.863 
					"/>
		
			<linearGradient id="SVGID_37_" gradientUnits="userSpaceOnUse" x1="7386.2725" y1="1380.5801" x2="7388.3174" y2="1378.5352" gradientTransform="matrix(212 0 0 -250 -1562444.375 345258.25)">
			<stop  offset="0" style="stop-color:#71798A"/>
			<stop  offset="1" style="stop-color:#C3C3C4"/>
		</linearGradient>
		<polygon fill="url(#SVGID_37_)" points="3667.896,125.095 3433.826,349.863 3839.999,623.551 3839.999,577.106 3839.999,574.482 
					"/>
		
			<linearGradient id="SVGID_38_" gradientUnits="userSpaceOnUse" x1="7356.002" y1="1380.5049" x2="7358.0488" y2="1378.4579" gradientTransform="matrix(97 0 0 -323 -709834.5 445779.25)">
			<stop  offset="0" style="stop-color:#8490A8"/>
			<stop  offset="1" style="stop-color:#747E90"/>
		</linearGradient>
		<polygon fill="url(#SVGID_38_)" points="3839.999,574.482 3839.999,522.759 3839.999,469.595 3839.999,413.315 3839.999,407.251 
			3839.999,402.583 3839.999,14.923 3839.999,0.858 3829.158,0.858 3667.896,125.095 		"/>
		
			<linearGradient id="SVGID_39_" gradientUnits="userSpaceOnUse" x1="7389.3301" y1="1378.6426" x2="7391.3794" y2="1376.5933" gradientTransform="matrix(243 0 0 -262 -1792279.375 362191.25)">
			<stop  offset="0" style="stop-color:#60718D"/>
			<stop  offset="1" style="stop-color:#425674"/>
		</linearGradient>
		<polygon fill="url(#SVGID_39_)" points="3368.694,1164.389 3839.999,1468.96 3839.999,1456.162 3411.437,943.745 		"/>
		
			<linearGradient id="SVGID_40_" gradientUnits="userSpaceOnUse" x1="7389.377" y1="1378.0957" x2="7391.4189" y2="1376.0536" gradientTransform="matrix(243 0 0 -454 -1792279.375 626874.5)">
			<stop  offset="0" style="stop-color:#5A7091"/>
			<stop  offset="1" style="stop-color:#4D5A4D"/>
		</linearGradient>
		<polygon fill="url(#SVGID_40_)" points="3444.003,2100.578 3839.999,1518.266 3839.999,1468.96 3368.694,1164.389 		"/>
		
			<linearGradient id="SVGID_41_" gradientUnits="userSpaceOnUse" x1="7387.7749" y1="1379.1807" x2="7389.8208" y2="1377.1348" gradientTransform="matrix(223 0 0 -409 -1643998.375 564610.5)">
			<stop  offset="0" style="stop-color:#8195B6"/>
			<stop  offset="1" style="stop-color:#8F9AAB"/>
		</linearGradient>
		<polygon fill="url(#SVGID_41_)" points="3839.999,1456.162 3839.999,1334.696 3839.999,1296.64 3839.999,1274.466 
			3839.999,1263.284 3839.999,1036.819 3839.999,657.533 3411.437,943.745 		"/>
		
			<linearGradient id="SVGID_42_" gradientUnits="userSpaceOnUse" x1="7385.4365" y1="1377.7363" x2="7387.4731" y2="1375.6996" gradientTransform="matrix(206 0 0 -313 -1517961.375 432731.25)">
			<stop  offset="0" style="stop-color:#9C8A14"/>
			<stop  offset="1" style="stop-color:#61642F"/>
		</linearGradient>
		<polygon fill="url(#SVGID_42_)" points="3794.089,2129.447 3839.999,1701.258 3839.999,1518.266 3444.003,2100.578 		"/>
		
			<linearGradient id="SVGID_43_" gradientUnits="userSpaceOnUse" x1="7385.1553" y1="1368.127" x2="7387.2041" y2="1366.0782" gradientTransform="matrix(202 0 0 -38 -1488309.375 54080.375)">
			<stop  offset="0" style="stop-color:#545913"/>
			<stop  offset="1" style="stop-color:#385114"/>
		</linearGradient>
		<polygon fill="url(#SVGID_43_)" points="3444.003,2100.578 3759.266,2160.663 3830.778,2160.663 3832.604,2160.663 
			3794.089,2129.447 		"/>
		
			<linearGradient id="SVGID_44_" gradientUnits="userSpaceOnUse" x1="7251.1045" y1="1377.4883" x2="7253.1416" y2="1375.451" gradientTransform="matrix(34 0 0 -337 -242753.3594 465803.25)">
			<stop  offset="0" style="stop-color:#7A750F"/>
			<stop  offset="1" style="stop-color:#727A35"/>
		</linearGradient>
		<polygon fill="url(#SVGID_44_)" points="3832.604,2160.663 3839.999,2160.663 3839.999,2132.882 3839.999,1701.258 
			3794.089,2129.447 		"/>
		
			<linearGradient id="SVGID_45_" gradientUnits="userSpaceOnUse" x1="7389.8394" y1="1377.9375" x2="7391.8877" y2="1375.8894" gradientTransform="matrix(258 0 0 -428 -1903695.375 591108.5)">
			<stop  offset="0" style="stop-color:#A89D54"/>
			<stop  offset="1" style="stop-color:#827E11"/>
		</linearGradient>
		<polygon fill="url(#SVGID_45_)" points="2918.875,1292.238 3261.345,2160.663 3300.679,2160.663 3444.003,2100.578 		"/>
		
			<linearGradient id="SVGID_46_" gradientUnits="userSpaceOnUse" x1="7392.8438" y1="1367.6768" x2="7394.895" y2="1365.6256" gradientTransform="matrix(289 0 0 -38 -2133327.25 54080.375)">
			<stop  offset="0" style="stop-color:#515613"/>
			<stop  offset="1" style="stop-color:#355012"/>
		</linearGradient>
		<polygon fill="url(#SVGID_46_)" points="3300.679,2160.663 3410.818,2160.663 3435.02,2160.663 3725.12,2160.663 
			3759.266,2160.663 3444.003,2100.578 		"/>
		
			<linearGradient id="SVGID_47_" gradientUnits="userSpaceOnUse" x1="7367.8369" y1="1377.4668" x2="7369.8857" y2="1375.4181" gradientTransform="matrix(141 0 0 -330 -1036746.375 456165.25)">
			<stop  offset="0" style="stop-color:#94A785"/>
			<stop  offset="1" style="stop-color:#838310"/>
		</linearGradient>
		<polygon fill="url(#SVGID_47_)" points="2239.057,2084.082 2404.71,2160.663 2440.124,2160.663 2161.713,1500.51 		"/>
		
			<linearGradient id="SVGID_48_" gradientUnits="userSpaceOnUse" x1="7396.1904" y1="1378.2656" x2="7398.2437" y2="1376.2124" gradientTransform="matrix(372 0 0 -431 -2749149.25 595242.5)">
			<stop  offset="0" style="stop-color:#5D7B83"/>
			<stop  offset="1" style="stop-color:#47563A"/>
		</linearGradient>
		<polygon fill="url(#SVGID_48_)" points="2161.713,1500.51 2440.124,2160.663 2459.46,2160.663 2918.875,1292.238 		"/>
		
			<linearGradient id="SVGID_49_" gradientUnits="userSpaceOnUse" x1="7397.4194" y1="1377.876" x2="7399.4736" y2="1375.8219" gradientTransform="matrix(402 0 0 -431 -2971398.25 595242.5)">
			<stop  offset="0" style="stop-color:#857D54"/>
			<stop  offset="1" style="stop-color:#4C570B"/>
		</linearGradient>
		<polygon fill="url(#SVGID_49_)" points="2459.46,2160.663 2542.721,2160.663 2687.253,2160.663 3247.88,2160.663 
			3261.345,2160.663 2918.875,1292.238 		"/>
		
			<linearGradient id="SVGID_50_" gradientUnits="userSpaceOnUse" x1="7361.7109" y1="1376.2402" x2="7363.7588" y2="1374.1925" gradientTransform="matrix(126 0 0 -172 -925639.4375 238596.375)">
			<stop  offset="0" style="stop-color:#8C840F"/>
			<stop  offset="1" style="stop-color:#888D11"/>
		</linearGradient>
		<polygon fill="url(#SVGID_50_)" points="2015.165,1820.134 1983.898,2160.663 2022.596,2160.663 2239.057,2084.082 		"/>
		
			<linearGradient id="SVGID_51_" gradientUnits="userSpaceOnUse" x1="7384.895" y1="1369.9277" x2="7386.9487" y2="1367.8739" gradientTransform="matrix(229 0 0 -47 -1689178.375 66474.375)">
			<stop  offset="0" style="stop-color:#717A0F"/>
			<stop  offset="1" style="stop-color:#2F4E0B"/>
		</linearGradient>
		<polygon fill="url(#SVGID_51_)" points="2022.596,2160.663 2404.71,2160.663 2239.057,2084.082 		"/>
		
			<linearGradient id="SVGID_52_" gradientUnits="userSpaceOnUse" x1="7390.8311" y1="1376.4277" x2="7392.8804" y2="1374.3784" gradientTransform="matrix(304 0 0 -162 -2245457.25 224826.375)">
			<stop  offset="0" style="stop-color:#B9A30F"/>
			<stop  offset="1" style="stop-color:#8E912C"/>
		</linearGradient>
		<polygon fill="url(#SVGID_52_)" points="1363.843,1888.183 1952.052,2160.663 1958.803,2160.663 1420.834,1840.755 		"/>
		
			<linearGradient id="SVGID_53_" gradientUnits="userSpaceOnUse" x1="7390.5229" y1="1377.0801" x2="7392.5718" y2="1375.0314" gradientTransform="matrix(292 0 0 -172 -2156473.25 238596.375)">
			<stop  offset="0" style="stop-color:#B9A939"/>
			<stop  offset="1" style="stop-color:#81820F"/>
		</linearGradient>
		<polygon fill="url(#SVGID_53_)" points="1420.834,1840.755 1958.803,2160.663 1983.898,2160.663 2015.165,1820.134 		"/>
		
			<linearGradient id="SVGID_54_" gradientUnits="userSpaceOnUse" x1="7388.1968" y1="1378.2217" x2="7390.2446" y2="1376.1737" gradientTransform="matrix(283 0 0 -395 -2090039.25 545550.5)">
			<stop  offset="0" style="stop-color:#B9CCEB"/>
			<stop  offset="1" style="stop-color:#C0BB72"/>
		</linearGradient>
		<polygon fill="url(#SVGID_54_)" points="1272.251,1933.549 1420.834,1840.755 844.82,1119.023 		"/>
		
			<linearGradient id="SVGID_55_" gradientUnits="userSpaceOnUse" x1="7320.0996" y1="1372.4834" x2="7322.2422" y2="1370.3406" gradientTransform="matrix(73 0 0 -45 -533099.5 63600.4063)">
			<stop  offset="0" style="stop-color:#BEA30C"/>
			<stop  offset="1" style="stop-color:#C2AF2A"/>
		</linearGradient>
		<polygon fill="url(#SVGID_55_)" points="1363.843,1888.183 1420.834,1840.755 1272.251,1933.549 		"/>
		
			<linearGradient id="SVGID_56_" gradientUnits="userSpaceOnUse" x1="7393.5645" y1="1376.0078" x2="7395.6143" y2="1373.9581" gradientTransform="matrix(349 0 0 -139 -2579087.25 193155.375)">
			<stop  offset="0" style="stop-color:#BDA40D"/>
			<stop  offset="1" style="stop-color:#9E9A0F"/>
		</linearGradient>
		<polygon fill="url(#SVGID_56_)" points="1272.251,1933.549 1940.937,2160.663 1951.302,2160.663 1952.052,2160.663 
			1363.843,1888.183 		"/>
		
			<linearGradient id="SVGID_57_" gradientUnits="userSpaceOnUse" x1="7399.7109" y1="1375.2383" x2="7401.7622" y2="1373.1869" gradientTransform="matrix(536 0 0 -120 -3965505.5 166995.4375)">
			<stop  offset="0" style="stop-color:#9E9D10"/>
			<stop  offset="1" style="stop-color:#527111"/>
		</linearGradient>
		<polygon fill="url(#SVGID_57_)" points="922.916,2160.663 1579.172,2160.663 1639.968,2160.663 1793.817,2160.663 
			1940.937,2160.663 1272.251,1933.549 		"/>
		
			<linearGradient id="SVGID_58_" gradientUnits="userSpaceOnUse" x1="7390.4458" y1="1378.6377" x2="7392.4995" y2="1376.5839" gradientTransform="matrix(322 0 0 -280 -2379468.25 387080.25)">
			<stop  offset="0" style="stop-color:#7E90AE"/>
			<stop  offset="1" style="stop-color:#9AAECE"/>
		</linearGradient>
		<polygon fill="url(#SVGID_58_)" points="189.427,1162.326 462.169,1696.408 844.82,1119.023 		"/>
		
			<linearGradient id="SVGID_59_" gradientUnits="userSpaceOnUse" x1="7384.002" y1="1376.8447" x2="7386.0518" y2="1374.7948" gradientTransform="matrix(253 0 0 -235 -1867879.375 325350.375)">
			<stop  offset="0" style="stop-color:#8F9313"/>
			<stop  offset="1" style="stop-color:#99A756"/>
		</linearGradient>
		<polygon fill="url(#SVGID_59_)" points="378.49,2160.663 594.849,2160.663 718.22,2160.663 873.611,2160.663 462.169,1696.408 		
			"/>
		
			<linearGradient id="SVGID_60_" gradientUnits="userSpaceOnUse" x1="7394.8071" y1="1378.1875" x2="7396.8599" y2="1376.1346" gradientTransform="matrix(398 0 0 -395 -2942722.25 545550.5)">
			<stop  offset="0" style="stop-color:#9CB3D5"/>
			<stop  offset="1" style="stop-color:#AEB48D"/>
		</linearGradient>
		<polygon fill="url(#SVGID_60_)" points="462.169,1696.408 1272.251,1933.549 844.82,1119.023 		"/>
		
			<linearGradient id="SVGID_61_" gradientUnits="userSpaceOnUse" x1="7394.957" y1="1377.2725" x2="7397.0098" y2="1375.2196" gradientTransform="matrix(398 0 0 -235 -2942722.25 325350.375)">
			<stop  offset="0" style="stop-color:#8E930F"/>
			<stop  offset="1" style="stop-color:#C7BC53"/>
		</linearGradient>
		<polygon fill="url(#SVGID_61_)" points="462.169,1696.408 873.611,2160.663 922.916,2160.663 1272.251,1933.549 		"/>
		
			<linearGradient id="SVGID_62_" gradientUnits="userSpaceOnUse" x1="7381.9063" y1="1377.3076" x2="7383.9741" y2="1375.2396" gradientTransform="matrix(239 0 0 -235 -1764294.375 325350.375)">
			<stop  offset="0" style="stop-color:#828813"/>
			<stop  offset="1" style="stop-color:#94A555"/>
		</linearGradient>
		<polygon fill="url(#SVGID_62_)" points="0.001,2156.805 0.001,2160.663 32.016,2160.663 83.599,2160.663 367.406,2160.663 
			378.49,2160.663 462.169,1696.408 		"/>
		
			<linearGradient id="SVGID_63_" gradientUnits="userSpaceOnUse" x1="7381.8149" y1="1378.4355" x2="7383.8608" y2="1376.3895" gradientTransform="matrix(238 0 0 -259 -1756880.375 358163.25)">
			<stop  offset="0" style="stop-color:#8192B0"/>
			<stop  offset="1" style="stop-color:#7A8FAD"/>
		</linearGradient>
		<polygon fill="url(#SVGID_63_)" points="189.427,1162.326 0.001,1324.714 0.001,1359.989 462.169,1696.408 		"/>
		
			<linearGradient id="SVGID_64_" gradientUnits="userSpaceOnUse" x1="7381.7007" y1="1377.832" x2="7383.7441" y2="1375.7887" gradientTransform="matrix(239 0 0 -406 -1764294.375 560817.5)">
			<stop  offset="0" style="stop-color:#87AF85"/>
			<stop  offset="1" style="stop-color:#94ADCB"/>
		</linearGradient>
		<polygon fill="url(#SVGID_64_)" points="0.001,1359.989 0.001,2029.866 0.001,2156.805 462.169,1696.408 		"/>
		
			<linearGradient id="SVGID_65_" gradientUnits="userSpaceOnUse" x1="7387.5215" y1="1379.46" x2="7389.5762" y2="1377.4052" gradientTransform="matrix(292 0 0 -256 -2157189.25 353773.25)">
			<stop  offset="0" style="stop-color:#80A0D4"/>
			<stop  offset="1" style="stop-color:#5288DB"/>
		</linearGradient>
		<polygon fill="url(#SVGID_65_)" points="557.832,813.833 0.001,645.449 0.001,715.687 0.001,719.718 189.427,1162.326 		"/>
		
			<linearGradient id="SVGID_66_" gradientUnits="userSpaceOnUse" x1="7387.1411" y1="1379.3809" x2="7389.1899" y2="1377.3319" gradientTransform="matrix(292 0 0 -405 -2157189.25 558777.5)">
			<stop  offset="0" style="stop-color:#6898E0"/>
			<stop  offset="1" style="stop-color:#5E91DE"/>
		</linearGradient>
		<polygon fill="url(#SVGID_66_)" points="0.001,10.724 0.001,68.669 0.001,481.452 0.001,645.449 557.832,813.833 		"/>
		
			<linearGradient id="SVGID_67_" gradientUnits="userSpaceOnUse" x1="7345.6523" y1="1378.7842" x2="7347.6992" y2="1376.7373" gradientTransform="matrix(111 0 0 -344 -815436.4375 475037.25)">
			<stop  offset="0" style="stop-color:#9BABC2"/>
			<stop  offset="1" style="stop-color:#96B1D9"/>
		</linearGradient>
		<polygon fill="url(#SVGID_67_)" points="0.001,719.718 0.001,726.052 0.001,742.007 0.001,931.31 0.001,946.13 0.001,1140.976 
			0.001,1155.792 0.001,1169.601 0.001,1195.71 0.001,1324.714 189.427,1162.326 		"/>
	</g>
</g>
<g id="Layer_14">
</g>
<g id="Layer_15">
</g>
<g id="Layer_16">
</g>
<g id="Layer_17">
</g>
<g id="Layer_18">
</g>
<g id="Layer_19">
</g>
<g id="Layer_20">
</g>
<g id="Layer_21">
</g>
<g id="Layer_22">
</g>
<g id="Layer_23">
</g>
<g id="Layer_24">
</g>
<g id="Layer_25">
</g>
</svg>
