<?xml version="1.0" encoding="utf-8"?>
<!-- Generator: Adobe Illustrator 16.0.0, SVG Export Plug-In . SVG Version: 6.00 Build 0)  -->
<!DOCTYPE svg PUBLIC "-//W3C//DTD SVG 1.1//EN" "http://www.w3.org/Graphics/SVG/1.1/DTD/svg11.dtd">
<svg version="1.1" xmlns="http://www.w3.org/2000/svg" xmlns:xlink="http://www.w3.org/1999/xlink" x="0px" y="0px" width="3840px"
	 height="2160px" viewBox="0 0 3840 2160" enable-background="new 0 0 3840 2160" xml:space="preserve">
<g id="Layer_1">
</g>
<g id="Layer_2">
</g>
<g id="Layer_3">
</g>
<g id="Layer_4">
</g>
<g id="Layer_5">
</g>
<g id="Layer_6">
</g>
<g id="Layer_7">
</g>
<g id="Layer_8">
</g>
<g id="Layer_9">
</g>
<g id="Layer_10">
</g>
<g id="Layer_11">
	<g>
		
			<linearGradient id="SVGID_1_" gradientUnits="userSpaceOnUse" x1="-304.1641" y1="3563.7168" x2="-302.7064" y2="3562.259" gradientTransform="matrix(452 0 0 -419 140520.5 1494708.5)">
			<stop  offset="0" style="stop-color:#0A1501"/>
			<stop  offset="1" style="stop-color:#1A2C04"/>
		</linearGradient>
		<polygon fill="url(#SVGID_1_)" points="3811.946,1891.558 3402.654,1423.286 3119.063,2010.729 		"/>
		
			<linearGradient id="SVGID_2_" gradientUnits="userSpaceOnUse" x1="-304.6401" y1="3567.292" x2="-302.4273" y2="3565.0791" gradientTransform="matrix(273 0 0 -297 84409.75 1060263.25)">
			<stop  offset="0" style="stop-color:#F2F17F"/>
			<stop  offset="1" style="stop-color:#D1D42A"/>
		</linearGradient>
		<polygon fill="url(#SVGID_2_)" points="1760.888,905.945 1343.931,1322.342 1762.421,969.035 		"/>
		
			<linearGradient id="SVGID_3_" gradientUnits="userSpaceOnUse" x1="-305.3711" y1="3561.6152" x2="-303.8904" y2="3560.1345" gradientTransform="matrix(483 0 0 -746 148879.5 2657851)">
			<stop  offset="0" style="stop-color:#A8B429"/>
			<stop  offset="1" style="stop-color:#556707"/>
		</linearGradient>
		<polygon fill="url(#SVGID_3_)" points="1343.931,1322.342 2084.336,2014.935 1762.421,969.035 		"/>
		
			<linearGradient id="SVGID_4_" gradientUnits="userSpaceOnUse" x1="-305.6968" y1="3563.2568" x2="-304.2618" y2="3561.8218" gradientTransform="matrix(431 0 0 -489 132484.5 1743696.5)">
			<stop  offset="0" style="stop-color:#203C04"/>
			<stop  offset="1" style="stop-color:#485B08"/>
		</linearGradient>
		<polygon fill="url(#SVGID_4_)" points="822.735,2007.925 1343.931,1322.342 683.239,1577.508 		"/>
		
			<linearGradient id="SVGID_5_" gradientUnits="userSpaceOnUse" x1="-306.0308" y1="3586.8838" x2="-304.5186" y2="3585.3716" gradientTransform="matrix(317 0 0 -91 97115.75 327315.5)">
			<stop  offset="0" style="stop-color:#BFB40A"/>
			<stop  offset="1" style="stop-color:#BCA112"/>
		</linearGradient>
		<polygon fill="url(#SVGID_5_)" points="117.588,905.945 114.523,1033.527 600.461,929.779 		"/>
		
			<linearGradient id="SVGID_6_" gradientUnits="userSpaceOnUse" x1="-305.8779" y1="3563.958" x2="-304.4048" y2="3562.4849" gradientTransform="matrix(371 0 0 -462 113693.75 1647350.5)">
			<stop  offset="0" style="stop-color:#A0A305"/>
			<stop  offset="1" style="stop-color:#737E0C"/>
		</linearGradient>
		<polygon fill="url(#SVGID_6_)" points="114.523,1033.527 683.239,1577.508 600.461,929.779 		"/>
		
			<linearGradient id="SVGID_7_" gradientUnits="userSpaceOnUse" x1="-306.1758" y1="3563.5742" x2="-304.7225" y2="3562.1208" gradientTransform="matrix(315 0 0 -487 96503.75 1735813.5)">
			<stop  offset="0" style="stop-color:#AC5C0B"/>
			<stop  offset="1" style="stop-color:#905A11"/>
		</linearGradient>
		<polygon fill="url(#SVGID_7_)" points="289.277,247 117.588,905.945 600.461,929.779 		"/>
		
			<linearGradient id="SVGID_8_" gradientUnits="userSpaceOnUse" x1="-304.8677" y1="3563.6729" x2="-303.3978" y2="3562.2029" gradientTransform="matrix(203 0 0 -525 62231.625 1870979.5)">
			<stop  offset="0" style="stop-color:#5E1E0A"/>
			<stop  offset="1" style="stop-color:#825310"/>
		</linearGradient>
		<polygon fill="url(#SVGID_8_)" points="528.414,193.724 289.277,247 600.461,929.779 		"/>
		
			<linearGradient id="SVGID_9_" gradientUnits="userSpaceOnUse" x1="-305.7075" y1="3584.2012" x2="-304.2401" y2="3582.7336" gradientTransform="matrix(276 0 0 -89 84714.75 320896.5)">
			<stop  offset="0" style="stop-color:#1D3002"/>
			<stop  offset="1" style="stop-color:#162603"/>
		</linearGradient>
		<polygon fill="url(#SVGID_9_)" points="467.097,1993.904 822.735,2007.925 399.646,1883.146 		"/>
		
			<linearGradient id="SVGID_10_" gradientUnits="userSpaceOnUse" x1="-305.4717" y1="3565.9443" x2="-304.0132" y2="3564.4858" gradientTransform="matrix(276 0 0 -307 84714.75 1096322.25)">
			<stop  offset="0" style="stop-color:#152904"/>
			<stop  offset="1" style="stop-color:#152503"/>
		</linearGradient>
		<polygon fill="url(#SVGID_10_)" points="399.646,1883.146 822.735,2007.925 683.239,1577.508 		"/>
		
			<linearGradient id="SVGID_11_" gradientUnits="userSpaceOnUse" x1="-303.9326" y1="3569.2725" x2="-302.4651" y2="3567.8049" gradientTransform="matrix(393 0 0 -226 122199.75 807788.375)">
			<stop  offset="0" style="stop-color:#818F08"/>
			<stop  offset="1" style="stop-color:#5C7406"/>
		</linearGradient>
		<polygon fill="url(#SVGID_11_)" points="2889.123,1292.899 3402.654,1423.286 2800.214,1106.432 		"/>
		
			<linearGradient id="SVGID_12_" gradientUnits="userSpaceOnUse" x1="-303.0317" y1="3563.0625" x2="-301.5892" y2="3561.6199" gradientTransform="matrix(335 0 0 -512 104451.75 1825509.5)">
			<stop  offset="0" style="stop-color:#2B3903"/>
			<stop  offset="1" style="stop-color:#4F6706"/>
		</linearGradient>
		<polygon fill="url(#SVGID_12_)" points="3119.063,2010.729 3402.654,1423.286 2889.123,1292.899 		"/>
		
			<linearGradient id="SVGID_13_" gradientUnits="userSpaceOnUse" x1="-305.2798" y1="3562.2451" x2="-303.7708" y2="3560.7361" gradientTransform="matrix(340 0 0 -613 104638.75 2184889)">
			<stop  offset="0" style="stop-color:#1C3003"/>
			<stop  offset="1" style="stop-color:#3C4A06"/>
		</linearGradient>
		<polygon fill="url(#SVGID_13_)" points="822.735,2007.925 1236.198,2160.663 1294.587,2160.663 1343.931,1322.342 		"/>
		
			<linearGradient id="SVGID_14_" gradientUnits="userSpaceOnUse" x1="-305.8281" y1="3561.8555" x2="-304.3558" y2="3560.3831" gradientTransform="matrix(516 0 0 -613 158977.5 2184889)">
			<stop  offset="0" style="stop-color:#52610B"/>
			<stop  offset="1" style="stop-color:#0C1902"/>
		</linearGradient>
		<polygon fill="url(#SVGID_14_)" points="1343.931,1322.342 1294.587,2160.663 1393.432,2160.663 2084.336,2014.935 		"/>
		
			<linearGradient id="SVGID_15_" gradientUnits="userSpaceOnUse" x1="-306.062" y1="3564.4053" x2="-304.5756" y2="3562.9187" gradientTransform="matrix(774 0 0 -452 237996 1611301.5)">
			<stop  offset="0" style="stop-color:#FDDA89"/>
			<stop  offset="1" style="stop-color:#ED9227"/>
		</linearGradient>
		<polygon fill="url(#SVGID_15_)" points="2193.174,272.236 1006.687,684.427 1760.888,905.945 		"/>
		
			<linearGradient id="SVGID_16_" gradientUnits="userSpaceOnUse" x1="-305.6621" y1="3563.2598" x2="-304.1815" y2="3561.7793" gradientTransform="matrix(312 0 0 -525 95850.75 1870979.5)">
			<stop  offset="0" style="stop-color:#903B0C"/>
			<stop  offset="1" style="stop-color:#D38314"/>
		</linearGradient>
		<polygon fill="url(#SVGID_16_)" points="1006.687,684.427 528.414,193.724 600.461,929.779 		"/>
		
			<linearGradient id="SVGID_17_" gradientUnits="userSpaceOnUse" x1="-305.6406" y1="3564.0059" x2="-304.1982" y2="3562.5635" gradientTransform="matrix(492 0 0 -455 151422.5 1622269.5)">
			<stop  offset="0" style="stop-color:#C1C725"/>
			<stop  offset="1" style="stop-color:#F3CD63"/>
		</linearGradient>
		<polygon fill="url(#SVGID_17_)" points="1006.687,684.427 1343.931,1322.342 1760.888,905.945 		"/>
		
			<linearGradient id="SVGID_18_" gradientUnits="userSpaceOnUse" x1="-303.9956" y1="3563.7881" x2="-302.5618" y2="3562.3542" gradientTransform="matrix(168 0 0 -462 51689.625 1647350.5)">
			<stop  offset="0" style="stop-color:#C6BA16"/>
			<stop  offset="1" style="stop-color:#9A9B0D"/>
		</linearGradient>
		<polygon fill="url(#SVGID_18_)" points="600.461,929.779 683.239,1577.508 857.993,1019.508 		"/>
		
			<linearGradient id="SVGID_19_" gradientUnits="userSpaceOnUse" x1="-305.0693" y1="3569.4365" x2="-303.5753" y2="3567.9424" gradientTransform="matrix(265 0 0 -239 81468.625 853741.375)">
			<stop  offset="0" style="stop-color:#D1A217"/>
			<stop  offset="1" style="stop-color:#E8A312"/>
		</linearGradient>
		<polygon fill="url(#SVGID_19_)" points="857.993,1019.508 1006.687,684.427 600.461,929.779 		"/>
		
			<linearGradient id="SVGID_20_" gradientUnits="userSpaceOnUse" x1="-305.9531" y1="3564.3652" x2="-304.4757" y2="3562.8879" gradientTransform="matrix(431 0 0 -398 132484.5 1419702.5)">
			<stop  offset="0" style="stop-color:#4A6005"/>
			<stop  offset="1" style="stop-color:#A7AE0E"/>
		</linearGradient>
		<polygon fill="url(#SVGID_20_)" points="683.239,1577.508 1343.931,1322.342 857.993,1019.508 		"/>
		
			<linearGradient id="SVGID_21_" gradientUnits="userSpaceOnUse" x1="-305.2373" y1="3563.8447" x2="-303.7817" y2="3562.3892" gradientTransform="matrix(317 0 0 -455 97600.75 1622269.5)">
			<stop  offset="0" style="stop-color:#F1B51C"/>
			<stop  offset="1" style="stop-color:#CFCF19"/>
		</linearGradient>
		<polygon fill="url(#SVGID_21_)" points="857.993,1019.508 1343.931,1322.342 1006.687,684.427 		"/>
		
			<linearGradient id="SVGID_22_" gradientUnits="userSpaceOnUse" x1="-304.668" y1="3616.4395" x2="-303.1569" y2="3614.9285" gradientTransform="matrix(376 0 0 -45 116302.75 163647.3438)">
			<stop  offset="0" style="stop-color:#FCFCAE"/>
			<stop  offset="1" style="stop-color:#FAE755"/>
		</linearGradient>
		<polygon fill="url(#SVGID_22_)" points="1762.421,969.035 2337.27,918.563 1760.888,905.945 		"/>
		
			<linearGradient id="SVGID_23_" gradientUnits="userSpaceOnUse" x1="-304.6504" y1="3564.0059" x2="-303.2222" y2="3562.5776" gradientTransform="matrix(376 0 0 -461 116302.75 1643323.5)">
			<stop  offset="0" style="stop-color:#FDE189"/>
			<stop  offset="1" style="stop-color:#F1AE33"/>
		</linearGradient>
		<polygon fill="url(#SVGID_23_)" points="2337.27,918.563 2193.174,272.236 1760.888,905.945 		"/>
		
			<linearGradient id="SVGID_24_" gradientUnits="userSpaceOnUse" x1="-304.3779" y1="3561.6084" x2="-302.9275" y2="3560.158" gradientTransform="matrix(375 0 0 -782 115996.75 2785903)">
			<stop  offset="0" style="stop-color:#B9C22A"/>
			<stop  offset="1" style="stop-color:#827C14"/>
		</linearGradient>
		<polygon fill="url(#SVGID_24_)" points="1762.421,969.035 2084.336,2014.935 2337.27,918.563 		"/>
		
			<linearGradient id="SVGID_25_" gradientUnits="userSpaceOnUse" x1="-305.1694" y1="3561.2676" x2="-303.68" y2="3559.7781" gradientTransform="matrix(525 0 0 -782 162256.5 2785903)">
			<stop  offset="0" style="stop-color:#263F02"/>
			<stop  offset="1" style="stop-color:#8B8E14"/>
		</linearGradient>
		<polygon fill="url(#SVGID_25_)" points="2084.336,2014.935 2889.123,1292.899 2337.27,918.563 		"/>
		
			<linearGradient id="SVGID_26_" gradientUnits="userSpaceOnUse" x1="-303.8335" y1="3563.3369" x2="-302.366" y2="3561.8694" gradientTransform="matrix(312 0 0 -511 96936.75 1821223.5)">
			<stop  offset="0" style="stop-color:#E88924"/>
			<stop  offset="1" style="stop-color:#F4BD23"/>
		</linearGradient>
		<polygon fill="url(#SVGID_26_)" points="2671.447,988.663 2193.174,272.236 2337.27,918.563 		"/>
		
			<linearGradient id="SVGID_27_" gradientUnits="userSpaceOnUse" x1="-303.2441" y1="3577.7559" x2="-301.7767" y2="3576.2883" gradientTransform="matrix(302 0 0 -134 93960.75 480318.375)">
			<stop  offset="0" style="stop-color:#E9E119"/>
			<stop  offset="1" style="stop-color:#D3C11E"/>
		</linearGradient>
		<polygon fill="url(#SVGID_27_)" points="2800.214,1106.432 2671.447,988.663 2337.27,918.563 		"/>
		
			<linearGradient id="SVGID_28_" gradientUnits="userSpaceOnUse" x1="-303.8252" y1="3567.9873" x2="-302.3577" y2="3566.5198" gradientTransform="matrix(360 0 0 -267 111766.75 953532.25)">
			<stop  offset="0" style="stop-color:#A5AA0C"/>
			<stop  offset="1" style="stop-color:#B3AB18"/>
		</linearGradient>
		<polygon fill="url(#SVGID_28_)" points="2337.27,918.563 2889.123,1292.899 2800.214,1106.432 		"/>
		
			<linearGradient id="SVGID_29_" gradientUnits="userSpaceOnUse" x1="-306.335" y1="3572.5479" x2="-304.8606" y2="3571.0735" gradientTransform="matrix(377 0 0 -199 115428.75 710910.375)">
			<stop  offset="0" style="stop-color:#5A210D"/>
			<stop  offset="1" style="stop-color:#5E2912"/>
		</linearGradient>
		<polygon fill="url(#SVGID_29_)" points="528.414,193.724 34.627,0.858 0.002,0.858 0.002,3.397 0.002,8.767 289.277,247 		"/>
		
			<linearGradient id="SVGID_30_" gradientUnits="userSpaceOnUse" x1="-305.9727" y1="3572.4219" x2="-304.5052" y2="3570.9543" gradientTransform="matrix(221 0 0 -199 67536.625 710910.375)">
			<stop  offset="0" style="stop-color:#37150B"/>
			<stop  offset="1" style="stop-color:#4D2211"/>
		</linearGradient>
		<polygon fill="url(#SVGID_30_)" points="289.277,247 0.002,8.767 0.002,68.669 0.002,149.094 4.152,164.281 		"/>
		
			<linearGradient id="SVGID_31_" gradientUnits="userSpaceOnUse" x1="-305.2891" y1="3563.9551" x2="-303.8097" y2="3562.4758" gradientTransform="matrix(315 0 0 -510 96771.75 1817449.5)">
			<stop  offset="0" style="stop-color:#8F4215"/>
			<stop  offset="1" style="stop-color:#C9671B"/>
		</linearGradient>
		<polygon fill="url(#SVGID_31_)" points="1006.687,684.427 1011.084,0.858 943.572,0.858 528.414,193.724 		"/>
		
			<linearGradient id="SVGID_32_" gradientUnits="userSpaceOnUse" x1="-306.4556" y1="3576.1797" x2="-305.0074" y2="3574.7314" gradientTransform="matrix(692 0 0 -161 212133 575706.375)">
			<stop  offset="0" style="stop-color:#572B15"/>
			<stop  offset="1" style="stop-color:#713214"/>
		</linearGradient>
		<polygon fill="url(#SVGID_32_)" points="943.572,0.858 683.251,0.858 668.827,0.858 631.492,0.858 265.544,0.858 107.75,0.858 
			34.627,0.858 528.414,193.724 		"/>
		
			<linearGradient id="SVGID_33_" gradientUnits="userSpaceOnUse" x1="-306.3042" y1="3563.5693" x2="-304.8103" y2="3562.0754" gradientTransform="matrix(774 0 0 -510 237996 1817449.5)">
			<stop  offset="0" style="stop-color:#CA6013"/>
			<stop  offset="1" style="stop-color:#B65E20"/>
		</linearGradient>
		<polygon fill="url(#SVGID_33_)" points="2193.174,272.236 1134.053,0.858 1011.084,0.858 1006.687,684.427 		"/>
		
			<linearGradient id="SVGID_34_" gradientUnits="userSpaceOnUse" x1="-303.52" y1="3562.1523" x2="-302.0411" y2="3560.6733" gradientTransform="matrix(312 0 0 -728 96936.75 2593093)">
			<stop  offset="0" style="stop-color:#D47928"/>
			<stop  offset="1" style="stop-color:#C28921"/>
		</linearGradient>
		<polygon fill="url(#SVGID_34_)" points="2671.447,988.663 2533.475,0.858 2492.628,0.858 2193.174,272.236 		"/>
		
			<linearGradient id="SVGID_35_" gradientUnits="userSpaceOnUse" x1="-306.0811" y1="3571.6494" x2="-304.6216" y2="3570.1899" gradientTransform="matrix(990 0 0 -217 304311 774954.375)">
			<stop  offset="0" style="stop-color:#AE5D26"/>
			<stop  offset="1" style="stop-color:#B3652A"/>
		</linearGradient>
		<polygon fill="url(#SVGID_35_)" points="2492.628,0.858 2166.951,0.858 2141.385,0.858 1794.433,0.858 1705.535,0.858 
			1661.585,0.858 1628.897,0.858 1573.278,0.858 1359.989,0.858 1212.013,0.858 1134.053,0.858 2193.174,272.236 		"/>
		
			<linearGradient id="SVGID_36_" gradientUnits="userSpaceOnUse" x1="-304.8433" y1="3562.0605" x2="-303.4225" y2="3560.6396" gradientTransform="matrix(556 0 0 -728 172063.5 2593093)">
			<stop  offset="0" style="stop-color:#A4521F"/>
			<stop  offset="1" style="stop-color:#A37114"/>
		</linearGradient>
		<polygon fill="url(#SVGID_36_)" points="3360.236,0.858 2878.78,0.858 2839.03,0.858 2701.93,0.858 2688.896,0.858 
			2626.618,0.858 2571.589,0.858 2541.87,0.858 2533.475,0.858 2671.447,988.663 		"/>
		
			<linearGradient id="SVGID_37_" gradientUnits="userSpaceOnUse" x1="-305.3882" y1="3566.1426" x2="-303.9464" y2="3564.7009" gradientTransform="matrix(773 0 0 -336 238775 1198832.25)">
			<stop  offset="0" style="stop-color:#DAAF1D"/>
			<stop  offset="1" style="stop-color:#A27013"/>
		</linearGradient>
		<polygon fill="url(#SVGID_37_)" points="2800.214,1106.432 3840,642.672 3840,640.247 2671.447,988.663 		"/>
		
			<linearGradient id="SVGID_38_" gradientUnits="userSpaceOnUse" x1="-305.5381" y1="3561.8467" x2="-304.0863" y2="3560.3948" gradientTransform="matrix(773 0 0 -726 238775 2585979)">
			<stop  offset="0" style="stop-color:#B78812"/>
			<stop  offset="1" style="stop-color:#6F280B"/>
		</linearGradient>
		<polygon fill="url(#SVGID_38_)" points="3840,640.247 3840,625.259 3840,612.419 3402.685,0.858 3360.236,0.858 2671.447,988.663 
					"/>
		
			<linearGradient id="SVGID_39_" gradientUnits="userSpaceOnUse" x1="-302.0073" y1="3564.4424" x2="-300.54" y2="3562.9751" gradientTransform="matrix(313 0 0 -476 98018.75 1696476.5)">
			<stop  offset="0" style="stop-color:#4A190A"/>
			<stop  offset="1" style="stop-color:#64280F"/>
		</linearGradient>
		<polygon fill="url(#SVGID_39_)" points="3840,577.106 3840,522.759 3840,469.595 3840,413.315 3840,407.251 3840,402.583 
			3840,14.923 3840,0.858 3768.443,0.858 3765.43,0.858 3402.685,0.858 3840,612.419 		"/>
		
			<linearGradient id="SVGID_40_" gradientUnits="userSpaceOnUse" x1="-304.9604" y1="3565.8926" x2="-303.4978" y2="3564.4299" gradientTransform="matrix(692 0 0 -343 213992 1223957.25)">
			<stop  offset="0" style="stop-color:#86920A"/>
			<stop  offset="1" style="stop-color:#78800D"/>
		</linearGradient>
		<polygon fill="url(#SVGID_40_)" points="3402.654,1423.286 3840,964.431 3840,945.645 2800.214,1106.432 		"/>
		
			<linearGradient id="SVGID_41_" gradientUnits="userSpaceOnUse" x1="-305.2627" y1="3566.1748" x2="-303.6704" y2="3564.5825" gradientTransform="matrix(692 0 0 -336 213992 1198832.25)">
			<stop  offset="0" style="stop-color:#A88615"/>
			<stop  offset="1" style="stop-color:#A66C16"/>
		</linearGradient>
		<polygon fill="url(#SVGID_41_)" points="3840,945.645 3840,642.672 2800.214,1106.432 		"/>
		
			<linearGradient id="SVGID_42_" gradientUnits="userSpaceOnUse" x1="-301.8164" y1="3564.2246" x2="-300.3447" y2="3562.7529" gradientTransform="matrix(298 0 0 -425 93427.75 1515965.5)">
			<stop  offset="0" style="stop-color:#384E08"/>
			<stop  offset="1" style="stop-color:#273D04"/>
		</linearGradient>
		<polygon fill="url(#SVGID_42_)" points="3811.946,1891.558 3840,1539.808 3840,1334.696 3840,1301.141 3402.654,1423.286 		"/>
		
			<linearGradient id="SVGID_43_" gradientUnits="userSpaceOnUse" x1="-302.2041" y1="3565.7295" x2="-300.6236" y2="3564.1489" gradientTransform="matrix(299 0 0 -343 93734.75 1223957.25)">
			<stop  offset="0" style="stop-color:#6E7509"/>
			<stop  offset="1" style="stop-color:#83850B"/>
		</linearGradient>
		<polygon fill="url(#SVGID_43_)" points="3402.654,1423.286 3840,1301.141 3840,1296.64 3840,1274.466 3840,1263.284 
			3840,1036.819 3840,964.431 		"/>
		
			<linearGradient id="SVGID_44_" gradientUnits="userSpaceOnUse" x1="-255.4126" y1="3561.8574" x2="-253.9127" y2="3560.3574" gradientTransform="matrix(31 0 0 -642 11725.6406 2288052)">
			<stop  offset="0" style="stop-color:#16250A"/>
			<stop  offset="1" style="stop-color:#203108"/>
		</linearGradient>
		<polygon fill="url(#SVGID_44_)" points="3840,2071.157 3840,1539.808 3811.946,1891.558 		"/>
		
			<linearGradient id="SVGID_45_" gradientUnits="userSpaceOnUse" x1="-303.8066" y1="3568.873" x2="-302.356" y2="3567.4224" gradientTransform="matrix(452 0 0 -220 140520.5 787000.375)">
			<stop  offset="0" style="stop-color:#0F1A02"/>
			<stop  offset="1" style="stop-color:#0C1801"/>
		</linearGradient>
		<polygon fill="url(#SVGID_45_)" points="3119.063,2010.729 3318.214,2160.663 3410.818,2160.663 3426.768,2160.663 
			3811.946,1891.558 		"/>
		
			<linearGradient id="SVGID_46_" gradientUnits="userSpaceOnUse" x1="-302.3164" y1="3568.707" x2="-300.9026" y2="3567.2932" gradientTransform="matrix(319 0 0 -220 99853.75 787000.375)">
			<stop  offset="0" style="stop-color:#112103"/>
			<stop  offset="1" style="stop-color:#0D1802"/>
		</linearGradient>
		<polygon fill="url(#SVGID_46_)" points="3426.768,2160.663 3435.02,2160.663 3725.12,2160.663 3830.778,2160.663 3840,2160.663 
			3840,2132.882 3840,2071.157 3811.946,1891.558 		"/>
		
			<linearGradient id="SVGID_47_" gradientUnits="userSpaceOnUse" x1="-305.022" y1="3562.0723" x2="-303.5376" y2="3560.5879" gradientTransform="matrix(525 0 0 -640 162256.5 2280934)">
			<stop  offset="0" style="stop-color:#0F1F02"/>
			<stop  offset="1" style="stop-color:#2B3E03"/>
		</linearGradient>
		<polygon fill="url(#SVGID_47_)" points="2084.336,2014.935 2306.132,2160.663 2368.769,2160.663 2889.123,1292.899 		"/>
		
			<linearGradient id="SVGID_48_" gradientUnits="userSpaceOnUse" x1="-304.8413" y1="3561.8447" x2="-303.4037" y2="3560.407" gradientTransform="matrix(501 0 0 -640 155062.5 2280934)">
			<stop  offset="0" style="stop-color:#817F07"/>
			<stop  offset="1" style="stop-color:#3B3605"/>
		</linearGradient>
		<polygon fill="url(#SVGID_48_)" points="2889.123,1292.899 2368.769,2160.663 2477.41,2160.663 3119.063,2010.729 		"/>
		
			<linearGradient id="SVGID_49_" gradientUnits="userSpaceOnUse" x1="-305.2544" y1="3575.1641" x2="-303.8265" y2="3573.7361" gradientTransform="matrix(665 0 0 -135 205410 484655.375)">
			<stop  offset="0" style="stop-color:#101B03"/>
			<stop  offset="1" style="stop-color:#0B1503"/>
		</linearGradient>
		<polygon fill="url(#SVGID_49_)" points="2477.41,2160.663 2542.721,2160.663 2687.253,2160.663 3247.88,2160.663 
			3318.214,2160.663 3119.063,2010.729 		"/>
		
			<linearGradient id="SVGID_50_" gradientUnits="userSpaceOnUse" x1="-305.8745" y1="3576.499" x2="-304.4461" y2="3575.0706" gradientTransform="matrix(690 0 0 -125 212395 449078.375)">
			<stop  offset="0" style="stop-color:#091301"/>
			<stop  offset="1" style="stop-color:#0D1A02"/>
		</linearGradient>
		<polygon fill="url(#SVGID_50_)" points="1393.432,2160.663 1579.172,2160.663 1639.968,2160.663 1793.817,2160.663 
			1951.302,2160.663 2306.132,2160.663 2084.336,2014.935 		"/>
		
			<linearGradient id="SVGID_51_" gradientUnits="userSpaceOnUse" x1="-305.2368" y1="3574.8428" x2="-303.7693" y2="3573.3752" gradientTransform="matrix(296 0 0 -140 90898.75 502433.375)">
			<stop  offset="0" style="stop-color:#233902"/>
			<stop  offset="1" style="stop-color:#3F4203"/>
		</linearGradient>
		<polygon fill="url(#SVGID_51_)" points="467.097,1993.904 852.594,2160.663 904.952,2160.663 822.735,2007.925 		"/>
		
			<linearGradient id="SVGID_52_" gradientUnits="userSpaceOnUse" x1="-305.3462" y1="3575.627" x2="-303.8772" y2="3574.158" gradientTransform="matrix(307 0 0 -130 94507.75 466863.375)">
			<stop  offset="0" style="stop-color:#162502"/>
			<stop  offset="1" style="stop-color:#332F01"/>
		</linearGradient>
		<polygon fill="url(#SVGID_52_)" points="904.952,2160.663 1236.198,2160.663 822.735,2007.925 		"/>
		
			<linearGradient id="SVGID_53_" gradientUnits="userSpaceOnUse" x1="-306.1113" y1="3568.5605" x2="-304.6738" y2="3567.123" gradientTransform="matrix(333 0 0 -223 101924.75 797668.375)">
			<stop  offset="0" style="stop-color:#192B02"/>
			<stop  offset="1" style="stop-color:#1F3002"/>
		</linearGradient>
		<polygon fill="url(#SVGID_53_)" points="399.646,1883.146 6.412,2160.663 32.016,2160.663 45.459,2160.663 467.097,1993.904 		"/>
		
			<linearGradient id="SVGID_54_" gradientUnits="userSpaceOnUse" x1="-306.6094" y1="3574.0332" x2="-305.1647" y2="3572.5884" gradientTransform="matrix(629 0 0 -144 192796.5 516665.375)">
			<stop  offset="0" style="stop-color:#1D2F02"/>
			<stop  offset="1" style="stop-color:#3A3602"/>
		</linearGradient>
		<polygon fill="url(#SVGID_54_)" points="45.459,2160.663 83.598,2160.663 367.406,2160.663 594.849,2160.663 718.22,2160.663 
			852.594,2160.663 467.097,1993.904 		"/>
		
			<linearGradient id="SVGID_55_" gradientUnits="userSpaceOnUse" x1="-306.646" y1="3564.4785" x2="-305.1868" y2="3563.0193" gradientTransform="matrix(478 0 0 -388 146435.5 1384132.25)">
			<stop  offset="0" style="stop-color:#939307"/>
			<stop  offset="1" style="stop-color:#3C4F06"/>
		</linearGradient>
		<polygon fill="url(#SVGID_55_)" points="114.523,1033.527 0.002,1369.288 0.002,1518.679 683.239,1577.508 		"/>
		
			<linearGradient id="SVGID_56_" gradientUnits="userSpaceOnUse" x1="-306.2461" y1="3567.5488" x2="-304.7943" y2="3566.0972" gradientTransform="matrix(478 0 0 -263 146435.5 939725.25)">
			<stop  offset="0" style="stop-color:#1E3003"/>
			<stop  offset="1" style="stop-color:#283E05"/>
		</linearGradient>
		<polygon fill="url(#SVGID_56_)" points="683.239,1577.508 0.002,1518.679 0.002,1555.055 399.646,1883.146 		"/>
		
			<linearGradient id="SVGID_57_" gradientUnits="userSpaceOnUse" x1="-306.2061" y1="3562.958" x2="-304.7191" y2="3561.4712" gradientTransform="matrix(293 0 0 -486 89640.75 1733159.5)">
			<stop  offset="0" style="stop-color:#1B2803"/>
			<stop  offset="1" style="stop-color:#233504"/>
		</linearGradient>
		<polygon fill="url(#SVGID_57_)" points="0.002,1555.055 0.002,2029.866 0.002,2160.663 6.412,2160.663 399.646,1883.146 		"/>
		
			<linearGradient id="SVGID_58_" gradientUnits="userSpaceOnUse" x1="-304.4487" y1="3568.0996" x2="-302.9818" y2="3566.6328" gradientTransform="matrix(109 0 0 -272 33152.5625 971132.25)">
			<stop  offset="0" style="stop-color:#BB8B08"/>
			<stop  offset="1" style="stop-color:#A85B0D"/>
		</linearGradient>
		<polygon fill="url(#SVGID_58_)" points="117.588,905.945 0.002,727.359 0.002,742.007 0.002,767.268 114.523,1033.527 		"/>
		
			<linearGradient id="SVGID_59_" gradientUnits="userSpaceOnUse" x1="-305.6597" y1="3564.2061" x2="-304.1841" y2="3562.7305" gradientTransform="matrix(221 0 0 -470 67536.625 1675327.5)">
			<stop  offset="0" style="stop-color:#A25A0E"/>
			<stop  offset="1" style="stop-color:#772E0E"/>
		</linearGradient>
		<polygon fill="url(#SVGID_59_)" points="289.277,247 0.002,592.977 0.002,715.687 0.002,726.052 0.002,727.359 117.588,905.945 		
			"/>
		
			<linearGradient id="SVGID_60_" gradientUnits="userSpaceOnUse" x1="-305.7471" y1="3566.2412" x2="-304.2361" y2="3564.7302" gradientTransform="matrix(221 0 0 -348 67536.625 1241192.25)">
			<stop  offset="0" style="stop-color:#3E1609"/>
			<stop  offset="1" style="stop-color:#61230C"/>
		</linearGradient>
		<polygon fill="url(#SVGID_60_)" points="4.152,164.281 0.002,202.033 0.002,481.452 0.002,592.977 289.277,247 		"/>
		
			<linearGradient id="SVGID_61_" gradientUnits="userSpaceOnUse" x1="-304.5088" y1="3562.4502" x2="-303.016" y2="3560.9575" gradientTransform="matrix(107 0 0 -615 32538.5 2191527)">
			<stop  offset="0" style="stop-color:#687205"/>
			<stop  offset="1" style="stop-color:#A28409"/>
		</linearGradient>
		<polygon fill="url(#SVGID_61_)" points="0.002,767.268 0.002,931.31 0.002,946.13 0.002,1140.976 0.002,1155.792 0.002,1169.601 
			0.002,1195.71 0.002,1369.288 114.523,1033.527 		"/>
		
			<linearGradient id="SVGID_62_" gradientUnits="userSpaceOnUse" x1="-299.0298" y1="3564.459" x2="-297.5261" y2="3562.9553" gradientTransform="matrix(35 0 0 -488 10434.625 1739172.5)">
			<stop  offset="0" style="stop-color:#4B2512"/>
			<stop  offset="1" style="stop-color:#52200B"/>
		</linearGradient>
		<polygon fill="url(#SVGID_62_)" points="0.002,149.094 0.002,202.033 4.152,164.281 		"/>
	</g>
</g>
<g id="Layer_12">
</g>
<g id="Layer_13">
</g>
<g id="Layer_14">
</g>
<g id="Layer_15">
</g>
<g id="Layer_16">
</g>
<g id="Layer_17">
</g>
<g id="Layer_18">
</g>
<g id="Layer_19">
</g>
<g id="Layer_20">
</g>
<g id="Layer_21">
</g>
<g id="Layer_22">
</g>
<g id="Layer_23">
</g>
<g id="Layer_24">
</g>
<g id="Layer_25">
</g>
</svg>
