<?xml version="1.0" encoding="utf-8"?>
<!-- Generator: Adobe Illustrator 16.0.0, SVG Export Plug-In . SVG Version: 6.00 Build 0)  -->
<!DOCTYPE svg PUBLIC "-//W3C//DTD SVG 1.1//EN" "http://www.w3.org/Graphics/SVG/1.1/DTD/svg11.dtd">
<svg version="1.1" xmlns="http://www.w3.org/2000/svg" xmlns:xlink="http://www.w3.org/1999/xlink" x="0px" y="0px" width="3840px"
	 height="2160px" viewBox="0 0 3840 2160" enable-background="new 0 0 3840 2160" xml:space="preserve">
<g id="Layer_1">
</g>
<g id="Layer_2">
</g>
<g id="Layer_3">
</g>
<g id="Layer_4">
</g>
<g id="Layer_5">
</g>
<g id="Layer_6">
</g>
<g id="Layer_7">
</g>
<g id="Layer_8">
</g>
<g id="Layer_9">
</g>
<g id="Layer_10">
</g>
<g id="Layer_11">
</g>
<g id="Layer_12">
</g>
<g id="Layer_13">
</g>
<g id="Layer_14">
</g>
<g id="Layer_15">
</g>
<g id="Layer_16">
	<g>
		
			<linearGradient id="SVGID_1_" gradientUnits="userSpaceOnUse" x1="-4147.8232" y1="1378.04" x2="-4145.7412" y2="1375.9579" gradientTransform="matrix(294 0 0 -259 1222386.75 358240.25)">
			<stop  offset="0" style="stop-color:#996C4A"/>
			<stop  offset="1" style="stop-color:#9B7953"/>
		</linearGradient>
		<polygon fill="url(#SVGID_1_)" points="3457.729,1689.896 3535.117,1331.216 2936.378,1868.199 		"/>
		
			<linearGradient id="SVGID_2_" gradientUnits="userSpaceOnUse" x1="-4148.54" y1="1377.1904" x2="-4146.4907" y2="1375.1412" gradientTransform="matrix(309 0 0 -182 1284891.75 252307.375)">
			<stop  offset="0" style="stop-color:#B37B43"/>
			<stop  offset="1" style="stop-color:#AD8143"/>
		</linearGradient>
		<polygon fill="url(#SVGID_2_)" points="3565.667,2067.236 3457.729,1689.896 2936.378,1868.199 		"/>
		
			<linearGradient id="SVGID_3_" gradientUnits="userSpaceOnUse" x1="-4155.7231" y1="1378.585" x2="-4153.6763" y2="1376.5378" gradientTransform="matrix(459 0 0 -563 1909482.5 776848.5)">
			<stop  offset="0" style="stop-color:#907D7C"/>
			<stop  offset="1" style="stop-color:#8C8D8E"/>
		</linearGradient>
		<polygon fill="url(#SVGID_3_)" points="2001.607,1453.54 2936.378,1868.199 2614.604,700.934 		"/>
		
			<linearGradient id="SVGID_4_" gradientUnits="userSpaceOnUse" x1="-4131.9624" y1="1378.9209" x2="-4129.9077" y2="1376.866" gradientTransform="matrix(158 0 0 -563 655516.625 776848.5)">
			<stop  offset="0" style="stop-color:#93D1F7"/>
			<stop  offset="1" style="stop-color:#98ACBA"/>
		</linearGradient>
		<polygon fill="url(#SVGID_4_)" points="2614.604,700.934 2936.378,1868.199 2830.477,711.3 		"/>
		
			<linearGradient id="SVGID_5_" gradientUnits="userSpaceOnUse" x1="-4155.1265" y1="1378.9434" x2="-4153.0811" y2="1376.8982" gradientTransform="matrix(424 0 0 -526 1763514.75 725699.5)">
			<stop  offset="0" style="stop-color:#004983"/>
			<stop  offset="1" style="stop-color:#506B83"/>
		</linearGradient>
		<polygon fill="url(#SVGID_5_)" points="1751.113,362.987 2001.607,1453.54 2614.604,700.934 		"/>
		
			<linearGradient id="SVGID_6_" gradientUnits="userSpaceOnUse" x1="-4150.2944" y1="1378.4443" x2="-4148.2471" y2="1376.3971" gradientTransform="matrix(332 0 0 -558 1380680.75 769963.5)">
			<stop  offset="0" style="stop-color:#6F9EC3"/>
			<stop  offset="1" style="stop-color:#808491"/>
		</linearGradient>
		<polygon fill="url(#SVGID_6_)" points="2936.378,1868.199 3506.605,1186.086 2830.477,711.3 		"/>
		
			<linearGradient id="SVGID_7_" gradientUnits="userSpaceOnUse" x1="-4147.8379" y1="1378.2305" x2="-4145.7715" y2="1376.1638" gradientTransform="matrix(294 0 0 -329 1222386.75 454630.25)">
			<stop  offset="0" style="stop-color:#A6754A"/>
			<stop  offset="1" style="stop-color:#979688"/>
		</linearGradient>
		<polygon fill="url(#SVGID_7_)" points="3535.117,1331.216 3506.605,1186.086 2936.378,1868.199 		"/>
		
			<linearGradient id="SVGID_8_" gradientUnits="userSpaceOnUse" x1="-4149.9116" y1="1379.6738" x2="-4147.8569" y2="1377.6189" gradientTransform="matrix(332 0 0 -229 1380680.75 316601.375)">
			<stop  offset="0" style="stop-color:#8CCEF5"/>
			<stop  offset="1" style="stop-color:#8CC8F0"/>
		</linearGradient>
		<polygon fill="url(#SVGID_8_)" points="2830.477,711.3 3506.605,1186.086 3272.404,788.012 		"/>
		
			<linearGradient id="SVGID_9_" gradientUnits="userSpaceOnUse" x1="-4130.229" y1="1378.8203" x2="-4128.1816" y2="1376.7731" gradientTransform="matrix(123 0 0 -228 508768.5625 315311.375)">
			<stop  offset="0" style="stop-color:#4B475C"/>
			<stop  offset="1" style="stop-color:#647793"/>
		</linearGradient>
		<polygon fill="url(#SVGID_9_)" points="1026.107,1072.054 795.979,893.75 775.613,1366.462 		"/>
		
			<linearGradient id="SVGID_10_" gradientUnits="userSpaceOnUse" x1="-4146.9697" y1="1379.9521" x2="-4144.9165" y2="1377.8988" gradientTransform="matrix(230 0 0 -208 954647.625 287629.375)">
			<stop  offset="0" style="stop-color:#986E24"/>
			<stop  offset="1" style="stop-color:#A9B4A7"/>
		</linearGradient>
		<polygon fill="url(#SVGID_10_)" points="1264.381,640.809 795.979,893.75 1026.107,1072.054 		"/>
		
			<linearGradient id="SVGID_11_" gradientUnits="userSpaceOnUse" x1="-4157.3921" y1="1378.7813" x2="-4155.3345" y2="1376.7238" gradientTransform="matrix(479 0 0 -392 1992343.5 541181.25)">
			<stop  offset="0" style="stop-color:#78808D"/>
			<stop  offset="1" style="stop-color:#7A8691"/>
		</linearGradient>
		<polygon fill="url(#SVGID_11_)" points="1026.107,1072.054 2001.607,1453.54 1264.381,640.809 		"/>
		
			<linearGradient id="SVGID_12_" gradientUnits="userSpaceOnUse" x1="-4153.5425" y1="1379.167" x2="-4151.4902" y2="1377.1147" gradientTransform="matrix(362 0 0 -526 1504921.75 725699.5)">
			<stop  offset="0" style="stop-color:#6ABCFC"/>
			<stop  offset="1" style="stop-color:#9DBAD5"/>
		</linearGradient>
		<polygon fill="url(#SVGID_12_)" points="1264.381,640.809 2001.607,1453.54 1751.113,362.987 		"/>
		
			<linearGradient id="SVGID_13_" gradientUnits="userSpaceOnUse" x1="-4154.7939" y1="1378.3721" x2="-4152.7354" y2="1376.3136" gradientTransform="matrix(371 0 0 -338 1542184.75 466977.25)">
			<stop  offset="0" style="stop-color:#906D2A"/>
			<stop  offset="1" style="stop-color:#7FA6A9"/>
		</linearGradient>
		<polygon fill="url(#SVGID_13_)" points="1531.169,1772.828 1026.107,1072.054 775.613,1366.462 		"/>
		
			<linearGradient id="SVGID_14_" gradientUnits="userSpaceOnUse" x1="-4154.8623" y1="1377.8408" x2="-4152.811" y2="1375.7894" gradientTransform="matrix(371 0 0 -289 1542184.75 399597.25)">
			<stop  offset="0" style="stop-color:#2E537E"/>
			<stop  offset="1" style="stop-color:#127BD2"/>
		</linearGradient>
		<polygon fill="url(#SVGID_14_)" points="775.613,1366.462 1132.006,1965.645 1531.169,1772.828 		"/>
		
			<linearGradient id="SVGID_15_" gradientUnits="userSpaceOnUse" x1="-4157.2656" y1="1378.3906" x2="-4155.2163" y2="1376.3412" gradientTransform="matrix(479 0 0 -338 1992343.5 466977.25)">
			<stop  offset="0" style="stop-color:#5E92D5"/>
			<stop  offset="1" style="stop-color:#3E78B7"/>
		</linearGradient>
		<polygon fill="url(#SVGID_15_)" points="1531.169,1772.828 2001.607,1453.54 1026.107,1072.054 		"/>
		
			<linearGradient id="SVGID_16_" gradientUnits="userSpaceOnUse" x1="-4142.7466" y1="1376.3086" x2="-4140.6943" y2="1374.2566" gradientTransform="matrix(196 0 0 -123 813134.625 171045.375)">
			<stop  offset="0" style="stop-color:#0169BF"/>
			<stop  offset="1" style="stop-color:#156FBD"/>
		</linearGradient>
		<polygon fill="url(#SVGID_16_)" points="1132.006,1965.645 1268.455,2027.844 1531.169,1772.828 		"/>
		
			<linearGradient id="SVGID_17_" gradientUnits="userSpaceOnUse" x1="-4148.4458" y1="1376.2822" x2="-4146.3848" y2="1374.2211" gradientTransform="matrix(256 0 0 -144 1063221.625 199983.375)">
			<stop  offset="0" style="stop-color:#1E62A5"/>
			<stop  offset="1" style="stop-color:#3771A2"/>
		</linearGradient>
		<polygon fill="url(#SVGID_17_)" points="1268.455,2027.844 1789.807,2071.383 1531.169,1772.828 		"/>
		
			<linearGradient id="SVGID_18_" gradientUnits="userSpaceOnUse" x1="-4132.6138" y1="1376.8301" x2="-4130.5576" y2="1374.7739" gradientTransform="matrix(145 0 0 -144 600813.625 199983.375)">
			<stop  offset="0" style="stop-color:#526E8A"/>
			<stop  offset="1" style="stop-color:#0171D0"/>
		</linearGradient>
		<polygon fill="url(#SVGID_18_)" points="1789.807,2071.383 1826.465,1812.221 1531.169,1772.828 		"/>
		
			<linearGradient id="SVGID_19_" gradientUnits="userSpaceOnUse" x1="-4145.5845" y1="1377.709" x2="-4143.5425" y2="1375.667" gradientTransform="matrix(231 0 0 -173 959175.625 239791.375)">
			<stop  offset="0" style="stop-color:#037DDE"/>
			<stop  offset="1" style="stop-color:#2D80C5"/>
		</linearGradient>
		<polygon fill="url(#SVGID_19_)" points="1826.465,1812.221 2001.607,1453.54 1531.169,1772.828 		"/>
		
			<linearGradient id="SVGID_20_" gradientUnits="userSpaceOnUse" x1="-4144.7939" y1="1378.9854" x2="-4142.7324" y2="1376.9238" gradientTransform="matrix(197 0 0 -378 816939.625 521918.25)">
			<stop  offset="0" style="stop-color:#A78C64"/>
			<stop  offset="1" style="stop-color:#40414F"/>
		</linearGradient>
		<polygon fill="url(#SVGID_20_)" points="394.781,700.934 584.18,1484.64 795.979,893.75 		"/>
		
			<linearGradient id="SVGID_21_" gradientUnits="userSpaceOnUse" x1="-4150.7261" y1="1377.5146" x2="-4148.6748" y2="1375.4631" gradientTransform="matrix(269 0 0 -338 1117056.75 467176.25)">
			<stop  offset="0" style="stop-color:#487698"/>
			<stop  offset="1" style="stop-color:#044F8F"/>
		</linearGradient>
		<polygon fill="url(#SVGID_21_)" points="584.18,1484.64 666.691,2160.663 718.22,2160.663 721.777,2160.663 1132.006,1965.645 		
			"/>
		
			<linearGradient id="SVGID_22_" gradientUnits="userSpaceOnUse" x1="-4124.2344" y1="1378.832" x2="-4122.1563" y2="1376.7538" gradientTransform="matrix(104 0 0 -285 429501.5 393857.25)">
			<stop  offset="0" style="stop-color:#663D1E"/>
			<stop  offset="1" style="stop-color:#4D3823"/>
		</linearGradient>
		<polygon fill="url(#SVGID_22_)" points="795.979,893.75 584.18,1484.64 775.613,1366.462 		"/>
		
			<linearGradient id="SVGID_23_" gradientUnits="userSpaceOnUse" x1="-4150.377" y1="1378.0352" x2="-4148.3242" y2="1375.9823" gradientTransform="matrix(269 0 0 -289 1117056.75 399597.25)">
			<stop  offset="0" style="stop-color:#181322"/>
			<stop  offset="1" style="stop-color:#072A51"/>
		</linearGradient>
		<polygon fill="url(#SVGID_23_)" points="584.18,1484.64 1132.006,1965.645 775.613,1366.462 		"/>
		
			<linearGradient id="SVGID_24_" gradientUnits="userSpaceOnUse" x1="-4136.3442" y1="1380.3701" x2="-4134.3066" y2="1378.3325" gradientTransform="matrix(179 0 0 -250 743023.625 345289.25)">
			<stop  offset="0" style="stop-color:#36B3FC"/>
			<stop  offset="1" style="stop-color:#2397F7"/>
		</linearGradient>
		<polygon fill="url(#SVGID_24_)" points="2979.145,192.977 2614.604,700.934 2830.477,711.3 		"/>
		
			<linearGradient id="SVGID_25_" gradientUnits="userSpaceOnUse" x1="-4141.5059" y1="1379.8008" x2="-4139.4473" y2="1377.7422" gradientTransform="matrix(217 0 0 -287 901475.625 396275.25)">
			<stop  offset="0" style="stop-color:#35B3FA"/>
			<stop  offset="1" style="stop-color:#2D9AF6"/>
		</linearGradient>
		<polygon fill="url(#SVGID_25_)" points="3272.404,788.012 2979.145,192.977 2830.477,711.3 		"/>
		
			<linearGradient id="SVGID_26_" gradientUnits="userSpaceOnUse" x1="-4150.2104" y1="1380.0449" x2="-4148.1621" y2="1377.9967" gradientTransform="matrix(337 0 0 -287 1401588.75 396275.25)">
			<stop  offset="0" style="stop-color:#44AFF9"/>
			<stop  offset="1" style="stop-color:#007FF5"/>
		</linearGradient>
		<polygon fill="url(#SVGID_26_)" points="3665.455,470.798 2979.145,192.977 3272.404,788.012 		"/>
		
			<linearGradient id="SVGID_27_" gradientUnits="userSpaceOnUse" x1="-4147.8594" y1="1379.5762" x2="-4145.8042" y2="1377.5212" gradientTransform="matrix(211 0 0 -347 875066.625 478853.25)">
			<stop  offset="0" style="stop-color:#0076F1"/>
			<stop  offset="1" style="stop-color:#5D7B63"/>
		</linearGradient>
		<polygon fill="url(#SVGID_27_)" points="0.002,33.652 0.002,68.669 0.002,481.452 0.002,679.981 394.781,700.934 		"/>
		
			<linearGradient id="SVGID_28_" gradientUnits="userSpaceOnUse" x1="-4153.458" y1="1378.8975" x2="-4151.4126" y2="1376.8519" gradientTransform="matrix(306 0 0 -378 1270929.75 521918.25)">
			<stop  offset="0" style="stop-color:#B3915A"/>
			<stop  offset="1" style="stop-color:#665B64"/>
		</linearGradient>
		<polygon fill="url(#SVGID_28_)" points="394.781,700.934 0.002,1183.977 0.002,1195.71 0.002,1247.527 584.18,1484.64 		"/>
		
			<linearGradient id="SVGID_29_" gradientUnits="userSpaceOnUse" x1="-4147.5356" y1="1379.3535" x2="-4145.4976" y2="1377.3154" gradientTransform="matrix(213 0 0 -267 883398.625 368949.25)">
			<stop  offset="0" style="stop-color:#3C4B18"/>
			<stop  offset="1" style="stop-color:#877E4C"/>
		</linearGradient>
		<polygon fill="url(#SVGID_29_)" points="0.002,679.981 0.002,715.687 0.002,726.052 0.002,742.007 0.002,931.31 0.002,946.13 
			0.002,1140.976 0.002,1155.792 0.002,1169.601 0.002,1183.977 394.781,700.934 		"/>
		
			<linearGradient id="SVGID_30_" gradientUnits="userSpaceOnUse" x1="-4153.6904" y1="1378.0205" x2="-4151.6426" y2="1375.9724" gradientTransform="matrix(306 0 0 -268 1270929.75 370594.25)">
			<stop  offset="0" style="stop-color:#8EA6C5"/>
			<stop  offset="1" style="stop-color:#5280AE"/>
		</linearGradient>
		<polygon fill="url(#SVGID_30_)" points="0.002,1247.527 0.002,1770.264 584.18,1484.64 		"/>
		
			<linearGradient id="SVGID_31_" gradientUnits="userSpaceOnUse" x1="-4055.3218" y1="1376.7949" x2="-4053.2695" y2="1374.7428" gradientTransform="matrix(37 0 0 -200 150007.625 277158.375)">
			<stop  offset="0" style="stop-color:#7F95AF"/>
			<stop  offset="1" style="stop-color:#9B7D62"/>
		</linearGradient>
		<polygon fill="url(#SVGID_31_)" points="0.002,1929.575 0.002,2029.866 0.002,2145.043 38.389,2085.896 		"/>
		
			<linearGradient id="SVGID_32_" gradientUnits="userSpaceOnUse" x1="-4138.7754" y1="1377.7012" x2="-4136.71" y2="1375.636" gradientTransform="matrix(153 0 0 -345 633573.625 476822.25)">
			<stop  offset="0" style="stop-color:#074275"/>
			<stop  offset="1" style="stop-color:#617480"/>
		</linearGradient>
		<polygon fill="url(#SVGID_32_)" points="370.532,2160.663 594.849,2160.663 666.691,2160.663 584.18,1484.64 		"/>
		
			<linearGradient id="SVGID_33_" gradientUnits="userSpaceOnUse" x1="-4145.8799" y1="1370.9639" x2="-4143.8232" y2="1368.9072" gradientTransform="matrix(194 0 0 -56 804226.625 78870.375)">
			<stop  offset="0" style="stop-color:#997B5E"/>
			<stop  offset="1" style="stop-color:#93775E"/>
		</linearGradient>
		<polygon fill="url(#SVGID_33_)" points="0.002,2145.043 0.002,2160.663 32.016,2160.663 83.599,2160.663 248.031,2160.663 
			38.389,2085.896 		"/>
		
			<linearGradient id="SVGID_34_" gradientUnits="userSpaceOnUse" x1="-4153.1006" y1="1378.0771" x2="-4151.0464" y2="1376.0231" gradientTransform="matrix(304 0 0 -345 1262597.75 476822.25)">
			<stop  offset="0" style="stop-color:#3CA2F7"/>
			<stop  offset="1" style="stop-color:#3B5B74"/>
		</linearGradient>
		<polygon fill="url(#SVGID_34_)" points="0.002,1770.264 0.002,1824.006 320.719,2160.663 367.406,2160.663 370.532,2160.663 
			584.18,1484.64 		"/>
		
			<linearGradient id="SVGID_35_" gradientUnits="userSpaceOnUse" x1="-4145.8535" y1="1376.5684" x2="-4143.7988" y2="1374.5134" gradientTransform="matrix(193 0 0 -199 800060.625 275780.375)">
			<stop  offset="0" style="stop-color:#7F94AF"/>
			<stop  offset="1" style="stop-color:#96785F"/>
		</linearGradient>
		<polygon fill="url(#SVGID_35_)" points="0.002,1929.575 38.389,2085.896 248.031,2160.663 320.719,2160.663 0.002,1824.006 		"/>
		
			<linearGradient id="SVGID_36_" gradientUnits="userSpaceOnUse" x1="-4150.3989" y1="1375.125" x2="-4148.3306" y2="1373.0569" gradientTransform="matrix(271 0 0 -110 1125432.75 153224.4375)">
			<stop  offset="0" style="stop-color:#97724F"/>
			<stop  offset="1" style="stop-color:#686E6E"/>
		</linearGradient>
		<polygon fill="url(#SVGID_36_)" points="721.777,2160.663 1208.632,2160.663 1132.006,1965.645 		"/>
		
			<linearGradient id="SVGID_37_" gradientUnits="userSpaceOnUse" x1="-4096.2012" y1="1375.291" x2="-4094.1423" y2="1373.2323" gradientTransform="matrix(67 0 0 -110 275591.5938 153224.4375)">
			<stop  offset="0" style="stop-color:#2D5D94"/>
			<stop  offset="1" style="stop-color:#64626D"/>
		</linearGradient>
		<polygon fill="url(#SVGID_37_)" points="1132.006,1965.645 1208.632,2160.663 1230.947,2160.663 1268.455,2027.844 		"/>
		
			<linearGradient id="SVGID_38_" gradientUnits="userSpaceOnUse" x1="-4149.9194" y1="1373.5479" x2="-4147.8745" y2="1371.5032" gradientTransform="matrix(279 0 0 -80 1159039.75 111914.5)">
			<stop  offset="0" style="stop-color:#6F6F77"/>
			<stop  offset="1" style="stop-color:#9F7450"/>
		</linearGradient>
		<polygon fill="url(#SVGID_38_)" points="1268.455,2027.844 1230.947,2160.663 1375.104,2160.663 1789.807,2071.383 		"/>
		
			<linearGradient id="SVGID_39_" gradientUnits="userSpaceOnUse" x1="-4155.8706" y1="1377.7021" x2="-4153.8208" y2="1375.6523" gradientTransform="matrix(459 0 0 -353 1909482.5 487831.25)">
			<stop  offset="0" style="stop-color:#877473"/>
			<stop  offset="1" style="stop-color:#A1714A"/>
		</linearGradient>
		<polygon fill="url(#SVGID_39_)" points="2001.607,1453.54 2273.145,2160.663 2333.656,2160.663 2936.378,1868.199 		"/>
		
			<linearGradient id="SVGID_40_" gradientUnits="userSpaceOnUse" x1="-4157.8735" y1="1371.6016" x2="-4155.8125" y2="1369.5405" gradientTransform="matrix(521 0 0 -59 2167453.5 82997.4063)">
			<stop  offset="0" style="stop-color:#A47643"/>
			<stop  offset="1" style="stop-color:#B07E47"/>
		</linearGradient>
		<polygon fill="url(#SVGID_40_)" points="1375.104,2160.663 1579.172,2160.663 1639.968,2160.663 1793.817,2160.663 
			1951.302,2160.663 2175.675,2160.663 1789.807,2071.383 		"/>
		
			<linearGradient id="SVGID_41_" gradientUnits="userSpaceOnUse" x1="-4146.3955" y1="1376.335" x2="-4144.3398" y2="1374.2794" gradientTransform="matrix(242 0 0 -180 1005139.625 249610.375)">
			<stop  offset="0" style="stop-color:#A0795D"/>
			<stop  offset="1" style="stop-color:#737B7E"/>
		</linearGradient>
		<polygon fill="url(#SVGID_41_)" points="1789.807,2071.383 2175.675,2160.663 2252.394,2160.663 1826.465,1812.221 		"/>
		
			<linearGradient id="SVGID_42_" gradientUnits="userSpaceOnUse" x1="-4144.3721" y1="1377.7861" x2="-4142.313" y2="1375.7269" gradientTransform="matrix(224 0 0 -353 930151.625 487831.25)">
			<stop  offset="0" style="stop-color:#0270CE"/>
			<stop  offset="1" style="stop-color:#6B7A86"/>
		</linearGradient>
		<polygon fill="url(#SVGID_42_)" points="1826.465,1812.221 2252.394,2160.663 2273.145,2160.663 2001.607,1453.54 		"/>
		
			<linearGradient id="SVGID_43_" gradientUnits="userSpaceOnUse" x1="-4151.8398" y1="1376.3125" x2="-4149.7695" y2="1374.2421" gradientTransform="matrix(351 0 0 -156 1459584.75 216565.375)">
			<stop  offset="0" style="stop-color:#B17C3D"/>
			<stop  offset="1" style="stop-color:#AD7338"/>
		</linearGradient>
		<polygon fill="url(#SVGID_43_)" points="2333.656,2160.663 2542.721,2160.663 2687.253,2160.663 2991.622,2160.663 
			2936.378,1868.199 		"/>
		
			<linearGradient id="SVGID_44_" gradientUnits="userSpaceOnUse" x1="-4148.9561" y1="1376.0303" x2="-4146.9053" y2="1373.9797" gradientTransform="matrix(309 0 0 -156 1284891.75 216565.375)">
			<stop  offset="0" style="stop-color:#AC743B"/>
			<stop  offset="1" style="stop-color:#B78436"/>
		</linearGradient>
		<polygon fill="url(#SVGID_44_)" points="2936.378,1868.199 2991.622,2160.663 3138.934,2160.663 3565.667,2067.236 		"/>
		
			<linearGradient id="SVGID_45_" gradientUnits="userSpaceOnUse" x1="-4153.4883" y1="1371.8105" x2="-4151.4243" y2="1369.7466" gradientTransform="matrix(421 0 0 -60 1751625.75 84373.4063)">
			<stop  offset="0" style="stop-color:#C78D35"/>
			<stop  offset="1" style="stop-color:#C3913A"/>
		</linearGradient>
		<polygon fill="url(#SVGID_45_)" points="3138.934,2160.663 3247.88,2160.663 3410.818,2160.663 3435.02,2160.663 
			3725.12,2160.663 3782.855,2160.663 3565.667,2067.236 		"/>
		
			<linearGradient id="SVGID_46_" gradientUnits="userSpaceOnUse" x1="-4137.1479" y1="1377.8779" x2="-4135.1025" y2="1375.8323" gradientTransform="matrix(197 0 0 -173 818443.625 239732.375)">
			<stop  offset="0" style="stop-color:#A67E51"/>
			<stop  offset="1" style="stop-color:#B68D5B"/>
		</linearGradient>
		<polygon fill="url(#SVGID_46_)" points="3457.729,1689.896 3840,1439.01 3840,1421.014 3535.117,1331.216 		"/>
		
			<linearGradient id="SVGID_47_" gradientUnits="userSpaceOnUse" x1="-4136.8896" y1="1377.9541" x2="-4134.8276" y2="1375.8923" gradientTransform="matrix(197 0 0 -309 818443.625 427186.25)">
			<stop  offset="0" style="stop-color:#A07A50"/>
			<stop  offset="1" style="stop-color:#B2894F"/>
		</linearGradient>
		<polygon fill="url(#SVGID_47_)" points="3565.667,2067.236 3840,1467.935 3840,1439.01 3457.729,1689.896 		"/>
		
			<linearGradient id="SVGID_48_" gradientUnits="userSpaceOnUse" x1="-4132.9478" y1="1378.4385" x2="-4130.8931" y2="1376.3835" gradientTransform="matrix(173 0 0 -116 718459.625 161116.4375)">
			<stop  offset="0" style="stop-color:#889DA8"/>
			<stop  offset="1" style="stop-color:#AE8A5F"/>
		</linearGradient>
		<polygon fill="url(#SVGID_48_)" points="3535.117,1331.216 3840,1421.014 3840,1413.668 3506.605,1186.086 		"/>
		
			<linearGradient id="SVGID_49_" gradientUnits="userSpaceOnUse" x1="-4125.5288" y1="1377.8857" x2="-4123.4873" y2="1375.844" gradientTransform="matrix(144 0 0 -369 597645.625 509866.25)">
			<stop  offset="0" style="stop-color:#B68842"/>
			<stop  offset="1" style="stop-color:#C3954B"/>
		</linearGradient>
		<polygon fill="url(#SVGID_49_)" points="3782.855,2160.663 3830.778,2160.663 3840,2160.663 3840,2132.882 3840,1467.935 
			3565.667,2067.236 		"/>
		
			<linearGradient id="SVGID_50_" gradientUnits="userSpaceOnUse" x1="-4146.7617" y1="1379.6699" x2="-4144.6987" y2="1377.6071" gradientTransform="matrix(290 0 0 -194 1205883.75 268406.375)">
			<stop  offset="0" style="stop-color:#9FD3F3"/>
			<stop  offset="1" style="stop-color:#8DC8EF"/>
		</linearGradient>
		<polygon fill="url(#SVGID_50_)" points="3506.605,1186.086 3840,809.824 3840,784.027 3272.404,788.012 		"/>
		
			<linearGradient id="SVGID_51_" gradientUnits="userSpaceOnUse" x1="-4147.123" y1="1380.7871" x2="-4145.0591" y2="1378.723" gradientTransform="matrix(290 0 0 -153 1205883.75 211757.375)">
			<stop  offset="0" style="stop-color:#62C1F5"/>
			<stop  offset="1" style="stop-color:#40AEF4"/>
		</linearGradient>
		<polygon fill="url(#SVGID_51_)" points="3272.404,788.012 3840,784.027 3840,747.414 3665.455,470.798 		"/>
		
			<linearGradient id="SVGID_52_" gradientUnits="userSpaceOnUse" x1="-4132.9297" y1="1379.0605" x2="-4130.8833" y2="1377.0139" gradientTransform="matrix(175 0 0 -310 726793.625 428254.25)">
			<stop  offset="0" style="stop-color:#9DCCED"/>
			<stop  offset="1" style="stop-color:#AFC1C1"/>
		</linearGradient>
		<polygon fill="url(#SVGID_52_)" points="3506.605,1186.086 3840,1413.668 3840,1334.696 3840,1296.64 3840,1274.466 
			3840,1263.284 3840,1036.819 3840,809.824 		"/>
		
			<linearGradient id="SVGID_53_" gradientUnits="userSpaceOnUse" x1="-4153.6167" y1="1381.2402" x2="-4151.5645" y2="1379.1882" gradientTransform="matrix(432 0 0 -236 1797453.5 325895.375)">
			<stop  offset="0" style="stop-color:#0061ED"/>
			<stop  offset="1" style="stop-color:#0165E4"/>
		</linearGradient>
		<polygon fill="url(#SVGID_53_)" points="3665.455,470.798 3840,29.367 3840,14.923 3840,0.858 3778.392,0.858 2979.145,192.977 		
			"/>
		
			<linearGradient id="SVGID_54_" gradientUnits="userSpaceOnUse" x1="-4104.8389" y1="1379.9189" x2="-4102.792" y2="1377.8721" gradientTransform="matrix(97 0 0 -387 401845.5 533973.25)">
			<stop  offset="0" style="stop-color:#0185F2"/>
			<stop  offset="1" style="stop-color:#2D84E7"/>
		</linearGradient>
		<polygon fill="url(#SVGID_54_)" points="3840,747.414 3840,625.259 3840,577.106 3840,522.759 3840,469.595 3840,413.315 
			3840,407.251 3840,402.583 3840,29.367 3665.455,470.798 		"/>
		
			<linearGradient id="SVGID_55_" gradientUnits="userSpaceOnUse" x1="-4147.9092" y1="1380.0576" x2="-4145.8457" y2="1377.9941" gradientTransform="matrix(282 0 0 -347 1172121.75 478853.25)">
			<stop  offset="0" style="stop-color:#359EFA"/>
			<stop  offset="1" style="stop-color:#0060ED"/>
		</linearGradient>
		<polygon fill="url(#SVGID_55_)" points="2979.145,192.977 2457.413,0.858 2410.486,0.858 2614.604,700.934 		"/>
		
			<linearGradient id="SVGID_56_" gradientUnits="userSpaceOnUse" x1="-4159.3525" y1="1385.0361" x2="-4157.2896" y2="1382.9731" gradientTransform="matrix(714 0 0 -102 2972265 141243.4375)">
			<stop  offset="0" style="stop-color:#0058E7"/>
			<stop  offset="1" style="stop-color:#0149DA"/>
		</linearGradient>
		<polygon fill="url(#SVGID_56_)" points="3778.392,0.858 3768.443,0.858 3765.43,0.858 2878.78,0.858 2839.03,0.858 2701.93,0.858 
			2688.896,0.858 2626.618,0.858 2571.589,0.858 2541.87,0.858 2457.413,0.858 2979.145,192.977 		"/>
		
			<linearGradient id="SVGID_57_" gradientUnits="userSpaceOnUse" x1="-4154.9961" y1="1380.1289" x2="-4152.9478" y2="1378.0807" gradientTransform="matrix(424 0 0 -347 1763514.75 478853.25)">
			<stop  offset="0" style="stop-color:#008CFD"/>
			<stop  offset="1" style="stop-color:#2388F3"/>
		</linearGradient>
		<polygon fill="url(#SVGID_57_)" points="2614.604,700.934 2410.486,0.858 2371.669,0.858 1751.113,362.987 		"/>
		
			<linearGradient id="SVGID_58_" gradientUnits="userSpaceOnUse" x1="-4154.2456" y1="1379.6807" x2="-4152.1992" y2="1377.6343" gradientTransform="matrix(344 0 0 -439 1429488.75 605630.5)">
			<stop  offset="0" style="stop-color:#7EA793"/>
			<stop  offset="1" style="stop-color:#216BB5"/>
		</linearGradient>
		<polygon fill="url(#SVGID_58_)" points="795.979,893.75 1089.664,0.858 1078.47,0.858 394.781,700.934 		"/>
		
			<linearGradient id="SVGID_59_" gradientUnits="userSpaceOnUse" x1="-4147.3862" y1="1379.415" x2="-4145.3252" y2="1377.354" gradientTransform="matrix(230 0 0 -439 954647.625 605630.5)">
			<stop  offset="0" style="stop-color:#2A779B"/>
			<stop  offset="1" style="stop-color:#339AF6"/>
		</linearGradient>
		<polygon fill="url(#SVGID_59_)" points="1264.381,640.809 1099.795,0.858 1089.664,0.858 795.979,893.75 		"/>
		
			<linearGradient id="SVGID_60_" gradientUnits="userSpaceOnUse" x1="-4152.5488" y1="1380.0449" x2="-4150.499" y2="1377.9949" gradientTransform="matrix(322 0 0 -317 1338158.75 437514.25)">
			<stop  offset="0" style="stop-color:#40ABFD"/>
			<stop  offset="1" style="stop-color:#0079F6"/>
		</linearGradient>
		<polygon fill="url(#SVGID_60_)" points="1751.113,362.987 1125.224,0.858 1099.795,0.858 1264.381,640.809 		"/>
		
			<linearGradient id="SVGID_61_" gradientUnits="userSpaceOnUse" x1="-4159.3555" y1="1380.1953" x2="-4157.292" y2="1378.1321" gradientTransform="matrix(553 0 0 -347 2300182.5 478853.25)">
			<stop  offset="0" style="stop-color:#0062F0"/>
			<stop  offset="1" style="stop-color:#4675AE"/>
		</linearGradient>
		<polygon fill="url(#SVGID_61_)" points="1078.47,0.858 683.252,0.858 668.827,0.858 631.493,0.858 265.544,0.858 107.75,0.858 
			0.002,0.858 0.002,3.397 0.002,33.652 394.781,700.934 		"/>
		
			<linearGradient id="SVGID_62_" gradientUnits="userSpaceOnUse" x1="-4159.4673" y1="1382.043" x2="-4157.4063" y2="1379.9819" gradientTransform="matrix(643 0 0 -184 2675765 254239.375)">
			<stop  offset="0" style="stop-color:#0079F8"/>
			<stop  offset="1" style="stop-color:#0054E9"/>
		</linearGradient>
		<polygon fill="url(#SVGID_62_)" points="2371.669,0.858 2166.951,0.858 2141.385,0.858 1794.433,0.858 1705.535,0.858 
			1661.586,0.858 1628.897,0.858 1573.278,0.858 1359.989,0.858 1212.013,0.858 1125.224,0.858 1751.113,362.987 		"/>
	</g>
</g>
<g id="Layer_17">
</g>
<g id="Layer_18">
</g>
<g id="Layer_19">
</g>
<g id="Layer_20">
</g>
<g id="Layer_21">
</g>
<g id="Layer_22">
</g>
<g id="Layer_23">
</g>
<g id="Layer_24">
</g>
<g id="Layer_25">
</g>
</svg>
