<?xml version="1.0" encoding="utf-8"?>
<!-- Generator: Adobe Illustrator 16.0.0, SVG Export Plug-In . SVG Version: 6.00 Build 0)  -->
<!DOCTYPE svg PUBLIC "-//W3C//DTD SVG 1.1//EN" "http://www.w3.org/Graphics/SVG/1.1/DTD/svg11.dtd">
<svg version="1.1" xmlns="http://www.w3.org/2000/svg" xmlns:xlink="http://www.w3.org/1999/xlink" x="0px" y="0px" width="3840px"
	 height="2160px" viewBox="0 0 3840 2160" enable-background="new 0 0 3840 2160" xml:space="preserve">
<g id="Layer_1">
</g>
<g id="Layer_2">
</g>
<g id="Layer_3">
</g>
<g id="Layer_4">
</g>
<g id="Layer_5">
</g>
<g id="Layer_6">
</g>
<g id="Layer_7">
</g>
<g id="Layer_8">
</g>
<g id="Layer_9">
</g>
<g id="Layer_10">
</g>
<g id="Layer_11">
</g>
<g id="Layer_12">
</g>
<g id="Layer_13">
</g>
<g id="Layer_14">
</g>
<g id="Layer_15">
</g>
<g id="Layer_16">
</g>
<g id="Layer_17">
	<g>
		
			<linearGradient id="SVGID_1_" gradientUnits="userSpaceOnUse" x1="7372.4063" y1="-819.0234" x2="7374.2979" y2="-820.9149" gradientTransform="matrix(178 0 0 -106 -1311919.375 -86085.5625)">
			<stop  offset="0" style="stop-color:#2D2A2D"/>
			<stop  offset="1" style="stop-color:#2A282D"/>
		</linearGradient>
		<polygon fill="url(#SVGID_1_)" points="708.683,745.319 345.461,773.24 408.719,942.622 		"/>
		
			<linearGradient id="SVGID_2_" gradientUnits="userSpaceOnUse" x1="7381.4785" y1="-806.7607" x2="7383.3691" y2="-808.6514" gradientTransform="matrix(197 0 0 -304 -1451789.375 -245269.75)">
			<stop  offset="0" style="stop-color:#151515"/>
			<stop  offset="1" style="stop-color:#0E0E0E"/>
		</linearGradient>
		<polygon fill="url(#SVGID_2_)" points="2398.275,588.967 2741.091,23.118 2339.098,162.719 		"/>
		
			<linearGradient id="SVGID_3_" gradientUnits="userSpaceOnUse" x1="7179.0215" y1="-822.2627" x2="7180.9727" y2="-824.2137" gradientTransform="matrix(31 0 0 -91 -222208.3594 -74040.5)">
			<stop  offset="0" style="stop-color:#242426"/>
			<stop  offset="1" style="stop-color:#1F1E23"/>
		</linearGradient>
		<polygon fill="url(#SVGID_3_)" points="345.461,773.24 365.867,897.95 408.719,942.622 		"/>
		
			<linearGradient id="SVGID_4_" gradientUnits="userSpaceOnUse" x1="7386.0684" y1="-809.7402" x2="7388.0107" y2="-811.6827" gradientTransform="matrix(237 0 0 -238 -1748550.375 -191805.625)">
			<stop  offset="0" style="stop-color:#60494A"/>
			<stop  offset="1" style="stop-color:#4B5264"/>
		</linearGradient>
		<polygon fill="url(#SVGID_4_)" points="2247.273,1456.354 2330.936,1054.303 1847.321,1013.354 		"/>
		
			<linearGradient id="SVGID_5_" gradientUnits="userSpaceOnUse" x1="7388.999" y1="-808.8262" x2="7391.0234" y2="-810.8505" gradientTransform="matrix(270 0 0 -250 -1993179.25 -201657.75)">
			<stop  offset="0" style="stop-color:#3D4558"/>
			<stop  offset="1" style="stop-color:#363C4A"/>
		</linearGradient>
		<polygon fill="url(#SVGID_5_)" points="2330.936,1054.303 2398.275,588.967 1847.321,1013.354 		"/>
		
			<linearGradient id="SVGID_6_" gradientUnits="userSpaceOnUse" x1="7394.7002" y1="-812.332" x2="7396.6606" y2="-814.2927" gradientTransform="matrix(371 0 0 -170 -2742263.25 -137439.625)">
			<stop  offset="0" style="stop-color:#6F6975"/>
			<stop  offset="1" style="stop-color:#7C7E90"/>
		</linearGradient>
		<polygon fill="url(#SVGID_6_)" points="1561.641,696.925 1090.27,758.349 1847.321,1013.354 		"/>
		
			<linearGradient id="SVGID_7_" gradientUnits="userSpaceOnUse" x1="7397.0435" y1="-809.4355" x2="7398.9609" y2="-811.3532" gradientTransform="matrix(410 0 0 -228 -3031139.25 -184013.625)">
			<stop  offset="0" style="stop-color:#767685"/>
			<stop  offset="1" style="stop-color:#4D505C"/>
		</linearGradient>
		<polygon fill="url(#SVGID_7_)" points="2398.275,588.967 1561.641,696.925 1847.321,1013.354 		"/>
		
			<linearGradient id="SVGID_8_" gradientUnits="userSpaceOnUse" x1="7382.3843" y1="-807.7412" x2="7384.3374" y2="-809.6946" gradientTransform="matrix(241 0 0 -289 -1779001.375 -233125.75)">
			<stop  offset="0" style="stop-color:#292929"/>
			<stop  offset="1" style="stop-color:#242424"/>
		</linearGradient>
		<polygon fill="url(#SVGID_8_)" points="216.906,235.312 345.461,773.24 708.683,745.319 		"/>
		
			<linearGradient id="SVGID_9_" gradientUnits="userSpaceOnUse" x1="7381.5869" y1="-813.5137" x2="7383.5288" y2="-815.4553" gradientTransform="matrix(204 0 0 -200 -1503782.375 -160996.625)">
			<stop  offset="0" style="stop-color:#060606"/>
			<stop  offset="1" style="stop-color:#79696B"/>
		</linearGradient>
		<polygon fill="url(#SVGID_9_)" points="2130.96,2005.45 2547.236,1990.56 2222.786,1633.181 		"/>
		
			<linearGradient id="SVGID_10_" gradientUnits="userSpaceOnUse" x1="7379.7988" y1="-806.4785" x2="7381.75" y2="-808.4295" gradientTransform="matrix(191 0 0 -309 -1407473.375 -249284.75)">
			<stop  offset="0" style="stop-color:#101010"/>
			<stop  offset="1" style="stop-color:#121212"/>
		</linearGradient>
		<polygon fill="url(#SVGID_10_)" points="2339.098,162.719 2008.526,13.812 2398.275,588.967 		"/>
		
			<linearGradient id="SVGID_11_" gradientUnits="userSpaceOnUse" x1="7395.4146" y1="-820.2588" x2="7397.3315" y2="-822.1759" gradientTransform="matrix(359 0 0 -80 -2652857.25 -65626.5)">
			<stop  offset="0" style="stop-color:#0E0E0E"/>
			<stop  offset="1" style="stop-color:#0D0D0D"/>
		</linearGradient>
		<polygon fill="url(#SVGID_11_)" points="2741.091,23.118 2008.526,13.812 2339.098,162.719 		"/>
		
			<linearGradient id="SVGID_12_" gradientUnits="userSpaceOnUse" x1="7396.6699" y1="-806.2578" x2="7398.5952" y2="-808.183" gradientTransform="matrix(410 0 0 -367 -3031139.25 -295800.75)">
			<stop  offset="0" style="stop-color:#4D4D55"/>
			<stop  offset="1" style="stop-color:#141414"/>
		</linearGradient>
		<polygon fill="url(#SVGID_12_)" points="2398.275,588.967 2008.526,13.812 1561.641,696.925 		"/>
		
			<linearGradient id="SVGID_13_" gradientUnits="userSpaceOnUse" x1="7356.8799" y1="-824.0547" x2="7358.8066" y2="-825.9813" gradientTransform="matrix(131 0 0 -86 -963608.375 -69963.5)">
			<stop  offset="0" style="stop-color:#282730"/>
			<stop  offset="1" style="stop-color:#43414A"/>
		</linearGradient>
		<polygon fill="url(#SVGID_13_)" points="365.867,897.95 141.404,1058.025 408.719,942.622 		"/>
		
			<linearGradient id="SVGID_14_" gradientUnits="userSpaceOnUse" x1="7357.3076" y1="-805.8496" x2="7359.2598" y2="-807.8018" gradientTransform="matrix(131 0 0 -444 -963608.375 -357055.5)">
			<stop  offset="0" style="stop-color:#453F46"/>
			<stop  offset="1" style="stop-color:#5B555D"/>
		</linearGradient>
		<polygon fill="url(#SVGID_14_)" points="141.404,1058.025 378.111,1769.06 408.719,942.622 		"/>
		
			<linearGradient id="SVGID_15_" gradientUnits="userSpaceOnUse" x1="7401.3213" y1="-809.3916" x2="7403.271" y2="-811.3414" gradientTransform="matrix(553 0 0 -250 -4090821.5 -201657.75)">
			<stop  offset="0" style="stop-color:#3D4050"/>
			<stop  offset="1" style="stop-color:#1E202A"/>
		</linearGradient>
		<polygon fill="url(#SVGID_15_)" points="2330.936,1054.303 3459.371,1037.551 2398.275,588.967 		"/>
		
			<linearGradient id="SVGID_16_" gradientUnits="userSpaceOnUse" x1="7400.9961" y1="-804.8359" x2="7402.9297" y2="-806.7697" gradientTransform="matrix(520 0 0 -545 -3846159.5 -438551.5)">
			<stop  offset="0" style="stop-color:#191919"/>
			<stop  offset="1" style="stop-color:#16181E"/>
		</linearGradient>
		<polygon fill="url(#SVGID_16_)" points="3459.371,1037.551 2741.091,23.118 2398.275,588.967 		"/>
		
			<linearGradient id="SVGID_17_" gradientUnits="userSpaceOnUse" x1="7395.0781" y1="-805.2158" x2="7397.0244" y2="-807.1622" gradientTransform="matrix(401 0 0 -411 -2965081.25 -331106.5)">
			<stop  offset="0" style="stop-color:#151515"/>
			<stop  offset="1" style="stop-color:#1F1F1F"/>
		</linearGradient>
		<polygon fill="url(#SVGID_17_)" points="708.683,745.319 1026.403,0.858 969.227,0.858 216.906,235.312 		"/>
		
			<linearGradient id="SVGID_18_" gradientUnits="userSpaceOnUse" x1="7375.2603" y1="-805.6035" x2="7377.144" y2="-807.4875" gradientTransform="matrix(187 0 0 -418 -1378458.375 -336720.5)">
			<stop  offset="0" style="stop-color:#2B2B2B"/>
			<stop  offset="1" style="stop-color:#2C2A2D"/>
		</linearGradient>
		<polygon fill="url(#SVGID_18_)" points="1090.27,758.349 1036.629,0.858 1026.403,0.858 708.683,745.319 		"/>
		
			<linearGradient id="SVGID_19_" gradientUnits="userSpaceOnUse" x1="7385.9351" y1="-805.835" x2="7387.8896" y2="-807.7896" gradientTransform="matrix(258 0 0 -418 -1904621.375 -336720.5)">
			<stop  offset="0" style="stop-color:#383438"/>
			<stop  offset="1" style="stop-color:#3B3B40"/>
		</linearGradient>
		<polygon fill="url(#SVGID_19_)" points="1561.641,696.925 1050.272,0.858 1036.629,0.858 1090.27,758.349 		"/>
		
			<linearGradient id="SVGID_20_" gradientUnits="userSpaceOnUse" x1="7398.8384" y1="-805.5068" x2="7400.7627" y2="-807.4311" gradientTransform="matrix(477 0 0 -385 -3528068.5 -310254.75)">
			<stop  offset="0" style="stop-color:#4B4B53"/>
			<stop  offset="1" style="stop-color:#101010"/>
		</linearGradient>
		<polygon fill="url(#SVGID_20_)" points="2008.526,13.812 1632.224,0.858 1628.897,0.858 1573.278,0.858 1359.989,0.858 
			1212.013,0.858 1050.272,0.858 1561.641,696.925 		"/>
		
			<linearGradient id="SVGID_21_" gradientUnits="userSpaceOnUse" x1="7398.7471" y1="-812.21" x2="7400.6416" y2="-814.1045" gradientTransform="matrix(519 0 0 -142 -3839933.5 -115373.625)">
			<stop  offset="0" style="stop-color:#0E0E0E"/>
			<stop  offset="1" style="stop-color:#111111"/>
		</linearGradient>
		<polygon fill="url(#SVGID_21_)" points="969.227,0.858 683.251,0.858 668.827,0.858 631.493,0.858 265.544,0.858 107.749,0.858 
			3.319,0.858 216.906,235.312 		"/>
		
			<linearGradient id="SVGID_22_" gradientUnits="userSpaceOnUse" x1="7405.6235" y1="-854.4307" x2="7407.6079" y2="-856.4151" gradientTransform="matrix(913 0 0 -28 -6759660 -23945.6406)">
			<stop  offset="0" style="stop-color:#0C0C0C"/>
			<stop  offset="1" style="stop-color:#0B0B0B"/>
		</linearGradient>
		<polygon fill="url(#SVGID_22_)" points="2741.091,23.118 3223.919,0.858 2878.78,0.858 2839.03,0.858 2701.929,0.858 
			2688.896,0.858 2626.618,0.858 2572.21,0.858 2008.526,13.812 		"/>
		
			<linearGradient id="SVGID_23_" gradientUnits="userSpaceOnUse" x1="7402.46" y1="-804.2061" x2="7404.3931" y2="-806.1392" gradientTransform="matrix(554 0 0 -573 -4098033.5 -461035.5)">
			<stop  offset="0" style="stop-color:#0E0E0E"/>
			<stop  offset="1" style="stop-color:#13151B"/>
		</linearGradient>
		<polygon fill="url(#SVGID_23_)" points="3459.371,1037.551 3839.999,52.68 3839.999,14.923 3839.999,0.858 3768.443,0.858 
			3765.43,0.858 3223.919,0.858 2741.091,23.118 		"/>
		
			<linearGradient id="SVGID_24_" gradientUnits="userSpaceOnUse" x1="7407.6943" y1="-865.8389" x2="7409.6104" y2="-867.7548" gradientTransform="matrix(1390 0 0 -23 -10296137 -19935.6406)">
			<stop  offset="0" style="stop-color:#0F0F0F"/>
			<stop  offset="1" style="stop-color:#0C0C0C"/>
		</linearGradient>
		<polygon fill="url(#SVGID_24_)" points="2541.87,0.858 2166.951,0.858 2141.385,0.858 1794.433,0.858 1705.535,0.858 
			1661.585,0.858 1632.224,0.858 2008.526,13.812 2572.21,0.858 2571.589,0.858 		"/>
		
			<linearGradient id="SVGID_25_" gradientUnits="userSpaceOnUse" x1="7384.1675" y1="-821.4434" x2="7386.1704" y2="-823.4462" gradientTransform="matrix(197 0 0 -101 -1451240.375 -81918.5625)">
			<stop  offset="0" style="stop-color:#363C4C"/>
			<stop  offset="1" style="stop-color:#2D3039"/>
		</linearGradient>
		<polygon fill="url(#SVGID_25_)" points="3463.452,1225.547 3839.999,1095.202 3839.999,1085.136 3459.371,1037.551 		"/>
		
			<linearGradient id="SVGID_26_" gradientUnits="userSpaceOnUse" x1="7384.8857" y1="-804.3594" x2="7386.9185" y2="-806.3921" gradientTransform="matrix(202 0 0 -600 -1488305.375 -482689)">
			<stop  offset="0" style="stop-color:#20232C"/>
			<stop  offset="1" style="stop-color:#1C1D21"/>
		</linearGradient>
		<polygon fill="url(#SVGID_26_)" points="3839.999,1085.136 3839.999,1036.819 3839.999,625.259 3839.999,577.106 
			3839.999,522.759 3839.999,469.595 3839.999,413.315 3839.999,407.252 3839.999,402.584 3839.999,52.68 3459.371,1037.551 		"/>
		
			<linearGradient id="SVGID_27_" gradientUnits="userSpaceOnUse" x1="7384.2632" y1="-811.6191" x2="7386.2139" y2="-813.5696" gradientTransform="matrix(195 0 0 -199 -1436412.375 -160487.625)">
			<stop  offset="0" style="stop-color:#272932"/>
			<stop  offset="1" style="stop-color:#555C6E"/>
		</linearGradient>
		<polygon fill="url(#SVGID_27_)" points="3710.361,1458.215 3839.999,1140.213 3839.999,1095.202 3463.452,1225.547 		"/>
		
			<linearGradient id="SVGID_28_" gradientUnits="userSpaceOnUse" x1="7342.1064" y1="-808.0527" x2="7344.0977" y2="-810.0442" gradientTransform="matrix(78 0 0 -320 -568970.5 -257529.75)">
			<stop  offset="0" style="stop-color:#9BA8BF"/>
			<stop  offset="1" style="stop-color:#677083"/>
		</linearGradient>
		<polygon fill="url(#SVGID_28_)" points="3839.999,1641.656 3839.999,1334.696 3839.999,1296.64 3839.999,1274.466 
			3839.999,1263.284 3839.999,1140.213 3710.361,1458.215 		"/>
		
			<linearGradient id="SVGID_29_" gradientUnits="userSpaceOnUse" x1="7382.2212" y1="-824.957" x2="7384.1406" y2="-826.8763" gradientTransform="matrix(204 0 0 -103 -1503782.375 -83010.5625)">
			<stop  offset="0" style="stop-color:#070707"/>
			<stop  offset="1" style="stop-color:#757D8E"/>
		</linearGradient>
		<polygon fill="url(#SVGID_29_)" points="2130.96,2005.45 2292.163,2160.663 2340.838,2160.663 2547.236,1990.56 		"/>
		
			<linearGradient id="SVGID_30_" gradientUnits="userSpaceOnUse" x1="7380.0967" y1="-825.3643" x2="7382.0103" y2="-827.2779" gradientTransform="matrix(190 0 0 -103 -1399910.375 -83010.5625)">
			<stop  offset="0" style="stop-color:#AFBCD5"/>
			<stop  offset="1" style="stop-color:#747A8C"/>
		</linearGradient>
		<polygon fill="url(#SVGID_30_)" points="2340.838,2160.663 2542.721,2160.663 2687.253,2160.663 2688.964,2160.663 
			2547.236,1990.56 		"/>
		
			<linearGradient id="SVGID_31_" gradientUnits="userSpaceOnUse" x1="7397.5557" y1="-826.7607" x2="7399.4487" y2="-828.6536" gradientTransform="matrix(430 0 0 -97 -3179460.5 -78190.5)">
			<stop  offset="0" style="stop-color:#525866"/>
			<stop  offset="1" style="stop-color:#96A1B9"/>
		</linearGradient>
		<polygon fill="url(#SVGID_31_)" points="1534.528,2160.663 1579.172,2160.663 1639.968,2160.663 1793.817,2160.663 
			1951.302,2160.663 2292.163,2160.663 2130.96,2005.45 		"/>
		
			<linearGradient id="SVGID_32_" gradientUnits="userSpaceOnUse" x1="7395.7261" y1="-821.6182" x2="7397.7368" y2="-823.6291" gradientTransform="matrix(389 0 0 -121 -2875576.25 -97462.5625)">
			<stop  offset="0" style="stop-color:#727D94"/>
			<stop  offset="1" style="stop-color:#5C6373"/>
		</linearGradient>
		<polygon fill="url(#SVGID_32_)" points="1337.178,1960.777 1425.918,2160.663 1534.528,2160.663 2130.96,2005.45 		"/>
		
			<linearGradient id="SVGID_33_" gradientUnits="userSpaceOnUse" x1="7384.4043" y1="-812.5664" x2="7386.3535" y2="-814.5154" gradientTransform="matrix(255 0 0 -221 -1882715.375 -177765.625)">
			<stop  offset="0" style="stop-color:#0C0E13"/>
			<stop  offset="1" style="stop-color:#101216"/>
		</linearGradient>
		<polygon fill="url(#SVGID_33_)" points="355.664,1975.668 825.81,2160.663 852.101,2160.663 378.111,1769.06 		"/>
		
			<linearGradient id="SVGID_34_" gradientUnits="userSpaceOnUse" x1="7387.73" y1="-821.6992" x2="7389.6187" y2="-823.5877" gradientTransform="matrix(275 0 0 -121 -2030720.25 -97462.5625)">
			<stop  offset="0" style="stop-color:#6D788E"/>
			<stop  offset="1" style="stop-color:#585F6E"/>
		</linearGradient>
		<polygon fill="url(#SVGID_34_)" points="917.484,2160.663 1425.918,2160.663 1337.178,1960.777 		"/>
		
			<linearGradient id="SVGID_35_" gradientUnits="userSpaceOnUse" x1="7391.8286" y1="-823.793" x2="7393.7656" y2="-825.7301" gradientTransform="matrix(351 0 0 -111 -2594459.25 -89434.5625)">
			<stop  offset="0" style="stop-color:#353A45"/>
			<stop  offset="1" style="stop-color:#444B5A"/>
		</linearGradient>
		<polygon fill="url(#SVGID_35_)" points="180.263,2160.663 367.406,2160.663 594.849,2160.663 718.22,2160.663 825.81,2160.663 
			355.664,1975.668 		"/>
		
			<linearGradient id="SVGID_36_" gradientUnits="userSpaceOnUse" x1="7373.0693" y1="-823.2852" x2="7375.1069" y2="-825.3226" gradientTransform="matrix(186 0 0 -111 -1371404.375 -89434.5625)">
			<stop  offset="0" style="stop-color:#353A45"/>
			<stop  offset="1" style="stop-color:#21252B"/>
		</linearGradient>
		<polygon fill="url(#SVGID_36_)" points="12.735,2160.663 32.016,2160.663 83.599,2160.663 180.263,2160.663 355.664,1975.668 		
			"/>
		
			<linearGradient id="SVGID_37_" gradientUnits="userSpaceOnUse" x1="7376.4419" y1="-811.96" x2="7378.3901" y2="-813.9084" gradientTransform="matrix(202 0 0 -215 -1490017.375 -173057.625)">
			<stop  offset="0" style="stop-color:#0B0B0D"/>
			<stop  offset="1" style="stop-color:#615842"/>
		</linearGradient>
		<polygon fill="url(#SVGID_37_)" points="378.111,1769.06 0.001,1591.487 0.001,1610.479 355.664,1975.668 		"/>
		
			<linearGradient id="SVGID_38_" gradientUnits="userSpaceOnUse" x1="7373.8301" y1="-808.9814" x2="7375.7993" y2="-810.9506" gradientTransform="matrix(191 0 0 -325 -1408474.375 -261277.75)">
			<stop  offset="0" style="stop-color:#323943"/>
			<stop  offset="1" style="stop-color:#5A513B"/>
		</linearGradient>
		<polygon fill="url(#SVGID_38_)" points="0.001,1610.479 0.001,2029.866 0.001,2160.663 12.735,2160.663 355.664,1975.668 		"/>
		
			<linearGradient id="SVGID_39_" gradientUnits="userSpaceOnUse" x1="7376.0884" y1="-807.2549" x2="7378.0151" y2="-809.1816" gradientTransform="matrix(202 0 0 -382 -1490017.375 -307269.75)">
			<stop  offset="0" style="stop-color:#857D85"/>
			<stop  offset="1" style="stop-color:#897D69"/>
		</linearGradient>
		<polygon fill="url(#SVGID_39_)" points="141.404,1058.025 0.001,1474.974 0.001,1591.487 378.111,1769.06 		"/>
		
			<linearGradient id="SVGID_40_" gradientUnits="userSpaceOnUse" x1="7372.7368" y1="-806.7646" x2="7374.6494" y2="-808.6774" gradientTransform="matrix(185 0 0 -341 -1363995.375 -274829.75)">
			<stop  offset="0" style="stop-color:#1A1A1A"/>
			<stop  offset="1" style="stop-color:#282828"/>
		</linearGradient>
		<polygon fill="url(#SVGID_40_)" points="216.906,235.312 0.001,788.328 0.001,861.813 345.461,773.24 		"/>
		
			<linearGradient id="SVGID_41_" gradientUnits="userSpaceOnUse" x1="7374.936" y1="-829.127" x2="7376.9438" y2="-831.1348" gradientTransform="matrix(195 0 0 -67 -1438125.375 -54792.5)">
			<stop  offset="0" style="stop-color:#2F2F2F"/>
			<stop  offset="1" style="stop-color:#2B2A2B"/>
		</linearGradient>
		<polygon fill="url(#SVGID_41_)" points="345.461,773.24 0.001,861.813 0.001,872.277 365.867,897.95 		"/>
		
			<linearGradient id="SVGID_42_" gradientUnits="userSpaceOnUse" x1="7326.5439" y1="-806.8662" x2="7328.5464" y2="-808.8687" gradientTransform="matrix(86 0 0 -379 -630109.5 -304964.75)">
			<stop  offset="0" style="stop-color:#A69C82"/>
			<stop  offset="1" style="stop-color:#54545C"/>
		</linearGradient>
		<polygon fill="url(#SVGID_42_)" points="0.001,904.762 0.001,931.31 0.001,946.13 0.001,1140.976 0.001,1155.793 0.001,1169.601 
			0.001,1195.71 0.001,1474.974 141.404,1058.025 		"/>
		
			<linearGradient id="SVGID_43_" gradientUnits="userSpaceOnUse" x1="7352.02" y1="-805.0078" x2="7354.019" y2="-807.0066" gradientTransform="matrix(122 0 0 -483 -896976.4375 -388855.5)">
			<stop  offset="0" style="stop-color:#101010"/>
			<stop  offset="1" style="stop-color:#1B1B1B"/>
		</linearGradient>
		<polygon fill="url(#SVGID_43_)" points="3.319,0.858 0.001,0.858 0.001,3.397 0.001,68.669 0.001,481.452 0.001,715.687 
			0.001,726.052 0.001,742.007 0.001,788.328 216.906,235.312 		"/>
		
			<linearGradient id="SVGID_44_" gradientUnits="userSpaceOnUse" x1="7375.0356" y1="-820.3818" x2="7376.9517" y2="-822.2976" gradientTransform="matrix(195 0 0 -101 -1438125.375 -82008.5625)">
			<stop  offset="0" style="stop-color:#4F494E"/>
			<stop  offset="1" style="stop-color:#242225"/>
		</linearGradient>
		<polygon fill="url(#SVGID_44_)" points="365.867,897.95 0.001,872.277 0.001,904.762 141.404,1058.025 		"/>
		
			<linearGradient id="SVGID_45_" gradientUnits="userSpaceOnUse" x1="7386.248" y1="-806.5645" x2="7388.2148" y2="-808.5315" gradientTransform="matrix(273 0 0 -444 -2016138.25 -357055.5)">
			<stop  offset="0" style="stop-color:#464A55"/>
			<stop  offset="1" style="stop-color:#6B5B63"/>
		</linearGradient>
		<polygon fill="url(#SVGID_45_)" points="378.111,1769.06 935.186,1486.135 408.719,942.622 		"/>
		
			<linearGradient id="SVGID_46_" gradientUnits="userSpaceOnUse" x1="7386.8057" y1="-807.4531" x2="7388.7749" y2="-809.4222" gradientTransform="matrix(273 0 0 -373 -2016138.25 -299821.75)">
			<stop  offset="0" style="stop-color:#0D0D0E"/>
			<stop  offset="1" style="stop-color:#3D2B29"/>
		</linearGradient>
		<polygon fill="url(#SVGID_46_)" points="378.111,1769.06 852.101,2160.663 877.693,2160.663 935.186,1486.135 		"/>
		
			<linearGradient id="SVGID_47_" gradientUnits="userSpaceOnUse" x1="7385.1807" y1="-806.3887" x2="7387.1455" y2="-808.3534" gradientTransform="matrix(258 0 0 -398 -1904928.375 -320269.5)">
			<stop  offset="0" style="stop-color:#322D36"/>
			<stop  offset="1" style="stop-color:#634D4F"/>
		</linearGradient>
		<polygon fill="url(#SVGID_47_)" points="408.719,942.622 935.186,1486.135 708.683,745.319 		"/>
		
			<linearGradient id="SVGID_48_" gradientUnits="userSpaceOnUse" x1="7375.564" y1="-806.2305" x2="7377.4922" y2="-808.1586" gradientTransform="matrix(187 0 0 -398 -1378458.375 -320269.5)">
			<stop  offset="0" style="stop-color:#8A9099"/>
			<stop  offset="1" style="stop-color:#A08F96"/>
		</linearGradient>
		<polygon fill="url(#SVGID_48_)" points="708.683,745.319 935.186,1486.135 1090.27,758.349 		"/>
		
			<linearGradient id="SVGID_49_" gradientUnits="userSpaceOnUse" x1="7381.8667" y1="-808.0596" x2="7383.8286" y2="-810.0213" gradientTransform="matrix(226 0 0 -373 -1667483.375 -299821.75)">
			<stop  offset="0" style="stop-color:#0A0B0E"/>
			<stop  offset="1" style="stop-color:#5D4F56"/>
		</linearGradient>
		<polygon fill="url(#SVGID_49_)" points="935.186,1486.135 877.693,2160.663 917.484,2160.663 1337.178,1960.777 		"/>
		
			<linearGradient id="SVGID_50_" gradientUnits="userSpaceOnUse" x1="7358.0024" y1="-810.9482" x2="7359.9316" y2="-812.8776" gradientTransform="matrix(116 0 0 -238 -851509.4375 -191510.625)">
			<stop  offset="0" style="stop-color:#5A5F6C"/>
			<stop  offset="1" style="stop-color:#7F6B6C"/>
		</linearGradient>
		<polygon fill="url(#SVGID_50_)" points="1986.08,1562.45 2130.96,2005.45 2222.786,1633.181 		"/>
		
			<linearGradient id="SVGID_51_" gradientUnits="userSpaceOnUse" x1="7363.0962" y1="-824.3408" x2="7365.082" y2="-826.3264" gradientTransform="matrix(128 0 0 -95 -940465.4375 -76881.5)">
			<stop  offset="0" style="stop-color:#77493B"/>
			<stop  offset="1" style="stop-color:#53342F"/>
		</linearGradient>
		<polygon fill="url(#SVGID_51_)" points="1986.08,1562.45 2222.786,1633.181 2247.273,1456.354 		"/>
		
			<linearGradient id="SVGID_52_" gradientUnits="userSpaceOnUse" x1="7395.7246" y1="-811.2959" x2="7397.6138" y2="-813.1849" gradientTransform="matrix(389 0 0 -238 -2875576.25 -191510.625)">
			<stop  offset="0" style="stop-color:#626C84"/>
			<stop  offset="1" style="stop-color:#313039"/>
		</linearGradient>
		<polygon fill="url(#SVGID_52_)" points="1337.178,1960.777 2130.96,2005.45 1986.08,1562.45 		"/>
		
			<linearGradient id="SVGID_53_" gradientUnits="userSpaceOnUse" x1="7379.7686" y1="-808.7402" x2="7381.729" y2="-810.7007" gradientTransform="matrix(196 0 0 -295 -1444617.375 -237519.75)">
			<stop  offset="0" style="stop-color:#3D414E"/>
			<stop  offset="1" style="stop-color:#46312F"/>
		</linearGradient>
		<polygon fill="url(#SVGID_53_)" points="1847.321,1013.354 1986.08,1562.45 2247.273,1456.354 		"/>
		
			<linearGradient id="SVGID_54_" gradientUnits="userSpaceOnUse" x1="7393.4756" y1="-824.5947" x2="7395.5049" y2="-826.6242" gradientTransform="matrix(322 0 0 -95 -2378471.25 -76881.5)">
			<stop  offset="0" style="stop-color:#D78D5E"/>
			<stop  offset="1" style="stop-color:#B07356"/>
		</linearGradient>
		<polygon fill="url(#SVGID_54_)" points="2222.786,1633.181 2879.849,1467.521 2247.273,1456.354 		"/>
		
			<linearGradient id="SVGID_55_" gradientUnits="userSpaceOnUse" x1="7393.7441" y1="-809.3555" x2="7395.6807" y2="-811.2921" gradientTransform="matrix(322 0 0 -281 -2378471.25 -226047.75)">
			<stop  offset="0" style="stop-color:#674944"/>
			<stop  offset="1" style="stop-color:#6E646E"/>
		</linearGradient>
		<polygon fill="url(#SVGID_55_)" points="2222.786,1633.181 2547.236,1990.56 2879.849,1467.521 		"/>
		
			<linearGradient id="SVGID_56_" gradientUnits="userSpaceOnUse" x1="7392.3638" y1="-811.2305" x2="7394.3086" y2="-813.1751" gradientTransform="matrix(310 0 0 -222 -2289503.25 -178951.625)">
			<stop  offset="0" style="stop-color:#A16155"/>
			<stop  offset="1" style="stop-color:#7D5555"/>
		</linearGradient>
		<polygon fill="url(#SVGID_56_)" points="2879.849,1467.521 2330.936,1054.303 2247.273,1456.354 		"/>
		
			<linearGradient id="SVGID_57_" gradientUnits="userSpaceOnUse" x1="7402.0142" y1="-810.1641" x2="7403.9355" y2="-812.0856" gradientTransform="matrix(553 0 0 -231 -4090821.5 -186178.625)">
			<stop  offset="0" style="stop-color:#3B3C47"/>
			<stop  offset="1" style="stop-color:#3C2D32"/>
		</linearGradient>
		<polygon fill="url(#SVGID_57_)" points="2879.849,1467.521 3459.371,1037.551 2330.936,1054.303 		"/>
		
			<linearGradient id="SVGID_58_" gradientUnits="userSpaceOnUse" x1="7392.0352" y1="-810.2383" x2="7394.2705" y2="-812.4738" gradientTransform="matrix(286 0 0 -231 -2111281.25 -186178.625)">
			<stop  offset="0" style="stop-color:#1B1C25"/>
			<stop  offset="1" style="stop-color:#362423"/>
		</linearGradient>
		<polygon fill="url(#SVGID_58_)" points="3463.452,1225.547 3459.371,1037.551 2879.849,1467.521 		"/>
		
			<linearGradient id="SVGID_59_" gradientUnits="userSpaceOnUse" x1="7377.1958" y1="-806.1377" x2="7379.125" y2="-808.0669" gradientTransform="matrix(195 0 0 -465 -1437651.375 -373996.5)">
			<stop  offset="0" style="stop-color:#654544"/>
			<stop  offset="1" style="stop-color:#624B4A"/>
		</linearGradient>
		<polygon fill="url(#SVGID_59_)" points="1090.27,758.349 935.186,1486.135 1333.097,1623.875 		"/>
		
			<linearGradient id="SVGID_60_" gradientUnits="userSpaceOnUse" x1="7378.0981" y1="-810.1074" x2="7380.0493" y2="-812.0583" gradientTransform="matrix(197 0 0 -255 -1452477.375 -205185.75)">
			<stop  offset="0" style="stop-color:#CE8E81"/>
			<stop  offset="1" style="stop-color:#AA837F"/>
		</linearGradient>
		<polygon fill="url(#SVGID_60_)" points="935.186,1486.135 1337.178,1960.777 1333.097,1623.875 		"/>
		
			<linearGradient id="SVGID_61_" gradientUnits="userSpaceOnUse" x1="7394.5557" y1="-805.8535" x2="7396.5156" y2="-807.8137" gradientTransform="matrix(371 0 0 -465 -2742263.25 -373996.5)">
			<stop  offset="0" style="stop-color:#48454E"/>
			<stop  offset="1" style="stop-color:#73646C"/>
		</linearGradient>
		<polygon fill="url(#SVGID_61_)" points="1847.321,1013.354 1090.27,758.349 1333.097,1623.875 		"/>
		
			<linearGradient id="SVGID_62_" gradientUnits="userSpaceOnUse" x1="7391.9521" y1="-812.2051" x2="7394.0103" y2="-814.263" gradientTransform="matrix(320 0 0 -214 -2364081.25 -172262.625)">
			<stop  offset="0" style="stop-color:#8F8691"/>
			<stop  offset="1" style="stop-color:#896A67"/>
		</linearGradient>
		<polygon fill="url(#SVGID_62_)" points="1333.097,1623.875 1337.178,1960.777 1986.08,1562.45 		"/>
		
			<linearGradient id="SVGID_63_" gradientUnits="userSpaceOnUse" x1="7391.915" y1="-808.0439" x2="7393.8105" y2="-809.9395" gradientTransform="matrix(320 0 0 -328 -2364081.25 -263985.75)">
			<stop  offset="0" style="stop-color:#3E434F"/>
			<stop  offset="1" style="stop-color:#503A36"/>
		</linearGradient>
		<polygon fill="url(#SVGID_63_)" points="1333.097,1623.875 1986.08,1562.45 1847.321,1013.354 		"/>
		
			<linearGradient id="SVGID_64_" gradientUnits="userSpaceOnUse" x1="7398.0137" y1="-813.3818" x2="7399.9238" y2="-815.292" gradientTransform="matrix(405 0 0 -200 -2993591.25 -160904.625)">
			<stop  offset="0" style="stop-color:#656C79"/>
			<stop  offset="1" style="stop-color:#464A54"/>
		</linearGradient>
		<polygon fill="url(#SVGID_64_)" points="2547.236,1990.56 2688.964,2160.663 2731.229,2160.663 3373.667,1804.425 		"/>
		
			<linearGradient id="SVGID_65_" gradientUnits="userSpaceOnUse" x1="7397.6357" y1="-809.9365" x2="7399.5835" y2="-811.8841" gradientTransform="matrix(405 0 0 -281 -2993591.25 -226047.75)">
			<stop  offset="0" style="stop-color:#A4B3CC"/>
			<stop  offset="1" style="stop-color:#938D9C"/>
		</linearGradient>
		<polygon fill="url(#SVGID_65_)" points="2547.236,1990.56 3373.667,1804.425 2879.849,1467.521 		"/>
		
			<linearGradient id="SVGID_66_" gradientUnits="userSpaceOnUse" x1="7402.2891" y1="-813.7197" x2="7404.2041" y2="-815.6346" gradientTransform="matrix(570 0 0 -200 -4216660.5 -160904.625)">
			<stop  offset="0" style="stop-color:#5A5E6D"/>
			<stop  offset="1" style="stop-color:#A0ABC6"/>
		</linearGradient>
		<polygon fill="url(#SVGID_66_)" points="2731.229,2160.663 3247.88,2160.663 3410.818,2160.663 3435.02,2160.663 
			3725.12,2160.663 3830.778,2160.663 3839.999,2160.663 3839.999,2155.666 3373.667,1804.425 		"/>
		
			<linearGradient id="SVGID_67_" gradientUnits="userSpaceOnUse" x1="7392.4658" y1="-808.2256" x2="7394.4331" y2="-810.1931" gradientTransform="matrix(286 0 0 -311 -2111281.25 -250237.75)">
			<stop  offset="0" style="stop-color:#806F76"/>
			<stop  offset="1" style="stop-color:#6E7685"/>
		</linearGradient>
		<polygon fill="url(#SVGID_67_)" points="3373.667,1804.425 3463.452,1225.547 2879.849,1467.521 		"/>
		
			<linearGradient id="SVGID_68_" gradientUnits="userSpaceOnUse" x1="7378.29" y1="-808.7139" x2="7380.2671" y2="-810.6909" gradientTransform="matrix(165 0 0 -311 -1214066.375 -250237.75)">
			<stop  offset="0" style="stop-color:#595F6C"/>
			<stop  offset="1" style="stop-color:#A3B0C9"/>
		</linearGradient>
		<polygon fill="url(#SVGID_68_)" points="3710.361,1458.215 3463.452,1225.547 3373.667,1804.425 		"/>
		
			<linearGradient id="SVGID_69_" gradientUnits="userSpaceOnUse" x1="7389.4438" y1="-813.7129" x2="7391.3643" y2="-815.6334" gradientTransform="matrix(243 0 0 -186 -1792280.375 -149862.625)">
			<stop  offset="0" style="stop-color:#717B8C"/>
			<stop  offset="1" style="stop-color:#778295"/>
		</linearGradient>
		<polygon fill="url(#SVGID_69_)" points="3373.667,1804.425 3839.999,1690.642 3839.999,1641.656 3710.361,1458.215 		"/>
		
			<linearGradient id="SVGID_70_" gradientUnits="userSpaceOnUse" x1="7389.8677" y1="-810.1641" x2="7391.8306" y2="-812.1272" gradientTransform="matrix(243 0 0 -264 -1792280.375 -212297.75)">
			<stop  offset="0" style="stop-color:#818397"/>
			<stop  offset="1" style="stop-color:#878CA0"/>
		</linearGradient>
		<polygon fill="url(#SVGID_70_)" points="3839.999,2155.666 3839.999,2132.882 3839.999,1690.642 3373.667,1804.425 		"/>
	</g>
</g>
<g id="Layer_18">
</g>
<g id="Layer_19">
</g>
<g id="Layer_20">
</g>
<g id="Layer_21">
</g>
<g id="Layer_22">
</g>
<g id="Layer_23">
</g>
<g id="Layer_24">
</g>
<g id="Layer_25">
</g>
</svg>
