<?xml version="1.0" encoding="utf-8"?>
<!-- Generator: Adobe Illustrator 16.0.0, SVG Export Plug-In . SVG Version: 6.00 Build 0)  -->
<!DOCTYPE svg PUBLIC "-//W3C//DTD SVG 1.1//EN" "http://www.w3.org/Graphics/SVG/1.1/DTD/svg11.dtd">
<svg version="1.1" xmlns="http://www.w3.org/2000/svg" xmlns:xlink="http://www.w3.org/1999/xlink" x="0px" y="0px" width="3840px"
	 height="2160.002px" viewBox="0 0 3840 2160.002" enable-background="new 0 0 3840 2160.002" xml:space="preserve">
<g id="Layer_1">
</g>
<g id="Layer_2">
</g>
<g id="Layer_3">
</g>
<g id="Layer_4">
</g>
<g id="Layer_5">
</g>
<g id="Layer_6">
</g>
<g id="Layer_7">
</g>
<g id="Layer_8">
</g>
<g id="Layer_9">
</g>
<g id="Layer_10">
</g>
<g id="Layer_11">
</g>
<g id="Layer_12">
</g>
<g id="Layer_13">
</g>
<g id="Layer_14">
</g>
<g id="Layer_15">
</g>
<g id="Layer_16">
</g>
<g id="Layer_17">
</g>
<g id="Layer_18">
</g>
<g id="Layer_19">
</g>
<g id="Layer_20">
</g>
<g id="Layer_21">
</g>
<g id="Layer_22">
</g>
<g id="Layer_23">
</g>
<g id="Layer_24">
	<g>
		
			<linearGradient id="SVGID_1_" gradientUnits="userSpaceOnUse" x1="-4126.9194" y1="-3008.876" x2="-4123.1226" y2="-3012.6729" gradientTransform="matrix(132 0 0 -163 546265.625 -489428.625)">
			<stop  offset="0" style="stop-color:#7D9C11"/>
			<stop  offset="1" style="stop-color:#70730F"/>
		</linearGradient>
		<polygon fill="url(#SVGID_1_)" points="1575.223,1574.648 2024.578,1171.611 1508.794,1022.59 		"/>
		
			<linearGradient id="SVGID_2_" gradientUnits="userSpaceOnUse" x1="-4116.5176" y1="-3008.0977" x2="-4112.8013" y2="-3011.814" gradientTransform="matrix(126 0 0 -174 521611.5625 -522119.625)">
			<stop  offset="0" style="stop-color:#A78C0E"/>
			<stop  offset="1" style="stop-color:#A9430B"/>
		</linearGradient>
		<polygon fill="url(#SVGID_2_)" points="3360.934,1987.846 3329.672,1398.531 2868.59,1645.773 		"/>
		
			<linearGradient id="SVGID_3_" gradientUnits="userSpaceOnUse" x1="-4088.4229" y1="-3009.2217" x2="-4084.7546" y2="-3012.8899" gradientTransform="matrix(84 0 0 -174 346715.5 -522119.625)">
			<stop  offset="0" style="stop-color:#B73505"/>
			<stop  offset="1" style="stop-color:#8B1903"/>
		</linearGradient>
		<polygon fill="url(#SVGID_3_)" points="3657.898,1899.787 3329.672,1398.531 3360.934,1987.846 		"/>
		
			<linearGradient id="SVGID_4_" gradientUnits="userSpaceOnUse" x1="-4078.7075" y1="-3055.9707" x2="-4075.0193" y2="-3059.6589" gradientTransform="matrix(76 0 0 -67 313387.5 -202897.5)">
			<stop  offset="0" style="stop-color:#6C1504"/>
			<stop  offset="1" style="stop-color:#801402"/>
		</linearGradient>
		<polygon fill="url(#SVGID_4_)" points="3611.012,2126.709 3657.898,1899.787 3360.934,1987.846 		"/>
		
			<linearGradient id="SVGID_5_" gradientUnits="userSpaceOnUse" x1="-4128.5894" y1="-3045.7246" x2="-4124.915" y2="-3049.3987" gradientTransform="matrix(109 0 0 -66 450052.5625 -200257.5)">
			<stop  offset="0" style="stop-color:#BE4006"/>
			<stop  offset="1" style="stop-color:#CC2C08"/>
		</linearGradient>
		<polygon fill="url(#SVGID_5_)" points="258.406,741.479 55.215,965.012 481.129,836.311 		"/>
		
			<linearGradient id="SVGID_6_" gradientUnits="userSpaceOnUse" x1="-4139.8887" y1="-3011.502" x2="-4136.3052" y2="-3015.0852" gradientTransform="matrix(224 0 0 -148 929845.625 -444662.625)">
			<stop  offset="0" style="stop-color:#E8AB0F"/>
			<stop  offset="1" style="stop-color:#D79E13"/>
		</linearGradient>
		<polygon fill="url(#SVGID_6_)" points="2868.59,1645.773 3228.078,1144.516 2352.805,1158.064 		"/>
		
			<linearGradient id="SVGID_7_" gradientUnits="userSpaceOnUse" x1="-4140.5142" y1="-3017.2412" x2="-4136.8901" y2="-3020.8652" gradientTransform="matrix(224 0 0 -119 929845.625 -358299.5625)">
			<stop  offset="0" style="stop-color:#ECB415"/>
			<stop  offset="1" style="stop-color:#A58622"/>
		</linearGradient>
		<polygon fill="url(#SVGID_7_)" points="3228.078,1144.516 3157.746,755.027 2352.805,1158.064 		"/>
		
			<linearGradient id="SVGID_8_" gradientUnits="userSpaceOnUse" x1="-4113.5615" y1="-3012.4365" x2="-4110.0171" y2="-3015.9812" gradientTransform="matrix(118 0 0 -148 488275.5625 -444662.625)">
			<stop  offset="0" style="stop-color:#C7B00D"/>
			<stop  offset="1" style="stop-color:#D08819"/>
		</linearGradient>
		<polygon fill="url(#SVGID_8_)" points="3329.672,1398.531 3228.078,1144.516 2868.59,1645.773 		"/>
		
			<linearGradient id="SVGID_9_" gradientUnits="userSpaceOnUse" x1="-4141.02" y1="-2994.1162" x2="-4137.3125" y2="-2997.8237" gradientTransform="matrix(223 0 0 -316 925661.625 -945950.75)">
			<stop  offset="0" style="stop-color:#E7AF1B"/>
			<stop  offset="1" style="stop-color:#9E8735"/>
		</linearGradient>
		<polygon fill="url(#SVGID_9_)" points="2352.805,1158.064 3157.746,755.027 2286.379,87.814 		"/>
		
			<linearGradient id="SVGID_10_" gradientUnits="userSpaceOnUse" x1="-4147.1807" y1="-2996.8916" x2="-4143.5542" y2="-3000.5181" gradientTransform="matrix(308 0 0 -232 1279856.75 -695497.625)">
			<stop  offset="0" style="stop-color:#1B4A27"/>
			<stop  offset="1" style="stop-color:#877A31"/>
		</linearGradient>
		<polygon fill="url(#SVGID_10_)" points="3157.746,755.027 3476.528,0.858 3169.21,0.858 2286.379,87.814 		"/>
		
			<linearGradient id="SVGID_11_" gradientUnits="userSpaceOnUse" x1="-4147.665" y1="-3008.5186" x2="-4143.8291" y2="-3012.3545" gradientTransform="matrix(240 0 0 -163 996078.625 -489428.625)">
			<stop  offset="0" style="stop-color:#A2911E"/>
			<stop  offset="1" style="stop-color:#9B6312"/>
		</linearGradient>
		<polygon fill="url(#SVGID_11_)" points="637.43,1486.59 1575.223,1574.648 1508.794,1022.59 		"/>
		
			<linearGradient id="SVGID_12_" gradientUnits="userSpaceOnUse" x1="-4146.1768" y1="-3009.6064" x2="-4142.3291" y2="-3013.4541" gradientTransform="matrix(223 0 0 -157 925239.625 -471556.625)">
			<stop  offset="0" style="stop-color:#B15612"/>
			<stop  offset="1" style="stop-color:#B27724"/>
		</linearGradient>
		<polygon fill="url(#SVGID_12_)" points="656.965,954.852 637.43,1486.59 1508.794,1022.59 		"/>
		
			<linearGradient id="SVGID_13_" gradientUnits="userSpaceOnUse" x1="-4139.7061" y1="-3094.2422" x2="-4136.1938" y2="-3097.7544" gradientTransform="matrix(154 0 0 -38 637567.625 -116733.625)">
			<stop  offset="0" style="stop-color:#A56908"/>
			<stop  offset="1" style="stop-color:#B65816"/>
		</linearGradient>
		<polygon fill="url(#SVGID_13_)" points="481.129,836.311 55.215,965.012 656.965,954.852 		"/>
		
			<linearGradient id="SVGID_14_" gradientUnits="userSpaceOnUse" x1="-4139.3857" y1="-3009.1426" x2="-4135.9175" y2="-3012.6108" gradientTransform="matrix(154 0 0 -158 637567.625 -474538.625)">
			<stop  offset="0" style="stop-color:#8E5604"/>
			<stop  offset="1" style="stop-color:#9D6B22"/>
		</linearGradient>
		<polygon fill="url(#SVGID_14_)" points="55.215,965.012 164.626,1489.977 656.965,954.852 		"/>
		
			<linearGradient id="SVGID_15_" gradientUnits="userSpaceOnUse" x1="-4145.5566" y1="-3008.8408" x2="-4142.0518" y2="-3012.3457" gradientTransform="matrix(218 0 0 -151 904409.625 -453795.625)">
			<stop  offset="0" style="stop-color:#BA843C"/>
			<stop  offset="1" style="stop-color:#AE7C2B"/>
		</linearGradient>
		<polygon fill="url(#SVGID_15_)" points="1508.794,1022.59 1258.715,511.172 656.965,954.852 		"/>
		
			<linearGradient id="SVGID_16_" gradientUnits="userSpaceOnUse" x1="-4133.1079" y1="-3009.0596" x2="-4129.1973" y2="-3012.9705" gradientTransform="matrix(126 0 0 -158 520919.5625 -474538.625)">
			<stop  offset="0" style="stop-color:#957224"/>
			<stop  offset="1" style="stop-color:#925A19"/>
		</linearGradient>
		<polygon fill="url(#SVGID_16_)" points="164.626,1489.977 637.43,1486.59 656.965,954.852 		"/>
		
			<linearGradient id="SVGID_17_" gradientUnits="userSpaceOnUse" x1="-4066.564" y1="-3042.6348" x2="-4062.9648" y2="-3046.2339" gradientTransform="matrix(45 0 0 -69 183473.625 -209209.5)">
			<stop  offset="0" style="stop-color:#8A3208"/>
			<stop  offset="1" style="stop-color:#8B4721"/>
		</linearGradient>
		<polygon fill="url(#SVGID_17_)" points="656.965,954.852 535.836,721.158 481.129,836.311 		"/>
		
			<linearGradient id="SVGID_18_" gradientUnits="userSpaceOnUse" x1="-4142.0703" y1="-3012.4004" x2="-4138.5576" y2="-3015.9128" gradientTransform="matrix(185 0 0 -131 766867.625 -394155.625)">
			<stop  offset="0" style="stop-color:#B35632"/>
			<stop  offset="1" style="stop-color:#AF6333"/>
		</linearGradient>
		<polygon fill="url(#SVGID_18_)" points="1258.715,511.172 535.836,721.158 656.965,954.852 		"/>
		
			<linearGradient id="SVGID_19_" gradientUnits="userSpaceOnUse" x1="-4104.8306" y1="-3103.8809" x2="-4101.187" y2="-3107.5247" gradientTransform="matrix(71 0 0 -34 291758.625 -104839.625)">
			<stop  offset="0" style="stop-color:#CF320A"/>
			<stop  offset="1" style="stop-color:#C83412"/>
		</linearGradient>
		<polygon fill="url(#SVGID_19_)" points="535.836,721.158 258.406,741.479 481.129,836.311 		"/>
		
			<linearGradient id="SVGID_20_" gradientUnits="userSpaceOnUse" x1="-4137.2847" y1="-3006.4893" x2="-4133.6323" y2="-3010.1416" gradientTransform="matrix(139 0 0 -157 575046.625 -471776.625)">
			<stop  offset="0" style="stop-color:#C94812"/>
			<stop  offset="1" style="stop-color:#C13F17"/>
		</linearGradient>
		<polygon fill="url(#SVGID_20_)" points="535.836,721.158 0.002,216.615 0.002,224.353 258.406,741.479 		"/>
		
			<linearGradient id="SVGID_21_" gradientUnits="userSpaceOnUse" x1="-4045.2231" y1="-3054.1094" x2="-4041.6072" y2="-3057.7253" gradientTransform="matrix(56 0 0 -70 230111.625 -211843.5)">
			<stop  offset="0" style="stop-color:#470904"/>
			<stop  offset="1" style="stop-color:#3C0402"/>
		</linearGradient>
		<polygon fill="url(#SVGID_21_)" points="3829.828,2136.869 3657.898,1899.787 3611.012,2126.709 		"/>
		
			<linearGradient id="SVGID_22_" gradientUnits="userSpaceOnUse" x1="-4142.5166" y1="-3009.0537" x2="-4138.8677" y2="-3012.7026" gradientTransform="matrix(205 0 0 -151 850392.625 -453795.625)">
			<stop  offset="0" style="stop-color:#A9A726"/>
			<stop  offset="1" style="stop-color:#8A9613"/>
		</linearGradient>
		<polygon fill="url(#SVGID_22_)" points="2059.746,1015.816 1258.715,511.172 1508.794,1022.59 		"/>
		
			<linearGradient id="SVGID_23_" gradientUnits="userSpaceOnUse" x1="-4147.084" y1="-2994.9395" x2="-4143.3906" y2="-2998.6331" gradientTransform="matrix(263 0 0 -274 1092078.625 -820706.75)">
			<stop  offset="0" style="stop-color:#B9B337"/>
			<stop  offset="1" style="stop-color:#AA9F34"/>
		</linearGradient>
		<polygon fill="url(#SVGID_23_)" points="2286.379,87.814 1258.715,511.172 2059.746,1015.816 		"/>
		
			<linearGradient id="SVGID_24_" gradientUnits="userSpaceOnUse" x1="-4128.5674" y1="-3076.2803" x2="-4124.9229" y2="-3079.9248" gradientTransform="matrix(141 0 0 -46 583768.625 -140536.5938)">
			<stop  offset="0" style="stop-color:#C0BA19"/>
			<stop  offset="1" style="stop-color:#8F8B16"/>
		</linearGradient>
		<polygon fill="url(#SVGID_24_)" points="1508.794,1022.59 2024.578,1171.611 2059.746,1015.816 		"/>
		
			<linearGradient id="SVGID_25_" gradientUnits="userSpaceOnUse" x1="-4100.1157" y1="-3077.8828" x2="-4096.4717" y2="-3081.5271" gradientTransform="matrix(84 0 0 -46 346381.5 -140536.5938)">
			<stop  offset="0" style="stop-color:#959817"/>
			<stop  offset="1" style="stop-color:#B3A516"/>
		</linearGradient>
		<polygon fill="url(#SVGID_25_)" points="2024.578,1171.611 2352.805,1158.064 2059.746,1015.816 		"/>
		
			<linearGradient id="SVGID_26_" gradientUnits="userSpaceOnUse" x1="-4090.9224" y1="-2993.8643" x2="-4087.3699" y2="-2997.4167" gradientTransform="matrix(75 0 0 -316 308887.5 -945950.75)">
			<stop  offset="0" style="stop-color:#DEAC3F"/>
			<stop  offset="1" style="stop-color:#BC9D1A"/>
		</linearGradient>
		<polygon fill="url(#SVGID_26_)" points="2059.746,1015.816 2352.805,1158.064 2286.379,87.814 		"/>
		
			<linearGradient id="SVGID_27_" gradientUnits="userSpaceOnUse" x1="-4142.8115" y1="-2998.7295" x2="-4139.1279" y2="-3002.4128" gradientTransform="matrix(185 0 0 -224 766867.625 -671643.625)">
			<stop  offset="0" style="stop-color:#5D3B19"/>
			<stop  offset="1" style="stop-color:#5A7034"/>
		</linearGradient>
		<polygon fill="url(#SVGID_27_)" points="1258.715,511.172 615.446,0.858 565.514,0.858 535.836,721.158 		"/>
		
			<linearGradient id="SVGID_28_" gradientUnits="userSpaceOnUse" x1="-4140.9512" y1="-3003.6094" x2="-4137.3076" y2="-3007.2529" gradientTransform="matrix(182 0 0 -162 754374.625 -486759.625)">
			<stop  offset="0" style="stop-color:#919D54"/>
			<stop  offset="1" style="stop-color:#799773"/>
		</linearGradient>
		<polygon fill="url(#SVGID_28_)" points="1278.254,50.559 876.877,0.858 683.252,0.858 668.827,0.858 631.493,0.858 615.446,0.858 
			1258.715,511.172 		"/>
		
			<linearGradient id="SVGID_29_" gradientUnits="userSpaceOnUse" x1="-4139.4468" y1="-3031.9336" x2="-4135.5972" y2="-3035.7832" gradientTransform="matrix(150 0 0 -73 620880.625 -221361.5)">
			<stop  offset="0" style="stop-color:#E26708"/>
			<stop  offset="1" style="stop-color:#9F5320"/>
		</linearGradient>
		<polygon fill="url(#SVGID_29_)" points="265.544,0.858 107.75,0.858 0.002,0.858 0.002,3.397 0.002,68.669 0.002,206.598 
			477.979,0.858 		"/>
		
			<linearGradient id="SVGID_30_" gradientUnits="userSpaceOnUse" x1="-4138.0957" y1="-2997.5313" x2="-4134.4048" y2="-3001.2222" gradientTransform="matrix(147 0 0 -224 608382.625 -671643.625)">
			<stop  offset="0" style="stop-color:#913B0E"/>
			<stop  offset="1" style="stop-color:#794C2B"/>
		</linearGradient>
		<polygon fill="url(#SVGID_30_)" points="565.514,0.858 477.979,0.858 0.002,206.598 0.002,216.615 535.836,721.158 		"/>
		
			<linearGradient id="SVGID_31_" gradientUnits="userSpaceOnUse" x1="-4144.812" y1="-3121.373" x2="-4141.1846" y2="-3125.0002" gradientTransform="matrix(212 0 0 -26 879384.625 -81207.6406)">
			<stop  offset="0" style="stop-color:#A4B6A3"/>
			<stop  offset="1" style="stop-color:#ABBAA4"/>
		</linearGradient>
		<polygon fill="url(#SVGID_31_)" points="1356.442,0.858 1212.013,0.858 876.877,0.858 1278.254,50.559 		"/>
		
			<linearGradient id="SVGID_32_" gradientUnits="userSpaceOnUse" x1="-4021.2588" y1="-3004.9912" x2="-4017.2505" y2="-3008.9995" gradientTransform="matrix(35 0 0 -158 142002.625 -474827.625)">
			<stop  offset="0" style="stop-color:#7A8B40"/>
			<stop  offset="1" style="stop-color:#728F68"/>
		</linearGradient>
		<polygon fill="url(#SVGID_32_)" points="1258.715,511.172 1389.136,0.858 1359.989,0.858 1356.442,0.858 1278.254,50.559 		"/>
		
			<linearGradient id="SVGID_33_" gradientUnits="userSpaceOnUse" x1="-4141.2305" y1="-3004.5918" x2="-4137.311" y2="-3008.5112" gradientTransform="matrix(198 0 0 -161 821223.625 -483776.625)">
			<stop  offset="0" style="stop-color:#C1C08C"/>
			<stop  offset="1" style="stop-color:#C0C9B9"/>
		</linearGradient>
		<polygon fill="url(#SVGID_33_)" points="1982.774,0.858 1794.433,0.858 1705.535,0.858 1661.586,0.858 1628.897,0.858 
			1573.278,0.858 1389.136,0.858 1258.715,511.172 		"/>
		
			<linearGradient id="SVGID_34_" gradientUnits="userSpaceOnUse" x1="-4147.5693" y1="-3004.7637" x2="-4143.9092" y2="-3008.4238" gradientTransform="matrix(263 0 0 -161 1092078.625 -483776.625)">
			<stop  offset="0" style="stop-color:#A19C33"/>
			<stop  offset="1" style="stop-color:#CBC07E"/>
		</linearGradient>
		<polygon fill="url(#SVGID_34_)" points="2286.379,87.814 2105.243,0.858 1982.774,0.858 1258.715,511.172 		"/>
		
			<linearGradient id="SVGID_35_" gradientUnits="userSpaceOnUse" x1="-4151.9365" y1="-3083.2852" x2="-4148.4722" y2="-3086.7493" gradientTransform="matrix(373 0 0 -36 1550646.75 -111026.625)">
			<stop  offset="0" style="stop-color:#D1A458"/>
			<stop  offset="1" style="stop-color:#D4AF75"/>
		</linearGradient>
		<polygon fill="url(#SVGID_35_)" points="3169.21,0.858 2878.78,0.858 2839.03,0.858 2701.93,0.858 2688.896,0.858 2626.618,0.858 
			2571.589,0.858 2541.87,0.858 2166.951,0.858 2141.385,0.858 2105.243,0.858 2286.379,87.814 		"/>
		
			<linearGradient id="SVGID_36_" gradientUnits="userSpaceOnUse" x1="-4131.3506" y1="-2997.6514" x2="-4127.4473" y2="-3001.5547" gradientTransform="matrix(183 0 0 -232 759204.625 -695497.625)">
			<stop  offset="0" style="stop-color:#835722"/>
			<stop  offset="1" style="stop-color:#C37115"/>
		</linearGradient>
		<polygon fill="url(#SVGID_36_)" points="3765.43,0.858 3476.528,0.858 3157.746,755.027 3840,8.559 3840,0.858 3768.443,0.858 		
			"/>
		
			<linearGradient id="SVGID_37_" gradientUnits="userSpaceOnUse" x1="-4131.3271" y1="-2993.8643" x2="-4127.5146" y2="-2997.6765" gradientTransform="matrix(183 0 0 -297 759204.625 -889326.75)">
			<stop  offset="0" style="stop-color:#593716"/>
			<stop  offset="1" style="stop-color:#A04710"/>
		</linearGradient>
		<polygon fill="url(#SVGID_37_)" points="3840,969.476 3840,625.259 3840,577.106 3840,522.759 3840,469.595 3840,413.315 
			3840,407.252 3840,402.584 3840,14.923 3840,8.559 3157.746,755.027 		"/>
		
			<linearGradient id="SVGID_38_" gradientUnits="userSpaceOnUse" x1="-4131.4873" y1="-3018.7715" x2="-4127.7695" y2="-3022.489" gradientTransform="matrix(182 0 0 -115 755037.625 -346371.5625)">
			<stop  offset="0" style="stop-color:#897039"/>
			<stop  offset="1" style="stop-color:#CE7931"/>
		</linearGradient>
		<polygon fill="url(#SVGID_38_)" points="3228.078,1144.516 3840,986.046 3840,969.476 3157.746,755.027 		"/>
		
			<linearGradient id="SVGID_39_" gradientUnits="userSpaceOnUse" x1="-4126.7563" y1="-3016.8672" x2="-4123.2612" y2="-3020.3621" gradientTransform="matrix(164 0 0 -124 680049.625 -373143.625)">
			<stop  offset="0" style="stop-color:#D57119"/>
			<stop  offset="1" style="stop-color:#BA3D0B"/>
		</linearGradient>
		<polygon fill="url(#SVGID_39_)" points="3329.672,1398.531 3840,1001.071 3840,986.046 3228.078,1144.516 		"/>
		
			<linearGradient id="SVGID_40_" gradientUnits="userSpaceOnUse" x1="-4118.5977" y1="-3002.7422" x2="-4114.8379" y2="-3006.5022" gradientTransform="matrix(138 0 0 -205 571733.625 -614685.625)">
			<stop  offset="0" style="stop-color:#992806"/>
			<stop  offset="1" style="stop-color:#76200D"/>
		</linearGradient>
		<polygon fill="url(#SVGID_40_)" points="3840,1658.162 3840,1334.696 3840,1296.64 3840,1274.466 3840,1263.284 3840,1036.819 
			3840,1001.071 3329.672,1398.531 		"/>
		
			<linearGradient id="SVGID_41_" gradientUnits="userSpaceOnUse" x1="-4118.6362" y1="-3013.1865" x2="-4115.0522" y2="-3016.7703" gradientTransform="matrix(138 0 0 -148 571733.625 -444587.625)">
			<stop  offset="0" style="stop-color:#AF3509"/>
			<stop  offset="1" style="stop-color:#6D1808"/>
		</linearGradient>
		<polygon fill="url(#SVGID_41_)" points="3657.898,1899.787 3840,1703.951 3840,1658.162 3329.672,1398.531 		"/>
		
			<linearGradient id="SVGID_42_" gradientUnits="userSpaceOnUse" x1="-4039.1821" y1="-3016.9033" x2="-4035.4753" y2="-3020.6101" gradientTransform="matrix(54 0 0 -137 221789.625 -411704.625)">
			<stop  offset="0" style="stop-color:#7A2207"/>
			<stop  offset="1" style="stop-color:#601D09"/>
		</linearGradient>
		<polygon fill="url(#SVGID_42_)" points="3829.828,2136.869 3840,2016.091 3840,1703.951 3657.898,1899.787 		"/>
		
			<linearGradient id="SVGID_43_" gradientUnits="userSpaceOnUse" x1="-4060.854" y1="-3187.7949" x2="-4057.2068" y2="-3191.4421" gradientTransform="matrix(65 0 0 -25 267614.5938 -77586.6406)">
			<stop  offset="0" style="stop-color:#561205"/>
			<stop  offset="1" style="stop-color:#340902"/>
		</linearGradient>
		<polygon fill="url(#SVGID_43_)" points="3611.012,2126.709 3712.861,2160.663 3725.12,2160.663 3830.778,2160.663 3840,2160.663 
			3840,2158.419 3829.828,2136.869 		"/>
		
			<linearGradient id="SVGID_44_" gradientUnits="userSpaceOnUse" x1="-3466.79" y1="-3013.2842" x2="-3462.9512" y2="-3017.123" gradientTransform="matrix(10 0 0 -159 38485.6406 -477308.625)">
			<stop  offset="0" style="stop-color:#1A0202"/>
			<stop  offset="1" style="stop-color:#2D0804"/>
		</linearGradient>
		<polygon fill="url(#SVGID_44_)" points="3840,2158.419 3840,2132.882 3840,2016.091 3829.828,2136.869 		"/>
		
			<linearGradient id="SVGID_45_" gradientUnits="userSpaceOnUse" x1="-4070.7383" y1="-3055.5527" x2="-4067.0342" y2="-3059.2568" gradientTransform="matrix(69 0 0 -69 284213.625 -208835.5)">
			<stop  offset="0" style="stop-color:#8C1606"/>
			<stop  offset="1" style="stop-color:#5E140B"/>
		</linearGradient>
		<polygon fill="url(#SVGID_45_)" points="3360.934,1987.846 3346.484,2160.663 3410.818,2160.663 3435.02,2160.663 
			3514.477,2160.663 3611.012,2126.709 		"/>
		
			<linearGradient id="SVGID_46_" gradientUnits="userSpaceOnUse" x1="-4116.7598" y1="-3165.9678" x2="-4113.1899" y2="-3169.5378" gradientTransform="matrix(134 0 0 -28 555068.625 -86532.6406)">
			<stop  offset="0" style="stop-color:#772708"/>
			<stop  offset="1" style="stop-color:#5B1F09"/>
		</linearGradient>
		<polygon fill="url(#SVGID_46_)" points="3514.477,2160.663 3712.861,2160.663 3611.012,2126.709 		"/>
		
			<linearGradient id="SVGID_47_" gradientUnits="userSpaceOnUse" x1="-4122.2266" y1="-3010.8398" x2="-4118.5259" y2="-3014.5405" gradientTransform="matrix(139 0 0 -169 575769.625 -507136.625)">
			<stop  offset="0" style="stop-color:#7F8506"/>
			<stop  offset="1" style="stop-color:#6F4210"/>
		</linearGradient>
		<polygon fill="url(#SVGID_47_)" points="2868.59,1645.773 2822.896,2160.663 2953.376,2160.663 3360.934,1987.846 		"/>
		
			<linearGradient id="SVGID_48_" gradientUnits="userSpaceOnUse" x1="-4121.6143" y1="-3054.5645" x2="-4117.7144" y2="-3058.4644" gradientTransform="matrix(139 0 0 -69 575769.625 -208835.5)">
			<stop  offset="0" style="stop-color:#86300E"/>
			<stop  offset="1" style="stop-color:#963710"/>
		</linearGradient>
		<polygon fill="url(#SVGID_48_)" points="2953.376,2160.663 3247.88,2160.663 3346.484,2160.663 3360.934,1987.846 		"/>
		
			<linearGradient id="SVGID_49_" gradientUnits="userSpaceOnUse" x1="-4139.8682" y1="-2996.2275" x2="-4136.1592" y2="-2999.9368" gradientTransform="matrix(198 0 0 -309 821304.625 -924756.75)">
			<stop  offset="0" style="stop-color:#625F0A"/>
			<stop  offset="1" style="stop-color:#535F18"/>
		</linearGradient>
		<polygon fill="url(#SVGID_49_)" points="1575.223,1574.648 2279.777,2160.663 2331.083,2160.663 2024.578,1171.611 		"/>
		
			<linearGradient id="SVGID_50_" gradientUnits="userSpaceOnUse" x1="-4098.522" y1="-2995.3467" x2="-4094.8745" y2="-2998.9941" gradientTransform="matrix(84 0 0 -313 346381.5 -936688.75)">
			<stop  offset="0" style="stop-color:#8C9116"/>
			<stop  offset="1" style="stop-color:#B0981E"/>
		</linearGradient>
		<polygon fill="url(#SVGID_50_)" points="2024.578,1171.611 2331.083,2160.663 2349.11,2160.663 2352.805,1158.064 		"/>
		
			<linearGradient id="SVGID_51_" gradientUnits="userSpaceOnUse" x1="-4122.7598" y1="-2996.5273" x2="-4119.0171" y2="-3000.27" gradientTransform="matrix(133 0 0 -313 550647.625 -936688.75)">
			<stop  offset="0" style="stop-color:#BF9E18"/>
			<stop  offset="1" style="stop-color:#987B19"/>
		</linearGradient>
		<polygon fill="url(#SVGID_51_)" points="2352.805,1158.064 2349.11,2160.663 2401.098,2160.663 2868.59,1645.773 		"/>
		
			<linearGradient id="SVGID_52_" gradientUnits="userSpaceOnUse" x1="-4122.4932" y1="-3009.9717" x2="-4118.5859" y2="-3013.8792" gradientTransform="matrix(133 0 0 -169 550647.625 -507136.625)">
			<stop  offset="0" style="stop-color:#413514"/>
			<stop  offset="1" style="stop-color:#6D5E11"/>
		</linearGradient>
		<polygon fill="url(#SVGID_52_)" points="2401.098,2160.663 2542.721,2160.663 2687.253,2160.663 2822.896,2160.663 
			2868.59,1645.773 		"/>
		
			<linearGradient id="SVGID_53_" gradientUnits="userSpaceOnUse" x1="-4140.4482" y1="-3007.5283" x2="-4136.8013" y2="-3011.1755" gradientTransform="matrix(198 0 0 -190 821304.625 -569779.625)">
			<stop  offset="0" style="stop-color:#5E4410"/>
			<stop  offset="1" style="stop-color:#66583D"/>
		</linearGradient>
		<polygon fill="url(#SVGID_53_)" points="1774.49,2160.663 1793.817,2160.663 1951.302,2160.663 2279.777,2160.663 
			1575.223,1574.648 		"/>
		
			<linearGradient id="SVGID_54_" gradientUnits="userSpaceOnUse" x1="-4147.1157" y1="-3003.2598" x2="-4143.5527" y2="-3006.823" gradientTransform="matrix(240 0 0 -216 996078.625 -647337.625)">
			<stop  offset="0" style="stop-color:#86600E"/>
			<stop  offset="1" style="stop-color:#927A40"/>
		</linearGradient>
		<polygon fill="url(#SVGID_54_)" points="637.43,1486.59 1080.276,2160.663 1158.892,2160.663 1575.223,1574.648 		"/>
		
			<linearGradient id="SVGID_55_" gradientUnits="userSpaceOnUse" x1="-4138.0381" y1="-3007.3115" x2="-4134.5239" y2="-3010.8257" gradientTransform="matrix(173 0 0 -190 717012.625 -569779.625)">
			<stop  offset="0" style="stop-color:#554409"/>
			<stop  offset="1" style="stop-color:#73735C"/>
		</linearGradient>
		<polygon fill="url(#SVGID_55_)" points="1158.892,2160.663 1579.172,2160.663 1639.968,2160.663 1774.49,2160.663 
			1575.223,1574.648 		"/>
		
			<linearGradient id="SVGID_56_" gradientUnits="userSpaceOnUse" x1="-4132.9814" y1="-3004.4756" x2="-4129.3447" y2="-3008.1125" gradientTransform="matrix(133 0 0 -216 550199.625 -647337.625)">
			<stop  offset="0" style="stop-color:#745A0E"/>
			<stop  offset="1" style="stop-color:#8B8C6C"/>
		</linearGradient>
		<polygon fill="url(#SVGID_56_)" points="600.747,2160.663 718.22,2160.663 1080.276,2160.663 637.43,1486.59 		"/>
		
			<linearGradient id="SVGID_57_" gradientUnits="userSpaceOnUse" x1="-4130.5962" y1="-3003.2549" x2="-4126.9595" y2="-3006.8916" gradientTransform="matrix(121 0 0 -212 500084.5625 -635409.625)">
			<stop  offset="0" style="stop-color:#9F8129"/>
			<stop  offset="1" style="stop-color:#947A3D"/>
		</linearGradient>
		<polygon fill="url(#SVGID_57_)" points="164.626,1489.977 571.686,2160.663 594.849,2160.663 600.747,2160.663 637.43,1486.59 		
			"/>
		
			<linearGradient id="SVGID_58_" gradientUnits="userSpaceOnUse" x1="-4082.6147" y1="-3003.3135" x2="-4079.0024" y2="-3006.9258" gradientTransform="matrix(49 0 0 -207 200011.625 -620653.625)">
			<stop  offset="0" style="stop-color:#6F4703"/>
			<stop  offset="1" style="stop-color:#605A14"/>
		</linearGradient>
		<polygon fill="url(#SVGID_58_)" points="55.215,965.012 0.002,1436.764 0.002,1641.404 164.626,1489.977 		"/>
		
			<linearGradient id="SVGID_59_" gradientUnits="userSpaceOnUse" x1="-4141.0293" y1="-3004.2031" x2="-4137.3457" y2="-3007.8867" gradientTransform="matrix(160 0 0 -211 662548.625 -632426.625)">
			<stop  offset="0" style="stop-color:#71611B"/>
			<stop  offset="1" style="stop-color:#586236"/>
		</linearGradient>
		<polygon fill="url(#SVGID_59_)" points="0.002,1641.404 0.002,1689.213 547.34,2160.663 571.686,2160.663 164.626,1489.977 		"/>
		
			<linearGradient id="SVGID_60_" gradientUnits="userSpaceOnUse" x1="-4141.7129" y1="-3013.0479" x2="-4138.0659" y2="-3016.6951" gradientTransform="matrix(160 0 0 -159 662548.625 -477310.625)">
			<stop  offset="0" style="stop-color:#63654B"/>
			<stop  offset="1" style="stop-color:#555F36"/>
		</linearGradient>
		<polygon fill="url(#SVGID_60_)" points="0.002,2029.866 0.002,2160.663 32.016,2160.663 83.599,2160.663 367.406,2160.663 
			547.34,2160.663 0.002,1689.213 		"/>
		
			<linearGradient id="SVGID_61_" gradientUnits="userSpaceOnUse" x1="-4107.3882" y1="-3037.2598" x2="-4103.895" y2="-3040.7529" gradientTransform="matrix(70 0 0 -75 287521.625 -227104.5)">
			<stop  offset="0" style="stop-color:#A5520D"/>
			<stop  offset="1" style="stop-color:#BF450F"/>
		</linearGradient>
		<polygon fill="url(#SVGID_61_)" points="258.406,741.479 0.002,712.683 0.002,715.687 0.002,726.052 0.002,742.007 0.002,765.6 
			55.215,965.012 		"/>
		
			<linearGradient id="SVGID_62_" gradientUnits="userSpaceOnUse" x1="-3969.2075" y1="-2996.3525" x2="-3965.4233" y2="-3000.1367" gradientTransform="matrix(21 0 0 -282 83335.6406 -844378.75)">
			<stop  offset="0" style="stop-color:#793C06"/>
			<stop  offset="1" style="stop-color:#BD4807"/>
		</linearGradient>
		<polygon fill="url(#SVGID_62_)" points="0.002,765.6 0.002,931.31 0.002,946.13 0.002,1140.976 0.002,1155.792 0.002,1169.601 
			0.002,1195.71 0.002,1436.764 55.215,965.012 		"/>
		
			<linearGradient id="SVGID_63_" gradientUnits="userSpaceOnUse" x1="-4108.2822" y1="-3006.9033" x2="-4104.6387" y2="-3010.5466" gradientTransform="matrix(70 0 0 -157 287521.625 -471776.625)">
			<stop  offset="0" style="stop-color:#A73D0D"/>
			<stop  offset="1" style="stop-color:#B93F0B"/>
		</linearGradient>
		<polygon fill="url(#SVGID_63_)" points="0.002,224.353 0.002,481.452 0.002,712.683 258.406,741.479 		"/>
	</g>
</g>
<g id="Layer_25">
</g>
</svg>
