<?xml version="1.0" encoding="utf-8"?>
<!-- Generator: Adobe Illustrator 16.0.0, SVG Export Plug-In . SVG Version: 6.00 Build 0)  -->
<!DOCTYPE svg PUBLIC "-//W3C//DTD SVG 1.1//EN" "http://www.w3.org/Graphics/SVG/1.1/DTD/svg11.dtd">
<svg version="1.1" xmlns="http://www.w3.org/2000/svg" xmlns:xlink="http://www.w3.org/1999/xlink" x="0px" y="0px" width="3840px"
	 height="2160px" viewBox="0 0 3840 2160" enable-background="new 0 0 3840 2160" xml:space="preserve">
<g id="Layer_1">
</g>
<g id="Layer_2">
	<g>
		
			<linearGradient id="SVGID_1_" gradientUnits="userSpaceOnUse" x1="3538.126" y1="7938.7881" x2="3540.0591" y2="7936.855" gradientTransform="matrix(234 0 0 -319 -827741.375 2533750.25)">
			<stop  offset="0" style="stop-color:#808DC2"/>
			<stop  offset="1" style="stop-color:#3F4F9C"/>
		</linearGradient>
		<polygon fill="url(#SVGID_1_)" points="191.202,1839.933 669.693,1682.594 551.093,1235.223 		"/>
		
			<linearGradient id="SVGID_2_" gradientUnits="userSpaceOnUse" x1="3531.9873" y1="7946.0576" x2="3533.96" y2="7944.085" gradientTransform="matrix(158 0 0 -236 -557537.375 1876556.375)">
			<stop  offset="0" style="stop-color:#95A0C4"/>
			<stop  offset="1" style="stop-color:#7788C0"/>
		</linearGradient>
		<polygon fill="url(#SVGID_2_)" points="669.693,1682.594 874.177,1654.16 551.093,1235.223 		"/>
		
			<linearGradient id="SVGID_3_" gradientUnits="userSpaceOnUse" x1="3544.0439" y1="7934.2354" x2="3546.0085" y2="7932.2705" gradientTransform="matrix(357 0 0 -430 -1264584.25 3412439.5)">
			<stop  offset="0" style="stop-color:#324082"/>
			<stop  offset="1" style="stop-color:#6C64A0"/>
		</linearGradient>
		<polygon fill="url(#SVGID_3_)" points="551.093,1235.223 874.177,1654.16 1281.1,839.034 		"/>
		
			<linearGradient id="SVGID_4_" gradientUnits="userSpaceOnUse" x1="3543.7031" y1="7932.9316" x2="3545.6426" y2="7930.9922" gradientTransform="matrix(340 0 0 -454 -1204025.25 3602471.5)">
			<stop  offset="0" style="stop-color:#806EA7"/>
			<stop  offset="1" style="stop-color:#6274B3"/>
		</linearGradient>
		<polygon fill="url(#SVGID_4_)" points="874.177,1654.16 1569.422,1699.655 1281.1,839.034 		"/>
		
			<linearGradient id="SVGID_5_" gradientUnits="userSpaceOnUse" x1="3543.8979" y1="7951.6523" x2="3545.8433" y2="7949.707" gradientTransform="matrix(287 0 0 -214 -1015223.25 1701752.375)">
			<stop  offset="0" style="stop-color:#695397"/>
			<stop  offset="1" style="stop-color:#715196"/>
		</linearGradient>
		<polygon fill="url(#SVGID_5_)" points="2176.739,82.673 1882.283,344.272 2469.152,488.341 		"/>
		
			<linearGradient id="SVGID_6_" gradientUnits="userSpaceOnUse" x1="3544.0288" y1="7942.7334" x2="3545.9683" y2="7940.7939" gradientTransform="matrix(340 0 0 -264 -1204025.25 2098481.25)">
			<stop  offset="0" style="stop-color:#707EBD"/>
			<stop  offset="1" style="stop-color:#B9BCDE"/>
		</linearGradient>
		<polygon fill="url(#SVGID_6_)" points="1162.5,2154.609 1569.422,1699.655 874.177,1654.16 		"/>
		
			<linearGradient id="SVGID_7_" gradientUnits="userSpaceOnUse" x1="3542.1484" y1="7934.4297" x2="3544.2034" y2="7932.3745" gradientTransform="matrix(184 0 0 -422 -648674.375 3349069.5)">
			<stop  offset="0" style="stop-color:#A4A5D3"/>
			<stop  offset="1" style="stop-color:#817DAF"/>
		</linearGradient>
		<polygon fill="url(#SVGID_7_)" points="3254.37,1566.96 3464.988,789.747 3088.737,1589.708 		"/>
		
			<linearGradient id="SVGID_8_" gradientUnits="userSpaceOnUse" x1="3544.2666" y1="7951.0361" x2="3546.2354" y2="7949.0674" gradientTransform="matrix(287 0 0 -217 -1015223.25 1725644.375)">
			<stop  offset="0" style="stop-color:#7D5393"/>
			<stop  offset="1" style="stop-color:#985992"/>
		</linearGradient>
		<polygon fill="url(#SVGID_8_)" points="2469.152,488.341 1882.283,344.272 2444.613,755.626 		"/>
		
			<linearGradient id="SVGID_9_" gradientUnits="userSpaceOnUse" x1="3538.3613" y1="7950.6602" x2="3540.4102" y2="7948.6113" gradientTransform="matrix(171 0 0 -212 -602971.375 1686271.375)">
			<stop  offset="0" style="stop-color:#6565AF"/>
			<stop  offset="1" style="stop-color:#7D66A9"/>
		</linearGradient>
		<polygon fill="url(#SVGID_9_)" points="2094.945,1157.502 2409.851,1148.023 2444.613,755.626 		"/>
		
			<linearGradient id="SVGID_10_" gradientUnits="userSpaceOnUse" x1="3545.5713" y1="7939.3486" x2="3547.5325" y2="7937.3872" gradientTransform="matrix(398 0 0 -326 -1409900.25 2588809.25)">
			<stop  offset="0" style="stop-color:#D196BE"/>
			<stop  offset="1" style="stop-color:#947AB0"/>
		</linearGradient>
		<polygon fill="url(#SVGID_10_)" points="1456.956,539.522 1281.1,839.034 2094.945,1157.502 		"/>
		
			<linearGradient id="SVGID_11_" gradientUnits="userSpaceOnUse" x1="3545.7246" y1="7933.1543" x2="3547.7292" y2="7931.1499" gradientTransform="matrix(398 0 0 -454 -1409900.25 3602471.5)">
			<stop  offset="0" style="stop-color:#7B5F9D"/>
			<stop  offset="1" style="stop-color:#6E74B1"/>
		</linearGradient>
		<polygon fill="url(#SVGID_11_)" points="1281.1,839.034 1569.422,1699.655 2094.945,1157.502 		"/>
		
			<linearGradient id="SVGID_12_" gradientUnits="userSpaceOnUse" x1="3544.168" y1="7934.7734" x2="3546.1484" y2="7932.793" gradientTransform="matrix(312 0 0 -429 -1104256.25 3404260.5)">
			<stop  offset="0" style="stop-color:#8E5C95"/>
			<stop  offset="1" style="stop-color:#7C629F"/>
		</linearGradient>
		<polygon fill="url(#SVGID_12_)" points="2094.945,1157.502 1882.283,344.272 1456.956,539.522 		"/>
		
			<linearGradient id="SVGID_13_" gradientUnits="userSpaceOnUse" x1="3544.4106" y1="7940.6445" x2="3546.3313" y2="7938.7236" gradientTransform="matrix(322 0 0 -295 -1139731.25 2343677.25)">
			<stop  offset="0" style="stop-color:#838CC3"/>
			<stop  offset="1" style="stop-color:#8488BF"/>
		</linearGradient>
		<polygon fill="url(#SVGID_13_)" points="1569.422,1699.655 2227.861,1716.716 2094.945,1157.502 		"/>
		
			<linearGradient id="SVGID_14_" gradientUnits="userSpaceOnUse" x1="3543.5171" y1="7934.5273" x2="3545.5117" y2="7932.5327" gradientTransform="matrix(275 0 0 -429 -972587.25 3404260.5)">
			<stop  offset="0" style="stop-color:#855691"/>
			<stop  offset="1" style="stop-color:#8E629A"/>
		</linearGradient>
		<polygon fill="url(#SVGID_14_)" points="2444.613,755.626 1882.283,344.272 2094.945,1157.502 		"/>
		
			<linearGradient id="SVGID_15_" gradientUnits="userSpaceOnUse" x1="3512.6826" y1="7951.2773" x2="3514.6965" y2="7949.2632" gradientTransform="matrix(58 0 0 -207 -201328.375 1646681.375)">
			<stop  offset="0" style="stop-color:#7D5D95"/>
			<stop  offset="1" style="stop-color:#995385"/>
		</linearGradient>
		<polygon fill="url(#SVGID_15_)" points="2409.851,1148.023 2528.452,827.66 2444.613,755.626 		"/>
		
			<linearGradient id="SVGID_16_" gradientUnits="userSpaceOnUse" x1="3545.8613" y1="7934.9629" x2="3547.8245" y2="7933" gradientTransform="matrix(332 0 0 -402 -1174850.25 3190729.5)">
			<stop  offset="0" style="stop-color:#514D79"/>
			<stop  offset="1" style="stop-color:#84658B"/>
		</linearGradient>
		<polygon fill="url(#SVGID_16_)" points="2409.851,1148.023 3088.737,1589.708 2528.452,827.66 		"/>
		
			<linearGradient id="SVGID_17_" gradientUnits="userSpaceOnUse" x1="3496.252" y1="7957.0156" x2="3498.2095" y2="7955.0581" gradientTransform="matrix(41 0 0 -179 -140910.375 1424836.375)">
			<stop  offset="0" style="stop-color:#965285"/>
			<stop  offset="1" style="stop-color:#99578B"/>
		</linearGradient>
		<polygon fill="url(#SVGID_17_)" points="2528.452,827.66 2469.152,488.341 2444.613,755.626 		"/>
		
			<linearGradient id="SVGID_18_" gradientUnits="userSpaceOnUse" x1="3545.2881" y1="7957.251" x2="3547.3098" y2="7955.2295" gradientTransform="matrix(299 0 0 -179 -1057572.25 1424836.375)">
			<stop  offset="0" style="stop-color:#925992"/>
			<stop  offset="1" style="stop-color:#704583"/>
		</linearGradient>
		<polygon fill="url(#SVGID_18_)" points="2528.452,827.66 3080.558,550.896 2469.152,488.341 		"/>
		
			<linearGradient id="SVGID_19_" gradientUnits="userSpaceOnUse" x1="3547.8901" y1="7965.7188" x2="3549.834" y2="7963.7749" gradientTransform="matrix(458 0 0 -146 -1622470.5 1163575.375)">
			<stop  offset="0" style="stop-color:#55387F"/>
			<stop  offset="1" style="stop-color:#683C79"/>
		</linearGradient>
		<polygon fill="url(#SVGID_19_)" points="3464.988,789.747 3080.558,550.896 2528.452,827.66 		"/>
		
			<linearGradient id="SVGID_20_" gradientUnits="userSpaceOnUse" x1="3548.374" y1="7934.6553" x2="3550.3271" y2="7932.7021" gradientTransform="matrix(458 0 0 -422 -1622470.5 3349069.5)">
			<stop  offset="0" style="stop-color:#8383C6"/>
			<stop  offset="1" style="stop-color:#5F468D"/>
		</linearGradient>
		<polygon fill="url(#SVGID_20_)" points="3088.737,1589.708 3464.988,789.747 2528.452,827.66 		"/>
		
			<linearGradient id="SVGID_21_" gradientUnits="userSpaceOnUse" x1="3540.5967" y1="7940.5811" x2="3542.5767" y2="7938.6011" gradientTransform="matrix(204 0 0 -295 -720220.375 2343677.25)">
			<stop  offset="0" style="stop-color:#3B4287"/>
			<stop  offset="1" style="stop-color:#8783AE"/>
		</linearGradient>
		<polygon fill="url(#SVGID_21_)" points="2227.861,1716.716 2512.093,1587.813 2094.945,1157.502 		"/>
		
			<linearGradient id="SVGID_22_" gradientUnits="userSpaceOnUse" x1="3541.1348" y1="7947.3164" x2="3543.1057" y2="7945.3452" gradientTransform="matrix(204 0 0 -232 -720220.375 1844838.375)">
			<stop  offset="0" style="stop-color:#636EB0"/>
			<stop  offset="1" style="stop-color:#7C82B6"/>
		</linearGradient>
		<polygon fill="url(#SVGID_22_)" points="2094.945,1157.502 2512.093,1587.813 2409.851,1148.023 		"/>
		
			<linearGradient id="SVGID_23_" gradientUnits="userSpaceOnUse" x1="3545.6074" y1="7946.4609" x2="3547.5776" y2="7944.4907" gradientTransform="matrix(332 0 0 -233 -1174850.25 1852756.375)">
			<stop  offset="0" style="stop-color:#8D93C0"/>
			<stop  offset="1" style="stop-color:#BCBAD8"/>
		</linearGradient>
		<polygon fill="url(#SVGID_23_)" points="2512.093,1587.813 3088.737,1589.708 2409.851,1148.023 		"/>
		
			<linearGradient id="SVGID_24_" gradientUnits="userSpaceOnUse" x1="3542.9814" y1="7965.0303" x2="3544.969" y2="7963.043" gradientTransform="matrix(297 0 0 -152 -1051050.25 1210879.375)">
			<stop  offset="0" style="stop-color:#6C5197"/>
			<stop  offset="1" style="stop-color:#745494"/>
		</linearGradient>
		<polygon fill="url(#SVGID_24_)" points="1274.965,164.186 1344.491,452.323 1882.283,344.272 		"/>
		
			<linearGradient id="SVGID_25_" gradientUnits="userSpaceOnUse" x1="3519.0718" y1="7952.4482" x2="3521.0776" y2="7950.4424" gradientTransform="matrix(86 0 0 -204 -301364.5 1622767.375)">
			<stop  offset="0" style="stop-color:#A874A7"/>
			<stop  offset="1" style="stop-color:#7A5B97"/>
		</linearGradient>
		<polygon fill="url(#SVGID_25_)" points="1344.491,452.323 1281.1,839.034 1456.956,539.522 		"/>
		
			<linearGradient id="SVGID_26_" gradientUnits="userSpaceOnUse" x1="3542.1797" y1="7987.0332" x2="3544.123" y2="7985.0898" gradientTransform="matrix(263 0 0 -103 -930214.375 822992.4375)">
			<stop  offset="0" style="stop-color:#775E9B"/>
			<stop  offset="1" style="stop-color:#6F5A9A"/>
		</linearGradient>
		<polygon fill="url(#SVGID_26_)" points="1882.283,344.272 1344.491,452.323 1456.956,539.522 		"/>
		
			<linearGradient id="SVGID_27_" gradientUnits="userSpaceOnUse" x1="3545.9976" y1="7945.9521" x2="3547.9678" y2="7943.9819" gradientTransform="matrix(462 0 0 -263 -1637723.5 2089666.25)">
			<stop  offset="0" style="stop-color:#6159A3"/>
			<stop  offset="1" style="stop-color:#5A549E"/>
		</linearGradient>
		<polygon fill="url(#SVGID_27_)" points="1274.965,164.186 587.195,-1.17 485.16,-1.17 1344.491,452.323 		"/>
		
			<linearGradient id="SVGID_28_" gradientUnits="userSpaceOnUse" x1="3547.1772" y1="7981.6182" x2="3549.1394" y2="7979.6558" gradientTransform="matrix(550 0 0 -115 -1950387.5 917798.4375)">
			<stop  offset="0" style="stop-color:#33429C"/>
			<stop  offset="1" style="stop-color:#3A43A1"/>
		</linearGradient>
		<polygon fill="url(#SVGID_28_)" points="1464.193,-1.17 1359.988,-1.17 1212.011,-1.17 683.25,-1.17 668.826,-1.17 631.492,-1.17 
			587.195,-1.17 1274.965,164.186 		"/>
		
			<linearGradient id="SVGID_29_" gradientUnits="userSpaceOnUse" x1="3543.1309" y1="7952.5859" x2="3545.0818" y2="7950.6348" gradientTransform="matrix(297 0 0 -210 -1051050.25 1670008.375)">
			<stop  offset="0" style="stop-color:#55519F"/>
			<stop  offset="1" style="stop-color:#47439A"/>
		</linearGradient>
		<polygon fill="url(#SVGID_29_)" points="1882.283,344.272 1571.757,-1.17 1464.193,-1.17 1274.965,164.186 		"/>
		
			<linearGradient id="SVGID_30_" gradientUnits="userSpaceOnUse" x1="3544.4141" y1="7952.832" x2="3546.3625" y2="7950.8833" gradientTransform="matrix(319 0 0 -210 -1129094.25 1670008.375)">
			<stop  offset="0" style="stop-color:#534791"/>
			<stop  offset="1" style="stop-color:#373794"/>
		</linearGradient>
		<polygon fill="url(#SVGID_30_)" points="2176.739,82.673 1776.029,-1.17 1705.534,-1.17 1661.584,-1.17 1628.896,-1.17 
			1573.277,-1.17 1571.757,-1.17 1882.283,344.272 		"/>
		
			<linearGradient id="SVGID_31_" gradientUnits="userSpaceOnUse" x1="3545.1665" y1="7943.4121" x2="3547.1199" y2="7941.459" gradientTransform="matrix(306 0 0 -289 -1082586.25 2295527.25)">
			<stop  offset="0" style="stop-color:#403D95"/>
			<stop  offset="1" style="stop-color:#533D87"/>
		</linearGradient>
		<polygon fill="url(#SVGID_31_)" points="2469.152,488.341 2766.973,-1.17 2701.929,-1.17 2688.894,-1.17 2626.617,-1.17 
			2571.588,-1.17 2545.745,-1.17 2176.739,82.673 		"/>
		
			<linearGradient id="SVGID_32_" gradientUnits="userSpaceOnUse" x1="3545.1475" y1="7940.4248" x2="3547.0896" y2="7938.4824" gradientTransform="matrix(299 0 0 -322 -1057572.25 2556821.25)">
			<stop  offset="0" style="stop-color:#725BA5"/>
			<stop  offset="1" style="stop-color:#343383"/>
		</linearGradient>
		<polygon fill="url(#SVGID_32_)" points="3080.558,550.896 2829.035,-1.17 2766.973,-1.17 2469.152,488.341 		"/>
		
			<linearGradient id="SVGID_33_" gradientUnits="userSpaceOnUse" x1="3548.5386" y1="8015.1348" x2="3550.4861" y2="8013.1875" gradientTransform="matrix(625 0 0 -75 -2216312.5 601075.5)">
			<stop  offset="0" style="stop-color:#232D9C"/>
			<stop  offset="1" style="stop-color:#302A82"/>
		</linearGradient>
		<polygon fill="url(#SVGID_33_)" points="2545.745,-1.17 2541.869,-1.17 2166.95,-1.17 2141.384,-1.17 1794.432,-1.17 
			1776.029,-1.17 2176.739,82.673 		"/>
		
			<linearGradient id="SVGID_34_" gradientUnits="userSpaceOnUse" x1="3549.0244" y1="7940.7139" x2="3550.9507" y2="7938.7876" gradientTransform="matrix(525 0 0 -322 -1860387.5 2556821.25)">
			<stop  offset="0" style="stop-color:#1E2071"/>
			<stop  offset="1" style="stop-color:#1D2274"/>
		</linearGradient>
		<polygon fill="url(#SVGID_34_)" points="3765.429,-1.17 2878.779,-1.17 2839.029,-1.17 2829.035,-1.17 3080.558,550.896 
			3806.753,-1.17 3768.443,-1.17 		"/>
		
			<linearGradient id="SVGID_35_" gradientUnits="userSpaceOnUse" x1="3547.9619" y1="7934.5166" x2="3549.9517" y2="7932.5269" gradientTransform="matrix(389 0 0 -445 -1377043.25 3530738.5)">
			<stop  offset="0" style="stop-color:#302874"/>
			<stop  offset="1" style="stop-color:#1F1B64"/>
		</linearGradient>
		<polygon fill="url(#SVGID_35_)" points="3464.988,789.747 3840,20.073 3840,12.893 3840,-1.17 3806.753,-1.17 3080.558,550.896 		
			"/>
		
			<linearGradient id="SVGID_36_" gradientUnits="userSpaceOnUse" x1="3544.0313" y1="7932.0859" x2="3546.0571" y2="7930.0601" gradientTransform="matrix(201 0 0 -520 -708891.375 4124588.5)">
			<stop  offset="0" style="stop-color:#27226A"/>
			<stop  offset="1" style="stop-color:#1D1A63"/>
		</linearGradient>
		<polygon fill="url(#SVGID_36_)" points="3840,920.116 3840,623.23 3840,575.078 3840,520.73 3840,467.566 3840,411.287 
			3840,405.222 3840,400.554 3840,20.073 3464.988,789.747 		"/>
		
			<linearGradient id="SVGID_37_" gradientUnits="userSpaceOnUse" x1="3546.3887" y1="7934.4766" x2="3548.3518" y2="7932.5132" gradientTransform="matrix(301 0 0 -410 -1064294.25 3254053.5)">
			<stop  offset="0" style="stop-color:#9191CB"/>
			<stop  offset="1" style="stop-color:#4A4A95"/>
		</linearGradient>
		<polygon fill="url(#SVGID_37_)" points="3254.37,1566.96 3840,1415.453 3840,1362.142 3464.988,789.747 		"/>
		
			<linearGradient id="SVGID_38_" gradientUnits="userSpaceOnUse" x1="3544.3853" y1="7939.4834" x2="3546.3552" y2="7937.5137" gradientTransform="matrix(200 0 0 -326 -705338.375 2588941.25)">
			<stop  offset="0" style="stop-color:#1E1F74"/>
			<stop  offset="1" style="stop-color:#24267D"/>
		</linearGradient>
		<polygon fill="url(#SVGID_38_)" points="3840,1362.142 3840,1332.666 3840,1294.61 3840,1272.436 3840,1261.255 3840,1034.79 
			3840,920.116 3464.988,789.747 		"/>
		
			<linearGradient id="SVGID_39_" gradientUnits="userSpaceOnUse" x1="3546.8389" y1="7964.3213" x2="3548.8401" y2="7962.3203" gradientTransform="matrix(301 0 0 -143 -1064294.25 1140273.375)">
			<stop  offset="0" style="stop-color:#999CD6"/>
			<stop  offset="1" style="stop-color:#6A76C2"/>
		</linearGradient>
		<polygon fill="url(#SVGID_39_)" points="3840,1673.73 3840,1415.453 3254.37,1566.96 		"/>
		
			<linearGradient id="SVGID_40_" gradientUnits="userSpaceOnUse" x1="3547.1172" y1="7938.0293" x2="3549.0874" y2="7936.0591" gradientTransform="matrix(303 0 0 -332 -1071400.25 2636859.25)">
			<stop  offset="0" style="stop-color:#9396D1"/>
			<stop  offset="1" style="stop-color:#9AA4DE"/>
		</linearGradient>
		<polygon fill="url(#SVGID_40_)" points="3836.859,2158.632 3840,2158.632 3840,2130.853 3840,1673.73 3254.37,1566.96 		"/>
		
			<linearGradient id="SVGID_41_" gradientUnits="userSpaceOnUse" x1="3545.7676" y1="7938.2051" x2="3547.7466" y2="7936.2261" gradientTransform="matrix(331 0 0 -324 -1171386.25 2573526.25)">
			<stop  offset="0" style="stop-color:#CCC5E1"/>
			<stop  offset="1" style="stop-color:#CDC9E4"/>
		</linearGradient>
		<polygon fill="url(#SVGID_41_)" points="2227.861,1716.716 2844.215,2158.632 2876.979,2158.632 2512.093,1587.813 		"/>
		
			<linearGradient id="SVGID_42_" gradientUnits="userSpaceOnUse" x1="3545.2939" y1="7938.4736" x2="3547.25" y2="7936.5176" gradientTransform="matrix(282 0 0 -324 -997150.25 2573526.25)">
			<stop  offset="0" style="stop-color:#C6C5DB"/>
			<stop  offset="1" style="stop-color:#C2BFDF"/>
		</linearGradient>
		<polygon fill="url(#SVGID_42_)" points="2512.093,1587.813 2876.979,2158.632 2917.737,2158.632 3088.737,1589.708 		"/>
		
			<linearGradient id="SVGID_43_" gradientUnits="userSpaceOnUse" x1="3540.9014" y1="7937.5459" x2="3542.9583" y2="7935.4888" gradientTransform="matrix(171 0 0 -335 -602575.375 2660613.25)">
			<stop  offset="0" style="stop-color:#ACA8D3"/>
			<stop  offset="1" style="stop-color:#B5B2DD"/>
		</linearGradient>
		<polygon fill="url(#SVGID_43_)" points="3088.737,1589.708 2917.737,2158.632 2928.581,2158.632 3254.37,1566.96 		"/>
		
			<linearGradient id="SVGID_44_" gradientUnits="userSpaceOnUse" x1="3548.3779" y1="7937.1904" x2="3550.332" y2="7935.2363" gradientTransform="matrix(474 0 0 -335 -1679134.5 2660613.25)">
			<stop  offset="0" style="stop-color:#AEAFDC"/>
			<stop  offset="1" style="stop-color:#C7C8EC"/>
		</linearGradient>
		<polygon fill="url(#SVGID_44_)" points="2928.581,2158.632 3247.879,2158.632 3410.817,2158.632 3435.019,2158.632 
			3725.12,2158.632 3830.779,2158.632 3836.859,2158.632 3254.37,1566.96 		"/>
		
			<linearGradient id="SVGID_45_" gradientUnits="userSpaceOnUse" x1="3547.8188" y1="7942.9375" x2="3549.772" y2="7940.9844" gradientTransform="matrix(530 0 0 -256 -1878632.5 2035170.25)">
			<stop  offset="0" style="stop-color:#D2CAE7"/>
			<stop  offset="1" style="stop-color:#DAD6F0"/>
		</linearGradient>
		<polygon fill="url(#SVGID_45_)" points="1855.85,2158.632 1951.301,2158.632 2542.719,2158.632 2687.251,2158.632 
			2844.215,2158.632 2227.861,1716.716 		"/>
		
			<linearGradient id="SVGID_46_" gradientUnits="userSpaceOnUse" x1="3543.6851" y1="7942.2979" x2="3545.6218" y2="7940.3608" gradientTransform="matrix(322 0 0 -264 -1139930.25 2098505.25)">
			<stop  offset="0" style="stop-color:#E0DDEE"/>
			<stop  offset="1" style="stop-color:#D3D2EB"/>
		</linearGradient>
		<polygon fill="url(#SVGID_46_)" points="1162.5,2154.609 1220.729,2158.632 1579.171,2158.632 1639.967,2158.632 
			1793.816,2158.632 1800.095,2158.632 1569.422,1699.655 		"/>
		
			<linearGradient id="SVGID_47_" gradientUnits="userSpaceOnUse" x1="3544.6523" y1="7942.6855" x2="3546.5891" y2="7940.7485" gradientTransform="matrix(322 0 0 -264 -1139731.25 2098505.25)">
			<stop  offset="0" style="stop-color:#B8BCE2"/>
			<stop  offset="1" style="stop-color:#CCC9E6"/>
		</linearGradient>
		<polygon fill="url(#SVGID_47_)" points="1569.422,1699.655 1800.095,2158.632 1855.85,2158.632 2227.861,1716.716 		"/>
		
			<linearGradient id="SVGID_48_" gradientUnits="userSpaceOnUse" x1="3539.7563" y1="7941.9199" x2="3541.74" y2="7939.9365" gradientTransform="matrix(256 0 0 -274 -905907.375 2177676.25)">
			<stop  offset="0" style="stop-color:#B5B8DE"/>
			<stop  offset="1" style="stop-color:#979CCD"/>
		</linearGradient>
		<polygon fill="url(#SVGID_48_)" points="191.202,1839.933 651.979,2158.632 710.924,2158.632 669.693,1682.594 		"/>
		
			<linearGradient id="SVGID_49_" gradientUnits="userSpaceOnUse" x1="3520.9287" y1="7940.584" x2="3522.8523" y2="7938.6602" gradientTransform="matrix(100 0 0 -289 -351405.5 2296431.25)">
			<stop  offset="0" style="stop-color:#6D78B9"/>
			<stop  offset="1" style="stop-color:#989FCE"/>
		</linearGradient>
		<polygon fill="url(#SVGID_49_)" points="669.693,1682.594 710.924,2158.632 718.219,2158.632 727.306,2158.632 874.177,1654.16 		
			"/>
		
			<linearGradient id="SVGID_50_" gradientUnits="userSpaceOnUse" x1="3538.1548" y1="7940.1504" x2="3540.1121" y2="7938.1929" gradientTransform="matrix(219 0 0 -289 -774190.375 2296431.25)">
			<stop  offset="0" style="stop-color:#7883BB"/>
			<stop  offset="1" style="stop-color:#CAC8E0"/>
		</linearGradient>
		<polygon fill="url(#SVGID_50_)" points="874.177,1654.16 727.306,2158.632 1124.48,2158.632 1162.5,2154.609 		"/>
		
			<linearGradient id="SVGID_51_" gradientUnits="userSpaceOnUse" x1="3547.457" y1="8167.8887" x2="3549.4094" y2="8165.936" gradientTransform="matrix(541 0 0 -25 -1918256.5 206343.3594)">
			<stop  offset="0" style="stop-color:#DCD9EC"/>
			<stop  offset="1" style="stop-color:#DBD8EC"/>
		</linearGradient>
		<polygon fill="url(#SVGID_51_)" points="1124.48,2158.632 1220.729,2158.632 1162.5,2154.609 		"/>
		
			<linearGradient id="SVGID_52_" gradientUnits="userSpaceOnUse" x1="3543.0068" y1="7951.1904" x2="3544.9639" y2="7949.2334" gradientTransform="matrix(367 0 0 -191 -1300401.25 1520565.375)">
			<stop  offset="0" style="stop-color:#BCBFE1"/>
			<stop  offset="1" style="stop-color:#A9A7C5"/>
		</linearGradient>
		<polygon fill="url(#SVGID_52_)" points="0,2138.545 0,2158.632 32.015,2158.632 83.598,2158.632 367.405,2158.632 
			594.848,2158.632 651.979,2158.632 191.202,1839.933 		"/>
		
			<linearGradient id="SVGID_53_" gradientUnits="userSpaceOnUse" x1="3520.876" y1="7952.3643" x2="3522.9504" y2="7950.2896" gradientTransform="matrix(111 0 0 -187 -390833.4375 1488893.375)">
			<stop  offset="0" style="stop-color:#B5BFE1"/>
			<stop  offset="1" style="stop-color:#969ABD"/>
		</linearGradient>
		<polygon fill="url(#SVGID_53_)" points="29.659,1881.637 0,2023.409 0,2027.835 0,2138.545 191.202,1839.933 		"/>
		
			<linearGradient id="SVGID_54_" gradientUnits="userSpaceOnUse" x1="3540.7319" y1="7939.1631" x2="3542.6833" y2="7937.2119" gradientTransform="matrix(287 0 0 -319 -1016161.25 2533750.25)">
			<stop  offset="0" style="stop-color:#ABB3D8"/>
			<stop  offset="1" style="stop-color:#808BBE"/>
		</linearGradient>
		<polygon fill="url(#SVGID_54_)" points="551.093,1235.223 0,1434.592 0,1509.383 191.202,1839.933 		"/>
		
			<linearGradient id="SVGID_55_" gradientUnits="userSpaceOnUse" x1="3520.4565" y1="7946.459" x2="3522.4307" y2="7944.4849" gradientTransform="matrix(111 0 0 -229 -390833.4375 1821242.375)">
			<stop  offset="0" style="stop-color:#ACB7DD"/>
			<stop  offset="1" style="stop-color:#A8B2D8"/>
		</linearGradient>
		<polygon fill="url(#SVGID_55_)" points="191.202,1839.933 0,1509.383 0,1684.874 29.659,1881.637 		"/>
		
			<linearGradient id="SVGID_56_" gradientUnits="userSpaceOnUse" x1="3540.354" y1="7947.6885" x2="3542.3435" y2="7945.6992" gradientTransform="matrix(287 0 0 -227 -1016161.25 1805179.375)">
			<stop  offset="0" style="stop-color:#4C569F"/>
			<stop  offset="1" style="stop-color:#6675B4"/>
		</linearGradient>
		<polygon fill="url(#SVGID_56_)" points="48.063,1017.224 0,1263.912 0,1434.592 551.093,1235.223 		"/>
		
			<linearGradient id="SVGID_57_" gradientUnits="userSpaceOnUse" x1="3441.105" y1="7934.832" x2="3443.095" y2="7932.8418" gradientTransform="matrix(32 0 0 -394 -110146.3594 3127712.25)">
			<stop  offset="0" style="stop-color:#8588AC"/>
			<stop  offset="1" style="stop-color:#A7B3DA"/>
		</linearGradient>
		<polygon fill="url(#SVGID_57_)" points="0,1684.874 0,2023.409 29.659,1881.637 		"/>
		
			<linearGradient id="SVGID_58_" gradientUnits="userSpaceOnUse" x1="3475.1035" y1="7933.9619" x2="3477.0996" y2="7931.9658" gradientTransform="matrix(46 0 0 -441 -159893.375 3499417.5)">
			<stop  offset="0" style="stop-color:#626DA5"/>
			<stop  offset="1" style="stop-color:#74699B"/>
		</linearGradient>
		<polygon fill="url(#SVGID_58_)" points="0,809.943 0,929.28 0,944.101 0,1138.947 0,1153.762 0,1167.571 0,1193.681 0,1263.912 
			48.063,1017.224 		"/>
		
			<linearGradient id="SVGID_59_" gradientUnits="userSpaceOnUse" x1="3475.0176" y1="7950.0547" x2="3476.9885" y2="7948.084" gradientTransform="matrix(46 0 0 -218 -159893.375 1733699.375)">
			<stop  offset="0" style="stop-color:#FBC2C9"/>
			<stop  offset="1" style="stop-color:#BB91AF"/>
		</linearGradient>
		<polygon fill="url(#SVGID_59_)" points="0,768.169 0,809.943 48.063,1017.224 		"/>
		
			<linearGradient id="SVGID_60_" gradientUnits="userSpaceOnUse" x1="3547.3882" y1="7938.9082" x2="3549.3542" y2="7936.9419" gradientTransform="matrix(673 0 0 -343 -2387618 2723106.25)">
			<stop  offset="0" style="stop-color:#5A58A2"/>
			<stop  offset="1" style="stop-color:#A786B4"/>
		</linearGradient>
		<polygon fill="url(#SVGID_60_)" points="485.16,-1.17 369.874,-1.17 0,556.224 0,600.483 1344.491,452.323 		"/>
		
			<linearGradient id="SVGID_61_" gradientUnits="userSpaceOnUse" x1="3547.5063" y1="7939.0225" x2="3549.448" y2="7937.0811" gradientTransform="matrix(642 0 0 -333 -2277475 2644269.25)">
			<stop  offset="0" style="stop-color:#3E4693"/>
			<stop  offset="1" style="stop-color:#B08AB9"/>
		</linearGradient>
		<polygon fill="url(#SVGID_61_)" points="1281.1,839.034 0,609.648 0,638.296 551.093,1235.223 		"/>
		
			<linearGradient id="SVGID_62_" gradientUnits="userSpaceOnUse" x1="3536.2842" y1="7939.0283" x2="3538.3223" y2="7936.9902" gradientTransform="matrix(214 0 0 -347 -756793.375 2754774.25)">
			<stop  offset="0" style="stop-color:#6A61A7"/>
			<stop  offset="1" style="stop-color:#8D7AB3"/>
		</linearGradient>
		<polygon fill="url(#SVGID_62_)" points="265.543,-1.17 107.748,-1.17 0,-1.17 0,1.368 0,66.64 0,479.423 0,556.224 369.874,-1.17 
					"/>
		
			<linearGradient id="SVGID_63_" gradientUnits="userSpaceOnUse" x1="3540.2231" y1="7938.7324" x2="3542.1934" y2="7936.7622" gradientTransform="matrix(285 0 0 -333 -1009053.25 2644269.25)">
			<stop  offset="0" style="stop-color:#53519C"/>
			<stop  offset="1" style="stop-color:#8979B2"/>
		</linearGradient>
		<polygon fill="url(#SVGID_63_)" points="551.093,1235.223 0,638.296 0,713.658 0,724.023 0,739.977 0,768.169 48.063,1017.224 		
			"/>
		
			<linearGradient id="SVGID_64_" gradientUnits="userSpaceOnUse" x1="3547.9893" y1="7952.874" x2="3549.9761" y2="7950.8872" gradientTransform="matrix(673 0 0 -204 -2387618 1622767.375)">
			<stop  offset="0" style="stop-color:#C489B6"/>
			<stop  offset="1" style="stop-color:#B68AB5"/>
		</linearGradient>
		<polygon fill="url(#SVGID_64_)" points="1344.491,452.323 0,600.483 0,609.648 1281.1,839.034 		"/>
	</g>
</g>
<g id="Layer_3">
</g>
<g id="Layer_4">
</g>
<g id="Layer_5">
</g>
<g id="Layer_6">
</g>
<g id="Layer_7">
</g>
<g id="Layer_8">
</g>
<g id="Layer_9">
</g>
<g id="Layer_10">
</g>
<g id="Layer_11">
</g>
<g id="Layer_12">
</g>
<g id="Layer_13">
</g>
<g id="Layer_14">
</g>
<g id="Layer_15">
</g>
<g id="Layer_16">
</g>
<g id="Layer_17">
</g>
<g id="Layer_18">
</g>
<g id="Layer_19">
</g>
<g id="Layer_20">
</g>
<g id="Layer_21">
</g>
<g id="Layer_22">
</g>
<g id="Layer_23">
</g>
<g id="Layer_24">
</g>
<g id="Layer_25">
</g>
</svg>
