<?xml version="1.0" encoding="utf-8"?>
<!-- Generator: Adobe Illustrator 16.0.0, SVG Export Plug-In . SVG Version: 6.00 Build 0)  -->
<!DOCTYPE svg PUBLIC "-//W3C//DTD SVG 1.1//EN" "http://www.w3.org/Graphics/SVG/1.1/DTD/svg11.dtd">
<svg version="1.1" xmlns="http://www.w3.org/2000/svg" xmlns:xlink="http://www.w3.org/1999/xlink" x="0px" y="0px" width="3840px"
	 height="2160px" viewBox="0 0 3840 2160" enable-background="new 0 0 3840 2160" xml:space="preserve">
<g id="Layer_1">
</g>
<g id="Layer_2">
</g>
<g id="Layer_3">
</g>
<g id="Layer_4">
</g>
<g id="Layer_5">
</g>
<g id="Layer_6">
</g>
<g id="Layer_7">
</g>
<g id="Layer_8">
</g>
<g id="Layer_9">
</g>
<g id="Layer_10">
</g>
<g id="Layer_11">
</g>
<g id="Layer_12">
</g>
<g id="Layer_13">
</g>
<g id="Layer_14">
</g>
<g id="Layer_15">
</g>
<g id="Layer_16">
</g>
<g id="Layer_17">
</g>
<g id="Layer_18">
</g>
<g id="Layer_19">
</g>
<g id="Layer_20">
	<g>
		
			<linearGradient id="SVGID_1_" gradientUnits="userSpaceOnUse" x1="-4139.3184" y1="-807.1094" x2="-4136.8657" y2="-809.5621" gradientTransform="matrix(196 0 0 -330 813441.625 -266005.75)">
			<stop  offset="0" style="stop-color:#B09657"/>
			<stop  offset="1" style="stop-color:#779079"/>
		</linearGradient>
		<polygon fill="url(#SVGID_1_)" points="2121.785,1096.834 2414.911,1174.895 2600.558,343.926 		"/>
		
			<linearGradient id="SVGID_2_" gradientUnits="userSpaceOnUse" x1="-4147.1133" y1="-807.5176" x2="-4144.6313" y2="-809.9995" gradientTransform="matrix(269 0 0 -299 1117559.75 -241143.75)">
			<stop  offset="0" style="stop-color:#B9CC71"/>
			<stop  offset="1" style="stop-color:#7B8B75"/>
		</linearGradient>
		<polygon fill="url(#SVGID_2_)" points="2121.785,1096.834 2600.558,343.926 1943.465,877.76 		"/>
		
			<linearGradient id="SVGID_3_" gradientUnits="userSpaceOnUse" x1="-4142.207" y1="-811.6289" x2="-4139.7495" y2="-814.0865" gradientTransform="matrix(212 0 0 -225 880021.625 -181496.625)">
			<stop  offset="0" style="stop-color:#DA7304"/>
			<stop  offset="1" style="stop-color:#AF6A1C"/>
		</linearGradient>
		<polygon fill="url(#SVGID_3_)" points="1897.054,1663.402 2414.911,1174.895 2121.785,1096.834 		"/>
		
			<linearGradient id="SVGID_4_" gradientUnits="userSpaceOnUse" x1="-4086.7554" y1="-842.1455" x2="-4084.2927" y2="-844.608" gradientTransform="matrix(78 0 0 -56 322320.5 -45889.625)">
			<stop  offset="0" style="stop-color:#5B5025"/>
			<stop  offset="1" style="stop-color:#3B3115"/>
		</linearGradient>
		<polygon fill="url(#SVGID_4_)" points="3682.682,1270.581 3550.775,1361.232 3741.308,1411.594 		"/>
		
			<linearGradient id="SVGID_5_" gradientUnits="userSpaceOnUse" x1="-4130.502" y1="-815.0723" x2="-4128.0244" y2="-817.5499" gradientTransform="matrix(136 0 0 -191 563152.625 -154051.625)">
			<stop  offset="0" style="stop-color:#123347"/>
			<stop  offset="1" style="stop-color:#414739"/>
		</linearGradient>
		<polygon fill="url(#SVGID_5_)" points="1528.204,2023.488 1796.903,1955.5 1464.693,1542.535 		"/>
		
			<linearGradient id="SVGID_6_" gradientUnits="userSpaceOnUse" x1="-4138.3491" y1="-816.4424" x2="-4135.8638" y2="-818.9277" gradientTransform="matrix(177 0 0 -164 733999.625 -132397.625)">
			<stop  offset="0" style="stop-color:#41483A"/>
			<stop  offset="1" style="stop-color:#676139"/>
		</linearGradient>
		<polygon fill="url(#SVGID_6_)" points="1796.903,1955.5 1897.054,1663.402 1464.693,1542.535 		"/>
		
			<linearGradient id="SVGID_7_" gradientUnits="userSpaceOnUse" x1="-4149.6582" y1="-809.5684" x2="-4147.1587" y2="-812.068" gradientTransform="matrix(280 0 0 -239 1163116.75 -192964.625)">
			<stop  offset="0" style="stop-color:#CBA659"/>
			<stop  offset="1" style="stop-color:#A4C082"/>
		</linearGradient>
		<polygon fill="url(#SVGID_7_)" points="1801.789,492.493 1259.505,1094.314 1943.465,877.76 		"/>
		
			<linearGradient id="SVGID_8_" gradientUnits="userSpaceOnUse" x1="-4151.332" y1="-817.2578" x2="-4148.8643" y2="-819.7256" gradientTransform="matrix(327 0 0 -108 1359187.75 -88010.5625)">
			<stop  offset="0" style="stop-color:#0974C0"/>
			<stop  offset="1" style="stop-color:#1B7CBA"/>
		</linearGradient>
		<polygon fill="url(#SVGID_8_)" points="2600.558,343.926 1872.628,220.539 1801.789,492.493 		"/>
		
			<linearGradient id="SVGID_9_" gradientUnits="userSpaceOnUse" x1="-4150.9355" y1="-809.8828" x2="-4148.4321" y2="-812.3861" gradientTransform="matrix(327 0 0 -212 1359187.75 -171369.625)">
			<stop  offset="0" style="stop-color:#A2C57D"/>
			<stop  offset="1" style="stop-color:#2D82B3"/>
		</linearGradient>
		<polygon fill="url(#SVGID_9_)" points="1943.465,877.76 2600.558,343.926 1801.789,492.493 		"/>
		
			<linearGradient id="SVGID_10_" gradientUnits="userSpaceOnUse" x1="-4114.874" y1="-807.1025" x2="-4112.3057" y2="-809.6711" gradientTransform="matrix(107 0 0 -330 442698.5 -266005.75)">
			<stop  offset="0" style="stop-color:#908665"/>
			<stop  offset="1" style="stop-color:#0D79C1"/>
		</linearGradient>
		<polygon fill="url(#SVGID_10_)" points="2414.911,1174.895 2676.281,356.516 2600.558,343.926 		"/>
		
			<linearGradient id="SVGID_11_" gradientUnits="userSpaceOnUse" x1="-4155.3652" y1="-806.6211" x2="-4152.8799" y2="-809.1064" gradientTransform="matrix(465 0 0 -399 1934484.5 -321338.5)">
			<stop  offset="0" style="stop-color:#B3934A"/>
			<stop  offset="1" style="stop-color:#437B7F"/>
		</linearGradient>
		<polygon fill="url(#SVGID_11_)" points="3550.775,1361.232 2676.281,356.516 2414.911,1174.895 		"/>
		
			<linearGradient id="SVGID_12_" gradientUnits="userSpaceOnUse" x1="-4145.9263" y1="-814.3691" x2="-4143.4487" y2="-816.8467" gradientTransform="matrix(229 0 0 -178 950599.625 -143803.625)">
			<stop  offset="0" style="stop-color:#B88031"/>
			<stop  offset="1" style="stop-color:#9F892E"/>
		</linearGradient>
		<polygon fill="url(#SVGID_12_)" points="1818.888,1479.582 1259.505,1094.314 1464.693,1542.535 		"/>
		
			<linearGradient id="SVGID_13_" gradientUnits="userSpaceOnUse" x1="-4149.0981" y1="-810.04" x2="-4146.6226" y2="-812.5158" gradientTransform="matrix(280 0 0 -239 1163116.75 -192811.625)">
			<stop  offset="0" style="stop-color:#EB8318"/>
			<stop  offset="1" style="stop-color:#EDC128"/>
		</linearGradient>
		<polygon fill="url(#SVGID_13_)" points="1943.465,877.76 1259.505,1094.314 1818.888,1479.582 		"/>
		
			<linearGradient id="SVGID_14_" gradientUnits="userSpaceOnUse" x1="-4138.3223" y1="-834.2451" x2="-4135.8496" y2="-836.7177" gradientTransform="matrix(177 0 0 -73 733999.625 -59440.5)">
			<stop  offset="0" style="stop-color:#5C563D"/>
			<stop  offset="1" style="stop-color:#7D843A"/>
		</linearGradient>
		<polygon fill="url(#SVGID_14_)" points="1464.693,1542.535 1897.054,1663.402 1818.888,1479.582 		"/>
		
			<linearGradient id="SVGID_15_" gradientUnits="userSpaceOnUse" x1="-4124.6465" y1="-811.3984" x2="-4122.1616" y2="-813.8831" gradientTransform="matrix(124 0 0 -225 513293.5625 -181496.625)">
			<stop  offset="0" style="stop-color:#7D6E25"/>
			<stop  offset="1" style="stop-color:#D19D11"/>
		</linearGradient>
		<polygon fill="url(#SVGID_15_)" points="1818.888,1479.582 1897.054,1663.402 2121.785,1096.834 		"/>
		
			<linearGradient id="SVGID_16_" gradientUnits="userSpaceOnUse" x1="-4125.0503" y1="-810.6572" x2="-4122.5786" y2="-813.1288" gradientTransform="matrix(124 0 0 -239 513293.5625 -192811.625)">
			<stop  offset="0" style="stop-color:#FFCF28"/>
			<stop  offset="1" style="stop-color:#F2AD0E"/>
		</linearGradient>
		<polygon fill="url(#SVGID_16_)" points="1818.888,1479.582 2121.785,1096.834 1943.465,877.76 		"/>
		
			<linearGradient id="SVGID_17_" gradientUnits="userSpaceOnUse" x1="-4029.9365" y1="-1028.0186" x2="-4027.458" y2="-1030.4972" gradientTransform="matrix(32 0 0 -12 129352.6406 -10299.6406)">
			<stop  offset="0" style="stop-color:#03222A"/>
			<stop  offset="1" style="stop-color:#0D2D2C"/>
		</linearGradient>
		<polygon fill="url(#SVGID_17_)" points="426.536,2061.26 487.604,2058.742 409.438,2031.043 		"/>
		
			<linearGradient id="SVGID_18_" gradientUnits="userSpaceOnUse" x1="-4145.1807" y1="-806.21" x2="-4142.7153" y2="-808.6752" gradientTransform="matrix(222 0 0 -392 921430.625 -315823.75)">
			<stop  offset="0" style="stop-color:#888B6E"/>
			<stop  offset="1" style="stop-color:#2378AB"/>
		</linearGradient>
		<polygon fill="url(#SVGID_18_)" points="1305.917,107.225 1259.505,1094.314 1801.789,492.493 		"/>
		
			<linearGradient id="SVGID_19_" gradientUnits="userSpaceOnUse" x1="-4145.418" y1="-811.7793" x2="-4142.9351" y2="-814.2622" gradientTransform="matrix(232 0 0 -153 963119.625 -124145.625)">
			<stop  offset="0" style="stop-color:#2580B8"/>
			<stop  offset="1" style="stop-color:#036BB9"/>
		</linearGradient>
		<polygon fill="url(#SVGID_19_)" points="1872.628,220.539 1305.917,107.225 1801.789,492.493 		"/>
		
			<linearGradient id="SVGID_20_" gradientUnits="userSpaceOnUse" x1="-4140.0962" y1="-827.1533" x2="-4137.6265" y2="-829.6229" gradientTransform="matrix(164 0 0 -102 679396.625 -82570.5625)">
			<stop  offset="0" style="stop-color:#0E2B2E"/>
			<stop  offset="1" style="stop-color:#153A3A"/>
		</linearGradient>
		<polygon fill="url(#SVGID_20_)" points="487.604,2058.742 810.044,1801.896 409.438,2031.043 		"/>
		
			<linearGradient id="SVGID_21_" gradientUnits="userSpaceOnUse" x1="-4133.625" y1="-827.168" x2="-4131.1079" y2="-829.6851" gradientTransform="matrix(133 0 0 -102 550251.625 -82570.5625)">
			<stop  offset="0" style="stop-color:#0A2D36"/>
			<stop  offset="1" style="stop-color:#073041"/>
		</linearGradient>
		<polygon fill="url(#SVGID_21_)" points="812.486,1963.055 810.044,1801.896 487.604,2058.742 		"/>
		
			<linearGradient id="SVGID_22_" gradientUnits="userSpaceOnUse" x1="-4149.9248" y1="-809.8154" x2="-4147.4316" y2="-812.3085" gradientTransform="matrix(268 0 0 -281 1112928.75 -226409.75)">
			<stop  offset="0" style="stop-color:#98773C"/>
			<stop  offset="1" style="stop-color:#475544"/>
		</linearGradient>
		<polygon fill="url(#SVGID_22_)" points="1259.505,1094.314 810.044,1801.896 1464.693,1542.535 		"/>
		
			<linearGradient id="SVGID_23_" gradientUnits="userSpaceOnUse" x1="-4150.9951" y1="-814.4268" x2="-4148.5288" y2="-816.8932" gradientTransform="matrix(294 0 0 -191 1221270.75 -154051.625)">
			<stop  offset="0" style="stop-color:#885922"/>
			<stop  offset="1" style="stop-color:#39413A"/>
		</linearGradient>
		<polygon fill="url(#SVGID_23_)" points="810.044,1801.896 1528.204,2023.488 1464.693,1542.535 		"/>
		
			<linearGradient id="SVGID_24_" gradientUnits="userSpaceOnUse" x1="-3983.4038" y1="-877.6992" x2="-3980.9055" y2="-880.1975" gradientTransform="matrix(31 0 0 -22 126082.6406 -19006.6406)">
			<stop  offset="0" style="stop-color:#0072C6"/>
			<stop  offset="1" style="stop-color:#0071C6"/>
		</linearGradient>
		<polygon fill="url(#SVGID_24_)" points="2600.558,343.926 2676.281,356.516 2649.411,301.119 		"/>
		
			<linearGradient id="SVGID_25_" gradientUnits="userSpaceOnUse" x1="-4153.7075" y1="-810.4209" x2="-4151.21" y2="-812.9185" gradientTransform="matrix(336 0 0 -175 1396151.75 -141830.625)">
			<stop  offset="0" style="stop-color:#064F7A"/>
			<stop  offset="1" style="stop-color:#0164A4"/>
		</linearGradient>
		<polygon fill="url(#SVGID_25_)" points="485.162,3.984 792.945,444.648 1305.917,107.225 		"/>
		
			<linearGradient id="SVGID_26_" gradientUnits="userSpaceOnUse" x1="-4144.5635" y1="-805.5576" x2="-4142.0889" y2="-808.032" gradientTransform="matrix(210 0 0 -392 871235.625 -315823.75)">
			<stop  offset="0" style="stop-color:#828C74"/>
			<stop  offset="1" style="stop-color:#0971B1"/>
		</linearGradient>
		<polygon fill="url(#SVGID_26_)" points="792.945,444.648 1259.505,1094.314 1305.917,107.225 		"/>
		
			<linearGradient id="SVGID_27_" gradientUnits="userSpaceOnUse" x1="-4154.2095" y1="-829.3398" x2="-4151.7329" y2="-831.8165" gradientTransform="matrix(357 0 0 -53 1483658.75 -43998.625)">
			<stop  offset="0" style="stop-color:#08466E"/>
			<stop  offset="1" style="stop-color:#02508C"/>
		</linearGradient>
		<polygon fill="url(#SVGID_27_)" points="1305.917,107.225 1346.8,0.858 1212.013,0.858 683.252,0.858 668.827,0.858 
			631.493,0.858 575.378,0.858 485.162,3.984 		"/>
		
			<linearGradient id="SVGID_28_" gradientUnits="userSpaceOnUse" x1="-4146.0444" y1="-817.2549" x2="-4143.562" y2="-819.7371" gradientTransform="matrix(232 0 0 -98 963119.625 -80088.5625)">
			<stop  offset="0" style="stop-color:#0061A9"/>
			<stop  offset="1" style="stop-color:#005FA6"/>
		</linearGradient>
		<polygon fill="url(#SVGID_28_)" points="1872.628,220.539 1413.796,0.858 1359.989,0.858 1346.8,0.858 1305.917,107.225 		"/>
		
			<linearGradient id="SVGID_29_" gradientUnits="userSpaceOnUse" x1="-4160.3525" y1="-924.9053" x2="-4157.8545" y2="-927.4031" gradientTransform="matrix(564 0 0 -12 2346020.5 -11116.6406)">
			<stop  offset="0" style="stop-color:#0F3A51"/>
			<stop  offset="1" style="stop-color:#084268"/>
		</linearGradient>
		<polygon fill="url(#SVGID_29_)" points="575.378,0.858 432.853,0.858 485.162,3.984 		"/>
		
			<linearGradient id="SVGID_30_" gradientUnits="userSpaceOnUse" x1="-4008.9707" y1="-811.9863" x2="-4006.3767" y2="-814.5804" gradientTransform="matrix(36 0 0 -147 146917.625 -119386.625)">
			<stop  offset="0" style="stop-color:#006EC3"/>
			<stop  offset="1" style="stop-color:#0063B1"/>
		</linearGradient>
		<polygon fill="url(#SVGID_30_)" points="2649.411,301.119 2685.262,0.858 2682.061,0.858 2600.558,343.926 		"/>
		
			<linearGradient id="SVGID_31_" gradientUnits="userSpaceOnUse" x1="-3809.2236" y1="-811.6611" x2="-3806.7678" y2="-814.1169" gradientTransform="matrix(16 0 0 -152 63597.6406 -123396.625)">
			<stop  offset="0" style="stop-color:#006CC4"/>
			<stop  offset="1" style="stop-color:#0064B3"/>
		</linearGradient>
		<polygon fill="url(#SVGID_31_)" points="2676.281,356.516 2687.632,0.858 2685.262,0.858 2649.411,301.119 		"/>
		
			<linearGradient id="SVGID_32_" gradientUnits="userSpaceOnUse" x1="-4157.7905" y1="-816.8545" x2="-4155.2935" y2="-819.3515" gradientTransform="matrix(545 0 0 -98 2267411.5 -80088.5625)">
			<stop  offset="0" style="stop-color:#005397"/>
			<stop  offset="1" style="stop-color:#005EAA"/>
		</linearGradient>
		<polygon fill="url(#SVGID_32_)" points="2598.929,0.858 2571.589,0.858 2541.87,0.858 2166.951,0.858 2141.385,0.858 
			1794.433,0.858 1705.535,0.858 1661.586,0.858 1628.897,0.858 1573.278,0.858 1413.796,0.858 1872.628,220.539 		"/>
		
			<linearGradient id="SVGID_33_" gradientUnits="userSpaceOnUse" x1="-4151.0781" y1="-811.8555" x2="-4148.6147" y2="-814.3186" gradientTransform="matrix(334 0 0 -147 1388385.75 -119386.625)">
			<stop  offset="0" style="stop-color:#006BC1"/>
			<stop  offset="1" style="stop-color:#0063B1"/>
		</linearGradient>
		<polygon fill="url(#SVGID_33_)" points="2600.558,343.926 2682.061,0.858 2626.618,0.858 2598.929,0.858 1872.628,220.539 		"/>
		
			<linearGradient id="SVGID_34_" gradientUnits="userSpaceOnUse" x1="-4143.0068" y1="-811.624" x2="-4140.4873" y2="-814.1437" gradientTransform="matrix(238 0 0 -154 988682.625 -125002.625)">
			<stop  offset="0" style="stop-color:#0066B4"/>
			<stop  offset="1" style="stop-color:#02518E"/>
		</linearGradient>
		<polygon fill="url(#SVGID_34_)" points="3209.483,0.858 2878.78,0.858 2839.03,0.858 2701.93,0.858 2688.896,0.858 
			2687.632,0.858 2676.281,356.516 		"/>
		
			<linearGradient id="SVGID_35_" gradientUnits="userSpaceOnUse" x1="-4155.1387" y1="-806.0938" x2="-4152.6685" y2="-808.5638" gradientTransform="matrix(485 0 0 -357 2017931.5 -287808.75)">
			<stop  offset="0" style="stop-color:#0066AC"/>
			<stop  offset="1" style="stop-color:#125D81"/>
		</linearGradient>
		<polygon fill="url(#SVGID_35_)" points="3209.483,0.858 2676.281,356.516 3840,858.627 3840,836.397 3279.213,0.858 		"/>
		
			<linearGradient id="SVGID_36_" gradientUnits="userSpaceOnUse" x1="-4155.0586" y1="-806.1465" x2="-4152.5728" y2="-808.6326" gradientTransform="matrix(485 0 0 -399 2017931.5 -321338.5)">
			<stop  offset="0" style="stop-color:#478BA6"/>
			<stop  offset="1" style="stop-color:#5D7C66"/>
		</linearGradient>
		<polygon fill="url(#SVGID_36_)" points="3550.775,1361.232 3840,901.099 3840,858.627 2676.281,356.516 		"/>
		
			<linearGradient id="SVGID_37_" gradientUnits="userSpaceOnUse" x1="-4141.8232" y1="-805.5518" x2="-4139.3428" y2="-808.0322" gradientTransform="matrix(247 0 0 -357 1026423.625 -287808.75)">
			<stop  offset="0" style="stop-color:#145780"/>
			<stop  offset="1" style="stop-color:#246376"/>
		</linearGradient>
		<polygon fill="url(#SVGID_37_)" points="3765.43,0.858 3279.213,0.858 3840,836.397 3840,625.259 3840,577.106 3840,522.759 
			3840,469.595 3840,413.315 3840,407.252 3840,402.584 3840,14.923 3840,0.858 3768.443,0.858 		"/>
		
			<linearGradient id="SVGID_38_" gradientUnits="userSpaceOnUse" x1="-4117.9688" y1="-812.2051" x2="-4115.2715" y2="-814.9025" gradientTransform="matrix(127 0 0 -196 526503.5625 -158329.625)">
			<stop  offset="0" style="stop-color:#6C5F32"/>
			<stop  offset="1" style="stop-color:#3B4837"/>
		</linearGradient>
		<polygon fill="url(#SVGID_38_)" points="3682.682,1270.581 3840,915.137 3840,901.099 3550.775,1361.232 		"/>
		
			<linearGradient id="SVGID_39_" gradientUnits="userSpaceOnUse" x1="-4080.1978" y1="-811.2813" x2="-4077.7217" y2="-813.7574" gradientTransform="matrix(73 0 0 -216 301539.5 -174369.625)">
			<stop  offset="0" style="stop-color:#030000"/>
			<stop  offset="1" style="stop-color:#2B4235"/>
		</linearGradient>
		<polygon fill="url(#SVGID_39_)" points="3741.308,1411.594 3840,963.12 3840,915.137 3682.682,1270.581 		"/>
		
			<linearGradient id="SVGID_40_" gradientUnits="userSpaceOnUse" x1="-4117.4268" y1="-810.3135" x2="-4114.9463" y2="-812.7939" gradientTransform="matrix(127 0 0 -267 526503.5625 -215075.75)">
			<stop  offset="0" style="stop-color:#404B37"/>
			<stop  offset="1" style="stop-color:#2A3527"/>
		</linearGradient>
		<polygon fill="url(#SVGID_40_)" points="3550.775,1361.232 3840,1988.047 3840,1924.433 3741.308,1411.594 		"/>
		
			<linearGradient id="SVGID_41_" gradientUnits="userSpaceOnUse" x1="-4036.8589" y1="-806.1836" x2="-4034.3899" y2="-808.6525" gradientTransform="matrix(49 0 0 -463 201555.625 -372463.5)">
			<stop  offset="0" style="stop-color:#504C26"/>
			<stop  offset="1" style="stop-color:#2B463A"/>
		</linearGradient>
		<polygon fill="url(#SVGID_41_)" points="3840,1924.433 3840,1334.696 3840,1296.64 3840,1274.466 3840,1263.284 3840,1036.819 
			3840,963.12 3741.308,1411.594 		"/>
		
			<linearGradient id="SVGID_42_" gradientUnits="userSpaceOnUse" x1="-4155.0166" y1="-807.3193" x2="-4152.5625" y2="-809.7735" gradientTransform="matrix(465 0 0 -414 1934484.5 -333043.5)">
			<stop  offset="0" style="stop-color:#92662E"/>
			<stop  offset="1" style="stop-color:#2D3C3A"/>
		</linearGradient>
		<polygon fill="url(#SVGID_42_)" points="2414.911,1174.895 2541.951,2160.663 2542.721,2160.663 2615.608,2160.663 
			3550.775,1361.232 		"/>
		
			<linearGradient id="SVGID_43_" gradientUnits="userSpaceOnUse" x1="-4156.5654" y1="-808.8408" x2="-4154.0649" y2="-811.3415" gradientTransform="matrix(537 0 0 -340 2234563.5 -273621.75)">
			<stop  offset="0" style="stop-color:#333F36"/>
			<stop  offset="1" style="stop-color:#061929"/>
		</linearGradient>
		<polygon fill="url(#SVGID_43_)" points="2615.608,2160.663 2687.253,2160.663 2954,2160.663 3840,2036.504 3840,1988.047 
			3550.775,1361.232 		"/>
		
			<linearGradient id="SVGID_44_" gradientUnits="userSpaceOnUse" x1="-4156.145" y1="-838.7178" x2="-4153.6265" y2="-841.2361" gradientTransform="matrix(537 0 0 -73 2234563.5 -59220.5)">
			<stop  offset="0" style="stop-color:#041617"/>
			<stop  offset="1" style="stop-color:#031722"/>
		</linearGradient>
		<polygon fill="url(#SVGID_44_)" points="3247.88,2160.663 3410.818,2160.663 3435.02,2160.663 3725.12,2160.663 
			3830.778,2160.663 3840,2160.663 3840,2132.882 3840,2036.504 2954,2160.663 		"/>
		
			<linearGradient id="SVGID_45_" gradientUnits="userSpaceOnUse" x1="-4154.894" y1="-827.5898" x2="-4152.4131" y2="-830.0709" gradientTransform="matrix(418 0 0 -104 1738272.75 -84113.5625)">
			<stop  offset="0" style="stop-color:#1E323C"/>
			<stop  offset="1" style="stop-color:#212D32"/>
		</linearGradient>
		<polygon fill="url(#SVGID_45_)" points="1528.204,2023.488 2250.58,2160.663 2386.316,2160.663 1796.903,1955.5 		"/>
		
			<linearGradient id="SVGID_46_" gradientUnits="userSpaceOnUse" x1="-4150.3057" y1="-813.5439" x2="-4147.8228" y2="-816.027" gradientTransform="matrix(308 0 0 -220 1280012.75 -177261.625)">
			<stop  offset="0" style="stop-color:#24383C"/>
			<stop  offset="1" style="stop-color:#2B3D3A"/>
		</linearGradient>
		<polygon fill="url(#SVGID_46_)" points="1796.903,1955.5 2386.316,2160.663 2482.486,2160.663 1897.054,1663.402 		"/>
		
			<linearGradient id="SVGID_47_" gradientUnits="userSpaceOnUse" x1="-4147.0259" y1="-807.1113" x2="-4144.5571" y2="-809.5802" gradientTransform="matrix(267 0 0 -414 1109206.75 -333043.5)">
			<stop  offset="0" style="stop-color:#595E3D"/>
			<stop  offset="1" style="stop-color:#6E4D28"/>
		</linearGradient>
		<polygon fill="url(#SVGID_47_)" points="1897.054,1663.402 2482.486,2160.663 2541.951,2160.663 2414.911,1174.895 		"/>
		
			<linearGradient id="SVGID_48_" gradientUnits="userSpaceOnUse" x1="-4148.5254" y1="-829.4014" x2="-4146.0542" y2="-831.8726" gradientTransform="matrix(242 0 0 -97 1004454.625 -78496.5)">
			<stop  offset="0" style="stop-color:#0F3331"/>
			<stop  offset="1" style="stop-color:#041F2D"/>
		</linearGradient>
		<polygon fill="url(#SVGID_48_)" points="487.604,2058.742 893.143,2160.663 1027.896,2160.663 812.486,1963.055 		"/>
		
			<linearGradient id="SVGID_49_" gradientUnits="userSpaceOnUse" x1="-4125.0854" y1="-818.1982" x2="-4122.605" y2="-820.6786" gradientTransform="matrix(110 0 0 -161 454542.5625 -129888.625)">
			<stop  offset="0" style="stop-color:#0B3747"/>
			<stop  offset="1" style="stop-color:#001B31"/>
		</linearGradient>
		<polygon fill="url(#SVGID_49_)" points="812.486,1963.055 1027.896,2160.663 1047.827,2160.663 810.044,1801.896 		"/>
		
			<linearGradient id="SVGID_50_" gradientUnits="userSpaceOnUse" x1="-4151.3145" y1="-818.042" x2="-4148.8452" y2="-820.5114" gradientTransform="matrix(294 0 0 -161 1221270.75 -129888.625)">
			<stop  offset="0" style="stop-color:#0B374B"/>
			<stop  offset="1" style="stop-color:#001D3A"/>
		</linearGradient>
		<polygon fill="url(#SVGID_50_)" points="810.044,1801.896 1047.827,2160.663 1192.797,2160.663 1528.204,2023.488 		"/>
		
			<linearGradient id="SVGID_51_" gradientUnits="userSpaceOnUse" x1="-4159.2495" y1="-837.2959" x2="-4156.7622" y2="-839.7831" gradientTransform="matrix(602 0 0 -77 2504816.5 -62432.5)">
			<stop  offset="0" style="stop-color:#313130"/>
			<stop  offset="1" style="stop-color:#211D1F"/>
		</linearGradient>
		<polygon fill="url(#SVGID_51_)" points="1192.797,2160.663 1579.172,2160.663 1639.968,2160.663 1793.817,2160.663 
			1951.302,2160.663 2250.58,2160.663 1528.204,2023.488 		"/>
		
			<linearGradient id="SVGID_52_" gradientUnits="userSpaceOnUse" x1="-4144.4912" y1="-840.9277" x2="-4141.9863" y2="-843.4327" gradientTransform="matrix(186 0 0 -69 770891.625 -56013.5)">
			<stop  offset="0" style="stop-color:#1C2B20"/>
			<stop  offset="1" style="stop-color:#172317"/>
		</linearGradient>
		<polygon fill="url(#SVGID_52_)" points="409.438,2031.043 83.242,2160.663 83.599,2160.663 111.878,2160.663 426.536,2061.26 		
			"/>
		
			<linearGradient id="SVGID_53_" gradientUnits="userSpaceOnUse" x1="-4147.3579" y1="-848.29" x2="-4144.1836" y2="-851.4644" gradientTransform="matrix(211 0 0 -58 875066.625 -47180.625)">
			<stop  offset="0" style="stop-color:#153027"/>
			<stop  offset="1" style="stop-color:#0D211C"/>
		</linearGradient>
		<polygon fill="url(#SVGID_53_)" points="426.536,2061.26 111.878,2160.663 127.921,2160.663 487.604,2058.742 		"/>
		
			<linearGradient id="SVGID_54_" gradientUnits="userSpaceOnUse" x1="-4157.9277" y1="-848.21" x2="-4155.436" y2="-850.7018" gradientTransform="matrix(453 0 0 -59 1883480.5 -47982.5938)">
			<stop  offset="0" style="stop-color:#30341C"/>
			<stop  offset="1" style="stop-color:#19160D"/>
		</linearGradient>
		<polygon fill="url(#SVGID_54_)" points="127.921,2160.663 367.406,2160.663 594.849,2160.663 718.22,2160.663 893.143,2160.663 
			487.604,2058.742 		"/>
		
			<linearGradient id="SVGID_55_" gradientUnits="userSpaceOnUse" x1="-4154.9883" y1="-809.5" x2="-4152.5146" y2="-811.9738" gradientTransform="matrix(341 0 0 -305 1416778.75 -245590.75)">
			<stop  offset="0" style="stop-color:#06323A"/>
			<stop  offset="1" style="stop-color:#092D33"/>
		</linearGradient>
		<polygon fill="url(#SVGID_55_)" points="810.044,1801.896 0.002,1277.857 0.002,1303.748 409.438,2031.043 		"/>
		
			<linearGradient id="SVGID_56_" gradientUnits="userSpaceOnUse" x1="-4159.3481" y1="-807.5967" x2="-4156.8535" y2="-810.0911" gradientTransform="matrix(525 0 0 -325 2183506.5 -261955.75)">
			<stop  offset="0" style="stop-color:#2A91AD"/>
			<stop  offset="1" style="stop-color:#696C46"/>
		</linearGradient>
		<polygon fill="url(#SVGID_56_)" points="792.945,444.648 0.002,1240.033 0.002,1260.012 1259.505,1094.314 		"/>
		
			<linearGradient id="SVGID_57_" gradientUnits="userSpaceOnUse" x1="-4158.7222" y1="-809.248" x2="-4156.2388" y2="-811.7315" gradientTransform="matrix(525 0 0 -281 2183506.5 -226409.75)">
			<stop  offset="0" style="stop-color:#345A52"/>
			<stop  offset="1" style="stop-color:#69552B"/>
		</linearGradient>
		<polygon fill="url(#SVGID_57_)" points="1259.505,1094.314 0.002,1260.012 0.002,1277.857 810.044,1801.896 		"/>
		
			<linearGradient id="SVGID_58_" gradientUnits="userSpaceOnUse" x1="-4144.3213" y1="-808.4619" x2="-4141.8442" y2="-810.9387" gradientTransform="matrix(179 0 0 -374 741722.625 -300928.75)">
			<stop  offset="0" style="stop-color:#000B0D"/>
			<stop  offset="1" style="stop-color:#021215"/>
		</linearGradient>
		<polygon fill="url(#SVGID_58_)" points="0.002,1303.748 0.002,2029.866 0.002,2160.663 32.016,2160.663 83.242,2160.663 
			409.438,2031.043 		"/>
		
			<linearGradient id="SVGID_59_" gradientUnits="userSpaceOnUse" x1="-4154.7544" y1="-809.2881" x2="-4152.2598" y2="-811.7825" gradientTransform="matrix(332 0 0 -210 1379277.75 -169900.625)">
			<stop  offset="0" style="stop-color:#094B6C"/>
			<stop  offset="1" style="stop-color:#0B5F86"/>
		</linearGradient>
		<polygon fill="url(#SVGID_59_)" points="485.162,3.984 0.002,513.826 0.002,530.822 792.945,444.648 		"/>
		
			<linearGradient id="SVGID_60_" gradientUnits="userSpaceOnUse" x1="-4154.5723" y1="-807.3691" x2="-4152.0537" y2="-809.8878" gradientTransform="matrix(334 0 0 -325 1387609.75 -261955.75)">
			<stop  offset="0" style="stop-color:#15444F"/>
			<stop  offset="1" style="stop-color:#176F91"/>
		</linearGradient>
		<polygon fill="url(#SVGID_60_)" points="0.002,530.822 0.002,715.687 0.002,726.052 0.002,742.007 0.002,931.31 0.002,946.13 
			0.002,1140.976 0.002,1155.793 0.002,1169.601 0.002,1195.71 0.002,1240.033 792.945,444.648 		"/>
		
			<linearGradient id="SVGID_61_" gradientUnits="userSpaceOnUse" x1="-4146.9722" y1="-808.6113" x2="-4144.5254" y2="-811.0579" gradientTransform="matrix(207 0 0 -222 858401.625 -179536.625)">
			<stop  offset="0" style="stop-color:#133D50"/>
			<stop  offset="1" style="stop-color:#13485E"/>
		</linearGradient>
		<polygon fill="url(#SVGID_61_)" points="432.853,0.858 265.544,0.858 107.75,0.858 0.002,0.858 0.002,3.397 0.002,68.669 
			0.002,481.452 0.002,513.826 485.162,3.984 		"/>
	</g>
</g>
<g id="Layer_21">
</g>
<g id="Layer_22">
</g>
<g id="Layer_23">
</g>
<g id="Layer_24">
</g>
<g id="Layer_25">
</g>
</svg>
