<?xml version="1.0" encoding="utf-8"?>
<!-- Generator: Adobe Illustrator 16.0.0, SVG Export Plug-In . SVG Version: 6.00 Build 0)  -->
<!DOCTYPE svg PUBLIC "-//W3C//DTD SVG 1.1//EN" "http://www.w3.org/Graphics/SVG/1.1/DTD/svg11.dtd">
<svg version="1.1" xmlns="http://www.w3.org/2000/svg" xmlns:xlink="http://www.w3.org/1999/xlink" x="0px" y="0px" width="3840px"
	 height="2160px" viewBox="0 0 3840 2160" enable-background="new 0 0 3840 2160" xml:space="preserve">
<g id="Layer_1">
</g>
<g id="Layer_2">
</g>
<g id="Layer_3">
</g>
<g id="Layer_4">
</g>
<g id="Layer_5">
</g>
<g id="Layer_6">
</g>
<g id="Layer_7">
</g>
<g id="Layer_8">
</g>
<g id="Layer_9">
</g>
<g id="Layer_10">
</g>
<g id="Layer_11">
</g>
<g id="Layer_12">
</g>
<g id="Layer_13">
</g>
<g id="Layer_14">
</g>
<g id="Layer_15">
</g>
<g id="Layer_16">
</g>
<g id="Layer_17">
</g>
<g id="Layer_18">
</g>
<g id="Layer_19">
</g>
<g id="Layer_20">
</g>
<g id="Layer_21">
</g>
<g id="Layer_22">
</g>
<g id="Layer_23">
</g>
<g id="Layer_24">
</g>
<g id="Layer_25">
	<g>
		
			<linearGradient id="SVGID_1_" gradientUnits="userSpaceOnUse" x1="7401.1611" y1="-5181.5039" x2="7402.4678" y2="-5182.8105" gradientTransform="matrix(619 0 0 -300 -4580798.5 -1553991.25)">
			<stop  offset="0" style="stop-color:#DB6D80"/>
			<stop  offset="1" style="stop-color:#E4ADAF"/>
		</linearGradient>
		<polygon fill="url(#SVGID_1_)" points="1345.928,499.408 548.343,834.806 1353.735,802.384 		"/>
		
			<linearGradient id="SVGID_2_" gradientUnits="userSpaceOnUse" x1="7381.4585" y1="-5180.2207" x2="7382.6572" y2="-5181.4194" gradientTransform="matrix(220 0 0 -332 -1621671.375 -1718439.5)">
			<stop  offset="0" style="stop-color:#CC6D79"/>
			<stop  offset="1" style="stop-color:#C6777C"/>
		</linearGradient>
		<polygon fill="url(#SVGID_2_)" points="2291.841,1693.422 2578.087,1682.242 2358.198,1322.249 		"/>
		
			<linearGradient id="SVGID_3_" gradientUnits="userSpaceOnUse" x1="7380.7261" y1="-5169.0215" x2="7381.9771" y2="-5170.2725" gradientTransform="matrix(228 0 0 -826 -1682543.375 -4268903)">
			<stop  offset="0" style="stop-color:#91323F"/>
			<stop  offset="1" style="stop-color:#BA7B7A"/>
		</linearGradient>
		<polygon fill="url(#SVGID_3_)" points="251.688,1581.623 402.618,1758.266 548.343,834.806 		"/>
		
			<linearGradient id="SVGID_4_" gradientUnits="userSpaceOnUse" x1="7401.8276" y1="-5172.3682" x2="7403.2773" y2="-5173.8179" gradientTransform="matrix(640 0 0 -565 -4735721 -2921185.5)">
			<stop  offset="0" style="stop-color:#E79DB1"/>
			<stop  offset="1" style="stop-color:#D498A1"/>
		</linearGradient>
		<polygon fill="url(#SVGID_4_)" points="2358.198,1322.249 1525.482,1953.913 2291.841,1693.422 		"/>
		
			<linearGradient id="SVGID_5_" gradientUnits="userSpaceOnUse" x1="7372.5034" y1="-5180.3428" x2="7373.7129" y2="-5181.5522" gradientTransform="matrix(169 0 0 -322 -1243557.375 -1666819.5)">
			<stop  offset="0" style="stop-color:#C06F75"/>
			<stop  offset="1" style="stop-color:#CB767F"/>
		</linearGradient>
		<polygon fill="url(#SVGID_5_)" points="2578.087,1682.242 2510.428,1326.721 2358.198,1322.249 		"/>
		
			<linearGradient id="SVGID_6_" gradientUnits="userSpaceOnUse" x1="7401.1206" y1="-5176.7705" x2="7402.3516" y2="-5178.0015" gradientTransform="matrix(589 0 0 -402 -4357657.5 -2079447.25)">
			<stop  offset="0" style="stop-color:#B46D70"/>
			<stop  offset="1" style="stop-color:#B95E69"/>
		</linearGradient>
		<polygon fill="url(#SVGID_6_)" points="1525.482,1953.913 2044.628,2142.854 2291.841,1693.422 		"/>
		
			<linearGradient id="SVGID_7_" gradientUnits="userSpaceOnUse" x1="7402.3247" y1="-5167.8164" x2="7403.4727" y2="-5168.9644" gradientTransform="matrix(678 0 0 -1030 -5018093 -5321982)">
			<stop  offset="0" style="stop-color:#CE9D9B"/>
			<stop  offset="1" style="stop-color:#AB6B6A"/>
		</linearGradient>
		<polygon fill="url(#SVGID_7_)" points="643.325,1895.778 1525.482,1953.913 1353.735,802.384 		"/>
		
			<linearGradient id="SVGID_8_" gradientUnits="userSpaceOnUse" x1="7402.4595" y1="-5216.6934" x2="7403.6626" y2="-5217.8965" gradientTransform="matrix(678 0 0 -110 -5018093 -571961.8125)">
			<stop  offset="0" style="stop-color:#DF9CA9"/>
			<stop  offset="1" style="stop-color:#C07C84"/>
		</linearGradient>
		<polygon fill="url(#SVGID_8_)" points="1407.081,2018.757 1525.482,1953.913 643.325,1895.778 		"/>
		
			<linearGradient id="SVGID_9_" gradientUnits="userSpaceOnUse" x1="7373.3491" y1="-5168.332" x2="7374.519" y2="-5169.502" gradientTransform="matrix(185 0 0 -949 -1363668.375 -4903830)">
			<stop  offset="0" style="stop-color:#A4525A"/>
			<stop  offset="1" style="stop-color:#BA7B79"/>
		</linearGradient>
		<polygon fill="url(#SVGID_9_)" points="402.618,1758.266 643.325,1895.778 548.343,834.806 		"/>
		
			<linearGradient id="SVGID_10_" gradientUnits="userSpaceOnUse" x1="7401.29" y1="-5167.9727" x2="7402.4551" y2="-5169.1377" gradientTransform="matrix(619 0 0 -978 -4580798.5 -5053557)">
			<stop  offset="0" style="stop-color:#C98E84"/>
			<stop  offset="1" style="stop-color:#B56E6B"/>
		</linearGradient>
		<polygon fill="url(#SVGID_10_)" points="548.343,834.806 643.325,1895.778 1353.735,802.384 		"/>
		
			<linearGradient id="SVGID_11_" gradientUnits="userSpaceOnUse" x1="7362.3726" y1="-5171.7285" x2="7363.5884" y2="-5172.9443" gradientTransform="matrix(134 0 0 -586 -983876.375 -3030787.5)">
			<stop  offset="0" style="stop-color:#C78191"/>
			<stop  offset="1" style="stop-color:#D197A3"/>
		</linearGradient>
		<polygon fill="url(#SVGID_11_)" points="2826.6,635.803 2796.336,0.857 2760.434,0.857 2652.25,63.393 		"/>
		
			<linearGradient id="SVGID_12_" gradientUnits="userSpaceOnUse" x1="7376.9307" y1="-5177.2715" x2="7378.2285" y2="-5178.5693" gradientTransform="matrix(191 0 0 -385 -1406643.375 -1992406.5)">
			<stop  offset="0" style="stop-color:#C17B7E"/>
			<stop  offset="1" style="stop-color:#D57F8B"/>
		</linearGradient>
		<polygon fill="url(#SVGID_12_)" points="2510.428,1326.721 2606.711,896.295 2358.198,1322.249 		"/>
		
			<linearGradient id="SVGID_13_" gradientUnits="userSpaceOnUse" x1="7402.7876" y1="-5177.5645" x2="7404.0083" y2="-5178.7852" gradientTransform="matrix(680 0 0 -385 -5031484 -1992406.5)">
			<stop  offset="0" style="stop-color:#D37482"/>
			<stop  offset="1" style="stop-color:#B87175"/>
		</linearGradient>
		<polygon fill="url(#SVGID_13_)" points="2510.428,1326.721 3395.188,1197.034 2606.711,896.295 		"/>
		
			<linearGradient id="SVGID_14_" gradientUnits="userSpaceOnUse" x1="7401.7158" y1="-5173.8164" x2="7402.9106" y2="-5175.0112" gradientTransform="matrix(606 0 0 -502 -4482847.5 -2596593.5)">
			<stop  offset="0" style="stop-color:#DD8E98"/>
			<stop  offset="1" style="stop-color:#C68085"/>
		</linearGradient>
		<polygon fill="url(#SVGID_14_)" points="3395.188,1197.034 2826.6,635.803 2606.711,896.295 		"/>
		
			<linearGradient id="SVGID_15_" gradientUnits="userSpaceOnUse" x1="7387.5581" y1="-5175.167" x2="7388.7676" y2="-5176.3765" gradientTransform="matrix(270 0 0 -457 -1992153.25 -2363685.5)">
			<stop  offset="0" style="stop-color:#DB7284"/>
			<stop  offset="1" style="stop-color:#C1797B"/>
		</linearGradient>
		<polygon fill="url(#SVGID_15_)" points="2578.087,1682.242 2861.73,1837.643 2510.428,1326.721 		"/>
		
			<linearGradient id="SVGID_16_" gradientUnits="userSpaceOnUse" x1="7403.1021" y1="-5172.2285" x2="7404.2808" y2="-5173.4072" gradientTransform="matrix(680 0 0 -573 -5031484 -2962593.5)">
			<stop  offset="0" style="stop-color:#D77684"/>
			<stop  offset="1" style="stop-color:#AC7270"/>
		</linearGradient>
		<polygon fill="url(#SVGID_16_)" points="2861.73,1837.643 3395.188,1197.034 2510.428,1326.721 		"/>
		
			<linearGradient id="SVGID_17_" gradientUnits="userSpaceOnUse" x1="7390.7407" y1="-5177.0879" x2="7391.9116" y2="-5178.2588" gradientTransform="matrix(313 0 0 -402 -2311270.25 -2079447.25)">
			<stop  offset="0" style="stop-color:#B16268"/>
			<stop  offset="1" style="stop-color:#B1676C"/>
		</linearGradient>
		<polygon fill="url(#SVGID_17_)" points="2044.628,2142.854 2451.878,2130.556 2291.841,1693.422 		"/>
		
			<linearGradient id="SVGID_18_" gradientUnits="userSpaceOnUse" x1="7381.8784" y1="-5176.7715" x2="7383.063" y2="-5177.9561" gradientTransform="matrix(220 0 0 -401 -1621671.375 -2074295.25)">
			<stop  offset="0" style="stop-color:#D06A78"/>
			<stop  offset="1" style="stop-color:#B26B6E"/>
		</linearGradient>
		<polygon fill="url(#SVGID_18_)" points="2291.841,1693.422 2451.878,2130.556 2578.087,1682.242 		"/>
		
			<linearGradient id="SVGID_19_" gradientUnits="userSpaceOnUse" x1="7391.1812" y1="-5177.0615" x2="7392.4214" y2="-5178.3018" gradientTransform="matrix(315 0 0 -401 -2325783.25 -2074295.25)">
			<stop  offset="0" style="stop-color:#C17C7D"/>
			<stop  offset="1" style="stop-color:#A8726F"/>
		</linearGradient>
		<polygon fill="url(#SVGID_19_)" points="2451.878,2130.556 2861.73,1837.643 2578.087,1682.242 		"/>
		
			<linearGradient id="SVGID_20_" gradientUnits="userSpaceOnUse" x1="7366.7617" y1="-5179.2451" x2="7368.0181" y2="-5180.5015" gradientTransform="matrix(154 0 0 -340 -1133140.375 -1760811.5)">
			<stop  offset="0" style="stop-color:#DF7B8D"/>
			<stop  offset="1" style="stop-color:#EB7F9E"/>
		</linearGradient>
		<polygon fill="url(#SVGID_20_)" points="1366.746,119.292 1345.928,499.408 1546.3,229.973 		"/>
		
			<linearGradient id="SVGID_21_" gradientUnits="userSpaceOnUse" x1="7387.6714" y1="-5190.5537" x2="7388.8818" y2="-5191.7642" gradientTransform="matrix(279 0 0 -203 -2059749.25 -1053721)">
			<stop  offset="0" style="stop-color:#DFA6BC"/>
			<stop  offset="1" style="stop-color:#EECBDA"/>
		</linearGradient>
		<polygon fill="url(#SVGID_21_)" points="1729.758,3.021 1366.746,119.292 1546.3,229.973 		"/>
		
			<linearGradient id="SVGID_22_" gradientUnits="userSpaceOnUse" x1="7404.5781" y1="-5240.6719" x2="7405.7954" y2="-5241.8892" gradientTransform="matrix(819 0 0 -74 -6062491 -387842.625)">
			<stop  offset="0" style="stop-color:#E17893"/>
			<stop  offset="1" style="stop-color:#E5B8C7"/>
		</linearGradient>
		<polygon fill="url(#SVGID_22_)" points="2652.25,63.393 2760.434,0.857 2701.929,0.857 2688.896,0.857 2626.618,0.857 
			2571.589,0.857 2541.87,0.857 2166.951,0.857 2141.385,0.857 1832.847,0.857 1729.758,3.021 		"/>
		
			<linearGradient id="SVGID_23_" gradientUnits="userSpaceOnUse" x1="7393.9956" y1="-5170.6729" x2="7395.1943" y2="-5171.8716" gradientTransform="matrix(387 0 0 -668 -2861369.25 -3453307.5)">
			<stop  offset="0" style="stop-color:#C0948F"/>
			<stop  offset="1" style="stop-color:#C8918E"/>
		</linearGradient>
		<polygon fill="url(#SVGID_23_)" points="44.811,1192.563 251.688,1581.623 548.343,834.806 		"/>
		
			<linearGradient id="SVGID_24_" gradientUnits="userSpaceOnUse" x1="7400.6943" y1="-5176.9795" x2="7401.9038" y2="-5178.189" gradientTransform="matrix(585 0 0 -397 -4328143.5 -2054705.25)">
			<stop  offset="0" style="stop-color:#D0878B"/>
			<stop  offset="1" style="stop-color:#D7A8A7"/>
		</linearGradient>
		<polygon fill="url(#SVGID_24_)" points="2107.082,943.25 1345.928,499.408 1353.735,802.384 		"/>
		
			<linearGradient id="SVGID_25_" gradientUnits="userSpaceOnUse" x1="7400.8306" y1="-5171.2217" x2="7402.0264" y2="-5172.4175" gradientTransform="matrix(585 0 0 -638 -4328143.5 -3298988)">
			<stop  offset="0" style="stop-color:#CB717B"/>
			<stop  offset="1" style="stop-color:#DA8595"/>
		</linearGradient>
		<polygon fill="url(#SVGID_25_)" points="1546.3,229.973 1345.928,499.408 2107.082,943.25 		"/>
		
			<linearGradient id="SVGID_26_" gradientUnits="userSpaceOnUse" x1="7400.7993" y1="-5167.665" x2="7401.9702" y2="-5168.8359" gradientTransform="matrix(579 0 0 -1030 -4283659.5 -5321982)">
			<stop  offset="0" style="stop-color:#D3B6AD"/>
			<stop  offset="1" style="stop-color:#C49490"/>
		</linearGradient>
		<polygon fill="url(#SVGID_26_)" points="1353.735,802.384 1525.482,1953.913 2107.082,943.25 		"/>
		
			<linearGradient id="SVGID_27_" gradientUnits="userSpaceOnUse" x1="7401.9307" y1="-5168.6563" x2="7403.1304" y2="-5169.856" gradientTransform="matrix(640 0 0 -904 -4735721 -4671443)">
			<stop  offset="0" style="stop-color:#B67977"/>
			<stop  offset="1" style="stop-color:#C57C80"/>
		</linearGradient>
		<polygon fill="url(#SVGID_27_)" points="2107.082,943.25 1525.482,1953.913 2358.198,1322.249 		"/>
		
			<linearGradient id="SVGID_28_" gradientUnits="userSpaceOnUse" x1="7396.623" y1="-5168.8926" x2="7397.8452" y2="-5170.1147" gradientTransform="matrix(431 0 0 -841 -3186387.5 -4347077.5)">
			<stop  offset="0" style="stop-color:#EDADBA"/>
			<stop  offset="1" style="stop-color:#E3CACB"/>
		</linearGradient>
		<polygon fill="url(#SVGID_28_)" points="2107.082,943.25 1729.758,3.021 1546.3,229.973 		"/>
		
			<linearGradient id="SVGID_29_" gradientUnits="userSpaceOnUse" x1="7403.251" y1="-5168.7822" x2="7404.4219" y2="-5169.9531" gradientTransform="matrix(709 0 0 -841 -5247061 -4347077.5)">
			<stop  offset="0" style="stop-color:#D4CCCF"/>
			<stop  offset="1" style="stop-color:#CE8996"/>
		</linearGradient>
		<polygon fill="url(#SVGID_29_)" points="2652.25,63.393 1729.758,3.021 2107.082,943.25 		"/>
		
			<linearGradient id="SVGID_30_" gradientUnits="userSpaceOnUse" x1="7395.1328" y1="-5177.3594" x2="7396.3169" y2="-5178.5435" gradientTransform="matrix(384 0 0 -381 -2837545.25 -1971758.5)">
			<stop  offset="0" style="stop-color:#D2818C"/>
			<stop  offset="1" style="stop-color:#D88894"/>
		</linearGradient>
		<polygon fill="url(#SVGID_30_)" points="2606.711,896.295 2107.082,943.25 2358.198,1322.249 		"/>
		
			<linearGradient id="SVGID_31_" gradientUnits="userSpaceOnUse" x1="7400.3799" y1="-5183.3086" x2="7401.7324" y2="-5184.6611" gradientTransform="matrix(553 0 0 -275 -4090342.5 -1424819.25)">
			<stop  offset="0" style="stop-color:#E57F96"/>
			<stop  offset="1" style="stop-color:#E28495"/>
		</linearGradient>
		<polygon fill="url(#SVGID_31_)" points="2606.711,896.295 2826.6,635.803 2107.082,943.25 		"/>
		
			<linearGradient id="SVGID_32_" gradientUnits="userSpaceOnUse" x1="7400.4688" y1="-5169.5107" x2="7401.6367" y2="-5170.6787" gradientTransform="matrix(553 0 0 -787 -4090342.5 -4068275.5)">
			<stop  offset="0" style="stop-color:#E499A7"/>
			<stop  offset="1" style="stop-color:#DE9BA2"/>
		</linearGradient>
		<polygon fill="url(#SVGID_32_)" points="2107.082,943.25 2826.6,635.803 2652.25,63.393 		"/>
		
			<linearGradient id="SVGID_33_" gradientUnits="userSpaceOnUse" x1="7394.189" y1="-5174.4072" x2="7395.3965" y2="-5175.6147" gradientTransform="matrix(379 0 0 -461 -2801428.25 -2385534.5)">
			<stop  offset="0" style="stop-color:#BC6876"/>
			<stop  offset="1" style="stop-color:#D66B90"/>
		</linearGradient>
		<polygon fill="url(#SVGID_33_)" points="1366.746,119.292 935.019,0.857 889.057,0.857 1345.928,499.408 		"/>
		
			<linearGradient id="SVGID_34_" gradientUnits="userSpaceOnUse" x1="7402.2158" y1="-5210.0361" x2="7403.4009" y2="-5211.2212" gradientTransform="matrix(658 0 0 -121 -4869656 -630453.8125)">
			<stop  offset="0" style="stop-color:#EA7B9F"/>
			<stop  offset="1" style="stop-color:#F7A7C8"/>
		</linearGradient>
		<polygon fill="url(#SVGID_34_)" points="1729.758,3.021 1632.32,0.857 1628.897,0.857 1573.278,0.857 1359.989,0.857 
			1212.013,0.857 935.019,0.857 1366.746,119.292 		"/>
		
			<linearGradient id="SVGID_35_" gradientUnits="userSpaceOnUse" x1="7407.8794" y1="-5453.9873" x2="7409.0605" y2="-5455.1685" gradientTransform="matrix(1477 0 0 -20 -10940903 -109094.6719)">
			<stop  offset="0" style="stop-color:#F1F7FD"/>
			<stop  offset="1" style="stop-color:#EDAFCC"/>
		</linearGradient>
		<polygon fill="url(#SVGID_35_)" points="1832.847,0.857 1794.433,0.857 1705.535,0.857 1661.585,0.857 1632.32,0.857 
			1729.758,3.021 		"/>
		
			<linearGradient id="SVGID_36_" gradientUnits="userSpaceOnUse" x1="7400.9868" y1="-5169.8115" x2="7402.1953" y2="-5171.02" gradientTransform="matrix(613 0 0 -761 -4536320.5 -3934134.5)">
			<stop  offset="0" style="stop-color:#CBB6A7"/>
			<stop  offset="1" style="stop-color:#D2778A"/>
		</linearGradient>
		<polygon fill="url(#SVGID_36_)" points="1345.928,499.408 889.057,0.857 867.183,0.857 548.343,834.806 		"/>
		
			<linearGradient id="SVGID_37_" gradientUnits="userSpaceOnUse" x1="7404.8584" y1="-5171.9229" x2="7406.1284" y2="-5173.1929" gradientTransform="matrix(829 0 0 -586 -6135802 -3030787.5)">
			<stop  offset="0" style="stop-color:#BD99A3"/>
			<stop  offset="1" style="stop-color:#BA858F"/>
		</linearGradient>
		<polygon fill="url(#SVGID_37_)" points="3765.43,0.857 2878.78,0.857 2839.03,0.857 2796.336,0.857 2826.6,635.803 
			3839.999,5.173 3839.999,0.857 3768.443,0.857 		"/>
		
			<linearGradient id="SVGID_38_" gradientUnits="userSpaceOnUse" x1="7404.6919" y1="-5173.5947" x2="7405.8745" y2="-5174.7773" gradientTransform="matrix(799 0 0 -502 -5913388 -2596593.5)">
			<stop  offset="0" style="stop-color:#C8757D"/>
			<stop  offset="1" style="stop-color:#92635F"/>
		</linearGradient>
		<polygon fill="url(#SVGID_38_)" points="3395.188,1197.034 3839.999,758.871 3839.999,730.617 2826.6,635.803 		"/>
		
			<linearGradient id="SVGID_39_" gradientUnits="userSpaceOnUse" x1="7404.5806" y1="-5170.5771" x2="7405.8604" y2="-5171.8569" gradientTransform="matrix(805 0 0 -670 -5957866 -3464392.5)">
			<stop  offset="0" style="stop-color:#C17985"/>
			<stop  offset="1" style="stop-color:#967177"/>
		</linearGradient>
		<polygon fill="url(#SVGID_39_)" points="3839.999,730.617 3839.999,625.258 3839.999,577.105 3839.999,522.758 3839.999,469.594 
			3839.999,413.314 3839.999,407.25 3839.999,402.582 3839.999,14.922 3839.999,5.173 2826.6,635.803 		"/>
		
			<linearGradient id="SVGID_40_" gradientUnits="userSpaceOnUse" x1="7404.0747" y1="-5172.5469" x2="7405.2539" y2="-5173.7261" gradientTransform="matrix(764 0 0 -573 -5653906 -2962593.5)">
			<stop  offset="0" style="stop-color:#A27A72"/>
			<stop  offset="1" style="stop-color:#855E58"/>
		</linearGradient>
		<polygon fill="url(#SVGID_40_)" points="2861.73,1837.643 3839.999,1789.232 3839.999,1768.183 3395.188,1197.034 		"/>
		
			<linearGradient id="SVGID_41_" gradientUnits="userSpaceOnUse" x1="7394.8052" y1="-5168.0645" x2="7396.0396" y2="-5169.2988" gradientTransform="matrix(362 0 0 -944 -2673469.25 -4878111)">
			<stop  offset="0" style="stop-color:#976963"/>
			<stop  offset="1" style="stop-color:#875C58"/>
		</linearGradient>
		<polygon fill="url(#SVGID_41_)" points="3839.999,1768.183 3839.999,1334.695 3839.999,1296.639 3839.999,1274.465 
			3839.999,1263.283 3839.999,1036.818 3839.999,758.871 3395.188,1197.034 		"/>
		
			<linearGradient id="SVGID_42_" gradientUnits="userSpaceOnUse" x1="7404.4253" y1="-5178.1758" x2="7405.6406" y2="-5179.3911" gradientTransform="matrix(764 0 0 -366 -5653906 -1893530.5)">
			<stop  offset="0" style="stop-color:#B5686C"/>
			<stop  offset="1" style="stop-color:#8E4A4D"/>
		</linearGradient>
		<polygon fill="url(#SVGID_42_)" points="3753.688,2160.662 3830.778,2160.662 3839.999,2160.662 3839.999,2132.881 
			3839.999,1789.232 2861.73,1837.643 		"/>
		
			<linearGradient id="SVGID_43_" gradientUnits="userSpaceOnUse" x1="7372.2695" y1="-5189.1143" x2="7373.4927" y2="-5190.3374" gradientTransform="matrix(174 0 0 -222 -1281353.375 -1150054.125)">
			<stop  offset="0" style="stop-color:#BF7F80"/>
			<stop  offset="1" style="stop-color:#A8696B"/>
		</linearGradient>
		<polygon fill="url(#SVGID_43_)" points="1407.081,2018.757 1582.3,2160.662 1615.442,2160.662 1525.482,1953.913 		"/>
		
			<linearGradient id="SVGID_44_" gradientUnits="userSpaceOnUse" x1="7395.2065" y1="-5189.2891" x2="7396.4287" y2="-5190.5112" gradientTransform="matrix(399 0 0 -222 -2949187.25 -1150054.125)">
			<stop  offset="0" style="stop-color:#BA787B"/>
			<stop  offset="1" style="stop-color:#A45760"/>
		</linearGradient>
		<polygon fill="url(#SVGID_44_)" points="1525.482,1953.913 1615.442,2160.662 1639.968,2160.662 1793.817,2160.662 
			1921.057,2160.662 2044.628,2142.854 		"/>
		
			<linearGradient id="SVGID_45_" gradientUnits="userSpaceOnUse" x1="7404.793" y1="-5276.3047" x2="7405.9829" y2="-5277.4946" gradientTransform="matrix(844 0 0 -53 -6247890 -277506.7188)">
			<stop  offset="0" style="stop-color:#9B4B56"/>
			<stop  offset="1" style="stop-color:#A35E63"/>
		</linearGradient>
		<polygon fill="url(#SVGID_45_)" points="1921.057,2160.662 1951.302,2160.662 2259.199,2160.662 2044.628,2142.854 		"/>
		
			<linearGradient id="SVGID_46_" gradientUnits="userSpaceOnUse" x1="7399.9648" y1="-5259.627" x2="7401.1831" y2="-5260.8452" gradientTransform="matrix(528 0 0 -62 -3905065.5 -323975.75)">
			<stop  offset="0" style="stop-color:#9D5458"/>
			<stop  offset="1" style="stop-color:#8F5F5C"/>
		</linearGradient>
		<polygon fill="url(#SVGID_46_)" points="2044.628,2142.854 2259.199,2160.662 2542.721,2160.662 2573.381,2160.662 
			2451.878,2130.556 		"/>
		
			<linearGradient id="SVGID_47_" gradientUnits="userSpaceOnUse" x1="7391.2646" y1="-5180.46" x2="7392.5259" y2="-5181.7212" gradientTransform="matrix(315 0 0 -324 -2325783.25 -1676682.5)">
			<stop  offset="0" style="stop-color:#9B6663"/>
			<stop  offset="1" style="stop-color:#A67772"/>
		</linearGradient>
		<polygon fill="url(#SVGID_47_)" points="2451.878,2130.556 2573.381,2160.662 2687.253,2160.662 2745.702,2160.662 
			2861.73,1837.643 		"/>
		
			<linearGradient id="SVGID_48_" gradientUnits="userSpaceOnUse" x1="7404.9424" y1="-5180.8213" x2="7406.1465" y2="-5182.0254" gradientTransform="matrix(864 0 0 -324 -6395306 -1676682.5)">
			<stop  offset="0" style="stop-color:#B07271"/>
			<stop  offset="1" style="stop-color:#975F5D"/>
		</linearGradient>
		<polygon fill="url(#SVGID_48_)" points="2745.702,2160.662 3247.88,2160.662 3410.818,2160.662 3435.02,2160.662 
			3725.12,2160.662 3753.688,2160.662 2861.73,1837.643 		"/>
		
			<linearGradient id="SVGID_49_" gradientUnits="userSpaceOnUse" x1="7400.6118" y1="-5198.8838" x2="7401.772" y2="-5200.0439" gradientTransform="matrix(578 0 0 -164 -4276609.5 -850600)">
			<stop  offset="0" style="stop-color:#BD6E74"/>
			<stop  offset="1" style="stop-color:#BC5B70"/>
		</linearGradient>
		<polygon fill="url(#SVGID_49_)" points="995.226,2160.662 1579.172,2160.662 1582.3,2160.662 1407.081,2018.757 		"/>
		
			<linearGradient id="SVGID_50_" gradientUnits="userSpaceOnUse" x1="7400.6572" y1="-5184.1426" x2="7401.9058" y2="-5185.3911" gradientTransform="matrix(587 0 0 -272 -4343509.5 -1408206.25)">
			<stop  offset="0" style="stop-color:#C5677D"/>
			<stop  offset="1" style="stop-color:#E685A1"/>
		</linearGradient>
		<polygon fill="url(#SVGID_50_)" points="643.325,1895.778 850.729,2160.662 995.226,2160.662 1407.081,2018.757 		"/>
		
			<linearGradient id="SVGID_51_" gradientUnits="userSpaceOnUse" x1="7387.3369" y1="-5177.5088" x2="7388.5776" y2="-5178.7495" gradientTransform="matrix(287 0 0 -389 -2119896.25 -2012283.5)">
			<stop  offset="0" style="stop-color:#A35B61"/>
			<stop  offset="1" style="stop-color:#B35C65"/>
		</linearGradient>
		<polygon fill="url(#SVGID_51_)" points="402.618,1758.266 279.822,2160.662 310.715,2160.662 643.325,1895.778 		"/>
		
			<linearGradient id="SVGID_52_" gradientUnits="userSpaceOnUse" x1="7397.3472" y1="-5184.2617" x2="7398.5166" y2="-5185.4312" gradientTransform="matrix(470 0 0 -272 -3476475.5 -1408206.25)">
			<stop  offset="0" style="stop-color:#A25458"/>
			<stop  offset="1" style="stop-color:#D46B83"/>
		</linearGradient>
		<polygon fill="url(#SVGID_52_)" points="310.715,2160.662 367.406,2160.662 594.849,2160.662 718.22,2160.662 850.729,2160.662 
			643.325,1895.778 		"/>
		
			<linearGradient id="SVGID_53_" gradientUnits="userSpaceOnUse" x1="7390.2593" y1="-5199.8896" x2="7391.4971" y2="-5201.1274" gradientTransform="matrix(326 0 0 -158 -2409227.25 -820018.875)">
			<stop  offset="0" style="stop-color:#A76262"/>
			<stop  offset="1" style="stop-color:#8C3646"/>
		</linearGradient>
		<polygon fill="url(#SVGID_53_)" points="251.688,1581.623 0.001,1658.859 0.001,1670.186 402.618,1758.266 		"/>
		
			<linearGradient id="SVGID_54_" gradientUnits="userSpaceOnUse" x1="7390.4258" y1="-5174.5166" x2="7391.6182" y2="-5175.709" gradientTransform="matrix(326 0 0 -472 -2409227.25 -2440812.5)">
			<stop  offset="0" style="stop-color:#8E4C50"/>
			<stop  offset="1" style="stop-color:#72323B"/>
		</linearGradient>
		<polygon fill="url(#SVGID_54_)" points="0.001,1670.186 0.001,1704.484 251.953,2160.662 279.822,2160.662 402.618,1758.266 		"/>
		
			<linearGradient id="SVGID_55_" gradientUnits="userSpaceOnUse" x1="7377.4663" y1="-5176.2637" x2="7378.6719" y2="-5177.4692" gradientTransform="matrix(210 0 0 -423 -1549319.375 -2188297.25)">
			<stop  offset="0" style="stop-color:#A54851"/>
			<stop  offset="1" style="stop-color:#9B505B"/>
		</linearGradient>
		<polygon fill="url(#SVGID_55_)" points="44.811,1192.563 0.001,1511.909 0.001,1658.859 251.688,1581.623 		"/>
		
			<linearGradient id="SVGID_56_" gradientUnits="userSpaceOnUse" x1="7379.6313" y1="-5174.7705" x2="7380.8413" y2="-5175.9805" gradientTransform="matrix(224 0 0 -478 -1653101.375 -2471784.5)">
			<stop  offset="0" style="stop-color:#785751"/>
			<stop  offset="1" style="stop-color:#9A4657"/>
		</linearGradient>
		<polygon fill="url(#SVGID_56_)" points="0.001,2029.865 0.001,2160.662 32.016,2160.662 83.599,2160.662 251.953,2160.662 
			0.001,1704.484 		"/>
		
			<linearGradient id="SVGID_57_" gradientUnits="userSpaceOnUse" x1="7402.2568" y1="-5169.5098" x2="7403.5083" y2="-5170.7612" gradientTransform="matrix(688 0 0 -761 -5092734 -3934134.5)">
			<stop  offset="0" style="stop-color:#CF7C7F"/>
			<stop  offset="1" style="stop-color:#AD4158"/>
		</linearGradient>
		<polygon fill="url(#SVGID_57_)" points="867.183,0.857 850.451,0.857 0.001,619.023 0.001,642.252 548.343,834.806 		"/>
		
			<linearGradient id="SVGID_58_" gradientUnits="userSpaceOnUse" x1="7396.0146" y1="-5173.8496" x2="7397.2676" y2="-5175.1025" gradientTransform="matrix(438 0 0 -499 -3239483.5 -2581108.5)">
			<stop  offset="0" style="stop-color:#B16267"/>
			<stop  offset="1" style="stop-color:#A3837A"/>
		</linearGradient>
		<polygon fill="url(#SVGID_58_)" points="548.343,834.806 0.001,642.252 0.001,715.686 0.001,726.051 0.001,742.006 0.001,815.839 
			44.811,1192.563 		"/>
		
			<linearGradient id="SVGID_59_" gradientUnits="userSpaceOnUse" x1="7267.3125" y1="-5168.3525" x2="7268.5493" y2="-5169.5894" gradientTransform="matrix(51 0 0 -922 -370652.375 -4764625)">
			<stop  offset="0" style="stop-color:#A74E61"/>
			<stop  offset="1" style="stop-color:#984E51"/>
		</linearGradient>
		<polygon fill="url(#SVGID_59_)" points="0.001,815.839 0.001,931.309 0.001,946.129 0.001,1140.975 0.001,1155.791 0.001,1169.6 
			0.001,1195.709 0.001,1511.909 44.811,1192.563 		"/>
		
			<linearGradient id="SVGID_60_" gradientUnits="userSpaceOnUse" x1="7402.2437" y1="-5171.9844" x2="7403.5449" y2="-5173.2856" gradientTransform="matrix(688 0 0 -582 -5092734 -3010136.5)">
			<stop  offset="0" style="stop-color:#B67B7E"/>
			<stop  offset="1" style="stop-color:#A95665"/>
		</linearGradient>
		<polygon fill="url(#SVGID_60_)" points="683.251,0.857 668.827,0.857 631.493,0.857 265.544,0.857 107.749,0.857 0.001,0.857 
			0.001,3.396 0.001,68.668 0.001,481.451 0.001,619.023 850.451,0.857 		"/>
	</g>
</g>
</svg>
