<?xml version="1.0" encoding="utf-8"?>
<!-- Generator: Adobe Illustrator 16.0.0, SVG Export Plug-In . SVG Version: 6.00 Build 0)  -->
<!DOCTYPE svg PUBLIC "-//W3C//DTD SVG 1.1//EN" "http://www.w3.org/Graphics/SVG/1.1/DTD/svg11.dtd">
<svg version="1.1" xmlns="http://www.w3.org/2000/svg" xmlns:xlink="http://www.w3.org/1999/xlink" x="0px" y="0px" width="3840px"
	 height="2160px" viewBox="0 0 3840 2160" enable-background="new 0 0 3840 2160" xml:space="preserve">
<g id="Layer_1">
	<g>
		
			<linearGradient id="SVGID_1_" gradientUnits="userSpaceOnUse" x1="7324.4663" y1="7946.2891" x2="7327.4219" y2="7943.3335" gradientTransform="matrix(71 0 0 -245 -518365.375 1947343.375)">
			<stop  offset="0" style="stop-color:#4D811A"/>
			<stop  offset="1" style="stop-color:#356E11"/>
		</linearGradient>
		<polygon fill="url(#SVGID_1_)" points="1663.588,554.631 1676.059,1224.245 1884.941,532.027 		"/>
		
			<linearGradient id="SVGID_2_" gradientUnits="userSpaceOnUse" x1="7354.6035" y1="8055.123" x2="7357.8125" y2="8051.9141" gradientTransform="matrix(108 0 0 -51 -792646.4375 411208.375)">
			<stop  offset="0" style="stop-color:#5E9D16"/>
			<stop  offset="1" style="stop-color:#568E10"/>
		</linearGradient>
		<polygon fill="url(#SVGID_2_)" points="2000.294,410.537 1663.588,554.631 1884.941,532.027 		"/>
		
			<linearGradient id="SVGID_3_" gradientUnits="userSpaceOnUse" x1="7375.9453" y1="7952.0439" x2="7378.979" y2="7949.0103" gradientTransform="matrix(180 0 0 -201 -1326558.375 1598995.375)">
			<stop  offset="0" style="stop-color:#2F5A0D"/>
			<stop  offset="1" style="stop-color:#416F14"/>
		</linearGradient>
		<polygon fill="url(#SVGID_3_)" points="1114.883,995.39 1676.059,1224.245 1451.588,656.344 		"/>
		
			<linearGradient id="SVGID_4_" gradientUnits="userSpaceOnUse" x1="7324.2012" y1="7947.7002" x2="7327.1846" y2="7944.7168" gradientTransform="matrix(72 0 0 -237 -525846.5 1884007.375)">
			<stop  offset="0" style="stop-color:#37620D"/>
			<stop  offset="1" style="stop-color:#3D6814"/>
		</linearGradient>
		<polygon fill="url(#SVGID_4_)" points="1451.588,656.344 1676.059,1224.245 1663.588,554.631 		"/>
		
			<linearGradient id="SVGID_5_" gradientUnits="userSpaceOnUse" x1="7364.9282" y1="7957.2871" x2="7367.8843" y2="7954.3311" gradientTransform="matrix(116 0 0 -182 -851641.4375 1448427.375)">
			<stop  offset="0" style="stop-color:#17480B"/>
			<stop  offset="1" style="stop-color:#0D2909"/>
		</linearGradient>
		<polygon fill="url(#SVGID_5_)" points="2988.589,416.187 2626.942,300.347 2920,814.565 		"/>
		
			<linearGradient id="SVGID_6_" gradientUnits="userSpaceOnUse" x1="7392.6875" y1="7959.9961" x2="7395.6528" y2="7957.0308" gradientTransform="matrix(275 0 0 -164 -2030214.25 1305944.375)">
			<stop  offset="0" style="stop-color:#163F09"/>
			<stop  offset="1" style="stop-color:#283D10"/>
		</linearGradient>
		<polygon fill="url(#SVGID_6_)" points="2920,814.565 3777.354,879.549 2988.589,416.187 		"/>
		
			<linearGradient id="SVGID_7_" gradientUnits="userSpaceOnUse" x1="7360.4873" y1="7973.6064" x2="7363.4224" y2="7970.6714" gradientTransform="matrix(116 0 0 -129 -851842.4375 1028683.375)">
			<stop  offset="0" style="stop-color:#21560D"/>
			<stop  offset="1" style="stop-color:#0F3906"/>
		</linearGradient>
		<polygon fill="url(#SVGID_7_)" points="2361.941,317.299 2199.824,46.063 2000.294,410.537 		"/>
		
			<linearGradient id="SVGID_8_" gradientUnits="userSpaceOnUse" x1="7346.2939" y1="7947.624" x2="7349.2993" y2="7944.6187" gradientTransform="matrix(109 0 0 -246 -800543.4375 1955119.375)">
			<stop  offset="0" style="stop-color:#0E1607"/>
			<stop  offset="1" style="stop-color:#192308"/>
		</linearGradient>
		<polygon fill="url(#SVGID_8_)" points="154.647,427.489 466.412,825.867 494.471,130.824 		"/>
		
			<linearGradient id="SVGID_9_" gradientUnits="userSpaceOnUse" x1="7387.29" y1="7946.8682" x2="7390.3164" y2="7943.8418" gradientTransform="matrix(279 0 0 -246 -2060653.25 1955119.375)">
			<stop  offset="0" style="stop-color:#202C08"/>
			<stop  offset="1" style="stop-color:#103006"/>
		</linearGradient>
		<polygon fill="url(#SVGID_9_)" points="494.471,130.824 466.412,825.867 1336.236,435.965 		"/>
		
			<linearGradient id="SVGID_10_" gradientUnits="userSpaceOnUse" x1="7387.7407" y1="7953.5273" x2="7390.7739" y2="7950.4941" gradientTransform="matrix(279 0 0 -198 -2060653.25 1575163.375)">
			<stop  offset="0" style="stop-color:#232B09"/>
			<stop  offset="1" style="stop-color:#1B3F08"/>
		</linearGradient>
		<polygon fill="url(#SVGID_10_)" points="1336.236,435.965 466.412,825.867 1114.883,995.39 		"/>
		
			<linearGradient id="SVGID_11_" gradientUnits="userSpaceOnUse" x1="7351.1284" y1="7952.9229" x2="7354.0898" y2="7949.9614" gradientTransform="matrix(108 0 0 -198 -792822.4375 1575163.375)">
			<stop  offset="0" style="stop-color:#1B4507"/>
			<stop  offset="1" style="stop-color:#1B4609"/>
		</linearGradient>
		<polygon fill="url(#SVGID_11_)" points="1451.588,656.344 1336.236,435.965 1114.883,995.39 		"/>
		
			<linearGradient id="SVGID_12_" gradientUnits="userSpaceOnUse" x1="7350.9077" y1="8007.2422" x2="7353.9229" y2="8004.2271" gradientTransform="matrix(105 0 0 -78 -770512.5 625003.5)">
			<stop  offset="0" style="stop-color:#234F0B"/>
			<stop  offset="1" style="stop-color:#2B590A"/>
		</linearGradient>
		<polygon fill="url(#SVGID_12_)" points="1663.588,554.631 1336.236,435.965 1451.588,656.344 		"/>
		
			<linearGradient id="SVGID_13_" gradientUnits="userSpaceOnUse" x1="7382.8535" y1="8055.3262" x2="7385.7881" y2="8052.3916" gradientTransform="matrix(213 0 0 -51 -1571116.375 411208.375)">
			<stop  offset="0" style="stop-color:#2A5609"/>
			<stop  offset="1" style="stop-color:#22510D"/>
		</linearGradient>
		<polygon fill="url(#SVGID_13_)" points="2000.294,410.537 1336.236,435.965 1663.588,554.631 		"/>
		
			<linearGradient id="SVGID_14_" gradientUnits="userSpaceOnUse" x1="7389.3887" y1="7970.5176" x2="7392.5332" y2="7967.373" gradientTransform="matrix(277 0 0 -138 -2045548.25 1099945.375)">
			<stop  offset="0" style="stop-color:#25590E"/>
			<stop  offset="1" style="stop-color:#123B08"/>
		</linearGradient>
		<polygon fill="url(#SVGID_14_)" points="2199.824,46.063 1336.236,435.965 2000.294,410.537 		"/>
		
			<linearGradient id="SVGID_15_" gradientUnits="userSpaceOnUse" x1="7390.6177" y1="7988.3799" x2="7393.6387" y2="7985.3589" gradientTransform="matrix(238 0 0 -95 -1755879.375 759766.5)">
			<stop  offset="0" style="stop-color:#373D14"/>
			<stop  offset="1" style="stop-color:#192D09"/>
		</linearGradient>
		<polygon fill="url(#SVGID_15_)" points="3830.354,1147.96 3777.354,879.549 3088.353,1136.658 		"/>
		
			<linearGradient id="SVGID_16_" gradientUnits="userSpaceOnUse" x1="7393.2988" y1="7977.0215" x2="7396.3672" y2="7973.9531" gradientTransform="matrix(275 0 0 -114 -2030214.25 910185.4375)">
			<stop  offset="0" style="stop-color:#1C2C0C"/>
			<stop  offset="1" style="stop-color:#374214"/>
		</linearGradient>
		<polygon fill="url(#SVGID_16_)" points="3088.353,1136.658 3777.354,879.549 2920,814.565 		"/>
		
			<linearGradient id="SVGID_17_" gradientUnits="userSpaceOnUse" x1="7364.415" y1="8003.0107" x2="7367.437" y2="7999.9888" gradientTransform="matrix(116 0 0 -84 -851641.4375 672420.5)">
			<stop  offset="0" style="stop-color:#143E09"/>
			<stop  offset="1" style="stop-color:#081D06"/>
		</linearGradient>
		<polygon fill="url(#SVGID_17_)" points="2832.706,178.856 2626.942,300.347 2988.589,416.187 		"/>
		
			<linearGradient id="SVGID_18_" gradientUnits="userSpaceOnUse" x1="7299.0654" y1="7975.8418" x2="7302.0566" y2="7972.8506" gradientTransform="matrix(52 0 0 -126 -377346.375 1004899.375)">
			<stop  offset="0" style="stop-color:#062705"/>
			<stop  offset="1" style="stop-color:#0E2B06"/>
		</linearGradient>
		<polygon fill="url(#SVGID_18_)" points="2361.941,317.299 2275.482,-1.171 2236.308,-1.171 2199.824,46.063 		"/>
		
			<linearGradient id="SVGID_19_" gradientUnits="userSpaceOnUse" x1="7361.8735" y1="7975.3086" x2="7364.8486" y2="7972.3335" gradientTransform="matrix(116 0 0 -126 -851757.4375 1004899.375)">
			<stop  offset="0" style="stop-color:#143308"/>
			<stop  offset="1" style="stop-color:#113208"/>
		</linearGradient>
		<polygon fill="url(#SVGID_19_)" points="2626.942,300.347 2305.323,-1.171 2275.482,-1.171 2361.941,317.299 		"/>
		
			<linearGradient id="SVGID_20_" gradientUnits="userSpaceOnUse" x1="7392.6914" y1="7945.7227" x2="7395.6699" y2="7942.7441" gradientTransform="matrix(316 0 0 -245 -2334546.25 1947343.375)">
			<stop  offset="0" style="stop-color:#6EA01E"/>
			<stop  offset="1" style="stop-color:#437917"/>
		</linearGradient>
		<polygon fill="url(#SVGID_20_)" points="1676.059,1224.245 2661.236,1026.469 1884.941,532.027 		"/>
		
			<linearGradient id="SVGID_21_" gradientUnits="userSpaceOnUse" x1="7388.3149" y1="7949.9834" x2="7391.2749" y2="7947.0234" gradientTransform="matrix(249 0 0 -218 -1837808.375 1733514.375)">
			<stop  offset="0" style="stop-color:#367316"/>
			<stop  offset="1" style="stop-color:#336813"/>
		</linearGradient>
		<polygon fill="url(#SVGID_21_)" points="1884.941,532.027 2661.236,1026.469 2000.294,410.537 		"/>
		
			<linearGradient id="SVGID_22_" gradientUnits="userSpaceOnUse" x1="7384.7119" y1="7946.3926" x2="7387.6938" y2="7943.4106" gradientTransform="matrix(212 0 0 -251 -1563490.375 1994775.25)">
			<stop  offset="0" style="stop-color:#528016"/>
			<stop  offset="1" style="stop-color:#3B6411"/>
		</linearGradient>
		<polygon fill="url(#SVGID_22_)" points="2661.236,1026.469 2361.941,317.299 2000.294,410.537 		"/>
		
			<linearGradient id="SVGID_23_" gradientUnits="userSpaceOnUse" x1="7353.0508" y1="7946.1133" x2="7356.0239" y2="7943.1401" gradientTransform="matrix(96 0 0 -257 -703466.5 2042277.25)">
			<stop  offset="0" style="stop-color:#1F420A"/>
			<stop  offset="1" style="stop-color:#23520E"/>
		</linearGradient>
		<polygon fill="url(#SVGID_23_)" points="2626.942,300.347 2361.941,317.299 2661.236,1026.469 		"/>
		
			<linearGradient id="SVGID_24_" gradientUnits="userSpaceOnUse" x1="7352.6689" y1="7945.0996" x2="7355.6655" y2="7942.103" gradientTransform="matrix(94 0 0 -257 -688555.5 2042277.25)">
			<stop  offset="0" style="stop-color:#21580E"/>
			<stop  offset="1" style="stop-color:#1D440E"/>
		</linearGradient>
		<polygon fill="url(#SVGID_24_)" points="2920,814.565 2626.942,300.347 2661.236,1026.469 		"/>
		
			<linearGradient id="SVGID_25_" gradientUnits="userSpaceOnUse" x1="7372.0542" y1="7976.9023" x2="7374.9839" y2="7973.9727" gradientTransform="matrix(137 0 0 -114 -1007303.375 910185.4375)">
			<stop  offset="0" style="stop-color:#2A4516"/>
			<stop  offset="1" style="stop-color:#315516"/>
		</linearGradient>
		<polygon fill="url(#SVGID_25_)" points="2661.236,1026.469 3088.353,1136.658 2920,814.565 		"/>
		
			<linearGradient id="SVGID_26_" gradientUnits="userSpaceOnUse" x1="7369.2769" y1="7961.6445" x2="7372.3154" y2="7958.606" gradientTransform="matrix(170 0 0 -167 -1252797.375 1329535.375)">
			<stop  offset="0" style="stop-color:#0B1205"/>
			<stop  offset="1" style="stop-color:#061304"/>
		</linearGradient>
		<polygon fill="url(#SVGID_26_)" points="494.471,130.824 95.11,-1.171 0,-1.171 0,1.367 0,43.801 154.647,427.489 		"/>
		
			<linearGradient id="SVGID_27_" gradientUnits="userSpaceOnUse" x1="7386.7954" y1="7960.4258" x2="7389.8003" y2="7957.4209" gradientTransform="matrix(270 0 0 -172 -1993927.25 1369123.375)">
			<stop  offset="0" style="stop-color:#0D2205"/>
			<stop  offset="1" style="stop-color:#133507"/>
		</linearGradient>
		<polygon fill="url(#SVGID_27_)" points="1336.236,435.965 943.621,-1.171 790.321,-1.171 494.471,130.824 		"/>
		
			<linearGradient id="SVGID_28_" gradientUnits="userSpaceOnUse" x1="7396.8574" y1="7960.5059" x2="7399.7563" y2="7957.6069" gradientTransform="matrix(417 0 0 -172 -3083508.25 1369123.375)">
			<stop  offset="0" style="stop-color:#143E08"/>
			<stop  offset="1" style="stop-color:#082C04"/>
		</linearGradient>
		<polygon fill="url(#SVGID_28_)" points="2199.824,46.063 1560.589,-1.171 1359.988,-1.171 1212.012,-1.171 943.621,-1.171 
			1336.236,435.965 		"/>
		
			<linearGradient id="SVGID_29_" gradientUnits="userSpaceOnUse" x1="7397.8682" y1="8132.4619" x2="7400.8359" y2="8129.4941" gradientTransform="matrix(438 0 0 -34 -3239181.5 276439.375)">
			<stop  offset="0" style="stop-color:#0E3609"/>
			<stop  offset="1" style="stop-color:#0D2C08"/>
		</linearGradient>
		<polygon fill="url(#SVGID_29_)" points="2236.308,-1.171 2166.95,-1.171 2141.384,-1.171 1794.432,-1.171 1705.534,-1.171 
			1661.584,-1.171 1628.896,-1.171 1573.277,-1.171 1560.589,-1.171 2199.824,46.063 		"/>
		
			<linearGradient id="SVGID_30_" gradientUnits="userSpaceOnUse" x1="7388.4043" y1="8031.9434" x2="7391.3374" y2="8029.0103" gradientTransform="matrix(300 0 0 -64 -2216487.25 513979.375)">
			<stop  offset="0" style="stop-color:#071406"/>
			<stop  offset="1" style="stop-color:#0A2405"/>
		</linearGradient>
		<polygon fill="url(#SVGID_30_)" points="790.321,-1.171 683.25,-1.171 668.826,-1.171 631.492,-1.171 265.543,-1.171 
			107.748,-1.171 95.11,-1.171 494.471,130.824 		"/>
		
			<linearGradient id="SVGID_31_" gradientUnits="userSpaceOnUse" x1="7374.5776" y1="7977.7061" x2="7377.5317" y2="7974.752" gradientTransform="matrix(151 0 0 -123 -1111212.375 981142.375)">
			<stop  offset="0" style="stop-color:#0F2A0D"/>
			<stop  offset="1" style="stop-color:#16450D"/>
		</linearGradient>
		<polygon fill="url(#SVGID_31_)" points="2721.615,-1.171 2701.929,-1.171 2688.894,-1.171 2626.617,-1.171 2571.588,-1.171 
			2541.869,-1.171 2305.323,-1.171 2626.942,300.347 		"/>
		
			<linearGradient id="SVGID_32_" gradientUnits="userSpaceOnUse" x1="7327.2822" y1="7976.793" x2="7330.23" y2="7973.8452" gradientTransform="matrix(66 0 0 -123 -480991.4063 981142.375)">
			<stop  offset="0" style="stop-color:#17470A"/>
			<stop  offset="1" style="stop-color:#082406"/>
		</linearGradient>
		<polygon fill="url(#SVGID_32_)" points="2832.706,178.856 2755.729,-1.171 2721.615,-1.171 2626.942,300.347 		"/>
		
			<linearGradient id="SVGID_33_" gradientUnits="userSpaceOnUse" x1="7398.2241" y1="8007.6777" x2="7401.1079" y2="8004.7939" gradientTransform="matrix(381 0 0 -81 -2816051.25 648585.5)">
			<stop  offset="0" style="stop-color:#0C2909"/>
			<stop  offset="1" style="stop-color:#122F0A"/>
		</linearGradient>
		<polygon fill="url(#SVGID_33_)" points="3691.066,-1.171 2878.779,-1.171 2839.029,-1.171 2755.729,-1.171 2832.706,178.856 		"/>
		
			<linearGradient id="SVGID_34_" gradientUnits="userSpaceOnUse" x1="7397.3105" y1="7962.1621" x2="7400.1997" y2="7959.2729" gradientTransform="matrix(350 0 0 -165 -2586217.25 1313697.375)">
			<stop  offset="0" style="stop-color:#153909"/>
			<stop  offset="1" style="stop-color:#19370B"/>
		</linearGradient>
		<polygon fill="url(#SVGID_34_)" points="2988.589,416.187 3825.919,-1.171 3768.443,-1.171 3765.43,-1.171 3691.066,-1.171 
			2832.706,178.856 		"/>
		
			<linearGradient id="SVGID_35_" gradientUnits="userSpaceOnUse" x1="7311.5425" y1="7967.4316" x2="7314.4663" y2="7964.5078" gradientTransform="matrix(48 0 0 -136 -347188.375 1084363.375)">
			<stop  offset="0" style="stop-color:#634F19"/>
			<stop  offset="1" style="stop-color:#402E0B"/>
		</linearGradient>
		<polygon fill="url(#SVGID_35_)" points="3777.354,879.549 3830.354,1147.96 3840,1109.605 3840,1034.789 3840,831.055 		"/>
		
			<linearGradient id="SVGID_36_" gradientUnits="userSpaceOnUse" x1="7395.2549" y1="7960.7139" x2="7398.2139" y2="7957.7549" gradientTransform="matrix(301 0 0 -164 -2222930.25 1305944.375)">
			<stop  offset="0" style="stop-color:#1E340A"/>
			<stop  offset="1" style="stop-color:#444311"/>
		</linearGradient>
		<polygon fill="url(#SVGID_36_)" points="3777.354,879.549 3840,831.055 3840,731.49 2988.589,416.187 		"/>
		
			<linearGradient id="SVGID_37_" gradientUnits="userSpaceOnUse" x1="7395.2813" y1="7943.5859" x2="7398.3115" y2="7940.5557" gradientTransform="matrix(301 0 0 -288 -2222930.25 2287611.25)">
			<stop  offset="0" style="stop-color:#132F0A"/>
			<stop  offset="1" style="stop-color:#2A380B"/>
		</linearGradient>
		<polygon fill="url(#SVGID_37_)" points="3840,731.49 3840,623.23 3840,575.077 3840,520.73 3840,467.565 3840,411.286 
			3840,405.222 3840,400.554 3840,12.893 3840,-1.171 3825.919,-1.171 2988.589,416.187 		"/>
		
			<linearGradient id="SVGID_38_" gradientUnits="userSpaceOnUse" x1="7393.8623" y1="7978.9482" x2="7396.834" y2="7975.9766" gradientTransform="matrix(269 0 0 -108 -1985682.25 862791.4375)">
			<stop  offset="0" style="stop-color:#1D3410"/>
			<stop  offset="1" style="stop-color:#4B3F1B"/>
		</linearGradient>
		<polygon fill="url(#SVGID_38_)" points="3088.353,1136.658 3840,1410.144 3840,1332.665 3840,1294.609 3840,1272.436 
			3840,1261.255 3840,1177.29 3830.354,1147.96 		"/>
		
			<linearGradient id="SVGID_39_" gradientUnits="userSpaceOnUse" x1="7256.7007" y1="7945.5078" x2="7259.7295" y2="7942.479" gradientTransform="matrix(31 0 0 -240 -221150.3594 1907835.375)">
			<stop  offset="0" style="stop-color:#745A12"/>
			<stop  offset="1" style="stop-color:#A68122"/>
		</linearGradient>
		<polygon fill="url(#SVGID_39_)" points="3840,1177.29 3840,1109.605 3830.354,1147.96 		"/>
		
			<linearGradient id="SVGID_40_" gradientUnits="userSpaceOnUse" x1="7393.3115" y1="8144.5615" x2="7396.251" y2="8141.6221" gradientTransform="matrix(289 0 0 -26 -2134185.25 213860.3594)">
			<stop  offset="0" style="stop-color:#2F3635"/>
			<stop  offset="1" style="stop-color:#343B3A"/>
		</linearGradient>
		<polygon fill="url(#SVGID_40_)" points="3097.706,2111.414 2604.735,2158.632 2687.251,2158.632 2749.177,2158.632 
			3231.765,2128.365 		"/>
		
			<linearGradient id="SVGID_41_" gradientUnits="userSpaceOnUse" x1="7401.7651" y1="8211.7188" x2="7404.6924" y2="8208.792" gradientTransform="matrix(505 0 0 -20 -3735393.5 166358.3594)">
			<stop  offset="0" style="stop-color:#283233"/>
			<stop  offset="1" style="stop-color:#323836"/>
		</linearGradient>
		<polygon fill="url(#SVGID_41_)" points="2749.177,2158.632 3247.879,2158.632 3410.818,2158.632 3435.02,2158.632 
			3682.631,2158.632 3231.765,2128.365 		"/>
		
			<linearGradient id="SVGID_42_" gradientUnits="userSpaceOnUse" x1="7367.7515" y1="7950.5293" x2="7370.7944" y2="7947.4863" gradientTransform="matrix(165 0 0 -210 -1215736.375 1670245.375)">
			<stop  offset="0" style="stop-color:#121A0B"/>
			<stop  offset="1" style="stop-color:#1C220C"/>
		</linearGradient>
		<polygon fill="url(#SVGID_42_)" points="0,641.421 0,713.657 0,724.022 0,739.977 0,929.279 0,944.101 0,1138.947 0,1153.762 
			0,1167.57 0,1181.542 466.412,825.867 		"/>
		
			<linearGradient id="SVGID_43_" gradientUnits="userSpaceOnUse" x1="7367.8447" y1="7967.3896" x2="7370.7803" y2="7964.4541" gradientTransform="matrix(165 0 0 -141 -1215736.375 1123834.375)">
			<stop  offset="0" style="stop-color:#171705"/>
			<stop  offset="1" style="stop-color:#202109"/>
		</linearGradient>
		<polygon fill="url(#SVGID_43_)" points="154.647,427.489 0,576.263 0,641.421 466.412,825.867 		"/>
		
			<linearGradient id="SVGID_44_" gradientUnits="userSpaceOnUse" x1="7298.0923" y1="7948.624" x2="7301.0845" y2="7945.6318" gradientTransform="matrix(65 0 0 -236 -474436.4063 1875877.375)">
			<stop  offset="0" style="stop-color:#030704"/>
			<stop  offset="1" style="stop-color:#0B0F06"/>
		</linearGradient>
		<polygon fill="url(#SVGID_44_)" points="0,43.801 0,66.64 0,479.423 0,576.263 154.647,427.489 		"/>
		
			<linearGradient id="SVGID_45_" gradientUnits="userSpaceOnUse" x1="7393.3345" y1="7946.1338" x2="7396.2266" y2="7943.2417" gradientTransform="matrix(316 0 0 -236 -2334546.25 1876256.375)">
			<stop  offset="0" style="stop-color:#5C7027"/>
			<stop  offset="1" style="stop-color:#5A6347"/>
		</linearGradient>
		<polygon fill="url(#SVGID_45_)" points="1676.059,1224.245 1881.824,1693.258 2661.236,1026.469 		"/>
		
			<linearGradient id="SVGID_46_" gradientUnits="userSpaceOnUse" x1="7379.334" y1="7941.2539" x2="7382.2832" y2="7938.3047" gradientTransform="matrix(208 0 0 -295 -1534330.375 2343347.25)">
			<stop  offset="0" style="stop-color:#34300E"/>
			<stop  offset="1" style="stop-color:#465516"/>
		</linearGradient>
		<polygon fill="url(#SVGID_46_)" points="466.412,825.867 943.412,1659.353 1114.883,995.39 		"/>
		
			<linearGradient id="SVGID_47_" gradientUnits="userSpaceOnUse" x1="7390.5693" y1="7951.8369" x2="7393.6475" y2="7948.7588" gradientTransform="matrix(301 0 0 -183 -2223586.25 1456826.375)">
			<stop  offset="0" style="stop-color:#4A6334"/>
			<stop  offset="1" style="stop-color:#75844B"/>
		</linearGradient>
		<polygon fill="url(#SVGID_47_)" points="943.412,1659.353 1009.644,2158.632 1043.984,2158.632 1881.824,1693.258 		"/>
		
			<linearGradient id="SVGID_48_" gradientUnits="userSpaceOnUse" x1="7383.9756" y1="7945.9121" x2="7387.0024" y2="7942.8853" gradientTransform="matrix(235 0 0 -235 -1734328.375 1868327.375)">
			<stop  offset="0" style="stop-color:#5D6F1D"/>
			<stop  offset="1" style="stop-color:#7E8E2B"/>
		</linearGradient>
		<polygon fill="url(#SVGID_48_)" points="1114.883,995.39 943.412,1659.353 1676.059,1224.245 		"/>
		
			<linearGradient id="SVGID_49_" gradientUnits="userSpaceOnUse" x1="7389.5303" y1="7940.8848" x2="7392.5464" y2="7937.8687" gradientTransform="matrix(317 0 0 -295 -2342511.25 2343347.25)">
			<stop  offset="0" style="stop-color:#1C1F0B"/>
			<stop  offset="1" style="stop-color:#474917"/>
		</linearGradient>
		<polygon fill="url(#SVGID_49_)" points="466.412,825.867 0,1181.542 0,1193.681 0,1235.913 943.412,1659.353 		"/>
		
			<linearGradient id="SVGID_50_" gradientUnits="userSpaceOnUse" x1="7389.0513" y1="7949.0781" x2="7392.042" y2="7946.0874" gradientTransform="matrix(317 0 0 -205 -2342511.25 1630865.375)">
			<stop  offset="0" style="stop-color:#3D5D13"/>
			<stop  offset="1" style="stop-color:#5A701F"/>
		</linearGradient>
		<polygon fill="url(#SVGID_50_)" points="0,1235.913 0,1794.794 943.412,1659.353 		"/>
		
			<linearGradient id="SVGID_51_" gradientUnits="userSpaceOnUse" x1="7390.5112" y1="7956.7383" x2="7393.3892" y2="7953.8604" gradientTransform="matrix(301 0 0 -166 -2223586.25 1322066.375)">
			<stop  offset="0" style="stop-color:#75A520"/>
			<stop  offset="1" style="stop-color:#87954B"/>
		</linearGradient>
		<polygon fill="url(#SVGID_51_)" points="943.412,1659.353 1881.824,1693.258 1676.059,1224.245 		"/>
		
			<linearGradient id="SVGID_52_" gradientUnits="userSpaceOnUse" x1="7390.2617" y1="8038.4395" x2="7393.2231" y2="8035.478" gradientTransform="matrix(330 0 0 -49 -2438871.25 395956.375)">
			<stop  offset="0" style="stop-color:#4C4F50"/>
			<stop  offset="1" style="stop-color:#5A5E61"/>
		</linearGradient>
		<polygon fill="url(#SVGID_52_)" points="64.083,2158.632 83.598,2158.632 367.405,2158.632 594.848,2158.632 718.219,2158.632 
			896.774,2158.632 260.647,2060.557 		"/>
		
			<linearGradient id="SVGID_53_" gradientUnits="userSpaceOnUse" x1="7388.7705" y1="7961.7744" x2="7391.6821" y2="7958.8628" gradientTransform="matrix(303 0 0 -142 -2238715.25 1132188.375)">
			<stop  offset="0" style="stop-color:#335314"/>
			<stop  offset="1" style="stop-color:#698145"/>
		</linearGradient>
		<polygon fill="url(#SVGID_53_)" points="943.412,1659.353 0,1794.794 0,1796.224 260.647,2060.557 		"/>
		
			<linearGradient id="SVGID_54_" gradientUnits="userSpaceOnUse" x1="7382.9956" y1="7951.9844" x2="7386.0601" y2="7948.9199" gradientTransform="matrix(241 0 0 -183 -1779025.375 1456826.375)">
			<stop  offset="0" style="stop-color:#666B4E"/>
			<stop  offset="1" style="stop-color:#5E636D"/>
		</linearGradient>
		<polygon fill="url(#SVGID_54_)" points="260.647,2060.557 896.774,2158.632 1009.644,2158.632 943.412,1659.353 		"/>
		
			<linearGradient id="SVGID_55_" gradientUnits="userSpaceOnUse" x1="7334.7949" y1="8039.2598" x2="7338.0811" y2="8035.9736" gradientTransform="matrix(95 0 0 -49 -696822.5 395956.375)">
			<stop  offset="0" style="stop-color:#767A7C"/>
			<stop  offset="1" style="stop-color:#686D6F"/>
		</linearGradient>
		<polygon fill="url(#SVGID_55_)" points="3.623,2158.632 32.015,2158.632 64.083,2158.632 260.647,2060.557 		"/>
		
			<linearGradient id="SVGID_56_" gradientUnits="userSpaceOnUse" x1="7334.3057" y1="7963.1045" x2="7337.2939" y2="7960.1162" gradientTransform="matrix(95 0 0 -134 -696822.5 1068892.375)">
			<stop  offset="0" style="stop-color:#697C51"/>
			<stop  offset="1" style="stop-color:#51603D"/>
		</linearGradient>
		<polygon fill="url(#SVGID_56_)" points="0,1796.224 0,2027.835 0,2158.632 3.623,2158.632 260.647,2060.557 		"/>
		
			<linearGradient id="SVGID_57_" gradientUnits="userSpaceOnUse" x1="7394.7935" y1="7953.8281" x2="7397.7202" y2="7950.9014" gradientTransform="matrix(370 0 0 -171 -2735061.25 1361822.375)">
			<stop  offset="0" style="stop-color:#464B54"/>
			<stop  offset="1" style="stop-color:#575B66"/>
		</linearGradient>
		<polygon fill="url(#SVGID_57_)" points="1881.824,1693.258 1043.984,2158.632 1090.838,2158.632 2165.53,1916.462 		"/>
		
			<linearGradient id="SVGID_58_" gradientUnits="userSpaceOnUse" x1="7397.2803" y1="7981.208" x2="7400.1382" y2="7978.3501" gradientTransform="matrix(423 0 0 -95 -3127950.25 760133.5)">
			<stop  offset="0" style="stop-color:#848682"/>
			<stop  offset="1" style="stop-color:#656B6C"/>
		</linearGradient>
		<polygon fill="url(#SVGID_58_)" points="1090.838,2158.632 1579.171,2158.632 1639.967,2158.632 1793.816,2158.632 
			1951.301,2158.632 2314.611,2158.632 2165.53,1916.462 		"/>
		
			<linearGradient id="SVGID_59_" gradientUnits="userSpaceOnUse" x1="7388.6021" y1="7939.2119" x2="7391.6006" y2="7936.2134" gradientTransform="matrix(250 0 0 -315 -1845222.375 2501778.25)">
			<stop  offset="0" style="stop-color:#5F6262"/>
			<stop  offset="1" style="stop-color:#293F2B"/>
		</linearGradient>
		<polygon fill="url(#SVGID_59_)" points="1881.824,1693.258 2165.53,1916.462 2661.236,1026.469 		"/>
		
			<linearGradient id="SVGID_60_" gradientUnits="userSpaceOnUse" x1="7394.2202" y1="7953.3936" x2="7397.2231" y2="7950.3906" gradientTransform="matrix(292 0 0 -182 -2156204.25 1448723.375)">
			<stop  offset="0" style="stop-color:#4A5D27"/>
			<stop  offset="1" style="stop-color:#9FA257"/>
		</linearGradient>
		<polygon fill="url(#SVGID_60_)" points="3016.647,1650.876 3840,1461.78 3840,1410.144 3088.353,1136.658 		"/>
		
			<linearGradient id="SVGID_61_" gradientUnits="userSpaceOnUse" x1="7334.7871" y1="7954.2441" x2="7337.7588" y2="7951.2725" gradientTransform="matrix(69 0 0 -169 -503105.375 1345971.375)">
			<stop  offset="0" style="stop-color:#263136"/>
			<stop  offset="1" style="stop-color:#516A50"/>
		</linearGradient>
		<polygon fill="url(#SVGID_61_)" points="3231.765,2128.365 3016.647,1650.876 3097.706,2111.414 		"/>
		
			<linearGradient id="SVGID_62_" gradientUnits="userSpaceOnUse" x1="7372.6006" y1="7948.3789" x2="7375.5586" y2="7945.4209" gradientTransform="matrix(137 0 0 -221 -1007303.375 1757486.375)">
			<stop  offset="0" style="stop-color:#2F6211"/>
			<stop  offset="1" style="stop-color:#5B8D37"/>
		</linearGradient>
		<polygon fill="url(#SVGID_62_)" points="3016.647,1650.876 3088.353,1136.658 2661.236,1026.469 		"/>
		
			<linearGradient id="SVGID_63_" gradientUnits="userSpaceOnUse" x1="7377.2446" y1="7981.5566" x2="7380.1411" y2="7978.6602" gradientTransform="matrix(165 0 0 -95 -1215026.375 760133.5)">
			<stop  offset="0" style="stop-color:#303A44"/>
			<stop  offset="1" style="stop-color:#313A3F"/>
		</linearGradient>
		<polygon fill="url(#SVGID_63_)" points="2165.53,1916.462 2314.611,2158.632 2367.205,2158.632 2679.942,1933.415 		"/>
		
			<linearGradient id="SVGID_64_" gradientUnits="userSpaceOnUse" x1="7376.8882" y1="7938.6504" x2="7379.9473" y2="7935.5913" gradientTransform="matrix(165 0 0 -321 -1215026.375 2549286.25)">
			<stop  offset="0" style="stop-color:#5D814C"/>
			<stop  offset="1" style="stop-color:#466D32"/>
		</linearGradient>
		<polygon fill="url(#SVGID_64_)" points="2165.53,1916.462 2679.942,1933.415 2661.236,1026.469 		"/>
		
			<linearGradient id="SVGID_65_" gradientUnits="userSpaceOnUse" x1="7389.0537" y1="7985.0908" x2="7392.0063" y2="7982.1382" gradientTransform="matrix(246 0 0 -89 -1815426.375 712631.5)">
			<stop  offset="0" style="stop-color:#3B4242"/>
			<stop  offset="1" style="stop-color:#283134"/>
		</linearGradient>
		<polygon fill="url(#SVGID_65_)" points="2679.942,1933.415 2367.205,2158.632 2542.719,2158.632 2604.735,2158.632 
			3097.706,2111.414 		"/>
		
			<linearGradient id="SVGID_66_" gradientUnits="userSpaceOnUse" x1="7363.3623" y1="7938.1318" x2="7366.3608" y2="7935.1333" gradientTransform="matrix(114 0 0 -321 -836804.4375 2549286.25)">
			<stop  offset="0" style="stop-color:#828D5E"/>
			<stop  offset="1" style="stop-color:#8D9A76"/>
		</linearGradient>
		<polygon fill="url(#SVGID_66_)" points="2679.942,1933.415 3016.647,1650.876 2661.236,1026.469 		"/>
		
			<linearGradient id="SVGID_67_" gradientUnits="userSpaceOnUse" x1="7371.312" y1="7956.1641" x2="7374.3481" y2="7953.1279" gradientTransform="matrix(134 0 0 -163 -985058.375 1298463.375)">
			<stop  offset="0" style="stop-color:#60804C"/>
			<stop  offset="1" style="stop-color:#1D2825"/>
		</linearGradient>
		<polygon fill="url(#SVGID_67_)" points="3097.706,2111.414 3016.647,1650.876 2679.942,1933.415 		"/>
		
			<linearGradient id="SVGID_68_" gradientUnits="userSpaceOnUse" x1="7388.7085" y1="7970.8535" x2="7391.6187" y2="7967.9434" gradientTransform="matrix(216 0 0 -114 -1592747.375 910552.4375)">
			<stop  offset="0" style="stop-color:#232D28"/>
			<stop  offset="1" style="stop-color:#1F321E"/>
		</linearGradient>
		<polygon fill="url(#SVGID_68_)" points="3231.765,2128.365 3682.631,2158.632 3725.12,2158.632 3830.779,2158.632 3840,2158.632 
			3840,2130.853 3840,2097.053 3630.824,1851.479 		"/>
		
			<linearGradient id="SVGID_69_" gradientUnits="userSpaceOnUse" x1="7358.9243" y1="7971.4658" x2="7361.8936" y2="7968.4966" gradientTransform="matrix(91 0 0 -114 -665994.5 910552.4375)">
			<stop  offset="0" style="stop-color:#183415"/>
			<stop  offset="1" style="stop-color:#133711"/>
		</linearGradient>
		<polygon fill="url(#SVGID_69_)" points="3840,2097.053 3840,1928.555 3630.824,1851.479 		"/>
		
			<linearGradient id="SVGID_70_" gradientUnits="userSpaceOnUse" x1="7360.5396" y1="7952.6084" x2="7363.606" y2="7949.542" gradientTransform="matrix(95 0 0 -182 -695646.5 1448831.375)">
			<stop  offset="0" style="stop-color:#2E4F12"/>
			<stop  offset="1" style="stop-color:#5F7320"/>
		</linearGradient>
		<polygon fill="url(#SVGID_70_)" points="3840,1928.555 3840,1562.14 3630.824,1851.479 		"/>
		
			<linearGradient id="SVGID_71_" gradientUnits="userSpaceOnUse" x1="7385.7651" y1="7954.6084" x2="7388.7964" y2="7951.5771" gradientTransform="matrix(197 0 0 -169 -1451969.375 1345971.375)">
			<stop  offset="0" style="stop-color:#688E54"/>
			<stop  offset="1" style="stop-color:#1D3921"/>
		</linearGradient>
		<polygon fill="url(#SVGID_71_)" points="3630.824,1851.479 3016.647,1650.876 3231.765,2128.365 		"/>
		
			<linearGradient id="SVGID_72_" gradientUnits="userSpaceOnUse" x1="7394.8608" y1="7961.8955" x2="7397.8555" y2="7958.9009" gradientTransform="matrix(292 0 0 -145 -2156204.25 1155865.375)">
			<stop  offset="0" style="stop-color:#678C4E"/>
			<stop  offset="1" style="stop-color:#545E21"/>
		</linearGradient>
		<polygon fill="url(#SVGID_72_)" points="3630.824,1851.479 3840,1562.14 3840,1461.78 3016.647,1650.876 		"/>
	</g>
</g>
<g id="Layer_2">
</g>
<g id="Layer_3">
</g>
<g id="Layer_4">
</g>
<g id="Layer_5">
</g>
<g id="Layer_6">
</g>
<g id="Layer_7">
</g>
<g id="Layer_8">
</g>
<g id="Layer_9">
</g>
<g id="Layer_10">
</g>
<g id="Layer_11">
</g>
<g id="Layer_12">
</g>
<g id="Layer_13">
</g>
<g id="Layer_14">
</g>
<g id="Layer_15">
</g>
<g id="Layer_16">
</g>
<g id="Layer_17">
</g>
<g id="Layer_18">
</g>
<g id="Layer_19">
</g>
<g id="Layer_20">
</g>
<g id="Layer_21">
</g>
<g id="Layer_22">
</g>
<g id="Layer_23">
</g>
<g id="Layer_24">
</g>
<g id="Layer_25">
</g>
</svg>
