<?xml version="1.0" encoding="utf-8"?>
<!-- Generator: Adobe Illustrator 16.0.0, SVG Export Plug-In . SVG Version: 6.00 Build 0)  -->
<!DOCTYPE svg PUBLIC "-//W3C//DTD SVG 1.1//EN" "http://www.w3.org/Graphics/SVG/1.1/DTD/svg11.dtd">
<svg version="1.1" xmlns="http://www.w3.org/2000/svg" xmlns:xlink="http://www.w3.org/1999/xlink" x="0px" y="0px" width="3840px"
	 height="2160px" viewBox="0 0 3840 2160" enable-background="new 0 0 3840 2160" xml:space="preserve">
<g id="Layer_1">
</g>
<g id="Layer_2">
</g>
<g id="Layer_3">
</g>
<g id="Layer_4">
</g>
<g id="Layer_5">
</g>
<g id="Layer_6">
</g>
<g id="Layer_7">
</g>
<g id="Layer_8">
</g>
<g id="Layer_9">
</g>
<g id="Layer_10">
</g>
<g id="Layer_11">
</g>
<g id="Layer_12">
</g>
<g id="Layer_13">
</g>
<g id="Layer_14">
</g>
<g id="Layer_15">
</g>
<g id="Layer_16">
</g>
<g id="Layer_17">
</g>
<g id="Layer_18">
</g>
<g id="Layer_19">
	<g>
		
			<linearGradient id="SVGID_1_" gradientUnits="userSpaceOnUse" x1="-304.5659" y1="-806.0732" x2="-302.8233" y2="-807.8159" gradientTransform="matrix(397 0 0 -407 122740.75 -327770.5)">
			<stop  offset="0" style="stop-color:#4F5E0C"/>
			<stop  offset="1" style="stop-color:#495207"/>
		</linearGradient>
		<polygon fill="url(#SVGID_1_)" points="2277.018,270.709 1767.834,732.602 2376.71,1157.456 		"/>
		
			<linearGradient id="SVGID_2_" gradientUnits="userSpaceOnUse" x1="-306.7993" y1="-823.6572" x2="-304.9522" y2="-825.5043" gradientTransform="matrix(403 0 0 -109 123413.75 -88198.5625)">
			<stop  offset="0" style="stop-color:#5D5B06"/>
			<stop  offset="1" style="stop-color:#4B4D02"/>
		</linearGradient>
		<polygon fill="url(#SVGID_2_)" points="593.029,1750.073 0.002,1534.756 0.002,1598.842 56.238,1763.145 		"/>
		
			<linearGradient id="SVGID_3_" gradientUnits="userSpaceOnUse" x1="-305.0381" y1="-808.6631" x2="-303.2449" y2="-810.4563" gradientTransform="matrix(397 0 0 -296 122740.75 -238536.75)">
			<stop  offset="0" style="stop-color:#4A4D05"/>
			<stop  offset="1" style="stop-color:#353904"/>
		</linearGradient>
		<polygon fill="url(#SVGID_3_)" points="2376.71,1157.456 1767.834,732.602 2083.773,1377.508 		"/>
		
			<linearGradient id="SVGID_4_" gradientUnits="userSpaceOnUse" x1="-302.1289" y1="-809.457" x2="-300.3437" y2="-811.2422" gradientTransform="matrix(218 0 0 -280 67993.625 -225509.75)">
			<stop  offset="0" style="stop-color:#3F4306"/>
			<stop  offset="1" style="stop-color:#404C06"/>
		</linearGradient>
		<polygon fill="url(#SVGID_4_)" points="2083.773,1377.508 2418.117,1767.502 2376.71,1157.456 		"/>
		
			<linearGradient id="SVGID_5_" gradientUnits="userSpaceOnUse" x1="-303.3999" y1="-806.5313" x2="-301.5854" y2="-808.3457" gradientTransform="matrix(333 0 0 -380 103961.75 -306190.75)">
			<stop  offset="0" style="stop-color:#0D0C02"/>
			<stop  offset="1" style="stop-color:#0C0D03"/>
		</linearGradient>
		<polygon fill="url(#SVGID_5_)" points="3611.326,667.239 3165.023,109.482 3100.609,937.404 		"/>
		
			<linearGradient id="SVGID_6_" gradientUnits="userSpaceOnUse" x1="-303.7231" y1="-812.0107" x2="-301.8658" y2="-813.868" gradientTransform="matrix(411 0 0 -185 127907.75 -149544.625)">
			<stop  offset="0" style="stop-color:#0B1101"/>
			<stop  offset="1" style="stop-color:#0C1403"/>
		</linearGradient>
		<polygon fill="url(#SVGID_6_)" points="3730.955,1070.307 3611.326,667.239 3100.609,937.404 		"/>
		
			<linearGradient id="SVGID_7_" gradientUnits="userSpaceOnUse" x1="-304.7275" y1="-809.7266" x2="-302.69" y2="-811.7641" gradientTransform="matrix(452 0 0 -280 140022.5 -225509.75)">
			<stop  offset="0" style="stop-color:#414706"/>
			<stop  offset="1" style="stop-color:#2F3A04"/>
		</linearGradient>
		<polygon fill="url(#SVGID_7_)" points="2418.117,1767.502 3069.936,1227.176 2376.71,1157.456 		"/>
		
			<linearGradient id="SVGID_8_" gradientUnits="userSpaceOnUse" x1="-304.2612" y1="-817.3545" x2="-302.518" y2="-819.0977" gradientTransform="matrix(431 0 0 -133 134027.5 -107716.625)">
			<stop  offset="0" style="stop-color:#0B0901"/>
			<stop  offset="1" style="stop-color:#0C0D03"/>
		</linearGradient>
		<polygon fill="url(#SVGID_8_)" points="3100.609,937.404 3069.936,1227.176 3730.955,1070.307 		"/>
		
			<linearGradient id="SVGID_9_" gradientUnits="userSpaceOnUse" x1="-302.9863" y1="-808.7275" x2="-301.1301" y2="-810.5837" gradientTransform="matrix(206 0 0 -296 64103.625 -238536.75)">
			<stop  offset="0" style="stop-color:#545809"/>
			<stop  offset="1" style="stop-color:#3E4607"/>
		</linearGradient>
		<polygon fill="url(#SVGID_9_)" points="1767.834,732.602 1864.457,1327.396 2083.773,1377.508 		"/>
		
			<linearGradient id="SVGID_10_" gradientUnits="userSpaceOnUse" x1="-306.5903" y1="-806.917" x2="-304.4855" y2="-809.0218" gradientTransform="matrix(672 0 0 -377 206556 -303498.75)">
			<stop  offset="0" style="stop-color:#342D02"/>
			<stop  offset="1" style="stop-color:#454B04"/>
		</linearGradient>
		<polygon fill="url(#SVGID_10_)" points="833.818,1553.986 1864.457,1327.396 1767.834,732.602 		"/>
		
			<linearGradient id="SVGID_11_" gradientUnits="userSpaceOnUse" x1="-302.3467" y1="-806.9834" x2="-300.466" y2="-808.864" gradientTransform="matrix(291 0 0 -303 91109.75 -244483.75)">
			<stop  offset="0" style="stop-color:#0C0C03"/>
			<stop  offset="1" style="stop-color:#121003"/>
		</linearGradient>
		<polygon fill="url(#SVGID_11_)" points="3227.904,7.082 3165.023,109.482 3611.326,667.239 		"/>
		
			<linearGradient id="SVGID_12_" gradientUnits="userSpaceOnUse" x1="-306.0107" y1="-808.2129" x2="-304.1357" y2="-810.088" gradientTransform="matrix(672 0 0 -352 206556 -283175.75)">
			<stop  offset="0" style="stop-color:#989531"/>
			<stop  offset="1" style="stop-color:#A7A535"/>
		</linearGradient>
		<polygon fill="url(#SVGID_12_)" points="1479.5,2094.314 1864.457,1327.396 833.818,1553.986 		"/>
		
			<linearGradient id="SVGID_13_" gradientUnits="userSpaceOnUse" x1="-300.4854" y1="-808.9092" x2="-298.481" y2="-810.9135" gradientTransform="matrix(143 0 0 -321 44825.625 -258313.75)">
			<stop  offset="0" style="stop-color:#5B6B09"/>
			<stop  offset="1" style="stop-color:#83821F"/>
		</linearGradient>
		<polygon fill="url(#SVGID_13_)" points="1864.457,1327.396 1945.742,2026.773 2083.773,1377.508 		"/>
		
			<linearGradient id="SVGID_14_" gradientUnits="userSpaceOnUse" x1="-304.3335" y1="-809.8604" x2="-302.5037" y2="-811.6901" gradientTransform="matrix(308 0 0 -298 95533.75 -239844.75)">
			<stop  offset="0" style="stop-color:#726F1F"/>
			<stop  offset="1" style="stop-color:#93932E"/>
		</linearGradient>
		<polygon fill="url(#SVGID_14_)" points="1945.742,2026.773 2418.117,1767.502 2083.773,1377.508 		"/>
		
			<linearGradient id="SVGID_15_" gradientUnits="userSpaceOnUse" x1="-303.71" y1="-808.21" x2="-301.8942" y2="-810.0258" gradientTransform="matrix(447 0 0 -323 138939.5 -260035.75)">
			<stop  offset="0" style="stop-color:#171D05"/>
			<stop  offset="1" style="stop-color:#243105"/>
		</linearGradient>
		<polygon fill="url(#SVGID_15_)" points="3069.936,1227.176 3755.492,1774.039 3730.955,1070.307 		"/>
		
			<linearGradient id="SVGID_16_" gradientUnits="userSpaceOnUse" x1="-305.5947" y1="-805.9004" x2="-303.7385" y2="-807.7566" gradientTransform="matrix(296 0 0 -381 90749.75 -307000.75)">
			<stop  offset="0" style="stop-color:#E0D684"/>
			<stop  offset="1" style="stop-color:#C4BA55"/>
		</linearGradient>
		<polygon fill="url(#SVGID_16_)" points="258.686,92.053 712.656,922.152 660.512,183.559 		"/>
		
			<linearGradient id="SVGID_17_" gradientUnits="userSpaceOnUse" x1="-304.2827" y1="-807.4678" x2="-302.3603" y2="-809.3902" gradientTransform="matrix(157 0 0 -380 48294.625 -305817.75)">
			<stop  offset="0" style="stop-color:#6F6A06"/>
			<stop  offset="1" style="stop-color:#6D6311"/>
		</linearGradient>
		<polygon fill="url(#SVGID_17_)" points="593.029,1750.073 833.818,1553.986 712.656,922.152 		"/>
		
			<linearGradient id="SVGID_18_" gradientUnits="userSpaceOnUse" x1="-304.666" y1="-806.8564" x2="-302.5999" y2="-808.9225" gradientTransform="matrix(206 0 0 -339 63381.625 -273274.75)">
			<stop  offset="0" style="stop-color:#ACA343"/>
			<stop  offset="1" style="stop-color:#BFB636"/>
		</linearGradient>
		<polygon fill="url(#SVGID_18_)" points="660.512,183.559 712.656,922.152 976.451,314.283 		"/>
		
			<linearGradient id="SVGID_19_" gradientUnits="userSpaceOnUse" x1="-306.3237" y1="-807.1064" x2="-304.2288" y2="-809.2014" gradientTransform="matrix(688 0 0 -377 211389 -303498.75)">
			<stop  offset="0" style="stop-color:#807D1B"/>
			<stop  offset="1" style="stop-color:#9F9D20"/>
		</linearGradient>
		<polygon fill="url(#SVGID_19_)" points="712.656,922.152 833.818,1553.986 1767.834,732.602 		"/>
		
			<linearGradient id="SVGID_20_" gradientUnits="userSpaceOnUse" x1="-306.7036" y1="-808.3271" x2="-304.8613" y2="-810.1695" gradientTransform="matrix(688 0 0 -279 211389 -225094.75)">
			<stop  offset="0" style="stop-color:#EAE878"/>
			<stop  offset="1" style="stop-color:#ABA93B"/>
		</linearGradient>
		<polygon fill="url(#SVGID_20_)" points="976.451,314.283 712.656,922.152 1767.834,732.602 		"/>
		
			<linearGradient id="SVGID_21_" gradientUnits="userSpaceOnUse" x1="-306.2871" y1="-807.3496" x2="-304.5466" y2="-809.0901" gradientTransform="matrix(481 0 0 -380 147359.5 -305817.75)">
			<stop  offset="0" style="stop-color:#8C8609"/>
			<stop  offset="1" style="stop-color:#9B9410"/>
		</linearGradient>
		<polygon fill="url(#SVGID_21_)" points="712.656,922.152 0.002,1505.171 0.002,1534.756 593.029,1750.073 		"/>
		
			<linearGradient id="SVGID_22_" gradientUnits="userSpaceOnUse" x1="-304.6729" y1="-806.3926" x2="-302.9122" y2="-808.1533" gradientTransform="matrix(398 0 0 -407 123379.75 -327770.5)">
			<stop  offset="0" style="stop-color:#5E700B"/>
			<stop  offset="1" style="stop-color:#3A4305"/>
		</linearGradient>
		<polygon fill="url(#SVGID_22_)" points="2887.426,752.21 2277.018,270.709 2376.71,1157.456 		"/>
		
			<linearGradient id="SVGID_23_" gradientUnits="userSpaceOnUse" x1="-304.8955" y1="-810.6543" x2="-302.8512" y2="-812.6986" gradientTransform="matrix(452 0 0 -218 140022.5 -175971.625)">
			<stop  offset="0" style="stop-color:#323D04"/>
			<stop  offset="1" style="stop-color:#1A1F03"/>
		</linearGradient>
		<polygon fill="url(#SVGID_23_)" points="2376.71,1157.456 3069.936,1227.176 2887.426,752.21 		"/>
		
			<linearGradient id="SVGID_24_" gradientUnits="userSpaceOnUse" x1="-297.7227" y1="-810.7051" x2="-295.8415" y2="-812.5862" gradientTransform="matrix(139 0 0 -218 44264.625 -175971.625)">
			<stop  offset="0" style="stop-color:#030201"/>
			<stop  offset="1" style="stop-color:#0C0D01"/>
		</linearGradient>
		<polygon fill="url(#SVGID_24_)" points="2887.426,752.21 3069.936,1227.176 3100.609,937.404 		"/>
		
			<linearGradient id="SVGID_25_" gradientUnits="userSpaceOnUse" x1="-299.8271" y1="-806.1455" x2="-297.9889" y2="-807.9838" gradientTransform="matrix(181 0 0 -380 57158.625 -306190.75)">
			<stop  offset="0" style="stop-color:#040300"/>
			<stop  offset="1" style="stop-color:#0F1002"/>
		</linearGradient>
		<polygon fill="url(#SVGID_25_)" points="3165.023,109.482 2887.426,752.21 3100.609,937.404 		"/>
		
			<linearGradient id="SVGID_26_" gradientUnits="userSpaceOnUse" x1="-305.7905" y1="-814.0215" x2="-304.0068" y2="-815.8052" gradientTransform="matrix(186 0 0 -125 56793.625 -101744.625)">
			<stop  offset="0" style="stop-color:#FCFDF4"/>
			<stop  offset="1" style="stop-color:#D5C98D"/>
		</linearGradient>
		<polygon fill="url(#SVGID_26_)" points="258.686,92.053 45.469,0.858 0.002,0.858 0.002,3.397 0.002,66.371 48.57,242.385 		"/>
		
			<linearGradient id="SVGID_27_" gradientUnits="userSpaceOnUse" x1="-305.6738" y1="-806.4258" x2="-303.7189" y2="-808.3807" gradientTransform="matrix(516 0 0 -350 159089.5 -282194.75)">
			<stop  offset="0" style="stop-color:#4D5B06"/>
			<stop  offset="1" style="stop-color:#5C6A0D"/>
		</linearGradient>
		<polygon fill="url(#SVGID_27_)" points="2277.018,270.709 1566.746,0.858 1497.04,0.858 1767.834,732.602 		"/>
		
			<linearGradient id="SVGID_28_" gradientUnits="userSpaceOnUse" x1="-306.5938" y1="-817.1768" x2="-304.6944" y2="-819.0761" gradientTransform="matrix(800 0 0 -98 245477 -80090.5625)">
			<stop  offset="0" style="stop-color:#E0D98A"/>
			<stop  offset="1" style="stop-color:#B3AE52"/>
		</linearGradient>
		<polygon fill="url(#SVGID_28_)" points="660.512,183.559 1366.552,0.858 1359.989,0.858 1212.013,0.858 1175.752,0.858 
			258.686,92.053 		"/>
		
			<linearGradient id="SVGID_29_" gradientUnits="userSpaceOnUse" x1="-306.0146" y1="-811.4541" x2="-304.1598" y2="-813.309" gradientTransform="matrix(538 0 0 -158 165305.5 -128210.625)">
			<stop  offset="0" style="stop-color:#D1CC77"/>
			<stop  offset="1" style="stop-color:#C6C452"/>
		</linearGradient>
		<polygon fill="url(#SVGID_29_)" points="976.451,314.283 1440.056,0.858 1366.552,0.858 660.512,183.559 		"/>
		
			<linearGradient id="SVGID_30_" gradientUnits="userSpaceOnUse" x1="-305.7002" y1="-806.2959" x2="-303.938" y2="-808.0581" gradientTransform="matrix(516 0 0 -350 158757.5 -282194.75)">
			<stop  offset="0" style="stop-color:#847F38"/>
			<stop  offset="1" style="stop-color:#55560A"/>
		</linearGradient>
		<polygon fill="url(#SVGID_30_)" points="1767.834,732.602 1497.04,0.858 1440.056,0.858 976.451,314.283 		"/>
		
			<linearGradient id="SVGID_31_" gradientUnits="userSpaceOnUse" x1="-307.019" y1="-828.46" x2="-304.9427" y2="-830.5364" gradientTransform="matrix(986 0 0 -56 302393 -46406.625)">
			<stop  offset="0" style="stop-color:#CDBE80"/>
			<stop  offset="1" style="stop-color:#CAC78E"/>
		</linearGradient>
		<polygon fill="url(#SVGID_31_)" points="1175.752,0.858 683.251,0.858 668.827,0.858 631.492,0.858 265.544,0.858 107.75,0.858 
			45.469,0.858 258.686,92.053 		"/>
		
			<linearGradient id="SVGID_32_" gradientUnits="userSpaceOnUse" x1="-304.1978" y1="-806.209" x2="-302.4165" y2="-807.9902" gradientTransform="matrix(398 0 0 -355 123379.75 -286200.75)">
			<stop  offset="0" style="stop-color:#3D4909"/>
			<stop  offset="1" style="stop-color:#131403"/>
		</linearGradient>
		<polygon fill="url(#SVGID_32_)" points="2887.426,752.21 2637.13,0.858 2626.618,0.858 2603.064,0.858 2277.018,270.709 		"/>
		
			<linearGradient id="SVGID_33_" gradientUnits="userSpaceOnUse" x1="-303.6118" y1="-806.208" x2="-301.6427" y2="-808.1771" gradientTransform="matrix(349 0 0 -355 108566.75 -286200.75)">
			<stop  offset="0" style="stop-color:#111602"/>
			<stop  offset="1" style="stop-color:#060802"/>
		</linearGradient>
		<polygon fill="url(#SVGID_33_)" points="3165.023,109.482 2720.259,0.858 2701.93,0.858 2688.896,0.858 2637.13,0.858 
			2887.426,752.21 		"/>
		
			<linearGradient id="SVGID_34_" gradientUnits="userSpaceOnUse" x1="-303.8438" y1="-826.4268" x2="-301.9697" y2="-828.3008" gradientTransform="matrix(390 0 0 -60 121153.75 -49610.5938)">
			<stop  offset="0" style="stop-color:#121804"/>
			<stop  offset="1" style="stop-color:#161704"/>
		</linearGradient>
		<polygon fill="url(#SVGID_34_)" points="3227.904,7.082 3096.477,0.858 2878.78,0.858 2839.03,0.858 2720.259,0.858 
			3165.023,109.482 		"/>
		
			<linearGradient id="SVGID_35_" gradientUnits="userSpaceOnUse" x1="-305.877" y1="-812.5742" x2="-303.962" y2="-814.4892" gradientTransform="matrix(746 0 0 -138 229699 -112170.625)">
			<stop  offset="0" style="stop-color:#4E540A"/>
			<stop  offset="1" style="stop-color:#2D3706"/>
		</linearGradient>
		<polygon fill="url(#SVGID_35_)" points="2603.064,0.858 2571.589,0.858 2541.87,0.858 2166.951,0.858 2141.385,0.858 
			1794.433,0.858 1705.535,0.858 1661.585,0.858 1628.897,0.858 1573.278,0.858 1566.746,0.858 2277.018,270.709 		"/>
		
			<linearGradient id="SVGID_36_" gradientUnits="userSpaceOnUse" x1="-306.4697" y1="-814.3291" x2="-304.1897" y2="-816.6091" gradientTransform="matrix(403 0 0 -198 123413.75 -159473.625)">
			<stop  offset="0" style="stop-color:#393A0F"/>
			<stop  offset="1" style="stop-color:#4A4B0A"/>
		</linearGradient>
		<polygon fill="url(#SVGID_36_)" points="56.238,1763.145 0.002,2052.56 0.002,2160.663 4.756,2160.663 593.029,1750.073 		"/>
		
			<linearGradient id="SVGID_37_" gradientUnits="userSpaceOnUse" x1="-301.8057" y1="-809.7949" x2="-300.1004" y2="-811.5001" gradientTransform="matrix(53 0 0 -301 15963.625 -242182.75)">
			<stop  offset="0" style="stop-color:#494906"/>
			<stop  offset="1" style="stop-color:#121502"/>
		</linearGradient>
		<polygon fill="url(#SVGID_37_)" points="0.002,1598.842 0.002,2029.866 0.002,2052.56 56.238,1763.145 		"/>
		
			<linearGradient id="SVGID_38_" gradientUnits="userSpaceOnUse" x1="-306.877" y1="-806.3096" x2="-304.942" y2="-808.2445" gradientTransform="matrix(487 0 0 -381 149195.5 -307000.75)">
			<stop  offset="0" style="stop-color:#E6E0A3"/>
			<stop  offset="1" style="stop-color:#989143"/>
		</linearGradient>
		<polygon fill="url(#SVGID_38_)" points="258.686,92.053 0.002,815.479 0.002,911.758 712.656,922.152 		"/>
		
			<linearGradient id="SVGID_39_" gradientUnits="userSpaceOnUse" x1="-305.7617" y1="-805.9521" x2="-303.2413" y2="-808.4726" gradientTransform="matrix(191 0 0 -376 58323.625 -302990.75)">
			<stop  offset="0" style="stop-color:#F4EDAB"/>
			<stop  offset="1" style="stop-color:#A9A158"/>
		</linearGradient>
		<polygon fill="url(#SVGID_39_)" points="48.57,242.385 0.002,634.649 0.002,715.687 0.002,726.052 0.002,742.007 0.002,815.479 
			258.686,92.053 		"/>
		
			<linearGradient id="SVGID_40_" gradientUnits="userSpaceOnUse" x1="-301.8403" y1="-805.3818" x2="-300.1385" y2="-807.0837" gradientTransform="matrix(54 0 0 -432 16264.625 -347958.5)">
			<stop  offset="0" style="stop-color:#CDBA5F"/>
			<stop  offset="1" style="stop-color:#B6B38D"/>
		</linearGradient>
		<polygon fill="url(#SVGID_40_)" points="0.002,66.371 0.002,68.669 0.002,481.452 0.002,634.649 48.57,242.385 		"/>
		
			<linearGradient id="SVGID_41_" gradientUnits="userSpaceOnUse" x1="-306.5625" y1="-809.1357" x2="-304.4031" y2="-811.2951" gradientTransform="matrix(487 0 0 -282 149195.5 -227226.75)">
			<stop  offset="0" style="stop-color:#A19B0E"/>
			<stop  offset="1" style="stop-color:#8A8114"/>
		</linearGradient>
		<polygon fill="url(#SVGID_41_)" points="0.002,911.758 0.002,931.31 0.002,946.13 0.002,1140.976 0.002,1155.793 0.002,1169.601 
			0.002,1195.71 0.002,1505.171 712.656,922.152 		"/>
		
			<linearGradient id="SVGID_42_" gradientUnits="userSpaceOnUse" x1="-304.8623" y1="-809.9619" x2="-303.0651" y2="-811.7591" gradientTransform="matrix(248 0 0 -291 76231.625 -234149.75)">
			<stop  offset="0" style="stop-color:#5D6102"/>
			<stop  offset="1" style="stop-color:#2D2E03"/>
		</linearGradient>
		<polygon fill="url(#SVGID_42_)" points="593.029,1750.073 949.642,2160.663 967.367,2160.663 833.818,1553.986 		"/>
		
			<linearGradient id="SVGID_43_" gradientUnits="userSpaceOnUse" x1="-306.0625" y1="-810.4209" x2="-304.232" y2="-812.2514" gradientTransform="matrix(421 0 0 -291 129499.75 -234149.75)">
			<stop  offset="0" style="stop-color:#2D3003"/>
			<stop  offset="1" style="stop-color:#534F16"/>
		</linearGradient>
		<polygon fill="url(#SVGID_43_)" points="833.818,1553.986 967.367,2160.663 1121.066,2160.663 1479.5,2094.314 		"/>
		
			<linearGradient id="SVGID_44_" gradientUnits="userSpaceOnUse" x1="-306.9731" y1="-814.1953" x2="-304.9723" y2="-816.1961" gradientTransform="matrix(651 0 0 -201 199549 -161879.625)">
			<stop  offset="0" style="stop-color:#050B01"/>
			<stop  offset="1" style="stop-color:#383B02"/>
		</linearGradient>
		<polygon fill="url(#SVGID_44_)" points="4.756,2160.663 32.016,2160.663 83.598,2160.663 367.406,2160.663 594.849,2160.663 
			718.22,2160.663 949.642,2160.663 593.029,1750.073 		"/>
		
			<linearGradient id="SVGID_45_" gradientUnits="userSpaceOnUse" x1="-302.8799" y1="-807.6338" x2="-300.8653" y2="-809.6484" gradientTransform="matrix(191 0 0 -395 59423.625 -317661.5)">
			<stop  offset="0" style="stop-color:#485B19"/>
			<stop  offset="1" style="stop-color:#75752B"/>
		</linearGradient>
		<polygon fill="url(#SVGID_45_)" points="1864.457,1327.396 1659.531,2160.663 1702.478,2160.663 1945.742,2026.773 		"/>
		
			<linearGradient id="SVGID_46_" gradientUnits="userSpaceOnUse" x1="-305.7866" y1="-862.6143" x2="-303.7389" y2="-864.662" gradientTransform="matrix(443 0 0 -43 136344.5 -35005.5938)">
			<stop  offset="0" style="stop-color:#383407"/>
			<stop  offset="1" style="stop-color:#716919"/>
		</linearGradient>
		<polygon fill="url(#SVGID_46_)" points="1121.066,2160.663 1579.172,2160.663 1602.238,2160.663 1479.5,2094.314 		"/>
		
			<linearGradient id="SVGID_47_" gradientUnits="userSpaceOnUse" x1="-304.189" y1="-807.3701" x2="-301.7999" y2="-809.7592" gradientTransform="matrix(251 0 0 -395 77730.625 -317661.5)">
			<stop  offset="0" style="stop-color:#D9C561"/>
			<stop  offset="1" style="stop-color:#777731"/>
		</linearGradient>
		<polygon fill="url(#SVGID_47_)" points="1479.5,2094.314 1602.238,2160.663 1639.968,2160.663 1659.531,2160.663 
			1864.457,1327.396 		"/>
		
			<linearGradient id="SVGID_48_" gradientUnits="userSpaceOnUse" x1="-305.873" y1="-837.0703" x2="-303.9597" y2="-838.9837" gradientTransform="matrix(580 0 0 -74 178846.5 -59898.5)">
			<stop  offset="0" style="stop-color:#877C26"/>
			<stop  offset="1" style="stop-color:#B8A235"/>
		</linearGradient>
		<polygon fill="url(#SVGID_48_)" points="1702.478,2160.663 1793.817,2160.663 1951.302,2160.663 2462.122,2160.663 
			1945.742,2026.773 		"/>
		
			<linearGradient id="SVGID_49_" gradientUnits="userSpaceOnUse" x1="-304.5098" y1="-814.9023" x2="-302.6912" y2="-816.7209" gradientTransform="matrix(389 0 0 -190 120400.75 -153049.625)">
			<stop  offset="0" style="stop-color:#DDC656"/>
			<stop  offset="1" style="stop-color:#8A8826"/>
		</linearGradient>
		<polygon fill="url(#SVGID_49_)" points="1945.742,2026.773 2462.122,2160.663 2536.104,2160.663 2418.117,1767.502 		"/>
		
			<linearGradient id="SVGID_50_" gradientUnits="userSpaceOnUse" x1="-305.0288" y1="-815.2803" x2="-303.1751" y2="-817.1339" gradientTransform="matrix(467 0 0 -190 144654.5 -153049.625)">
			<stop  offset="0" style="stop-color:#8D9131"/>
			<stop  offset="1" style="stop-color:#BDAF2E"/>
		</linearGradient>
		<polygon fill="url(#SVGID_50_)" points="2536.104,2160.663 2542.721,2160.663 2687.253,2160.663 3109.273,2160.663 
			2418.117,1767.502 		"/>
		
			<linearGradient id="SVGID_51_" gradientUnits="userSpaceOnUse" x1="-304.4072" y1="-807.0215" x2="-302.6796" y2="-808.7491" gradientTransform="matrix(467 0 0 -435 144654.5 -349787.5)">
			<stop  offset="0" style="stop-color:#51630B"/>
			<stop  offset="1" style="stop-color:#6D6D10"/>
		</linearGradient>
		<polygon fill="url(#SVGID_51_)" points="2418.117,1767.502 3109.273,2160.663 3133.38,2160.663 3069.936,1227.176 		"/>
		
			<linearGradient id="SVGID_52_" gradientUnits="userSpaceOnUse" x1="-304.3906" y1="-807.3623" x2="-302.6209" y2="-809.132" gradientTransform="matrix(447 0 0 -435 138939.5 -349787.5)">
			<stop  offset="0" style="stop-color:#0C0D03"/>
			<stop  offset="1" style="stop-color:#63690C"/>
		</linearGradient>
		<polygon fill="url(#SVGID_52_)" points="3069.936,1227.176 3133.38,2160.663 3156.451,2160.663 3755.492,1774.039 		"/>
		
			<linearGradient id="SVGID_53_" gradientUnits="userSpaceOnUse" x1="-304.5811" y1="-815.2295" x2="-302.4953" y2="-817.3152" gradientTransform="matrix(486 0 0 -184 150954.5 -148234.625)">
			<stop  offset="0" style="stop-color:#B8B91D"/>
			<stop  offset="1" style="stop-color:#7D7311"/>
		</linearGradient>
		<polygon fill="url(#SVGID_53_)" points="3755.492,1774.039 3156.451,2160.663 3247.88,2160.663 3410.818,2160.663 
			3435.02,2160.663 3725.12,2160.663 3830.778,2160.663 3840,2160.663 3840,2132.882 3840,2043.781 		"/>
		
			<linearGradient id="SVGID_54_" gradientUnits="userSpaceOnUse" x1="-290.207" y1="-808.6758" x2="-288.2827" y2="-810.6001" gradientTransform="matrix(93 0 0 -323 30692.5 -260035.75)">
			<stop  offset="0" style="stop-color:#212806"/>
			<stop  offset="1" style="stop-color:#4A5313"/>
		</linearGradient>
		<polygon fill="url(#SVGID_54_)" points="3755.492,1774.039 3840,1406.096 3840,1334.696 3840,1296.64 3840,1274.466 
			3840,1263.284 3840,1215.222 3730.955,1070.307 		"/>
		
			<linearGradient id="SVGID_55_" gradientUnits="userSpaceOnUse" x1="-287.2793" y1="-807.4336" x2="-285.55" y2="-809.1629" gradientTransform="matrix(81 0 0 -418 27024.5 -336138.5)">
			<stop  offset="0" style="stop-color:#374A03"/>
			<stop  offset="1" style="stop-color:#736C17"/>
		</linearGradient>
		<polygon fill="url(#SVGID_55_)" points="3840,2043.781 3840,1406.096 3755.492,1774.039 		"/>
		
			<linearGradient id="SVGID_56_" gradientUnits="userSpaceOnUse" x1="-306.0288" y1="-915.5488" x2="-304.0597" y2="-917.5179" gradientTransform="matrix(810 0 0 -13 250093 -11916.6406)">
			<stop  offset="0" style="stop-color:#0E0B02"/>
			<stop  offset="1" style="stop-color:#181903"/>
		</linearGradient>
		<polygon fill="url(#SVGID_56_)" points="3490.753,0.858 3096.477,0.858 3227.904,7.082 		"/>
		
			<linearGradient id="SVGID_57_" gradientUnits="userSpaceOnUse" x1="-303.5894" y1="-806.7246" x2="-301.6547" y2="-808.6592" gradientTransform="matrix(420 0 0 -310 130753.75 -250104.75)">
			<stop  offset="0" style="stop-color:#191505"/>
			<stop  offset="1" style="stop-color:#0D1103"/>
		</linearGradient>
		<polygon fill="url(#SVGID_57_)" points="3611.326,667.239 3840,74.865 3840,14.923 3840,0.858 3768.443,0.858 3765.43,0.858 
			3490.753,0.858 3227.904,7.082 		"/>
		
			<linearGradient id="SVGID_58_" gradientUnits="userSpaceOnUse" x1="-297.8594" y1="-805.168" x2="-296.036" y2="-806.9913" gradientTransform="matrix(170 0 0 -495 54253.625 -398474.5)">
			<stop  offset="0" style="stop-color:#090C02"/>
			<stop  offset="1" style="stop-color:#0E1604"/>
		</linearGradient>
		<polygon fill="url(#SVGID_58_)" points="3730.955,1070.307 3840,236.832 3840,74.865 3611.326,667.239 		"/>
		
			<linearGradient id="SVGID_59_" gradientUnits="userSpaceOnUse" x1="-290.2378" y1="-804.7588" x2="-288.3281" y2="-806.6685" gradientTransform="matrix(93 0 0 -582 30692.5 -468248.5)">
			<stop  offset="0" style="stop-color:#0D1606"/>
			<stop  offset="1" style="stop-color:#313913"/>
		</linearGradient>
		<polygon fill="url(#SVGID_59_)" points="3840,1215.222 3840,1036.819 3840,625.259 3840,577.106 3840,522.759 3840,469.595 
			3840,413.315 3840,407.252 3840,402.584 3840,236.832 3730.955,1070.307 		"/>
	</g>
</g>
<g id="Layer_20">
</g>
<g id="Layer_21">
</g>
<g id="Layer_22">
</g>
<g id="Layer_23">
</g>
<g id="Layer_24">
</g>
<g id="Layer_25">
</g>
</svg>
