<?xml version="1.0" encoding="utf-8"?>
<!-- Generator: Adobe Illustrator 16.0.0, SVG Export Plug-In . SVG Version: 6.00 Build 0)  -->
<!DOCTYPE svg PUBLIC "-//W3C//DTD SVG 1.1//EN" "http://www.w3.org/Graphics/SVG/1.1/DTD/svg11.dtd">
<svg version="1.1" xmlns="http://www.w3.org/2000/svg" xmlns:xlink="http://www.w3.org/1999/xlink" x="0px" y="0px" width="3840px"
	 height="2160.002px" viewBox="0 0 3840 2160.002" enable-background="new 0 0 3840 2160.002" xml:space="preserve">
<g id="Layer_1">
</g>
<g id="Layer_2">
</g>
<g id="Layer_3">
</g>
<g id="Layer_4">
</g>
<g id="Layer_5">
</g>
<g id="Layer_6">
</g>
<g id="Layer_7">
</g>
<g id="Layer_8">
</g>
<g id="Layer_9">
</g>
<g id="Layer_10">
</g>
<g id="Layer_11">
</g>
<g id="Layer_12">
</g>
<g id="Layer_13">
</g>
<g id="Layer_14">
</g>
<g id="Layer_15">
</g>
<g id="Layer_16">
</g>
<g id="Layer_17">
</g>
<g id="Layer_18">
</g>
<g id="Layer_19">
</g>
<g id="Layer_20">
</g>
<g id="Layer_21">
</g>
<g id="Layer_22">
	<g>
		<polygon fill="none" points="2800.586,2160.663 2800.796,2160.663 3840,1461.615 3840,1461.481 3396.798,1758.04 		"/>
		
			<linearGradient id="SVGID_1_" gradientUnits="userSpaceOnUse" x1="3513.522" y1="-3016.0859" x2="3515.5161" y2="-3018.0801" gradientTransform="matrix(67 0 0 -115 -233610.4063 -346272.5625)">
			<stop  offset="0" style="stop-color:#858B93"/>
			<stop  offset="1" style="stop-color:#A9ABB2"/>
		</linearGradient>
		<polygon fill="url(#SVGID_1_)" points="1929.473,595.383 1792.93,785.129 1839.803,809.312 		"/>
		
			<linearGradient id="SVGID_2_" gradientUnits="userSpaceOnUse" x1="3544.1821" y1="-2997.4932" x2="3546.1821" y2="-2999.4932" gradientTransform="matrix(307 0 0 -269 -1086399.25 -805189.75)">
			<stop  offset="0" style="stop-color:#628991"/>
			<stop  offset="1" style="stop-color:#62B3C2"/>
		</linearGradient>
		<polygon fill="url(#SVGID_2_)" points="1652.312,1538.53 2277.962,1674.328 2180.141,1173.921 		"/>
		
			<linearGradient id="SVGID_3_" gradientUnits="userSpaceOnUse" x1="3521.8159" y1="-3003.1357" x2="3523.7488" y2="-3005.0686" gradientTransform="matrix(89 0 0 -210 -311876.5 -629055.625)">
			<stop  offset="0" style="stop-color:#3A7286"/>
			<stop  offset="1" style="stop-color:#4C8FA1"/>
		</linearGradient>
		<polygon fill="url(#SVGID_3_)" points="1589.135,1929.183 1770.513,1906.86 1652.312,1538.53 		"/>
		
			<linearGradient id="SVGID_4_" gradientUnits="userSpaceOnUse" x1="3544.1104" y1="-3004.123" x2="3546.1003" y2="-3006.113" gradientTransform="matrix(307 0 0 -198 -1086399.25 -593271.625)">
			<stop  offset="0" style="stop-color:#5AA4B2"/>
			<stop  offset="1" style="stop-color:#3C8B9E"/>
		</linearGradient>
		<polygon fill="url(#SVGID_4_)" points="1770.513,1906.86 2277.962,1674.328 1652.312,1538.53 		"/>
		
			<linearGradient id="SVGID_5_" gradientUnits="userSpaceOnUse" x1="3544.1255" y1="-2993.71" x2="3546.073" y2="-2995.6575" gradientTransform="matrix(395 0 0 -329 -1399763.25 -984578.75)">
			<stop  offset="0" style="stop-color:#B3B3C5"/>
			<stop  offset="1" style="stop-color:#888C9E"/>
		</linearGradient>
		<polygon fill="url(#SVGID_5_)" points="254.275,301.463 225.744,560.038 1030.735,913.486 		"/>
		
			<linearGradient id="SVGID_6_" gradientUnits="userSpaceOnUse" x1="3544.7598" y1="-3004.209" x2="3546.6978" y2="-3006.147" gradientTransform="matrix(388 0 0 -203 -1374611.25 -608066.625)">
			<stop  offset="0" style="stop-color:#254A5F"/>
			<stop  offset="1" style="stop-color:#3C7085"/>
		</linearGradient>
		<polygon fill="url(#SVGID_6_)" points="798.409,2130.09 1589.135,1929.183 1299.745,1752.459 		"/>
		
			<linearGradient id="SVGID_7_" gradientUnits="userSpaceOnUse" x1="3539.9438" y1="-3012.1338" x2="3541.9036" y2="-3014.0935" gradientTransform="matrix(225 0 0 -144 -795278.375 -432272.625)">
			<stop  offset="0" style="stop-color:#6BA4BC"/>
			<stop  offset="1" style="stop-color:#61A4B8"/>
		</linearGradient>
		<polygon fill="url(#SVGID_7_)" points="1299.745,1752.459 1652.312,1538.53 1193.771,1484.583 		"/>
		
			<linearGradient id="SVGID_8_" gradientUnits="userSpaceOnUse" x1="3536.4673" y1="-3002.543" x2="3538.4421" y2="-3004.5178" gradientTransform="matrix(173 0 0 -210 -610470.375 -629055.625)">
			<stop  offset="0" style="stop-color:#3C7184"/>
			<stop  offset="1" style="stop-color:#5B9BAE"/>
		</linearGradient>
		<polygon fill="url(#SVGID_8_)" points="1299.745,1752.459 1589.135,1929.183 1652.312,1538.53 		"/>
		
			<linearGradient id="SVGID_9_" gradientUnits="userSpaceOnUse" x1="3541.9092" y1="-3001.6436" x2="3543.8457" y2="-3003.5801" gradientTransform="matrix(228 0 0 -201 -805620.375 -602614.625)">
			<stop  offset="0" style="stop-color:#A0A5A9"/>
			<stop  offset="1" style="stop-color:#9EA5A8"/>
		</linearGradient>
		<polygon fill="url(#SVGID_9_)" points="1839.803,809.312 2180.141,1173.921 2304.456,800.011 		"/>
		
			<linearGradient id="SVGID_10_" gradientUnits="userSpaceOnUse" x1="3541.1348" y1="-3016.6191" x2="3543.0764" y2="-3018.5608" gradientTransform="matrix(228 0 0 -115 -805620.375 -346272.5625)">
			<stop  offset="0" style="stop-color:#868B93"/>
			<stop  offset="1" style="stop-color:#B0B2B7"/>
		</linearGradient>
		<polygon fill="url(#SVGID_10_)" points="2304.456,800.011 1929.473,595.383 1839.803,809.312 		"/>
		
			<linearGradient id="SVGID_11_" gradientUnits="userSpaceOnUse" x1="3548.4014" y1="-3002.79" x2="3550.3589" y2="-3004.7476" gradientTransform="matrix(564 0 0 -189 -1999228.5 -567019.625)">
			<stop  offset="0" style="stop-color:#ACAFB6"/>
			<stop  offset="1" style="stop-color:#A9AEB6"/>
		</linearGradient>
		<polygon fill="url(#SVGID_11_)" points="3396.798,738.622 2247.394,448.423 2304.456,800.011 		"/>
		
			<linearGradient id="SVGID_12_" gradientUnits="userSpaceOnUse" x1="3548.8018" y1="-2991.8936" x2="3550.7866" y2="-2993.8784" gradientTransform="matrix(564 0 0 -367 -1999228.5 -1098026.75)">
			<stop  offset="0" style="stop-color:#8F97A3"/>
			<stop  offset="1" style="stop-color:#A3A9B2"/>
		</linearGradient>
		<polygon fill="url(#SVGID_12_)" points="3123.712,55.91 2247.394,448.423 3396.798,738.622 		"/>
		
			<linearGradient id="SVGID_13_" gradientUnits="userSpaceOnUse" x1="3539.2021" y1="-3002.2158" x2="3541.1748" y2="-3004.1885" gradientTransform="matrix(184 0 0 -189 -649244.375 -567019.625)">
			<stop  offset="0" style="stop-color:#B3B4B9"/>
			<stop  offset="1" style="stop-color:#AEB1B7"/>
		</linearGradient>
		<polygon fill="url(#SVGID_13_)" points="2247.394,448.423 1929.473,595.383 2304.456,800.011 		"/>
		
			<linearGradient id="SVGID_14_" gradientUnits="userSpaceOnUse" x1="3538.6611" y1="-2991.6895" x2="3540.6104" y2="-2993.6387" gradientTransform="matrix(134 0 0 -367 -471008.375 -1098026.75)">
			<stop  offset="0" style="stop-color:#8B93A1"/>
			<stop  offset="1" style="stop-color:#959EAB"/>
		</linearGradient>
		<polygon fill="url(#SVGID_14_)" points="3354.002,156.363 3123.712,55.91 3396.798,738.622 		"/>
		
			<linearGradient id="SVGID_15_" gradientUnits="userSpaceOnUse" x1="3523.71" y1="-3015.3154" x2="3525.7798" y2="-3017.3853" gradientTransform="matrix(122 0 0 -117 -429916.4375 -352255.5625)">
			<stop  offset="0" style="stop-color:#B9B8CA"/>
			<stop  offset="1" style="stop-color:#BEBCCE"/>
		</linearGradient>
		<polygon fill="url(#SVGID_15_)" points="225.744,560.038 0.001,757.652 0.001,774.641 172.757,751.644 		"/>
		
			<linearGradient id="SVGID_16_" gradientUnits="userSpaceOnUse" x1="3526.6558" y1="-2996.5645" x2="3528.8782" y2="-2998.7869" gradientTransform="matrix(136 0 0 -256 -479658.375 -766892.75)">
			<stop  offset="0" style="stop-color:#BAB9CB"/>
			<stop  offset="1" style="stop-color:#B7B8CA"/>
		</linearGradient>
		<polygon fill="url(#SVGID_16_)" points="254.275,301.463 0.001,738.362 0.001,742.007 0.001,757.652 225.744,560.038 		"/>
		
			<linearGradient id="SVGID_17_" gradientUnits="userSpaceOnUse" x1="3526.6563" y1="-2990.6797" x2="3528.6426" y2="-2992.666" gradientTransform="matrix(136 0 0 -425 -479658.375 -1271019.5)">
			<stop  offset="0" style="stop-color:#949CB2"/>
			<stop  offset="1" style="stop-color:#ADB0C2"/>
		</linearGradient>
		<polygon fill="url(#SVGID_17_)" points="0.001,4.302 0.001,68.669 0.001,481.452 0.001,715.687 0.001,726.052 0.001,738.362 
			254.275,301.463 		"/>
		
			<linearGradient id="SVGID_18_" gradientUnits="userSpaceOnUse" x1="3516.25" y1="-3011.4551" x2="3518.1997" y2="-3013.4048" gradientTransform="matrix(96 0 0 -134 -337538.5 -402846.625)">
			<stop  offset="0" style="stop-color:#79767A"/>
			<stop  offset="1" style="stop-color:#D0CDD9"/>
		</linearGradient>
		<polygon fill="url(#SVGID_18_)" points="172.757,751.644 0.001,774.641 0.001,806.504 154.416,1000.918 		"/>
		
			<linearGradient id="SVGID_19_" gradientUnits="userSpaceOnUse" x1="3511.5952" y1="-3015.0439" x2="3513.5454" y2="-3016.9941" gradientTransform="matrix(87 0 0 -123 -305561.5 -370030.625)">
			<stop  offset="0" style="stop-color:#6C6B75"/>
			<stop  offset="1" style="stop-color:#0B0C10"/>
		</linearGradient>
		<polygon fill="url(#SVGID_19_)" points="0.001,806.504 0.001,931.31 0.001,946.13 0.001,1005.893 154.416,1000.918 		"/>
		
			<linearGradient id="SVGID_20_" gradientUnits="userSpaceOnUse" x1="3513.4683" y1="-3025.2236" x2="3515.5125" y2="-3027.2678" gradientTransform="matrix(90 0 0 -95 -316223.5 -286414.5)">
			<stop  offset="0" style="stop-color:#7C7F82"/>
			<stop  offset="1" style="stop-color:#A2A5A8"/>
		</linearGradient>
		<polygon fill="url(#SVGID_20_)" points="0.001,1005.893 0.001,1140.976 0.001,1149.699 154.416,1000.918 		"/>
		
			<linearGradient id="SVGID_21_" gradientUnits="userSpaceOnUse" x1="3524.4385" y1="-2994.627" x2="3526.4016" y2="-2996.5901" gradientTransform="matrix(126 0 0 -353 -444126.4375 -1055476.75)">
			<stop  offset="0" style="stop-color:#6A84A4"/>
			<stop  offset="1" style="stop-color:#293C4E"/>
		</linearGradient>
		<polygon fill="url(#SVGID_21_)" points="0.001,1579.065 0.001,2029.866 0.001,2160.663 32.016,2160.663 42.935,2160.663 
			237.972,2022.195 		"/>
		
			<linearGradient id="SVGID_22_" gradientUnits="userSpaceOnUse" x1="3540.5962" y1="-3029.7871" x2="3542.5671" y2="-3031.7581" gradientTransform="matrix(275 0 0 -96 -973397.25 -288847.5)">
			<stop  offset="0" style="stop-color:#2E4456"/>
			<stop  offset="1" style="stop-color:#1C2F3D"/>
		</linearGradient>
		<polygon fill="url(#SVGID_22_)" points="237.972,2022.195 498.698,2160.663 594.849,2160.663 701.454,2160.663 798.409,2130.09 		
			"/>
		
			<linearGradient id="SVGID_23_" gradientUnits="userSpaceOnUse" x1="3540.6743" y1="-3029.0205" x2="3542.5996" y2="-3030.9458" gradientTransform="matrix(291 0 0 -98 -1030371.25 -294811.5625)">
			<stop  offset="0" style="stop-color:#223545"/>
			<stop  offset="1" style="stop-color:#2E4659"/>
		</linearGradient>
		<polygon fill="url(#SVGID_23_)" points="42.935,2160.663 83.599,2160.663 367.406,2160.663 498.698,2160.663 237.972,2022.195 		
			"/>
		
			<linearGradient id="SVGID_24_" gradientUnits="userSpaceOnUse" x1="3547.1792" y1="-3104.3633" x2="3549.1199" y2="-3106.304" gradientTransform="matrix(565 0 0 -38 -2003602.5 -115833.625)">
			<stop  offset="0" style="stop-color:#142129"/>
			<stop  offset="1" style="stop-color:#142632"/>
		</linearGradient>
		<polygon fill="url(#SVGID_24_)" points="701.454,2160.663 718.22,2160.663 1210.287,2160.663 798.409,2130.09 		"/>
		
			<linearGradient id="SVGID_25_" gradientUnits="userSpaceOnUse" x1="3546.104" y1="-3013.2725" x2="3548.106" y2="-3015.2744" gradientTransform="matrix(455 0 0 -145 -1612662.5 -435015.625)">
			<stop  offset="0" style="stop-color:#325C71"/>
			<stop  offset="1" style="stop-color:#2C5363"/>
		</linearGradient>
		<polygon fill="url(#SVGID_25_)" points="798.409,2130.09 1210.287,2160.663 1579.172,2160.663 1639.968,2160.663 
			1706.313,2160.663 1589.135,1929.183 		"/>
		
			<linearGradient id="SVGID_26_" gradientUnits="userSpaceOnUse" x1="3522.5161" y1="-3010.5088" x2="3524.4561" y2="-3012.4487" gradientTransform="matrix(89 0 0 -157 -311876.5 -470811.625)">
			<stop  offset="0" style="stop-color:#275364"/>
			<stop  offset="1" style="stop-color:#204654"/>
		</linearGradient>
		<polygon fill="url(#SVGID_26_)" points="1589.135,1929.183 1706.313,2160.663 1731.551,2160.663 1770.513,1906.86 		"/>
		
			<linearGradient id="SVGID_27_" gradientUnits="userSpaceOnUse" x1="3543.1035" y1="-2997.5684" x2="3545.3071" y2="-2999.772" gradientTransform="matrix(271 0 0 -282 -958455.25 -843686.75)">
			<stop  offset="0" style="stop-color:#2E667A"/>
			<stop  offset="1" style="stop-color:#286070"/>
		</linearGradient>
		<polygon fill="url(#SVGID_27_)" points="1770.513,1906.86 1731.551,2160.663 1765.954,2160.663 2277.962,1674.328 		"/>
		
			<linearGradient id="SVGID_28_" gradientUnits="userSpaceOnUse" x1="3547.0767" y1="-2997.4941" x2="3549.0032" y2="-2999.4207" gradientTransform="matrix(386 0 0 -281 -1366779.25 -840704.75)">
			<stop  offset="0" style="stop-color:#3594AA"/>
			<stop  offset="1" style="stop-color:#24697B"/>
		</linearGradient>
		<polygon fill="url(#SVGID_28_)" points="2277.962,1674.328 2714.056,2160.663 2772.289,2160.663 3064.612,1745.019 		"/>
		
			<linearGradient id="SVGID_29_" gradientUnits="userSpaceOnUse" x1="3546.314" y1="-3000.3066" x2="3548.3425" y2="-3002.3352" gradientTransform="matrix(319 0 0 -243 -1128498.25 -727350.625)">
			<stop  offset="0" style="stop-color:#2B869F"/>
			<stop  offset="1" style="stop-color:#276578"/>
		</linearGradient>
		<polygon fill="url(#SVGID_29_)" points="3064.612,1745.019 2772.289,2160.663 2800.586,2160.663 3396.798,1758.04 		"/>
		
			<linearGradient id="SVGID_30_" gradientUnits="userSpaceOnUse" x1="3547.5439" y1="-2997.9023" x2="3549.4602" y2="-2999.8186" gradientTransform="matrix(501 0 0 -282 -1775645.5 -843686.75)">
			<stop  offset="0" style="stop-color:#1A333B"/>
			<stop  offset="1" style="stop-color:#265B67"/>
		</linearGradient>
		<polygon fill="url(#SVGID_30_)" points="1765.954,2160.663 1793.817,2160.663 1951.301,2160.663 2542.721,2160.663 
			2687.252,2160.663 2714.056,2160.663 2277.962,1674.328 		"/>
		
			<linearGradient id="SVGID_31_" gradientUnits="userSpaceOnUse" x1="3544.9893" y1="-2990.9297" x2="3546.9495" y2="-2992.8899" gradientTransform="matrix(236 0 0 -470 -833280.375 -1404727.5)">
			<stop  offset="0" style="stop-color:#6CAAC2"/>
			<stop  offset="1" style="stop-color:#96B3C5"/>
		</linearGradient>
		<polygon fill="url(#SVGID_31_)" points="3396.798,1758.04 3840,1461.481 3840,1382.904 3486.469,883.722 		"/>
		
			<linearGradient id="SVGID_32_" gradientUnits="userSpaceOnUse" x1="3545.1626" y1="-3005.7734" x2="3547.1116" y2="-3007.7224" gradientTransform="matrix(236 0 0 -169 -833280.375 -507223.625)">
			<stop  offset="0" style="stop-color:#9CA6B2"/>
			<stop  offset="1" style="stop-color:#A2ADB9"/>
		</linearGradient>
		<polygon fill="url(#SVGID_32_)" points="3486.469,883.722 3840,1036.67 3840,1028.324 3396.798,738.622 		"/>
		
			<linearGradient id="SVGID_33_" gradientUnits="userSpaceOnUse" x1="3544.0337" y1="-2995.3779" x2="3545.9827" y2="-2997.3269" gradientTransform="matrix(192 0 0 -297 -676904.375 -888841.75)">
			<stop  offset="0" style="stop-color:#8092A3"/>
			<stop  offset="1" style="stop-color:#9EB8CB"/>
		</linearGradient>
		<polygon fill="url(#SVGID_33_)" points="3486.469,883.722 3840,1382.904 3840,1334.696 3840,1296.64 3840,1274.466 3840,1263.284 
			3840,1036.819 3840,1036.67 		"/>
		
			<linearGradient id="SVGID_34_" gradientUnits="userSpaceOnUse" x1="3547.7017" y1="-3020.748" x2="3549.624" y2="-3022.6704" gradientTransform="matrix(365 0 0 -94 -1291751.25 -283980.5)">
			<stop  offset="0" style="stop-color:#868F9F"/>
			<stop  offset="1" style="stop-color:#8893A5"/>
		</linearGradient>
		<polygon fill="url(#SVGID_34_)" points="3354.002,156.363 3810.711,0.858 3768.443,0.858 3765.429,0.858 3674.046,0.858 
			3123.712,55.91 		"/>
		
			<linearGradient id="SVGID_35_" gradientUnits="userSpaceOnUse" x1="3545.6929" y1="-2990.9268" x2="3547.5796" y2="-2992.8135" gradientTransform="matrix(252 0 0 -407 -890149.375 -1217346.5)">
			<stop  offset="0" style="stop-color:#8992A2"/>
			<stop  offset="1" style="stop-color:#98A3B2"/>
		</linearGradient>
		<polygon fill="url(#SVGID_35_)" points="3396.798,738.622 3840,25.834 3840,14.923 3840,0.858 3810.711,0.858 3354.002,156.363 		
			"/>
		
			<linearGradient id="SVGID_36_" gradientUnits="userSpaceOnUse" x1="3545.3169" y1="-2988.1738" x2="3547.3145" y2="-2990.1714" gradientTransform="matrix(236 0 0 -576 -833280.375 -1721304.5)">
			<stop  offset="0" style="stop-color:#ACB5C0"/>
			<stop  offset="1" style="stop-color:#AEB9C7"/>
		</linearGradient>
		<polygon fill="url(#SVGID_36_)" points="3840,1028.324 3840,625.259 3840,577.106 3840,522.759 3840,469.595 3840,413.315 
			3840,407.252 3840,402.584 3840,25.834 3396.798,738.622 		"/>
		
			<linearGradient id="SVGID_37_" gradientUnits="userSpaceOnUse" x1="3547.354" y1="-2996.6494" x2="3549.3665" y2="-2998.6619" gradientTransform="matrix(430 0 0 -250 -1523126.5 -749171.75)">
			<stop  offset="0" style="stop-color:#979EA6"/>
			<stop  offset="1" style="stop-color:#8A929F"/>
		</linearGradient>
		<polygon fill="url(#SVGID_37_)" points="3123.712,55.91 2503.597,0.858 2304.27,0.858 2247.394,448.423 		"/>
		
			<linearGradient id="SVGID_38_" gradientUnits="userSpaceOnUse" x1="3550.0127" y1="-3073.2256" x2="3551.9351" y2="-3075.1479" gradientTransform="matrix(766 0 0 -40 -2716906 -122952.5938)">
			<stop  offset="0" style="stop-color:#8992A1"/>
			<stop  offset="1" style="stop-color:#8D98A8"/>
		</linearGradient>
		<polygon fill="url(#SVGID_38_)" points="3674.046,0.858 2878.78,0.858 2839.03,0.858 2701.929,0.858 2688.896,0.858 
			2626.618,0.858 2571.589,0.858 2541.87,0.858 2503.597,0.858 3123.712,55.91 		"/>
		
			<linearGradient id="SVGID_39_" gradientUnits="userSpaceOnUse" x1="3538.9683" y1="-2992.957" x2="3541.0769" y2="-2995.0657" gradientTransform="matrix(185 0 0 -329 -652797.375 -984749.75)">
			<stop  offset="0" style="stop-color:#A5A7AE"/>
			<stop  offset="1" style="stop-color:#999EA8"/>
		</linearGradient>
		<polygon fill="url(#SVGID_39_)" points="2247.394,448.423 2304.27,0.858 2295.715,0.858 1929.473,595.383 		"/>
		
			<linearGradient id="SVGID_40_" gradientUnits="userSpaceOnUse" x1="3544.7681" y1="-2988.9639" x2="3546.7332" y2="-2990.929" gradientTransform="matrix(401 0 0 -499 -1421067.25 -1491688.5)">
			<stop  offset="0" style="stop-color:#A6AABB"/>
			<stop  offset="1" style="stop-color:#838796"/>
		</linearGradient>
		<polygon fill="url(#SVGID_40_)" points="1030.735,913.486 1070.808,0.858 1031.084,0.858 254.275,301.463 		"/>
		
			<linearGradient id="SVGID_41_" gradientUnits="userSpaceOnUse" x1="3544.5283" y1="-2989.6855" x2="3546.4817" y2="-2991.6389" gradientTransform="matrix(374 0 0 -499 -1324755.25 -1491688.5)">
			<stop  offset="0" style="stop-color:#7C808D"/>
			<stop  offset="1" style="stop-color:#A0A2AD"/>
		</linearGradient>
		<polygon fill="url(#SVGID_41_)" points="1792.93,785.129 1085.598,0.858 1070.808,0.858 1030.735,913.486 		"/>
		
			<linearGradient id="SVGID_42_" gradientUnits="userSpaceOnUse" x1="3545.9556" y1="-2990.3828" x2="3547.897" y2="-2992.3242" gradientTransform="matrix(421 0 0 -430 -1491726.25 -1285930.5)">
			<stop  offset="0" style="stop-color:#A2A5AC"/>
			<stop  offset="1" style="stop-color:#A5A6AF"/>
		</linearGradient>
		<polygon fill="url(#SVGID_42_)" points="1929.473,595.383 1093.483,0.858 1085.598,0.858 1792.93,785.129 		"/>
		
			<linearGradient id="SVGID_43_" gradientUnits="userSpaceOnUse" x1="3546.4331" y1="-3003.377" x2="3548.3289" y2="-3005.2727" gradientTransform="matrix(533 0 0 -170 -1890195.5 -510610.625)">
			<stop  offset="0" style="stop-color:#979DB3"/>
			<stop  offset="1" style="stop-color:#9EA0B3"/>
		</linearGradient>
		<polygon fill="url(#SVGID_43_)" points="1031.084,0.858 683.251,0.858 668.827,0.858 631.493,0.858 265.544,0.858 107.749,0.858 
			0.001,0.858 0.001,3.397 0.001,4.302 254.275,301.463 		"/>
		
			<linearGradient id="SVGID_44_" gradientUnits="userSpaceOnUse" x1="3548.4053" y1="-2992.7285" x2="3550.3386" y2="-2994.6619" gradientTransform="matrix(606 0 0 -329 -2149031.5 -984749.75)">
			<stop  offset="0" style="stop-color:#A5A6AF"/>
			<stop  offset="1" style="stop-color:#9498A5"/>
		</linearGradient>
		<polygon fill="url(#SVGID_44_)" points="2295.715,0.858 2166.951,0.858 2141.385,0.858 1794.433,0.858 1705.535,0.858 
			1661.585,0.858 1628.897,0.858 1573.278,0.858 1359.989,0.858 1212.013,0.858 1093.483,0.858 1929.473,595.383 		"/>
		
			<linearGradient id="SVGID_45_" gradientUnits="userSpaceOnUse" x1="3541.1226" y1="-2995.2793" x2="3543.1116" y2="-2997.2683" gradientTransform="matrix(255 0 0 -307 -901948.375 -918645.75)">
			<stop  offset="0" style="stop-color:#505965"/>
			<stop  offset="1" style="stop-color:#94AAB7"/>
		</linearGradient>
		<polygon fill="url(#SVGID_45_)" points="1550.413,1131.135 1030.735,913.486 1193.771,1484.583 		"/>
		
			<linearGradient id="SVGID_46_" gradientUnits="userSpaceOnUse" x1="3545.2012" y1="-3003.291" x2="3547.1538" y2="-3005.2437" gradientTransform="matrix(374 0 0 -186 -1324755.25 -557892.625)">
			<stop  offset="0" style="stop-color:#5C616E"/>
			<stop  offset="1" style="stop-color:#A8ACB4"/>
		</linearGradient>
		<polygon fill="url(#SVGID_46_)" points="1792.93,785.129 1030.735,913.486 1550.413,1131.135 		"/>
		
			<linearGradient id="SVGID_47_" gradientUnits="userSpaceOnUse" x1="3539.9258" y1="-3001.1768" x2="3541.8184" y2="-3003.0693" gradientTransform="matrix(225 0 0 -219 -795278.375 -656112.625)">
			<stop  offset="0" style="stop-color:#7CACBF"/>
			<stop  offset="1" style="stop-color:#9EC9D4"/>
		</linearGradient>
		<polygon fill="url(#SVGID_47_)" points="1193.771,1484.583 1652.312,1538.53 1550.413,1131.135 		"/>
		
			<linearGradient id="SVGID_48_" gradientUnits="userSpaceOnUse" x1="3544.1094" y1="-3001.0352" x2="3546.0317" y2="-3002.9575" gradientTransform="matrix(309 0 0 -219 -1093555.25 -656112.625)">
			<stop  offset="0" style="stop-color:#639AA5"/>
			<stop  offset="1" style="stop-color:#84979E"/>
		</linearGradient>
		<polygon fill="url(#SVGID_48_)" points="1652.312,1538.53 2180.141,1173.921 1550.413,1131.135 		"/>
		
			<linearGradient id="SVGID_49_" gradientUnits="userSpaceOnUse" x1="3533.5186" y1="-3003.6543" x2="3535.5029" y2="-3005.6387" gradientTransform="matrix(142 0 0 -186 -500204.375 -557892.625)">
			<stop  offset="0" style="stop-color:#767B85"/>
			<stop  offset="1" style="stop-color:#889099"/>
		</linearGradient>
		<polygon fill="url(#SVGID_49_)" points="1839.803,809.312 1792.93,785.129 1550.413,1131.135 		"/>
		
			<linearGradient id="SVGID_50_" gradientUnits="userSpaceOnUse" x1="3543.8828" y1="-3002.7988" x2="3545.8054" y2="-3004.7214" gradientTransform="matrix(309 0 0 -196 -1093555.25 -587699.625)">
			<stop  offset="0" style="stop-color:#3F454D"/>
			<stop  offset="1" style="stop-color:#727B81"/>
		</linearGradient>
		<polygon fill="url(#SVGID_50_)" points="1550.413,1131.135 2180.141,1173.921 1839.803,809.312 		"/>
		
			<linearGradient id="SVGID_51_" gradientUnits="userSpaceOnUse" x1="3545.8154" y1="-2997.5244" x2="3547.6978" y2="-2999.4067" gradientTransform="matrix(336 0 0 -269 -1189177.25 -805189.75)">
			<stop  offset="0" style="stop-color:#5C767E"/>
			<stop  offset="1" style="stop-color:#77AEBD"/>
		</linearGradient>
		<polygon fill="url(#SVGID_51_)" points="2180.141,1173.921 2277.962,1674.328 2864.893,1183.223 		"/>
		
			<linearGradient id="SVGID_52_" gradientUnits="userSpaceOnUse" x1="3545.354" y1="-3001.9473" x2="3547.2942" y2="-3003.8875" gradientTransform="matrix(336 0 0 -206 -1189177.25 -617524.625)">
			<stop  offset="0" style="stop-color:#89949A"/>
			<stop  offset="1" style="stop-color:#BCC6CF"/>
		</linearGradient>
		<polygon fill="url(#SVGID_52_)" points="2180.141,1173.921 2864.893,1183.223 2304.456,800.011 		"/>
		
			<linearGradient id="SVGID_53_" gradientUnits="userSpaceOnUse" x1="3546.8071" y1="-2996.0186" x2="3548.7034" y2="-2997.9148" gradientTransform="matrix(386 0 0 -302 -1366779.25 -903590.75)">
			<stop  offset="0" style="stop-color:#52ACBE"/>
			<stop  offset="1" style="stop-color:#6FB2C5"/>
		</linearGradient>
		<polygon fill="url(#SVGID_53_)" points="2277.962,1674.328 3064.612,1745.019 2864.893,1183.223 		"/>
		
			<linearGradient id="SVGID_54_" gradientUnits="userSpaceOnUse" x1="3548.8467" y1="-2998.4434" x2="3550.7732" y2="-3000.3699" gradientTransform="matrix(536 0 0 -239 -1899716.5 -715963.625)">
			<stop  offset="0" style="stop-color:#A8ADB2"/>
			<stop  offset="1" style="stop-color:#ACB8C3"/>
		</linearGradient>
		<polygon fill="url(#SVGID_54_)" points="2864.893,1183.223 3396.798,738.622 2304.456,800.011 		"/>
		
			<linearGradient id="SVGID_55_" gradientUnits="userSpaceOnUse" x1="3544.7285" y1="-2995.8438" x2="3546.6777" y2="-2997.793" gradientTransform="matrix(261 0 0 -309 -922366.375 -924464.75)">
			<stop  offset="0" style="stop-color:#4AA4BD"/>
			<stop  offset="1" style="stop-color:#74B2CA"/>
		</linearGradient>
		<polygon fill="url(#SVGID_55_)" points="3064.612,1745.019 3396.798,1758.04 2864.893,1183.223 		"/>
		
			<linearGradient id="SVGID_56_" gradientUnits="userSpaceOnUse" x1="3546.1318" y1="-2998.8359" x2="3548.0466" y2="-3000.7507" gradientTransform="matrix(305 0 0 -239 -1078698.25 -715963.625)">
			<stop  offset="0" style="stop-color:#B2B6BD"/>
			<stop  offset="1" style="stop-color:#AAB5BF"/>
		</linearGradient>
		<polygon fill="url(#SVGID_56_)" points="2864.893,1183.223 3486.469,883.722 3396.798,738.622 		"/>
		
			<linearGradient id="SVGID_57_" gradientUnits="userSpaceOnUse" x1="3546.4419" y1="-2990.2959" x2="3548.4026" y2="-2992.2566" gradientTransform="matrix(305 0 0 -470 -1078698.25 -1404727.5)">
			<stop  offset="0" style="stop-color:#84BCD2"/>
			<stop  offset="1" style="stop-color:#B0C1D0"/>
		</linearGradient>
		<polygon fill="url(#SVGID_57_)" points="3396.798,1758.04 3486.469,883.722 2864.893,1183.223 		"/>
		
			<linearGradient id="SVGID_58_" gradientUnits="userSpaceOnUse" x1="3540.4731" y1="-3003.21" x2="3542.4683" y2="-3005.2051" gradientTransform="matrix(287 0 0 -199 -1016164.25 -596447.625)">
			<stop  offset="0" style="stop-color:#C8D2E3"/>
			<stop  offset="1" style="stop-color:#758AA6"/>
		</linearGradient>
		<polygon fill="url(#SVGID_58_)" points="0.001,1183.452 0.001,1195.71 0.001,1540.421 555.893,1294.837 		"/>
		
			<linearGradient id="SVGID_59_" gradientUnits="userSpaceOnUse" x1="3540.4541" y1="-3008.2305" x2="3542.3867" y2="-3010.1631" gradientTransform="matrix(287 0 0 -158 -1016164.25 -474280.625)">
			<stop  offset="0" style="stop-color:#F8FAFC"/>
			<stop  offset="1" style="stop-color:#686F77"/>
		</linearGradient>
		<polygon fill="url(#SVGID_59_)" points="154.416,1000.918 0.001,1149.699 0.001,1155.792 0.001,1169.601 0.001,1183.452 
			555.893,1294.837 		"/>
		
			<linearGradient id="SVGID_60_" gradientUnits="userSpaceOnUse" x1="3541.3462" y1="-2995.5557" x2="3543.2913" y2="-2997.5007" gradientTransform="matrix(301 0 0 -292 -1065807.25 -874105.75)">
			<stop  offset="0" style="stop-color:#C7C7D7"/>
			<stop  offset="1" style="stop-color:#CFD2DE"/>
		</linearGradient>
		<polygon fill="url(#SVGID_60_)" points="225.744,560.038 172.757,751.644 786.181,1103.231 		"/>
		
			<linearGradient id="SVGID_61_" gradientUnits="userSpaceOnUse" x1="3544.373" y1="-2995.334" x2="3546.3062" y2="-2997.2671" gradientTransform="matrix(395 0 0 -292 -1399763.25 -874105.75)">
			<stop  offset="0" style="stop-color:#D5D4DE"/>
			<stop  offset="1" style="stop-color:#B3B8C0"/>
		</linearGradient>
		<polygon fill="url(#SVGID_61_)" points="1030.735,913.486 225.744,560.038 786.181,1103.231 		"/>
		
			<linearGradient id="SVGID_62_" gradientUnits="userSpaceOnUse" x1="3537.3311" y1="-2995.1367" x2="3539.2979" y2="-2997.1035" gradientTransform="matrix(200 0 0 -307 -706653.375 -918645.75)">
			<stop  offset="0" style="stop-color:#A0A6AF"/>
			<stop  offset="1" style="stop-color:#C5DAE4"/>
		</linearGradient>
		<polygon fill="url(#SVGID_62_)" points="1193.771,1484.583 1030.735,913.486 786.181,1103.231 		"/>
		
			<linearGradient id="SVGID_63_" gradientUnits="userSpaceOnUse" x1="3541.4834" y1="-3003.5049" x2="3543.4312" y2="-3005.4526" gradientTransform="matrix(310 0 0 -189 -1097793.25 -566856.625)">
			<stop  offset="0" style="stop-color:#15151B"/>
			<stop  offset="1" style="stop-color:#9598A2"/>
		</linearGradient>
		<polygon fill="url(#SVGID_63_)" points="172.757,751.644 154.416,1000.918 786.181,1103.231 		"/>
		
			<linearGradient id="SVGID_64_" gradientUnits="userSpaceOnUse" x1="3541.9736" y1="-3007.9043" x2="3543.9028" y2="-3009.8335" gradientTransform="matrix(310 0 0 -158 -1097793.25 -474280.625)">
			<stop  offset="0" style="stop-color:#7F8184"/>
			<stop  offset="1" style="stop-color:#AEB8C3"/>
		</linearGradient>
		<polygon fill="url(#SVGID_64_)" points="154.416,1000.918 555.893,1294.837 786.181,1103.231 		"/>
		
			<linearGradient id="SVGID_65_" gradientUnits="userSpaceOnUse" x1="3540.7441" y1="-2996.0869" x2="3542.7534" y2="-2998.0962" gradientTransform="matrix(279 0 0 -307 -987609.25 -918298.75)">
			<stop  offset="0" style="stop-color:#3D5C76"/>
			<stop  offset="1" style="stop-color:#446884"/>
		</linearGradient>
		<polygon fill="url(#SVGID_65_)" points="237.972,2022.195 798.409,2130.09 806.56,1558.993 		"/>
		
			<linearGradient id="SVGID_66_" gradientUnits="userSpaceOnUse" x1="3526.6006" y1="-2998.7363" x2="3528.5732" y2="-3000.709" gradientTransform="matrix(123 0 0 -245 -433185.4375 -733659.625)">
			<stop  offset="0" style="stop-color:#657C94"/>
			<stop  offset="1" style="stop-color:#A1BDD2"/>
		</linearGradient>
		<polygon fill="url(#SVGID_66_)" points="555.893,1294.837 806.56,1558.993 786.181,1103.231 		"/>
		
			<linearGradient id="SVGID_67_" gradientUnits="userSpaceOnUse" x1="3536.8784" y1="-2999.3525" x2="3538.8354" y2="-3001.3096" gradientTransform="matrix(200 0 0 -245 -706653.375 -733659.625)">
			<stop  offset="0" style="stop-color:#B7CCDB"/>
			<stop  offset="1" style="stop-color:#7BA6C2"/>
		</linearGradient>
		<polygon fill="url(#SVGID_67_)" points="786.181,1103.231 806.56,1558.993 1193.771,1484.583 		"/>
		
			<linearGradient id="SVGID_68_" gradientUnits="userSpaceOnUse" x1="3540.0649" y1="-2996.3926" x2="3542.0574" y2="-2998.385" gradientTransform="matrix(246 0 0 -307 -870085.375 -918298.75)">
			<stop  offset="0" style="stop-color:#355A73"/>
			<stop  offset="1" style="stop-color:#5C90AC"/>
		</linearGradient>
		<polygon fill="url(#SVGID_68_)" points="806.56,1558.993 798.409,2130.09 1299.745,1752.459 		"/>
		
			<linearGradient id="SVGID_69_" gradientUnits="userSpaceOnUse" x1="3540.2412" y1="-3011.918" x2="3542.2046" y2="-3013.8813" gradientTransform="matrix(242 0 0 -144 -855869.375 -432272.625)">
			<stop  offset="0" style="stop-color:#6CA0B9"/>
			<stop  offset="1" style="stop-color:#6297B3"/>
		</linearGradient>
		<polygon fill="url(#SVGID_69_)" points="1193.771,1484.583 806.56,1558.993 1299.745,1752.459 		"/>
		
			<linearGradient id="SVGID_70_" gradientUnits="userSpaceOnUse" x1="3544.3564" y1="-2998.9795" x2="3546.2585" y2="-3000.8816" gradientTransform="matrix(404 0 0 -255 -1431859.25 -763240.75)">
			<stop  offset="0" style="stop-color:#809EC2"/>
			<stop  offset="1" style="stop-color:#5B7F9E"/>
		</linearGradient>
		<polygon fill="url(#SVGID_70_)" points="806.56,1558.993 0.001,1548.059 0.001,1579.065 237.972,2022.195 		"/>
		
			<linearGradient id="SVGID_71_" gradientUnits="userSpaceOnUse" x1="3544.1309" y1="-3012.1396" x2="3546.0325" y2="-3014.0413" gradientTransform="matrix(404 0 0 -142 -1431859.25 -426410.625)">
			<stop  offset="0" style="stop-color:#86A2C5"/>
			<stop  offset="1" style="stop-color:#5E7E9E"/>
		</linearGradient>
		<polygon fill="url(#SVGID_71_)" points="555.893,1294.837 0.001,1540.421 0.001,1548.059 806.56,1558.993 		"/>
		
			<linearGradient id="SVGID_72_" gradientUnits="userSpaceOnUse" x1="3550.2329" y1="-2997.623" x2="3552.0376" y2="-2999.4277" gradientTransform="matrix(501 0 0 -282 -1775645.5 -843686.75)">
			<stop  offset="0" style="stop-color:#1A333B"/>
			<stop  offset="1" style="stop-color:#265B67"/>
		</linearGradient>
		<polygon fill="url(#SVGID_72_)" points="3247.88,2160.663 3410.818,2160.663 3435.019,2160.663 3725.12,2160.663 
			3830.778,2160.663 3840,2160.663 3840,2132.882 3840,1461.615 2800.796,2160.663 		"/>
	</g>
</g>
<g id="Layer_23">
</g>
<g id="Layer_24">
</g>
<g id="Layer_25">
</g>
</svg>
